%TF.GenerationSoftware,KiCad,Pcbnew,10.0.5*%
%TF.CreationDate,2026-08-09T11:14:31+01:00*%
%TF.ProjectId,radar_5g8_receive,72616461-725f-4356-9738-5f7265636569,rev?*%
%TF.SameCoordinates,Original*%
%TF.FileFunction,Drillmap*%
%TF.FilePolarity,Positive*%
%FSLAX45Y45*%
G04 Gerber Fmt 4.5, Leading zero omitted, Abs format (unit mm)*
G04 Created by KiCad (PCBNEW 10.0.5) date 2026-08-09 11:14:31*
%MOMM*%
%LPD*%
G01*
G04 APERTURE LIST*
%ADD10C,0.100000*%
%ADD11C,0.200000*%
%ADD12C,0.320000*%
G04 APERTURE END LIST*
D10*
X0Y-80000D02*
X0Y-7068505D01*
X0Y-80000D02*
G75*
G02*
X80000Y0I80000J0D01*
G01*
X80000Y-7148505D02*
G75*
G02*
X0Y-7068505I0J80000D01*
G01*
X80000Y-7148505D02*
X4657300Y-7148505D01*
X4657300Y0D02*
X80000Y0D01*
X4657300Y0D02*
G75*
G02*
X4737300Y-80000I0J-80000D01*
G01*
X4737300Y-7068505D02*
G75*
G02*
X4657300Y-7148510I-80010J5D01*
G01*
X4737300Y-7068505D02*
X4737300Y-80000D01*
D11*
D10*
X100000Y-1223409D02*
X140000Y-1263409D01*
X140000Y-1223409D02*
X100000Y-1263409D01*
X100000Y-1774382D02*
X140000Y-1814382D01*
X140000Y-1774382D02*
X100000Y-1814382D01*
X100000Y-6213018D02*
X140000Y-6253018D01*
X140000Y-6213018D02*
X100000Y-6253018D01*
X100000Y-6763991D02*
X140000Y-6803991D01*
X140000Y-6763991D02*
X100000Y-6803991D01*
X227000Y-1223409D02*
X267000Y-1263409D01*
X267000Y-1223409D02*
X227000Y-1263409D01*
X227000Y-1774382D02*
X267000Y-1814382D01*
X267000Y-1774382D02*
X227000Y-1814382D01*
X227000Y-6213018D02*
X267000Y-6253018D01*
X267000Y-6213018D02*
X227000Y-6253018D01*
X227000Y-6763991D02*
X267000Y-6803991D01*
X267000Y-6763991D02*
X227000Y-6803991D01*
X474505Y-494977D02*
X514505Y-534977D01*
X514505Y-494977D02*
X474505Y-534977D01*
X474505Y-644977D02*
X514505Y-684977D01*
X514505Y-644977D02*
X474505Y-684977D01*
X474505Y-5484587D02*
X514505Y-5524587D01*
X514505Y-5484587D02*
X474505Y-5524587D01*
X474505Y-5634587D02*
X514505Y-5674587D01*
X514505Y-5634587D02*
X474505Y-5674587D01*
X605000Y-1914572D02*
X645000Y-1954572D01*
X645000Y-1914572D02*
X605000Y-1954572D01*
X605000Y-6904181D02*
X645000Y-6944181D01*
X645000Y-6904181D02*
X605000Y-6944181D01*
X755000Y-1914572D02*
X795000Y-1954572D01*
X795000Y-1914572D02*
X755000Y-1954572D01*
X755000Y-6904181D02*
X795000Y-6944181D01*
X795000Y-6904181D02*
X755000Y-6944181D01*
X4117300Y-6843505D02*
X4157300Y-6883505D01*
X4157300Y-6843505D02*
X4117300Y-6883505D01*
D12*
X560000Y-3574205D02*
G75*
G02*
X240000Y-3574205I-160000J0D01*
G01*
X240000Y-3574205D02*
G75*
G02*
X560000Y-3574205I160000J0D01*
G01*
X2528600Y-3574205D02*
G75*
G02*
X2208600Y-3574205I-160000J0D01*
G01*
X2208600Y-3574205D02*
G75*
G02*
X2528600Y-3574205I160000J0D01*
G01*
X4497300Y-400005D02*
G75*
G02*
X4177300Y-400005I-160000J0D01*
G01*
X4177300Y-400005D02*
G75*
G02*
X4497300Y-400005I160000J0D01*
G01*
X4497300Y-3574205D02*
G75*
G02*
X4177300Y-3574205I-160000J0D01*
G01*
X4177300Y-3574205D02*
G75*
G02*
X4497300Y-3574205I160000J0D01*
G01*
X4497300Y-6748505D02*
G75*
G02*
X4177300Y-6748505I-160000J0D01*
G01*
X4177300Y-6748505D02*
G75*
G02*
X4497300Y-6748505I160000J0D01*
G01*
D11*
X255777Y-7464989D02*
X255777Y-7264989D01*
X255777Y-7264989D02*
X303396Y-7264989D01*
X303396Y-7264989D02*
X331967Y-7274513D01*
X331967Y-7274513D02*
X351015Y-7293560D01*
X351015Y-7293560D02*
X360539Y-7312608D01*
X360539Y-7312608D02*
X370062Y-7350703D01*
X370062Y-7350703D02*
X370062Y-7379274D01*
X370062Y-7379274D02*
X360539Y-7417370D01*
X360539Y-7417370D02*
X351015Y-7436417D01*
X351015Y-7436417D02*
X331967Y-7455465D01*
X331967Y-7455465D02*
X303396Y-7464989D01*
X303396Y-7464989D02*
X255777Y-7464989D01*
X455777Y-7464989D02*
X455777Y-7331655D01*
X455777Y-7369751D02*
X465301Y-7350703D01*
X465301Y-7350703D02*
X474824Y-7341179D01*
X474824Y-7341179D02*
X493872Y-7331655D01*
X493872Y-7331655D02*
X512920Y-7331655D01*
X579586Y-7464989D02*
X579586Y-7331655D01*
X579586Y-7264989D02*
X570063Y-7274513D01*
X570063Y-7274513D02*
X579586Y-7284036D01*
X579586Y-7284036D02*
X589110Y-7274513D01*
X589110Y-7274513D02*
X579586Y-7264989D01*
X579586Y-7264989D02*
X579586Y-7284036D01*
X703396Y-7464989D02*
X684348Y-7455465D01*
X684348Y-7455465D02*
X674824Y-7436417D01*
X674824Y-7436417D02*
X674824Y-7264989D01*
X808158Y-7464989D02*
X789110Y-7455465D01*
X789110Y-7455465D02*
X779586Y-7436417D01*
X779586Y-7436417D02*
X779586Y-7264989D01*
X1036729Y-7464989D02*
X1036729Y-7264989D01*
X1036729Y-7264989D02*
X1103396Y-7407846D01*
X1103396Y-7407846D02*
X1170063Y-7264989D01*
X1170063Y-7264989D02*
X1170063Y-7464989D01*
X1351015Y-7464989D02*
X1351015Y-7360227D01*
X1351015Y-7360227D02*
X1341491Y-7341179D01*
X1341491Y-7341179D02*
X1322444Y-7331655D01*
X1322444Y-7331655D02*
X1284348Y-7331655D01*
X1284348Y-7331655D02*
X1265301Y-7341179D01*
X1351015Y-7455465D02*
X1331967Y-7464989D01*
X1331967Y-7464989D02*
X1284348Y-7464989D01*
X1284348Y-7464989D02*
X1265301Y-7455465D01*
X1265301Y-7455465D02*
X1255777Y-7436417D01*
X1255777Y-7436417D02*
X1255777Y-7417370D01*
X1255777Y-7417370D02*
X1265301Y-7398322D01*
X1265301Y-7398322D02*
X1284348Y-7388798D01*
X1284348Y-7388798D02*
X1331967Y-7388798D01*
X1331967Y-7388798D02*
X1351015Y-7379274D01*
X1446253Y-7331655D02*
X1446253Y-7531655D01*
X1446253Y-7341179D02*
X1465301Y-7331655D01*
X1465301Y-7331655D02*
X1503396Y-7331655D01*
X1503396Y-7331655D02*
X1522443Y-7341179D01*
X1522443Y-7341179D02*
X1531967Y-7350703D01*
X1531967Y-7350703D02*
X1541491Y-7369751D01*
X1541491Y-7369751D02*
X1541491Y-7426893D01*
X1541491Y-7426893D02*
X1531967Y-7445941D01*
X1531967Y-7445941D02*
X1522443Y-7455465D01*
X1522443Y-7455465D02*
X1503396Y-7464989D01*
X1503396Y-7464989D02*
X1465301Y-7464989D01*
X1465301Y-7464989D02*
X1446253Y-7455465D01*
X1627205Y-7445941D02*
X1636729Y-7455465D01*
X1636729Y-7455465D02*
X1627205Y-7464989D01*
X1627205Y-7464989D02*
X1617682Y-7455465D01*
X1617682Y-7455465D02*
X1627205Y-7445941D01*
X1627205Y-7445941D02*
X1627205Y-7464989D01*
X1627205Y-7341179D02*
X1636729Y-7350703D01*
X1636729Y-7350703D02*
X1627205Y-7360227D01*
X1627205Y-7360227D02*
X1617682Y-7350703D01*
X1617682Y-7350703D02*
X1627205Y-7341179D01*
X1627205Y-7341179D02*
X1627205Y-7360227D01*
D10*
X-45000Y-7773505D02*
X-5000Y-7813505D01*
X-5000Y-7773505D02*
X-45000Y-7813505D01*
D11*
X293872Y-7684989D02*
X312920Y-7684989D01*
X312920Y-7684989D02*
X331967Y-7694513D01*
X331967Y-7694513D02*
X341491Y-7704036D01*
X341491Y-7704036D02*
X351015Y-7723084D01*
X351015Y-7723084D02*
X360539Y-7761179D01*
X360539Y-7761179D02*
X360539Y-7808798D01*
X360539Y-7808798D02*
X351015Y-7846893D01*
X351015Y-7846893D02*
X341491Y-7865941D01*
X341491Y-7865941D02*
X331967Y-7875465D01*
X331967Y-7875465D02*
X312920Y-7884989D01*
X312920Y-7884989D02*
X293872Y-7884989D01*
X293872Y-7884989D02*
X274824Y-7875465D01*
X274824Y-7875465D02*
X265301Y-7865941D01*
X265301Y-7865941D02*
X255777Y-7846893D01*
X255777Y-7846893D02*
X246253Y-7808798D01*
X246253Y-7808798D02*
X246253Y-7761179D01*
X246253Y-7761179D02*
X255777Y-7723084D01*
X255777Y-7723084D02*
X265301Y-7704036D01*
X265301Y-7704036D02*
X274824Y-7694513D01*
X274824Y-7694513D02*
X293872Y-7684989D01*
X446253Y-7865941D02*
X455777Y-7875465D01*
X455777Y-7875465D02*
X446253Y-7884989D01*
X446253Y-7884989D02*
X436729Y-7875465D01*
X436729Y-7875465D02*
X446253Y-7865941D01*
X446253Y-7865941D02*
X446253Y-7884989D01*
X627205Y-7751655D02*
X627205Y-7884989D01*
X579586Y-7675465D02*
X531967Y-7818322D01*
X531967Y-7818322D02*
X655777Y-7818322D01*
X770062Y-7684989D02*
X789110Y-7684989D01*
X789110Y-7684989D02*
X808158Y-7694513D01*
X808158Y-7694513D02*
X817682Y-7704036D01*
X817682Y-7704036D02*
X827205Y-7723084D01*
X827205Y-7723084D02*
X836729Y-7761179D01*
X836729Y-7761179D02*
X836729Y-7808798D01*
X836729Y-7808798D02*
X827205Y-7846893D01*
X827205Y-7846893D02*
X817682Y-7865941D01*
X817682Y-7865941D02*
X808158Y-7875465D01*
X808158Y-7875465D02*
X789110Y-7884989D01*
X789110Y-7884989D02*
X770062Y-7884989D01*
X770062Y-7884989D02*
X751015Y-7875465D01*
X751015Y-7875465D02*
X741491Y-7865941D01*
X741491Y-7865941D02*
X731967Y-7846893D01*
X731967Y-7846893D02*
X722443Y-7808798D01*
X722443Y-7808798D02*
X722443Y-7761179D01*
X722443Y-7761179D02*
X731967Y-7723084D01*
X731967Y-7723084D02*
X741491Y-7704036D01*
X741491Y-7704036D02*
X751015Y-7694513D01*
X751015Y-7694513D02*
X770062Y-7684989D01*
X960539Y-7684989D02*
X979586Y-7684989D01*
X979586Y-7684989D02*
X998634Y-7694513D01*
X998634Y-7694513D02*
X1008158Y-7704036D01*
X1008158Y-7704036D02*
X1017682Y-7723084D01*
X1017682Y-7723084D02*
X1027205Y-7761179D01*
X1027205Y-7761179D02*
X1027205Y-7808798D01*
X1027205Y-7808798D02*
X1017682Y-7846893D01*
X1017682Y-7846893D02*
X1008158Y-7865941D01*
X1008158Y-7865941D02*
X998634Y-7875465D01*
X998634Y-7875465D02*
X979586Y-7884989D01*
X979586Y-7884989D02*
X960539Y-7884989D01*
X960539Y-7884989D02*
X941491Y-7875465D01*
X941491Y-7875465D02*
X931967Y-7865941D01*
X931967Y-7865941D02*
X922443Y-7846893D01*
X922443Y-7846893D02*
X912920Y-7808798D01*
X912920Y-7808798D02*
X912920Y-7761179D01*
X912920Y-7761179D02*
X922443Y-7723084D01*
X922443Y-7723084D02*
X931967Y-7704036D01*
X931967Y-7704036D02*
X941491Y-7694513D01*
X941491Y-7694513D02*
X960539Y-7684989D01*
X1112920Y-7884989D02*
X1112920Y-7751655D01*
X1112920Y-7770703D02*
X1122444Y-7761179D01*
X1122444Y-7761179D02*
X1141491Y-7751655D01*
X1141491Y-7751655D02*
X1170063Y-7751655D01*
X1170063Y-7751655D02*
X1189110Y-7761179D01*
X1189110Y-7761179D02*
X1198634Y-7780227D01*
X1198634Y-7780227D02*
X1198634Y-7884989D01*
X1198634Y-7780227D02*
X1208158Y-7761179D01*
X1208158Y-7761179D02*
X1227205Y-7751655D01*
X1227205Y-7751655D02*
X1255777Y-7751655D01*
X1255777Y-7751655D02*
X1274825Y-7761179D01*
X1274825Y-7761179D02*
X1284348Y-7780227D01*
X1284348Y-7780227D02*
X1284348Y-7884989D01*
X1379586Y-7884989D02*
X1379586Y-7751655D01*
X1379586Y-7770703D02*
X1389110Y-7761179D01*
X1389110Y-7761179D02*
X1408158Y-7751655D01*
X1408158Y-7751655D02*
X1436729Y-7751655D01*
X1436729Y-7751655D02*
X1455777Y-7761179D01*
X1455777Y-7761179D02*
X1465301Y-7780227D01*
X1465301Y-7780227D02*
X1465301Y-7884989D01*
X1465301Y-7780227D02*
X1474824Y-7761179D01*
X1474824Y-7761179D02*
X1493872Y-7751655D01*
X1493872Y-7751655D02*
X1522443Y-7751655D01*
X1522443Y-7751655D02*
X1541491Y-7761179D01*
X1541491Y-7761179D02*
X1551015Y-7780227D01*
X1551015Y-7780227D02*
X1551015Y-7884989D01*
X1941491Y-7675465D02*
X1770063Y-7932608D01*
X2198634Y-7684989D02*
X2217682Y-7684989D01*
X2217682Y-7684989D02*
X2236729Y-7694513D01*
X2236729Y-7694513D02*
X2246253Y-7704036D01*
X2246253Y-7704036D02*
X2255777Y-7723084D01*
X2255777Y-7723084D02*
X2265301Y-7761179D01*
X2265301Y-7761179D02*
X2265301Y-7808798D01*
X2265301Y-7808798D02*
X2255777Y-7846893D01*
X2255777Y-7846893D02*
X2246253Y-7865941D01*
X2246253Y-7865941D02*
X2236729Y-7875465D01*
X2236729Y-7875465D02*
X2217682Y-7884989D01*
X2217682Y-7884989D02*
X2198634Y-7884989D01*
X2198634Y-7884989D02*
X2179587Y-7875465D01*
X2179587Y-7875465D02*
X2170063Y-7865941D01*
X2170063Y-7865941D02*
X2160539Y-7846893D01*
X2160539Y-7846893D02*
X2151015Y-7808798D01*
X2151015Y-7808798D02*
X2151015Y-7761179D01*
X2151015Y-7761179D02*
X2160539Y-7723084D01*
X2160539Y-7723084D02*
X2170063Y-7704036D01*
X2170063Y-7704036D02*
X2179587Y-7694513D01*
X2179587Y-7694513D02*
X2198634Y-7684989D01*
X2351015Y-7865941D02*
X2360539Y-7875465D01*
X2360539Y-7875465D02*
X2351015Y-7884989D01*
X2351015Y-7884989D02*
X2341491Y-7875465D01*
X2341491Y-7875465D02*
X2351015Y-7865941D01*
X2351015Y-7865941D02*
X2351015Y-7884989D01*
X2484348Y-7684989D02*
X2503396Y-7684989D01*
X2503396Y-7684989D02*
X2522444Y-7694513D01*
X2522444Y-7694513D02*
X2531968Y-7704036D01*
X2531968Y-7704036D02*
X2541491Y-7723084D01*
X2541491Y-7723084D02*
X2551015Y-7761179D01*
X2551015Y-7761179D02*
X2551015Y-7808798D01*
X2551015Y-7808798D02*
X2541491Y-7846893D01*
X2541491Y-7846893D02*
X2531968Y-7865941D01*
X2531968Y-7865941D02*
X2522444Y-7875465D01*
X2522444Y-7875465D02*
X2503396Y-7884989D01*
X2503396Y-7884989D02*
X2484348Y-7884989D01*
X2484348Y-7884989D02*
X2465301Y-7875465D01*
X2465301Y-7875465D02*
X2455777Y-7865941D01*
X2455777Y-7865941D02*
X2446253Y-7846893D01*
X2446253Y-7846893D02*
X2436729Y-7808798D01*
X2436729Y-7808798D02*
X2436729Y-7761179D01*
X2436729Y-7761179D02*
X2446253Y-7723084D01*
X2446253Y-7723084D02*
X2455777Y-7704036D01*
X2455777Y-7704036D02*
X2465301Y-7694513D01*
X2465301Y-7694513D02*
X2484348Y-7684989D01*
X2741491Y-7884989D02*
X2627206Y-7884989D01*
X2684348Y-7884989D02*
X2684348Y-7684989D01*
X2684348Y-7684989D02*
X2665301Y-7713560D01*
X2665301Y-7713560D02*
X2646253Y-7732608D01*
X2646253Y-7732608D02*
X2627206Y-7742132D01*
X2922444Y-7684989D02*
X2827206Y-7684989D01*
X2827206Y-7684989D02*
X2817682Y-7780227D01*
X2817682Y-7780227D02*
X2827206Y-7770703D01*
X2827206Y-7770703D02*
X2846253Y-7761179D01*
X2846253Y-7761179D02*
X2893872Y-7761179D01*
X2893872Y-7761179D02*
X2912920Y-7770703D01*
X2912920Y-7770703D02*
X2922444Y-7780227D01*
X2922444Y-7780227D02*
X2931967Y-7799274D01*
X2931967Y-7799274D02*
X2931967Y-7846893D01*
X2931967Y-7846893D02*
X2922444Y-7865941D01*
X2922444Y-7865941D02*
X2912920Y-7875465D01*
X2912920Y-7875465D02*
X2893872Y-7884989D01*
X2893872Y-7884989D02*
X2846253Y-7884989D01*
X2846253Y-7884989D02*
X2827206Y-7875465D01*
X2827206Y-7875465D02*
X2817682Y-7865941D01*
X2998634Y-7684989D02*
X3131967Y-7684989D01*
X3131967Y-7684989D02*
X3046253Y-7884989D01*
X3198634Y-7684989D02*
X3198634Y-7723084D01*
X3274825Y-7684989D02*
X3274825Y-7723084D01*
X3570063Y-7961179D02*
X3560539Y-7951655D01*
X3560539Y-7951655D02*
X3541491Y-7923084D01*
X3541491Y-7923084D02*
X3531968Y-7904036D01*
X3531968Y-7904036D02*
X3522444Y-7875465D01*
X3522444Y-7875465D02*
X3512920Y-7827846D01*
X3512920Y-7827846D02*
X3512920Y-7789751D01*
X3512920Y-7789751D02*
X3522444Y-7742132D01*
X3522444Y-7742132D02*
X3531968Y-7713560D01*
X3531968Y-7713560D02*
X3541491Y-7694513D01*
X3541491Y-7694513D02*
X3560539Y-7665941D01*
X3560539Y-7665941D02*
X3570063Y-7656417D01*
X3751015Y-7884989D02*
X3636729Y-7884989D01*
X3693872Y-7884989D02*
X3693872Y-7684989D01*
X3693872Y-7684989D02*
X3674825Y-7713560D01*
X3674825Y-7713560D02*
X3655777Y-7732608D01*
X3655777Y-7732608D02*
X3636729Y-7742132D01*
X3817682Y-7684989D02*
X3951015Y-7684989D01*
X3951015Y-7684989D02*
X3865301Y-7884989D01*
X4179587Y-7884989D02*
X4179587Y-7684989D01*
X4265301Y-7884989D02*
X4265301Y-7780227D01*
X4265301Y-7780227D02*
X4255777Y-7761179D01*
X4255777Y-7761179D02*
X4236730Y-7751655D01*
X4236730Y-7751655D02*
X4208158Y-7751655D01*
X4208158Y-7751655D02*
X4189110Y-7761179D01*
X4189110Y-7761179D02*
X4179587Y-7770703D01*
X4389111Y-7884989D02*
X4370063Y-7875465D01*
X4370063Y-7875465D02*
X4360539Y-7865941D01*
X4360539Y-7865941D02*
X4351015Y-7846893D01*
X4351015Y-7846893D02*
X4351015Y-7789751D01*
X4351015Y-7789751D02*
X4360539Y-7770703D01*
X4360539Y-7770703D02*
X4370063Y-7761179D01*
X4370063Y-7761179D02*
X4389111Y-7751655D01*
X4389111Y-7751655D02*
X4417682Y-7751655D01*
X4417682Y-7751655D02*
X4436730Y-7761179D01*
X4436730Y-7761179D02*
X4446253Y-7770703D01*
X4446253Y-7770703D02*
X4455777Y-7789751D01*
X4455777Y-7789751D02*
X4455777Y-7846893D01*
X4455777Y-7846893D02*
X4446253Y-7865941D01*
X4446253Y-7865941D02*
X4436730Y-7875465D01*
X4436730Y-7875465D02*
X4417682Y-7884989D01*
X4417682Y-7884989D02*
X4389111Y-7884989D01*
X4570063Y-7884989D02*
X4551015Y-7875465D01*
X4551015Y-7875465D02*
X4541492Y-7856417D01*
X4541492Y-7856417D02*
X4541492Y-7684989D01*
X4722444Y-7875465D02*
X4703396Y-7884989D01*
X4703396Y-7884989D02*
X4665301Y-7884989D01*
X4665301Y-7884989D02*
X4646253Y-7875465D01*
X4646253Y-7875465D02*
X4636730Y-7856417D01*
X4636730Y-7856417D02*
X4636730Y-7780227D01*
X4636730Y-7780227D02*
X4646253Y-7761179D01*
X4646253Y-7761179D02*
X4665301Y-7751655D01*
X4665301Y-7751655D02*
X4703396Y-7751655D01*
X4703396Y-7751655D02*
X4722444Y-7761179D01*
X4722444Y-7761179D02*
X4731968Y-7780227D01*
X4731968Y-7780227D02*
X4731968Y-7799274D01*
X4731968Y-7799274D02*
X4636730Y-7818322D01*
X4808158Y-7875465D02*
X4827206Y-7884989D01*
X4827206Y-7884989D02*
X4865301Y-7884989D01*
X4865301Y-7884989D02*
X4884349Y-7875465D01*
X4884349Y-7875465D02*
X4893873Y-7856417D01*
X4893873Y-7856417D02*
X4893873Y-7846893D01*
X4893873Y-7846893D02*
X4884349Y-7827846D01*
X4884349Y-7827846D02*
X4865301Y-7818322D01*
X4865301Y-7818322D02*
X4836730Y-7818322D01*
X4836730Y-7818322D02*
X4817682Y-7808798D01*
X4817682Y-7808798D02*
X4808158Y-7789751D01*
X4808158Y-7789751D02*
X4808158Y-7780227D01*
X4808158Y-7780227D02*
X4817682Y-7761179D01*
X4817682Y-7761179D02*
X4836730Y-7751655D01*
X4836730Y-7751655D02*
X4865301Y-7751655D01*
X4865301Y-7751655D02*
X4884349Y-7761179D01*
X4960539Y-7961179D02*
X4970063Y-7951655D01*
X4970063Y-7951655D02*
X4989111Y-7923084D01*
X4989111Y-7923084D02*
X4998634Y-7904036D01*
X4998634Y-7904036D02*
X5008158Y-7875465D01*
X5008158Y-7875465D02*
X5017682Y-7827846D01*
X5017682Y-7827846D02*
X5017682Y-7789751D01*
X5017682Y-7789751D02*
X5008158Y-7742132D01*
X5008158Y-7742132D02*
X4998634Y-7713560D01*
X4998634Y-7713560D02*
X4989111Y-7694513D01*
X4989111Y-7694513D02*
X4970063Y-7665941D01*
X4970063Y-7665941D02*
X4960539Y-7656417D01*
X-5000Y-8057505D02*
G75*
G02*
X-205000Y-8057505I-100000J0D01*
G01*
X-205000Y-8057505D02*
G75*
G02*
X-5000Y-8057505I100000J0D01*
G01*
X236729Y-7948989D02*
X360539Y-7948989D01*
X360539Y-7948989D02*
X293872Y-8025179D01*
X293872Y-8025179D02*
X322444Y-8025179D01*
X322444Y-8025179D02*
X341491Y-8034703D01*
X341491Y-8034703D02*
X351015Y-8044227D01*
X351015Y-8044227D02*
X360539Y-8063274D01*
X360539Y-8063274D02*
X360539Y-8110893D01*
X360539Y-8110893D02*
X351015Y-8129941D01*
X351015Y-8129941D02*
X341491Y-8139465D01*
X341491Y-8139465D02*
X322444Y-8148989D01*
X322444Y-8148989D02*
X265301Y-8148989D01*
X265301Y-8148989D02*
X246253Y-8139465D01*
X246253Y-8139465D02*
X236729Y-8129941D01*
X446253Y-8129941D02*
X455777Y-8139465D01*
X455777Y-8139465D02*
X446253Y-8148989D01*
X446253Y-8148989D02*
X436729Y-8139465D01*
X436729Y-8139465D02*
X446253Y-8129941D01*
X446253Y-8129941D02*
X446253Y-8148989D01*
X531967Y-7968036D02*
X541491Y-7958513D01*
X541491Y-7958513D02*
X560539Y-7948989D01*
X560539Y-7948989D02*
X608158Y-7948989D01*
X608158Y-7948989D02*
X627205Y-7958513D01*
X627205Y-7958513D02*
X636729Y-7968036D01*
X636729Y-7968036D02*
X646253Y-7987084D01*
X646253Y-7987084D02*
X646253Y-8006132D01*
X646253Y-8006132D02*
X636729Y-8034703D01*
X636729Y-8034703D02*
X522443Y-8148989D01*
X522443Y-8148989D02*
X646253Y-8148989D01*
X770062Y-7948989D02*
X789110Y-7948989D01*
X789110Y-7948989D02*
X808158Y-7958513D01*
X808158Y-7958513D02*
X817682Y-7968036D01*
X817682Y-7968036D02*
X827205Y-7987084D01*
X827205Y-7987084D02*
X836729Y-8025179D01*
X836729Y-8025179D02*
X836729Y-8072798D01*
X836729Y-8072798D02*
X827205Y-8110893D01*
X827205Y-8110893D02*
X817682Y-8129941D01*
X817682Y-8129941D02*
X808158Y-8139465D01*
X808158Y-8139465D02*
X789110Y-8148989D01*
X789110Y-8148989D02*
X770062Y-8148989D01*
X770062Y-8148989D02*
X751015Y-8139465D01*
X751015Y-8139465D02*
X741491Y-8129941D01*
X741491Y-8129941D02*
X731967Y-8110893D01*
X731967Y-8110893D02*
X722443Y-8072798D01*
X722443Y-8072798D02*
X722443Y-8025179D01*
X722443Y-8025179D02*
X731967Y-7987084D01*
X731967Y-7987084D02*
X741491Y-7968036D01*
X741491Y-7968036D02*
X751015Y-7958513D01*
X751015Y-7958513D02*
X770062Y-7948989D01*
X960539Y-7948989D02*
X979586Y-7948989D01*
X979586Y-7948989D02*
X998634Y-7958513D01*
X998634Y-7958513D02*
X1008158Y-7968036D01*
X1008158Y-7968036D02*
X1017682Y-7987084D01*
X1017682Y-7987084D02*
X1027205Y-8025179D01*
X1027205Y-8025179D02*
X1027205Y-8072798D01*
X1027205Y-8072798D02*
X1017682Y-8110893D01*
X1017682Y-8110893D02*
X1008158Y-8129941D01*
X1008158Y-8129941D02*
X998634Y-8139465D01*
X998634Y-8139465D02*
X979586Y-8148989D01*
X979586Y-8148989D02*
X960539Y-8148989D01*
X960539Y-8148989D02*
X941491Y-8139465D01*
X941491Y-8139465D02*
X931967Y-8129941D01*
X931967Y-8129941D02*
X922443Y-8110893D01*
X922443Y-8110893D02*
X912920Y-8072798D01*
X912920Y-8072798D02*
X912920Y-8025179D01*
X912920Y-8025179D02*
X922443Y-7987084D01*
X922443Y-7987084D02*
X931967Y-7968036D01*
X931967Y-7968036D02*
X941491Y-7958513D01*
X941491Y-7958513D02*
X960539Y-7948989D01*
X1112920Y-8148989D02*
X1112920Y-8015655D01*
X1112920Y-8034703D02*
X1122444Y-8025179D01*
X1122444Y-8025179D02*
X1141491Y-8015655D01*
X1141491Y-8015655D02*
X1170063Y-8015655D01*
X1170063Y-8015655D02*
X1189110Y-8025179D01*
X1189110Y-8025179D02*
X1198634Y-8044227D01*
X1198634Y-8044227D02*
X1198634Y-8148989D01*
X1198634Y-8044227D02*
X1208158Y-8025179D01*
X1208158Y-8025179D02*
X1227205Y-8015655D01*
X1227205Y-8015655D02*
X1255777Y-8015655D01*
X1255777Y-8015655D02*
X1274825Y-8025179D01*
X1274825Y-8025179D02*
X1284348Y-8044227D01*
X1284348Y-8044227D02*
X1284348Y-8148989D01*
X1379586Y-8148989D02*
X1379586Y-8015655D01*
X1379586Y-8034703D02*
X1389110Y-8025179D01*
X1389110Y-8025179D02*
X1408158Y-8015655D01*
X1408158Y-8015655D02*
X1436729Y-8015655D01*
X1436729Y-8015655D02*
X1455777Y-8025179D01*
X1455777Y-8025179D02*
X1465301Y-8044227D01*
X1465301Y-8044227D02*
X1465301Y-8148989D01*
X1465301Y-8044227D02*
X1474824Y-8025179D01*
X1474824Y-8025179D02*
X1493872Y-8015655D01*
X1493872Y-8015655D02*
X1522443Y-8015655D01*
X1522443Y-8015655D02*
X1541491Y-8025179D01*
X1541491Y-8025179D02*
X1551015Y-8044227D01*
X1551015Y-8044227D02*
X1551015Y-8148989D01*
X1941491Y-7939465D02*
X1770063Y-8196608D01*
X2198634Y-7948989D02*
X2217682Y-7948989D01*
X2217682Y-7948989D02*
X2236729Y-7958513D01*
X2236729Y-7958513D02*
X2246253Y-7968036D01*
X2246253Y-7968036D02*
X2255777Y-7987084D01*
X2255777Y-7987084D02*
X2265301Y-8025179D01*
X2265301Y-8025179D02*
X2265301Y-8072798D01*
X2265301Y-8072798D02*
X2255777Y-8110893D01*
X2255777Y-8110893D02*
X2246253Y-8129941D01*
X2246253Y-8129941D02*
X2236729Y-8139465D01*
X2236729Y-8139465D02*
X2217682Y-8148989D01*
X2217682Y-8148989D02*
X2198634Y-8148989D01*
X2198634Y-8148989D02*
X2179587Y-8139465D01*
X2179587Y-8139465D02*
X2170063Y-8129941D01*
X2170063Y-8129941D02*
X2160539Y-8110893D01*
X2160539Y-8110893D02*
X2151015Y-8072798D01*
X2151015Y-8072798D02*
X2151015Y-8025179D01*
X2151015Y-8025179D02*
X2160539Y-7987084D01*
X2160539Y-7987084D02*
X2170063Y-7968036D01*
X2170063Y-7968036D02*
X2179587Y-7958513D01*
X2179587Y-7958513D02*
X2198634Y-7948989D01*
X2351015Y-8129941D02*
X2360539Y-8139465D01*
X2360539Y-8139465D02*
X2351015Y-8148989D01*
X2351015Y-8148989D02*
X2341491Y-8139465D01*
X2341491Y-8139465D02*
X2351015Y-8129941D01*
X2351015Y-8129941D02*
X2351015Y-8148989D01*
X2551015Y-8148989D02*
X2436729Y-8148989D01*
X2493872Y-8148989D02*
X2493872Y-7948989D01*
X2493872Y-7948989D02*
X2474825Y-7977560D01*
X2474825Y-7977560D02*
X2455777Y-7996608D01*
X2455777Y-7996608D02*
X2436729Y-8006132D01*
X2627206Y-7968036D02*
X2636729Y-7958513D01*
X2636729Y-7958513D02*
X2655777Y-7948989D01*
X2655777Y-7948989D02*
X2703396Y-7948989D01*
X2703396Y-7948989D02*
X2722444Y-7958513D01*
X2722444Y-7958513D02*
X2731968Y-7968036D01*
X2731968Y-7968036D02*
X2741491Y-7987084D01*
X2741491Y-7987084D02*
X2741491Y-8006132D01*
X2741491Y-8006132D02*
X2731968Y-8034703D01*
X2731968Y-8034703D02*
X2617682Y-8148989D01*
X2617682Y-8148989D02*
X2741491Y-8148989D01*
X2912920Y-7948989D02*
X2874825Y-7948989D01*
X2874825Y-7948989D02*
X2855777Y-7958513D01*
X2855777Y-7958513D02*
X2846253Y-7968036D01*
X2846253Y-7968036D02*
X2827206Y-7996608D01*
X2827206Y-7996608D02*
X2817682Y-8034703D01*
X2817682Y-8034703D02*
X2817682Y-8110893D01*
X2817682Y-8110893D02*
X2827206Y-8129941D01*
X2827206Y-8129941D02*
X2836729Y-8139465D01*
X2836729Y-8139465D02*
X2855777Y-8148989D01*
X2855777Y-8148989D02*
X2893872Y-8148989D01*
X2893872Y-8148989D02*
X2912920Y-8139465D01*
X2912920Y-8139465D02*
X2922444Y-8129941D01*
X2922444Y-8129941D02*
X2931967Y-8110893D01*
X2931967Y-8110893D02*
X2931967Y-8063274D01*
X2931967Y-8063274D02*
X2922444Y-8044227D01*
X2922444Y-8044227D02*
X2912920Y-8034703D01*
X2912920Y-8034703D02*
X2893872Y-8025179D01*
X2893872Y-8025179D02*
X2855777Y-8025179D01*
X2855777Y-8025179D02*
X2836729Y-8034703D01*
X2836729Y-8034703D02*
X2827206Y-8044227D01*
X2827206Y-8044227D02*
X2817682Y-8063274D01*
X3055777Y-7948989D02*
X3074825Y-7948989D01*
X3074825Y-7948989D02*
X3093872Y-7958513D01*
X3093872Y-7958513D02*
X3103396Y-7968036D01*
X3103396Y-7968036D02*
X3112920Y-7987084D01*
X3112920Y-7987084D02*
X3122444Y-8025179D01*
X3122444Y-8025179D02*
X3122444Y-8072798D01*
X3122444Y-8072798D02*
X3112920Y-8110893D01*
X3112920Y-8110893D02*
X3103396Y-8129941D01*
X3103396Y-8129941D02*
X3093872Y-8139465D01*
X3093872Y-8139465D02*
X3074825Y-8148989D01*
X3074825Y-8148989D02*
X3055777Y-8148989D01*
X3055777Y-8148989D02*
X3036729Y-8139465D01*
X3036729Y-8139465D02*
X3027206Y-8129941D01*
X3027206Y-8129941D02*
X3017682Y-8110893D01*
X3017682Y-8110893D02*
X3008158Y-8072798D01*
X3008158Y-8072798D02*
X3008158Y-8025179D01*
X3008158Y-8025179D02*
X3017682Y-7987084D01*
X3017682Y-7987084D02*
X3027206Y-7968036D01*
X3027206Y-7968036D02*
X3036729Y-7958513D01*
X3036729Y-7958513D02*
X3055777Y-7948989D01*
X3198634Y-7948989D02*
X3198634Y-7987084D01*
X3274825Y-7948989D02*
X3274825Y-7987084D01*
X3570063Y-8225179D02*
X3560539Y-8215655D01*
X3560539Y-8215655D02*
X3541491Y-8187084D01*
X3541491Y-8187084D02*
X3531968Y-8168036D01*
X3531968Y-8168036D02*
X3522444Y-8139465D01*
X3522444Y-8139465D02*
X3512920Y-8091846D01*
X3512920Y-8091846D02*
X3512920Y-8053751D01*
X3512920Y-8053751D02*
X3522444Y-8006132D01*
X3522444Y-8006132D02*
X3531968Y-7977560D01*
X3531968Y-7977560D02*
X3541491Y-7958513D01*
X3541491Y-7958513D02*
X3560539Y-7929941D01*
X3560539Y-7929941D02*
X3570063Y-7920417D01*
X3741491Y-7948989D02*
X3646253Y-7948989D01*
X3646253Y-7948989D02*
X3636729Y-8044227D01*
X3636729Y-8044227D02*
X3646253Y-8034703D01*
X3646253Y-8034703D02*
X3665301Y-8025179D01*
X3665301Y-8025179D02*
X3712920Y-8025179D01*
X3712920Y-8025179D02*
X3731968Y-8034703D01*
X3731968Y-8034703D02*
X3741491Y-8044227D01*
X3741491Y-8044227D02*
X3751015Y-8063274D01*
X3751015Y-8063274D02*
X3751015Y-8110893D01*
X3751015Y-8110893D02*
X3741491Y-8129941D01*
X3741491Y-8129941D02*
X3731968Y-8139465D01*
X3731968Y-8139465D02*
X3712920Y-8148989D01*
X3712920Y-8148989D02*
X3665301Y-8148989D01*
X3665301Y-8148989D02*
X3646253Y-8139465D01*
X3646253Y-8139465D02*
X3636729Y-8129941D01*
X3989110Y-8148989D02*
X3989110Y-7948989D01*
X4074825Y-8148989D02*
X4074825Y-8044227D01*
X4074825Y-8044227D02*
X4065301Y-8025179D01*
X4065301Y-8025179D02*
X4046253Y-8015655D01*
X4046253Y-8015655D02*
X4017682Y-8015655D01*
X4017682Y-8015655D02*
X3998634Y-8025179D01*
X3998634Y-8025179D02*
X3989110Y-8034703D01*
X4198634Y-8148989D02*
X4179587Y-8139465D01*
X4179587Y-8139465D02*
X4170063Y-8129941D01*
X4170063Y-8129941D02*
X4160539Y-8110893D01*
X4160539Y-8110893D02*
X4160539Y-8053751D01*
X4160539Y-8053751D02*
X4170063Y-8034703D01*
X4170063Y-8034703D02*
X4179587Y-8025179D01*
X4179587Y-8025179D02*
X4198634Y-8015655D01*
X4198634Y-8015655D02*
X4227206Y-8015655D01*
X4227206Y-8015655D02*
X4246253Y-8025179D01*
X4246253Y-8025179D02*
X4255777Y-8034703D01*
X4255777Y-8034703D02*
X4265301Y-8053751D01*
X4265301Y-8053751D02*
X4265301Y-8110893D01*
X4265301Y-8110893D02*
X4255777Y-8129941D01*
X4255777Y-8129941D02*
X4246253Y-8139465D01*
X4246253Y-8139465D02*
X4227206Y-8148989D01*
X4227206Y-8148989D02*
X4198634Y-8148989D01*
X4379587Y-8148989D02*
X4360539Y-8139465D01*
X4360539Y-8139465D02*
X4351015Y-8120417D01*
X4351015Y-8120417D02*
X4351015Y-7948989D01*
X4531968Y-8139465D02*
X4512920Y-8148989D01*
X4512920Y-8148989D02*
X4474825Y-8148989D01*
X4474825Y-8148989D02*
X4455777Y-8139465D01*
X4455777Y-8139465D02*
X4446253Y-8120417D01*
X4446253Y-8120417D02*
X4446253Y-8044227D01*
X4446253Y-8044227D02*
X4455777Y-8025179D01*
X4455777Y-8025179D02*
X4474825Y-8015655D01*
X4474825Y-8015655D02*
X4512920Y-8015655D01*
X4512920Y-8015655D02*
X4531968Y-8025179D01*
X4531968Y-8025179D02*
X4541492Y-8044227D01*
X4541492Y-8044227D02*
X4541492Y-8063274D01*
X4541492Y-8063274D02*
X4446253Y-8082322D01*
X4617682Y-8139465D02*
X4636730Y-8148989D01*
X4636730Y-8148989D02*
X4674825Y-8148989D01*
X4674825Y-8148989D02*
X4693873Y-8139465D01*
X4693873Y-8139465D02*
X4703396Y-8120417D01*
X4703396Y-8120417D02*
X4703396Y-8110893D01*
X4703396Y-8110893D02*
X4693873Y-8091846D01*
X4693873Y-8091846D02*
X4674825Y-8082322D01*
X4674825Y-8082322D02*
X4646253Y-8082322D01*
X4646253Y-8082322D02*
X4627206Y-8072798D01*
X4627206Y-8072798D02*
X4617682Y-8053751D01*
X4617682Y-8053751D02*
X4617682Y-8044227D01*
X4617682Y-8044227D02*
X4627206Y-8025179D01*
X4627206Y-8025179D02*
X4646253Y-8015655D01*
X4646253Y-8015655D02*
X4674825Y-8015655D01*
X4674825Y-8015655D02*
X4693873Y-8025179D01*
X4770063Y-8225179D02*
X4779587Y-8215655D01*
X4779587Y-8215655D02*
X4798634Y-8187084D01*
X4798634Y-8187084D02*
X4808158Y-8168036D01*
X4808158Y-8168036D02*
X4817682Y-8139465D01*
X4817682Y-8139465D02*
X4827206Y-8091846D01*
X4827206Y-8091846D02*
X4827206Y-8053751D01*
X4827206Y-8053751D02*
X4817682Y-8006132D01*
X4817682Y-8006132D02*
X4808158Y-7977560D01*
X4808158Y-7977560D02*
X4798634Y-7958513D01*
X4798634Y-7958513D02*
X4779587Y-7929941D01*
X4779587Y-7929941D02*
X4770063Y-7920417D01*
M02*
