%TF.GenerationSoftware,KiCad,Pcbnew,10.0.5*%
%TF.CreationDate,2026-08-09T20:46:09+01:00*%
%TF.ProjectId,radar_5g8_receive,72616461-725f-4356-9738-5f7265636569,rev?*%
%TF.SameCoordinates,Original*%
%TF.FileFunction,Other,User*%
%FSLAX46Y46*%
G04 Gerber Fmt 4.6, Leading zero omitted, Abs format (unit mm)*
G04 Created by KiCad (PCBNEW 10.0.5) date 2026-08-09 20:46:09*
%MOMM*%
%LPD*%
G01*
G04 APERTURE LIST*
%ADD10C,0.050000*%
G04 APERTURE END LIST*
%TO.C,RX2*%
D10*
X-100000Y-9951409D02*
X3300000Y-9951409D01*
X3300000Y-19844737D01*
X-100000Y-19844737D01*
X-100000Y-9951409D01*
%TO.C,H2*%
X4750000Y-44118744D02*
X11250000Y-44118744D01*
X11250000Y-50618744D01*
X4750000Y-50618744D01*
X4750000Y-44118744D01*
%TO.C,R3*%
X3900017Y-55193749D02*
X7800015Y-55193749D01*
X7800015Y-56693749D01*
X3900017Y-56693749D01*
X3900017Y-55193749D01*
%TO.C,H3*%
X13750000Y-32118744D02*
X20250000Y-32118744D01*
X20250000Y-38618744D01*
X13750000Y-38618744D01*
X13750000Y-32118744D01*
%TO.C,RX1*%
X-100000Y-59995316D02*
X3300000Y-59995316D01*
X3300000Y-69888644D01*
X-100000Y-69888644D01*
X-100000Y-59995316D01*
%TO.C,D1*%
X6100000Y-66118745D02*
X7900000Y-66118745D01*
X7900000Y-69418743D01*
X6100000Y-69418743D01*
X6100000Y-66118745D01*
%TO.C,R4*%
X3900017Y-5149842D02*
X7800015Y-5149842D01*
X7800015Y-6649842D01*
X3900017Y-6649842D01*
X3900017Y-5149842D01*
%TO.C,D2*%
X6100000Y-16074838D02*
X7900000Y-16074838D01*
X7900000Y-19374836D01*
X6100000Y-19374836D01*
X6100000Y-16074838D01*
%TO.C,H1*%
X750000Y-24118744D02*
X7250000Y-24118744D01*
X7250000Y-30618744D01*
X750000Y-30618744D01*
X750000Y-24118744D01*
%TD*%
M02*
