%TF.GenerationSoftware,KiCad,Pcbnew,10.0.5*%
%TF.CreationDate,2026-08-09T20:19:25+01:00*%
%TF.ProjectId,radar_5g8_receive,72616461-725f-4356-9738-5f7265636569,rev?*%
%TF.SameCoordinates,Original*%
%TF.FileFunction,Other,User*%
%FSLAX46Y46*%
G04 Gerber Fmt 4.6, Leading zero omitted, Abs format (unit mm)*
G04 Created by KiCad (PCBNEW 10.0.5) date 2026-08-09 20:19:25*
%MOMM*%
%LPD*%
G01*
G04 APERTURE LIST*
%ADD10C,0.050000*%
G04 APERTURE END LIST*
%TO.C,RX1*%
D10*
X-100000Y-59995316D02*
X3300000Y-59995316D01*
X3300000Y-69888644D01*
X-100000Y-69888644D01*
X-100000Y-59995316D01*
%TO.C,R4*%
X4240017Y-5339842D02*
X7460015Y-5339842D01*
X7460015Y-6459842D01*
X4240017Y-6459842D01*
X4240017Y-5339842D01*
%TO.C,H3*%
X39750000Y-1118744D02*
X46250000Y-1118744D01*
X46250000Y-7618744D01*
X39750000Y-7618744D01*
X39750000Y-1118744D01*
%TO.C,D1*%
X6440000Y-66308745D02*
X7560000Y-66308745D01*
X7560000Y-69228743D01*
X6440000Y-69228743D01*
X6440000Y-66308745D01*
%TO.C,RX2*%
X-100000Y-9951409D02*
X3300000Y-9951409D01*
X3300000Y-19844737D01*
X-100000Y-19844737D01*
X-100000Y-9951409D01*
%TO.C,H4*%
X4750000Y-44118744D02*
X11250000Y-44118744D01*
X11250000Y-50618744D01*
X4750000Y-50618744D01*
X4750000Y-44118744D01*
%TO.C,D2*%
X6440000Y-16264838D02*
X7560000Y-16264838D01*
X7560000Y-19184836D01*
X6440000Y-19184836D01*
X6440000Y-16264838D01*
%TO.C,H2*%
X39750000Y-64118744D02*
X46250000Y-64118744D01*
X46250000Y-70618744D01*
X39750000Y-70618744D01*
X39750000Y-64118744D01*
%TO.C,H5*%
X9750000Y-33118744D02*
X16250000Y-33118744D01*
X16250000Y-39618744D01*
X9750000Y-39618744D01*
X9750000Y-33118744D01*
%TO.C,H1*%
X750000Y-24118744D02*
X7250000Y-24118744D01*
X7250000Y-30618744D01*
X750000Y-30618744D01*
X750000Y-24118744D01*
%TO.C,R3*%
X4240017Y-55383749D02*
X7460015Y-55383749D01*
X7460015Y-56503749D01*
X4240017Y-56503749D01*
X4240017Y-55383749D01*
%TD*%
M02*
