%TF.GenerationSoftware,KiCad,Pcbnew,10.0.5*%
%TF.CreationDate,2026-08-09T20:29:26+01:00*%
%TF.ProjectId,radar_5g8_receive,72616461-725f-4356-9738-5f7265636569,rev?*%
%TF.SameCoordinates,Original*%
%TF.FileFunction,Soldermask,Top*%
%TF.FilePolarity,Negative*%
%FSLAX46Y46*%
G04 Gerber Fmt 4.6, Leading zero omitted, Abs format (unit mm)*
G04 Created by KiCad (PCBNEW 10.0.5) date 2026-08-09 20:29:26*
%MOMM*%
%LPD*%
G01*
G04 APERTURE LIST*
G04 Aperture macros list*
%AMRoundRect*
0 Rectangle with rounded corners*
0 $1 Rounding radius*
0 $2 $3 $4 $5 $6 $7 $8 $9 X,Y pos of 4 corners*
0 Add a 4 corners polygon primitive as box body*
4,1,4,$2,$3,$4,$5,$6,$7,$8,$9,$2,$3,0*
0 Add four circle primitives for the rounded corners*
1,1,$1+$1,$2,$3*
1,1,$1+$1,$4,$5*
1,1,$1+$1,$6,$7*
1,1,$1+$1,$8,$9*
0 Add four rect primitives between the rounded corners*
20,1,$1+$1,$2,$3,$4,$5,0*
20,1,$1+$1,$4,$5,$6,$7,0*
20,1,$1+$1,$6,$7,$8,$9,0*
20,1,$1+$1,$8,$9,$2,$3,0*%
G04 Aperture macros list end*
%ADD10C,0.000000*%
%ADD11C,6.100000*%
%ADD12RoundRect,0.050000X-0.650000X-0.500000X0.650000X-0.500000X0.650000X0.500000X-0.650000X0.500000X0*%
%ADD13RoundRect,0.050000X0.500000X-0.650000X0.500000X0.650000X-0.500000X0.650000X-0.500000X-0.650000X0*%
%ADD14RoundRect,0.050000X-1.150000X-0.926764X1.150000X-0.926764X1.150000X0.926764X-1.150000X0.926764X0*%
%ADD15RoundRect,0.050000X-1.450000X-1.300000X1.450000X-1.300000X1.450000X1.300000X-1.450000X1.300000X0*%
G04 APERTURE END LIST*
D10*
G36*
X7000000Y-13292379D02*
G01*
X0Y-13292379D01*
X0Y-7898073D01*
X7000000Y-7898073D01*
X7000000Y-13292379D01*
G37*
G36*
X7000000Y-63336286D02*
G01*
X0Y-63336286D01*
X0Y-57941980D01*
X7000000Y-57941980D01*
X7000000Y-63336286D01*
G37*
G36*
X7000000Y-15974837D02*
G01*
X6000000Y-15974837D01*
X6000000Y-16115807D01*
X0Y-16115807D01*
X0Y-13680339D01*
X7000000Y-13680339D01*
X7000000Y-15974837D01*
G37*
G36*
X7000000Y-66018744D02*
G01*
X6000000Y-66018744D01*
X6000000Y-66159714D01*
X0Y-66159714D01*
X0Y-63724246D01*
X7000000Y-63724246D01*
X7000000Y-66018744D01*
G37*
G36*
X6000000Y-17674837D02*
G01*
X7000000Y-17674837D01*
X7000000Y-17774837D01*
X6000000Y-17774837D01*
X6000000Y-19474837D01*
X7000000Y-19474837D01*
X7000000Y-21898073D01*
X0Y-21898073D01*
X0Y-16503767D01*
X6000000Y-16503767D01*
X6000000Y-17674837D01*
G37*
G36*
X6000000Y-67718744D02*
G01*
X7000000Y-67718744D01*
X7000000Y-67818744D01*
X6000000Y-67818744D01*
X6000000Y-69518744D01*
X7000000Y-69518744D01*
X7000000Y-71941980D01*
X0Y-71941980D01*
X0Y-66547674D01*
X6000000Y-66547674D01*
X6000000Y-67718744D01*
G37*
G36*
X39764148Y-3501700D02*
G01*
X39678659Y-3931481D01*
X39650000Y-4368744D01*
X39678659Y-4806006D01*
X39764148Y-5235787D01*
X39905003Y-5650733D01*
X40098814Y-6043744D01*
X40342266Y-6408094D01*
X40631192Y-6737551D01*
X40960649Y-7026477D01*
X41324999Y-7269929D01*
X41718010Y-7463740D01*
X42132956Y-7604595D01*
X42252000Y-7628274D01*
X42252000Y-30555744D01*
X9000016Y-30555744D01*
X9000016Y-3263744D01*
X39844923Y-3263744D01*
X39764148Y-3501700D01*
G37*
G36*
X42252000Y-64109212D02*
G01*
X42132956Y-64132892D01*
X41718010Y-64273747D01*
X41325000Y-64467558D01*
X40960649Y-64711010D01*
X40631192Y-64999936D01*
X40342266Y-65329393D01*
X40098814Y-65693744D01*
X39905003Y-66086754D01*
X39764148Y-66501700D01*
X39678659Y-66931481D01*
X39650000Y-67368744D01*
X39663764Y-67578744D01*
X9000016Y-67578744D01*
X9000016Y-50559456D01*
X9281989Y-50463740D01*
X9675000Y-50269929D01*
X10039350Y-50026477D01*
X10368807Y-49737551D01*
X10657733Y-49408094D01*
X10901185Y-49043744D01*
X11094996Y-48650733D01*
X11235851Y-48235787D01*
X11321340Y-47806006D01*
X11350000Y-47368744D01*
X11321340Y-46931481D01*
X11235851Y-46501700D01*
X11094996Y-46086754D01*
X10901185Y-45693744D01*
X10657733Y-45329393D01*
X10368807Y-44999936D01*
X10039350Y-44711010D01*
X9675000Y-44467558D01*
X9281989Y-44273747D01*
X9000016Y-44178030D01*
X9000016Y-40286744D01*
X42252000Y-40286744D01*
X42252000Y-64109212D01*
G37*
D11*
%TO.C,H2*%
X43000000Y-67368744D03*
%TD*%
D12*
%TO.C,R3*%
X6900015Y-55943749D03*
X4800017Y-55943749D03*
%TD*%
D11*
%TO.C,H5*%
X13000000Y-36368744D03*
%TD*%
D13*
%TO.C,D2*%
X7000000Y-16824838D03*
X7000000Y-18624836D03*
%TD*%
D11*
%TO.C,H1*%
X4000000Y-27368744D03*
%TD*%
D14*
%TO.C,RX1*%
X1300000Y-64941980D03*
D15*
X1600000Y-68338644D03*
X1600000Y-61545316D03*
%TD*%
D12*
%TO.C,R4*%
X6900015Y-5899842D03*
X4800017Y-5899842D03*
%TD*%
D11*
%TO.C,H3*%
X43000000Y-4368744D03*
%TD*%
%TO.C,H4*%
X8000000Y-47368744D03*
%TD*%
D13*
%TO.C,D1*%
X7000000Y-66868745D03*
X7000000Y-68668743D03*
%TD*%
D14*
%TO.C,RX2*%
X1300000Y-14898073D03*
D15*
X1600000Y-18294737D03*
X1600000Y-11501409D03*
%TD*%
M02*
