%TF.GenerationSoftware,KiCad,Pcbnew,10.0.5*%
%TF.CreationDate,2026-08-09T20:56:01+01:00*%
%TF.ProjectId,radar_5g8_receive,72616461-725f-4356-9738-5f7265636569,rev?*%
%TF.SameCoordinates,Original*%
%TF.FileFunction,Legend,Bot*%
%TF.FilePolarity,Positive*%
%FSLAX46Y46*%
G04 Gerber Fmt 4.6, Leading zero omitted, Abs format (unit mm)*
G04 Created by KiCad (PCBNEW 10.0.5) date 2026-08-09 20:56:01*
%MOMM*%
%LPD*%
G01*
G04 APERTURE LIST*
%ADD10C,0.180000*%
%ADD11C,0.240000*%
G04 APERTURE END LIST*
D10*
X5694015Y-53289531D02*
X5982015Y-52718103D01*
X6187729Y-53289531D02*
X6187729Y-52089531D01*
X6187729Y-52089531D02*
X5858586Y-52089531D01*
X5858586Y-52089531D02*
X5776301Y-52146674D01*
X5776301Y-52146674D02*
X5735158Y-52203817D01*
X5735158Y-52203817D02*
X5694015Y-52318103D01*
X5694015Y-52318103D02*
X5694015Y-52489531D01*
X5694015Y-52489531D02*
X5735158Y-52603817D01*
X5735158Y-52603817D02*
X5776301Y-52660960D01*
X5776301Y-52660960D02*
X5858586Y-52718103D01*
X5858586Y-52718103D02*
X6187729Y-52718103D01*
X5406015Y-52089531D02*
X4871158Y-52089531D01*
X4871158Y-52089531D02*
X5159158Y-52546674D01*
X5159158Y-52546674D02*
X5035729Y-52546674D01*
X5035729Y-52546674D02*
X4953444Y-52603817D01*
X4953444Y-52603817D02*
X4912301Y-52660960D01*
X4912301Y-52660960D02*
X4871158Y-52775246D01*
X4871158Y-52775246D02*
X4871158Y-53060960D01*
X4871158Y-53060960D02*
X4912301Y-53175246D01*
X4912301Y-53175246D02*
X4953444Y-53232389D01*
X4953444Y-53232389D02*
X5035729Y-53289531D01*
X5035729Y-53289531D02*
X5282586Y-53289531D01*
X5282586Y-53289531D02*
X5364872Y-53232389D01*
X5364872Y-53232389D02*
X5406015Y-53175246D01*
X12533714Y-21770619D02*
X12533714Y-20570619D01*
X12533714Y-20570619D02*
X12328000Y-20570619D01*
X12328000Y-20570619D02*
X12204571Y-20627762D01*
X12204571Y-20627762D02*
X12122286Y-20742048D01*
X12122286Y-20742048D02*
X12081143Y-20856334D01*
X12081143Y-20856334D02*
X12040000Y-21084905D01*
X12040000Y-21084905D02*
X12040000Y-21256334D01*
X12040000Y-21256334D02*
X12081143Y-21484905D01*
X12081143Y-21484905D02*
X12122286Y-21599191D01*
X12122286Y-21599191D02*
X12204571Y-21713477D01*
X12204571Y-21713477D02*
X12328000Y-21770619D01*
X12328000Y-21770619D02*
X12533714Y-21770619D01*
X11710857Y-20684905D02*
X11669714Y-20627762D01*
X11669714Y-20627762D02*
X11587429Y-20570619D01*
X11587429Y-20570619D02*
X11381714Y-20570619D01*
X11381714Y-20570619D02*
X11299429Y-20627762D01*
X11299429Y-20627762D02*
X11258286Y-20684905D01*
X11258286Y-20684905D02*
X11217143Y-20799191D01*
X11217143Y-20799191D02*
X11217143Y-20913477D01*
X11217143Y-20913477D02*
X11258286Y-21084905D01*
X11258286Y-21084905D02*
X11752000Y-21770619D01*
X11752000Y-21770619D02*
X11217143Y-21770619D01*
X9777143Y-21770619D02*
X10188571Y-21770619D01*
X10188571Y-21770619D02*
X10188571Y-20570619D01*
X9489142Y-21770619D02*
X9489142Y-20570619D01*
X9077713Y-21770619D02*
X9077713Y-20570619D01*
X9077713Y-20570619D02*
X8789713Y-21427762D01*
X8789713Y-21427762D02*
X8501713Y-20570619D01*
X8501713Y-20570619D02*
X8501713Y-21770619D01*
X8090284Y-21770619D02*
X8090284Y-20570619D01*
X7802284Y-20570619D02*
X7308570Y-20570619D01*
X7555427Y-21770619D02*
X7555427Y-20570619D01*
X7020569Y-21142048D02*
X6732569Y-21142048D01*
X6609141Y-21770619D02*
X7020569Y-21770619D01*
X7020569Y-21770619D02*
X7020569Y-20570619D01*
X7020569Y-20570619D02*
X6609141Y-20570619D01*
X5745141Y-21770619D02*
X6033141Y-21199191D01*
X6238855Y-21770619D02*
X6238855Y-20570619D01*
X6238855Y-20570619D02*
X5909712Y-20570619D01*
X5909712Y-20570619D02*
X5827427Y-20627762D01*
X5827427Y-20627762D02*
X5786284Y-20684905D01*
X5786284Y-20684905D02*
X5745141Y-20799191D01*
X5745141Y-20799191D02*
X5745141Y-20970619D01*
X5745141Y-20970619D02*
X5786284Y-21084905D01*
X5786284Y-21084905D02*
X5827427Y-21142048D01*
X5827427Y-21142048D02*
X5909712Y-21199191D01*
X5909712Y-21199191D02*
X6238855Y-21199191D01*
X4469712Y-22227762D02*
X4510855Y-22170619D01*
X4510855Y-22170619D02*
X4593141Y-21999191D01*
X4593141Y-21999191D02*
X4634284Y-21884905D01*
X4634284Y-21884905D02*
X4675426Y-21713477D01*
X4675426Y-21713477D02*
X4716569Y-21427762D01*
X4716569Y-21427762D02*
X4716569Y-21199191D01*
X4716569Y-21199191D02*
X4675426Y-20913477D01*
X4675426Y-20913477D02*
X4634284Y-20742048D01*
X4634284Y-20742048D02*
X4593141Y-20627762D01*
X4593141Y-20627762D02*
X4510855Y-20456334D01*
X4510855Y-20456334D02*
X4469712Y-20399191D01*
X4140569Y-21770619D02*
X4140569Y-20570619D01*
X4140569Y-20570619D02*
X3934855Y-20570619D01*
X3934855Y-20570619D02*
X3811426Y-20627762D01*
X3811426Y-20627762D02*
X3729141Y-20742048D01*
X3729141Y-20742048D02*
X3687998Y-20856334D01*
X3687998Y-20856334D02*
X3646855Y-21084905D01*
X3646855Y-21084905D02*
X3646855Y-21256334D01*
X3646855Y-21256334D02*
X3687998Y-21484905D01*
X3687998Y-21484905D02*
X3729141Y-21599191D01*
X3729141Y-21599191D02*
X3811426Y-21713477D01*
X3811426Y-21713477D02*
X3934855Y-21770619D01*
X3934855Y-21770619D02*
X4140569Y-21770619D01*
X3276569Y-21770619D02*
X3276569Y-20570619D01*
X3276569Y-20570619D02*
X2782855Y-21770619D01*
X2782855Y-21770619D02*
X2782855Y-20570619D01*
X2083426Y-21142048D02*
X2371426Y-21142048D01*
X2371426Y-21770619D02*
X2371426Y-20570619D01*
X2371426Y-20570619D02*
X1959998Y-20570619D01*
X1713141Y-22227762D02*
X1671998Y-22170619D01*
X1671998Y-22170619D02*
X1589712Y-21999191D01*
X1589712Y-21999191D02*
X1548570Y-21884905D01*
X1548570Y-21884905D02*
X1507427Y-21713477D01*
X1507427Y-21713477D02*
X1466284Y-21427762D01*
X1466284Y-21427762D02*
X1466284Y-21199191D01*
X1466284Y-21199191D02*
X1507427Y-20913477D01*
X1507427Y-20913477D02*
X1548570Y-20742048D01*
X1548570Y-20742048D02*
X1589712Y-20627762D01*
X1589712Y-20627762D02*
X1671998Y-20456334D01*
X1671998Y-20456334D02*
X1713141Y-20399191D01*
X34624215Y-16214526D02*
X35035643Y-16214526D01*
X35035643Y-16214526D02*
X35035643Y-15014526D01*
X34336214Y-16214526D02*
X34336214Y-15014526D01*
X34336214Y-15585955D02*
X33842500Y-15585955D01*
X33842500Y-16214526D02*
X33842500Y-15014526D01*
X32937357Y-16100241D02*
X32978500Y-16157384D01*
X32978500Y-16157384D02*
X33101928Y-16214526D01*
X33101928Y-16214526D02*
X33184214Y-16214526D01*
X33184214Y-16214526D02*
X33307643Y-16157384D01*
X33307643Y-16157384D02*
X33389928Y-16043098D01*
X33389928Y-16043098D02*
X33431071Y-15928812D01*
X33431071Y-15928812D02*
X33472214Y-15700241D01*
X33472214Y-15700241D02*
X33472214Y-15528812D01*
X33472214Y-15528812D02*
X33431071Y-15300241D01*
X33431071Y-15300241D02*
X33389928Y-15185955D01*
X33389928Y-15185955D02*
X33307643Y-15071669D01*
X33307643Y-15071669D02*
X33184214Y-15014526D01*
X33184214Y-15014526D02*
X33101928Y-15014526D01*
X33101928Y-15014526D02*
X32978500Y-15071669D01*
X32978500Y-15071669D02*
X32937357Y-15128812D01*
X32567071Y-16214526D02*
X32567071Y-15014526D01*
X32567071Y-15014526D02*
X32237928Y-15014526D01*
X32237928Y-15014526D02*
X32155643Y-15071669D01*
X32155643Y-15071669D02*
X32114500Y-15128812D01*
X32114500Y-15128812D02*
X32073357Y-15243098D01*
X32073357Y-15243098D02*
X32073357Y-15414526D01*
X32073357Y-15414526D02*
X32114500Y-15528812D01*
X32114500Y-15528812D02*
X32155643Y-15585955D01*
X32155643Y-15585955D02*
X32237928Y-15643098D01*
X32237928Y-15643098D02*
X32567071Y-15643098D01*
X30386499Y-15585955D02*
X30098499Y-15585955D01*
X29975071Y-16214526D02*
X30386499Y-16214526D01*
X30386499Y-16214526D02*
X30386499Y-15014526D01*
X30386499Y-15014526D02*
X29975071Y-15014526D01*
X29193357Y-16214526D02*
X29604785Y-16214526D01*
X29604785Y-16214526D02*
X29604785Y-15014526D01*
X28905356Y-15585955D02*
X28617356Y-15585955D01*
X28493928Y-16214526D02*
X28905356Y-16214526D01*
X28905356Y-16214526D02*
X28905356Y-15014526D01*
X28905356Y-15014526D02*
X28493928Y-15014526D01*
X28247071Y-15014526D02*
X27959071Y-16214526D01*
X27959071Y-16214526D02*
X27671071Y-15014526D01*
X27424214Y-15871669D02*
X27012786Y-15871669D01*
X27506500Y-16214526D02*
X27218500Y-15014526D01*
X27218500Y-15014526D02*
X26930500Y-16214526D01*
X26765929Y-15014526D02*
X26272215Y-15014526D01*
X26519072Y-16214526D02*
X26519072Y-15014526D01*
X25984214Y-16214526D02*
X25984214Y-15014526D01*
X25408214Y-15014526D02*
X25243642Y-15014526D01*
X25243642Y-15014526D02*
X25161357Y-15071669D01*
X25161357Y-15071669D02*
X25079071Y-15185955D01*
X25079071Y-15185955D02*
X25037928Y-15414526D01*
X25037928Y-15414526D02*
X25037928Y-15814526D01*
X25037928Y-15814526D02*
X25079071Y-16043098D01*
X25079071Y-16043098D02*
X25161357Y-16157384D01*
X25161357Y-16157384D02*
X25243642Y-16214526D01*
X25243642Y-16214526D02*
X25408214Y-16214526D01*
X25408214Y-16214526D02*
X25490500Y-16157384D01*
X25490500Y-16157384D02*
X25572785Y-16043098D01*
X25572785Y-16043098D02*
X25613928Y-15814526D01*
X25613928Y-15814526D02*
X25613928Y-15414526D01*
X25613928Y-15414526D02*
X25572785Y-15185955D01*
X25572785Y-15185955D02*
X25490500Y-15071669D01*
X25490500Y-15071669D02*
X25408214Y-15014526D01*
X24667642Y-16214526D02*
X24667642Y-15014526D01*
X24667642Y-15014526D02*
X24173928Y-16214526D01*
X24173928Y-16214526D02*
X24173928Y-15014526D01*
X22075642Y-16214526D02*
X22075642Y-15014526D01*
X22075642Y-16157384D02*
X22157927Y-16214526D01*
X22157927Y-16214526D02*
X22322499Y-16214526D01*
X22322499Y-16214526D02*
X22404784Y-16157384D01*
X22404784Y-16157384D02*
X22445927Y-16100241D01*
X22445927Y-16100241D02*
X22487070Y-15985955D01*
X22487070Y-15985955D02*
X22487070Y-15643098D01*
X22487070Y-15643098D02*
X22445927Y-15528812D01*
X22445927Y-15528812D02*
X22404784Y-15471669D01*
X22404784Y-15471669D02*
X22322499Y-15414526D01*
X22322499Y-15414526D02*
X22157927Y-15414526D01*
X22157927Y-15414526D02*
X22075642Y-15471669D01*
X21005927Y-15585955D02*
X20347642Y-15585955D01*
X20347642Y-15928812D02*
X21005927Y-15928812D01*
X19319070Y-15128812D02*
X19277927Y-15071669D01*
X19277927Y-15071669D02*
X19195642Y-15014526D01*
X19195642Y-15014526D02*
X18989927Y-15014526D01*
X18989927Y-15014526D02*
X18907642Y-15071669D01*
X18907642Y-15071669D02*
X18866499Y-15128812D01*
X18866499Y-15128812D02*
X18825356Y-15243098D01*
X18825356Y-15243098D02*
X18825356Y-15357384D01*
X18825356Y-15357384D02*
X18866499Y-15528812D01*
X18866499Y-15528812D02*
X19360213Y-16214526D01*
X19360213Y-16214526D02*
X18825356Y-16214526D01*
X18043642Y-15014526D02*
X18455070Y-15014526D01*
X18455070Y-15014526D02*
X18496213Y-15585955D01*
X18496213Y-15585955D02*
X18455070Y-15528812D01*
X18455070Y-15528812D02*
X18372785Y-15471669D01*
X18372785Y-15471669D02*
X18167070Y-15471669D01*
X18167070Y-15471669D02*
X18084785Y-15528812D01*
X18084785Y-15528812D02*
X18043642Y-15585955D01*
X18043642Y-15585955D02*
X18002499Y-15700241D01*
X18002499Y-15700241D02*
X18002499Y-15985955D01*
X18002499Y-15985955D02*
X18043642Y-16100241D01*
X18043642Y-16100241D02*
X18084785Y-16157384D01*
X18084785Y-16157384D02*
X18167070Y-16214526D01*
X18167070Y-16214526D02*
X18372785Y-16214526D01*
X18372785Y-16214526D02*
X18455070Y-16157384D01*
X18455070Y-16157384D02*
X18496213Y-16100241D01*
X17632213Y-16100241D02*
X17591070Y-16157384D01*
X17591070Y-16157384D02*
X17632213Y-16214526D01*
X17632213Y-16214526D02*
X17673356Y-16157384D01*
X17673356Y-16157384D02*
X17632213Y-16100241D01*
X17632213Y-16100241D02*
X17632213Y-16214526D01*
X17097356Y-15528812D02*
X17179641Y-15471669D01*
X17179641Y-15471669D02*
X17220784Y-15414526D01*
X17220784Y-15414526D02*
X17261927Y-15300241D01*
X17261927Y-15300241D02*
X17261927Y-15243098D01*
X17261927Y-15243098D02*
X17220784Y-15128812D01*
X17220784Y-15128812D02*
X17179641Y-15071669D01*
X17179641Y-15071669D02*
X17097356Y-15014526D01*
X17097356Y-15014526D02*
X16932784Y-15014526D01*
X16932784Y-15014526D02*
X16850499Y-15071669D01*
X16850499Y-15071669D02*
X16809356Y-15128812D01*
X16809356Y-15128812D02*
X16768213Y-15243098D01*
X16768213Y-15243098D02*
X16768213Y-15300241D01*
X16768213Y-15300241D02*
X16809356Y-15414526D01*
X16809356Y-15414526D02*
X16850499Y-15471669D01*
X16850499Y-15471669D02*
X16932784Y-15528812D01*
X16932784Y-15528812D02*
X17097356Y-15528812D01*
X17097356Y-15528812D02*
X17179641Y-15585955D01*
X17179641Y-15585955D02*
X17220784Y-15643098D01*
X17220784Y-15643098D02*
X17261927Y-15757384D01*
X17261927Y-15757384D02*
X17261927Y-15985955D01*
X17261927Y-15985955D02*
X17220784Y-16100241D01*
X17220784Y-16100241D02*
X17179641Y-16157384D01*
X17179641Y-16157384D02*
X17097356Y-16214526D01*
X17097356Y-16214526D02*
X16932784Y-16214526D01*
X16932784Y-16214526D02*
X16850499Y-16157384D01*
X16850499Y-16157384D02*
X16809356Y-16100241D01*
X16809356Y-16100241D02*
X16768213Y-15985955D01*
X16768213Y-15985955D02*
X16768213Y-15757384D01*
X16768213Y-15757384D02*
X16809356Y-15643098D01*
X16809356Y-15643098D02*
X16850499Y-15585955D01*
X16850499Y-15585955D02*
X16932784Y-15528812D01*
X16027642Y-15414526D02*
X16027642Y-16214526D01*
X16233356Y-14957384D02*
X16439070Y-15814526D01*
X16439070Y-15814526D02*
X15904213Y-15814526D01*
X15204785Y-15414526D02*
X15204785Y-16214526D01*
X15410499Y-14957384D02*
X15616213Y-15814526D01*
X15616213Y-15814526D02*
X15081356Y-15814526D01*
X14093927Y-16214526D02*
X14093927Y-15414526D01*
X14093927Y-15528812D02*
X14052784Y-15471669D01*
X14052784Y-15471669D02*
X13970499Y-15414526D01*
X13970499Y-15414526D02*
X13847070Y-15414526D01*
X13847070Y-15414526D02*
X13764784Y-15471669D01*
X13764784Y-15471669D02*
X13723642Y-15585955D01*
X13723642Y-15585955D02*
X13723642Y-16214526D01*
X13723642Y-15585955D02*
X13682499Y-15471669D01*
X13682499Y-15471669D02*
X13600213Y-15414526D01*
X13600213Y-15414526D02*
X13476784Y-15414526D01*
X13476784Y-15414526D02*
X13394499Y-15471669D01*
X13394499Y-15471669D02*
X13353356Y-15585955D01*
X13353356Y-15585955D02*
X13353356Y-16214526D01*
X12941927Y-16214526D02*
X12941927Y-15414526D01*
X12941927Y-15528812D02*
X12900784Y-15471669D01*
X12900784Y-15471669D02*
X12818499Y-15414526D01*
X12818499Y-15414526D02*
X12695070Y-15414526D01*
X12695070Y-15414526D02*
X12612784Y-15471669D01*
X12612784Y-15471669D02*
X12571642Y-15585955D01*
X12571642Y-15585955D02*
X12571642Y-16214526D01*
X12571642Y-15585955D02*
X12530499Y-15471669D01*
X12530499Y-15471669D02*
X12448213Y-15414526D01*
X12448213Y-15414526D02*
X12324784Y-15414526D01*
X12324784Y-15414526D02*
X12242499Y-15471669D01*
X12242499Y-15471669D02*
X12201356Y-15585955D01*
X12201356Y-15585955D02*
X12201356Y-16214526D01*
X34644785Y-17814526D02*
X34068785Y-17814526D01*
X34068785Y-17814526D02*
X34644785Y-19014526D01*
X34644785Y-19014526D02*
X34068785Y-19014526D01*
X33575071Y-18443098D02*
X33575071Y-19014526D01*
X33863071Y-17814526D02*
X33575071Y-18443098D01*
X33575071Y-18443098D02*
X33287071Y-17814526D01*
X32711071Y-18385955D02*
X32999071Y-18385955D01*
X32999071Y-19014526D02*
X32999071Y-17814526D01*
X32999071Y-17814526D02*
X32587643Y-17814526D01*
X32340786Y-17814526D02*
X31805929Y-17814526D01*
X31805929Y-17814526D02*
X32093929Y-18271669D01*
X32093929Y-18271669D02*
X31970500Y-18271669D01*
X31970500Y-18271669D02*
X31888215Y-18328812D01*
X31888215Y-18328812D02*
X31847072Y-18385955D01*
X31847072Y-18385955D02*
X31805929Y-18500241D01*
X31805929Y-18500241D02*
X31805929Y-18785955D01*
X31805929Y-18785955D02*
X31847072Y-18900241D01*
X31847072Y-18900241D02*
X31888215Y-18957384D01*
X31888215Y-18957384D02*
X31970500Y-19014526D01*
X31970500Y-19014526D02*
X32217357Y-19014526D01*
X32217357Y-19014526D02*
X32299643Y-18957384D01*
X32299643Y-18957384D02*
X32340786Y-18900241D01*
X31271072Y-17814526D02*
X31188786Y-17814526D01*
X31188786Y-17814526D02*
X31106500Y-17871669D01*
X31106500Y-17871669D02*
X31065358Y-17928812D01*
X31065358Y-17928812D02*
X31024215Y-18043098D01*
X31024215Y-18043098D02*
X30983072Y-18271669D01*
X30983072Y-18271669D02*
X30983072Y-18557384D01*
X30983072Y-18557384D02*
X31024215Y-18785955D01*
X31024215Y-18785955D02*
X31065358Y-18900241D01*
X31065358Y-18900241D02*
X31106500Y-18957384D01*
X31106500Y-18957384D02*
X31188786Y-19014526D01*
X31188786Y-19014526D02*
X31271072Y-19014526D01*
X31271072Y-19014526D02*
X31353358Y-18957384D01*
X31353358Y-18957384D02*
X31394500Y-18900241D01*
X31394500Y-18900241D02*
X31435643Y-18785955D01*
X31435643Y-18785955D02*
X31476786Y-18557384D01*
X31476786Y-18557384D02*
X31476786Y-18271669D01*
X31476786Y-18271669D02*
X31435643Y-18043098D01*
X31435643Y-18043098D02*
X31394500Y-17928812D01*
X31394500Y-17928812D02*
X31353358Y-17871669D01*
X31353358Y-17871669D02*
X31271072Y-17814526D01*
X30448215Y-17814526D02*
X30365929Y-17814526D01*
X30365929Y-17814526D02*
X30283643Y-17871669D01*
X30283643Y-17871669D02*
X30242501Y-17928812D01*
X30242501Y-17928812D02*
X30201358Y-18043098D01*
X30201358Y-18043098D02*
X30160215Y-18271669D01*
X30160215Y-18271669D02*
X30160215Y-18557384D01*
X30160215Y-18557384D02*
X30201358Y-18785955D01*
X30201358Y-18785955D02*
X30242501Y-18900241D01*
X30242501Y-18900241D02*
X30283643Y-18957384D01*
X30283643Y-18957384D02*
X30365929Y-19014526D01*
X30365929Y-19014526D02*
X30448215Y-19014526D01*
X30448215Y-19014526D02*
X30530501Y-18957384D01*
X30530501Y-18957384D02*
X30571643Y-18900241D01*
X30571643Y-18900241D02*
X30612786Y-18785955D01*
X30612786Y-18785955D02*
X30653929Y-18557384D01*
X30653929Y-18557384D02*
X30653929Y-18271669D01*
X30653929Y-18271669D02*
X30612786Y-18043098D01*
X30612786Y-18043098D02*
X30571643Y-17928812D01*
X30571643Y-17928812D02*
X30530501Y-17871669D01*
X30530501Y-17871669D02*
X30448215Y-17814526D01*
X29296215Y-18900241D02*
X29337358Y-18957384D01*
X29337358Y-18957384D02*
X29460786Y-19014526D01*
X29460786Y-19014526D02*
X29543072Y-19014526D01*
X29543072Y-19014526D02*
X29666501Y-18957384D01*
X29666501Y-18957384D02*
X29748786Y-18843098D01*
X29748786Y-18843098D02*
X29789929Y-18728812D01*
X29789929Y-18728812D02*
X29831072Y-18500241D01*
X29831072Y-18500241D02*
X29831072Y-18328812D01*
X29831072Y-18328812D02*
X29789929Y-18100241D01*
X29789929Y-18100241D02*
X29748786Y-17985955D01*
X29748786Y-17985955D02*
X29666501Y-17871669D01*
X29666501Y-17871669D02*
X29543072Y-17814526D01*
X29543072Y-17814526D02*
X29460786Y-17814526D01*
X29460786Y-17814526D02*
X29337358Y-17871669D01*
X29337358Y-17871669D02*
X29296215Y-17928812D01*
X28967072Y-18671669D02*
X28555644Y-18671669D01*
X29049358Y-19014526D02*
X28761358Y-17814526D01*
X28761358Y-17814526D02*
X28473358Y-19014526D01*
X28185358Y-18557384D02*
X27527073Y-18557384D01*
X27115644Y-19014526D02*
X27115644Y-17814526D01*
X27115644Y-17814526D02*
X26786501Y-17814526D01*
X26786501Y-17814526D02*
X26704216Y-17871669D01*
X26704216Y-17871669D02*
X26663073Y-17928812D01*
X26663073Y-17928812D02*
X26621930Y-18043098D01*
X26621930Y-18043098D02*
X26621930Y-18214526D01*
X26621930Y-18214526D02*
X26663073Y-18328812D01*
X26663073Y-18328812D02*
X26704216Y-18385955D01*
X26704216Y-18385955D02*
X26786501Y-18443098D01*
X26786501Y-18443098D02*
X27115644Y-18443098D01*
X25428787Y-17814526D02*
X25346501Y-17814526D01*
X25346501Y-17814526D02*
X25264215Y-17871669D01*
X25264215Y-17871669D02*
X25223073Y-17928812D01*
X25223073Y-17928812D02*
X25181930Y-18043098D01*
X25181930Y-18043098D02*
X25140787Y-18271669D01*
X25140787Y-18271669D02*
X25140787Y-18557384D01*
X25140787Y-18557384D02*
X25181930Y-18785955D01*
X25181930Y-18785955D02*
X25223073Y-18900241D01*
X25223073Y-18900241D02*
X25264215Y-18957384D01*
X25264215Y-18957384D02*
X25346501Y-19014526D01*
X25346501Y-19014526D02*
X25428787Y-19014526D01*
X25428787Y-19014526D02*
X25511073Y-18957384D01*
X25511073Y-18957384D02*
X25552215Y-18900241D01*
X25552215Y-18900241D02*
X25593358Y-18785955D01*
X25593358Y-18785955D02*
X25634501Y-18557384D01*
X25634501Y-18557384D02*
X25634501Y-18271669D01*
X25634501Y-18271669D02*
X25593358Y-18043098D01*
X25593358Y-18043098D02*
X25552215Y-17928812D01*
X25552215Y-17928812D02*
X25511073Y-17871669D01*
X25511073Y-17871669D02*
X25428787Y-17814526D01*
X24770501Y-18900241D02*
X24729358Y-18957384D01*
X24729358Y-18957384D02*
X24770501Y-19014526D01*
X24770501Y-19014526D02*
X24811644Y-18957384D01*
X24811644Y-18957384D02*
X24770501Y-18900241D01*
X24770501Y-18900241D02*
X24770501Y-19014526D01*
X24441358Y-17814526D02*
X23865358Y-17814526D01*
X23865358Y-17814526D02*
X24235644Y-19014526D01*
X23165930Y-17814526D02*
X23330501Y-17814526D01*
X23330501Y-17814526D02*
X23412787Y-17871669D01*
X23412787Y-17871669D02*
X23453930Y-17928812D01*
X23453930Y-17928812D02*
X23536215Y-18100241D01*
X23536215Y-18100241D02*
X23577358Y-18328812D01*
X23577358Y-18328812D02*
X23577358Y-18785955D01*
X23577358Y-18785955D02*
X23536215Y-18900241D01*
X23536215Y-18900241D02*
X23495072Y-18957384D01*
X23495072Y-18957384D02*
X23412787Y-19014526D01*
X23412787Y-19014526D02*
X23248215Y-19014526D01*
X23248215Y-19014526D02*
X23165930Y-18957384D01*
X23165930Y-18957384D02*
X23124787Y-18900241D01*
X23124787Y-18900241D02*
X23083644Y-18785955D01*
X23083644Y-18785955D02*
X23083644Y-18500241D01*
X23083644Y-18500241D02*
X23124787Y-18385955D01*
X23124787Y-18385955D02*
X23165930Y-18328812D01*
X23165930Y-18328812D02*
X23248215Y-18271669D01*
X23248215Y-18271669D02*
X23412787Y-18271669D01*
X23412787Y-18271669D02*
X23495072Y-18328812D01*
X23495072Y-18328812D02*
X23536215Y-18385955D01*
X23536215Y-18385955D02*
X23577358Y-18500241D01*
X22055072Y-19014526D02*
X22055072Y-18214526D01*
X22055072Y-18328812D02*
X22013929Y-18271669D01*
X22013929Y-18271669D02*
X21931644Y-18214526D01*
X21931644Y-18214526D02*
X21808215Y-18214526D01*
X21808215Y-18214526D02*
X21725929Y-18271669D01*
X21725929Y-18271669D02*
X21684787Y-18385955D01*
X21684787Y-18385955D02*
X21684787Y-19014526D01*
X21684787Y-18385955D02*
X21643644Y-18271669D01*
X21643644Y-18271669D02*
X21561358Y-18214526D01*
X21561358Y-18214526D02*
X21437929Y-18214526D01*
X21437929Y-18214526D02*
X21355644Y-18271669D01*
X21355644Y-18271669D02*
X21314501Y-18385955D01*
X21314501Y-18385955D02*
X21314501Y-19014526D01*
X20903072Y-19014526D02*
X20903072Y-18214526D01*
X20903072Y-18328812D02*
X20861929Y-18271669D01*
X20861929Y-18271669D02*
X20779644Y-18214526D01*
X20779644Y-18214526D02*
X20656215Y-18214526D01*
X20656215Y-18214526D02*
X20573929Y-18271669D01*
X20573929Y-18271669D02*
X20532787Y-18385955D01*
X20532787Y-18385955D02*
X20532787Y-19014526D01*
X20532787Y-18385955D02*
X20491644Y-18271669D01*
X20491644Y-18271669D02*
X20409358Y-18214526D01*
X20409358Y-18214526D02*
X20285929Y-18214526D01*
X20285929Y-18214526D02*
X20203644Y-18271669D01*
X20203644Y-18271669D02*
X20162501Y-18385955D01*
X20162501Y-18385955D02*
X20162501Y-19014526D01*
X18475643Y-17757384D02*
X19216215Y-19300241D01*
X17570500Y-17928812D02*
X17529357Y-17871669D01*
X17529357Y-17871669D02*
X17447072Y-17814526D01*
X17447072Y-17814526D02*
X17241357Y-17814526D01*
X17241357Y-17814526D02*
X17159072Y-17871669D01*
X17159072Y-17871669D02*
X17117929Y-17928812D01*
X17117929Y-17928812D02*
X17076786Y-18043098D01*
X17076786Y-18043098D02*
X17076786Y-18157384D01*
X17076786Y-18157384D02*
X17117929Y-18328812D01*
X17117929Y-18328812D02*
X17611643Y-19014526D01*
X17611643Y-19014526D02*
X17076786Y-19014526D01*
X16295072Y-19014526D02*
X16706500Y-19014526D01*
X16706500Y-19014526D02*
X16706500Y-17814526D01*
X14731642Y-17757384D02*
X15472214Y-19300241D01*
X13826499Y-18671669D02*
X13415071Y-18671669D01*
X13908785Y-19014526D02*
X13620785Y-17814526D01*
X13620785Y-17814526D02*
X13332785Y-19014526D01*
X12674500Y-18214526D02*
X12674500Y-19185955D01*
X12674500Y-19185955D02*
X12715642Y-19300241D01*
X12715642Y-19300241D02*
X12756785Y-19357384D01*
X12756785Y-19357384D02*
X12839071Y-19414526D01*
X12839071Y-19414526D02*
X12962500Y-19414526D01*
X12962500Y-19414526D02*
X13044785Y-19357384D01*
X12674500Y-18957384D02*
X12756785Y-19014526D01*
X12756785Y-19014526D02*
X12921357Y-19014526D01*
X12921357Y-19014526D02*
X13003642Y-18957384D01*
X13003642Y-18957384D02*
X13044785Y-18900241D01*
X13044785Y-18900241D02*
X13085928Y-18785955D01*
X13085928Y-18785955D02*
X13085928Y-18443098D01*
X13085928Y-18443098D02*
X13044785Y-18328812D01*
X13044785Y-18328812D02*
X13003642Y-18271669D01*
X13003642Y-18271669D02*
X12921357Y-18214526D01*
X12921357Y-18214526D02*
X12756785Y-18214526D01*
X12756785Y-18214526D02*
X12674500Y-18271669D01*
X31188786Y-21185955D02*
X31065358Y-21243098D01*
X31065358Y-21243098D02*
X31024215Y-21300241D01*
X31024215Y-21300241D02*
X30983072Y-21414526D01*
X30983072Y-21414526D02*
X30983072Y-21585955D01*
X30983072Y-21585955D02*
X31024215Y-21700241D01*
X31024215Y-21700241D02*
X31065358Y-21757384D01*
X31065358Y-21757384D02*
X31147643Y-21814526D01*
X31147643Y-21814526D02*
X31476786Y-21814526D01*
X31476786Y-21814526D02*
X31476786Y-20614526D01*
X31476786Y-20614526D02*
X31188786Y-20614526D01*
X31188786Y-20614526D02*
X31106501Y-20671669D01*
X31106501Y-20671669D02*
X31065358Y-20728812D01*
X31065358Y-20728812D02*
X31024215Y-20843098D01*
X31024215Y-20843098D02*
X31024215Y-20957384D01*
X31024215Y-20957384D02*
X31065358Y-21071669D01*
X31065358Y-21071669D02*
X31106501Y-21128812D01*
X31106501Y-21128812D02*
X31188786Y-21185955D01*
X31188786Y-21185955D02*
X31476786Y-21185955D01*
X30448215Y-20614526D02*
X30283643Y-20614526D01*
X30283643Y-20614526D02*
X30201358Y-20671669D01*
X30201358Y-20671669D02*
X30119072Y-20785955D01*
X30119072Y-20785955D02*
X30077929Y-21014526D01*
X30077929Y-21014526D02*
X30077929Y-21414526D01*
X30077929Y-21414526D02*
X30119072Y-21643098D01*
X30119072Y-21643098D02*
X30201358Y-21757384D01*
X30201358Y-21757384D02*
X30283643Y-21814526D01*
X30283643Y-21814526D02*
X30448215Y-21814526D01*
X30448215Y-21814526D02*
X30530501Y-21757384D01*
X30530501Y-21757384D02*
X30612786Y-21643098D01*
X30612786Y-21643098D02*
X30653929Y-21414526D01*
X30653929Y-21414526D02*
X30653929Y-21014526D01*
X30653929Y-21014526D02*
X30612786Y-20785955D01*
X30612786Y-20785955D02*
X30530501Y-20671669D01*
X30530501Y-20671669D02*
X30448215Y-20614526D01*
X29707643Y-21814526D02*
X29707643Y-20614526D01*
X29707643Y-20614526D02*
X29213929Y-21814526D01*
X29213929Y-21814526D02*
X29213929Y-20614526D01*
X28802500Y-21814526D02*
X28802500Y-20614526D01*
X28802500Y-20614526D02*
X28596786Y-20614526D01*
X28596786Y-20614526D02*
X28473357Y-20671669D01*
X28473357Y-20671669D02*
X28391072Y-20785955D01*
X28391072Y-20785955D02*
X28349929Y-20900241D01*
X28349929Y-20900241D02*
X28308786Y-21128812D01*
X28308786Y-21128812D02*
X28308786Y-21300241D01*
X28308786Y-21300241D02*
X28349929Y-21528812D01*
X28349929Y-21528812D02*
X28391072Y-21643098D01*
X28391072Y-21643098D02*
X28473357Y-21757384D01*
X28473357Y-21757384D02*
X28596786Y-21814526D01*
X28596786Y-21814526D02*
X28802500Y-21814526D01*
X27403643Y-20614526D02*
X26909929Y-20614526D01*
X27156786Y-21814526D02*
X27156786Y-20614526D01*
X26457357Y-20614526D02*
X26292785Y-20614526D01*
X26292785Y-20614526D02*
X26210500Y-20671669D01*
X26210500Y-20671669D02*
X26128214Y-20785955D01*
X26128214Y-20785955D02*
X26087071Y-21014526D01*
X26087071Y-21014526D02*
X26087071Y-21414526D01*
X26087071Y-21414526D02*
X26128214Y-21643098D01*
X26128214Y-21643098D02*
X26210500Y-21757384D01*
X26210500Y-21757384D02*
X26292785Y-21814526D01*
X26292785Y-21814526D02*
X26457357Y-21814526D01*
X26457357Y-21814526D02*
X26539643Y-21757384D01*
X26539643Y-21757384D02*
X26621928Y-21643098D01*
X26621928Y-21643098D02*
X26663071Y-21414526D01*
X26663071Y-21414526D02*
X26663071Y-21014526D01*
X26663071Y-21014526D02*
X26621928Y-20785955D01*
X26621928Y-20785955D02*
X26539643Y-20671669D01*
X26539643Y-20671669D02*
X26457357Y-20614526D01*
X24605928Y-20671669D02*
X24688214Y-20614526D01*
X24688214Y-20614526D02*
X24811642Y-20614526D01*
X24811642Y-20614526D02*
X24935071Y-20671669D01*
X24935071Y-20671669D02*
X25017356Y-20785955D01*
X25017356Y-20785955D02*
X25058499Y-20900241D01*
X25058499Y-20900241D02*
X25099642Y-21128812D01*
X25099642Y-21128812D02*
X25099642Y-21300241D01*
X25099642Y-21300241D02*
X25058499Y-21528812D01*
X25058499Y-21528812D02*
X25017356Y-21643098D01*
X25017356Y-21643098D02*
X24935071Y-21757384D01*
X24935071Y-21757384D02*
X24811642Y-21814526D01*
X24811642Y-21814526D02*
X24729356Y-21814526D01*
X24729356Y-21814526D02*
X24605928Y-21757384D01*
X24605928Y-21757384D02*
X24564785Y-21700241D01*
X24564785Y-21700241D02*
X24564785Y-21300241D01*
X24564785Y-21300241D02*
X24729356Y-21300241D01*
X23700785Y-21814526D02*
X23988785Y-21243098D01*
X24194499Y-21814526D02*
X24194499Y-20614526D01*
X24194499Y-20614526D02*
X23865356Y-20614526D01*
X23865356Y-20614526D02*
X23783071Y-20671669D01*
X23783071Y-20671669D02*
X23741928Y-20728812D01*
X23741928Y-20728812D02*
X23700785Y-20843098D01*
X23700785Y-20843098D02*
X23700785Y-21014526D01*
X23700785Y-21014526D02*
X23741928Y-21128812D01*
X23741928Y-21128812D02*
X23783071Y-21185955D01*
X23783071Y-21185955D02*
X23865356Y-21243098D01*
X23865356Y-21243098D02*
X24194499Y-21243098D01*
X23165928Y-20614526D02*
X23001356Y-20614526D01*
X23001356Y-20614526D02*
X22919071Y-20671669D01*
X22919071Y-20671669D02*
X22836785Y-20785955D01*
X22836785Y-20785955D02*
X22795642Y-21014526D01*
X22795642Y-21014526D02*
X22795642Y-21414526D01*
X22795642Y-21414526D02*
X22836785Y-21643098D01*
X22836785Y-21643098D02*
X22919071Y-21757384D01*
X22919071Y-21757384D02*
X23001356Y-21814526D01*
X23001356Y-21814526D02*
X23165928Y-21814526D01*
X23165928Y-21814526D02*
X23248214Y-21757384D01*
X23248214Y-21757384D02*
X23330499Y-21643098D01*
X23330499Y-21643098D02*
X23371642Y-21414526D01*
X23371642Y-21414526D02*
X23371642Y-21014526D01*
X23371642Y-21014526D02*
X23330499Y-20785955D01*
X23330499Y-20785955D02*
X23248214Y-20671669D01*
X23248214Y-20671669D02*
X23165928Y-20614526D01*
X22425356Y-20614526D02*
X22425356Y-21585955D01*
X22425356Y-21585955D02*
X22384213Y-21700241D01*
X22384213Y-21700241D02*
X22343071Y-21757384D01*
X22343071Y-21757384D02*
X22260785Y-21814526D01*
X22260785Y-21814526D02*
X22096213Y-21814526D01*
X22096213Y-21814526D02*
X22013928Y-21757384D01*
X22013928Y-21757384D02*
X21972785Y-21700241D01*
X21972785Y-21700241D02*
X21931642Y-21585955D01*
X21931642Y-21585955D02*
X21931642Y-20614526D01*
X21520213Y-21814526D02*
X21520213Y-20614526D01*
X21520213Y-20614526D02*
X21026499Y-21814526D01*
X21026499Y-21814526D02*
X21026499Y-20614526D01*
X20615070Y-21814526D02*
X20615070Y-20614526D01*
X20615070Y-20614526D02*
X20409356Y-20614526D01*
X20409356Y-20614526D02*
X20285927Y-20671669D01*
X20285927Y-20671669D02*
X20203642Y-20785955D01*
X20203642Y-20785955D02*
X20162499Y-20900241D01*
X20162499Y-20900241D02*
X20121356Y-21128812D01*
X20121356Y-21128812D02*
X20121356Y-21300241D01*
X20121356Y-21300241D02*
X20162499Y-21528812D01*
X20162499Y-21528812D02*
X20203642Y-21643098D01*
X20203642Y-21643098D02*
X20285927Y-21757384D01*
X20285927Y-21757384D02*
X20409356Y-21814526D01*
X20409356Y-21814526D02*
X20615070Y-21814526D01*
X19092784Y-21814526D02*
X19092784Y-20614526D01*
X19092784Y-20614526D02*
X18763641Y-20614526D01*
X18763641Y-20614526D02*
X18681356Y-20671669D01*
X18681356Y-20671669D02*
X18640213Y-20728812D01*
X18640213Y-20728812D02*
X18599070Y-20843098D01*
X18599070Y-20843098D02*
X18599070Y-21014526D01*
X18599070Y-21014526D02*
X18640213Y-21128812D01*
X18640213Y-21128812D02*
X18681356Y-21185955D01*
X18681356Y-21185955D02*
X18763641Y-21243098D01*
X18763641Y-21243098D02*
X19092784Y-21243098D01*
X17817356Y-21814526D02*
X18228784Y-21814526D01*
X18228784Y-21814526D02*
X18228784Y-20614526D01*
X17570498Y-21471669D02*
X17159070Y-21471669D01*
X17652784Y-21814526D02*
X17364784Y-20614526D01*
X17364784Y-20614526D02*
X17076784Y-21814526D01*
X16912213Y-20614526D02*
X16418499Y-20614526D01*
X16665356Y-21814526D02*
X16665356Y-20614526D01*
X16130498Y-21185955D02*
X15842498Y-21185955D01*
X15719070Y-21814526D02*
X16130498Y-21814526D01*
X16130498Y-21814526D02*
X16130498Y-20614526D01*
X16130498Y-20614526D02*
X15719070Y-20614526D01*
X32258499Y-23528812D02*
X32217356Y-23471669D01*
X32217356Y-23471669D02*
X32135071Y-23414526D01*
X32135071Y-23414526D02*
X31929356Y-23414526D01*
X31929356Y-23414526D02*
X31847071Y-23471669D01*
X31847071Y-23471669D02*
X31805928Y-23528812D01*
X31805928Y-23528812D02*
X31764785Y-23643098D01*
X31764785Y-23643098D02*
X31764785Y-23757384D01*
X31764785Y-23757384D02*
X31805928Y-23928812D01*
X31805928Y-23928812D02*
X32299642Y-24614526D01*
X32299642Y-24614526D02*
X31764785Y-24614526D01*
X30983071Y-23414526D02*
X31394499Y-23414526D01*
X31394499Y-23414526D02*
X31435642Y-23985955D01*
X31435642Y-23985955D02*
X31394499Y-23928812D01*
X31394499Y-23928812D02*
X31312214Y-23871669D01*
X31312214Y-23871669D02*
X31106499Y-23871669D01*
X31106499Y-23871669D02*
X31024214Y-23928812D01*
X31024214Y-23928812D02*
X30983071Y-23985955D01*
X30983071Y-23985955D02*
X30941928Y-24100241D01*
X30941928Y-24100241D02*
X30941928Y-24385955D01*
X30941928Y-24385955D02*
X30983071Y-24500241D01*
X30983071Y-24500241D02*
X31024214Y-24557384D01*
X31024214Y-24557384D02*
X31106499Y-24614526D01*
X31106499Y-24614526D02*
X31312214Y-24614526D01*
X31312214Y-24614526D02*
X31394499Y-24557384D01*
X31394499Y-24557384D02*
X31435642Y-24500241D01*
X29913356Y-24614526D02*
X29913356Y-23814526D01*
X29913356Y-23928812D02*
X29872213Y-23871669D01*
X29872213Y-23871669D02*
X29789928Y-23814526D01*
X29789928Y-23814526D02*
X29666499Y-23814526D01*
X29666499Y-23814526D02*
X29584213Y-23871669D01*
X29584213Y-23871669D02*
X29543071Y-23985955D01*
X29543071Y-23985955D02*
X29543071Y-24614526D01*
X29543071Y-23985955D02*
X29501928Y-23871669D01*
X29501928Y-23871669D02*
X29419642Y-23814526D01*
X29419642Y-23814526D02*
X29296213Y-23814526D01*
X29296213Y-23814526D02*
X29213928Y-23871669D01*
X29213928Y-23871669D02*
X29172785Y-23985955D01*
X29172785Y-23985955D02*
X29172785Y-24614526D01*
X28761356Y-24614526D02*
X28761356Y-23814526D01*
X28761356Y-23928812D02*
X28720213Y-23871669D01*
X28720213Y-23871669D02*
X28637928Y-23814526D01*
X28637928Y-23814526D02*
X28514499Y-23814526D01*
X28514499Y-23814526D02*
X28432213Y-23871669D01*
X28432213Y-23871669D02*
X28391071Y-23985955D01*
X28391071Y-23985955D02*
X28391071Y-24614526D01*
X28391071Y-23985955D02*
X28349928Y-23871669D01*
X28349928Y-23871669D02*
X28267642Y-23814526D01*
X28267642Y-23814526D02*
X28144213Y-23814526D01*
X28144213Y-23814526D02*
X28061928Y-23871669D01*
X28061928Y-23871669D02*
X28020785Y-23985955D01*
X28020785Y-23985955D02*
X28020785Y-24614526D01*
X26951070Y-24614526D02*
X26951070Y-23414526D01*
X26951070Y-23414526D02*
X26621927Y-23414526D01*
X26621927Y-23414526D02*
X26539642Y-23471669D01*
X26539642Y-23471669D02*
X26498499Y-23528812D01*
X26498499Y-23528812D02*
X26457356Y-23643098D01*
X26457356Y-23643098D02*
X26457356Y-23814526D01*
X26457356Y-23814526D02*
X26498499Y-23928812D01*
X26498499Y-23928812D02*
X26539642Y-23985955D01*
X26539642Y-23985955D02*
X26621927Y-24043098D01*
X26621927Y-24043098D02*
X26951070Y-24043098D01*
X26128213Y-24271669D02*
X25716785Y-24271669D01*
X26210499Y-24614526D02*
X25922499Y-23414526D01*
X25922499Y-23414526D02*
X25634499Y-24614526D01*
X25387642Y-24557384D02*
X25264214Y-24614526D01*
X25264214Y-24614526D02*
X25058499Y-24614526D01*
X25058499Y-24614526D02*
X24976214Y-24557384D01*
X24976214Y-24557384D02*
X24935071Y-24500241D01*
X24935071Y-24500241D02*
X24893928Y-24385955D01*
X24893928Y-24385955D02*
X24893928Y-24271669D01*
X24893928Y-24271669D02*
X24935071Y-24157384D01*
X24935071Y-24157384D02*
X24976214Y-24100241D01*
X24976214Y-24100241D02*
X25058499Y-24043098D01*
X25058499Y-24043098D02*
X25223071Y-23985955D01*
X25223071Y-23985955D02*
X25305356Y-23928812D01*
X25305356Y-23928812D02*
X25346499Y-23871669D01*
X25346499Y-23871669D02*
X25387642Y-23757384D01*
X25387642Y-23757384D02*
X25387642Y-23643098D01*
X25387642Y-23643098D02*
X25346499Y-23528812D01*
X25346499Y-23528812D02*
X25305356Y-23471669D01*
X25305356Y-23471669D02*
X25223071Y-23414526D01*
X25223071Y-23414526D02*
X25017356Y-23414526D01*
X25017356Y-23414526D02*
X24893928Y-23471669D01*
X24647071Y-23414526D02*
X24153357Y-23414526D01*
X24400214Y-24614526D02*
X24400214Y-23414526D01*
X23207070Y-23985955D02*
X22919070Y-23985955D01*
X22795642Y-24614526D02*
X23207070Y-24614526D01*
X23207070Y-24614526D02*
X23207070Y-23414526D01*
X23207070Y-23414526D02*
X22795642Y-23414526D01*
X22548785Y-23414526D02*
X22260785Y-24614526D01*
X22260785Y-24614526D02*
X21972785Y-23414526D01*
X21684785Y-23985955D02*
X21396785Y-23985955D01*
X21273357Y-24614526D02*
X21684785Y-24614526D01*
X21684785Y-24614526D02*
X21684785Y-23414526D01*
X21684785Y-23414526D02*
X21273357Y-23414526D01*
X20409357Y-24614526D02*
X20697357Y-24043098D01*
X20903071Y-24614526D02*
X20903071Y-23414526D01*
X20903071Y-23414526D02*
X20573928Y-23414526D01*
X20573928Y-23414526D02*
X20491643Y-23471669D01*
X20491643Y-23471669D02*
X20450500Y-23528812D01*
X20450500Y-23528812D02*
X20409357Y-23643098D01*
X20409357Y-23643098D02*
X20409357Y-23814526D01*
X20409357Y-23814526D02*
X20450500Y-23928812D01*
X20450500Y-23928812D02*
X20491643Y-23985955D01*
X20491643Y-23985955D02*
X20573928Y-24043098D01*
X20573928Y-24043098D02*
X20903071Y-24043098D01*
X19874500Y-24043098D02*
X19874500Y-24614526D01*
X20162500Y-23414526D02*
X19874500Y-24043098D01*
X19874500Y-24043098D02*
X19586500Y-23414526D01*
X18640214Y-24614526D02*
X18640214Y-23414526D01*
X18640214Y-23414526D02*
X18311071Y-23414526D01*
X18311071Y-23414526D02*
X18228786Y-23471669D01*
X18228786Y-23471669D02*
X18187643Y-23528812D01*
X18187643Y-23528812D02*
X18146500Y-23643098D01*
X18146500Y-23643098D02*
X18146500Y-23814526D01*
X18146500Y-23814526D02*
X18187643Y-23928812D01*
X18187643Y-23928812D02*
X18228786Y-23985955D01*
X18228786Y-23985955D02*
X18311071Y-24043098D01*
X18311071Y-24043098D02*
X18640214Y-24043098D01*
X17817357Y-24271669D02*
X17405929Y-24271669D01*
X17899643Y-24614526D02*
X17611643Y-23414526D01*
X17611643Y-23414526D02*
X17323643Y-24614526D01*
X17159072Y-23414526D02*
X16665358Y-23414526D01*
X16912215Y-24614526D02*
X16912215Y-23414526D01*
X15883643Y-24500241D02*
X15924786Y-24557384D01*
X15924786Y-24557384D02*
X16048214Y-24614526D01*
X16048214Y-24614526D02*
X16130500Y-24614526D01*
X16130500Y-24614526D02*
X16253929Y-24557384D01*
X16253929Y-24557384D02*
X16336214Y-24443098D01*
X16336214Y-24443098D02*
X16377357Y-24328812D01*
X16377357Y-24328812D02*
X16418500Y-24100241D01*
X16418500Y-24100241D02*
X16418500Y-23928812D01*
X16418500Y-23928812D02*
X16377357Y-23700241D01*
X16377357Y-23700241D02*
X16336214Y-23585955D01*
X16336214Y-23585955D02*
X16253929Y-23471669D01*
X16253929Y-23471669D02*
X16130500Y-23414526D01*
X16130500Y-23414526D02*
X16048214Y-23414526D01*
X16048214Y-23414526D02*
X15924786Y-23471669D01*
X15924786Y-23471669D02*
X15883643Y-23528812D01*
X15513357Y-24614526D02*
X15513357Y-23414526D01*
X15513357Y-23985955D02*
X15019643Y-23985955D01*
X15019643Y-24614526D02*
X15019643Y-23414526D01*
X32299642Y-27414526D02*
X32299642Y-26214526D01*
X32299642Y-26214526D02*
X32011642Y-27071669D01*
X32011642Y-27071669D02*
X31723642Y-26214526D01*
X31723642Y-26214526D02*
X31723642Y-27414526D01*
X31147642Y-26214526D02*
X30983070Y-26214526D01*
X30983070Y-26214526D02*
X30900785Y-26271669D01*
X30900785Y-26271669D02*
X30818499Y-26385955D01*
X30818499Y-26385955D02*
X30777356Y-26614526D01*
X30777356Y-26614526D02*
X30777356Y-27014526D01*
X30777356Y-27014526D02*
X30818499Y-27243098D01*
X30818499Y-27243098D02*
X30900785Y-27357384D01*
X30900785Y-27357384D02*
X30983070Y-27414526D01*
X30983070Y-27414526D02*
X31147642Y-27414526D01*
X31147642Y-27414526D02*
X31229928Y-27357384D01*
X31229928Y-27357384D02*
X31312213Y-27243098D01*
X31312213Y-27243098D02*
X31353356Y-27014526D01*
X31353356Y-27014526D02*
X31353356Y-26614526D01*
X31353356Y-26614526D02*
X31312213Y-26385955D01*
X31312213Y-26385955D02*
X31229928Y-26271669D01*
X31229928Y-26271669D02*
X31147642Y-26214526D01*
X30407070Y-26214526D02*
X30407070Y-27185955D01*
X30407070Y-27185955D02*
X30365927Y-27300241D01*
X30365927Y-27300241D02*
X30324785Y-27357384D01*
X30324785Y-27357384D02*
X30242499Y-27414526D01*
X30242499Y-27414526D02*
X30077927Y-27414526D01*
X30077927Y-27414526D02*
X29995642Y-27357384D01*
X29995642Y-27357384D02*
X29954499Y-27300241D01*
X29954499Y-27300241D02*
X29913356Y-27185955D01*
X29913356Y-27185955D02*
X29913356Y-26214526D01*
X29501927Y-27414526D02*
X29501927Y-26214526D01*
X29501927Y-26214526D02*
X29008213Y-27414526D01*
X29008213Y-27414526D02*
X29008213Y-26214526D01*
X28720213Y-26214526D02*
X28226499Y-26214526D01*
X28473356Y-27414526D02*
X28473356Y-26214526D01*
X27280212Y-26614526D02*
X26621927Y-26957384D01*
X26621927Y-26957384D02*
X27280212Y-27300241D01*
X26210498Y-26785955D02*
X25552213Y-26785955D01*
X25552213Y-27128812D02*
X26210498Y-27128812D01*
X24523641Y-26328812D02*
X24482498Y-26271669D01*
X24482498Y-26271669D02*
X24400213Y-26214526D01*
X24400213Y-26214526D02*
X24194498Y-26214526D01*
X24194498Y-26214526D02*
X24112213Y-26271669D01*
X24112213Y-26271669D02*
X24071070Y-26328812D01*
X24071070Y-26328812D02*
X24029927Y-26443098D01*
X24029927Y-26443098D02*
X24029927Y-26557384D01*
X24029927Y-26557384D02*
X24071070Y-26728812D01*
X24071070Y-26728812D02*
X24564784Y-27414526D01*
X24564784Y-27414526D02*
X24029927Y-27414526D01*
X23495070Y-26214526D02*
X23412784Y-26214526D01*
X23412784Y-26214526D02*
X23330498Y-26271669D01*
X23330498Y-26271669D02*
X23289356Y-26328812D01*
X23289356Y-26328812D02*
X23248213Y-26443098D01*
X23248213Y-26443098D02*
X23207070Y-26671669D01*
X23207070Y-26671669D02*
X23207070Y-26957384D01*
X23207070Y-26957384D02*
X23248213Y-27185955D01*
X23248213Y-27185955D02*
X23289356Y-27300241D01*
X23289356Y-27300241D02*
X23330498Y-27357384D01*
X23330498Y-27357384D02*
X23412784Y-27414526D01*
X23412784Y-27414526D02*
X23495070Y-27414526D01*
X23495070Y-27414526D02*
X23577356Y-27357384D01*
X23577356Y-27357384D02*
X23618498Y-27300241D01*
X23618498Y-27300241D02*
X23659641Y-27185955D01*
X23659641Y-27185955D02*
X23700784Y-26957384D01*
X23700784Y-26957384D02*
X23700784Y-26671669D01*
X23700784Y-26671669D02*
X23659641Y-26443098D01*
X23659641Y-26443098D02*
X23618498Y-26328812D01*
X23618498Y-26328812D02*
X23577356Y-26271669D01*
X23577356Y-26271669D02*
X23495070Y-26214526D01*
X22672213Y-26214526D02*
X22589927Y-26214526D01*
X22589927Y-26214526D02*
X22507641Y-26271669D01*
X22507641Y-26271669D02*
X22466499Y-26328812D01*
X22466499Y-26328812D02*
X22425356Y-26443098D01*
X22425356Y-26443098D02*
X22384213Y-26671669D01*
X22384213Y-26671669D02*
X22384213Y-26957384D01*
X22384213Y-26957384D02*
X22425356Y-27185955D01*
X22425356Y-27185955D02*
X22466499Y-27300241D01*
X22466499Y-27300241D02*
X22507641Y-27357384D01*
X22507641Y-27357384D02*
X22589927Y-27414526D01*
X22589927Y-27414526D02*
X22672213Y-27414526D01*
X22672213Y-27414526D02*
X22754499Y-27357384D01*
X22754499Y-27357384D02*
X22795641Y-27300241D01*
X22795641Y-27300241D02*
X22836784Y-27185955D01*
X22836784Y-27185955D02*
X22877927Y-26957384D01*
X22877927Y-26957384D02*
X22877927Y-26671669D01*
X22877927Y-26671669D02*
X22836784Y-26443098D01*
X22836784Y-26443098D02*
X22795641Y-26328812D01*
X22795641Y-26328812D02*
X22754499Y-26271669D01*
X22754499Y-26271669D02*
X22672213Y-26214526D01*
X21355641Y-27414526D02*
X21355641Y-26614526D01*
X21355641Y-26728812D02*
X21314498Y-26671669D01*
X21314498Y-26671669D02*
X21232213Y-26614526D01*
X21232213Y-26614526D02*
X21108784Y-26614526D01*
X21108784Y-26614526D02*
X21026498Y-26671669D01*
X21026498Y-26671669D02*
X20985356Y-26785955D01*
X20985356Y-26785955D02*
X20985356Y-27414526D01*
X20985356Y-26785955D02*
X20944213Y-26671669D01*
X20944213Y-26671669D02*
X20861927Y-26614526D01*
X20861927Y-26614526D02*
X20738498Y-26614526D01*
X20738498Y-26614526D02*
X20656213Y-26671669D01*
X20656213Y-26671669D02*
X20615070Y-26785955D01*
X20615070Y-26785955D02*
X20615070Y-27414526D01*
X20203641Y-27414526D02*
X20203641Y-26614526D01*
X20203641Y-26728812D02*
X20162498Y-26671669D01*
X20162498Y-26671669D02*
X20080213Y-26614526D01*
X20080213Y-26614526D02*
X19956784Y-26614526D01*
X19956784Y-26614526D02*
X19874498Y-26671669D01*
X19874498Y-26671669D02*
X19833356Y-26785955D01*
X19833356Y-26785955D02*
X19833356Y-27414526D01*
X19833356Y-26785955D02*
X19792213Y-26671669D01*
X19792213Y-26671669D02*
X19709927Y-26614526D01*
X19709927Y-26614526D02*
X19586498Y-26614526D01*
X19586498Y-26614526D02*
X19504213Y-26671669D01*
X19504213Y-26671669D02*
X19463070Y-26785955D01*
X19463070Y-26785955D02*
X19463070Y-27414526D01*
X18434498Y-27071669D02*
X18023070Y-27071669D01*
X18516784Y-27414526D02*
X18228784Y-26214526D01*
X18228784Y-26214526D02*
X17940784Y-27414526D01*
X17652784Y-27414526D02*
X17652784Y-26214526D01*
X17652784Y-26214526D02*
X17323641Y-26214526D01*
X17323641Y-26214526D02*
X17241356Y-26271669D01*
X17241356Y-26271669D02*
X17200213Y-26328812D01*
X17200213Y-26328812D02*
X17159070Y-26443098D01*
X17159070Y-26443098D02*
X17159070Y-26614526D01*
X17159070Y-26614526D02*
X17200213Y-26728812D01*
X17200213Y-26728812D02*
X17241356Y-26785955D01*
X17241356Y-26785955D02*
X17323641Y-26843098D01*
X17323641Y-26843098D02*
X17652784Y-26843098D01*
X16829927Y-27071669D02*
X16418499Y-27071669D01*
X16912213Y-27414526D02*
X16624213Y-26214526D01*
X16624213Y-26214526D02*
X16336213Y-27414526D01*
X15554499Y-27414526D02*
X15842499Y-26843098D01*
X16048213Y-27414526D02*
X16048213Y-26214526D01*
X16048213Y-26214526D02*
X15719070Y-26214526D01*
X15719070Y-26214526D02*
X15636785Y-26271669D01*
X15636785Y-26271669D02*
X15595642Y-26328812D01*
X15595642Y-26328812D02*
X15554499Y-26443098D01*
X15554499Y-26443098D02*
X15554499Y-26614526D01*
X15554499Y-26614526D02*
X15595642Y-26728812D01*
X15595642Y-26728812D02*
X15636785Y-26785955D01*
X15636785Y-26785955D02*
X15719070Y-26843098D01*
X15719070Y-26843098D02*
X16048213Y-26843098D01*
X15307642Y-26214526D02*
X14813928Y-26214526D01*
X15060785Y-27414526D02*
X15060785Y-26214526D01*
X34377356Y-29871668D02*
X33965928Y-29871668D01*
X34459642Y-30214525D02*
X34171642Y-29014525D01*
X34171642Y-29014525D02*
X33883642Y-30214525D01*
X33307642Y-29585954D02*
X33184214Y-29643097D01*
X33184214Y-29643097D02*
X33143071Y-29700240D01*
X33143071Y-29700240D02*
X33101928Y-29814525D01*
X33101928Y-29814525D02*
X33101928Y-29985954D01*
X33101928Y-29985954D02*
X33143071Y-30100240D01*
X33143071Y-30100240D02*
X33184214Y-30157383D01*
X33184214Y-30157383D02*
X33266499Y-30214525D01*
X33266499Y-30214525D02*
X33595642Y-30214525D01*
X33595642Y-30214525D02*
X33595642Y-29014525D01*
X33595642Y-29014525D02*
X33307642Y-29014525D01*
X33307642Y-29014525D02*
X33225357Y-29071668D01*
X33225357Y-29071668D02*
X33184214Y-29128811D01*
X33184214Y-29128811D02*
X33143071Y-29243097D01*
X33143071Y-29243097D02*
X33143071Y-29357383D01*
X33143071Y-29357383D02*
X33184214Y-29471668D01*
X33184214Y-29471668D02*
X33225357Y-29528811D01*
X33225357Y-29528811D02*
X33307642Y-29585954D01*
X33307642Y-29585954D02*
X33595642Y-29585954D01*
X32772785Y-30157383D02*
X32649357Y-30214525D01*
X32649357Y-30214525D02*
X32443642Y-30214525D01*
X32443642Y-30214525D02*
X32361357Y-30157383D01*
X32361357Y-30157383D02*
X32320214Y-30100240D01*
X32320214Y-30100240D02*
X32279071Y-29985954D01*
X32279071Y-29985954D02*
X32279071Y-29871668D01*
X32279071Y-29871668D02*
X32320214Y-29757383D01*
X32320214Y-29757383D02*
X32361357Y-29700240D01*
X32361357Y-29700240D02*
X32443642Y-29643097D01*
X32443642Y-29643097D02*
X32608214Y-29585954D01*
X32608214Y-29585954D02*
X32690499Y-29528811D01*
X32690499Y-29528811D02*
X32731642Y-29471668D01*
X32731642Y-29471668D02*
X32772785Y-29357383D01*
X32772785Y-29357383D02*
X32772785Y-29243097D01*
X32772785Y-29243097D02*
X32731642Y-29128811D01*
X32731642Y-29128811D02*
X32690499Y-29071668D01*
X32690499Y-29071668D02*
X32608214Y-29014525D01*
X32608214Y-29014525D02*
X32402499Y-29014525D01*
X32402499Y-29014525D02*
X32279071Y-29071668D01*
X31744214Y-29014525D02*
X31579642Y-29014525D01*
X31579642Y-29014525D02*
X31497357Y-29071668D01*
X31497357Y-29071668D02*
X31415071Y-29185954D01*
X31415071Y-29185954D02*
X31373928Y-29414525D01*
X31373928Y-29414525D02*
X31373928Y-29814525D01*
X31373928Y-29814525D02*
X31415071Y-30043097D01*
X31415071Y-30043097D02*
X31497357Y-30157383D01*
X31497357Y-30157383D02*
X31579642Y-30214525D01*
X31579642Y-30214525D02*
X31744214Y-30214525D01*
X31744214Y-30214525D02*
X31826500Y-30157383D01*
X31826500Y-30157383D02*
X31908785Y-30043097D01*
X31908785Y-30043097D02*
X31949928Y-29814525D01*
X31949928Y-29814525D02*
X31949928Y-29414525D01*
X31949928Y-29414525D02*
X31908785Y-29185954D01*
X31908785Y-29185954D02*
X31826500Y-29071668D01*
X31826500Y-29071668D02*
X31744214Y-29014525D01*
X30509928Y-30214525D02*
X30797928Y-29643097D01*
X31003642Y-30214525D02*
X31003642Y-29014525D01*
X31003642Y-29014525D02*
X30674499Y-29014525D01*
X30674499Y-29014525D02*
X30592214Y-29071668D01*
X30592214Y-29071668D02*
X30551071Y-29128811D01*
X30551071Y-29128811D02*
X30509928Y-29243097D01*
X30509928Y-29243097D02*
X30509928Y-29414525D01*
X30509928Y-29414525D02*
X30551071Y-29528811D01*
X30551071Y-29528811D02*
X30592214Y-29585954D01*
X30592214Y-29585954D02*
X30674499Y-29643097D01*
X30674499Y-29643097D02*
X31003642Y-29643097D01*
X29851642Y-29585954D02*
X29728214Y-29643097D01*
X29728214Y-29643097D02*
X29687071Y-29700240D01*
X29687071Y-29700240D02*
X29645928Y-29814525D01*
X29645928Y-29814525D02*
X29645928Y-29985954D01*
X29645928Y-29985954D02*
X29687071Y-30100240D01*
X29687071Y-30100240D02*
X29728214Y-30157383D01*
X29728214Y-30157383D02*
X29810499Y-30214525D01*
X29810499Y-30214525D02*
X30139642Y-30214525D01*
X30139642Y-30214525D02*
X30139642Y-29014525D01*
X30139642Y-29014525D02*
X29851642Y-29014525D01*
X29851642Y-29014525D02*
X29769357Y-29071668D01*
X29769357Y-29071668D02*
X29728214Y-29128811D01*
X29728214Y-29128811D02*
X29687071Y-29243097D01*
X29687071Y-29243097D02*
X29687071Y-29357383D01*
X29687071Y-29357383D02*
X29728214Y-29471668D01*
X29728214Y-29471668D02*
X29769357Y-29528811D01*
X29769357Y-29528811D02*
X29851642Y-29585954D01*
X29851642Y-29585954D02*
X30139642Y-29585954D01*
X29275642Y-29585954D02*
X28987642Y-29585954D01*
X28864214Y-30214525D02*
X29275642Y-30214525D01*
X29275642Y-30214525D02*
X29275642Y-29014525D01*
X29275642Y-29014525D02*
X28864214Y-29014525D01*
X28000214Y-30214525D02*
X28288214Y-29643097D01*
X28493928Y-30214525D02*
X28493928Y-29014525D01*
X28493928Y-29014525D02*
X28164785Y-29014525D01*
X28164785Y-29014525D02*
X28082500Y-29071668D01*
X28082500Y-29071668D02*
X28041357Y-29128811D01*
X28041357Y-29128811D02*
X28000214Y-29243097D01*
X28000214Y-29243097D02*
X28000214Y-29414525D01*
X28000214Y-29414525D02*
X28041357Y-29528811D01*
X28041357Y-29528811D02*
X28082500Y-29585954D01*
X28082500Y-29585954D02*
X28164785Y-29643097D01*
X28164785Y-29643097D02*
X28493928Y-29643097D01*
X26683642Y-29585954D02*
X26560214Y-29643097D01*
X26560214Y-29643097D02*
X26519071Y-29700240D01*
X26519071Y-29700240D02*
X26477928Y-29814525D01*
X26477928Y-29814525D02*
X26477928Y-29985954D01*
X26477928Y-29985954D02*
X26519071Y-30100240D01*
X26519071Y-30100240D02*
X26560214Y-30157383D01*
X26560214Y-30157383D02*
X26642499Y-30214525D01*
X26642499Y-30214525D02*
X26971642Y-30214525D01*
X26971642Y-30214525D02*
X26971642Y-29014525D01*
X26971642Y-29014525D02*
X26683642Y-29014525D01*
X26683642Y-29014525D02*
X26601357Y-29071668D01*
X26601357Y-29071668D02*
X26560214Y-29128811D01*
X26560214Y-29128811D02*
X26519071Y-29243097D01*
X26519071Y-29243097D02*
X26519071Y-29357383D01*
X26519071Y-29357383D02*
X26560214Y-29471668D01*
X26560214Y-29471668D02*
X26601357Y-29528811D01*
X26601357Y-29528811D02*
X26683642Y-29585954D01*
X26683642Y-29585954D02*
X26971642Y-29585954D01*
X26107642Y-29585954D02*
X25819642Y-29585954D01*
X25696214Y-30214525D02*
X26107642Y-30214525D01*
X26107642Y-30214525D02*
X26107642Y-29014525D01*
X26107642Y-29014525D02*
X25696214Y-29014525D01*
X25449357Y-29014525D02*
X24955643Y-29014525D01*
X25202500Y-30214525D02*
X25202500Y-29014525D01*
X24749928Y-29014525D02*
X24544214Y-30214525D01*
X24544214Y-30214525D02*
X24379642Y-29357383D01*
X24379642Y-29357383D02*
X24215071Y-30214525D01*
X24215071Y-30214525D02*
X24009357Y-29014525D01*
X23680213Y-29585954D02*
X23392213Y-29585954D01*
X23268785Y-30214525D02*
X23680213Y-30214525D01*
X23680213Y-30214525D02*
X23680213Y-29014525D01*
X23680213Y-29014525D02*
X23268785Y-29014525D01*
X22898499Y-29585954D02*
X22610499Y-29585954D01*
X22487071Y-30214525D02*
X22898499Y-30214525D01*
X22898499Y-30214525D02*
X22898499Y-29014525D01*
X22898499Y-29014525D02*
X22487071Y-29014525D01*
X22116785Y-30214525D02*
X22116785Y-29014525D01*
X22116785Y-29014525D02*
X21623071Y-30214525D01*
X21623071Y-30214525D02*
X21623071Y-29014525D01*
X20676785Y-29014525D02*
X20183071Y-29014525D01*
X20429928Y-30214525D02*
X20429928Y-29014525D01*
X19895070Y-30214525D02*
X19895070Y-29014525D01*
X19895070Y-29585954D02*
X19401356Y-29585954D01*
X19401356Y-30214525D02*
X19401356Y-29014525D01*
X18989927Y-29585954D02*
X18701927Y-29585954D01*
X18578499Y-30214525D02*
X18989927Y-30214525D01*
X18989927Y-30214525D02*
X18989927Y-29014525D01*
X18989927Y-29014525D02*
X18578499Y-29014525D01*
X17261927Y-29585954D02*
X17138499Y-29643097D01*
X17138499Y-29643097D02*
X17097356Y-29700240D01*
X17097356Y-29700240D02*
X17056213Y-29814525D01*
X17056213Y-29814525D02*
X17056213Y-29985954D01*
X17056213Y-29985954D02*
X17097356Y-30100240D01*
X17097356Y-30100240D02*
X17138499Y-30157383D01*
X17138499Y-30157383D02*
X17220784Y-30214525D01*
X17220784Y-30214525D02*
X17549927Y-30214525D01*
X17549927Y-30214525D02*
X17549927Y-29014525D01*
X17549927Y-29014525D02*
X17261927Y-29014525D01*
X17261927Y-29014525D02*
X17179642Y-29071668D01*
X17179642Y-29071668D02*
X17138499Y-29128811D01*
X17138499Y-29128811D02*
X17097356Y-29243097D01*
X17097356Y-29243097D02*
X17097356Y-29357383D01*
X17097356Y-29357383D02*
X17138499Y-29471668D01*
X17138499Y-29471668D02*
X17179642Y-29528811D01*
X17179642Y-29528811D02*
X17261927Y-29585954D01*
X17261927Y-29585954D02*
X17549927Y-29585954D01*
X16521356Y-29014525D02*
X16356784Y-29014525D01*
X16356784Y-29014525D02*
X16274499Y-29071668D01*
X16274499Y-29071668D02*
X16192213Y-29185954D01*
X16192213Y-29185954D02*
X16151070Y-29414525D01*
X16151070Y-29414525D02*
X16151070Y-29814525D01*
X16151070Y-29814525D02*
X16192213Y-30043097D01*
X16192213Y-30043097D02*
X16274499Y-30157383D01*
X16274499Y-30157383D02*
X16356784Y-30214525D01*
X16356784Y-30214525D02*
X16521356Y-30214525D01*
X16521356Y-30214525D02*
X16603642Y-30157383D01*
X16603642Y-30157383D02*
X16685927Y-30043097D01*
X16685927Y-30043097D02*
X16727070Y-29814525D01*
X16727070Y-29814525D02*
X16727070Y-29414525D01*
X16727070Y-29414525D02*
X16685927Y-29185954D01*
X16685927Y-29185954D02*
X16603642Y-29071668D01*
X16603642Y-29071668D02*
X16521356Y-29014525D01*
X15821927Y-29871668D02*
X15410499Y-29871668D01*
X15904213Y-30214525D02*
X15616213Y-29014525D01*
X15616213Y-29014525D02*
X15328213Y-30214525D01*
X14546499Y-30214525D02*
X14834499Y-29643097D01*
X15040213Y-30214525D02*
X15040213Y-29014525D01*
X15040213Y-29014525D02*
X14711070Y-29014525D01*
X14711070Y-29014525D02*
X14628785Y-29071668D01*
X14628785Y-29071668D02*
X14587642Y-29128811D01*
X14587642Y-29128811D02*
X14546499Y-29243097D01*
X14546499Y-29243097D02*
X14546499Y-29414525D01*
X14546499Y-29414525D02*
X14587642Y-29528811D01*
X14587642Y-29528811D02*
X14628785Y-29585954D01*
X14628785Y-29585954D02*
X14711070Y-29643097D01*
X14711070Y-29643097D02*
X15040213Y-29643097D01*
X14176213Y-30214525D02*
X14176213Y-29014525D01*
X14176213Y-29014525D02*
X13970499Y-29014525D01*
X13970499Y-29014525D02*
X13847070Y-29071668D01*
X13847070Y-29071668D02*
X13764785Y-29185954D01*
X13764785Y-29185954D02*
X13723642Y-29300240D01*
X13723642Y-29300240D02*
X13682499Y-29528811D01*
X13682499Y-29528811D02*
X13682499Y-29700240D01*
X13682499Y-29700240D02*
X13723642Y-29928811D01*
X13723642Y-29928811D02*
X13764785Y-30043097D01*
X13764785Y-30043097D02*
X13847070Y-30157383D01*
X13847070Y-30157383D02*
X13970499Y-30214525D01*
X13970499Y-30214525D02*
X14176213Y-30214525D01*
X13353356Y-30157383D02*
X13229928Y-30214525D01*
X13229928Y-30214525D02*
X13024213Y-30214525D01*
X13024213Y-30214525D02*
X12941928Y-30157383D01*
X12941928Y-30157383D02*
X12900785Y-30100240D01*
X12900785Y-30100240D02*
X12859642Y-29985954D01*
X12859642Y-29985954D02*
X12859642Y-29871668D01*
X12859642Y-29871668D02*
X12900785Y-29757383D01*
X12900785Y-29757383D02*
X12941928Y-29700240D01*
X12941928Y-29700240D02*
X13024213Y-29643097D01*
X13024213Y-29643097D02*
X13188785Y-29585954D01*
X13188785Y-29585954D02*
X13271070Y-29528811D01*
X13271070Y-29528811D02*
X13312213Y-29471668D01*
X13312213Y-29471668D02*
X13353356Y-29357383D01*
X13353356Y-29357383D02*
X13353356Y-29243097D01*
X13353356Y-29243097D02*
X13312213Y-29128811D01*
X13312213Y-29128811D02*
X13271070Y-29071668D01*
X13271070Y-29071668D02*
X13188785Y-29014525D01*
X13188785Y-29014525D02*
X12983070Y-29014525D01*
X12983070Y-29014525D02*
X12859642Y-29071668D01*
D11*
X34480213Y-11596454D02*
X35028785Y-11596454D01*
X35028785Y-11596454D02*
X35083642Y-12358359D01*
X35083642Y-12358359D02*
X35028785Y-12282168D01*
X35028785Y-12282168D02*
X34919071Y-12205978D01*
X34919071Y-12205978D02*
X34644785Y-12205978D01*
X34644785Y-12205978D02*
X34535071Y-12282168D01*
X34535071Y-12282168D02*
X34480213Y-12358359D01*
X34480213Y-12358359D02*
X34425356Y-12510740D01*
X34425356Y-12510740D02*
X34425356Y-12891692D01*
X34425356Y-12891692D02*
X34480213Y-13044073D01*
X34480213Y-13044073D02*
X34535071Y-13120264D01*
X34535071Y-13120264D02*
X34644785Y-13196454D01*
X34644785Y-13196454D02*
X34919071Y-13196454D01*
X34919071Y-13196454D02*
X35028785Y-13120264D01*
X35028785Y-13120264D02*
X35083642Y-13044073D01*
X33931642Y-13044073D02*
X33876785Y-13120264D01*
X33876785Y-13120264D02*
X33931642Y-13196454D01*
X33931642Y-13196454D02*
X33986499Y-13120264D01*
X33986499Y-13120264D02*
X33931642Y-13044073D01*
X33931642Y-13044073D02*
X33931642Y-13196454D01*
X33218499Y-12282168D02*
X33328214Y-12205978D01*
X33328214Y-12205978D02*
X33383071Y-12129787D01*
X33383071Y-12129787D02*
X33437928Y-11977406D01*
X33437928Y-11977406D02*
X33437928Y-11901216D01*
X33437928Y-11901216D02*
X33383071Y-11748835D01*
X33383071Y-11748835D02*
X33328214Y-11672644D01*
X33328214Y-11672644D02*
X33218499Y-11596454D01*
X33218499Y-11596454D02*
X32999071Y-11596454D01*
X32999071Y-11596454D02*
X32889357Y-11672644D01*
X32889357Y-11672644D02*
X32834499Y-11748835D01*
X32834499Y-11748835D02*
X32779642Y-11901216D01*
X32779642Y-11901216D02*
X32779642Y-11977406D01*
X32779642Y-11977406D02*
X32834499Y-12129787D01*
X32834499Y-12129787D02*
X32889357Y-12205978D01*
X32889357Y-12205978D02*
X32999071Y-12282168D01*
X32999071Y-12282168D02*
X33218499Y-12282168D01*
X33218499Y-12282168D02*
X33328214Y-12358359D01*
X33328214Y-12358359D02*
X33383071Y-12434549D01*
X33383071Y-12434549D02*
X33437928Y-12586930D01*
X33437928Y-12586930D02*
X33437928Y-12891692D01*
X33437928Y-12891692D02*
X33383071Y-13044073D01*
X33383071Y-13044073D02*
X33328214Y-13120264D01*
X33328214Y-13120264D02*
X33218499Y-13196454D01*
X33218499Y-13196454D02*
X32999071Y-13196454D01*
X32999071Y-13196454D02*
X32889357Y-13120264D01*
X32889357Y-13120264D02*
X32834499Y-13044073D01*
X32834499Y-13044073D02*
X32779642Y-12891692D01*
X32779642Y-12891692D02*
X32779642Y-12586930D01*
X32779642Y-12586930D02*
X32834499Y-12434549D01*
X32834499Y-12434549D02*
X32889357Y-12358359D01*
X32889357Y-12358359D02*
X32999071Y-12282168D01*
X30804785Y-11672644D02*
X30914500Y-11596454D01*
X30914500Y-11596454D02*
X31079071Y-11596454D01*
X31079071Y-11596454D02*
X31243642Y-11672644D01*
X31243642Y-11672644D02*
X31353357Y-11825025D01*
X31353357Y-11825025D02*
X31408214Y-11977406D01*
X31408214Y-11977406D02*
X31463071Y-12282168D01*
X31463071Y-12282168D02*
X31463071Y-12510740D01*
X31463071Y-12510740D02*
X31408214Y-12815502D01*
X31408214Y-12815502D02*
X31353357Y-12967883D01*
X31353357Y-12967883D02*
X31243642Y-13120264D01*
X31243642Y-13120264D02*
X31079071Y-13196454D01*
X31079071Y-13196454D02*
X30969357Y-13196454D01*
X30969357Y-13196454D02*
X30804785Y-13120264D01*
X30804785Y-13120264D02*
X30749928Y-13044073D01*
X30749928Y-13044073D02*
X30749928Y-12510740D01*
X30749928Y-12510740D02*
X30969357Y-12510740D01*
X30256214Y-13196454D02*
X30256214Y-11596454D01*
X30256214Y-12358359D02*
X29597928Y-12358359D01*
X29597928Y-13196454D02*
X29597928Y-11596454D01*
X29159071Y-12129787D02*
X28555643Y-12129787D01*
X28555643Y-12129787D02*
X29159071Y-13196454D01*
X29159071Y-13196454D02*
X28555643Y-13196454D01*
X26580786Y-13196454D02*
X26964786Y-12434549D01*
X27239072Y-13196454D02*
X27239072Y-11596454D01*
X27239072Y-11596454D02*
X26800215Y-11596454D01*
X26800215Y-11596454D02*
X26690500Y-11672644D01*
X26690500Y-11672644D02*
X26635643Y-11748835D01*
X26635643Y-11748835D02*
X26580786Y-11901216D01*
X26580786Y-11901216D02*
X26580786Y-12129787D01*
X26580786Y-12129787D02*
X26635643Y-12282168D01*
X26635643Y-12282168D02*
X26690500Y-12358359D01*
X26690500Y-12358359D02*
X26800215Y-12434549D01*
X26800215Y-12434549D02*
X27239072Y-12434549D01*
X26141929Y-12739311D02*
X25593358Y-12739311D01*
X26251643Y-13196454D02*
X25867643Y-11596454D01*
X25867643Y-11596454D02*
X25483643Y-13196454D01*
X25099643Y-13196454D02*
X25099643Y-11596454D01*
X25099643Y-11596454D02*
X24825357Y-11596454D01*
X24825357Y-11596454D02*
X24660786Y-11672644D01*
X24660786Y-11672644D02*
X24551071Y-11825025D01*
X24551071Y-11825025D02*
X24496214Y-11977406D01*
X24496214Y-11977406D02*
X24441357Y-12282168D01*
X24441357Y-12282168D02*
X24441357Y-12510740D01*
X24441357Y-12510740D02*
X24496214Y-12815502D01*
X24496214Y-12815502D02*
X24551071Y-12967883D01*
X24551071Y-12967883D02*
X24660786Y-13120264D01*
X24660786Y-13120264D02*
X24825357Y-13196454D01*
X24825357Y-13196454D02*
X25099643Y-13196454D01*
X24002500Y-12739311D02*
X23453929Y-12739311D01*
X24112214Y-13196454D02*
X23728214Y-11596454D01*
X23728214Y-11596454D02*
X23344214Y-13196454D01*
X22301928Y-13196454D02*
X22685928Y-12434549D01*
X22960214Y-13196454D02*
X22960214Y-11596454D01*
X22960214Y-11596454D02*
X22521357Y-11596454D01*
X22521357Y-11596454D02*
X22411642Y-11672644D01*
X22411642Y-11672644D02*
X22356785Y-11748835D01*
X22356785Y-11748835D02*
X22301928Y-11901216D01*
X22301928Y-11901216D02*
X22301928Y-12129787D01*
X22301928Y-12129787D02*
X22356785Y-12282168D01*
X22356785Y-12282168D02*
X22411642Y-12358359D01*
X22411642Y-12358359D02*
X22521357Y-12434549D01*
X22521357Y-12434549D02*
X22960214Y-12434549D01*
X20930500Y-12586930D02*
X20052786Y-12586930D01*
X17968214Y-13196454D02*
X18352214Y-12434549D01*
X18626500Y-13196454D02*
X18626500Y-11596454D01*
X18626500Y-11596454D02*
X18187643Y-11596454D01*
X18187643Y-11596454D02*
X18077928Y-11672644D01*
X18077928Y-11672644D02*
X18023071Y-11748835D01*
X18023071Y-11748835D02*
X17968214Y-11901216D01*
X17968214Y-11901216D02*
X17968214Y-12129787D01*
X17968214Y-12129787D02*
X18023071Y-12282168D01*
X18023071Y-12282168D02*
X18077928Y-12358359D01*
X18077928Y-12358359D02*
X18187643Y-12434549D01*
X18187643Y-12434549D02*
X18626500Y-12434549D01*
X17474500Y-12358359D02*
X17090500Y-12358359D01*
X16925928Y-13196454D02*
X17474500Y-13196454D01*
X17474500Y-13196454D02*
X17474500Y-11596454D01*
X17474500Y-11596454D02*
X16925928Y-11596454D01*
X15773928Y-13044073D02*
X15828785Y-13120264D01*
X15828785Y-13120264D02*
X15993357Y-13196454D01*
X15993357Y-13196454D02*
X16103071Y-13196454D01*
X16103071Y-13196454D02*
X16267642Y-13120264D01*
X16267642Y-13120264D02*
X16377357Y-12967883D01*
X16377357Y-12967883D02*
X16432214Y-12815502D01*
X16432214Y-12815502D02*
X16487071Y-12510740D01*
X16487071Y-12510740D02*
X16487071Y-12282168D01*
X16487071Y-12282168D02*
X16432214Y-11977406D01*
X16432214Y-11977406D02*
X16377357Y-11825025D01*
X16377357Y-11825025D02*
X16267642Y-11672644D01*
X16267642Y-11672644D02*
X16103071Y-11596454D01*
X16103071Y-11596454D02*
X15993357Y-11596454D01*
X15993357Y-11596454D02*
X15828785Y-11672644D01*
X15828785Y-11672644D02*
X15773928Y-11748835D01*
X15280214Y-12358359D02*
X14896214Y-12358359D01*
X14731642Y-13196454D02*
X15280214Y-13196454D01*
X15280214Y-13196454D02*
X15280214Y-11596454D01*
X15280214Y-11596454D02*
X14731642Y-11596454D01*
X14237928Y-13196454D02*
X14237928Y-11596454D01*
X13853928Y-11596454D02*
X13469928Y-13196454D01*
X13469928Y-13196454D02*
X13085928Y-11596454D01*
X12701928Y-12358359D02*
X12317928Y-12358359D01*
X12153356Y-13196454D02*
X12701928Y-13196454D01*
X12701928Y-13196454D02*
X12701928Y-11596454D01*
X12701928Y-11596454D02*
X12153356Y-11596454D01*
M02*
