%TF.GenerationSoftware,KiCad,Pcbnew,10.0.5*%
%TF.CreationDate,2026-08-09T20:29:26+01:00*%
%TF.ProjectId,radar_5g8_receive,72616461-725f-4356-9738-5f7265636569,rev?*%
%TF.SameCoordinates,Original*%
%TF.FileFunction,Legend,Bot*%
%TF.FilePolarity,Positive*%
%FSLAX46Y46*%
G04 Gerber Fmt 4.6, Leading zero omitted, Abs format (unit mm)*
G04 Created by KiCad (PCBNEW 10.0.5) date 2026-08-09 20:29:26*
%MOMM*%
%LPD*%
G01*
G04 APERTURE LIST*
%ADD10C,0.150000*%
%ADD11C,0.165000*%
%ADD12C,0.240000*%
G04 APERTURE END LIST*
D10*
X5670015Y-53198568D02*
X5910015Y-52722377D01*
X6081444Y-53198568D02*
X6081444Y-52198568D01*
X6081444Y-52198568D02*
X5807158Y-52198568D01*
X5807158Y-52198568D02*
X5738587Y-52246187D01*
X5738587Y-52246187D02*
X5704301Y-52293806D01*
X5704301Y-52293806D02*
X5670015Y-52389044D01*
X5670015Y-52389044D02*
X5670015Y-52531901D01*
X5670015Y-52531901D02*
X5704301Y-52627139D01*
X5704301Y-52627139D02*
X5738587Y-52674758D01*
X5738587Y-52674758D02*
X5807158Y-52722377D01*
X5807158Y-52722377D02*
X6081444Y-52722377D01*
X5430015Y-52198568D02*
X4984301Y-52198568D01*
X4984301Y-52198568D02*
X5224301Y-52579520D01*
X5224301Y-52579520D02*
X5121444Y-52579520D01*
X5121444Y-52579520D02*
X5052873Y-52627139D01*
X5052873Y-52627139D02*
X5018587Y-52674758D01*
X5018587Y-52674758D02*
X4984301Y-52769996D01*
X4984301Y-52769996D02*
X4984301Y-53008091D01*
X4984301Y-53008091D02*
X5018587Y-53103329D01*
X5018587Y-53103329D02*
X5052873Y-53150949D01*
X5052873Y-53150949D02*
X5121444Y-53198568D01*
X5121444Y-53198568D02*
X5327158Y-53198568D01*
X5327158Y-53198568D02*
X5395730Y-53150949D01*
X5395730Y-53150949D02*
X5430015Y-53103329D01*
X11611427Y-21679656D02*
X11611427Y-20679656D01*
X11611427Y-20679656D02*
X11439998Y-20679656D01*
X11439998Y-20679656D02*
X11337141Y-20727275D01*
X11337141Y-20727275D02*
X11268570Y-20822513D01*
X11268570Y-20822513D02*
X11234284Y-20917751D01*
X11234284Y-20917751D02*
X11199998Y-21108227D01*
X11199998Y-21108227D02*
X11199998Y-21251084D01*
X11199998Y-21251084D02*
X11234284Y-21441560D01*
X11234284Y-21441560D02*
X11268570Y-21536798D01*
X11268570Y-21536798D02*
X11337141Y-21632037D01*
X11337141Y-21632037D02*
X11439998Y-21679656D01*
X11439998Y-21679656D02*
X11611427Y-21679656D01*
X10925713Y-20774894D02*
X10891427Y-20727275D01*
X10891427Y-20727275D02*
X10822856Y-20679656D01*
X10822856Y-20679656D02*
X10651427Y-20679656D01*
X10651427Y-20679656D02*
X10582856Y-20727275D01*
X10582856Y-20727275D02*
X10548570Y-20774894D01*
X10548570Y-20774894D02*
X10514284Y-20870132D01*
X10514284Y-20870132D02*
X10514284Y-20965370D01*
X10514284Y-20965370D02*
X10548570Y-21108227D01*
X10548570Y-21108227D02*
X10959998Y-21679656D01*
X10959998Y-21679656D02*
X10514284Y-21679656D01*
X9314285Y-21679656D02*
X9657142Y-21679656D01*
X9657142Y-21679656D02*
X9657142Y-20679656D01*
X9074285Y-21679656D02*
X9074285Y-20679656D01*
X8731428Y-21679656D02*
X8731428Y-20679656D01*
X8731428Y-20679656D02*
X8491428Y-21393941D01*
X8491428Y-21393941D02*
X8251428Y-20679656D01*
X8251428Y-20679656D02*
X8251428Y-21679656D01*
X7908571Y-21679656D02*
X7908571Y-20679656D01*
X7668571Y-20679656D02*
X7257143Y-20679656D01*
X7462857Y-21679656D02*
X7462857Y-20679656D01*
X7017143Y-21155846D02*
X6777143Y-21155846D01*
X6674286Y-21679656D02*
X7017143Y-21679656D01*
X7017143Y-21679656D02*
X7017143Y-20679656D01*
X7017143Y-20679656D02*
X6674286Y-20679656D01*
X5954285Y-21679656D02*
X6194285Y-21203465D01*
X6365714Y-21679656D02*
X6365714Y-20679656D01*
X6365714Y-20679656D02*
X6091428Y-20679656D01*
X6091428Y-20679656D02*
X6022857Y-20727275D01*
X6022857Y-20727275D02*
X5988571Y-20774894D01*
X5988571Y-20774894D02*
X5954285Y-20870132D01*
X5954285Y-20870132D02*
X5954285Y-21012989D01*
X5954285Y-21012989D02*
X5988571Y-21108227D01*
X5988571Y-21108227D02*
X6022857Y-21155846D01*
X6022857Y-21155846D02*
X6091428Y-21203465D01*
X6091428Y-21203465D02*
X6365714Y-21203465D01*
X4891429Y-22060608D02*
X4925714Y-22012989D01*
X4925714Y-22012989D02*
X4994286Y-21870132D01*
X4994286Y-21870132D02*
X5028572Y-21774894D01*
X5028572Y-21774894D02*
X5062857Y-21632037D01*
X5062857Y-21632037D02*
X5097143Y-21393941D01*
X5097143Y-21393941D02*
X5097143Y-21203465D01*
X5097143Y-21203465D02*
X5062857Y-20965370D01*
X5062857Y-20965370D02*
X5028572Y-20822513D01*
X5028572Y-20822513D02*
X4994286Y-20727275D01*
X4994286Y-20727275D02*
X4925714Y-20584417D01*
X4925714Y-20584417D02*
X4891429Y-20536798D01*
X4617143Y-21679656D02*
X4617143Y-20679656D01*
X4617143Y-20679656D02*
X4445714Y-20679656D01*
X4445714Y-20679656D02*
X4342857Y-20727275D01*
X4342857Y-20727275D02*
X4274286Y-20822513D01*
X4274286Y-20822513D02*
X4240000Y-20917751D01*
X4240000Y-20917751D02*
X4205714Y-21108227D01*
X4205714Y-21108227D02*
X4205714Y-21251084D01*
X4205714Y-21251084D02*
X4240000Y-21441560D01*
X4240000Y-21441560D02*
X4274286Y-21536798D01*
X4274286Y-21536798D02*
X4342857Y-21632037D01*
X4342857Y-21632037D02*
X4445714Y-21679656D01*
X4445714Y-21679656D02*
X4617143Y-21679656D01*
X3897143Y-21679656D02*
X3897143Y-20679656D01*
X3897143Y-20679656D02*
X3485714Y-21679656D01*
X3485714Y-21679656D02*
X3485714Y-20679656D01*
X2902857Y-21155846D02*
X3142857Y-21155846D01*
X3142857Y-21679656D02*
X3142857Y-20679656D01*
X3142857Y-20679656D02*
X2800000Y-20679656D01*
X2594285Y-22060608D02*
X2560000Y-22012989D01*
X2560000Y-22012989D02*
X2491428Y-21870132D01*
X2491428Y-21870132D02*
X2457143Y-21774894D01*
X2457143Y-21774894D02*
X2422857Y-21632037D01*
X2422857Y-21632037D02*
X2388571Y-21393941D01*
X2388571Y-21393941D02*
X2388571Y-21203465D01*
X2388571Y-21203465D02*
X2422857Y-20965370D01*
X2422857Y-20965370D02*
X2457143Y-20822513D01*
X2457143Y-20822513D02*
X2491428Y-20727275D01*
X2491428Y-20727275D02*
X2560000Y-20584417D01*
X2560000Y-20584417D02*
X2594285Y-20536798D01*
D11*
X33707072Y-17769044D02*
X34084215Y-17769044D01*
X34084215Y-17769044D02*
X34084215Y-16669044D01*
X33443072Y-17769044D02*
X33443072Y-16669044D01*
X33443072Y-17192854D02*
X32990501Y-17192854D01*
X32990501Y-17769044D02*
X32990501Y-16669044D01*
X32160787Y-17664283D02*
X32198501Y-17716664D01*
X32198501Y-17716664D02*
X32311644Y-17769044D01*
X32311644Y-17769044D02*
X32387072Y-17769044D01*
X32387072Y-17769044D02*
X32500215Y-17716664D01*
X32500215Y-17716664D02*
X32575644Y-17611902D01*
X32575644Y-17611902D02*
X32613358Y-17507140D01*
X32613358Y-17507140D02*
X32651072Y-17297616D01*
X32651072Y-17297616D02*
X32651072Y-17140473D01*
X32651072Y-17140473D02*
X32613358Y-16930949D01*
X32613358Y-16930949D02*
X32575644Y-16826187D01*
X32575644Y-16826187D02*
X32500215Y-16721425D01*
X32500215Y-16721425D02*
X32387072Y-16669044D01*
X32387072Y-16669044D02*
X32311644Y-16669044D01*
X32311644Y-16669044D02*
X32198501Y-16721425D01*
X32198501Y-16721425D02*
X32160787Y-16773806D01*
X31821358Y-17769044D02*
X31821358Y-16669044D01*
X31821358Y-16669044D02*
X31519644Y-16669044D01*
X31519644Y-16669044D02*
X31444215Y-16721425D01*
X31444215Y-16721425D02*
X31406501Y-16773806D01*
X31406501Y-16773806D02*
X31368787Y-16878568D01*
X31368787Y-16878568D02*
X31368787Y-17035711D01*
X31368787Y-17035711D02*
X31406501Y-17140473D01*
X31406501Y-17140473D02*
X31444215Y-17192854D01*
X31444215Y-17192854D02*
X31519644Y-17245235D01*
X31519644Y-17245235D02*
X31821358Y-17245235D01*
X29822500Y-17192854D02*
X29558500Y-17192854D01*
X29445357Y-17769044D02*
X29822500Y-17769044D01*
X29822500Y-17769044D02*
X29822500Y-16669044D01*
X29822500Y-16669044D02*
X29445357Y-16669044D01*
X28728786Y-17769044D02*
X29105929Y-17769044D01*
X29105929Y-17769044D02*
X29105929Y-16669044D01*
X28464786Y-17192854D02*
X28200786Y-17192854D01*
X28087643Y-17769044D02*
X28464786Y-17769044D01*
X28464786Y-17769044D02*
X28464786Y-16669044D01*
X28464786Y-16669044D02*
X28087643Y-16669044D01*
X27861358Y-16669044D02*
X27597358Y-17769044D01*
X27597358Y-17769044D02*
X27333358Y-16669044D01*
X27107072Y-17454759D02*
X26729930Y-17454759D01*
X27182501Y-17769044D02*
X26918501Y-16669044D01*
X26918501Y-16669044D02*
X26654501Y-17769044D01*
X26503644Y-16669044D02*
X26051073Y-16669044D01*
X26277358Y-17769044D02*
X26277358Y-16669044D01*
X25787072Y-17769044D02*
X25787072Y-16669044D01*
X25259072Y-16669044D02*
X25108215Y-16669044D01*
X25108215Y-16669044D02*
X25032786Y-16721425D01*
X25032786Y-16721425D02*
X24957358Y-16826187D01*
X24957358Y-16826187D02*
X24919643Y-17035711D01*
X24919643Y-17035711D02*
X24919643Y-17402378D01*
X24919643Y-17402378D02*
X24957358Y-17611902D01*
X24957358Y-17611902D02*
X25032786Y-17716664D01*
X25032786Y-17716664D02*
X25108215Y-17769044D01*
X25108215Y-17769044D02*
X25259072Y-17769044D01*
X25259072Y-17769044D02*
X25334501Y-17716664D01*
X25334501Y-17716664D02*
X25409929Y-17611902D01*
X25409929Y-17611902D02*
X25447643Y-17402378D01*
X25447643Y-17402378D02*
X25447643Y-17035711D01*
X25447643Y-17035711D02*
X25409929Y-16826187D01*
X25409929Y-16826187D02*
X25334501Y-16721425D01*
X25334501Y-16721425D02*
X25259072Y-16669044D01*
X24580215Y-17769044D02*
X24580215Y-16669044D01*
X24580215Y-16669044D02*
X24127644Y-17769044D01*
X24127644Y-17769044D02*
X24127644Y-16669044D01*
X22204215Y-17769044D02*
X22204215Y-16669044D01*
X22204215Y-17716664D02*
X22279643Y-17769044D01*
X22279643Y-17769044D02*
X22430500Y-17769044D01*
X22430500Y-17769044D02*
X22505929Y-17716664D01*
X22505929Y-17716664D02*
X22543643Y-17664283D01*
X22543643Y-17664283D02*
X22581357Y-17559521D01*
X22581357Y-17559521D02*
X22581357Y-17245235D01*
X22581357Y-17245235D02*
X22543643Y-17140473D01*
X22543643Y-17140473D02*
X22505929Y-17088092D01*
X22505929Y-17088092D02*
X22430500Y-17035711D01*
X22430500Y-17035711D02*
X22279643Y-17035711D01*
X22279643Y-17035711D02*
X22204215Y-17088092D01*
X21223643Y-17192854D02*
X20620215Y-17192854D01*
X20620215Y-17507140D02*
X21223643Y-17507140D01*
X19677357Y-16773806D02*
X19639643Y-16721425D01*
X19639643Y-16721425D02*
X19564215Y-16669044D01*
X19564215Y-16669044D02*
X19375643Y-16669044D01*
X19375643Y-16669044D02*
X19300215Y-16721425D01*
X19300215Y-16721425D02*
X19262500Y-16773806D01*
X19262500Y-16773806D02*
X19224786Y-16878568D01*
X19224786Y-16878568D02*
X19224786Y-16983330D01*
X19224786Y-16983330D02*
X19262500Y-17140473D01*
X19262500Y-17140473D02*
X19715072Y-17769044D01*
X19715072Y-17769044D02*
X19224786Y-17769044D01*
X18508214Y-16669044D02*
X18885357Y-16669044D01*
X18885357Y-16669044D02*
X18923071Y-17192854D01*
X18923071Y-17192854D02*
X18885357Y-17140473D01*
X18885357Y-17140473D02*
X18809929Y-17088092D01*
X18809929Y-17088092D02*
X18621357Y-17088092D01*
X18621357Y-17088092D02*
X18545929Y-17140473D01*
X18545929Y-17140473D02*
X18508214Y-17192854D01*
X18508214Y-17192854D02*
X18470500Y-17297616D01*
X18470500Y-17297616D02*
X18470500Y-17559521D01*
X18470500Y-17559521D02*
X18508214Y-17664283D01*
X18508214Y-17664283D02*
X18545929Y-17716664D01*
X18545929Y-17716664D02*
X18621357Y-17769044D01*
X18621357Y-17769044D02*
X18809929Y-17769044D01*
X18809929Y-17769044D02*
X18885357Y-17716664D01*
X18885357Y-17716664D02*
X18923071Y-17664283D01*
X18131071Y-17664283D02*
X18093357Y-17716664D01*
X18093357Y-17716664D02*
X18131071Y-17769044D01*
X18131071Y-17769044D02*
X18168785Y-17716664D01*
X18168785Y-17716664D02*
X18131071Y-17664283D01*
X18131071Y-17664283D02*
X18131071Y-17769044D01*
X17640785Y-17140473D02*
X17716214Y-17088092D01*
X17716214Y-17088092D02*
X17753928Y-17035711D01*
X17753928Y-17035711D02*
X17791642Y-16930949D01*
X17791642Y-16930949D02*
X17791642Y-16878568D01*
X17791642Y-16878568D02*
X17753928Y-16773806D01*
X17753928Y-16773806D02*
X17716214Y-16721425D01*
X17716214Y-16721425D02*
X17640785Y-16669044D01*
X17640785Y-16669044D02*
X17489928Y-16669044D01*
X17489928Y-16669044D02*
X17414500Y-16721425D01*
X17414500Y-16721425D02*
X17376785Y-16773806D01*
X17376785Y-16773806D02*
X17339071Y-16878568D01*
X17339071Y-16878568D02*
X17339071Y-16930949D01*
X17339071Y-16930949D02*
X17376785Y-17035711D01*
X17376785Y-17035711D02*
X17414500Y-17088092D01*
X17414500Y-17088092D02*
X17489928Y-17140473D01*
X17489928Y-17140473D02*
X17640785Y-17140473D01*
X17640785Y-17140473D02*
X17716214Y-17192854D01*
X17716214Y-17192854D02*
X17753928Y-17245235D01*
X17753928Y-17245235D02*
X17791642Y-17349997D01*
X17791642Y-17349997D02*
X17791642Y-17559521D01*
X17791642Y-17559521D02*
X17753928Y-17664283D01*
X17753928Y-17664283D02*
X17716214Y-17716664D01*
X17716214Y-17716664D02*
X17640785Y-17769044D01*
X17640785Y-17769044D02*
X17489928Y-17769044D01*
X17489928Y-17769044D02*
X17414500Y-17716664D01*
X17414500Y-17716664D02*
X17376785Y-17664283D01*
X17376785Y-17664283D02*
X17339071Y-17559521D01*
X17339071Y-17559521D02*
X17339071Y-17349997D01*
X17339071Y-17349997D02*
X17376785Y-17245235D01*
X17376785Y-17245235D02*
X17414500Y-17192854D01*
X17414500Y-17192854D02*
X17489928Y-17140473D01*
X16660214Y-17035711D02*
X16660214Y-17769044D01*
X16848785Y-16616664D02*
X17037356Y-17402378D01*
X17037356Y-17402378D02*
X16547071Y-17402378D01*
X15905928Y-17035711D02*
X15905928Y-17769044D01*
X16094499Y-16616664D02*
X16283070Y-17402378D01*
X16283070Y-17402378D02*
X15792785Y-17402378D01*
X14887641Y-17769044D02*
X14887641Y-17035711D01*
X14887641Y-17140473D02*
X14849927Y-17088092D01*
X14849927Y-17088092D02*
X14774498Y-17035711D01*
X14774498Y-17035711D02*
X14661355Y-17035711D01*
X14661355Y-17035711D02*
X14585927Y-17088092D01*
X14585927Y-17088092D02*
X14548213Y-17192854D01*
X14548213Y-17192854D02*
X14548213Y-17769044D01*
X14548213Y-17192854D02*
X14510498Y-17088092D01*
X14510498Y-17088092D02*
X14435070Y-17035711D01*
X14435070Y-17035711D02*
X14321927Y-17035711D01*
X14321927Y-17035711D02*
X14246498Y-17088092D01*
X14246498Y-17088092D02*
X14208784Y-17192854D01*
X14208784Y-17192854D02*
X14208784Y-17769044D01*
X13831641Y-17769044D02*
X13831641Y-17035711D01*
X13831641Y-17140473D02*
X13793927Y-17088092D01*
X13793927Y-17088092D02*
X13718498Y-17035711D01*
X13718498Y-17035711D02*
X13605355Y-17035711D01*
X13605355Y-17035711D02*
X13529927Y-17088092D01*
X13529927Y-17088092D02*
X13492213Y-17192854D01*
X13492213Y-17192854D02*
X13492213Y-17769044D01*
X13492213Y-17192854D02*
X13454498Y-17088092D01*
X13454498Y-17088092D02*
X13379070Y-17035711D01*
X13379070Y-17035711D02*
X13265927Y-17035711D01*
X13265927Y-17035711D02*
X13190498Y-17088092D01*
X13190498Y-17088092D02*
X13152784Y-17192854D01*
X13152784Y-17192854D02*
X13152784Y-17769044D01*
X33725930Y-19369044D02*
X33197930Y-19369044D01*
X33197930Y-19369044D02*
X33725930Y-20469044D01*
X33725930Y-20469044D02*
X33197930Y-20469044D01*
X32745358Y-19945235D02*
X32745358Y-20469044D01*
X33009358Y-19369044D02*
X32745358Y-19945235D01*
X32745358Y-19945235D02*
X32481358Y-19369044D01*
X31953358Y-19892854D02*
X32217358Y-19892854D01*
X32217358Y-20469044D02*
X32217358Y-19369044D01*
X32217358Y-19369044D02*
X31840215Y-19369044D01*
X31613930Y-19369044D02*
X31123644Y-19369044D01*
X31123644Y-19369044D02*
X31387644Y-19788092D01*
X31387644Y-19788092D02*
X31274501Y-19788092D01*
X31274501Y-19788092D02*
X31199073Y-19840473D01*
X31199073Y-19840473D02*
X31161358Y-19892854D01*
X31161358Y-19892854D02*
X31123644Y-19997616D01*
X31123644Y-19997616D02*
X31123644Y-20259521D01*
X31123644Y-20259521D02*
X31161358Y-20364283D01*
X31161358Y-20364283D02*
X31199073Y-20416664D01*
X31199073Y-20416664D02*
X31274501Y-20469044D01*
X31274501Y-20469044D02*
X31500787Y-20469044D01*
X31500787Y-20469044D02*
X31576215Y-20416664D01*
X31576215Y-20416664D02*
X31613930Y-20364283D01*
X30633358Y-19369044D02*
X30557929Y-19369044D01*
X30557929Y-19369044D02*
X30482501Y-19421425D01*
X30482501Y-19421425D02*
X30444787Y-19473806D01*
X30444787Y-19473806D02*
X30407072Y-19578568D01*
X30407072Y-19578568D02*
X30369358Y-19788092D01*
X30369358Y-19788092D02*
X30369358Y-20049997D01*
X30369358Y-20049997D02*
X30407072Y-20259521D01*
X30407072Y-20259521D02*
X30444787Y-20364283D01*
X30444787Y-20364283D02*
X30482501Y-20416664D01*
X30482501Y-20416664D02*
X30557929Y-20469044D01*
X30557929Y-20469044D02*
X30633358Y-20469044D01*
X30633358Y-20469044D02*
X30708787Y-20416664D01*
X30708787Y-20416664D02*
X30746501Y-20364283D01*
X30746501Y-20364283D02*
X30784215Y-20259521D01*
X30784215Y-20259521D02*
X30821929Y-20049997D01*
X30821929Y-20049997D02*
X30821929Y-19788092D01*
X30821929Y-19788092D02*
X30784215Y-19578568D01*
X30784215Y-19578568D02*
X30746501Y-19473806D01*
X30746501Y-19473806D02*
X30708787Y-19421425D01*
X30708787Y-19421425D02*
X30633358Y-19369044D01*
X29879072Y-19369044D02*
X29803643Y-19369044D01*
X29803643Y-19369044D02*
X29728215Y-19421425D01*
X29728215Y-19421425D02*
X29690501Y-19473806D01*
X29690501Y-19473806D02*
X29652786Y-19578568D01*
X29652786Y-19578568D02*
X29615072Y-19788092D01*
X29615072Y-19788092D02*
X29615072Y-20049997D01*
X29615072Y-20049997D02*
X29652786Y-20259521D01*
X29652786Y-20259521D02*
X29690501Y-20364283D01*
X29690501Y-20364283D02*
X29728215Y-20416664D01*
X29728215Y-20416664D02*
X29803643Y-20469044D01*
X29803643Y-20469044D02*
X29879072Y-20469044D01*
X29879072Y-20469044D02*
X29954501Y-20416664D01*
X29954501Y-20416664D02*
X29992215Y-20364283D01*
X29992215Y-20364283D02*
X30029929Y-20259521D01*
X30029929Y-20259521D02*
X30067643Y-20049997D01*
X30067643Y-20049997D02*
X30067643Y-19788092D01*
X30067643Y-19788092D02*
X30029929Y-19578568D01*
X30029929Y-19578568D02*
X29992215Y-19473806D01*
X29992215Y-19473806D02*
X29954501Y-19421425D01*
X29954501Y-19421425D02*
X29879072Y-19369044D01*
X28823072Y-20364283D02*
X28860786Y-20416664D01*
X28860786Y-20416664D02*
X28973929Y-20469044D01*
X28973929Y-20469044D02*
X29049357Y-20469044D01*
X29049357Y-20469044D02*
X29162500Y-20416664D01*
X29162500Y-20416664D02*
X29237929Y-20311902D01*
X29237929Y-20311902D02*
X29275643Y-20207140D01*
X29275643Y-20207140D02*
X29313357Y-19997616D01*
X29313357Y-19997616D02*
X29313357Y-19840473D01*
X29313357Y-19840473D02*
X29275643Y-19630949D01*
X29275643Y-19630949D02*
X29237929Y-19526187D01*
X29237929Y-19526187D02*
X29162500Y-19421425D01*
X29162500Y-19421425D02*
X29049357Y-19369044D01*
X29049357Y-19369044D02*
X28973929Y-19369044D01*
X28973929Y-19369044D02*
X28860786Y-19421425D01*
X28860786Y-19421425D02*
X28823072Y-19473806D01*
X28521357Y-20154759D02*
X28144215Y-20154759D01*
X28596786Y-20469044D02*
X28332786Y-19369044D01*
X28332786Y-19369044D02*
X28068786Y-20469044D01*
X27804786Y-20049997D02*
X27201358Y-20049997D01*
X26824215Y-20469044D02*
X26824215Y-19369044D01*
X26824215Y-19369044D02*
X26522501Y-19369044D01*
X26522501Y-19369044D02*
X26447072Y-19421425D01*
X26447072Y-19421425D02*
X26409358Y-19473806D01*
X26409358Y-19473806D02*
X26371644Y-19578568D01*
X26371644Y-19578568D02*
X26371644Y-19735711D01*
X26371644Y-19735711D02*
X26409358Y-19840473D01*
X26409358Y-19840473D02*
X26447072Y-19892854D01*
X26447072Y-19892854D02*
X26522501Y-19945235D01*
X26522501Y-19945235D02*
X26824215Y-19945235D01*
X25277929Y-19369044D02*
X25202500Y-19369044D01*
X25202500Y-19369044D02*
X25127072Y-19421425D01*
X25127072Y-19421425D02*
X25089358Y-19473806D01*
X25089358Y-19473806D02*
X25051643Y-19578568D01*
X25051643Y-19578568D02*
X25013929Y-19788092D01*
X25013929Y-19788092D02*
X25013929Y-20049997D01*
X25013929Y-20049997D02*
X25051643Y-20259521D01*
X25051643Y-20259521D02*
X25089358Y-20364283D01*
X25089358Y-20364283D02*
X25127072Y-20416664D01*
X25127072Y-20416664D02*
X25202500Y-20469044D01*
X25202500Y-20469044D02*
X25277929Y-20469044D01*
X25277929Y-20469044D02*
X25353358Y-20416664D01*
X25353358Y-20416664D02*
X25391072Y-20364283D01*
X25391072Y-20364283D02*
X25428786Y-20259521D01*
X25428786Y-20259521D02*
X25466500Y-20049997D01*
X25466500Y-20049997D02*
X25466500Y-19788092D01*
X25466500Y-19788092D02*
X25428786Y-19578568D01*
X25428786Y-19578568D02*
X25391072Y-19473806D01*
X25391072Y-19473806D02*
X25353358Y-19421425D01*
X25353358Y-19421425D02*
X25277929Y-19369044D01*
X24674500Y-20364283D02*
X24636786Y-20416664D01*
X24636786Y-20416664D02*
X24674500Y-20469044D01*
X24674500Y-20469044D02*
X24712214Y-20416664D01*
X24712214Y-20416664D02*
X24674500Y-20364283D01*
X24674500Y-20364283D02*
X24674500Y-20469044D01*
X24372786Y-19369044D02*
X23844786Y-19369044D01*
X23844786Y-19369044D02*
X24184214Y-20469044D01*
X23203643Y-19369044D02*
X23354500Y-19369044D01*
X23354500Y-19369044D02*
X23429928Y-19421425D01*
X23429928Y-19421425D02*
X23467643Y-19473806D01*
X23467643Y-19473806D02*
X23543071Y-19630949D01*
X23543071Y-19630949D02*
X23580785Y-19840473D01*
X23580785Y-19840473D02*
X23580785Y-20259521D01*
X23580785Y-20259521D02*
X23543071Y-20364283D01*
X23543071Y-20364283D02*
X23505357Y-20416664D01*
X23505357Y-20416664D02*
X23429928Y-20469044D01*
X23429928Y-20469044D02*
X23279071Y-20469044D01*
X23279071Y-20469044D02*
X23203643Y-20416664D01*
X23203643Y-20416664D02*
X23165928Y-20364283D01*
X23165928Y-20364283D02*
X23128214Y-20259521D01*
X23128214Y-20259521D02*
X23128214Y-19997616D01*
X23128214Y-19997616D02*
X23165928Y-19892854D01*
X23165928Y-19892854D02*
X23203643Y-19840473D01*
X23203643Y-19840473D02*
X23279071Y-19788092D01*
X23279071Y-19788092D02*
X23429928Y-19788092D01*
X23429928Y-19788092D02*
X23505357Y-19840473D01*
X23505357Y-19840473D02*
X23543071Y-19892854D01*
X23543071Y-19892854D02*
X23580785Y-19997616D01*
X22185356Y-20469044D02*
X22185356Y-19735711D01*
X22185356Y-19840473D02*
X22147642Y-19788092D01*
X22147642Y-19788092D02*
X22072213Y-19735711D01*
X22072213Y-19735711D02*
X21959070Y-19735711D01*
X21959070Y-19735711D02*
X21883642Y-19788092D01*
X21883642Y-19788092D02*
X21845928Y-19892854D01*
X21845928Y-19892854D02*
X21845928Y-20469044D01*
X21845928Y-19892854D02*
X21808213Y-19788092D01*
X21808213Y-19788092D02*
X21732785Y-19735711D01*
X21732785Y-19735711D02*
X21619642Y-19735711D01*
X21619642Y-19735711D02*
X21544213Y-19788092D01*
X21544213Y-19788092D02*
X21506499Y-19892854D01*
X21506499Y-19892854D02*
X21506499Y-20469044D01*
X21129356Y-20469044D02*
X21129356Y-19735711D01*
X21129356Y-19840473D02*
X21091642Y-19788092D01*
X21091642Y-19788092D02*
X21016213Y-19735711D01*
X21016213Y-19735711D02*
X20903070Y-19735711D01*
X20903070Y-19735711D02*
X20827642Y-19788092D01*
X20827642Y-19788092D02*
X20789928Y-19892854D01*
X20789928Y-19892854D02*
X20789928Y-20469044D01*
X20789928Y-19892854D02*
X20752213Y-19788092D01*
X20752213Y-19788092D02*
X20676785Y-19735711D01*
X20676785Y-19735711D02*
X20563642Y-19735711D01*
X20563642Y-19735711D02*
X20488213Y-19788092D01*
X20488213Y-19788092D02*
X20450499Y-19892854D01*
X20450499Y-19892854D02*
X20450499Y-20469044D01*
X18904213Y-19316664D02*
X19583070Y-20730949D01*
X18074498Y-19473806D02*
X18036784Y-19421425D01*
X18036784Y-19421425D02*
X17961356Y-19369044D01*
X17961356Y-19369044D02*
X17772784Y-19369044D01*
X17772784Y-19369044D02*
X17697356Y-19421425D01*
X17697356Y-19421425D02*
X17659641Y-19473806D01*
X17659641Y-19473806D02*
X17621927Y-19578568D01*
X17621927Y-19578568D02*
X17621927Y-19683330D01*
X17621927Y-19683330D02*
X17659641Y-19840473D01*
X17659641Y-19840473D02*
X18112213Y-20469044D01*
X18112213Y-20469044D02*
X17621927Y-20469044D01*
X16905355Y-20469044D02*
X17282498Y-20469044D01*
X17282498Y-20469044D02*
X17282498Y-19369044D01*
X15472212Y-19316664D02*
X16151069Y-20730949D01*
X14642497Y-20154759D02*
X14265355Y-20154759D01*
X14717926Y-20469044D02*
X14453926Y-19369044D01*
X14453926Y-19369044D02*
X14189926Y-20469044D01*
X13586498Y-19735711D02*
X13586498Y-20626187D01*
X13586498Y-20626187D02*
X13624212Y-20730949D01*
X13624212Y-20730949D02*
X13661926Y-20783330D01*
X13661926Y-20783330D02*
X13737355Y-20835711D01*
X13737355Y-20835711D02*
X13850498Y-20835711D01*
X13850498Y-20835711D02*
X13925926Y-20783330D01*
X13586498Y-20416664D02*
X13661926Y-20469044D01*
X13661926Y-20469044D02*
X13812783Y-20469044D01*
X13812783Y-20469044D02*
X13888212Y-20416664D01*
X13888212Y-20416664D02*
X13925926Y-20364283D01*
X13925926Y-20364283D02*
X13963640Y-20259521D01*
X13963640Y-20259521D02*
X13963640Y-19945235D01*
X13963640Y-19945235D02*
X13925926Y-19840473D01*
X13925926Y-19840473D02*
X13888212Y-19788092D01*
X13888212Y-19788092D02*
X13812783Y-19735711D01*
X13812783Y-19735711D02*
X13661926Y-19735711D01*
X13661926Y-19735711D02*
X13586498Y-19788092D01*
X30557928Y-22592854D02*
X30444785Y-22645235D01*
X30444785Y-22645235D02*
X30407071Y-22697616D01*
X30407071Y-22697616D02*
X30369357Y-22802378D01*
X30369357Y-22802378D02*
X30369357Y-22959521D01*
X30369357Y-22959521D02*
X30407071Y-23064283D01*
X30407071Y-23064283D02*
X30444785Y-23116664D01*
X30444785Y-23116664D02*
X30520214Y-23169044D01*
X30520214Y-23169044D02*
X30821928Y-23169044D01*
X30821928Y-23169044D02*
X30821928Y-22069044D01*
X30821928Y-22069044D02*
X30557928Y-22069044D01*
X30557928Y-22069044D02*
X30482500Y-22121425D01*
X30482500Y-22121425D02*
X30444785Y-22173806D01*
X30444785Y-22173806D02*
X30407071Y-22278568D01*
X30407071Y-22278568D02*
X30407071Y-22383330D01*
X30407071Y-22383330D02*
X30444785Y-22488092D01*
X30444785Y-22488092D02*
X30482500Y-22540473D01*
X30482500Y-22540473D02*
X30557928Y-22592854D01*
X30557928Y-22592854D02*
X30821928Y-22592854D01*
X29879071Y-22069044D02*
X29728214Y-22069044D01*
X29728214Y-22069044D02*
X29652785Y-22121425D01*
X29652785Y-22121425D02*
X29577357Y-22226187D01*
X29577357Y-22226187D02*
X29539642Y-22435711D01*
X29539642Y-22435711D02*
X29539642Y-22802378D01*
X29539642Y-22802378D02*
X29577357Y-23011902D01*
X29577357Y-23011902D02*
X29652785Y-23116664D01*
X29652785Y-23116664D02*
X29728214Y-23169044D01*
X29728214Y-23169044D02*
X29879071Y-23169044D01*
X29879071Y-23169044D02*
X29954500Y-23116664D01*
X29954500Y-23116664D02*
X30029928Y-23011902D01*
X30029928Y-23011902D02*
X30067642Y-22802378D01*
X30067642Y-22802378D02*
X30067642Y-22435711D01*
X30067642Y-22435711D02*
X30029928Y-22226187D01*
X30029928Y-22226187D02*
X29954500Y-22121425D01*
X29954500Y-22121425D02*
X29879071Y-22069044D01*
X29200214Y-23169044D02*
X29200214Y-22069044D01*
X29200214Y-22069044D02*
X28747643Y-23169044D01*
X28747643Y-23169044D02*
X28747643Y-22069044D01*
X28370500Y-23169044D02*
X28370500Y-22069044D01*
X28370500Y-22069044D02*
X28181929Y-22069044D01*
X28181929Y-22069044D02*
X28068786Y-22121425D01*
X28068786Y-22121425D02*
X27993357Y-22226187D01*
X27993357Y-22226187D02*
X27955643Y-22330949D01*
X27955643Y-22330949D02*
X27917929Y-22540473D01*
X27917929Y-22540473D02*
X27917929Y-22697616D01*
X27917929Y-22697616D02*
X27955643Y-22907140D01*
X27955643Y-22907140D02*
X27993357Y-23011902D01*
X27993357Y-23011902D02*
X28068786Y-23116664D01*
X28068786Y-23116664D02*
X28181929Y-23169044D01*
X28181929Y-23169044D02*
X28370500Y-23169044D01*
X27088214Y-22069044D02*
X26635643Y-22069044D01*
X26861928Y-23169044D02*
X26861928Y-22069044D01*
X26220785Y-22069044D02*
X26069928Y-22069044D01*
X26069928Y-22069044D02*
X25994499Y-22121425D01*
X25994499Y-22121425D02*
X25919071Y-22226187D01*
X25919071Y-22226187D02*
X25881356Y-22435711D01*
X25881356Y-22435711D02*
X25881356Y-22802378D01*
X25881356Y-22802378D02*
X25919071Y-23011902D01*
X25919071Y-23011902D02*
X25994499Y-23116664D01*
X25994499Y-23116664D02*
X26069928Y-23169044D01*
X26069928Y-23169044D02*
X26220785Y-23169044D01*
X26220785Y-23169044D02*
X26296214Y-23116664D01*
X26296214Y-23116664D02*
X26371642Y-23011902D01*
X26371642Y-23011902D02*
X26409356Y-22802378D01*
X26409356Y-22802378D02*
X26409356Y-22435711D01*
X26409356Y-22435711D02*
X26371642Y-22226187D01*
X26371642Y-22226187D02*
X26296214Y-22121425D01*
X26296214Y-22121425D02*
X26220785Y-22069044D01*
X24523642Y-22121425D02*
X24599071Y-22069044D01*
X24599071Y-22069044D02*
X24712213Y-22069044D01*
X24712213Y-22069044D02*
X24825356Y-22121425D01*
X24825356Y-22121425D02*
X24900785Y-22226187D01*
X24900785Y-22226187D02*
X24938499Y-22330949D01*
X24938499Y-22330949D02*
X24976213Y-22540473D01*
X24976213Y-22540473D02*
X24976213Y-22697616D01*
X24976213Y-22697616D02*
X24938499Y-22907140D01*
X24938499Y-22907140D02*
X24900785Y-23011902D01*
X24900785Y-23011902D02*
X24825356Y-23116664D01*
X24825356Y-23116664D02*
X24712213Y-23169044D01*
X24712213Y-23169044D02*
X24636785Y-23169044D01*
X24636785Y-23169044D02*
X24523642Y-23116664D01*
X24523642Y-23116664D02*
X24485928Y-23064283D01*
X24485928Y-23064283D02*
X24485928Y-22697616D01*
X24485928Y-22697616D02*
X24636785Y-22697616D01*
X23693928Y-23169044D02*
X23957928Y-22645235D01*
X24146499Y-23169044D02*
X24146499Y-22069044D01*
X24146499Y-22069044D02*
X23844785Y-22069044D01*
X23844785Y-22069044D02*
X23769356Y-22121425D01*
X23769356Y-22121425D02*
X23731642Y-22173806D01*
X23731642Y-22173806D02*
X23693928Y-22278568D01*
X23693928Y-22278568D02*
X23693928Y-22435711D01*
X23693928Y-22435711D02*
X23731642Y-22540473D01*
X23731642Y-22540473D02*
X23769356Y-22592854D01*
X23769356Y-22592854D02*
X23844785Y-22645235D01*
X23844785Y-22645235D02*
X24146499Y-22645235D01*
X23203642Y-22069044D02*
X23052785Y-22069044D01*
X23052785Y-22069044D02*
X22977356Y-22121425D01*
X22977356Y-22121425D02*
X22901928Y-22226187D01*
X22901928Y-22226187D02*
X22864213Y-22435711D01*
X22864213Y-22435711D02*
X22864213Y-22802378D01*
X22864213Y-22802378D02*
X22901928Y-23011902D01*
X22901928Y-23011902D02*
X22977356Y-23116664D01*
X22977356Y-23116664D02*
X23052785Y-23169044D01*
X23052785Y-23169044D02*
X23203642Y-23169044D01*
X23203642Y-23169044D02*
X23279071Y-23116664D01*
X23279071Y-23116664D02*
X23354499Y-23011902D01*
X23354499Y-23011902D02*
X23392213Y-22802378D01*
X23392213Y-22802378D02*
X23392213Y-22435711D01*
X23392213Y-22435711D02*
X23354499Y-22226187D01*
X23354499Y-22226187D02*
X23279071Y-22121425D01*
X23279071Y-22121425D02*
X23203642Y-22069044D01*
X22524785Y-22069044D02*
X22524785Y-22959521D01*
X22524785Y-22959521D02*
X22487071Y-23064283D01*
X22487071Y-23064283D02*
X22449357Y-23116664D01*
X22449357Y-23116664D02*
X22373928Y-23169044D01*
X22373928Y-23169044D02*
X22223071Y-23169044D01*
X22223071Y-23169044D02*
X22147642Y-23116664D01*
X22147642Y-23116664D02*
X22109928Y-23064283D01*
X22109928Y-23064283D02*
X22072214Y-22959521D01*
X22072214Y-22959521D02*
X22072214Y-22069044D01*
X21695071Y-23169044D02*
X21695071Y-22069044D01*
X21695071Y-22069044D02*
X21242500Y-23169044D01*
X21242500Y-23169044D02*
X21242500Y-22069044D01*
X20865357Y-23169044D02*
X20865357Y-22069044D01*
X20865357Y-22069044D02*
X20676786Y-22069044D01*
X20676786Y-22069044D02*
X20563643Y-22121425D01*
X20563643Y-22121425D02*
X20488214Y-22226187D01*
X20488214Y-22226187D02*
X20450500Y-22330949D01*
X20450500Y-22330949D02*
X20412786Y-22540473D01*
X20412786Y-22540473D02*
X20412786Y-22697616D01*
X20412786Y-22697616D02*
X20450500Y-22907140D01*
X20450500Y-22907140D02*
X20488214Y-23011902D01*
X20488214Y-23011902D02*
X20563643Y-23116664D01*
X20563643Y-23116664D02*
X20676786Y-23169044D01*
X20676786Y-23169044D02*
X20865357Y-23169044D01*
X19469928Y-23169044D02*
X19469928Y-22069044D01*
X19469928Y-22069044D02*
X19168214Y-22069044D01*
X19168214Y-22069044D02*
X19092785Y-22121425D01*
X19092785Y-22121425D02*
X19055071Y-22173806D01*
X19055071Y-22173806D02*
X19017357Y-22278568D01*
X19017357Y-22278568D02*
X19017357Y-22435711D01*
X19017357Y-22435711D02*
X19055071Y-22540473D01*
X19055071Y-22540473D02*
X19092785Y-22592854D01*
X19092785Y-22592854D02*
X19168214Y-22645235D01*
X19168214Y-22645235D02*
X19469928Y-22645235D01*
X18300785Y-23169044D02*
X18677928Y-23169044D01*
X18677928Y-23169044D02*
X18677928Y-22069044D01*
X18074499Y-22854759D02*
X17697357Y-22854759D01*
X18149928Y-23169044D02*
X17885928Y-22069044D01*
X17885928Y-22069044D02*
X17621928Y-23169044D01*
X17471071Y-22069044D02*
X17018500Y-22069044D01*
X17244785Y-23169044D02*
X17244785Y-22069044D01*
X16754499Y-22592854D02*
X16490499Y-22592854D01*
X16377356Y-23169044D02*
X16754499Y-23169044D01*
X16754499Y-23169044D02*
X16754499Y-22069044D01*
X16754499Y-22069044D02*
X16377356Y-22069044D01*
X31538500Y-24873806D02*
X31500786Y-24821425D01*
X31500786Y-24821425D02*
X31425358Y-24769044D01*
X31425358Y-24769044D02*
X31236786Y-24769044D01*
X31236786Y-24769044D02*
X31161358Y-24821425D01*
X31161358Y-24821425D02*
X31123643Y-24873806D01*
X31123643Y-24873806D02*
X31085929Y-24978568D01*
X31085929Y-24978568D02*
X31085929Y-25083330D01*
X31085929Y-25083330D02*
X31123643Y-25240473D01*
X31123643Y-25240473D02*
X31576215Y-25869044D01*
X31576215Y-25869044D02*
X31085929Y-25869044D01*
X30369357Y-24769044D02*
X30746500Y-24769044D01*
X30746500Y-24769044D02*
X30784214Y-25292854D01*
X30784214Y-25292854D02*
X30746500Y-25240473D01*
X30746500Y-25240473D02*
X30671072Y-25188092D01*
X30671072Y-25188092D02*
X30482500Y-25188092D01*
X30482500Y-25188092D02*
X30407072Y-25240473D01*
X30407072Y-25240473D02*
X30369357Y-25292854D01*
X30369357Y-25292854D02*
X30331643Y-25397616D01*
X30331643Y-25397616D02*
X30331643Y-25659521D01*
X30331643Y-25659521D02*
X30369357Y-25764283D01*
X30369357Y-25764283D02*
X30407072Y-25816664D01*
X30407072Y-25816664D02*
X30482500Y-25869044D01*
X30482500Y-25869044D02*
X30671072Y-25869044D01*
X30671072Y-25869044D02*
X30746500Y-25816664D01*
X30746500Y-25816664D02*
X30784214Y-25764283D01*
X29388785Y-25869044D02*
X29388785Y-25135711D01*
X29388785Y-25240473D02*
X29351071Y-25188092D01*
X29351071Y-25188092D02*
X29275642Y-25135711D01*
X29275642Y-25135711D02*
X29162499Y-25135711D01*
X29162499Y-25135711D02*
X29087071Y-25188092D01*
X29087071Y-25188092D02*
X29049357Y-25292854D01*
X29049357Y-25292854D02*
X29049357Y-25869044D01*
X29049357Y-25292854D02*
X29011642Y-25188092D01*
X29011642Y-25188092D02*
X28936214Y-25135711D01*
X28936214Y-25135711D02*
X28823071Y-25135711D01*
X28823071Y-25135711D02*
X28747642Y-25188092D01*
X28747642Y-25188092D02*
X28709928Y-25292854D01*
X28709928Y-25292854D02*
X28709928Y-25869044D01*
X28332785Y-25869044D02*
X28332785Y-25135711D01*
X28332785Y-25240473D02*
X28295071Y-25188092D01*
X28295071Y-25188092D02*
X28219642Y-25135711D01*
X28219642Y-25135711D02*
X28106499Y-25135711D01*
X28106499Y-25135711D02*
X28031071Y-25188092D01*
X28031071Y-25188092D02*
X27993357Y-25292854D01*
X27993357Y-25292854D02*
X27993357Y-25869044D01*
X27993357Y-25292854D02*
X27955642Y-25188092D01*
X27955642Y-25188092D02*
X27880214Y-25135711D01*
X27880214Y-25135711D02*
X27767071Y-25135711D01*
X27767071Y-25135711D02*
X27691642Y-25188092D01*
X27691642Y-25188092D02*
X27653928Y-25292854D01*
X27653928Y-25292854D02*
X27653928Y-25869044D01*
X26673356Y-25869044D02*
X26673356Y-24769044D01*
X26673356Y-24769044D02*
X26371642Y-24769044D01*
X26371642Y-24769044D02*
X26296213Y-24821425D01*
X26296213Y-24821425D02*
X26258499Y-24873806D01*
X26258499Y-24873806D02*
X26220785Y-24978568D01*
X26220785Y-24978568D02*
X26220785Y-25135711D01*
X26220785Y-25135711D02*
X26258499Y-25240473D01*
X26258499Y-25240473D02*
X26296213Y-25292854D01*
X26296213Y-25292854D02*
X26371642Y-25345235D01*
X26371642Y-25345235D02*
X26673356Y-25345235D01*
X25919070Y-25554759D02*
X25541928Y-25554759D01*
X25994499Y-25869044D02*
X25730499Y-24769044D01*
X25730499Y-24769044D02*
X25466499Y-25869044D01*
X25240213Y-25816664D02*
X25127071Y-25869044D01*
X25127071Y-25869044D02*
X24938499Y-25869044D01*
X24938499Y-25869044D02*
X24863071Y-25816664D01*
X24863071Y-25816664D02*
X24825356Y-25764283D01*
X24825356Y-25764283D02*
X24787642Y-25659521D01*
X24787642Y-25659521D02*
X24787642Y-25554759D01*
X24787642Y-25554759D02*
X24825356Y-25449997D01*
X24825356Y-25449997D02*
X24863071Y-25397616D01*
X24863071Y-25397616D02*
X24938499Y-25345235D01*
X24938499Y-25345235D02*
X25089356Y-25292854D01*
X25089356Y-25292854D02*
X25164785Y-25240473D01*
X25164785Y-25240473D02*
X25202499Y-25188092D01*
X25202499Y-25188092D02*
X25240213Y-25083330D01*
X25240213Y-25083330D02*
X25240213Y-24978568D01*
X25240213Y-24978568D02*
X25202499Y-24873806D01*
X25202499Y-24873806D02*
X25164785Y-24821425D01*
X25164785Y-24821425D02*
X25089356Y-24769044D01*
X25089356Y-24769044D02*
X24900785Y-24769044D01*
X24900785Y-24769044D02*
X24787642Y-24821425D01*
X24561356Y-24769044D02*
X24108785Y-24769044D01*
X24335070Y-25869044D02*
X24335070Y-24769044D01*
X23241355Y-25292854D02*
X22977355Y-25292854D01*
X22864212Y-25869044D02*
X23241355Y-25869044D01*
X23241355Y-25869044D02*
X23241355Y-24769044D01*
X23241355Y-24769044D02*
X22864212Y-24769044D01*
X22637927Y-24769044D02*
X22373927Y-25869044D01*
X22373927Y-25869044D02*
X22109927Y-24769044D01*
X21845927Y-25292854D02*
X21581927Y-25292854D01*
X21468784Y-25869044D02*
X21845927Y-25869044D01*
X21845927Y-25869044D02*
X21845927Y-24769044D01*
X21845927Y-24769044D02*
X21468784Y-24769044D01*
X20676785Y-25869044D02*
X20940785Y-25345235D01*
X21129356Y-25869044D02*
X21129356Y-24769044D01*
X21129356Y-24769044D02*
X20827642Y-24769044D01*
X20827642Y-24769044D02*
X20752213Y-24821425D01*
X20752213Y-24821425D02*
X20714499Y-24873806D01*
X20714499Y-24873806D02*
X20676785Y-24978568D01*
X20676785Y-24978568D02*
X20676785Y-25135711D01*
X20676785Y-25135711D02*
X20714499Y-25240473D01*
X20714499Y-25240473D02*
X20752213Y-25292854D01*
X20752213Y-25292854D02*
X20827642Y-25345235D01*
X20827642Y-25345235D02*
X21129356Y-25345235D01*
X20186499Y-25345235D02*
X20186499Y-25869044D01*
X20450499Y-24769044D02*
X20186499Y-25345235D01*
X20186499Y-25345235D02*
X19922499Y-24769044D01*
X19055070Y-25869044D02*
X19055070Y-24769044D01*
X19055070Y-24769044D02*
X18753356Y-24769044D01*
X18753356Y-24769044D02*
X18677927Y-24821425D01*
X18677927Y-24821425D02*
X18640213Y-24873806D01*
X18640213Y-24873806D02*
X18602499Y-24978568D01*
X18602499Y-24978568D02*
X18602499Y-25135711D01*
X18602499Y-25135711D02*
X18640213Y-25240473D01*
X18640213Y-25240473D02*
X18677927Y-25292854D01*
X18677927Y-25292854D02*
X18753356Y-25345235D01*
X18753356Y-25345235D02*
X19055070Y-25345235D01*
X18300784Y-25554759D02*
X17923642Y-25554759D01*
X18376213Y-25869044D02*
X18112213Y-24769044D01*
X18112213Y-24769044D02*
X17848213Y-25869044D01*
X17697356Y-24769044D02*
X17244785Y-24769044D01*
X17471070Y-25869044D02*
X17471070Y-24769044D01*
X16528213Y-25764283D02*
X16565927Y-25816664D01*
X16565927Y-25816664D02*
X16679070Y-25869044D01*
X16679070Y-25869044D02*
X16754498Y-25869044D01*
X16754498Y-25869044D02*
X16867641Y-25816664D01*
X16867641Y-25816664D02*
X16943070Y-25711902D01*
X16943070Y-25711902D02*
X16980784Y-25607140D01*
X16980784Y-25607140D02*
X17018498Y-25397616D01*
X17018498Y-25397616D02*
X17018498Y-25240473D01*
X17018498Y-25240473D02*
X16980784Y-25030949D01*
X16980784Y-25030949D02*
X16943070Y-24926187D01*
X16943070Y-24926187D02*
X16867641Y-24821425D01*
X16867641Y-24821425D02*
X16754498Y-24769044D01*
X16754498Y-24769044D02*
X16679070Y-24769044D01*
X16679070Y-24769044D02*
X16565927Y-24821425D01*
X16565927Y-24821425D02*
X16528213Y-24873806D01*
X16188784Y-25869044D02*
X16188784Y-24769044D01*
X16188784Y-25292854D02*
X15736213Y-25292854D01*
X15736213Y-25869044D02*
X15736213Y-24769044D01*
X31576214Y-28569044D02*
X31576214Y-27469044D01*
X31576214Y-27469044D02*
X31312214Y-28254759D01*
X31312214Y-28254759D02*
X31048214Y-27469044D01*
X31048214Y-27469044D02*
X31048214Y-28569044D01*
X30520214Y-27469044D02*
X30369357Y-27469044D01*
X30369357Y-27469044D02*
X30293928Y-27521425D01*
X30293928Y-27521425D02*
X30218500Y-27626187D01*
X30218500Y-27626187D02*
X30180785Y-27835711D01*
X30180785Y-27835711D02*
X30180785Y-28202378D01*
X30180785Y-28202378D02*
X30218500Y-28411902D01*
X30218500Y-28411902D02*
X30293928Y-28516664D01*
X30293928Y-28516664D02*
X30369357Y-28569044D01*
X30369357Y-28569044D02*
X30520214Y-28569044D01*
X30520214Y-28569044D02*
X30595643Y-28516664D01*
X30595643Y-28516664D02*
X30671071Y-28411902D01*
X30671071Y-28411902D02*
X30708785Y-28202378D01*
X30708785Y-28202378D02*
X30708785Y-27835711D01*
X30708785Y-27835711D02*
X30671071Y-27626187D01*
X30671071Y-27626187D02*
X30595643Y-27521425D01*
X30595643Y-27521425D02*
X30520214Y-27469044D01*
X29841357Y-27469044D02*
X29841357Y-28359521D01*
X29841357Y-28359521D02*
X29803643Y-28464283D01*
X29803643Y-28464283D02*
X29765929Y-28516664D01*
X29765929Y-28516664D02*
X29690500Y-28569044D01*
X29690500Y-28569044D02*
X29539643Y-28569044D01*
X29539643Y-28569044D02*
X29464214Y-28516664D01*
X29464214Y-28516664D02*
X29426500Y-28464283D01*
X29426500Y-28464283D02*
X29388786Y-28359521D01*
X29388786Y-28359521D02*
X29388786Y-27469044D01*
X29011643Y-28569044D02*
X29011643Y-27469044D01*
X29011643Y-27469044D02*
X28559072Y-28569044D01*
X28559072Y-28569044D02*
X28559072Y-27469044D01*
X28295072Y-27469044D02*
X27842501Y-27469044D01*
X28068786Y-28569044D02*
X28068786Y-27469044D01*
X26975071Y-27835711D02*
X26371643Y-28149997D01*
X26371643Y-28149997D02*
X26975071Y-28464283D01*
X25994500Y-27992854D02*
X25391072Y-27992854D01*
X25391072Y-28307140D02*
X25994500Y-28307140D01*
X24448214Y-27573806D02*
X24410500Y-27521425D01*
X24410500Y-27521425D02*
X24335072Y-27469044D01*
X24335072Y-27469044D02*
X24146500Y-27469044D01*
X24146500Y-27469044D02*
X24071072Y-27521425D01*
X24071072Y-27521425D02*
X24033357Y-27573806D01*
X24033357Y-27573806D02*
X23995643Y-27678568D01*
X23995643Y-27678568D02*
X23995643Y-27783330D01*
X23995643Y-27783330D02*
X24033357Y-27940473D01*
X24033357Y-27940473D02*
X24485929Y-28569044D01*
X24485929Y-28569044D02*
X23995643Y-28569044D01*
X23505357Y-27469044D02*
X23429928Y-27469044D01*
X23429928Y-27469044D02*
X23354500Y-27521425D01*
X23354500Y-27521425D02*
X23316786Y-27573806D01*
X23316786Y-27573806D02*
X23279071Y-27678568D01*
X23279071Y-27678568D02*
X23241357Y-27888092D01*
X23241357Y-27888092D02*
X23241357Y-28149997D01*
X23241357Y-28149997D02*
X23279071Y-28359521D01*
X23279071Y-28359521D02*
X23316786Y-28464283D01*
X23316786Y-28464283D02*
X23354500Y-28516664D01*
X23354500Y-28516664D02*
X23429928Y-28569044D01*
X23429928Y-28569044D02*
X23505357Y-28569044D01*
X23505357Y-28569044D02*
X23580786Y-28516664D01*
X23580786Y-28516664D02*
X23618500Y-28464283D01*
X23618500Y-28464283D02*
X23656214Y-28359521D01*
X23656214Y-28359521D02*
X23693928Y-28149997D01*
X23693928Y-28149997D02*
X23693928Y-27888092D01*
X23693928Y-27888092D02*
X23656214Y-27678568D01*
X23656214Y-27678568D02*
X23618500Y-27573806D01*
X23618500Y-27573806D02*
X23580786Y-27521425D01*
X23580786Y-27521425D02*
X23505357Y-27469044D01*
X22751071Y-27469044D02*
X22675642Y-27469044D01*
X22675642Y-27469044D02*
X22600214Y-27521425D01*
X22600214Y-27521425D02*
X22562500Y-27573806D01*
X22562500Y-27573806D02*
X22524785Y-27678568D01*
X22524785Y-27678568D02*
X22487071Y-27888092D01*
X22487071Y-27888092D02*
X22487071Y-28149997D01*
X22487071Y-28149997D02*
X22524785Y-28359521D01*
X22524785Y-28359521D02*
X22562500Y-28464283D01*
X22562500Y-28464283D02*
X22600214Y-28516664D01*
X22600214Y-28516664D02*
X22675642Y-28569044D01*
X22675642Y-28569044D02*
X22751071Y-28569044D01*
X22751071Y-28569044D02*
X22826500Y-28516664D01*
X22826500Y-28516664D02*
X22864214Y-28464283D01*
X22864214Y-28464283D02*
X22901928Y-28359521D01*
X22901928Y-28359521D02*
X22939642Y-28149997D01*
X22939642Y-28149997D02*
X22939642Y-27888092D01*
X22939642Y-27888092D02*
X22901928Y-27678568D01*
X22901928Y-27678568D02*
X22864214Y-27573806D01*
X22864214Y-27573806D02*
X22826500Y-27521425D01*
X22826500Y-27521425D02*
X22751071Y-27469044D01*
X21544213Y-28569044D02*
X21544213Y-27835711D01*
X21544213Y-27940473D02*
X21506499Y-27888092D01*
X21506499Y-27888092D02*
X21431070Y-27835711D01*
X21431070Y-27835711D02*
X21317927Y-27835711D01*
X21317927Y-27835711D02*
X21242499Y-27888092D01*
X21242499Y-27888092D02*
X21204785Y-27992854D01*
X21204785Y-27992854D02*
X21204785Y-28569044D01*
X21204785Y-27992854D02*
X21167070Y-27888092D01*
X21167070Y-27888092D02*
X21091642Y-27835711D01*
X21091642Y-27835711D02*
X20978499Y-27835711D01*
X20978499Y-27835711D02*
X20903070Y-27888092D01*
X20903070Y-27888092D02*
X20865356Y-27992854D01*
X20865356Y-27992854D02*
X20865356Y-28569044D01*
X20488213Y-28569044D02*
X20488213Y-27835711D01*
X20488213Y-27940473D02*
X20450499Y-27888092D01*
X20450499Y-27888092D02*
X20375070Y-27835711D01*
X20375070Y-27835711D02*
X20261927Y-27835711D01*
X20261927Y-27835711D02*
X20186499Y-27888092D01*
X20186499Y-27888092D02*
X20148785Y-27992854D01*
X20148785Y-27992854D02*
X20148785Y-28569044D01*
X20148785Y-27992854D02*
X20111070Y-27888092D01*
X20111070Y-27888092D02*
X20035642Y-27835711D01*
X20035642Y-27835711D02*
X19922499Y-27835711D01*
X19922499Y-27835711D02*
X19847070Y-27888092D01*
X19847070Y-27888092D02*
X19809356Y-27992854D01*
X19809356Y-27992854D02*
X19809356Y-28569044D01*
X18866498Y-28254759D02*
X18489356Y-28254759D01*
X18941927Y-28569044D02*
X18677927Y-27469044D01*
X18677927Y-27469044D02*
X18413927Y-28569044D01*
X18149927Y-28569044D02*
X18149927Y-27469044D01*
X18149927Y-27469044D02*
X17848213Y-27469044D01*
X17848213Y-27469044D02*
X17772784Y-27521425D01*
X17772784Y-27521425D02*
X17735070Y-27573806D01*
X17735070Y-27573806D02*
X17697356Y-27678568D01*
X17697356Y-27678568D02*
X17697356Y-27835711D01*
X17697356Y-27835711D02*
X17735070Y-27940473D01*
X17735070Y-27940473D02*
X17772784Y-27992854D01*
X17772784Y-27992854D02*
X17848213Y-28045235D01*
X17848213Y-28045235D02*
X18149927Y-28045235D01*
X17395641Y-28254759D02*
X17018499Y-28254759D01*
X17471070Y-28569044D02*
X17207070Y-27469044D01*
X17207070Y-27469044D02*
X16943070Y-28569044D01*
X16226499Y-28569044D02*
X16490499Y-28045235D01*
X16679070Y-28569044D02*
X16679070Y-27469044D01*
X16679070Y-27469044D02*
X16377356Y-27469044D01*
X16377356Y-27469044D02*
X16301927Y-27521425D01*
X16301927Y-27521425D02*
X16264213Y-27573806D01*
X16264213Y-27573806D02*
X16226499Y-27678568D01*
X16226499Y-27678568D02*
X16226499Y-27835711D01*
X16226499Y-27835711D02*
X16264213Y-27940473D01*
X16264213Y-27940473D02*
X16301927Y-27992854D01*
X16301927Y-27992854D02*
X16377356Y-28045235D01*
X16377356Y-28045235D02*
X16679070Y-28045235D01*
X16000213Y-27469044D02*
X15547642Y-27469044D01*
X15773927Y-28569044D02*
X15773927Y-27469044D01*
X33480784Y-30954759D02*
X33103642Y-30954759D01*
X33556213Y-31269044D02*
X33292213Y-30169044D01*
X33292213Y-30169044D02*
X33028213Y-31269044D01*
X32500213Y-30692854D02*
X32387070Y-30745235D01*
X32387070Y-30745235D02*
X32349356Y-30797616D01*
X32349356Y-30797616D02*
X32311642Y-30902378D01*
X32311642Y-30902378D02*
X32311642Y-31059521D01*
X32311642Y-31059521D02*
X32349356Y-31164283D01*
X32349356Y-31164283D02*
X32387070Y-31216664D01*
X32387070Y-31216664D02*
X32462499Y-31269044D01*
X32462499Y-31269044D02*
X32764213Y-31269044D01*
X32764213Y-31269044D02*
X32764213Y-30169044D01*
X32764213Y-30169044D02*
X32500213Y-30169044D01*
X32500213Y-30169044D02*
X32424785Y-30221425D01*
X32424785Y-30221425D02*
X32387070Y-30273806D01*
X32387070Y-30273806D02*
X32349356Y-30378568D01*
X32349356Y-30378568D02*
X32349356Y-30483330D01*
X32349356Y-30483330D02*
X32387070Y-30588092D01*
X32387070Y-30588092D02*
X32424785Y-30640473D01*
X32424785Y-30640473D02*
X32500213Y-30692854D01*
X32500213Y-30692854D02*
X32764213Y-30692854D01*
X32009927Y-31216664D02*
X31896785Y-31269044D01*
X31896785Y-31269044D02*
X31708213Y-31269044D01*
X31708213Y-31269044D02*
X31632785Y-31216664D01*
X31632785Y-31216664D02*
X31595070Y-31164283D01*
X31595070Y-31164283D02*
X31557356Y-31059521D01*
X31557356Y-31059521D02*
X31557356Y-30954759D01*
X31557356Y-30954759D02*
X31595070Y-30849997D01*
X31595070Y-30849997D02*
X31632785Y-30797616D01*
X31632785Y-30797616D02*
X31708213Y-30745235D01*
X31708213Y-30745235D02*
X31859070Y-30692854D01*
X31859070Y-30692854D02*
X31934499Y-30640473D01*
X31934499Y-30640473D02*
X31972213Y-30588092D01*
X31972213Y-30588092D02*
X32009927Y-30483330D01*
X32009927Y-30483330D02*
X32009927Y-30378568D01*
X32009927Y-30378568D02*
X31972213Y-30273806D01*
X31972213Y-30273806D02*
X31934499Y-30221425D01*
X31934499Y-30221425D02*
X31859070Y-30169044D01*
X31859070Y-30169044D02*
X31670499Y-30169044D01*
X31670499Y-30169044D02*
X31557356Y-30221425D01*
X31067070Y-30169044D02*
X30916213Y-30169044D01*
X30916213Y-30169044D02*
X30840784Y-30221425D01*
X30840784Y-30221425D02*
X30765356Y-30326187D01*
X30765356Y-30326187D02*
X30727641Y-30535711D01*
X30727641Y-30535711D02*
X30727641Y-30902378D01*
X30727641Y-30902378D02*
X30765356Y-31111902D01*
X30765356Y-31111902D02*
X30840784Y-31216664D01*
X30840784Y-31216664D02*
X30916213Y-31269044D01*
X30916213Y-31269044D02*
X31067070Y-31269044D01*
X31067070Y-31269044D02*
X31142499Y-31216664D01*
X31142499Y-31216664D02*
X31217927Y-31111902D01*
X31217927Y-31111902D02*
X31255641Y-30902378D01*
X31255641Y-30902378D02*
X31255641Y-30535711D01*
X31255641Y-30535711D02*
X31217927Y-30326187D01*
X31217927Y-30326187D02*
X31142499Y-30221425D01*
X31142499Y-30221425D02*
X31067070Y-30169044D01*
X29935642Y-31269044D02*
X30199642Y-30745235D01*
X30388213Y-31269044D02*
X30388213Y-30169044D01*
X30388213Y-30169044D02*
X30086499Y-30169044D01*
X30086499Y-30169044D02*
X30011070Y-30221425D01*
X30011070Y-30221425D02*
X29973356Y-30273806D01*
X29973356Y-30273806D02*
X29935642Y-30378568D01*
X29935642Y-30378568D02*
X29935642Y-30535711D01*
X29935642Y-30535711D02*
X29973356Y-30640473D01*
X29973356Y-30640473D02*
X30011070Y-30692854D01*
X30011070Y-30692854D02*
X30086499Y-30745235D01*
X30086499Y-30745235D02*
X30388213Y-30745235D01*
X29332213Y-30692854D02*
X29219070Y-30745235D01*
X29219070Y-30745235D02*
X29181356Y-30797616D01*
X29181356Y-30797616D02*
X29143642Y-30902378D01*
X29143642Y-30902378D02*
X29143642Y-31059521D01*
X29143642Y-31059521D02*
X29181356Y-31164283D01*
X29181356Y-31164283D02*
X29219070Y-31216664D01*
X29219070Y-31216664D02*
X29294499Y-31269044D01*
X29294499Y-31269044D02*
X29596213Y-31269044D01*
X29596213Y-31269044D02*
X29596213Y-30169044D01*
X29596213Y-30169044D02*
X29332213Y-30169044D01*
X29332213Y-30169044D02*
X29256785Y-30221425D01*
X29256785Y-30221425D02*
X29219070Y-30273806D01*
X29219070Y-30273806D02*
X29181356Y-30378568D01*
X29181356Y-30378568D02*
X29181356Y-30483330D01*
X29181356Y-30483330D02*
X29219070Y-30588092D01*
X29219070Y-30588092D02*
X29256785Y-30640473D01*
X29256785Y-30640473D02*
X29332213Y-30692854D01*
X29332213Y-30692854D02*
X29596213Y-30692854D01*
X28804213Y-30692854D02*
X28540213Y-30692854D01*
X28427070Y-31269044D02*
X28804213Y-31269044D01*
X28804213Y-31269044D02*
X28804213Y-30169044D01*
X28804213Y-30169044D02*
X28427070Y-30169044D01*
X27635071Y-31269044D02*
X27899071Y-30745235D01*
X28087642Y-31269044D02*
X28087642Y-30169044D01*
X28087642Y-30169044D02*
X27785928Y-30169044D01*
X27785928Y-30169044D02*
X27710499Y-30221425D01*
X27710499Y-30221425D02*
X27672785Y-30273806D01*
X27672785Y-30273806D02*
X27635071Y-30378568D01*
X27635071Y-30378568D02*
X27635071Y-30535711D01*
X27635071Y-30535711D02*
X27672785Y-30640473D01*
X27672785Y-30640473D02*
X27710499Y-30692854D01*
X27710499Y-30692854D02*
X27785928Y-30745235D01*
X27785928Y-30745235D02*
X28087642Y-30745235D01*
X26428213Y-30692854D02*
X26315070Y-30745235D01*
X26315070Y-30745235D02*
X26277356Y-30797616D01*
X26277356Y-30797616D02*
X26239642Y-30902378D01*
X26239642Y-30902378D02*
X26239642Y-31059521D01*
X26239642Y-31059521D02*
X26277356Y-31164283D01*
X26277356Y-31164283D02*
X26315070Y-31216664D01*
X26315070Y-31216664D02*
X26390499Y-31269044D01*
X26390499Y-31269044D02*
X26692213Y-31269044D01*
X26692213Y-31269044D02*
X26692213Y-30169044D01*
X26692213Y-30169044D02*
X26428213Y-30169044D01*
X26428213Y-30169044D02*
X26352785Y-30221425D01*
X26352785Y-30221425D02*
X26315070Y-30273806D01*
X26315070Y-30273806D02*
X26277356Y-30378568D01*
X26277356Y-30378568D02*
X26277356Y-30483330D01*
X26277356Y-30483330D02*
X26315070Y-30588092D01*
X26315070Y-30588092D02*
X26352785Y-30640473D01*
X26352785Y-30640473D02*
X26428213Y-30692854D01*
X26428213Y-30692854D02*
X26692213Y-30692854D01*
X25900213Y-30692854D02*
X25636213Y-30692854D01*
X25523070Y-31269044D02*
X25900213Y-31269044D01*
X25900213Y-31269044D02*
X25900213Y-30169044D01*
X25900213Y-30169044D02*
X25523070Y-30169044D01*
X25296785Y-30169044D02*
X24844214Y-30169044D01*
X25070499Y-31269044D02*
X25070499Y-30169044D01*
X24655642Y-30169044D02*
X24467070Y-31269044D01*
X24467070Y-31269044D02*
X24316213Y-30483330D01*
X24316213Y-30483330D02*
X24165356Y-31269044D01*
X24165356Y-31269044D02*
X23976785Y-30169044D01*
X23675070Y-30692854D02*
X23411070Y-30692854D01*
X23297927Y-31269044D02*
X23675070Y-31269044D01*
X23675070Y-31269044D02*
X23675070Y-30169044D01*
X23675070Y-30169044D02*
X23297927Y-30169044D01*
X22958499Y-30692854D02*
X22694499Y-30692854D01*
X22581356Y-31269044D02*
X22958499Y-31269044D01*
X22958499Y-31269044D02*
X22958499Y-30169044D01*
X22958499Y-30169044D02*
X22581356Y-30169044D01*
X22241928Y-31269044D02*
X22241928Y-30169044D01*
X22241928Y-30169044D02*
X21789357Y-31269044D01*
X21789357Y-31269044D02*
X21789357Y-30169044D01*
X20921928Y-30169044D02*
X20469357Y-30169044D01*
X20695642Y-31269044D02*
X20695642Y-30169044D01*
X20205356Y-31269044D02*
X20205356Y-30169044D01*
X20205356Y-30692854D02*
X19752785Y-30692854D01*
X19752785Y-31269044D02*
X19752785Y-30169044D01*
X19375642Y-30692854D02*
X19111642Y-30692854D01*
X18998499Y-31269044D02*
X19375642Y-31269044D01*
X19375642Y-31269044D02*
X19375642Y-30169044D01*
X19375642Y-30169044D02*
X18998499Y-30169044D01*
X17791642Y-30692854D02*
X17678499Y-30745235D01*
X17678499Y-30745235D02*
X17640785Y-30797616D01*
X17640785Y-30797616D02*
X17603071Y-30902378D01*
X17603071Y-30902378D02*
X17603071Y-31059521D01*
X17603071Y-31059521D02*
X17640785Y-31164283D01*
X17640785Y-31164283D02*
X17678499Y-31216664D01*
X17678499Y-31216664D02*
X17753928Y-31269044D01*
X17753928Y-31269044D02*
X18055642Y-31269044D01*
X18055642Y-31269044D02*
X18055642Y-30169044D01*
X18055642Y-30169044D02*
X17791642Y-30169044D01*
X17791642Y-30169044D02*
X17716214Y-30221425D01*
X17716214Y-30221425D02*
X17678499Y-30273806D01*
X17678499Y-30273806D02*
X17640785Y-30378568D01*
X17640785Y-30378568D02*
X17640785Y-30483330D01*
X17640785Y-30483330D02*
X17678499Y-30588092D01*
X17678499Y-30588092D02*
X17716214Y-30640473D01*
X17716214Y-30640473D02*
X17791642Y-30692854D01*
X17791642Y-30692854D02*
X18055642Y-30692854D01*
X17112785Y-30169044D02*
X16961928Y-30169044D01*
X16961928Y-30169044D02*
X16886499Y-30221425D01*
X16886499Y-30221425D02*
X16811071Y-30326187D01*
X16811071Y-30326187D02*
X16773356Y-30535711D01*
X16773356Y-30535711D02*
X16773356Y-30902378D01*
X16773356Y-30902378D02*
X16811071Y-31111902D01*
X16811071Y-31111902D02*
X16886499Y-31216664D01*
X16886499Y-31216664D02*
X16961928Y-31269044D01*
X16961928Y-31269044D02*
X17112785Y-31269044D01*
X17112785Y-31269044D02*
X17188214Y-31216664D01*
X17188214Y-31216664D02*
X17263642Y-31111902D01*
X17263642Y-31111902D02*
X17301356Y-30902378D01*
X17301356Y-30902378D02*
X17301356Y-30535711D01*
X17301356Y-30535711D02*
X17263642Y-30326187D01*
X17263642Y-30326187D02*
X17188214Y-30221425D01*
X17188214Y-30221425D02*
X17112785Y-30169044D01*
X16471642Y-30954759D02*
X16094500Y-30954759D01*
X16547071Y-31269044D02*
X16283071Y-30169044D01*
X16283071Y-30169044D02*
X16019071Y-31269044D01*
X15302500Y-31269044D02*
X15566500Y-30745235D01*
X15755071Y-31269044D02*
X15755071Y-30169044D01*
X15755071Y-30169044D02*
X15453357Y-30169044D01*
X15453357Y-30169044D02*
X15377928Y-30221425D01*
X15377928Y-30221425D02*
X15340214Y-30273806D01*
X15340214Y-30273806D02*
X15302500Y-30378568D01*
X15302500Y-30378568D02*
X15302500Y-30535711D01*
X15302500Y-30535711D02*
X15340214Y-30640473D01*
X15340214Y-30640473D02*
X15377928Y-30692854D01*
X15377928Y-30692854D02*
X15453357Y-30745235D01*
X15453357Y-30745235D02*
X15755071Y-30745235D01*
X14963071Y-31269044D02*
X14963071Y-30169044D01*
X14963071Y-30169044D02*
X14774500Y-30169044D01*
X14774500Y-30169044D02*
X14661357Y-30221425D01*
X14661357Y-30221425D02*
X14585928Y-30326187D01*
X14585928Y-30326187D02*
X14548214Y-30430949D01*
X14548214Y-30430949D02*
X14510500Y-30640473D01*
X14510500Y-30640473D02*
X14510500Y-30797616D01*
X14510500Y-30797616D02*
X14548214Y-31007140D01*
X14548214Y-31007140D02*
X14585928Y-31111902D01*
X14585928Y-31111902D02*
X14661357Y-31216664D01*
X14661357Y-31216664D02*
X14774500Y-31269044D01*
X14774500Y-31269044D02*
X14963071Y-31269044D01*
X14208785Y-31216664D02*
X14095643Y-31269044D01*
X14095643Y-31269044D02*
X13907071Y-31269044D01*
X13907071Y-31269044D02*
X13831643Y-31216664D01*
X13831643Y-31216664D02*
X13793928Y-31164283D01*
X13793928Y-31164283D02*
X13756214Y-31059521D01*
X13756214Y-31059521D02*
X13756214Y-30954759D01*
X13756214Y-30954759D02*
X13793928Y-30849997D01*
X13793928Y-30849997D02*
X13831643Y-30797616D01*
X13831643Y-30797616D02*
X13907071Y-30745235D01*
X13907071Y-30745235D02*
X14057928Y-30692854D01*
X14057928Y-30692854D02*
X14133357Y-30640473D01*
X14133357Y-30640473D02*
X14171071Y-30588092D01*
X14171071Y-30588092D02*
X14208785Y-30483330D01*
X14208785Y-30483330D02*
X14208785Y-30378568D01*
X14208785Y-30378568D02*
X14171071Y-30273806D01*
X14171071Y-30273806D02*
X14133357Y-30221425D01*
X14133357Y-30221425D02*
X14057928Y-30169044D01*
X14057928Y-30169044D02*
X13869357Y-30169044D01*
X13869357Y-30169044D02*
X13756214Y-30221425D01*
D12*
X34480213Y-13196454D02*
X35028785Y-13196454D01*
X35028785Y-13196454D02*
X35083642Y-13958359D01*
X35083642Y-13958359D02*
X35028785Y-13882168D01*
X35028785Y-13882168D02*
X34919071Y-13805978D01*
X34919071Y-13805978D02*
X34644785Y-13805978D01*
X34644785Y-13805978D02*
X34535071Y-13882168D01*
X34535071Y-13882168D02*
X34480213Y-13958359D01*
X34480213Y-13958359D02*
X34425356Y-14110740D01*
X34425356Y-14110740D02*
X34425356Y-14491692D01*
X34425356Y-14491692D02*
X34480213Y-14644073D01*
X34480213Y-14644073D02*
X34535071Y-14720264D01*
X34535071Y-14720264D02*
X34644785Y-14796454D01*
X34644785Y-14796454D02*
X34919071Y-14796454D01*
X34919071Y-14796454D02*
X35028785Y-14720264D01*
X35028785Y-14720264D02*
X35083642Y-14644073D01*
X33931642Y-14644073D02*
X33876785Y-14720264D01*
X33876785Y-14720264D02*
X33931642Y-14796454D01*
X33931642Y-14796454D02*
X33986499Y-14720264D01*
X33986499Y-14720264D02*
X33931642Y-14644073D01*
X33931642Y-14644073D02*
X33931642Y-14796454D01*
X33218499Y-13882168D02*
X33328214Y-13805978D01*
X33328214Y-13805978D02*
X33383071Y-13729787D01*
X33383071Y-13729787D02*
X33437928Y-13577406D01*
X33437928Y-13577406D02*
X33437928Y-13501216D01*
X33437928Y-13501216D02*
X33383071Y-13348835D01*
X33383071Y-13348835D02*
X33328214Y-13272644D01*
X33328214Y-13272644D02*
X33218499Y-13196454D01*
X33218499Y-13196454D02*
X32999071Y-13196454D01*
X32999071Y-13196454D02*
X32889357Y-13272644D01*
X32889357Y-13272644D02*
X32834499Y-13348835D01*
X32834499Y-13348835D02*
X32779642Y-13501216D01*
X32779642Y-13501216D02*
X32779642Y-13577406D01*
X32779642Y-13577406D02*
X32834499Y-13729787D01*
X32834499Y-13729787D02*
X32889357Y-13805978D01*
X32889357Y-13805978D02*
X32999071Y-13882168D01*
X32999071Y-13882168D02*
X33218499Y-13882168D01*
X33218499Y-13882168D02*
X33328214Y-13958359D01*
X33328214Y-13958359D02*
X33383071Y-14034549D01*
X33383071Y-14034549D02*
X33437928Y-14186930D01*
X33437928Y-14186930D02*
X33437928Y-14491692D01*
X33437928Y-14491692D02*
X33383071Y-14644073D01*
X33383071Y-14644073D02*
X33328214Y-14720264D01*
X33328214Y-14720264D02*
X33218499Y-14796454D01*
X33218499Y-14796454D02*
X32999071Y-14796454D01*
X32999071Y-14796454D02*
X32889357Y-14720264D01*
X32889357Y-14720264D02*
X32834499Y-14644073D01*
X32834499Y-14644073D02*
X32779642Y-14491692D01*
X32779642Y-14491692D02*
X32779642Y-14186930D01*
X32779642Y-14186930D02*
X32834499Y-14034549D01*
X32834499Y-14034549D02*
X32889357Y-13958359D01*
X32889357Y-13958359D02*
X32999071Y-13882168D01*
X30804785Y-13272644D02*
X30914500Y-13196454D01*
X30914500Y-13196454D02*
X31079071Y-13196454D01*
X31079071Y-13196454D02*
X31243642Y-13272644D01*
X31243642Y-13272644D02*
X31353357Y-13425025D01*
X31353357Y-13425025D02*
X31408214Y-13577406D01*
X31408214Y-13577406D02*
X31463071Y-13882168D01*
X31463071Y-13882168D02*
X31463071Y-14110740D01*
X31463071Y-14110740D02*
X31408214Y-14415502D01*
X31408214Y-14415502D02*
X31353357Y-14567883D01*
X31353357Y-14567883D02*
X31243642Y-14720264D01*
X31243642Y-14720264D02*
X31079071Y-14796454D01*
X31079071Y-14796454D02*
X30969357Y-14796454D01*
X30969357Y-14796454D02*
X30804785Y-14720264D01*
X30804785Y-14720264D02*
X30749928Y-14644073D01*
X30749928Y-14644073D02*
X30749928Y-14110740D01*
X30749928Y-14110740D02*
X30969357Y-14110740D01*
X30256214Y-14796454D02*
X30256214Y-13196454D01*
X30256214Y-13958359D02*
X29597928Y-13958359D01*
X29597928Y-14796454D02*
X29597928Y-13196454D01*
X29159071Y-13729787D02*
X28555643Y-13729787D01*
X28555643Y-13729787D02*
X29159071Y-14796454D01*
X29159071Y-14796454D02*
X28555643Y-14796454D01*
X26580786Y-14796454D02*
X26964786Y-14034549D01*
X27239072Y-14796454D02*
X27239072Y-13196454D01*
X27239072Y-13196454D02*
X26800215Y-13196454D01*
X26800215Y-13196454D02*
X26690500Y-13272644D01*
X26690500Y-13272644D02*
X26635643Y-13348835D01*
X26635643Y-13348835D02*
X26580786Y-13501216D01*
X26580786Y-13501216D02*
X26580786Y-13729787D01*
X26580786Y-13729787D02*
X26635643Y-13882168D01*
X26635643Y-13882168D02*
X26690500Y-13958359D01*
X26690500Y-13958359D02*
X26800215Y-14034549D01*
X26800215Y-14034549D02*
X27239072Y-14034549D01*
X26141929Y-14339311D02*
X25593358Y-14339311D01*
X26251643Y-14796454D02*
X25867643Y-13196454D01*
X25867643Y-13196454D02*
X25483643Y-14796454D01*
X25099643Y-14796454D02*
X25099643Y-13196454D01*
X25099643Y-13196454D02*
X24825357Y-13196454D01*
X24825357Y-13196454D02*
X24660786Y-13272644D01*
X24660786Y-13272644D02*
X24551071Y-13425025D01*
X24551071Y-13425025D02*
X24496214Y-13577406D01*
X24496214Y-13577406D02*
X24441357Y-13882168D01*
X24441357Y-13882168D02*
X24441357Y-14110740D01*
X24441357Y-14110740D02*
X24496214Y-14415502D01*
X24496214Y-14415502D02*
X24551071Y-14567883D01*
X24551071Y-14567883D02*
X24660786Y-14720264D01*
X24660786Y-14720264D02*
X24825357Y-14796454D01*
X24825357Y-14796454D02*
X25099643Y-14796454D01*
X24002500Y-14339311D02*
X23453929Y-14339311D01*
X24112214Y-14796454D02*
X23728214Y-13196454D01*
X23728214Y-13196454D02*
X23344214Y-14796454D01*
X22301928Y-14796454D02*
X22685928Y-14034549D01*
X22960214Y-14796454D02*
X22960214Y-13196454D01*
X22960214Y-13196454D02*
X22521357Y-13196454D01*
X22521357Y-13196454D02*
X22411642Y-13272644D01*
X22411642Y-13272644D02*
X22356785Y-13348835D01*
X22356785Y-13348835D02*
X22301928Y-13501216D01*
X22301928Y-13501216D02*
X22301928Y-13729787D01*
X22301928Y-13729787D02*
X22356785Y-13882168D01*
X22356785Y-13882168D02*
X22411642Y-13958359D01*
X22411642Y-13958359D02*
X22521357Y-14034549D01*
X22521357Y-14034549D02*
X22960214Y-14034549D01*
X20930500Y-14186930D02*
X20052786Y-14186930D01*
X17968214Y-14796454D02*
X18352214Y-14034549D01*
X18626500Y-14796454D02*
X18626500Y-13196454D01*
X18626500Y-13196454D02*
X18187643Y-13196454D01*
X18187643Y-13196454D02*
X18077928Y-13272644D01*
X18077928Y-13272644D02*
X18023071Y-13348835D01*
X18023071Y-13348835D02*
X17968214Y-13501216D01*
X17968214Y-13501216D02*
X17968214Y-13729787D01*
X17968214Y-13729787D02*
X18023071Y-13882168D01*
X18023071Y-13882168D02*
X18077928Y-13958359D01*
X18077928Y-13958359D02*
X18187643Y-14034549D01*
X18187643Y-14034549D02*
X18626500Y-14034549D01*
X17474500Y-13958359D02*
X17090500Y-13958359D01*
X16925928Y-14796454D02*
X17474500Y-14796454D01*
X17474500Y-14796454D02*
X17474500Y-13196454D01*
X17474500Y-13196454D02*
X16925928Y-13196454D01*
X15773928Y-14644073D02*
X15828785Y-14720264D01*
X15828785Y-14720264D02*
X15993357Y-14796454D01*
X15993357Y-14796454D02*
X16103071Y-14796454D01*
X16103071Y-14796454D02*
X16267642Y-14720264D01*
X16267642Y-14720264D02*
X16377357Y-14567883D01*
X16377357Y-14567883D02*
X16432214Y-14415502D01*
X16432214Y-14415502D02*
X16487071Y-14110740D01*
X16487071Y-14110740D02*
X16487071Y-13882168D01*
X16487071Y-13882168D02*
X16432214Y-13577406D01*
X16432214Y-13577406D02*
X16377357Y-13425025D01*
X16377357Y-13425025D02*
X16267642Y-13272644D01*
X16267642Y-13272644D02*
X16103071Y-13196454D01*
X16103071Y-13196454D02*
X15993357Y-13196454D01*
X15993357Y-13196454D02*
X15828785Y-13272644D01*
X15828785Y-13272644D02*
X15773928Y-13348835D01*
X15280214Y-13958359D02*
X14896214Y-13958359D01*
X14731642Y-14796454D02*
X15280214Y-14796454D01*
X15280214Y-14796454D02*
X15280214Y-13196454D01*
X15280214Y-13196454D02*
X14731642Y-13196454D01*
X14237928Y-14796454D02*
X14237928Y-13196454D01*
X13853928Y-13196454D02*
X13469928Y-14796454D01*
X13469928Y-14796454D02*
X13085928Y-13196454D01*
X12701928Y-13958359D02*
X12317928Y-13958359D01*
X12153356Y-14796454D02*
X12701928Y-14796454D01*
X12701928Y-14796454D02*
X12701928Y-13196454D01*
X12701928Y-13196454D02*
X12153356Y-13196454D01*
M02*
