%TF.GenerationSoftware,KiCad,Pcbnew,10.0.5*%
%TF.CreationDate,2026-08-09T11:14:31+01:00*%
%TF.ProjectId,radar_5g8_receive,72616461-725f-4356-9738-5f7265636569,rev?*%
%TF.SameCoordinates,Original*%
%TF.FileFunction,Drillmap*%
%TF.FilePolarity,Positive*%
%FSLAX45Y45*%
G04 Gerber Fmt 4.5, Leading zero omitted, Abs format (unit mm)*
G04 Created by KiCad (PCBNEW 10.0.5) date 2026-08-09 11:14:31*
%MOMM*%
%LPD*%
G01*
G04 APERTURE LIST*
%ADD10C,0.100000*%
%ADD11C,0.200000*%
G04 APERTURE END LIST*
D10*
X0Y-80000D02*
X0Y-7068505D01*
X0Y-80000D02*
G75*
G02*
X80000Y0I80000J0D01*
G01*
X80000Y-7148505D02*
G75*
G02*
X0Y-7068505I0J80000D01*
G01*
X80000Y-7148505D02*
X4657300Y-7148505D01*
X4657300Y0D02*
X80000Y0D01*
X4657300Y0D02*
G75*
G02*
X4737300Y-80000I0J-80000D01*
G01*
X4737300Y-7068505D02*
G75*
G02*
X4657300Y-7148510I-80010J5D01*
G01*
X4737300Y-7068505D02*
X4737300Y-80000D01*
D11*
X255777Y-7464989D02*
X255777Y-7264989D01*
X255777Y-7264989D02*
X303396Y-7264989D01*
X303396Y-7264989D02*
X331967Y-7274513D01*
X331967Y-7274513D02*
X351015Y-7293560D01*
X351015Y-7293560D02*
X360539Y-7312608D01*
X360539Y-7312608D02*
X370062Y-7350703D01*
X370062Y-7350703D02*
X370062Y-7379274D01*
X370062Y-7379274D02*
X360539Y-7417370D01*
X360539Y-7417370D02*
X351015Y-7436417D01*
X351015Y-7436417D02*
X331967Y-7455465D01*
X331967Y-7455465D02*
X303396Y-7464989D01*
X303396Y-7464989D02*
X255777Y-7464989D01*
X455777Y-7464989D02*
X455777Y-7331655D01*
X455777Y-7369751D02*
X465301Y-7350703D01*
X465301Y-7350703D02*
X474824Y-7341179D01*
X474824Y-7341179D02*
X493872Y-7331655D01*
X493872Y-7331655D02*
X512920Y-7331655D01*
X579586Y-7464989D02*
X579586Y-7331655D01*
X579586Y-7264989D02*
X570063Y-7274513D01*
X570063Y-7274513D02*
X579586Y-7284036D01*
X579586Y-7284036D02*
X589110Y-7274513D01*
X589110Y-7274513D02*
X579586Y-7264989D01*
X579586Y-7264989D02*
X579586Y-7284036D01*
X703396Y-7464989D02*
X684348Y-7455465D01*
X684348Y-7455465D02*
X674824Y-7436417D01*
X674824Y-7436417D02*
X674824Y-7264989D01*
X808158Y-7464989D02*
X789110Y-7455465D01*
X789110Y-7455465D02*
X779586Y-7436417D01*
X779586Y-7436417D02*
X779586Y-7264989D01*
X1036729Y-7464989D02*
X1036729Y-7264989D01*
X1036729Y-7264989D02*
X1103396Y-7407846D01*
X1103396Y-7407846D02*
X1170063Y-7264989D01*
X1170063Y-7264989D02*
X1170063Y-7464989D01*
X1351015Y-7464989D02*
X1351015Y-7360227D01*
X1351015Y-7360227D02*
X1341491Y-7341179D01*
X1341491Y-7341179D02*
X1322444Y-7331655D01*
X1322444Y-7331655D02*
X1284348Y-7331655D01*
X1284348Y-7331655D02*
X1265301Y-7341179D01*
X1351015Y-7455465D02*
X1331967Y-7464989D01*
X1331967Y-7464989D02*
X1284348Y-7464989D01*
X1284348Y-7464989D02*
X1265301Y-7455465D01*
X1265301Y-7455465D02*
X1255777Y-7436417D01*
X1255777Y-7436417D02*
X1255777Y-7417370D01*
X1255777Y-7417370D02*
X1265301Y-7398322D01*
X1265301Y-7398322D02*
X1284348Y-7388798D01*
X1284348Y-7388798D02*
X1331967Y-7388798D01*
X1331967Y-7388798D02*
X1351015Y-7379274D01*
X1446253Y-7331655D02*
X1446253Y-7531655D01*
X1446253Y-7341179D02*
X1465301Y-7331655D01*
X1465301Y-7331655D02*
X1503396Y-7331655D01*
X1503396Y-7331655D02*
X1522443Y-7341179D01*
X1522443Y-7341179D02*
X1531967Y-7350703D01*
X1531967Y-7350703D02*
X1541491Y-7369751D01*
X1541491Y-7369751D02*
X1541491Y-7426893D01*
X1541491Y-7426893D02*
X1531967Y-7445941D01*
X1531967Y-7445941D02*
X1522443Y-7455465D01*
X1522443Y-7455465D02*
X1503396Y-7464989D01*
X1503396Y-7464989D02*
X1465301Y-7464989D01*
X1465301Y-7464989D02*
X1446253Y-7455465D01*
X1627205Y-7445941D02*
X1636729Y-7455465D01*
X1636729Y-7455465D02*
X1627205Y-7464989D01*
X1627205Y-7464989D02*
X1617682Y-7455465D01*
X1617682Y-7455465D02*
X1627205Y-7445941D01*
X1627205Y-7445941D02*
X1627205Y-7464989D01*
X1627205Y-7341179D02*
X1636729Y-7350703D01*
X1636729Y-7350703D02*
X1627205Y-7360227D01*
X1627205Y-7360227D02*
X1617682Y-7350703D01*
X1617682Y-7350703D02*
X1627205Y-7341179D01*
X1627205Y-7341179D02*
X1627205Y-7360227D01*
M02*
