%TF.GenerationSoftware,KiCad,Pcbnew,10.0.5*%
%TF.CreationDate,2026-08-09T16:14:06+01:00*%
%TF.ProjectId,radar_5g8_receive,72616461-725f-4356-9738-5f7265636569,rev?*%
%TF.SameCoordinates,Original*%
%TF.FileFunction,Copper,L2,Bot*%
%TF.FilePolarity,Positive*%
%FSLAX46Y46*%
G04 Gerber Fmt 4.6, Leading zero omitted, Abs format (unit mm)*
G04 Created by KiCad (PCBNEW 10.0.5) date 2026-08-09 16:14:06*
%MOMM*%
%LPD*%
G01*
G04 APERTURE LIST*
%TA.AperFunction,Conductor*%
%ADD10C,0.000000*%
%TD*%
%TA.AperFunction,ComponentPad*%
%ADD11C,6.000000*%
%TD*%
%TA.AperFunction,ViaPad*%
%ADD12C,0.750000*%
%TD*%
G04 APERTURE END LIST*
D10*
%TA.AperFunction,Conductor*%
%TO.N,GND*%
G36*
X46508789Y-254705D02*
G01*
X46579350Y-268740D01*
X46647475Y-291866D01*
X46712000Y-323686D01*
X46771818Y-363655D01*
X46825908Y-411091D01*
X46873344Y-465181D01*
X46913313Y-524999D01*
X46945133Y-589524D01*
X46968259Y-657649D01*
X46982294Y-728210D01*
X46987000Y-799999D01*
X46987000Y-70541980D01*
X46982294Y-70613769D01*
X46968259Y-70684330D01*
X46945133Y-70752455D01*
X46913313Y-70816980D01*
X46873344Y-70876798D01*
X46825908Y-70930888D01*
X46771818Y-70978324D01*
X46712000Y-71018293D01*
X46647475Y-71050113D01*
X46579350Y-71073239D01*
X46508789Y-71087274D01*
X46437000Y-71091980D01*
X799999Y-71091980D01*
X728210Y-71087274D01*
X657649Y-71073239D01*
X589524Y-71050113D01*
X524999Y-71018293D01*
X465181Y-70978324D01*
X411091Y-70930888D01*
X363655Y-70876798D01*
X323686Y-70816980D01*
X291866Y-70752455D01*
X268740Y-70684330D01*
X254705Y-70613769D01*
X250000Y-70541980D01*
X250000Y-799999D01*
X254705Y-728210D01*
X268740Y-657649D01*
X291866Y-589524D01*
X323686Y-524999D01*
X363655Y-465181D01*
X411091Y-411091D01*
X465181Y-363655D01*
X525000Y-323686D01*
X589524Y-291866D01*
X657649Y-268740D01*
X728210Y-254705D01*
X800000Y-250000D01*
X46437000Y-250000D01*
X46508789Y-254705D01*
G37*
%TD.AperFunction*%
%TD*%
D11*
%TO.P,H5,1*%
%TO.N,GND*%
X13000000Y-35341980D03*
%TD*%
%TO.P,H3,1*%
%TO.N,GND*%
X43000000Y-4341980D03*
%TD*%
%TO.P,H4,1*%
%TO.N,GND*%
X8000000Y-47341980D03*
%TD*%
%TO.P,H2,1*%
%TO.N,GND*%
X43000000Y-67341980D03*
%TD*%
%TO.P,H1,1*%
%TO.N,GND*%
X4000000Y-26341980D03*
%TD*%
D12*
%TO.N,GND*%
X1200000Y-67688644D03*
X7750000Y-19054837D03*
X1200000Y-62195316D03*
X2469999Y-17644737D03*
X1200000Y-12151409D03*
X6250000Y-19054837D03*
X7750000Y-69098744D03*
X6250000Y-69098744D03*
X4945016Y-5149842D03*
X2469999Y-62195316D03*
X2469999Y-12151409D03*
X4945016Y-6649842D03*
X1200000Y-17644737D03*
X4945016Y-55193749D03*
X2469999Y-67688644D03*
X4945016Y-56693749D03*
%TD*%
M02*
