M48
; DRILL file KiCad 10.0.5 date 2026-08-09T16:14:08
; FORMAT={-:-/ absolute / metric / decimal}
; #@! TF.CreationDate,2026-08-09T16:14:08+01:00
; #@! TF.GenerationSoftware,Kicad,Pcbnew,10.0.5
; #@! TF.FileFunction,MixedPlating,1,2
FMAT,2
METRIC
; #@! TA.AperFunction,Plated,PTH,ViaDrill
T1C0.400
; #@! TA.AperFunction,Plated,PTH,ComponentDrill
T2C3.200
%
G90
G05
T1
X1.2Y-12.151
X1.2Y-17.645
X1.2Y-62.195
X1.2Y-67.689
X2.47Y-12.151
X2.47Y-17.645
X2.47Y-62.195
X2.47Y-67.689
X4.945Y-5.15
X4.945Y-6.65
X4.945Y-55.194
X4.945Y-56.694
X6.25Y-19.055
X6.25Y-69.099
X7.75Y-19.055
X7.75Y-69.099
T2
X4.0Y-26.342
X8.0Y-47.342
X13.0Y-35.342
X43.0Y-4.342
X43.0Y-67.342
M30
