%TF.GenerationSoftware,KiCad,Pcbnew,10.0.5*%
%TF.CreationDate,2026-08-09T20:46:09+01:00*%
%TF.ProjectId,radar_5g8_receive,72616461-725f-4356-9738-5f7265636569,rev?*%
%TF.SameCoordinates,Original*%
%TF.FileFunction,Soldermask,Bot*%
%TF.FilePolarity,Negative*%
%FSLAX46Y46*%
G04 Gerber Fmt 4.6, Leading zero omitted, Abs format (unit mm)*
G04 Created by KiCad (PCBNEW 10.0.5) date 2026-08-09 20:46:09*
%MOMM*%
%LPD*%
G01*
G04 APERTURE LIST*
%ADD10C,0.000000*%
%ADD11C,6.100000*%
G04 APERTURE END LIST*
D10*
G36*
X1000000Y-70368744D02*
G01*
X1000000Y-70568744D01*
X998288Y-70542638D01*
X993185Y-70516980D01*
X984775Y-70492207D01*
X973205Y-70468744D01*
X958670Y-70446991D01*
X941421Y-70427322D01*
X921752Y-70410073D01*
X900000Y-70395538D01*
X876536Y-70383968D01*
X851763Y-70375558D01*
X826105Y-70370455D01*
X800000Y-70368744D01*
X1000000Y-70368744D01*
G37*
G36*
X46437000Y-70368744D02*
G01*
X46410894Y-70370455D01*
X46385236Y-70375558D01*
X46360463Y-70383968D01*
X46337000Y-70395538D01*
X46315247Y-70410073D01*
X46295578Y-70427322D01*
X46278329Y-70446991D01*
X46263794Y-70468744D01*
X46252224Y-70492207D01*
X46243814Y-70516980D01*
X46238711Y-70542638D01*
X46237000Y-70568744D01*
X46237000Y-70368744D01*
X46437000Y-70368744D01*
G37*
G36*
X46237000Y-1000000D02*
G01*
X46237000Y-70368744D01*
X1000000Y-70368744D01*
X1000000Y-1000000D01*
X46237000Y-1000000D01*
G37*
G36*
X46238711Y-826105D02*
G01*
X46243814Y-851763D01*
X46252224Y-876536D01*
X46263794Y-899999D01*
X46278329Y-921752D01*
X46295578Y-941421D01*
X46315247Y-958670D01*
X46337000Y-973205D01*
X46360463Y-984775D01*
X46385236Y-993185D01*
X46410894Y-998288D01*
X46437000Y-1000000D01*
X46237000Y-1000000D01*
X46237000Y-799999D01*
X46238711Y-826105D01*
G37*
G36*
X1000000Y-1000000D02*
G01*
X800000Y-1000000D01*
X826105Y-998288D01*
X851763Y-993185D01*
X876536Y-984775D01*
X900000Y-973205D01*
X921752Y-958670D01*
X941421Y-941421D01*
X958670Y-921752D01*
X973205Y-899999D01*
X984775Y-876536D01*
X993185Y-851763D01*
X998288Y-826105D01*
X1000000Y-799999D01*
X1000000Y-1000000D01*
G37*
D11*
%TO.C,H2*%
X8000000Y-47368744D03*
%TD*%
%TO.C,H3*%
X17000000Y-35368744D03*
%TD*%
%TO.C,H1*%
X4000000Y-27368744D03*
%TD*%
M02*
