M48
; DRILL file KiCad 10.0.5 date 2026-08-09T20:48:51
; FORMAT={-:-/ absolute / metric / decimal}
; #@! TF.CreationDate,2026-08-09T20:48:51+01:00
; #@! TF.GenerationSoftware,Kicad,Pcbnew,10.0.5
; #@! TF.FileFunction,MixedPlating,1,2
FMAT,2
METRIC
; #@! TA.AperFunction,Plated,PTH,ViaDrill
T1C0.400
; #@! TA.AperFunction,Plated,PTH,ComponentDrill
T2C3.200
%
G90
G05
T1
X1.2Y-12.151
X1.2Y-17.645
X1.2Y-62.195
X1.2Y-67.689
X2.47Y-12.151
X2.47Y-17.645
X2.47Y-62.195
X2.47Y-67.689
X3.55Y-5.15
X3.55Y-6.65
X3.55Y-55.194
X3.55Y-56.694
X6.25Y-19.875
X6.25Y-69.919
X7.75Y-19.875
X7.75Y-69.919
X44.237Y-12.834
X44.237Y-64.834
T2
X4.0Y-27.369
X8.0Y-47.369
X17.0Y-35.369
M30
