%TF.GenerationSoftware,KiCad,Pcbnew,10.0.5*%
%TF.CreationDate,2026-08-09T16:14:06+01:00*%
%TF.ProjectId,radar_5g8_receive,72616461-725f-4356-9738-5f7265636569,rev?*%
%TF.SameCoordinates,Original*%
%TF.FileFunction,Legend,Bot*%
%TF.FilePolarity,Positive*%
%FSLAX46Y46*%
G04 Gerber Fmt 4.6, Leading zero omitted, Abs format (unit mm)*
G04 Created by KiCad (PCBNEW 10.0.5) date 2026-08-09 16:14:06*
%MOMM*%
%LPD*%
G01*
G04 APERTURE LIST*
%ADD10C,0.150000*%
%ADD11C,0.165000*%
%ADD12C,0.240000*%
G04 APERTURE END LIST*
D10*
X5670015Y-53198568D02*
X5910015Y-52722377D01*
X6081444Y-53198568D02*
X6081444Y-52198568D01*
X6081444Y-52198568D02*
X5807158Y-52198568D01*
X5807158Y-52198568D02*
X5738587Y-52246187D01*
X5738587Y-52246187D02*
X5704301Y-52293806D01*
X5704301Y-52293806D02*
X5670015Y-52389044D01*
X5670015Y-52389044D02*
X5670015Y-52531901D01*
X5670015Y-52531901D02*
X5704301Y-52627139D01*
X5704301Y-52627139D02*
X5738587Y-52674758D01*
X5738587Y-52674758D02*
X5807158Y-52722377D01*
X5807158Y-52722377D02*
X6081444Y-52722377D01*
X5430015Y-52198568D02*
X4984301Y-52198568D01*
X4984301Y-52198568D02*
X5224301Y-52579520D01*
X5224301Y-52579520D02*
X5121444Y-52579520D01*
X5121444Y-52579520D02*
X5052873Y-52627139D01*
X5052873Y-52627139D02*
X5018587Y-52674758D01*
X5018587Y-52674758D02*
X4984301Y-52769996D01*
X4984301Y-52769996D02*
X4984301Y-53008091D01*
X4984301Y-53008091D02*
X5018587Y-53103329D01*
X5018587Y-53103329D02*
X5052873Y-53150949D01*
X5052873Y-53150949D02*
X5121444Y-53198568D01*
X5121444Y-53198568D02*
X5327158Y-53198568D01*
X5327158Y-53198568D02*
X5395730Y-53150949D01*
X5395730Y-53150949D02*
X5430015Y-53103329D01*
X11611427Y-20859656D02*
X11611427Y-19859656D01*
X11611427Y-19859656D02*
X11439998Y-19859656D01*
X11439998Y-19859656D02*
X11337141Y-19907275D01*
X11337141Y-19907275D02*
X11268570Y-20002513D01*
X11268570Y-20002513D02*
X11234284Y-20097751D01*
X11234284Y-20097751D02*
X11199998Y-20288227D01*
X11199998Y-20288227D02*
X11199998Y-20431084D01*
X11199998Y-20431084D02*
X11234284Y-20621560D01*
X11234284Y-20621560D02*
X11268570Y-20716798D01*
X11268570Y-20716798D02*
X11337141Y-20812037D01*
X11337141Y-20812037D02*
X11439998Y-20859656D01*
X11439998Y-20859656D02*
X11611427Y-20859656D01*
X10925713Y-19954894D02*
X10891427Y-19907275D01*
X10891427Y-19907275D02*
X10822856Y-19859656D01*
X10822856Y-19859656D02*
X10651427Y-19859656D01*
X10651427Y-19859656D02*
X10582856Y-19907275D01*
X10582856Y-19907275D02*
X10548570Y-19954894D01*
X10548570Y-19954894D02*
X10514284Y-20050132D01*
X10514284Y-20050132D02*
X10514284Y-20145370D01*
X10514284Y-20145370D02*
X10548570Y-20288227D01*
X10548570Y-20288227D02*
X10959998Y-20859656D01*
X10959998Y-20859656D02*
X10514284Y-20859656D01*
X9314285Y-20859656D02*
X9657142Y-20859656D01*
X9657142Y-20859656D02*
X9657142Y-19859656D01*
X9074285Y-20859656D02*
X9074285Y-19859656D01*
X8731428Y-20859656D02*
X8731428Y-19859656D01*
X8731428Y-19859656D02*
X8491428Y-20573941D01*
X8491428Y-20573941D02*
X8251428Y-19859656D01*
X8251428Y-19859656D02*
X8251428Y-20859656D01*
X7908571Y-20859656D02*
X7908571Y-19859656D01*
X7668571Y-19859656D02*
X7257143Y-19859656D01*
X7462857Y-20859656D02*
X7462857Y-19859656D01*
X7017143Y-20335846D02*
X6777143Y-20335846D01*
X6674286Y-20859656D02*
X7017143Y-20859656D01*
X7017143Y-20859656D02*
X7017143Y-19859656D01*
X7017143Y-19859656D02*
X6674286Y-19859656D01*
X5954285Y-20859656D02*
X6194285Y-20383465D01*
X6365714Y-20859656D02*
X6365714Y-19859656D01*
X6365714Y-19859656D02*
X6091428Y-19859656D01*
X6091428Y-19859656D02*
X6022857Y-19907275D01*
X6022857Y-19907275D02*
X5988571Y-19954894D01*
X5988571Y-19954894D02*
X5954285Y-20050132D01*
X5954285Y-20050132D02*
X5954285Y-20192989D01*
X5954285Y-20192989D02*
X5988571Y-20288227D01*
X5988571Y-20288227D02*
X6022857Y-20335846D01*
X6022857Y-20335846D02*
X6091428Y-20383465D01*
X6091428Y-20383465D02*
X6365714Y-20383465D01*
X4891429Y-21240608D02*
X4925714Y-21192989D01*
X4925714Y-21192989D02*
X4994286Y-21050132D01*
X4994286Y-21050132D02*
X5028572Y-20954894D01*
X5028572Y-20954894D02*
X5062857Y-20812037D01*
X5062857Y-20812037D02*
X5097143Y-20573941D01*
X5097143Y-20573941D02*
X5097143Y-20383465D01*
X5097143Y-20383465D02*
X5062857Y-20145370D01*
X5062857Y-20145370D02*
X5028572Y-20002513D01*
X5028572Y-20002513D02*
X4994286Y-19907275D01*
X4994286Y-19907275D02*
X4925714Y-19764417D01*
X4925714Y-19764417D02*
X4891429Y-19716798D01*
X4617143Y-20859656D02*
X4617143Y-19859656D01*
X4617143Y-19859656D02*
X4445714Y-19859656D01*
X4445714Y-19859656D02*
X4342857Y-19907275D01*
X4342857Y-19907275D02*
X4274286Y-20002513D01*
X4274286Y-20002513D02*
X4240000Y-20097751D01*
X4240000Y-20097751D02*
X4205714Y-20288227D01*
X4205714Y-20288227D02*
X4205714Y-20431084D01*
X4205714Y-20431084D02*
X4240000Y-20621560D01*
X4240000Y-20621560D02*
X4274286Y-20716798D01*
X4274286Y-20716798D02*
X4342857Y-20812037D01*
X4342857Y-20812037D02*
X4445714Y-20859656D01*
X4445714Y-20859656D02*
X4617143Y-20859656D01*
X3897143Y-20859656D02*
X3897143Y-19859656D01*
X3897143Y-19859656D02*
X3485714Y-20859656D01*
X3485714Y-20859656D02*
X3485714Y-19859656D01*
X2902857Y-20335846D02*
X3142857Y-20335846D01*
X3142857Y-20859656D02*
X3142857Y-19859656D01*
X3142857Y-19859656D02*
X2800000Y-19859656D01*
X2594285Y-21240608D02*
X2560000Y-21192989D01*
X2560000Y-21192989D02*
X2491428Y-21050132D01*
X2491428Y-21050132D02*
X2457143Y-20954894D01*
X2457143Y-20954894D02*
X2422857Y-20812037D01*
X2422857Y-20812037D02*
X2388571Y-20573941D01*
X2388571Y-20573941D02*
X2388571Y-20383465D01*
X2388571Y-20383465D02*
X2422857Y-20145370D01*
X2422857Y-20145370D02*
X2457143Y-20002513D01*
X2457143Y-20002513D02*
X2491428Y-19907275D01*
X2491428Y-19907275D02*
X2560000Y-19764417D01*
X2560000Y-19764417D02*
X2594285Y-19716798D01*
D11*
X33707072Y-60642280D02*
X34084215Y-60642280D01*
X34084215Y-60642280D02*
X34084215Y-59542280D01*
X33443072Y-60642280D02*
X33443072Y-59542280D01*
X33443072Y-60066090D02*
X32990501Y-60066090D01*
X32990501Y-60642280D02*
X32990501Y-59542280D01*
X32160787Y-60537519D02*
X32198501Y-60589900D01*
X32198501Y-60589900D02*
X32311644Y-60642280D01*
X32311644Y-60642280D02*
X32387072Y-60642280D01*
X32387072Y-60642280D02*
X32500215Y-60589900D01*
X32500215Y-60589900D02*
X32575644Y-60485138D01*
X32575644Y-60485138D02*
X32613358Y-60380376D01*
X32613358Y-60380376D02*
X32651072Y-60170852D01*
X32651072Y-60170852D02*
X32651072Y-60013709D01*
X32651072Y-60013709D02*
X32613358Y-59804185D01*
X32613358Y-59804185D02*
X32575644Y-59699423D01*
X32575644Y-59699423D02*
X32500215Y-59594661D01*
X32500215Y-59594661D02*
X32387072Y-59542280D01*
X32387072Y-59542280D02*
X32311644Y-59542280D01*
X32311644Y-59542280D02*
X32198501Y-59594661D01*
X32198501Y-59594661D02*
X32160787Y-59647042D01*
X31821358Y-60642280D02*
X31821358Y-59542280D01*
X31821358Y-59542280D02*
X31519644Y-59542280D01*
X31519644Y-59542280D02*
X31444215Y-59594661D01*
X31444215Y-59594661D02*
X31406501Y-59647042D01*
X31406501Y-59647042D02*
X31368787Y-59751804D01*
X31368787Y-59751804D02*
X31368787Y-59908947D01*
X31368787Y-59908947D02*
X31406501Y-60013709D01*
X31406501Y-60013709D02*
X31444215Y-60066090D01*
X31444215Y-60066090D02*
X31519644Y-60118471D01*
X31519644Y-60118471D02*
X31821358Y-60118471D01*
X29822500Y-60066090D02*
X29558500Y-60066090D01*
X29445357Y-60642280D02*
X29822500Y-60642280D01*
X29822500Y-60642280D02*
X29822500Y-59542280D01*
X29822500Y-59542280D02*
X29445357Y-59542280D01*
X28728786Y-60642280D02*
X29105929Y-60642280D01*
X29105929Y-60642280D02*
X29105929Y-59542280D01*
X28464786Y-60066090D02*
X28200786Y-60066090D01*
X28087643Y-60642280D02*
X28464786Y-60642280D01*
X28464786Y-60642280D02*
X28464786Y-59542280D01*
X28464786Y-59542280D02*
X28087643Y-59542280D01*
X27861358Y-59542280D02*
X27597358Y-60642280D01*
X27597358Y-60642280D02*
X27333358Y-59542280D01*
X27107072Y-60327995D02*
X26729930Y-60327995D01*
X27182501Y-60642280D02*
X26918501Y-59542280D01*
X26918501Y-59542280D02*
X26654501Y-60642280D01*
X26503644Y-59542280D02*
X26051073Y-59542280D01*
X26277358Y-60642280D02*
X26277358Y-59542280D01*
X25787072Y-60642280D02*
X25787072Y-59542280D01*
X25259072Y-59542280D02*
X25108215Y-59542280D01*
X25108215Y-59542280D02*
X25032786Y-59594661D01*
X25032786Y-59594661D02*
X24957358Y-59699423D01*
X24957358Y-59699423D02*
X24919643Y-59908947D01*
X24919643Y-59908947D02*
X24919643Y-60275614D01*
X24919643Y-60275614D02*
X24957358Y-60485138D01*
X24957358Y-60485138D02*
X25032786Y-60589900D01*
X25032786Y-60589900D02*
X25108215Y-60642280D01*
X25108215Y-60642280D02*
X25259072Y-60642280D01*
X25259072Y-60642280D02*
X25334501Y-60589900D01*
X25334501Y-60589900D02*
X25409929Y-60485138D01*
X25409929Y-60485138D02*
X25447643Y-60275614D01*
X25447643Y-60275614D02*
X25447643Y-59908947D01*
X25447643Y-59908947D02*
X25409929Y-59699423D01*
X25409929Y-59699423D02*
X25334501Y-59594661D01*
X25334501Y-59594661D02*
X25259072Y-59542280D01*
X24580215Y-60642280D02*
X24580215Y-59542280D01*
X24580215Y-59542280D02*
X24127644Y-60642280D01*
X24127644Y-60642280D02*
X24127644Y-59542280D01*
X22204215Y-60642280D02*
X22204215Y-59542280D01*
X22204215Y-60589900D02*
X22279643Y-60642280D01*
X22279643Y-60642280D02*
X22430500Y-60642280D01*
X22430500Y-60642280D02*
X22505929Y-60589900D01*
X22505929Y-60589900D02*
X22543643Y-60537519D01*
X22543643Y-60537519D02*
X22581357Y-60432757D01*
X22581357Y-60432757D02*
X22581357Y-60118471D01*
X22581357Y-60118471D02*
X22543643Y-60013709D01*
X22543643Y-60013709D02*
X22505929Y-59961328D01*
X22505929Y-59961328D02*
X22430500Y-59908947D01*
X22430500Y-59908947D02*
X22279643Y-59908947D01*
X22279643Y-59908947D02*
X22204215Y-59961328D01*
X21223643Y-60066090D02*
X20620215Y-60066090D01*
X20620215Y-60380376D02*
X21223643Y-60380376D01*
X19677357Y-59647042D02*
X19639643Y-59594661D01*
X19639643Y-59594661D02*
X19564215Y-59542280D01*
X19564215Y-59542280D02*
X19375643Y-59542280D01*
X19375643Y-59542280D02*
X19300215Y-59594661D01*
X19300215Y-59594661D02*
X19262500Y-59647042D01*
X19262500Y-59647042D02*
X19224786Y-59751804D01*
X19224786Y-59751804D02*
X19224786Y-59856566D01*
X19224786Y-59856566D02*
X19262500Y-60013709D01*
X19262500Y-60013709D02*
X19715072Y-60642280D01*
X19715072Y-60642280D02*
X19224786Y-60642280D01*
X18508214Y-59542280D02*
X18885357Y-59542280D01*
X18885357Y-59542280D02*
X18923071Y-60066090D01*
X18923071Y-60066090D02*
X18885357Y-60013709D01*
X18885357Y-60013709D02*
X18809929Y-59961328D01*
X18809929Y-59961328D02*
X18621357Y-59961328D01*
X18621357Y-59961328D02*
X18545929Y-60013709D01*
X18545929Y-60013709D02*
X18508214Y-60066090D01*
X18508214Y-60066090D02*
X18470500Y-60170852D01*
X18470500Y-60170852D02*
X18470500Y-60432757D01*
X18470500Y-60432757D02*
X18508214Y-60537519D01*
X18508214Y-60537519D02*
X18545929Y-60589900D01*
X18545929Y-60589900D02*
X18621357Y-60642280D01*
X18621357Y-60642280D02*
X18809929Y-60642280D01*
X18809929Y-60642280D02*
X18885357Y-60589900D01*
X18885357Y-60589900D02*
X18923071Y-60537519D01*
X18131071Y-60537519D02*
X18093357Y-60589900D01*
X18093357Y-60589900D02*
X18131071Y-60642280D01*
X18131071Y-60642280D02*
X18168785Y-60589900D01*
X18168785Y-60589900D02*
X18131071Y-60537519D01*
X18131071Y-60537519D02*
X18131071Y-60642280D01*
X17640785Y-60013709D02*
X17716214Y-59961328D01*
X17716214Y-59961328D02*
X17753928Y-59908947D01*
X17753928Y-59908947D02*
X17791642Y-59804185D01*
X17791642Y-59804185D02*
X17791642Y-59751804D01*
X17791642Y-59751804D02*
X17753928Y-59647042D01*
X17753928Y-59647042D02*
X17716214Y-59594661D01*
X17716214Y-59594661D02*
X17640785Y-59542280D01*
X17640785Y-59542280D02*
X17489928Y-59542280D01*
X17489928Y-59542280D02*
X17414500Y-59594661D01*
X17414500Y-59594661D02*
X17376785Y-59647042D01*
X17376785Y-59647042D02*
X17339071Y-59751804D01*
X17339071Y-59751804D02*
X17339071Y-59804185D01*
X17339071Y-59804185D02*
X17376785Y-59908947D01*
X17376785Y-59908947D02*
X17414500Y-59961328D01*
X17414500Y-59961328D02*
X17489928Y-60013709D01*
X17489928Y-60013709D02*
X17640785Y-60013709D01*
X17640785Y-60013709D02*
X17716214Y-60066090D01*
X17716214Y-60066090D02*
X17753928Y-60118471D01*
X17753928Y-60118471D02*
X17791642Y-60223233D01*
X17791642Y-60223233D02*
X17791642Y-60432757D01*
X17791642Y-60432757D02*
X17753928Y-60537519D01*
X17753928Y-60537519D02*
X17716214Y-60589900D01*
X17716214Y-60589900D02*
X17640785Y-60642280D01*
X17640785Y-60642280D02*
X17489928Y-60642280D01*
X17489928Y-60642280D02*
X17414500Y-60589900D01*
X17414500Y-60589900D02*
X17376785Y-60537519D01*
X17376785Y-60537519D02*
X17339071Y-60432757D01*
X17339071Y-60432757D02*
X17339071Y-60223233D01*
X17339071Y-60223233D02*
X17376785Y-60118471D01*
X17376785Y-60118471D02*
X17414500Y-60066090D01*
X17414500Y-60066090D02*
X17489928Y-60013709D01*
X16660214Y-59908947D02*
X16660214Y-60642280D01*
X16848785Y-59489900D02*
X17037356Y-60275614D01*
X17037356Y-60275614D02*
X16547071Y-60275614D01*
X15905928Y-59908947D02*
X15905928Y-60642280D01*
X16094499Y-59489900D02*
X16283070Y-60275614D01*
X16283070Y-60275614D02*
X15792785Y-60275614D01*
X14887641Y-60642280D02*
X14887641Y-59908947D01*
X14887641Y-60013709D02*
X14849927Y-59961328D01*
X14849927Y-59961328D02*
X14774498Y-59908947D01*
X14774498Y-59908947D02*
X14661355Y-59908947D01*
X14661355Y-59908947D02*
X14585927Y-59961328D01*
X14585927Y-59961328D02*
X14548213Y-60066090D01*
X14548213Y-60066090D02*
X14548213Y-60642280D01*
X14548213Y-60066090D02*
X14510498Y-59961328D01*
X14510498Y-59961328D02*
X14435070Y-59908947D01*
X14435070Y-59908947D02*
X14321927Y-59908947D01*
X14321927Y-59908947D02*
X14246498Y-59961328D01*
X14246498Y-59961328D02*
X14208784Y-60066090D01*
X14208784Y-60066090D02*
X14208784Y-60642280D01*
X13831641Y-60642280D02*
X13831641Y-59908947D01*
X13831641Y-60013709D02*
X13793927Y-59961328D01*
X13793927Y-59961328D02*
X13718498Y-59908947D01*
X13718498Y-59908947D02*
X13605355Y-59908947D01*
X13605355Y-59908947D02*
X13529927Y-59961328D01*
X13529927Y-59961328D02*
X13492213Y-60066090D01*
X13492213Y-60066090D02*
X13492213Y-60642280D01*
X13492213Y-60066090D02*
X13454498Y-59961328D01*
X13454498Y-59961328D02*
X13379070Y-59908947D01*
X13379070Y-59908947D02*
X13265927Y-59908947D01*
X13265927Y-59908947D02*
X13190498Y-59961328D01*
X13190498Y-59961328D02*
X13152784Y-60066090D01*
X13152784Y-60066090D02*
X13152784Y-60642280D01*
X33725930Y-62242280D02*
X33197930Y-62242280D01*
X33197930Y-62242280D02*
X33725930Y-63342280D01*
X33725930Y-63342280D02*
X33197930Y-63342280D01*
X32745358Y-62818471D02*
X32745358Y-63342280D01*
X33009358Y-62242280D02*
X32745358Y-62818471D01*
X32745358Y-62818471D02*
X32481358Y-62242280D01*
X31953358Y-62766090D02*
X32217358Y-62766090D01*
X32217358Y-63342280D02*
X32217358Y-62242280D01*
X32217358Y-62242280D02*
X31840215Y-62242280D01*
X31613930Y-62242280D02*
X31123644Y-62242280D01*
X31123644Y-62242280D02*
X31387644Y-62661328D01*
X31387644Y-62661328D02*
X31274501Y-62661328D01*
X31274501Y-62661328D02*
X31199073Y-62713709D01*
X31199073Y-62713709D02*
X31161358Y-62766090D01*
X31161358Y-62766090D02*
X31123644Y-62870852D01*
X31123644Y-62870852D02*
X31123644Y-63132757D01*
X31123644Y-63132757D02*
X31161358Y-63237519D01*
X31161358Y-63237519D02*
X31199073Y-63289900D01*
X31199073Y-63289900D02*
X31274501Y-63342280D01*
X31274501Y-63342280D02*
X31500787Y-63342280D01*
X31500787Y-63342280D02*
X31576215Y-63289900D01*
X31576215Y-63289900D02*
X31613930Y-63237519D01*
X30633358Y-62242280D02*
X30557929Y-62242280D01*
X30557929Y-62242280D02*
X30482501Y-62294661D01*
X30482501Y-62294661D02*
X30444787Y-62347042D01*
X30444787Y-62347042D02*
X30407072Y-62451804D01*
X30407072Y-62451804D02*
X30369358Y-62661328D01*
X30369358Y-62661328D02*
X30369358Y-62923233D01*
X30369358Y-62923233D02*
X30407072Y-63132757D01*
X30407072Y-63132757D02*
X30444787Y-63237519D01*
X30444787Y-63237519D02*
X30482501Y-63289900D01*
X30482501Y-63289900D02*
X30557929Y-63342280D01*
X30557929Y-63342280D02*
X30633358Y-63342280D01*
X30633358Y-63342280D02*
X30708787Y-63289900D01*
X30708787Y-63289900D02*
X30746501Y-63237519D01*
X30746501Y-63237519D02*
X30784215Y-63132757D01*
X30784215Y-63132757D02*
X30821929Y-62923233D01*
X30821929Y-62923233D02*
X30821929Y-62661328D01*
X30821929Y-62661328D02*
X30784215Y-62451804D01*
X30784215Y-62451804D02*
X30746501Y-62347042D01*
X30746501Y-62347042D02*
X30708787Y-62294661D01*
X30708787Y-62294661D02*
X30633358Y-62242280D01*
X29879072Y-62242280D02*
X29803643Y-62242280D01*
X29803643Y-62242280D02*
X29728215Y-62294661D01*
X29728215Y-62294661D02*
X29690501Y-62347042D01*
X29690501Y-62347042D02*
X29652786Y-62451804D01*
X29652786Y-62451804D02*
X29615072Y-62661328D01*
X29615072Y-62661328D02*
X29615072Y-62923233D01*
X29615072Y-62923233D02*
X29652786Y-63132757D01*
X29652786Y-63132757D02*
X29690501Y-63237519D01*
X29690501Y-63237519D02*
X29728215Y-63289900D01*
X29728215Y-63289900D02*
X29803643Y-63342280D01*
X29803643Y-63342280D02*
X29879072Y-63342280D01*
X29879072Y-63342280D02*
X29954501Y-63289900D01*
X29954501Y-63289900D02*
X29992215Y-63237519D01*
X29992215Y-63237519D02*
X30029929Y-63132757D01*
X30029929Y-63132757D02*
X30067643Y-62923233D01*
X30067643Y-62923233D02*
X30067643Y-62661328D01*
X30067643Y-62661328D02*
X30029929Y-62451804D01*
X30029929Y-62451804D02*
X29992215Y-62347042D01*
X29992215Y-62347042D02*
X29954501Y-62294661D01*
X29954501Y-62294661D02*
X29879072Y-62242280D01*
X28823072Y-63237519D02*
X28860786Y-63289900D01*
X28860786Y-63289900D02*
X28973929Y-63342280D01*
X28973929Y-63342280D02*
X29049357Y-63342280D01*
X29049357Y-63342280D02*
X29162500Y-63289900D01*
X29162500Y-63289900D02*
X29237929Y-63185138D01*
X29237929Y-63185138D02*
X29275643Y-63080376D01*
X29275643Y-63080376D02*
X29313357Y-62870852D01*
X29313357Y-62870852D02*
X29313357Y-62713709D01*
X29313357Y-62713709D02*
X29275643Y-62504185D01*
X29275643Y-62504185D02*
X29237929Y-62399423D01*
X29237929Y-62399423D02*
X29162500Y-62294661D01*
X29162500Y-62294661D02*
X29049357Y-62242280D01*
X29049357Y-62242280D02*
X28973929Y-62242280D01*
X28973929Y-62242280D02*
X28860786Y-62294661D01*
X28860786Y-62294661D02*
X28823072Y-62347042D01*
X28521357Y-63027995D02*
X28144215Y-63027995D01*
X28596786Y-63342280D02*
X28332786Y-62242280D01*
X28332786Y-62242280D02*
X28068786Y-63342280D01*
X27804786Y-62923233D02*
X27201358Y-62923233D01*
X26824215Y-63342280D02*
X26824215Y-62242280D01*
X26824215Y-62242280D02*
X26522501Y-62242280D01*
X26522501Y-62242280D02*
X26447072Y-62294661D01*
X26447072Y-62294661D02*
X26409358Y-62347042D01*
X26409358Y-62347042D02*
X26371644Y-62451804D01*
X26371644Y-62451804D02*
X26371644Y-62608947D01*
X26371644Y-62608947D02*
X26409358Y-62713709D01*
X26409358Y-62713709D02*
X26447072Y-62766090D01*
X26447072Y-62766090D02*
X26522501Y-62818471D01*
X26522501Y-62818471D02*
X26824215Y-62818471D01*
X25277929Y-62242280D02*
X25202500Y-62242280D01*
X25202500Y-62242280D02*
X25127072Y-62294661D01*
X25127072Y-62294661D02*
X25089358Y-62347042D01*
X25089358Y-62347042D02*
X25051643Y-62451804D01*
X25051643Y-62451804D02*
X25013929Y-62661328D01*
X25013929Y-62661328D02*
X25013929Y-62923233D01*
X25013929Y-62923233D02*
X25051643Y-63132757D01*
X25051643Y-63132757D02*
X25089358Y-63237519D01*
X25089358Y-63237519D02*
X25127072Y-63289900D01*
X25127072Y-63289900D02*
X25202500Y-63342280D01*
X25202500Y-63342280D02*
X25277929Y-63342280D01*
X25277929Y-63342280D02*
X25353358Y-63289900D01*
X25353358Y-63289900D02*
X25391072Y-63237519D01*
X25391072Y-63237519D02*
X25428786Y-63132757D01*
X25428786Y-63132757D02*
X25466500Y-62923233D01*
X25466500Y-62923233D02*
X25466500Y-62661328D01*
X25466500Y-62661328D02*
X25428786Y-62451804D01*
X25428786Y-62451804D02*
X25391072Y-62347042D01*
X25391072Y-62347042D02*
X25353358Y-62294661D01*
X25353358Y-62294661D02*
X25277929Y-62242280D01*
X24674500Y-63237519D02*
X24636786Y-63289900D01*
X24636786Y-63289900D02*
X24674500Y-63342280D01*
X24674500Y-63342280D02*
X24712214Y-63289900D01*
X24712214Y-63289900D02*
X24674500Y-63237519D01*
X24674500Y-63237519D02*
X24674500Y-63342280D01*
X24372786Y-62242280D02*
X23844786Y-62242280D01*
X23844786Y-62242280D02*
X24184214Y-63342280D01*
X23203643Y-62242280D02*
X23354500Y-62242280D01*
X23354500Y-62242280D02*
X23429928Y-62294661D01*
X23429928Y-62294661D02*
X23467643Y-62347042D01*
X23467643Y-62347042D02*
X23543071Y-62504185D01*
X23543071Y-62504185D02*
X23580785Y-62713709D01*
X23580785Y-62713709D02*
X23580785Y-63132757D01*
X23580785Y-63132757D02*
X23543071Y-63237519D01*
X23543071Y-63237519D02*
X23505357Y-63289900D01*
X23505357Y-63289900D02*
X23429928Y-63342280D01*
X23429928Y-63342280D02*
X23279071Y-63342280D01*
X23279071Y-63342280D02*
X23203643Y-63289900D01*
X23203643Y-63289900D02*
X23165928Y-63237519D01*
X23165928Y-63237519D02*
X23128214Y-63132757D01*
X23128214Y-63132757D02*
X23128214Y-62870852D01*
X23128214Y-62870852D02*
X23165928Y-62766090D01*
X23165928Y-62766090D02*
X23203643Y-62713709D01*
X23203643Y-62713709D02*
X23279071Y-62661328D01*
X23279071Y-62661328D02*
X23429928Y-62661328D01*
X23429928Y-62661328D02*
X23505357Y-62713709D01*
X23505357Y-62713709D02*
X23543071Y-62766090D01*
X23543071Y-62766090D02*
X23580785Y-62870852D01*
X22185356Y-63342280D02*
X22185356Y-62608947D01*
X22185356Y-62713709D02*
X22147642Y-62661328D01*
X22147642Y-62661328D02*
X22072213Y-62608947D01*
X22072213Y-62608947D02*
X21959070Y-62608947D01*
X21959070Y-62608947D02*
X21883642Y-62661328D01*
X21883642Y-62661328D02*
X21845928Y-62766090D01*
X21845928Y-62766090D02*
X21845928Y-63342280D01*
X21845928Y-62766090D02*
X21808213Y-62661328D01*
X21808213Y-62661328D02*
X21732785Y-62608947D01*
X21732785Y-62608947D02*
X21619642Y-62608947D01*
X21619642Y-62608947D02*
X21544213Y-62661328D01*
X21544213Y-62661328D02*
X21506499Y-62766090D01*
X21506499Y-62766090D02*
X21506499Y-63342280D01*
X21129356Y-63342280D02*
X21129356Y-62608947D01*
X21129356Y-62713709D02*
X21091642Y-62661328D01*
X21091642Y-62661328D02*
X21016213Y-62608947D01*
X21016213Y-62608947D02*
X20903070Y-62608947D01*
X20903070Y-62608947D02*
X20827642Y-62661328D01*
X20827642Y-62661328D02*
X20789928Y-62766090D01*
X20789928Y-62766090D02*
X20789928Y-63342280D01*
X20789928Y-62766090D02*
X20752213Y-62661328D01*
X20752213Y-62661328D02*
X20676785Y-62608947D01*
X20676785Y-62608947D02*
X20563642Y-62608947D01*
X20563642Y-62608947D02*
X20488213Y-62661328D01*
X20488213Y-62661328D02*
X20450499Y-62766090D01*
X20450499Y-62766090D02*
X20450499Y-63342280D01*
X18904213Y-62189900D02*
X19583070Y-63604185D01*
X18074498Y-62347042D02*
X18036784Y-62294661D01*
X18036784Y-62294661D02*
X17961356Y-62242280D01*
X17961356Y-62242280D02*
X17772784Y-62242280D01*
X17772784Y-62242280D02*
X17697356Y-62294661D01*
X17697356Y-62294661D02*
X17659641Y-62347042D01*
X17659641Y-62347042D02*
X17621927Y-62451804D01*
X17621927Y-62451804D02*
X17621927Y-62556566D01*
X17621927Y-62556566D02*
X17659641Y-62713709D01*
X17659641Y-62713709D02*
X18112213Y-63342280D01*
X18112213Y-63342280D02*
X17621927Y-63342280D01*
X16905355Y-63342280D02*
X17282498Y-63342280D01*
X17282498Y-63342280D02*
X17282498Y-62242280D01*
X15472212Y-62189900D02*
X16151069Y-63604185D01*
X14642497Y-63027995D02*
X14265355Y-63027995D01*
X14717926Y-63342280D02*
X14453926Y-62242280D01*
X14453926Y-62242280D02*
X14189926Y-63342280D01*
X13586498Y-62608947D02*
X13586498Y-63499423D01*
X13586498Y-63499423D02*
X13624212Y-63604185D01*
X13624212Y-63604185D02*
X13661926Y-63656566D01*
X13661926Y-63656566D02*
X13737355Y-63708947D01*
X13737355Y-63708947D02*
X13850498Y-63708947D01*
X13850498Y-63708947D02*
X13925926Y-63656566D01*
X13586498Y-63289900D02*
X13661926Y-63342280D01*
X13661926Y-63342280D02*
X13812783Y-63342280D01*
X13812783Y-63342280D02*
X13888212Y-63289900D01*
X13888212Y-63289900D02*
X13925926Y-63237519D01*
X13925926Y-63237519D02*
X13963640Y-63132757D01*
X13963640Y-63132757D02*
X13963640Y-62818471D01*
X13963640Y-62818471D02*
X13925926Y-62713709D01*
X13925926Y-62713709D02*
X13888212Y-62661328D01*
X13888212Y-62661328D02*
X13812783Y-62608947D01*
X13812783Y-62608947D02*
X13661926Y-62608947D01*
X13661926Y-62608947D02*
X13586498Y-62661328D01*
X30557928Y-65466090D02*
X30444785Y-65518471D01*
X30444785Y-65518471D02*
X30407071Y-65570852D01*
X30407071Y-65570852D02*
X30369357Y-65675614D01*
X30369357Y-65675614D02*
X30369357Y-65832757D01*
X30369357Y-65832757D02*
X30407071Y-65937519D01*
X30407071Y-65937519D02*
X30444785Y-65989900D01*
X30444785Y-65989900D02*
X30520214Y-66042280D01*
X30520214Y-66042280D02*
X30821928Y-66042280D01*
X30821928Y-66042280D02*
X30821928Y-64942280D01*
X30821928Y-64942280D02*
X30557928Y-64942280D01*
X30557928Y-64942280D02*
X30482500Y-64994661D01*
X30482500Y-64994661D02*
X30444785Y-65047042D01*
X30444785Y-65047042D02*
X30407071Y-65151804D01*
X30407071Y-65151804D02*
X30407071Y-65256566D01*
X30407071Y-65256566D02*
X30444785Y-65361328D01*
X30444785Y-65361328D02*
X30482500Y-65413709D01*
X30482500Y-65413709D02*
X30557928Y-65466090D01*
X30557928Y-65466090D02*
X30821928Y-65466090D01*
X29879071Y-64942280D02*
X29728214Y-64942280D01*
X29728214Y-64942280D02*
X29652785Y-64994661D01*
X29652785Y-64994661D02*
X29577357Y-65099423D01*
X29577357Y-65099423D02*
X29539642Y-65308947D01*
X29539642Y-65308947D02*
X29539642Y-65675614D01*
X29539642Y-65675614D02*
X29577357Y-65885138D01*
X29577357Y-65885138D02*
X29652785Y-65989900D01*
X29652785Y-65989900D02*
X29728214Y-66042280D01*
X29728214Y-66042280D02*
X29879071Y-66042280D01*
X29879071Y-66042280D02*
X29954500Y-65989900D01*
X29954500Y-65989900D02*
X30029928Y-65885138D01*
X30029928Y-65885138D02*
X30067642Y-65675614D01*
X30067642Y-65675614D02*
X30067642Y-65308947D01*
X30067642Y-65308947D02*
X30029928Y-65099423D01*
X30029928Y-65099423D02*
X29954500Y-64994661D01*
X29954500Y-64994661D02*
X29879071Y-64942280D01*
X29200214Y-66042280D02*
X29200214Y-64942280D01*
X29200214Y-64942280D02*
X28747643Y-66042280D01*
X28747643Y-66042280D02*
X28747643Y-64942280D01*
X28370500Y-66042280D02*
X28370500Y-64942280D01*
X28370500Y-64942280D02*
X28181929Y-64942280D01*
X28181929Y-64942280D02*
X28068786Y-64994661D01*
X28068786Y-64994661D02*
X27993357Y-65099423D01*
X27993357Y-65099423D02*
X27955643Y-65204185D01*
X27955643Y-65204185D02*
X27917929Y-65413709D01*
X27917929Y-65413709D02*
X27917929Y-65570852D01*
X27917929Y-65570852D02*
X27955643Y-65780376D01*
X27955643Y-65780376D02*
X27993357Y-65885138D01*
X27993357Y-65885138D02*
X28068786Y-65989900D01*
X28068786Y-65989900D02*
X28181929Y-66042280D01*
X28181929Y-66042280D02*
X28370500Y-66042280D01*
X27088214Y-64942280D02*
X26635643Y-64942280D01*
X26861928Y-66042280D02*
X26861928Y-64942280D01*
X26220785Y-64942280D02*
X26069928Y-64942280D01*
X26069928Y-64942280D02*
X25994499Y-64994661D01*
X25994499Y-64994661D02*
X25919071Y-65099423D01*
X25919071Y-65099423D02*
X25881356Y-65308947D01*
X25881356Y-65308947D02*
X25881356Y-65675614D01*
X25881356Y-65675614D02*
X25919071Y-65885138D01*
X25919071Y-65885138D02*
X25994499Y-65989900D01*
X25994499Y-65989900D02*
X26069928Y-66042280D01*
X26069928Y-66042280D02*
X26220785Y-66042280D01*
X26220785Y-66042280D02*
X26296214Y-65989900D01*
X26296214Y-65989900D02*
X26371642Y-65885138D01*
X26371642Y-65885138D02*
X26409356Y-65675614D01*
X26409356Y-65675614D02*
X26409356Y-65308947D01*
X26409356Y-65308947D02*
X26371642Y-65099423D01*
X26371642Y-65099423D02*
X26296214Y-64994661D01*
X26296214Y-64994661D02*
X26220785Y-64942280D01*
X24523642Y-64994661D02*
X24599071Y-64942280D01*
X24599071Y-64942280D02*
X24712213Y-64942280D01*
X24712213Y-64942280D02*
X24825356Y-64994661D01*
X24825356Y-64994661D02*
X24900785Y-65099423D01*
X24900785Y-65099423D02*
X24938499Y-65204185D01*
X24938499Y-65204185D02*
X24976213Y-65413709D01*
X24976213Y-65413709D02*
X24976213Y-65570852D01*
X24976213Y-65570852D02*
X24938499Y-65780376D01*
X24938499Y-65780376D02*
X24900785Y-65885138D01*
X24900785Y-65885138D02*
X24825356Y-65989900D01*
X24825356Y-65989900D02*
X24712213Y-66042280D01*
X24712213Y-66042280D02*
X24636785Y-66042280D01*
X24636785Y-66042280D02*
X24523642Y-65989900D01*
X24523642Y-65989900D02*
X24485928Y-65937519D01*
X24485928Y-65937519D02*
X24485928Y-65570852D01*
X24485928Y-65570852D02*
X24636785Y-65570852D01*
X23693928Y-66042280D02*
X23957928Y-65518471D01*
X24146499Y-66042280D02*
X24146499Y-64942280D01*
X24146499Y-64942280D02*
X23844785Y-64942280D01*
X23844785Y-64942280D02*
X23769356Y-64994661D01*
X23769356Y-64994661D02*
X23731642Y-65047042D01*
X23731642Y-65047042D02*
X23693928Y-65151804D01*
X23693928Y-65151804D02*
X23693928Y-65308947D01*
X23693928Y-65308947D02*
X23731642Y-65413709D01*
X23731642Y-65413709D02*
X23769356Y-65466090D01*
X23769356Y-65466090D02*
X23844785Y-65518471D01*
X23844785Y-65518471D02*
X24146499Y-65518471D01*
X23203642Y-64942280D02*
X23052785Y-64942280D01*
X23052785Y-64942280D02*
X22977356Y-64994661D01*
X22977356Y-64994661D02*
X22901928Y-65099423D01*
X22901928Y-65099423D02*
X22864213Y-65308947D01*
X22864213Y-65308947D02*
X22864213Y-65675614D01*
X22864213Y-65675614D02*
X22901928Y-65885138D01*
X22901928Y-65885138D02*
X22977356Y-65989900D01*
X22977356Y-65989900D02*
X23052785Y-66042280D01*
X23052785Y-66042280D02*
X23203642Y-66042280D01*
X23203642Y-66042280D02*
X23279071Y-65989900D01*
X23279071Y-65989900D02*
X23354499Y-65885138D01*
X23354499Y-65885138D02*
X23392213Y-65675614D01*
X23392213Y-65675614D02*
X23392213Y-65308947D01*
X23392213Y-65308947D02*
X23354499Y-65099423D01*
X23354499Y-65099423D02*
X23279071Y-64994661D01*
X23279071Y-64994661D02*
X23203642Y-64942280D01*
X22524785Y-64942280D02*
X22524785Y-65832757D01*
X22524785Y-65832757D02*
X22487071Y-65937519D01*
X22487071Y-65937519D02*
X22449357Y-65989900D01*
X22449357Y-65989900D02*
X22373928Y-66042280D01*
X22373928Y-66042280D02*
X22223071Y-66042280D01*
X22223071Y-66042280D02*
X22147642Y-65989900D01*
X22147642Y-65989900D02*
X22109928Y-65937519D01*
X22109928Y-65937519D02*
X22072214Y-65832757D01*
X22072214Y-65832757D02*
X22072214Y-64942280D01*
X21695071Y-66042280D02*
X21695071Y-64942280D01*
X21695071Y-64942280D02*
X21242500Y-66042280D01*
X21242500Y-66042280D02*
X21242500Y-64942280D01*
X20865357Y-66042280D02*
X20865357Y-64942280D01*
X20865357Y-64942280D02*
X20676786Y-64942280D01*
X20676786Y-64942280D02*
X20563643Y-64994661D01*
X20563643Y-64994661D02*
X20488214Y-65099423D01*
X20488214Y-65099423D02*
X20450500Y-65204185D01*
X20450500Y-65204185D02*
X20412786Y-65413709D01*
X20412786Y-65413709D02*
X20412786Y-65570852D01*
X20412786Y-65570852D02*
X20450500Y-65780376D01*
X20450500Y-65780376D02*
X20488214Y-65885138D01*
X20488214Y-65885138D02*
X20563643Y-65989900D01*
X20563643Y-65989900D02*
X20676786Y-66042280D01*
X20676786Y-66042280D02*
X20865357Y-66042280D01*
X19469928Y-66042280D02*
X19469928Y-64942280D01*
X19469928Y-64942280D02*
X19168214Y-64942280D01*
X19168214Y-64942280D02*
X19092785Y-64994661D01*
X19092785Y-64994661D02*
X19055071Y-65047042D01*
X19055071Y-65047042D02*
X19017357Y-65151804D01*
X19017357Y-65151804D02*
X19017357Y-65308947D01*
X19017357Y-65308947D02*
X19055071Y-65413709D01*
X19055071Y-65413709D02*
X19092785Y-65466090D01*
X19092785Y-65466090D02*
X19168214Y-65518471D01*
X19168214Y-65518471D02*
X19469928Y-65518471D01*
X18300785Y-66042280D02*
X18677928Y-66042280D01*
X18677928Y-66042280D02*
X18677928Y-64942280D01*
X18074499Y-65727995D02*
X17697357Y-65727995D01*
X18149928Y-66042280D02*
X17885928Y-64942280D01*
X17885928Y-64942280D02*
X17621928Y-66042280D01*
X17471071Y-64942280D02*
X17018500Y-64942280D01*
X17244785Y-66042280D02*
X17244785Y-64942280D01*
X16754499Y-65466090D02*
X16490499Y-65466090D01*
X16377356Y-66042280D02*
X16754499Y-66042280D01*
X16754499Y-66042280D02*
X16754499Y-64942280D01*
X16754499Y-64942280D02*
X16377356Y-64942280D01*
X31538500Y-67747042D02*
X31500786Y-67694661D01*
X31500786Y-67694661D02*
X31425358Y-67642280D01*
X31425358Y-67642280D02*
X31236786Y-67642280D01*
X31236786Y-67642280D02*
X31161358Y-67694661D01*
X31161358Y-67694661D02*
X31123643Y-67747042D01*
X31123643Y-67747042D02*
X31085929Y-67851804D01*
X31085929Y-67851804D02*
X31085929Y-67956566D01*
X31085929Y-67956566D02*
X31123643Y-68113709D01*
X31123643Y-68113709D02*
X31576215Y-68742280D01*
X31576215Y-68742280D02*
X31085929Y-68742280D01*
X30369357Y-67642280D02*
X30746500Y-67642280D01*
X30746500Y-67642280D02*
X30784214Y-68166090D01*
X30784214Y-68166090D02*
X30746500Y-68113709D01*
X30746500Y-68113709D02*
X30671072Y-68061328D01*
X30671072Y-68061328D02*
X30482500Y-68061328D01*
X30482500Y-68061328D02*
X30407072Y-68113709D01*
X30407072Y-68113709D02*
X30369357Y-68166090D01*
X30369357Y-68166090D02*
X30331643Y-68270852D01*
X30331643Y-68270852D02*
X30331643Y-68532757D01*
X30331643Y-68532757D02*
X30369357Y-68637519D01*
X30369357Y-68637519D02*
X30407072Y-68689900D01*
X30407072Y-68689900D02*
X30482500Y-68742280D01*
X30482500Y-68742280D02*
X30671072Y-68742280D01*
X30671072Y-68742280D02*
X30746500Y-68689900D01*
X30746500Y-68689900D02*
X30784214Y-68637519D01*
X29388785Y-68742280D02*
X29388785Y-68008947D01*
X29388785Y-68113709D02*
X29351071Y-68061328D01*
X29351071Y-68061328D02*
X29275642Y-68008947D01*
X29275642Y-68008947D02*
X29162499Y-68008947D01*
X29162499Y-68008947D02*
X29087071Y-68061328D01*
X29087071Y-68061328D02*
X29049357Y-68166090D01*
X29049357Y-68166090D02*
X29049357Y-68742280D01*
X29049357Y-68166090D02*
X29011642Y-68061328D01*
X29011642Y-68061328D02*
X28936214Y-68008947D01*
X28936214Y-68008947D02*
X28823071Y-68008947D01*
X28823071Y-68008947D02*
X28747642Y-68061328D01*
X28747642Y-68061328D02*
X28709928Y-68166090D01*
X28709928Y-68166090D02*
X28709928Y-68742280D01*
X28332785Y-68742280D02*
X28332785Y-68008947D01*
X28332785Y-68113709D02*
X28295071Y-68061328D01*
X28295071Y-68061328D02*
X28219642Y-68008947D01*
X28219642Y-68008947D02*
X28106499Y-68008947D01*
X28106499Y-68008947D02*
X28031071Y-68061328D01*
X28031071Y-68061328D02*
X27993357Y-68166090D01*
X27993357Y-68166090D02*
X27993357Y-68742280D01*
X27993357Y-68166090D02*
X27955642Y-68061328D01*
X27955642Y-68061328D02*
X27880214Y-68008947D01*
X27880214Y-68008947D02*
X27767071Y-68008947D01*
X27767071Y-68008947D02*
X27691642Y-68061328D01*
X27691642Y-68061328D02*
X27653928Y-68166090D01*
X27653928Y-68166090D02*
X27653928Y-68742280D01*
X26673356Y-68742280D02*
X26673356Y-67642280D01*
X26673356Y-67642280D02*
X26371642Y-67642280D01*
X26371642Y-67642280D02*
X26296213Y-67694661D01*
X26296213Y-67694661D02*
X26258499Y-67747042D01*
X26258499Y-67747042D02*
X26220785Y-67851804D01*
X26220785Y-67851804D02*
X26220785Y-68008947D01*
X26220785Y-68008947D02*
X26258499Y-68113709D01*
X26258499Y-68113709D02*
X26296213Y-68166090D01*
X26296213Y-68166090D02*
X26371642Y-68218471D01*
X26371642Y-68218471D02*
X26673356Y-68218471D01*
X25919070Y-68427995D02*
X25541928Y-68427995D01*
X25994499Y-68742280D02*
X25730499Y-67642280D01*
X25730499Y-67642280D02*
X25466499Y-68742280D01*
X25240213Y-68689900D02*
X25127071Y-68742280D01*
X25127071Y-68742280D02*
X24938499Y-68742280D01*
X24938499Y-68742280D02*
X24863071Y-68689900D01*
X24863071Y-68689900D02*
X24825356Y-68637519D01*
X24825356Y-68637519D02*
X24787642Y-68532757D01*
X24787642Y-68532757D02*
X24787642Y-68427995D01*
X24787642Y-68427995D02*
X24825356Y-68323233D01*
X24825356Y-68323233D02*
X24863071Y-68270852D01*
X24863071Y-68270852D02*
X24938499Y-68218471D01*
X24938499Y-68218471D02*
X25089356Y-68166090D01*
X25089356Y-68166090D02*
X25164785Y-68113709D01*
X25164785Y-68113709D02*
X25202499Y-68061328D01*
X25202499Y-68061328D02*
X25240213Y-67956566D01*
X25240213Y-67956566D02*
X25240213Y-67851804D01*
X25240213Y-67851804D02*
X25202499Y-67747042D01*
X25202499Y-67747042D02*
X25164785Y-67694661D01*
X25164785Y-67694661D02*
X25089356Y-67642280D01*
X25089356Y-67642280D02*
X24900785Y-67642280D01*
X24900785Y-67642280D02*
X24787642Y-67694661D01*
X24561356Y-67642280D02*
X24108785Y-67642280D01*
X24335070Y-68742280D02*
X24335070Y-67642280D01*
X23241355Y-68166090D02*
X22977355Y-68166090D01*
X22864212Y-68742280D02*
X23241355Y-68742280D01*
X23241355Y-68742280D02*
X23241355Y-67642280D01*
X23241355Y-67642280D02*
X22864212Y-67642280D01*
X22637927Y-67642280D02*
X22373927Y-68742280D01*
X22373927Y-68742280D02*
X22109927Y-67642280D01*
X21845927Y-68166090D02*
X21581927Y-68166090D01*
X21468784Y-68742280D02*
X21845927Y-68742280D01*
X21845927Y-68742280D02*
X21845927Y-67642280D01*
X21845927Y-67642280D02*
X21468784Y-67642280D01*
X20676785Y-68742280D02*
X20940785Y-68218471D01*
X21129356Y-68742280D02*
X21129356Y-67642280D01*
X21129356Y-67642280D02*
X20827642Y-67642280D01*
X20827642Y-67642280D02*
X20752213Y-67694661D01*
X20752213Y-67694661D02*
X20714499Y-67747042D01*
X20714499Y-67747042D02*
X20676785Y-67851804D01*
X20676785Y-67851804D02*
X20676785Y-68008947D01*
X20676785Y-68008947D02*
X20714499Y-68113709D01*
X20714499Y-68113709D02*
X20752213Y-68166090D01*
X20752213Y-68166090D02*
X20827642Y-68218471D01*
X20827642Y-68218471D02*
X21129356Y-68218471D01*
X20186499Y-68218471D02*
X20186499Y-68742280D01*
X20450499Y-67642280D02*
X20186499Y-68218471D01*
X20186499Y-68218471D02*
X19922499Y-67642280D01*
X19055070Y-68742280D02*
X19055070Y-67642280D01*
X19055070Y-67642280D02*
X18753356Y-67642280D01*
X18753356Y-67642280D02*
X18677927Y-67694661D01*
X18677927Y-67694661D02*
X18640213Y-67747042D01*
X18640213Y-67747042D02*
X18602499Y-67851804D01*
X18602499Y-67851804D02*
X18602499Y-68008947D01*
X18602499Y-68008947D02*
X18640213Y-68113709D01*
X18640213Y-68113709D02*
X18677927Y-68166090D01*
X18677927Y-68166090D02*
X18753356Y-68218471D01*
X18753356Y-68218471D02*
X19055070Y-68218471D01*
X18300784Y-68427995D02*
X17923642Y-68427995D01*
X18376213Y-68742280D02*
X18112213Y-67642280D01*
X18112213Y-67642280D02*
X17848213Y-68742280D01*
X17697356Y-67642280D02*
X17244785Y-67642280D01*
X17471070Y-68742280D02*
X17471070Y-67642280D01*
X16528213Y-68637519D02*
X16565927Y-68689900D01*
X16565927Y-68689900D02*
X16679070Y-68742280D01*
X16679070Y-68742280D02*
X16754498Y-68742280D01*
X16754498Y-68742280D02*
X16867641Y-68689900D01*
X16867641Y-68689900D02*
X16943070Y-68585138D01*
X16943070Y-68585138D02*
X16980784Y-68480376D01*
X16980784Y-68480376D02*
X17018498Y-68270852D01*
X17018498Y-68270852D02*
X17018498Y-68113709D01*
X17018498Y-68113709D02*
X16980784Y-67904185D01*
X16980784Y-67904185D02*
X16943070Y-67799423D01*
X16943070Y-67799423D02*
X16867641Y-67694661D01*
X16867641Y-67694661D02*
X16754498Y-67642280D01*
X16754498Y-67642280D02*
X16679070Y-67642280D01*
X16679070Y-67642280D02*
X16565927Y-67694661D01*
X16565927Y-67694661D02*
X16528213Y-67747042D01*
X16188784Y-68742280D02*
X16188784Y-67642280D01*
X16188784Y-68166090D02*
X15736213Y-68166090D01*
X15736213Y-68742280D02*
X15736213Y-67642280D01*
D12*
X34480213Y-56069690D02*
X35028785Y-56069690D01*
X35028785Y-56069690D02*
X35083642Y-56831595D01*
X35083642Y-56831595D02*
X35028785Y-56755404D01*
X35028785Y-56755404D02*
X34919071Y-56679214D01*
X34919071Y-56679214D02*
X34644785Y-56679214D01*
X34644785Y-56679214D02*
X34535071Y-56755404D01*
X34535071Y-56755404D02*
X34480213Y-56831595D01*
X34480213Y-56831595D02*
X34425356Y-56983976D01*
X34425356Y-56983976D02*
X34425356Y-57364928D01*
X34425356Y-57364928D02*
X34480213Y-57517309D01*
X34480213Y-57517309D02*
X34535071Y-57593500D01*
X34535071Y-57593500D02*
X34644785Y-57669690D01*
X34644785Y-57669690D02*
X34919071Y-57669690D01*
X34919071Y-57669690D02*
X35028785Y-57593500D01*
X35028785Y-57593500D02*
X35083642Y-57517309D01*
X33931642Y-57517309D02*
X33876785Y-57593500D01*
X33876785Y-57593500D02*
X33931642Y-57669690D01*
X33931642Y-57669690D02*
X33986499Y-57593500D01*
X33986499Y-57593500D02*
X33931642Y-57517309D01*
X33931642Y-57517309D02*
X33931642Y-57669690D01*
X33218499Y-56755404D02*
X33328214Y-56679214D01*
X33328214Y-56679214D02*
X33383071Y-56603023D01*
X33383071Y-56603023D02*
X33437928Y-56450642D01*
X33437928Y-56450642D02*
X33437928Y-56374452D01*
X33437928Y-56374452D02*
X33383071Y-56222071D01*
X33383071Y-56222071D02*
X33328214Y-56145880D01*
X33328214Y-56145880D02*
X33218499Y-56069690D01*
X33218499Y-56069690D02*
X32999071Y-56069690D01*
X32999071Y-56069690D02*
X32889357Y-56145880D01*
X32889357Y-56145880D02*
X32834499Y-56222071D01*
X32834499Y-56222071D02*
X32779642Y-56374452D01*
X32779642Y-56374452D02*
X32779642Y-56450642D01*
X32779642Y-56450642D02*
X32834499Y-56603023D01*
X32834499Y-56603023D02*
X32889357Y-56679214D01*
X32889357Y-56679214D02*
X32999071Y-56755404D01*
X32999071Y-56755404D02*
X33218499Y-56755404D01*
X33218499Y-56755404D02*
X33328214Y-56831595D01*
X33328214Y-56831595D02*
X33383071Y-56907785D01*
X33383071Y-56907785D02*
X33437928Y-57060166D01*
X33437928Y-57060166D02*
X33437928Y-57364928D01*
X33437928Y-57364928D02*
X33383071Y-57517309D01*
X33383071Y-57517309D02*
X33328214Y-57593500D01*
X33328214Y-57593500D02*
X33218499Y-57669690D01*
X33218499Y-57669690D02*
X32999071Y-57669690D01*
X32999071Y-57669690D02*
X32889357Y-57593500D01*
X32889357Y-57593500D02*
X32834499Y-57517309D01*
X32834499Y-57517309D02*
X32779642Y-57364928D01*
X32779642Y-57364928D02*
X32779642Y-57060166D01*
X32779642Y-57060166D02*
X32834499Y-56907785D01*
X32834499Y-56907785D02*
X32889357Y-56831595D01*
X32889357Y-56831595D02*
X32999071Y-56755404D01*
X30804785Y-56145880D02*
X30914500Y-56069690D01*
X30914500Y-56069690D02*
X31079071Y-56069690D01*
X31079071Y-56069690D02*
X31243642Y-56145880D01*
X31243642Y-56145880D02*
X31353357Y-56298261D01*
X31353357Y-56298261D02*
X31408214Y-56450642D01*
X31408214Y-56450642D02*
X31463071Y-56755404D01*
X31463071Y-56755404D02*
X31463071Y-56983976D01*
X31463071Y-56983976D02*
X31408214Y-57288738D01*
X31408214Y-57288738D02*
X31353357Y-57441119D01*
X31353357Y-57441119D02*
X31243642Y-57593500D01*
X31243642Y-57593500D02*
X31079071Y-57669690D01*
X31079071Y-57669690D02*
X30969357Y-57669690D01*
X30969357Y-57669690D02*
X30804785Y-57593500D01*
X30804785Y-57593500D02*
X30749928Y-57517309D01*
X30749928Y-57517309D02*
X30749928Y-56983976D01*
X30749928Y-56983976D02*
X30969357Y-56983976D01*
X30256214Y-57669690D02*
X30256214Y-56069690D01*
X30256214Y-56831595D02*
X29597928Y-56831595D01*
X29597928Y-57669690D02*
X29597928Y-56069690D01*
X29159071Y-56603023D02*
X28555643Y-56603023D01*
X28555643Y-56603023D02*
X29159071Y-57669690D01*
X29159071Y-57669690D02*
X28555643Y-57669690D01*
X26580786Y-57669690D02*
X26964786Y-56907785D01*
X27239072Y-57669690D02*
X27239072Y-56069690D01*
X27239072Y-56069690D02*
X26800215Y-56069690D01*
X26800215Y-56069690D02*
X26690500Y-56145880D01*
X26690500Y-56145880D02*
X26635643Y-56222071D01*
X26635643Y-56222071D02*
X26580786Y-56374452D01*
X26580786Y-56374452D02*
X26580786Y-56603023D01*
X26580786Y-56603023D02*
X26635643Y-56755404D01*
X26635643Y-56755404D02*
X26690500Y-56831595D01*
X26690500Y-56831595D02*
X26800215Y-56907785D01*
X26800215Y-56907785D02*
X27239072Y-56907785D01*
X26141929Y-57212547D02*
X25593358Y-57212547D01*
X26251643Y-57669690D02*
X25867643Y-56069690D01*
X25867643Y-56069690D02*
X25483643Y-57669690D01*
X25099643Y-57669690D02*
X25099643Y-56069690D01*
X25099643Y-56069690D02*
X24825357Y-56069690D01*
X24825357Y-56069690D02*
X24660786Y-56145880D01*
X24660786Y-56145880D02*
X24551071Y-56298261D01*
X24551071Y-56298261D02*
X24496214Y-56450642D01*
X24496214Y-56450642D02*
X24441357Y-56755404D01*
X24441357Y-56755404D02*
X24441357Y-56983976D01*
X24441357Y-56983976D02*
X24496214Y-57288738D01*
X24496214Y-57288738D02*
X24551071Y-57441119D01*
X24551071Y-57441119D02*
X24660786Y-57593500D01*
X24660786Y-57593500D02*
X24825357Y-57669690D01*
X24825357Y-57669690D02*
X25099643Y-57669690D01*
X24002500Y-57212547D02*
X23453929Y-57212547D01*
X24112214Y-57669690D02*
X23728214Y-56069690D01*
X23728214Y-56069690D02*
X23344214Y-57669690D01*
X22301928Y-57669690D02*
X22685928Y-56907785D01*
X22960214Y-57669690D02*
X22960214Y-56069690D01*
X22960214Y-56069690D02*
X22521357Y-56069690D01*
X22521357Y-56069690D02*
X22411642Y-56145880D01*
X22411642Y-56145880D02*
X22356785Y-56222071D01*
X22356785Y-56222071D02*
X22301928Y-56374452D01*
X22301928Y-56374452D02*
X22301928Y-56603023D01*
X22301928Y-56603023D02*
X22356785Y-56755404D01*
X22356785Y-56755404D02*
X22411642Y-56831595D01*
X22411642Y-56831595D02*
X22521357Y-56907785D01*
X22521357Y-56907785D02*
X22960214Y-56907785D01*
X20930500Y-57060166D02*
X20052786Y-57060166D01*
X17968214Y-57669690D02*
X18352214Y-56907785D01*
X18626500Y-57669690D02*
X18626500Y-56069690D01*
X18626500Y-56069690D02*
X18187643Y-56069690D01*
X18187643Y-56069690D02*
X18077928Y-56145880D01*
X18077928Y-56145880D02*
X18023071Y-56222071D01*
X18023071Y-56222071D02*
X17968214Y-56374452D01*
X17968214Y-56374452D02*
X17968214Y-56603023D01*
X17968214Y-56603023D02*
X18023071Y-56755404D01*
X18023071Y-56755404D02*
X18077928Y-56831595D01*
X18077928Y-56831595D02*
X18187643Y-56907785D01*
X18187643Y-56907785D02*
X18626500Y-56907785D01*
X17474500Y-56831595D02*
X17090500Y-56831595D01*
X16925928Y-57669690D02*
X17474500Y-57669690D01*
X17474500Y-57669690D02*
X17474500Y-56069690D01*
X17474500Y-56069690D02*
X16925928Y-56069690D01*
X15773928Y-57517309D02*
X15828785Y-57593500D01*
X15828785Y-57593500D02*
X15993357Y-57669690D01*
X15993357Y-57669690D02*
X16103071Y-57669690D01*
X16103071Y-57669690D02*
X16267642Y-57593500D01*
X16267642Y-57593500D02*
X16377357Y-57441119D01*
X16377357Y-57441119D02*
X16432214Y-57288738D01*
X16432214Y-57288738D02*
X16487071Y-56983976D01*
X16487071Y-56983976D02*
X16487071Y-56755404D01*
X16487071Y-56755404D02*
X16432214Y-56450642D01*
X16432214Y-56450642D02*
X16377357Y-56298261D01*
X16377357Y-56298261D02*
X16267642Y-56145880D01*
X16267642Y-56145880D02*
X16103071Y-56069690D01*
X16103071Y-56069690D02*
X15993357Y-56069690D01*
X15993357Y-56069690D02*
X15828785Y-56145880D01*
X15828785Y-56145880D02*
X15773928Y-56222071D01*
X15280214Y-56831595D02*
X14896214Y-56831595D01*
X14731642Y-57669690D02*
X15280214Y-57669690D01*
X15280214Y-57669690D02*
X15280214Y-56069690D01*
X15280214Y-56069690D02*
X14731642Y-56069690D01*
X14237928Y-57669690D02*
X14237928Y-56069690D01*
X13853928Y-56069690D02*
X13469928Y-57669690D01*
X13469928Y-57669690D02*
X13085928Y-56069690D01*
X12701928Y-56831595D02*
X12317928Y-56831595D01*
X12153356Y-57669690D02*
X12701928Y-57669690D01*
X12701928Y-57669690D02*
X12701928Y-56069690D01*
X12701928Y-56069690D02*
X12153356Y-56069690D01*
M02*
