%TF.GenerationSoftware,KiCad,Pcbnew,10.0.5*%
%TF.CreationDate,2026-08-09T16:14:06+01:00*%
%TF.ProjectId,radar_5g8_receive,72616461-725f-4356-9738-5f7265636569,rev?*%
%TF.SameCoordinates,Original*%
%TF.FileFunction,Soldermask,Top*%
%TF.FilePolarity,Negative*%
%FSLAX46Y46*%
G04 Gerber Fmt 4.6, Leading zero omitted, Abs format (unit mm)*
G04 Created by KiCad (PCBNEW 10.0.5) date 2026-08-09 16:14:06*
%MOMM*%
%LPD*%
G01*
G04 APERTURE LIST*
G04 Aperture macros list*
%AMRoundRect*
0 Rectangle with rounded corners*
0 $1 Rounding radius*
0 $2 $3 $4 $5 $6 $7 $8 $9 X,Y pos of 4 corners*
0 Add a 4 corners polygon primitive as box body*
4,1,4,$2,$3,$4,$5,$6,$7,$8,$9,$2,$3,0*
0 Add four circle primitives for the rounded corners*
1,1,$1+$1,$2,$3*
1,1,$1+$1,$4,$5*
1,1,$1+$1,$6,$7*
1,1,$1+$1,$8,$9*
0 Add four rect primitives between the rounded corners*
20,1,$1+$1,$2,$3,$4,$5,0*
20,1,$1+$1,$4,$5,$6,$7,0*
20,1,$1+$1,$6,$7,$8,$9,0*
20,1,$1+$1,$8,$9,$2,$3,0*%
G04 Aperture macros list end*
%ADD10C,0.000000*%
%ADD11RoundRect,0.050000X0.310000X-0.310000X0.310000X0.310000X-0.310000X0.310000X-0.310000X-0.310000X0*%
%ADD12RoundRect,0.050000X-1.150000X-0.926764X1.150000X-0.926764X1.150000X0.926764X-1.150000X0.926764X0*%
%ADD13RoundRect,0.050000X-1.450000X-1.300000X1.450000X-1.300000X1.450000X1.300000X-1.450000X1.300000X0*%
%ADD14C,6.100000*%
%ADD15RoundRect,0.050000X-0.310000X-0.310000X0.310000X-0.310000X0.310000X0.310000X-0.310000X0.310000X0*%
G04 APERTURE END LIST*
D10*
G36*
X7000000Y-13292379D02*
G01*
X0Y-13292379D01*
X0Y-7898073D01*
X7000000Y-7898073D01*
X7000000Y-13292379D01*
G37*
G36*
X7000000Y-63336286D02*
G01*
X0Y-63336286D01*
X0Y-57941980D01*
X7000000Y-57941980D01*
X7000000Y-63336286D01*
G37*
G36*
X7000000Y-15974837D02*
G01*
X6340000Y-15974837D01*
X6340000Y-16115807D01*
X0Y-16115807D01*
X0Y-13680339D01*
X7000000Y-13680339D01*
X7000000Y-15974837D01*
G37*
G36*
X7000000Y-66018744D02*
G01*
X6340000Y-66018744D01*
X6340000Y-66159714D01*
X0Y-66159714D01*
X0Y-63724246D01*
X7000000Y-63724246D01*
X7000000Y-66018744D01*
G37*
G36*
X6340000Y-17144837D02*
G01*
X6340000Y-18464837D01*
X7000000Y-18464837D01*
X7000000Y-21898073D01*
X0Y-21898073D01*
X0Y-16503767D01*
X6340000Y-16503767D01*
X6340000Y-17144837D01*
G37*
G36*
X6340000Y-67188744D02*
G01*
X6340000Y-68508744D01*
X7000000Y-68508744D01*
X7000000Y-71941980D01*
X0Y-71941980D01*
X0Y-66547674D01*
X6340000Y-66547674D01*
X6340000Y-67188744D01*
G37*
G36*
X39764148Y-3474936D02*
G01*
X39678659Y-3904717D01*
X39650000Y-4341980D01*
X39678659Y-4779242D01*
X39764148Y-5209023D01*
X39905003Y-5623969D01*
X40098814Y-6016980D01*
X40342266Y-6381330D01*
X40631192Y-6710787D01*
X40960649Y-6999713D01*
X41324999Y-7243165D01*
X41718010Y-7436976D01*
X42132956Y-7577831D01*
X42252000Y-7601510D01*
X42252000Y-30555980D01*
X9000016Y-30555980D01*
X9000016Y-3262980D01*
X39836097Y-3262980D01*
X39764148Y-3474936D01*
G37*
G36*
X42252000Y-64082448D02*
G01*
X42132956Y-64106128D01*
X41718010Y-64246983D01*
X41325000Y-64440794D01*
X40960649Y-64684246D01*
X40631192Y-64973172D01*
X40342266Y-65302629D01*
X40098814Y-65666980D01*
X39905003Y-66059990D01*
X39764148Y-66474936D01*
X39678659Y-66904717D01*
X39650000Y-67341980D01*
X39665468Y-67577980D01*
X9000016Y-67577980D01*
X9000016Y-50532692D01*
X9281989Y-50436976D01*
X9675000Y-50243165D01*
X10039350Y-49999713D01*
X10368807Y-49710787D01*
X10657733Y-49381330D01*
X10901185Y-49016980D01*
X11094996Y-48623969D01*
X11235851Y-48209023D01*
X11321340Y-47779242D01*
X11350000Y-47341980D01*
X11321340Y-46904717D01*
X11235851Y-46474936D01*
X11094996Y-46059990D01*
X10901185Y-45666980D01*
X10657733Y-45302629D01*
X10368807Y-44973172D01*
X10039350Y-44684246D01*
X9675000Y-44440794D01*
X9281989Y-44246983D01*
X9000016Y-44151266D01*
X9000016Y-40285980D01*
X42252000Y-40285980D01*
X42252000Y-64082448D01*
G37*
D11*
%TO.C,D2*%
X7000000Y-16634838D03*
X7000000Y-17804836D03*
%TD*%
D12*
%TO.C,RX1*%
X1300000Y-64941980D03*
D13*
X1600000Y-68338644D03*
X1600000Y-61545316D03*
%TD*%
D14*
%TO.C,H5*%
X13000000Y-35341980D03*
%TD*%
D15*
%TO.C,R3*%
X7365016Y-55943749D03*
X6195016Y-55943749D03*
%TD*%
D14*
%TO.C,H3*%
X43000000Y-4341980D03*
%TD*%
%TO.C,H4*%
X8000000Y-47341980D03*
%TD*%
D15*
%TO.C,R4*%
X7365016Y-5899842D03*
X6195016Y-5899842D03*
%TD*%
D14*
%TO.C,H2*%
X43000000Y-67341980D03*
%TD*%
D11*
%TO.C,D1*%
X7000000Y-66678744D03*
X7000000Y-67848744D03*
%TD*%
D14*
%TO.C,H1*%
X4000000Y-26341980D03*
%TD*%
D12*
%TO.C,RX2*%
X1300000Y-14898073D03*
D13*
X1600000Y-18294737D03*
X1600000Y-11501409D03*
%TD*%
M02*
