0
SECTION
2
ENTITIES
0
ARC
8
CUT
10
-158.0000
20
2.0000
40
2.0000
50
180.0000
51
-90.0000
0
LINE
8
CUT
10
-158.0000
20
0.0000
11
158.0000
21
0.0000
0
ARC
8
CUT
10
158.0000
20
2.0000
40
2.0000
50
-90.0000
51
0.0000
0
LINE
8
CUT
10
160.0000
20
2.0000
11
160.0000
21
98.0000
0
ARC
8
CUT
10
158.0000
20
98.0000
40
2.0000
50
0.0000
51
90.0000
0
LINE
8
CUT
10
158.0000
20
100.0000
11
-158.0000
21
100.0000
0
ARC
8
CUT
10
-158.0000
20
98.0000
40
2.0000
50
90.0000
51
180.0000
0
LINE
8
CUT
10
-160.0000
20
98.0000
11
-160.0000
21
2.0000
0
CIRCLE
8
CUT
10
-50.0000
20
12.5000
40
2.2500
0
CIRCLE
8
CUT
10
0.0000
20
12.5000
40
2.2500
0
CIRCLE
8
CUT
10
50.0000
20
12.5000
40
2.2500
0
LINE
8
BEND
10
-100.0000
20
0.0000
11
-100.0000
21
100.0000
0
LINE
8
BEND
10
100.0000
20
0.0000
11
100.0000
21
100.0000
0
LINE
8
BEND
10
-100.0000
20
25.0000
11
100.0000
21
25.0000
0
TEXT
8
NOTE
10
-100.000
20
105.000
40
3.0
1
5.8 GHz RADAR ISOLATION FIN - 1.5 mm AL - BEND UP 90 DEG ON THE THREE MARKED LINES
0
ENDSEC
0
EOF
