0
SECTION
2
ENTITIES
0
ARC
8
CUT
10
3.0000
20
3.0000
40
3.0000
50
180.0000
51
-90.0000
0
LINE
8
CUT
10
3.0000
20
0.0000
11
8.4000
21
0.0000
0
ARC
8
CUT
10
8.4000
20
1.0000
40
1.0000
50
-90.0000
51
0.0000
0
LINE
8
CUT
10
9.4000
20
1.0000
11
9.4000
21
10.0000
0
ARC
8
CUT
10
10.4000
20
10.0000
40
1.0000
50
90.0000
51
180.0000
0
LINE
8
CUT
10
10.4000
20
11.0000
11
22.4000
21
11.0000
0
ARC
8
CUT
10
22.4000
20
10.0000
40
1.0000
50
0.0000
51
90.0000
0
LINE
8
CUT
10
23.4000
20
10.0000
11
23.4000
21
1.0000
0
ARC
8
CUT
10
24.4000
20
1.0000
40
1.0000
50
180.0000
51
-90.0000
0
LINE
8
CUT
10
24.4000
20
0.0000
11
58.4439
21
0.0000
0
ARC
8
CUT
10
58.4439
20
1.0000
40
1.0000
50
-90.0000
51
0.0000
0
LINE
8
CUT
10
59.4439
20
1.0000
11
59.4439
21
10.0000
0
ARC
8
CUT
10
60.4439
20
10.0000
40
1.0000
50
90.0000
51
180.0000
0
LINE
8
CUT
10
60.4439
20
11.0000
11
72.4439
21
11.0000
0
ARC
8
CUT
10
72.4439
20
10.0000
40
1.0000
50
0.0000
51
90.0000
0
LINE
8
CUT
10
73.4439
20
10.0000
11
73.4439
21
1.0000
0
ARC
8
CUT
10
74.4439
20
1.0000
40
1.0000
50
180.0000
51
-90.0000
0
LINE
8
CUT
10
74.4439
20
0.0000
11
88.0000
21
0.0000
0
ARC
8
CUT
10
88.0000
20
3.0000
40
3.0000
50
-90.0000
51
0.0000
0
LINE
8
CUT
10
91.0000
20
3.0000
11
91.0000
21
64.0000
0
ARC
8
CUT
10
88.0000
20
64.0000
40
3.0000
50
0.0000
51
90.0000
0
LINE
8
CUT
10
88.0000
20
67.0000
11
3.0000
21
67.0000
0
ARC
8
CUT
10
3.0000
20
64.0000
40
3.0000
50
90.0000
51
180.0000
0
LINE
8
CUT
10
0.0000
20
64.0000
11
0.0000
21
3.0000
0
CIRCLE
8
CUT
10
14.0000
20
43.0000
40
1.7000
0
CIRCLE
8
CUT
10
77.0000
20
40.0000
40
1.7000
0
CIRCLE
8
CUT
10
44.0000
20
4.0000
40
1.7000
0
CIRCLE
8
CUT
10
53.0000
20
17.0000
40
1.7000
0
CIRCLE
8
CUT
10
39.0000
20
17.0000
40
1.7000
0
CIRCLE
8
CUT
10
5.0000
20
33.5000
40
1.7000
0
CIRCLE
8
CUT
10
86.1710
20
33.5000
40
1.7000
0
CIRCLE
8
CUT
10
29.1200
20
57.1185
40
1.7000
0
CIRCLE
8
CUT
10
61.8800
20
57.1185
40
1.7000
0
TEXT
8
NOTE
10
2.000
20
71.000
40
3.0
1
5.8 GHz RADAR GROUND PLATE - TRANSMIT - 1.5 mm AL
0
ENDSEC
0
EOF
