0
SECTION
2
ENTITIES
0
ARC
8
CUT
10
3.0000
20
3.0000
40
3.0000
50
180.0000
51
-90.0000
0
LINE
8
CUT
10
3.0000
20
0.0000
11
64.0000
21
0.0000
0
ARC
8
CUT
10
64.0000
20
3.0000
40
3.0000
50
-90.0000
51
0.0000
0
LINE
8
CUT
10
67.0000
20
3.0000
11
67.0000
21
88.0000
0
ARC
8
CUT
10
64.0000
20
88.0000
40
3.0000
50
0.0000
51
90.0000
0
LINE
8
CUT
10
64.0000
20
91.0000
11
3.0000
21
91.0000
0
ARC
8
CUT
10
3.0000
20
88.0000
40
3.0000
50
90.0000
51
180.0000
0
LINE
8
CUT
10
0.0000
20
88.0000
11
0.0000
21
74.4707
0
ARC
8
CUT
10
1.0000
20
74.4707
40
1.0000
50
180.0000
51
-90.0000
0
LINE
8
CUT
10
1.0000
20
73.4707
11
10.0000
21
73.4707
0
ARC
8
CUT
10
10.0000
20
72.4707
40
1.0000
50
0.0000
51
90.0000
0
LINE
8
CUT
10
11.0000
20
72.4707
11
11.0000
21
60.4707
0
ARC
8
CUT
10
10.0000
20
60.4707
40
1.0000
50
-90.0000
51
0.0000
0
LINE
8
CUT
10
10.0000
20
59.4707
11
1.0000
21
59.4707
0
ARC
8
CUT
10
1.0000
20
58.4707
40
1.0000
50
90.0000
51
180.0000
0
LINE
8
CUT
10
0.0000
20
58.4707
11
0.0000
21
24.4268
0
ARC
8
CUT
10
1.0000
20
24.4268
40
1.0000
50
180.0000
51
-90.0000
0
LINE
8
CUT
10
1.0000
20
23.4268
11
10.0000
21
23.4268
0
ARC
8
CUT
10
10.0000
20
22.4268
40
1.0000
50
0.0000
51
90.0000
0
LINE
8
CUT
10
11.0000
20
22.4268
11
11.0000
21
10.4268
0
ARC
8
CUT
10
10.0000
20
10.4268
40
1.0000
50
-90.0000
51
0.0000
0
LINE
8
CUT
10
10.0000
20
9.4268
11
1.0000
21
9.4268
0
ARC
8
CUT
10
1.0000
20
8.4268
40
1.0000
50
90.0000
51
180.0000
0
LINE
8
CUT
10
0.0000
20
8.4268
11
0.0000
21
3.0000
0
CIRCLE
8
CUT
10
4.0000
20
54.0000
40
1.7000
0
CIRCLE
8
CUT
10
8.0000
20
34.0000
40
1.7000
0
CIRCLE
8
CUT
10
17.0000
20
46.0000
40
1.7000
0
CIRCLE
8
CUT
10
33.5000
20
5.0000
40
1.7000
0
CIRCLE
8
CUT
10
33.5000
20
86.1844
40
1.7000
0
CIRCLE
8
CUT
10
57.1185
20
29.1200
40
1.7000
0
CIRCLE
8
CUT
10
57.1185
20
61.8800
40
1.7000
0
TEXT
8
NOTE
10
2.000
20
95.000
40
3.0
1
5.8 GHz RADAR GROUND PLATE - RECEIVE - 1.5 mm AL
0
ENDSEC
0
EOF
