%TF.GenerationSoftware,KiCad,Pcbnew,10.0.5*%
%TF.CreationDate,2026-08-09T20:05:27+01:00*%
%TF.ProjectId,radar_5g8_fe,72616461-725f-4356-9738-5f66652e6b69,rev?*%
%TF.SameCoordinates,Original*%
%TF.FileFunction,Copper,L3,Inr*%
%TF.FilePolarity,Positive*%
%FSLAX46Y46*%
G04 Gerber Fmt 4.6, Leading zero omitted, Abs format (unit mm)*
G04 Created by KiCad (PCBNEW 10.0.5) date 2026-08-09 20:05:27*
%MOMM*%
%LPD*%
G01*
G04 APERTURE LIST*
%TA.AperFunction,Conductor*%
%ADD10C,0.000000*%
%TD*%
%TA.AperFunction,ComponentPad*%
%ADD11C,6.000000*%
%TD*%
%TA.AperFunction,ComponentPad*%
%ADD12C,1.700000*%
%TD*%
%TA.AperFunction,ViaPad*%
%ADD13C,0.600000*%
%TD*%
%TA.AperFunction,ViaPad*%
%ADD14C,0.750000*%
%TD*%
%TA.AperFunction,ViaPad*%
%ADD15C,0.550000*%
%TD*%
%TA.AperFunction,ViaPad*%
%ADD16C,0.520000*%
%TD*%
%TA.AperFunction,ViaPad*%
%ADD17C,0.500000*%
%TD*%
%TA.AperFunction,ViaPad*%
%ADD18C,0.650000*%
%TD*%
G04 APERTURE END LIST*
D10*
%TA.AperFunction,Conductor*%
%TO.N,EN*%
G36*
X2800000Y-84000000D02*
G01*
X2400000Y-84000000D01*
X2400000Y-79190000D01*
X2800000Y-79190000D01*
X2800000Y-84000000D01*
G37*
%TD.AperFunction*%
%TA.AperFunction,Conductor*%
G36*
X6550000Y-79390000D02*
G01*
X2600000Y-79390000D01*
X2600000Y-78990000D01*
X6550000Y-78990000D01*
X6550000Y-79390000D01*
G37*
%TD.AperFunction*%
%TA.AperFunction,Conductor*%
G36*
X6750000Y-79190000D02*
G01*
X6350000Y-79190000D01*
X6350000Y-70000000D01*
X6750000Y-70000000D01*
X6750000Y-79190000D01*
G37*
%TD.AperFunction*%
%TA.AperFunction,Conductor*%
G36*
X17000000Y-70200000D02*
G01*
X6550000Y-70200000D01*
X6550000Y-69800000D01*
X17000000Y-69800000D01*
X17000000Y-70200000D01*
G37*
%TD.AperFunction*%
%TA.AperFunction,Conductor*%
%TO.N,V12*%
G36*
X16450000Y-86000000D02*
G01*
X15550000Y-86000000D01*
X15550000Y-81000000D01*
X16450000Y-81000000D01*
X16450000Y-86000000D01*
G37*
%TD.AperFunction*%
%TA.AperFunction,Conductor*%
G36*
X50000000Y-86450000D02*
G01*
X16000000Y-86450000D01*
X16000000Y-85550000D01*
X50000000Y-85550000D01*
X50000000Y-86450000D01*
G37*
%TD.AperFunction*%
%TA.AperFunction,Conductor*%
%TO.N,EN*%
G36*
X17200000Y-70000000D02*
G01*
X16800000Y-70000000D01*
X16800000Y-55000000D01*
X17200000Y-55000000D01*
X17200000Y-70000000D01*
G37*
%TD.AperFunction*%
%TA.AperFunction,Conductor*%
G36*
X63650000Y-55200000D02*
G01*
X17000000Y-55200000D01*
X17000000Y-54800000D01*
X63650000Y-54800000D01*
X63650000Y-55200000D01*
G37*
%TD.AperFunction*%
%TA.AperFunction,Conductor*%
%TO.N,DETD*%
G36*
X36454709Y-45000000D02*
G01*
X36054709Y-45000000D01*
X36054709Y-42273861D01*
X36454709Y-42273861D01*
X36454709Y-45000000D01*
G37*
%TD.AperFunction*%
%TA.AperFunction,Conductor*%
%TO.N,DETC*%
G36*
X36454709Y-57726138D02*
G01*
X36054709Y-57726138D01*
X36054709Y-55600000D01*
X36454709Y-55600000D01*
X36454709Y-57726138D01*
G37*
%TD.AperFunction*%
%TA.AperFunction,Conductor*%
%TO.N,DETD*%
G36*
X63650000Y-45200000D02*
G01*
X36254709Y-45200000D01*
X36254709Y-44800000D01*
X63650000Y-44800000D01*
X63650000Y-45200000D01*
G37*
%TD.AperFunction*%
%TA.AperFunction,Conductor*%
%TO.N,DETC*%
G36*
X66190000Y-55800000D02*
G01*
X36254709Y-55800000D01*
X36254709Y-55400000D01*
X66190000Y-55400000D01*
X66190000Y-55800000D01*
G37*
%TD.AperFunction*%
%TA.AperFunction,Conductor*%
%TO.N,IMONB*%
G36*
X45340000Y-44400000D02*
G01*
X44940000Y-44400000D01*
X44940000Y-22549999D01*
X45340000Y-22549999D01*
X45340000Y-44400000D01*
G37*
%TD.AperFunction*%
%TA.AperFunction,Conductor*%
%TO.N,IMONA*%
G36*
X45340000Y-77450000D02*
G01*
X44940000Y-77450000D01*
X44940000Y-56200000D01*
X45340000Y-56200000D01*
X45340000Y-77450000D01*
G37*
%TD.AperFunction*%
%TA.AperFunction,Conductor*%
%TO.N,IMONB*%
G36*
X66190000Y-44600000D02*
G01*
X45140000Y-44600000D01*
X45140000Y-44199999D01*
X66190000Y-44199999D01*
X66190000Y-44600000D01*
G37*
%TD.AperFunction*%
%TA.AperFunction,Conductor*%
%TO.N,IMONA*%
G36*
X68730000Y-56400000D02*
G01*
X45140000Y-56400000D01*
X45140000Y-56000000D01*
X68730000Y-56000000D01*
X68730000Y-56400000D01*
G37*
%TD.AperFunction*%
%TA.AperFunction,Conductor*%
%TO.N,V12*%
G36*
X50450000Y-86000000D02*
G01*
X49550000Y-86000000D01*
X49550000Y-72000000D01*
X50450000Y-72000000D01*
X50450000Y-86000000D01*
G37*
%TD.AperFunction*%
%TA.AperFunction,Conductor*%
%TO.N,TEMPB*%
G36*
X55950000Y-43800000D02*
G01*
X55550000Y-43800000D01*
X55550000Y-10599999D01*
X55950000Y-10599999D01*
X55950000Y-43800000D01*
G37*
%TD.AperFunction*%
%TA.AperFunction,Conductor*%
%TO.N,TEMPA*%
G36*
X55950000Y-89400000D02*
G01*
X55550000Y-89400000D01*
X55550000Y-56800000D01*
X55950000Y-56800000D01*
X55950000Y-89400000D01*
G37*
%TD.AperFunction*%
%TA.AperFunction,Conductor*%
%TO.N,TEMPB*%
G36*
X68730000Y-44000000D02*
G01*
X55750000Y-44000000D01*
X55750000Y-43599999D01*
X68730000Y-43599999D01*
X68730000Y-44000000D01*
G37*
%TD.AperFunction*%
%TA.AperFunction,Conductor*%
%TO.N,TEMPA*%
G36*
X71270000Y-57000000D02*
G01*
X55750000Y-57000000D01*
X55750000Y-56599999D01*
X71270000Y-56599999D01*
X71270000Y-57000000D01*
G37*
%TD.AperFunction*%
%TA.AperFunction,Conductor*%
%TO.N,DETD*%
G36*
X63850000Y-48730000D02*
G01*
X63449999Y-48730000D01*
X63449999Y-45000000D01*
X63850000Y-45000000D01*
X63850000Y-48730000D01*
G37*
%TD.AperFunction*%
%TA.AperFunction,Conductor*%
%TO.N,EN*%
G36*
X63850000Y-55000000D02*
G01*
X63449999Y-55000000D01*
X63449999Y-51270000D01*
X63850000Y-51270000D01*
X63850000Y-55000000D01*
G37*
%TD.AperFunction*%
%TA.AperFunction,Conductor*%
%TO.N,IMONB*%
G36*
X66390000Y-48730000D02*
G01*
X65989999Y-48730000D01*
X65989999Y-44400000D01*
X66390000Y-44400000D01*
X66390000Y-48730000D01*
G37*
%TD.AperFunction*%
%TA.AperFunction,Conductor*%
%TO.N,DETC*%
G36*
X66390000Y-55600000D02*
G01*
X65989999Y-55600000D01*
X65989999Y-51270000D01*
X66390000Y-51270000D01*
X66390000Y-55600000D01*
G37*
%TD.AperFunction*%
%TA.AperFunction,Conductor*%
%TO.N,TEMPB*%
G36*
X68930000Y-48730000D02*
G01*
X68530000Y-48730000D01*
X68530000Y-43800000D01*
X68930000Y-43800000D01*
X68930000Y-48730000D01*
G37*
%TD.AperFunction*%
%TA.AperFunction,Conductor*%
%TO.N,IMONA*%
G36*
X68930000Y-56200000D02*
G01*
X68530000Y-56200000D01*
X68530000Y-51270000D01*
X68930000Y-51270000D01*
X68930000Y-56200000D01*
G37*
%TD.AperFunction*%
%TA.AperFunction,Conductor*%
%TO.N,DETB*%
G36*
X71470000Y-48730000D02*
G01*
X71070000Y-48730000D01*
X71070000Y-43200000D01*
X71470000Y-43200000D01*
X71470000Y-48730000D01*
G37*
%TD.AperFunction*%
%TA.AperFunction,Conductor*%
%TO.N,TEMPA*%
G36*
X71470000Y-56800000D02*
G01*
X71070000Y-56800000D01*
X71070000Y-51270000D01*
X71470000Y-51270000D01*
X71470000Y-56800000D01*
G37*
%TD.AperFunction*%
%TA.AperFunction,Conductor*%
%TO.N,DETB*%
G36*
X79000000Y-43400000D02*
G01*
X71270000Y-43400000D01*
X71270000Y-43000000D01*
X79000000Y-43000000D01*
X79000000Y-43400000D01*
G37*
%TD.AperFunction*%
%TA.AperFunction,Conductor*%
%TO.N,DETA*%
G36*
X74010000Y-57400000D02*
G01*
X73610000Y-57400000D01*
X73610000Y-51270000D01*
X74010000Y-51270000D01*
X74010000Y-57400000D01*
G37*
%TD.AperFunction*%
%TA.AperFunction,Conductor*%
G36*
X79000000Y-57600000D02*
G01*
X73810000Y-57600000D01*
X73810000Y-57199999D01*
X79000000Y-57199999D01*
X79000000Y-57600000D01*
G37*
%TD.AperFunction*%
%TA.AperFunction,Conductor*%
%TO.N,DETB*%
G36*
X79200000Y-43200000D02*
G01*
X78800000Y-43200000D01*
X78800000Y-30000000D01*
X79200000Y-30000000D01*
X79200000Y-43200000D01*
G37*
%TD.AperFunction*%
%TA.AperFunction,Conductor*%
%TO.N,DETA*%
G36*
X79200000Y-70000000D02*
G01*
X78800000Y-70000000D01*
X78800000Y-57400000D01*
X79200000Y-57400000D01*
X79200000Y-70000000D01*
G37*
%TD.AperFunction*%
%TA.AperFunction,Conductor*%
%TO.N,DETB*%
G36*
X82126001Y-30200000D02*
G01*
X79000000Y-30200000D01*
X79000000Y-29799999D01*
X82126001Y-29799999D01*
X82126001Y-30200000D01*
G37*
%TD.AperFunction*%
%TA.AperFunction,Conductor*%
%TO.N,DETA*%
G36*
X82126001Y-70200000D02*
G01*
X79000000Y-70200000D01*
X79000000Y-69800000D01*
X82126001Y-69800000D01*
X82126001Y-70200000D01*
G37*
%TD.AperFunction*%
%TA.AperFunction,Conductor*%
%TO.N,DETB*%
G36*
X82326001Y-30000000D02*
G01*
X81926001Y-30000000D01*
X81926001Y-13273861D01*
X82326001Y-13273861D01*
X82326001Y-30000000D01*
G37*
%TD.AperFunction*%
%TA.AperFunction,Conductor*%
%TO.N,DETA*%
G36*
X82326001Y-86726138D02*
G01*
X81926001Y-86726138D01*
X81926001Y-70000000D01*
X82326001Y-70000000D01*
X82326001Y-86726138D01*
G37*
%TD.AperFunction*%
%TD*%
D11*
%TO.N,GND*%
%TO.C,H95_21*%
X95500000Y-79000000D03*
%TD*%
%TO.N,GND*%
%TO.C,H10_90*%
X10000000Y-10000000D03*
%TD*%
%TO.N,GND*%
%TO.C,H52_15*%
X52000000Y-84200000D03*
%TD*%
D12*
%TO.N,GND*%
%TO.C,J5*%
X61110000Y-48730000D03*
%TO.N,DETD*%
X63650000Y-48730000D03*
%TO.N,IMONB*%
X66190000Y-48730000D03*
%TO.N,TEMPB*%
X68730000Y-48730000D03*
%TO.N,DETB*%
X71270000Y-48730000D03*
%TO.N,GND*%
X73810000Y-48730000D03*
X76350000Y-48730000D03*
X78890000Y-48730000D03*
X61110000Y-51270000D03*
%TO.N,EN*%
X63650000Y-51270000D03*
%TO.N,DETC*%
X66190000Y-51270000D03*
%TO.N,IMONA*%
X68730000Y-51270000D03*
%TO.N,TEMPA*%
X71270000Y-51270000D03*
%TO.N,DETA*%
X73810000Y-51270000D03*
%TO.N,GND*%
X76350000Y-51270000D03*
X78890000Y-51270000D03*
%TD*%
D11*
%TO.N,GND*%
%TO.C,H63_43*%
X63500000Y-57000000D03*
%TD*%
%TO.N,GND*%
%TO.C,H30_50*%
X30000000Y-50000000D03*
%TD*%
%TO.N,GND*%
%TO.C,H52_84*%
X52000000Y-15799999D03*
%TD*%
%TO.N,GND*%
%TO.C,H63_57*%
X63500000Y-43000000D03*
%TD*%
%TO.N,GND*%
%TO.C,H95_79*%
X95500000Y-21000000D03*
%TD*%
D13*
%TO.N,DETA*%
X82126001Y-86726138D03*
%TO.N,DETB*%
X82126001Y-13273861D03*
%TO.N,DETC*%
X36254709Y-57726138D03*
%TO.N,DETD*%
X36254709Y-42273861D03*
%TO.N,EN*%
X6550000Y-79190000D03*
X2600000Y-84000000D03*
X6550000Y-79190000D03*
D14*
%TO.N,GND*%
X98800000Y-95754864D03*
D15*
X55750000Y-9429999D03*
D14*
X97530000Y-9754864D03*
X33000000Y-67000000D03*
D16*
X51380000Y-8239999D03*
X57640000Y-37860000D03*
D14*
X93000000Y-43000000D03*
X24000000Y-49000000D03*
D16*
X60740000Y-66479999D03*
D14*
X6000000Y-61000000D03*
X69000000Y-82000000D03*
D16*
X60740000Y-33519999D03*
X51380000Y-9480000D03*
X60120000Y-37240000D03*
D14*
X24000000Y-82000000D03*
X12000000Y-25000000D03*
X21000000Y-73000000D03*
X98800000Y-9754864D03*
D17*
X60100000Y-36000000D03*
D14*
X87000000Y-43000000D03*
X78000000Y-22000000D03*
D17*
X58900000Y-36600000D03*
D14*
X9000000Y-37000000D03*
X2469999Y-75254864D03*
X21000000Y-79000000D03*
X75000000Y-16000000D03*
D16*
X60740000Y-61520000D03*
D14*
X75000000Y-19000000D03*
X3740000Y-24745135D03*
X60000000Y-97000000D03*
X21000000Y-67000000D03*
D16*
X61360000Y-34760000D03*
D14*
X78000000Y-76000000D03*
X87000000Y-73000000D03*
D15*
X48994709Y-57726138D03*
D16*
X61980000Y-65240000D03*
D14*
X21000000Y-70000000D03*
X48000000Y-4000000D03*
D16*
X61980000Y-34140000D03*
X60120000Y-33519999D03*
D14*
X87000000Y-22000000D03*
X72000000Y-79000000D03*
X33000000Y-10000000D03*
X30000000Y-31000000D03*
X84000000Y-70000000D03*
D16*
X58880000Y-38480000D03*
D14*
X12000000Y-52000000D03*
X3000000Y-97000000D03*
X69000000Y-31000000D03*
X97530000Y-33245135D03*
D16*
X57020000Y-34760000D03*
X60740000Y-37240000D03*
D14*
X9000000Y-4000000D03*
X30000000Y-43000000D03*
X18000000Y-52000000D03*
X6000000Y-16000000D03*
D16*
X50760000Y-93620000D03*
D14*
X78000000Y-25000000D03*
X75000000Y-85000000D03*
X60000000Y-25000000D03*
X27000000Y-13000000D03*
X87000000Y-76000000D03*
X18000000Y-31000000D03*
X75000000Y-97000000D03*
X57000000Y-97000000D03*
D15*
X86541292Y-11373861D03*
D17*
X51400000Y-6400000D03*
D14*
X15000000Y-37000000D03*
D17*
X52600000Y-7599999D03*
D16*
X58880000Y-34760000D03*
D15*
X48750000Y-20704152D03*
D17*
X78136106Y-64500000D03*
D14*
X90000000Y-19000000D03*
X9000000Y-16000000D03*
D17*
X59500000Y-36600000D03*
D14*
X39000000Y-49000000D03*
D16*
X60740000Y-35379999D03*
D14*
X2469999Y-69745135D03*
X97530000Y-90245135D03*
D16*
X57020000Y-65240000D03*
D14*
X21000000Y-40000000D03*
X81000000Y-55000000D03*
X96259999Y-95754864D03*
X90000000Y-49000000D03*
D16*
X50760000Y-92380000D03*
D14*
X6000000Y-40000000D03*
X9000000Y-22000000D03*
X45000000Y-13000000D03*
X72000000Y-82000000D03*
D16*
X50760000Y-91760000D03*
D14*
X84000000Y-85000000D03*
X90000000Y-16000000D03*
D16*
X60120000Y-66479999D03*
X60740000Y-62760000D03*
X58260000Y-61520000D03*
D17*
X52600000Y-93600000D03*
D16*
X53860000Y-91140000D03*
D15*
X48750000Y-79295847D03*
D14*
X24000000Y-19000000D03*
D15*
X43300000Y-80425847D03*
D14*
X72000000Y-85000000D03*
X9000000Y-19000000D03*
X6000000Y-37000000D03*
X93000000Y-40000000D03*
X21000000Y-22000000D03*
D15*
X60000000Y-80425847D03*
X55750000Y-90570000D03*
D16*
X58260000Y-64620000D03*
X53240000Y-6379999D03*
D14*
X87000000Y-82000000D03*
D16*
X53240000Y-5140000D03*
D17*
X59500000Y-64599999D03*
D14*
X21000000Y-25000000D03*
D16*
X58260000Y-62760000D03*
D14*
X1200000Y-69745135D03*
X24000000Y-16000000D03*
D15*
X35900000Y-37170000D03*
D16*
X50140000Y-91140000D03*
D14*
X98800000Y-38754864D03*
X15000000Y-61000000D03*
X93000000Y-49000000D03*
X63000000Y-76000000D03*
X78000000Y-55000000D03*
X72000000Y-73000000D03*
D17*
X59500000Y-64000000D03*
D14*
X15000000Y-22000000D03*
X48000000Y-25000000D03*
X90000000Y-46000000D03*
D17*
X60100000Y-64000000D03*
D14*
X84000000Y-46000000D03*
X87000000Y-19000000D03*
D15*
X32100000Y-37170000D03*
D14*
X18000000Y-97000000D03*
D15*
X42039709Y-41103861D03*
D16*
X54480000Y-8239999D03*
D14*
X78000000Y-85000000D03*
X15000000Y-25000000D03*
X66000000Y-85000000D03*
X9000000Y-40000000D03*
X15000000Y-31000000D03*
D16*
X58260000Y-37240000D03*
X58260000Y-66479999D03*
D15*
X41400000Y-46234152D03*
X35350000Y-76350000D03*
D14*
X87000000Y-79000000D03*
X15000000Y-4000000D03*
X75000000Y-46000000D03*
X27000000Y-10000000D03*
X15000000Y-91000000D03*
D15*
X61700000Y-19574152D03*
D14*
X12000000Y-61000000D03*
X96000000Y-46000000D03*
D17*
X34550000Y-96487500D03*
D15*
X60000000Y-19574152D03*
D14*
X42000000Y-10000000D03*
X69000000Y-61000000D03*
D15*
X26200000Y-60800000D03*
D14*
X36000000Y-52000000D03*
X42000000Y-49000000D03*
X12000000Y-22000000D03*
D16*
X58260000Y-63380000D03*
D14*
X3000000Y-13000000D03*
X27000000Y-97000000D03*
X60000000Y-76000000D03*
D16*
X61360000Y-37860000D03*
D17*
X33450000Y-94287500D03*
D14*
X33000000Y-82000000D03*
X36000000Y-61000000D03*
D15*
X38730000Y-17424152D03*
D16*
X60740000Y-36620000D03*
D15*
X11150000Y-83300000D03*
D14*
X21000000Y-16000000D03*
D16*
X52000000Y-94240000D03*
D14*
X60000000Y-73000000D03*
X12000000Y-40000000D03*
X21000000Y-49000000D03*
X69000000Y-79000000D03*
X24000000Y-13000000D03*
X84000000Y-97000000D03*
D16*
X50760000Y-6379999D03*
D15*
X23900000Y-91830000D03*
D14*
X30000000Y-10000000D03*
X27000000Y-58000000D03*
D16*
X58260000Y-34140000D03*
D15*
X59470000Y-17424152D03*
D14*
X84000000Y-55000000D03*
D16*
X52620000Y-94860000D03*
X61980000Y-66479999D03*
D15*
X53170000Y-53575847D03*
D14*
X51000000Y-97000000D03*
X93000000Y-85000000D03*
X90000000Y-79000000D03*
D16*
X52620000Y-95480000D03*
D17*
X33450000Y-3512500D03*
D14*
X57000000Y-4000000D03*
X3000000Y-4000000D03*
X1200000Y-24745135D03*
D16*
X58880000Y-66479999D03*
D14*
X63000000Y-13000000D03*
X21000000Y-31000000D03*
X72000000Y-13000000D03*
X72000000Y-16000000D03*
X42000000Y-4000000D03*
D17*
X33450000Y-96487500D03*
D14*
X84000000Y-82000000D03*
D16*
X61980000Y-62760000D03*
D14*
X97530000Y-95754864D03*
X87000000Y-85000000D03*
D16*
X58260000Y-38480000D03*
D14*
X60000000Y-22000000D03*
D16*
X58880000Y-65240000D03*
D14*
X81000000Y-97000000D03*
X33000000Y-43000000D03*
X6000000Y-67000000D03*
D16*
X53240000Y-8860000D03*
X51380000Y-95480000D03*
D14*
X33000000Y-40000000D03*
D15*
X47050000Y-79295847D03*
D14*
X75000000Y-73000000D03*
D15*
X94866001Y-13273861D03*
D16*
X59500000Y-65860000D03*
D17*
X60100000Y-63400000D03*
D14*
X96000000Y-73000000D03*
X3000000Y-7000000D03*
D15*
X23900000Y-8170000D03*
D14*
X27000000Y-25000000D03*
D16*
X49520000Y-8239999D03*
D14*
X60000000Y-13000000D03*
X48000000Y-10000000D03*
D16*
X58260000Y-65240000D03*
D17*
X34550000Y-95387500D03*
D16*
X61360000Y-65860000D03*
D14*
X27000000Y-43000000D03*
X72000000Y-31000000D03*
X75000000Y-31000000D03*
X90000000Y-82000000D03*
X21000000Y-28000000D03*
D16*
X54480000Y-4519999D03*
D14*
X9000000Y-55000000D03*
X36000000Y-13000000D03*
D16*
X52620000Y-5140000D03*
D14*
X87000000Y-40000000D03*
X33000000Y-16000000D03*
X6000000Y-52000000D03*
X78000000Y-16000000D03*
X1200000Y-45254864D03*
D16*
X61980000Y-33519999D03*
D14*
X21000000Y-58000000D03*
X6000000Y-31000000D03*
D17*
X34000000Y-4062500D03*
D14*
X93000000Y-61000000D03*
D15*
X38639709Y-41103861D03*
D14*
X66000000Y-16000000D03*
X93000000Y-97000000D03*
D15*
X48994709Y-42273861D03*
D14*
X78000000Y-82000000D03*
X90000000Y-73000000D03*
D16*
X57020000Y-37240000D03*
D14*
X3000000Y-19000000D03*
X69000000Y-97000000D03*
X75000000Y-70000000D03*
X63000000Y-16000000D03*
X3000000Y-16000000D03*
X69000000Y-28000000D03*
D15*
X20100000Y-8170000D03*
D14*
X69000000Y-22000000D03*
X84000000Y-19000000D03*
X12000000Y-16000000D03*
D17*
X34000000Y-5162499D03*
D14*
X72000000Y-70000000D03*
X90000000Y-58000000D03*
D16*
X53240000Y-8239999D03*
X49520000Y-5140000D03*
D15*
X59470000Y-82575847D03*
D14*
X27000000Y-19000000D03*
X98800000Y-4245135D03*
X6000000Y-46000000D03*
D16*
X53240000Y-93620000D03*
D15*
X38639709Y-58896138D03*
D17*
X51400000Y-7599999D03*
D14*
X12000000Y-67000000D03*
X21000000Y-52000000D03*
D16*
X61980000Y-38480000D03*
X50760000Y-8239999D03*
D17*
X33450000Y-5712499D03*
D16*
X50140000Y-94240000D03*
X57640000Y-65860000D03*
D14*
X24000000Y-10000000D03*
X90000000Y-4000000D03*
D15*
X81995736Y-32637064D03*
D16*
X52620000Y-8860000D03*
D14*
X69000000Y-88000000D03*
D17*
X60100000Y-36600000D03*
D16*
X52620000Y-90520000D03*
X49520000Y-95480000D03*
D15*
X87911001Y-12103861D03*
D14*
X9000000Y-31000000D03*
D15*
X14500000Y-82170000D03*
D14*
X24000000Y-97000000D03*
D16*
X51380000Y-8860000D03*
D14*
X1200000Y-60254864D03*
X93000000Y-70000000D03*
X12000000Y-46000000D03*
D15*
X61700000Y-80425847D03*
D17*
X58900000Y-64599999D03*
D14*
X63000000Y-31000000D03*
X72000000Y-97000000D03*
X15000000Y-13000000D03*
X98800000Y-33245135D03*
X90000000Y-25000000D03*
X15000000Y-67000000D03*
D16*
X58880000Y-62760000D03*
D14*
X90000000Y-61000000D03*
X21000000Y-97000000D03*
D15*
X9850000Y-83300000D03*
D14*
X15000000Y-46000000D03*
X9000000Y-97000000D03*
D16*
X52620000Y-5760000D03*
D17*
X52600000Y-6400000D03*
D14*
X75000000Y-22000000D03*
X39000000Y-67000000D03*
X60000000Y-70000000D03*
X18000000Y-46000000D03*
X84000000Y-49000000D03*
X75000000Y-13000000D03*
D16*
X49520000Y-91760000D03*
D14*
X2469999Y-24745135D03*
X63000000Y-85000000D03*
X27000000Y-76000000D03*
X84000000Y-73000000D03*
D15*
X41600000Y-19574152D03*
D14*
X78000000Y-19000000D03*
X98800000Y-61245135D03*
X93000000Y-31000000D03*
X3740000Y-60254864D03*
X78000000Y-73000000D03*
X57000000Y-52000000D03*
X15000000Y-19000000D03*
D16*
X59500000Y-37860000D03*
D14*
X6000000Y-25000000D03*
X63000000Y-25000000D03*
X69000000Y-19000000D03*
D16*
X53240000Y-91760000D03*
D14*
X6000000Y-55000000D03*
X87000000Y-46000000D03*
X97530000Y-38754864D03*
D16*
X50760000Y-8860000D03*
D14*
X90000000Y-70000000D03*
X36000000Y-67000000D03*
X30000000Y-25000000D03*
X36000000Y-49000000D03*
D17*
X52600000Y-92400000D03*
D14*
X98800000Y-66754864D03*
X60000000Y-28000000D03*
X51000000Y-25000000D03*
X21000000Y-61000000D03*
X9000000Y-25000000D03*
X30000000Y-19000000D03*
D15*
X40339709Y-58896138D03*
D14*
X63000000Y-97000000D03*
X1200000Y-54745135D03*
X39000000Y-79000000D03*
X12000000Y-31000000D03*
X78000000Y-28000000D03*
X42000000Y-13000000D03*
D16*
X49520000Y-90520000D03*
X49520000Y-9480000D03*
D14*
X66000000Y-76000000D03*
X27000000Y-31000000D03*
D16*
X50760000Y-95480000D03*
X57640000Y-62140000D03*
X54480000Y-91760000D03*
D14*
X90000000Y-40000000D03*
X84000000Y-40000000D03*
X93000000Y-46000000D03*
X15000000Y-16000000D03*
X84000000Y-76000000D03*
X75000000Y-88000000D03*
X96000000Y-49000000D03*
X45000000Y-16000000D03*
X39000000Y-4000000D03*
X66000000Y-25000000D03*
D16*
X53240000Y-95480000D03*
D14*
X30000000Y-76000000D03*
X90000000Y-28000000D03*
D16*
X53240000Y-4519999D03*
D14*
X93000000Y-58000000D03*
X1200000Y-75254864D03*
X66000000Y-88000000D03*
D17*
X34000000Y-94837500D03*
X33450000Y-4612499D03*
D14*
X90000000Y-22000000D03*
X96000000Y-28000000D03*
D16*
X58880000Y-61520000D03*
X60120000Y-65240000D03*
D14*
X21000000Y-82000000D03*
D16*
X57020000Y-61520000D03*
D14*
X63000000Y-22000000D03*
X75000000Y-40000000D03*
X96259999Y-33245135D03*
X21000000Y-4000000D03*
X97530000Y-4245135D03*
X81000000Y-58000000D03*
D15*
X20100000Y-91830000D03*
D16*
X53240000Y-9480000D03*
X52620000Y-8239999D03*
X49520000Y-4519999D03*
D14*
X9000000Y-67000000D03*
X54000000Y-97000000D03*
D15*
X94866001Y-86726138D03*
D16*
X57020000Y-34140000D03*
D14*
X33000000Y-58000000D03*
X84000000Y-43000000D03*
D15*
X38730000Y-82575847D03*
D17*
X60100000Y-64599999D03*
D14*
X87000000Y-58000000D03*
X39000000Y-25000000D03*
D16*
X51380000Y-94860000D03*
D14*
X97530000Y-66754864D03*
X63000000Y-10000000D03*
X3740000Y-69745135D03*
X24000000Y-52000000D03*
X87000000Y-49000000D03*
X21000000Y-76000000D03*
D16*
X57020000Y-33519999D03*
D14*
X96259999Y-38754864D03*
X15000000Y-7000000D03*
D16*
X58260000Y-36620000D03*
D14*
X48000000Y-97000000D03*
D16*
X58260000Y-33519999D03*
D15*
X8150000Y-83300000D03*
D14*
X87000000Y-67000000D03*
X87000000Y-25000000D03*
X12000000Y-37000000D03*
X12000000Y-91000000D03*
X33000000Y-13000000D03*
X57000000Y-49000000D03*
X69000000Y-70000000D03*
D16*
X60740000Y-65240000D03*
X61360000Y-62140000D03*
D14*
X69000000Y-85000000D03*
D17*
X34550000Y-4612499D03*
D14*
X2469999Y-45254864D03*
X3000000Y-10000000D03*
D15*
X11300000Y-87150000D03*
D14*
X51000000Y-22000000D03*
D17*
X51400000Y-92400000D03*
D14*
X96259999Y-9754864D03*
X21000000Y-46000000D03*
X96000000Y-55000000D03*
X36000000Y-31000000D03*
D15*
X87911001Y-87896138D03*
X12850000Y-83300000D03*
X28800000Y-39200000D03*
D14*
X84000000Y-31000000D03*
D17*
X52000000Y-7599999D03*
D14*
X2469999Y-60254864D03*
X66000000Y-73000000D03*
X3740000Y-30254864D03*
X63000000Y-70000000D03*
D16*
X60120000Y-34140000D03*
D17*
X33450000Y-95387500D03*
D16*
X58880000Y-33519999D03*
D14*
X84000000Y-58000000D03*
X9000000Y-46000000D03*
X75000000Y-25000000D03*
X75000000Y-79000000D03*
D16*
X53860000Y-5760000D03*
D14*
X2469999Y-39745135D03*
X78000000Y-13000000D03*
X6000000Y-4000000D03*
D17*
X58900000Y-63400000D03*
D15*
X81995736Y-67362935D03*
D17*
X34550000Y-3512500D03*
D14*
X45000000Y-10000000D03*
X93000000Y-73000000D03*
D17*
X58900000Y-64000000D03*
D16*
X54480000Y-5140000D03*
D14*
X93000000Y-55000000D03*
D16*
X58880000Y-37240000D03*
D15*
X33650000Y-76350000D03*
D14*
X60000000Y-85000000D03*
X90000000Y-85000000D03*
X3740000Y-54745135D03*
D15*
X35900000Y-62830000D03*
D16*
X52620000Y-91760000D03*
D14*
X90000000Y-43000000D03*
X9000000Y-52000000D03*
X78000000Y-79000000D03*
D15*
X35350000Y-23650000D03*
D14*
X24000000Y-4000000D03*
X30000000Y-67000000D03*
X60000000Y-88000000D03*
X9000000Y-94000000D03*
X87000000Y-16000000D03*
X6000000Y-19000000D03*
X15000000Y-10000000D03*
X18000000Y-49000000D03*
X81000000Y-49000000D03*
X75000000Y-82000000D03*
X87000000Y-55000000D03*
X54000000Y-52000000D03*
X81000000Y-43000000D03*
X66000000Y-67000000D03*
D15*
X84511001Y-12103861D03*
D14*
X63000000Y-4000000D03*
X93000000Y-16000000D03*
D15*
X65450000Y-20704152D03*
D16*
X50760000Y-9480000D03*
D14*
X93000000Y-28000000D03*
D15*
X86211001Y-87896138D03*
D14*
X72000000Y-25000000D03*
X30000000Y-4000000D03*
D16*
X49520000Y-5760000D03*
D14*
X15000000Y-94000000D03*
X84000000Y-79000000D03*
D15*
X43100000Y-53765847D03*
X43300000Y-19574152D03*
D16*
X49520000Y-94860000D03*
X53240000Y-90520000D03*
D14*
X81000000Y-52000000D03*
X3740000Y-45254864D03*
D17*
X78136106Y-63500000D03*
D14*
X66000000Y-13000000D03*
D16*
X60740000Y-63380000D03*
D14*
X87000000Y-4000000D03*
X33000000Y-34000000D03*
X12000000Y-4000000D03*
D16*
X60120000Y-34760000D03*
D17*
X78136106Y-35500000D03*
D14*
X63000000Y-88000000D03*
X78000000Y-88000000D03*
X78000000Y-97000000D03*
X90000000Y-52000000D03*
X45000000Y-97000000D03*
X90000000Y-31000000D03*
X45000000Y-49000000D03*
X36000000Y-40000000D03*
D16*
X57020000Y-38480000D03*
D15*
X42039709Y-58896138D03*
D14*
X69000000Y-76000000D03*
X90000000Y-67000000D03*
D16*
X54480000Y-8860000D03*
D15*
X28800000Y-60800000D03*
D16*
X54480000Y-90520000D03*
D14*
X72000000Y-40000000D03*
D15*
X43100000Y-46234152D03*
D14*
X60000000Y-31000000D03*
X93000000Y-52000000D03*
D16*
X58260000Y-35379999D03*
D14*
X15000000Y-55000000D03*
X75000000Y-76000000D03*
D17*
X52000000Y-93600000D03*
D14*
X30000000Y-13000000D03*
X3740000Y-75254864D03*
X45000000Y-4000000D03*
X96000000Y-52000000D03*
X12000000Y-19000000D03*
X87000000Y-52000000D03*
D17*
X59500000Y-63400000D03*
D14*
X9000000Y-61000000D03*
X54000000Y-49000000D03*
D16*
X60120000Y-61520000D03*
D14*
X30000000Y-16000000D03*
X84000000Y-25000000D03*
X69000000Y-25000000D03*
D17*
X58900000Y-36000000D03*
D15*
X47050000Y-20704152D03*
D14*
X69000000Y-40000000D03*
X87000000Y-70000000D03*
X84000000Y-4000000D03*
X96259999Y-66754864D03*
D16*
X53240000Y-94860000D03*
D14*
X3000000Y-94000000D03*
X72000000Y-28000000D03*
X96259999Y-61245135D03*
D15*
X67149999Y-20704152D03*
D14*
X98800000Y-90245135D03*
X66000000Y-28000000D03*
D16*
X54480000Y-94860000D03*
D14*
X75000000Y-28000000D03*
D15*
X1430000Y-84000000D03*
D16*
X60120000Y-62760000D03*
D14*
X18000000Y-4000000D03*
X33000000Y-61000000D03*
D15*
X40339709Y-41103861D03*
X53170000Y-46424152D03*
D14*
X90000000Y-55000000D03*
X72000000Y-67000000D03*
D16*
X58880000Y-34140000D03*
D14*
X93000000Y-67000000D03*
D16*
X60740000Y-64620000D03*
D14*
X72000000Y-76000000D03*
X66000000Y-97000000D03*
X87000000Y-97000000D03*
X69000000Y-13000000D03*
X69000000Y-16000000D03*
X1200000Y-39745135D03*
X84000000Y-28000000D03*
D16*
X60740000Y-38480000D03*
D15*
X38330000Y-59626138D03*
X26200000Y-39200000D03*
D14*
X84000000Y-52000000D03*
X63000000Y-28000000D03*
X69000000Y-67000000D03*
D16*
X53240000Y-92380000D03*
D14*
X30000000Y-97000000D03*
D16*
X61980000Y-61520000D03*
X57020000Y-66479999D03*
D14*
X15000000Y-52000000D03*
D17*
X51400000Y-93600000D03*
D15*
X41400000Y-53765847D03*
D14*
X42000000Y-97000000D03*
X27000000Y-67000000D03*
X96259999Y-90245135D03*
X69000000Y-73000000D03*
X30000000Y-58000000D03*
X90000000Y-97000000D03*
D15*
X33650000Y-23650000D03*
D14*
X36000000Y-16000000D03*
X96259999Y-4245135D03*
X72000000Y-61000000D03*
X96000000Y-43000000D03*
X21000000Y-43000000D03*
X12000000Y-55000000D03*
X21000000Y-10000000D03*
X97530000Y-61245135D03*
X36000000Y-10000000D03*
D16*
X59500000Y-62140000D03*
D14*
X27000000Y-16000000D03*
D16*
X49520000Y-8860000D03*
D14*
X66000000Y-31000000D03*
D16*
X54480000Y-9480000D03*
D14*
X72000000Y-88000000D03*
X33000000Y-31000000D03*
D17*
X34550000Y-94287500D03*
D15*
X86211001Y-12103861D03*
D16*
X52620000Y-9480000D03*
D14*
X63000000Y-73000000D03*
X81000000Y-40000000D03*
X39000000Y-97000000D03*
D16*
X52620000Y-4519999D03*
D14*
X30000000Y-82000000D03*
D16*
X50760000Y-94860000D03*
D14*
X2469999Y-54745135D03*
X84000000Y-22000000D03*
X87000000Y-28000000D03*
D15*
X67149999Y-79295847D03*
D17*
X34000000Y-95937500D03*
D16*
X53860000Y-94240000D03*
D15*
X84511001Y-87896138D03*
D14*
X60000000Y-10000000D03*
X60000000Y-4000000D03*
D16*
X54480000Y-95480000D03*
D15*
X32100000Y-62830000D03*
D14*
X84000000Y-16000000D03*
D16*
X57020000Y-62760000D03*
D17*
X78136106Y-36500000D03*
D14*
X42000000Y-16000000D03*
D16*
X60120000Y-38480000D03*
D14*
X96000000Y-85000000D03*
X2469999Y-30254864D03*
X87000000Y-31000000D03*
X87000000Y-61000000D03*
X78000000Y-46000000D03*
X9000000Y-91000000D03*
X33000000Y-19000000D03*
D15*
X38330000Y-40373861D03*
D17*
X52000000Y-6400000D03*
D14*
X90000000Y-76000000D03*
X21000000Y-19000000D03*
X81000000Y-46000000D03*
X96000000Y-16000000D03*
D15*
X65450000Y-79295847D03*
D17*
X34550000Y-5712499D03*
D14*
X15000000Y-97000000D03*
D15*
X41600000Y-80425847D03*
D14*
X72000000Y-22000000D03*
D16*
X60740000Y-34140000D03*
D17*
X59500000Y-36000000D03*
D16*
X61980000Y-37240000D03*
D15*
X86541292Y-88626138D03*
D14*
X66000000Y-70000000D03*
X15000000Y-40000000D03*
X39000000Y-76000000D03*
D17*
X52000000Y-92400000D03*
D14*
X3740000Y-39745135D03*
D15*
X11300000Y-88850000D03*
D14*
X1200000Y-30254864D03*
X72000000Y-19000000D03*
X27000000Y-4000000D03*
X6000000Y-22000000D03*
X93000000Y-4000000D03*
X27000000Y-82000000D03*
X21000000Y-13000000D03*
D13*
%TO.N,IMONA*%
X45140000Y-77450000D03*
%TO.N,IMONB*%
X45140000Y-22549999D03*
%TO.N,TEMPA*%
X55750000Y-89400000D03*
%TO.N,TEMPB*%
X55750000Y-10599999D03*
D18*
%TO.N,V12*%
X50425000Y-30200000D03*
D13*
X50400000Y-72000000D03*
X49600000Y-72000000D03*
D18*
X50425000Y-69800000D03*
X49575000Y-69800000D03*
D13*
X16399999Y-81000000D03*
D18*
X49575000Y-30200000D03*
D13*
X15600000Y-81000000D03*
D18*
%TO.N,V5A*%
X23075000Y-66000000D03*
X23075000Y-62000000D03*
X23925000Y-66000000D03*
X23925000Y-62000000D03*
%TO.N,V5B*%
X23075000Y-34000000D03*
X23075000Y-38000000D03*
X23925000Y-38000000D03*
X23925000Y-34000000D03*
%TD*%
M02*
