%TF.GenerationSoftware,KiCad,Pcbnew,10.0.5*%
%TF.CreationDate,2026-08-09T20:23:03+01:00*%
%TF.ProjectId,radar_5g8_fe,72616461-725f-4356-9738-5f66652e6b69,rev?*%
%TF.SameCoordinates,Original*%
%TF.FileFunction,Legend,Top*%
%TF.FilePolarity,Positive*%
%FSLAX46Y46*%
G04 Gerber Fmt 4.6, Leading zero omitted, Abs format (unit mm)*
G04 Created by KiCad (PCBNEW 10.0.5) date 2026-08-09 20:23:03*
%MOMM*%
%LPD*%
G01*
G04 APERTURE LIST*
%ADD10C,0.120000*%
%ADD11C,0.135000*%
%ADD12C,0.150000*%
%ADD13C,0.180000*%
G04 APERTURE END LIST*
D10*
X59304004Y-4563855D02*
X59633147Y-4563855D01*
X59468575Y-5363855D02*
X59468575Y-4563855D01*
X59770289Y-4563855D02*
X60154289Y-5363855D01*
X60154289Y-4563855D02*
X59770289Y-5363855D01*
X60922289Y-4563855D02*
X60977146Y-4563855D01*
X60977146Y-4563855D02*
X61032003Y-4601950D01*
X61032003Y-4601950D02*
X61059432Y-4640045D01*
X61059432Y-4640045D02*
X61086860Y-4716236D01*
X61086860Y-4716236D02*
X61114289Y-4868617D01*
X61114289Y-4868617D02*
X61114289Y-5059093D01*
X61114289Y-5059093D02*
X61086860Y-5211474D01*
X61086860Y-5211474D02*
X61059432Y-5287664D01*
X61059432Y-5287664D02*
X61032003Y-5325760D01*
X61032003Y-5325760D02*
X60977146Y-5363855D01*
X60977146Y-5363855D02*
X60922289Y-5363855D01*
X60922289Y-5363855D02*
X60867432Y-5325760D01*
X60867432Y-5325760D02*
X60840003Y-5287664D01*
X60840003Y-5287664D02*
X60812574Y-5211474D01*
X60812574Y-5211474D02*
X60785146Y-5059093D01*
X60785146Y-5059093D02*
X60785146Y-4868617D01*
X60785146Y-4868617D02*
X60812574Y-4716236D01*
X60812574Y-4716236D02*
X60840003Y-4640045D01*
X60840003Y-4640045D02*
X60867432Y-4601950D01*
X60867432Y-4601950D02*
X60922289Y-4563855D01*
X61361145Y-5287664D02*
X61388574Y-5325760D01*
X61388574Y-5325760D02*
X61361145Y-5363855D01*
X61361145Y-5363855D02*
X61333717Y-5325760D01*
X61333717Y-5325760D02*
X61361145Y-5287664D01*
X61361145Y-5287664D02*
X61361145Y-5363855D01*
X61580574Y-4563855D02*
X61964574Y-4563855D01*
X61964574Y-4563855D02*
X61717717Y-5363855D01*
X62458288Y-4563855D02*
X62184002Y-4563855D01*
X62184002Y-4563855D02*
X62156574Y-4944807D01*
X62156574Y-4944807D02*
X62184002Y-4906712D01*
X62184002Y-4906712D02*
X62238860Y-4868617D01*
X62238860Y-4868617D02*
X62376002Y-4868617D01*
X62376002Y-4868617D02*
X62430860Y-4906712D01*
X62430860Y-4906712D02*
X62458288Y-4944807D01*
X62458288Y-4944807D02*
X62485717Y-5020998D01*
X62485717Y-5020998D02*
X62485717Y-5211474D01*
X62485717Y-5211474D02*
X62458288Y-5287664D01*
X62458288Y-5287664D02*
X62430860Y-5325760D01*
X62430860Y-5325760D02*
X62376002Y-5363855D01*
X62376002Y-5363855D02*
X62238860Y-5363855D01*
X62238860Y-5363855D02*
X62184002Y-5325760D01*
X62184002Y-5325760D02*
X62156574Y-5287664D01*
X63116573Y-4563855D02*
X63253716Y-5363855D01*
X63253716Y-5363855D02*
X63363430Y-4792426D01*
X63363430Y-4792426D02*
X63473145Y-5363855D01*
X63473145Y-5363855D02*
X63610288Y-4563855D01*
X64213716Y-5363855D02*
X64515431Y-4830521D01*
X64213716Y-4830521D02*
X64515431Y-5363855D01*
X64707431Y-4640045D02*
X64734859Y-4601950D01*
X64734859Y-4601950D02*
X64789717Y-4563855D01*
X64789717Y-4563855D02*
X64926859Y-4563855D01*
X64926859Y-4563855D02*
X64981717Y-4601950D01*
X64981717Y-4601950D02*
X65009145Y-4640045D01*
X65009145Y-4640045D02*
X65036574Y-4716236D01*
X65036574Y-4716236D02*
X65036574Y-4792426D01*
X65036574Y-4792426D02*
X65009145Y-4906712D01*
X65009145Y-4906712D02*
X64680002Y-5363855D01*
X64680002Y-5363855D02*
X65036574Y-5363855D01*
X66929144Y-5363855D02*
X66737144Y-4982902D01*
X66600001Y-5363855D02*
X66600001Y-4563855D01*
X66600001Y-4563855D02*
X66819430Y-4563855D01*
X66819430Y-4563855D02*
X66874287Y-4601950D01*
X66874287Y-4601950D02*
X66901716Y-4640045D01*
X66901716Y-4640045D02*
X66929144Y-4716236D01*
X66929144Y-4716236D02*
X66929144Y-4830521D01*
X66929144Y-4830521D02*
X66901716Y-4906712D01*
X66901716Y-4906712D02*
X66874287Y-4944807D01*
X66874287Y-4944807D02*
X66819430Y-4982902D01*
X66819430Y-4982902D02*
X66600001Y-4982902D01*
X67121144Y-4563855D02*
X67505144Y-5363855D01*
X67505144Y-4563855D02*
X67121144Y-5363855D01*
X68136001Y-4640045D02*
X68163429Y-4601950D01*
X68163429Y-4601950D02*
X68218287Y-4563855D01*
X68218287Y-4563855D02*
X68355429Y-4563855D01*
X68355429Y-4563855D02*
X68410287Y-4601950D01*
X68410287Y-4601950D02*
X68437715Y-4640045D01*
X68437715Y-4640045D02*
X68465144Y-4716236D01*
X68465144Y-4716236D02*
X68465144Y-4792426D01*
X68465144Y-4792426D02*
X68437715Y-4906712D01*
X68437715Y-4906712D02*
X68108572Y-5363855D01*
X68108572Y-5363855D02*
X68465144Y-5363855D01*
X68821715Y-4563855D02*
X68876572Y-4563855D01*
X68876572Y-4563855D02*
X68931429Y-4601950D01*
X68931429Y-4601950D02*
X68958858Y-4640045D01*
X68958858Y-4640045D02*
X68986286Y-4716236D01*
X68986286Y-4716236D02*
X69013715Y-4868617D01*
X69013715Y-4868617D02*
X69013715Y-5059093D01*
X69013715Y-5059093D02*
X68986286Y-5211474D01*
X68986286Y-5211474D02*
X68958858Y-5287664D01*
X68958858Y-5287664D02*
X68931429Y-5325760D01*
X68931429Y-5325760D02*
X68876572Y-5363855D01*
X68876572Y-5363855D02*
X68821715Y-5363855D01*
X68821715Y-5363855D02*
X68766858Y-5325760D01*
X68766858Y-5325760D02*
X68739429Y-5287664D01*
X68739429Y-5287664D02*
X68712000Y-5211474D01*
X68712000Y-5211474D02*
X68684572Y-5059093D01*
X68684572Y-5059093D02*
X68684572Y-4868617D01*
X68684572Y-4868617D02*
X68712000Y-4716236D01*
X68712000Y-4716236D02*
X68739429Y-4640045D01*
X68739429Y-4640045D02*
X68766858Y-4601950D01*
X68766858Y-4601950D02*
X68821715Y-4563855D01*
X69946286Y-5363855D02*
X69946286Y-4563855D01*
X69946286Y-5325760D02*
X69891428Y-5363855D01*
X69891428Y-5363855D02*
X69781714Y-5363855D01*
X69781714Y-5363855D02*
X69726857Y-5325760D01*
X69726857Y-5325760D02*
X69699428Y-5287664D01*
X69699428Y-5287664D02*
X69672000Y-5211474D01*
X69672000Y-5211474D02*
X69672000Y-4982902D01*
X69672000Y-4982902D02*
X69699428Y-4906712D01*
X69699428Y-4906712D02*
X69726857Y-4868617D01*
X69726857Y-4868617D02*
X69781714Y-4830521D01*
X69781714Y-4830521D02*
X69891428Y-4830521D01*
X69891428Y-4830521D02*
X69946286Y-4868617D01*
X70412571Y-4944807D02*
X70494857Y-4982902D01*
X70494857Y-4982902D02*
X70522286Y-5020998D01*
X70522286Y-5020998D02*
X70549714Y-5097188D01*
X70549714Y-5097188D02*
X70549714Y-5211474D01*
X70549714Y-5211474D02*
X70522286Y-5287664D01*
X70522286Y-5287664D02*
X70494857Y-5325760D01*
X70494857Y-5325760D02*
X70440000Y-5363855D01*
X70440000Y-5363855D02*
X70220571Y-5363855D01*
X70220571Y-5363855D02*
X70220571Y-4563855D01*
X70220571Y-4563855D02*
X70412571Y-4563855D01*
X70412571Y-4563855D02*
X70467429Y-4601950D01*
X70467429Y-4601950D02*
X70494857Y-4640045D01*
X70494857Y-4640045D02*
X70522286Y-4716236D01*
X70522286Y-4716236D02*
X70522286Y-4792426D01*
X70522286Y-4792426D02*
X70494857Y-4868617D01*
X70494857Y-4868617D02*
X70467429Y-4906712D01*
X70467429Y-4906712D02*
X70412571Y-4944807D01*
X70412571Y-4944807D02*
X70220571Y-4944807D01*
X71180571Y-5363855D02*
X71482286Y-4830521D01*
X71180571Y-4830521D02*
X71482286Y-5363855D01*
X71674286Y-4640045D02*
X71701714Y-4601950D01*
X71701714Y-4601950D02*
X71756572Y-4563855D01*
X71756572Y-4563855D02*
X71893714Y-4563855D01*
X71893714Y-4563855D02*
X71948572Y-4601950D01*
X71948572Y-4601950D02*
X71976000Y-4640045D01*
X71976000Y-4640045D02*
X72003429Y-4716236D01*
X72003429Y-4716236D02*
X72003429Y-4792426D01*
X72003429Y-4792426D02*
X71976000Y-4906712D01*
X71976000Y-4906712D02*
X71646857Y-5363855D01*
X71646857Y-5363855D02*
X72003429Y-5363855D01*
X73868571Y-5363855D02*
X73539428Y-5363855D01*
X73703999Y-5363855D02*
X73703999Y-4563855D01*
X73703999Y-4563855D02*
X73649142Y-4678140D01*
X73649142Y-4678140D02*
X73594285Y-4754331D01*
X73594285Y-4754331D02*
X73539428Y-4792426D01*
X74087999Y-4640045D02*
X74115427Y-4601950D01*
X74115427Y-4601950D02*
X74170285Y-4563855D01*
X74170285Y-4563855D02*
X74307427Y-4563855D01*
X74307427Y-4563855D02*
X74362285Y-4601950D01*
X74362285Y-4601950D02*
X74389713Y-4640045D01*
X74389713Y-4640045D02*
X74417142Y-4716236D01*
X74417142Y-4716236D02*
X74417142Y-4792426D01*
X74417142Y-4792426D02*
X74389713Y-4906712D01*
X74389713Y-4906712D02*
X74060570Y-5363855D01*
X74060570Y-5363855D02*
X74417142Y-5363855D01*
X75020570Y-4563855D02*
X75212570Y-5363855D01*
X75212570Y-5363855D02*
X75404570Y-4563855D01*
X76337141Y-5363855D02*
X76007998Y-5363855D01*
X76172569Y-5363855D02*
X76172569Y-4563855D01*
X76172569Y-4563855D02*
X76117712Y-4678140D01*
X76117712Y-4678140D02*
X76062855Y-4754331D01*
X76062855Y-4754331D02*
X76007998Y-4792426D01*
X76583997Y-5287664D02*
X76611426Y-5325760D01*
X76611426Y-5325760D02*
X76583997Y-5363855D01*
X76583997Y-5363855D02*
X76556569Y-5325760D01*
X76556569Y-5325760D02*
X76583997Y-5287664D01*
X76583997Y-5287664D02*
X76583997Y-5363855D01*
X76830855Y-4640045D02*
X76858283Y-4601950D01*
X76858283Y-4601950D02*
X76913141Y-4563855D01*
X76913141Y-4563855D02*
X77050283Y-4563855D01*
X77050283Y-4563855D02*
X77105141Y-4601950D01*
X77105141Y-4601950D02*
X77132569Y-4640045D01*
X77132569Y-4640045D02*
X77159998Y-4716236D01*
X77159998Y-4716236D02*
X77159998Y-4792426D01*
X77159998Y-4792426D02*
X77132569Y-4906712D01*
X77132569Y-4906712D02*
X76803426Y-5363855D01*
X76803426Y-5363855D02*
X77159998Y-5363855D01*
X77681140Y-4563855D02*
X77406854Y-4563855D01*
X77406854Y-4563855D02*
X77379426Y-4944807D01*
X77379426Y-4944807D02*
X77406854Y-4906712D01*
X77406854Y-4906712D02*
X77461712Y-4868617D01*
X77461712Y-4868617D02*
X77598854Y-4868617D01*
X77598854Y-4868617D02*
X77653712Y-4906712D01*
X77653712Y-4906712D02*
X77681140Y-4944807D01*
X77681140Y-4944807D02*
X77708569Y-5020998D01*
X77708569Y-5020998D02*
X77708569Y-5211474D01*
X77708569Y-5211474D02*
X77681140Y-5287664D01*
X77681140Y-5287664D02*
X77653712Y-5325760D01*
X77653712Y-5325760D02*
X77598854Y-5363855D01*
X77598854Y-5363855D02*
X77461712Y-5363855D01*
X77461712Y-5363855D02*
X77406854Y-5325760D01*
X77406854Y-5325760D02*
X77379426Y-5287664D01*
X78366854Y-5135283D02*
X78641140Y-5135283D01*
X78311997Y-5363855D02*
X78503997Y-4563855D01*
X78503997Y-4563855D02*
X78695997Y-5363855D01*
X65268572Y-54563855D02*
X65268572Y-55135283D01*
X65268572Y-55135283D02*
X65241143Y-55249569D01*
X65241143Y-55249569D02*
X65186286Y-55325760D01*
X65186286Y-55325760D02*
X65104000Y-55363855D01*
X65104000Y-55363855D02*
X65049143Y-55363855D01*
X65817143Y-54563855D02*
X65542857Y-54563855D01*
X65542857Y-54563855D02*
X65515429Y-54944807D01*
X65515429Y-54944807D02*
X65542857Y-54906712D01*
X65542857Y-54906712D02*
X65597715Y-54868617D01*
X65597715Y-54868617D02*
X65734857Y-54868617D01*
X65734857Y-54868617D02*
X65789715Y-54906712D01*
X65789715Y-54906712D02*
X65817143Y-54944807D01*
X65817143Y-54944807D02*
X65844572Y-55020998D01*
X65844572Y-55020998D02*
X65844572Y-55211474D01*
X65844572Y-55211474D02*
X65817143Y-55287664D01*
X65817143Y-55287664D02*
X65789715Y-55325760D01*
X65789715Y-55325760D02*
X65734857Y-55363855D01*
X65734857Y-55363855D02*
X65597715Y-55363855D01*
X65597715Y-55363855D02*
X65542857Y-55325760D01*
X65542857Y-55325760D02*
X65515429Y-55287664D01*
X67188571Y-55325760D02*
X67133714Y-55363855D01*
X67133714Y-55363855D02*
X67024000Y-55363855D01*
X67024000Y-55363855D02*
X66969142Y-55325760D01*
X66969142Y-55325760D02*
X66941714Y-55249569D01*
X66941714Y-55249569D02*
X66941714Y-54944807D01*
X66941714Y-54944807D02*
X66969142Y-54868617D01*
X66969142Y-54868617D02*
X67024000Y-54830521D01*
X67024000Y-54830521D02*
X67133714Y-54830521D01*
X67133714Y-54830521D02*
X67188571Y-54868617D01*
X67188571Y-54868617D02*
X67216000Y-54944807D01*
X67216000Y-54944807D02*
X67216000Y-55020998D01*
X67216000Y-55020998D02*
X66941714Y-55097188D01*
X67462856Y-54830521D02*
X67462856Y-55363855D01*
X67462856Y-54906712D02*
X67490285Y-54868617D01*
X67490285Y-54868617D02*
X67545142Y-54830521D01*
X67545142Y-54830521D02*
X67627428Y-54830521D01*
X67627428Y-54830521D02*
X67682285Y-54868617D01*
X67682285Y-54868617D02*
X67709714Y-54944807D01*
X67709714Y-54944807D02*
X67709714Y-55363855D01*
X68230857Y-55363855D02*
X68230857Y-54944807D01*
X68230857Y-54944807D02*
X68203428Y-54868617D01*
X68203428Y-54868617D02*
X68148571Y-54830521D01*
X68148571Y-54830521D02*
X68038857Y-54830521D01*
X68038857Y-54830521D02*
X67983999Y-54868617D01*
X68230857Y-55325760D02*
X68175999Y-55363855D01*
X68175999Y-55363855D02*
X68038857Y-55363855D01*
X68038857Y-55363855D02*
X67983999Y-55325760D01*
X67983999Y-55325760D02*
X67956571Y-55249569D01*
X67956571Y-55249569D02*
X67956571Y-55173379D01*
X67956571Y-55173379D02*
X67983999Y-55097188D01*
X67983999Y-55097188D02*
X68038857Y-55059093D01*
X68038857Y-55059093D02*
X68175999Y-55059093D01*
X68175999Y-55059093D02*
X68230857Y-55020998D01*
X68505142Y-55363855D02*
X68505142Y-54563855D01*
X68505142Y-54868617D02*
X68560000Y-54830521D01*
X68560000Y-54830521D02*
X68669714Y-54830521D01*
X68669714Y-54830521D02*
X68724571Y-54868617D01*
X68724571Y-54868617D02*
X68752000Y-54906712D01*
X68752000Y-54906712D02*
X68779428Y-54982902D01*
X68779428Y-54982902D02*
X68779428Y-55211474D01*
X68779428Y-55211474D02*
X68752000Y-55287664D01*
X68752000Y-55287664D02*
X68724571Y-55325760D01*
X68724571Y-55325760D02*
X68669714Y-55363855D01*
X68669714Y-55363855D02*
X68560000Y-55363855D01*
X68560000Y-55363855D02*
X68505142Y-55325760D01*
X69108571Y-55363855D02*
X69053714Y-55325760D01*
X69053714Y-55325760D02*
X69026285Y-55249569D01*
X69026285Y-55249569D02*
X69026285Y-54563855D01*
X69547428Y-55325760D02*
X69492571Y-55363855D01*
X69492571Y-55363855D02*
X69382857Y-55363855D01*
X69382857Y-55363855D02*
X69327999Y-55325760D01*
X69327999Y-55325760D02*
X69300571Y-55249569D01*
X69300571Y-55249569D02*
X69300571Y-54944807D01*
X69300571Y-54944807D02*
X69327999Y-54868617D01*
X69327999Y-54868617D02*
X69382857Y-54830521D01*
X69382857Y-54830521D02*
X69492571Y-54830521D01*
X69492571Y-54830521D02*
X69547428Y-54868617D01*
X69547428Y-54868617D02*
X69574857Y-54944807D01*
X69574857Y-54944807D02*
X69574857Y-55020998D01*
X69574857Y-55020998D02*
X69300571Y-55097188D01*
X70260570Y-55059093D02*
X70699428Y-55059093D01*
X70479999Y-55363855D02*
X70479999Y-54754331D01*
X71412570Y-55363855D02*
X71412570Y-54830521D01*
X71412570Y-54906712D02*
X71439999Y-54868617D01*
X71439999Y-54868617D02*
X71494856Y-54830521D01*
X71494856Y-54830521D02*
X71577142Y-54830521D01*
X71577142Y-54830521D02*
X71631999Y-54868617D01*
X71631999Y-54868617D02*
X71659428Y-54944807D01*
X71659428Y-54944807D02*
X71659428Y-55363855D01*
X71659428Y-54944807D02*
X71686856Y-54868617D01*
X71686856Y-54868617D02*
X71741713Y-54830521D01*
X71741713Y-54830521D02*
X71823999Y-54830521D01*
X71823999Y-54830521D02*
X71878856Y-54868617D01*
X71878856Y-54868617D02*
X71906285Y-54944807D01*
X71906285Y-54944807D02*
X71906285Y-55363855D01*
X72262856Y-55363855D02*
X72207999Y-55325760D01*
X72207999Y-55325760D02*
X72180570Y-55287664D01*
X72180570Y-55287664D02*
X72153142Y-55211474D01*
X72153142Y-55211474D02*
X72153142Y-54982902D01*
X72153142Y-54982902D02*
X72180570Y-54906712D01*
X72180570Y-54906712D02*
X72207999Y-54868617D01*
X72207999Y-54868617D02*
X72262856Y-54830521D01*
X72262856Y-54830521D02*
X72345142Y-54830521D01*
X72345142Y-54830521D02*
X72399999Y-54868617D01*
X72399999Y-54868617D02*
X72427428Y-54906712D01*
X72427428Y-54906712D02*
X72454856Y-54982902D01*
X72454856Y-54982902D02*
X72454856Y-55211474D01*
X72454856Y-55211474D02*
X72427428Y-55287664D01*
X72427428Y-55287664D02*
X72399999Y-55325760D01*
X72399999Y-55325760D02*
X72345142Y-55363855D01*
X72345142Y-55363855D02*
X72262856Y-55363855D01*
X72701713Y-54830521D02*
X72701713Y-55363855D01*
X72701713Y-54906712D02*
X72729142Y-54868617D01*
X72729142Y-54868617D02*
X72783999Y-54830521D01*
X72783999Y-54830521D02*
X72866285Y-54830521D01*
X72866285Y-54830521D02*
X72921142Y-54868617D01*
X72921142Y-54868617D02*
X72948571Y-54944807D01*
X72948571Y-54944807D02*
X72948571Y-55363855D01*
X73222856Y-55363855D02*
X73222856Y-54830521D01*
X73222856Y-54563855D02*
X73195428Y-54601950D01*
X73195428Y-54601950D02*
X73222856Y-54640045D01*
X73222856Y-54640045D02*
X73250285Y-54601950D01*
X73250285Y-54601950D02*
X73222856Y-54563855D01*
X73222856Y-54563855D02*
X73222856Y-54640045D01*
X73414857Y-54830521D02*
X73634285Y-54830521D01*
X73497142Y-54563855D02*
X73497142Y-55249569D01*
X73497142Y-55249569D02*
X73524571Y-55325760D01*
X73524571Y-55325760D02*
X73579428Y-55363855D01*
X73579428Y-55363855D02*
X73634285Y-55363855D01*
X73908571Y-55363855D02*
X73853714Y-55325760D01*
X73853714Y-55325760D02*
X73826285Y-55287664D01*
X73826285Y-55287664D02*
X73798857Y-55211474D01*
X73798857Y-55211474D02*
X73798857Y-54982902D01*
X73798857Y-54982902D02*
X73826285Y-54906712D01*
X73826285Y-54906712D02*
X73853714Y-54868617D01*
X73853714Y-54868617D02*
X73908571Y-54830521D01*
X73908571Y-54830521D02*
X73990857Y-54830521D01*
X73990857Y-54830521D02*
X74045714Y-54868617D01*
X74045714Y-54868617D02*
X74073143Y-54906712D01*
X74073143Y-54906712D02*
X74100571Y-54982902D01*
X74100571Y-54982902D02*
X74100571Y-55211474D01*
X74100571Y-55211474D02*
X74073143Y-55287664D01*
X74073143Y-55287664D02*
X74045714Y-55325760D01*
X74045714Y-55325760D02*
X73990857Y-55363855D01*
X73990857Y-55363855D02*
X73908571Y-55363855D01*
X74347428Y-55363855D02*
X74347428Y-54830521D01*
X74347428Y-54982902D02*
X74374857Y-54906712D01*
X74374857Y-54906712D02*
X74402286Y-54868617D01*
X74402286Y-54868617D02*
X74457143Y-54830521D01*
X74457143Y-54830521D02*
X74512000Y-54830521D01*
X74676571Y-55325760D02*
X74731428Y-55363855D01*
X74731428Y-55363855D02*
X74841142Y-55363855D01*
X74841142Y-55363855D02*
X74895999Y-55325760D01*
X74895999Y-55325760D02*
X74923428Y-55249569D01*
X74923428Y-55249569D02*
X74923428Y-55211474D01*
X74923428Y-55211474D02*
X74895999Y-55135283D01*
X74895999Y-55135283D02*
X74841142Y-55097188D01*
X74841142Y-55097188D02*
X74758857Y-55097188D01*
X74758857Y-55097188D02*
X74703999Y-55059093D01*
X74703999Y-55059093D02*
X74676571Y-54982902D01*
X74676571Y-54982902D02*
X74676571Y-54944807D01*
X74676571Y-54944807D02*
X74703999Y-54868617D01*
X74703999Y-54868617D02*
X74758857Y-54830521D01*
X74758857Y-54830521D02*
X74841142Y-54830521D01*
X74841142Y-54830521D02*
X74895999Y-54868617D01*
D11*
X5361714Y-46509337D02*
X5361714Y-47237908D01*
X5361714Y-47237908D02*
X5392571Y-47323622D01*
X5392571Y-47323622D02*
X5423429Y-47366480D01*
X5423429Y-47366480D02*
X5485143Y-47409337D01*
X5485143Y-47409337D02*
X5608571Y-47409337D01*
X5608571Y-47409337D02*
X5670286Y-47366480D01*
X5670286Y-47366480D02*
X5701143Y-47323622D01*
X5701143Y-47323622D02*
X5732000Y-47237908D01*
X5732000Y-47237908D02*
X5732000Y-46509337D01*
X6009714Y-47366480D02*
X6102286Y-47409337D01*
X6102286Y-47409337D02*
X6256571Y-47409337D01*
X6256571Y-47409337D02*
X6318286Y-47366480D01*
X6318286Y-47366480D02*
X6349143Y-47323622D01*
X6349143Y-47323622D02*
X6380000Y-47237908D01*
X6380000Y-47237908D02*
X6380000Y-47152194D01*
X6380000Y-47152194D02*
X6349143Y-47066480D01*
X6349143Y-47066480D02*
X6318286Y-47023622D01*
X6318286Y-47023622D02*
X6256571Y-46980765D01*
X6256571Y-46980765D02*
X6133143Y-46937908D01*
X6133143Y-46937908D02*
X6071428Y-46895051D01*
X6071428Y-46895051D02*
X6040571Y-46852194D01*
X6040571Y-46852194D02*
X6009714Y-46766480D01*
X6009714Y-46766480D02*
X6009714Y-46680765D01*
X6009714Y-46680765D02*
X6040571Y-46595051D01*
X6040571Y-46595051D02*
X6071428Y-46552194D01*
X6071428Y-46552194D02*
X6133143Y-46509337D01*
X6133143Y-46509337D02*
X6287428Y-46509337D01*
X6287428Y-46509337D02*
X6380000Y-46552194D01*
X7028000Y-47409337D02*
X6812000Y-46980765D01*
X6657714Y-47409337D02*
X6657714Y-46509337D01*
X6657714Y-46509337D02*
X6904571Y-46509337D01*
X6904571Y-46509337D02*
X6966286Y-46552194D01*
X6966286Y-46552194D02*
X6997143Y-46595051D01*
X6997143Y-46595051D02*
X7028000Y-46680765D01*
X7028000Y-46680765D02*
X7028000Y-46809337D01*
X7028000Y-46809337D02*
X6997143Y-46895051D01*
X6997143Y-46895051D02*
X6966286Y-46937908D01*
X6966286Y-46937908D02*
X6904571Y-46980765D01*
X6904571Y-46980765D02*
X6657714Y-46980765D01*
X7305714Y-47409337D02*
X7305714Y-46509337D01*
X7305714Y-46509337D02*
X7552571Y-46509337D01*
X7552571Y-46509337D02*
X7614286Y-46552194D01*
X7614286Y-46552194D02*
X7645143Y-46595051D01*
X7645143Y-46595051D02*
X7676000Y-46680765D01*
X7676000Y-46680765D02*
X7676000Y-46809337D01*
X7676000Y-46809337D02*
X7645143Y-46895051D01*
X7645143Y-46895051D02*
X7614286Y-46937908D01*
X7614286Y-46937908D02*
X7552571Y-46980765D01*
X7552571Y-46980765D02*
X7305714Y-46980765D01*
X8663428Y-46937908D02*
X8756000Y-46980765D01*
X8756000Y-46980765D02*
X8786857Y-47023622D01*
X8786857Y-47023622D02*
X8817714Y-47109337D01*
X8817714Y-47109337D02*
X8817714Y-47237908D01*
X8817714Y-47237908D02*
X8786857Y-47323622D01*
X8786857Y-47323622D02*
X8756000Y-47366480D01*
X8756000Y-47366480D02*
X8694285Y-47409337D01*
X8694285Y-47409337D02*
X8447428Y-47409337D01*
X8447428Y-47409337D02*
X8447428Y-46509337D01*
X8447428Y-46509337D02*
X8663428Y-46509337D01*
X8663428Y-46509337D02*
X8725143Y-46552194D01*
X8725143Y-46552194D02*
X8756000Y-46595051D01*
X8756000Y-46595051D02*
X8786857Y-46680765D01*
X8786857Y-46680765D02*
X8786857Y-46766480D01*
X8786857Y-46766480D02*
X8756000Y-46852194D01*
X8756000Y-46852194D02*
X8725143Y-46895051D01*
X8725143Y-46895051D02*
X8663428Y-46937908D01*
X8663428Y-46937908D02*
X8447428Y-46937908D01*
X9064571Y-46595051D02*
X9095428Y-46552194D01*
X9095428Y-46552194D02*
X9157143Y-46509337D01*
X9157143Y-46509337D02*
X9311428Y-46509337D01*
X9311428Y-46509337D02*
X9373143Y-46552194D01*
X9373143Y-46552194D02*
X9404000Y-46595051D01*
X9404000Y-46595051D02*
X9434857Y-46680765D01*
X9434857Y-46680765D02*
X9434857Y-46766480D01*
X9434857Y-46766480D02*
X9404000Y-46895051D01*
X9404000Y-46895051D02*
X9033714Y-47409337D01*
X9033714Y-47409337D02*
X9434857Y-47409337D01*
X10052000Y-47409337D02*
X9681714Y-47409337D01*
X9866857Y-47409337D02*
X9866857Y-46509337D01*
X9866857Y-46509337D02*
X9805143Y-46637908D01*
X9805143Y-46637908D02*
X9743428Y-46723622D01*
X9743428Y-46723622D02*
X9681714Y-46766480D01*
X10453143Y-46509337D02*
X10514857Y-46509337D01*
X10514857Y-46509337D02*
X10576571Y-46552194D01*
X10576571Y-46552194D02*
X10607429Y-46595051D01*
X10607429Y-46595051D02*
X10638286Y-46680765D01*
X10638286Y-46680765D02*
X10669143Y-46852194D01*
X10669143Y-46852194D02*
X10669143Y-47066480D01*
X10669143Y-47066480D02*
X10638286Y-47237908D01*
X10638286Y-47237908D02*
X10607429Y-47323622D01*
X10607429Y-47323622D02*
X10576571Y-47366480D01*
X10576571Y-47366480D02*
X10514857Y-47409337D01*
X10514857Y-47409337D02*
X10453143Y-47409337D01*
X10453143Y-47409337D02*
X10391429Y-47366480D01*
X10391429Y-47366480D02*
X10360571Y-47323622D01*
X10360571Y-47323622D02*
X10329714Y-47237908D01*
X10329714Y-47237908D02*
X10298857Y-47066480D01*
X10298857Y-47066480D02*
X10298857Y-46852194D01*
X10298857Y-46852194D02*
X10329714Y-46680765D01*
X10329714Y-46680765D02*
X10360571Y-46595051D01*
X10360571Y-46595051D02*
X10391429Y-46552194D01*
X10391429Y-46552194D02*
X10453143Y-46509337D01*
D12*
X21537143Y-39954819D02*
X21297143Y-39478628D01*
X21125714Y-39954819D02*
X21125714Y-38954819D01*
X21125714Y-38954819D02*
X21400000Y-38954819D01*
X21400000Y-38954819D02*
X21468571Y-39002438D01*
X21468571Y-39002438D02*
X21502857Y-39050057D01*
X21502857Y-39050057D02*
X21537143Y-39145295D01*
X21537143Y-39145295D02*
X21537143Y-39288152D01*
X21537143Y-39288152D02*
X21502857Y-39383390D01*
X21502857Y-39383390D02*
X21468571Y-39431009D01*
X21468571Y-39431009D02*
X21400000Y-39478628D01*
X21400000Y-39478628D02*
X21125714Y-39478628D01*
X21777143Y-38954819D02*
X22257143Y-39954819D01*
X22257143Y-38954819D02*
X21777143Y-39954819D01*
X22497142Y-39050057D02*
X22531428Y-39002438D01*
X22531428Y-39002438D02*
X22600000Y-38954819D01*
X22600000Y-38954819D02*
X22771428Y-38954819D01*
X22771428Y-38954819D02*
X22840000Y-39002438D01*
X22840000Y-39002438D02*
X22874285Y-39050057D01*
X22874285Y-39050057D02*
X22908571Y-39145295D01*
X22908571Y-39145295D02*
X22908571Y-39240533D01*
X22908571Y-39240533D02*
X22874285Y-39383390D01*
X22874285Y-39383390D02*
X22462857Y-39954819D01*
X22462857Y-39954819D02*
X22908571Y-39954819D01*
X21537143Y-60954819D02*
X21297143Y-60478628D01*
X21125714Y-60954819D02*
X21125714Y-59954819D01*
X21125714Y-59954819D02*
X21400000Y-59954819D01*
X21400000Y-59954819D02*
X21468571Y-60002438D01*
X21468571Y-60002438D02*
X21502857Y-60050057D01*
X21502857Y-60050057D02*
X21537143Y-60145295D01*
X21537143Y-60145295D02*
X21537143Y-60288152D01*
X21537143Y-60288152D02*
X21502857Y-60383390D01*
X21502857Y-60383390D02*
X21468571Y-60431009D01*
X21468571Y-60431009D02*
X21400000Y-60478628D01*
X21400000Y-60478628D02*
X21125714Y-60478628D01*
X21777143Y-59954819D02*
X22257143Y-60954819D01*
X22257143Y-59954819D02*
X21777143Y-60954819D01*
X22908571Y-60954819D02*
X22497142Y-60954819D01*
X22702857Y-60954819D02*
X22702857Y-59954819D01*
X22702857Y-59954819D02*
X22634285Y-60097676D01*
X22634285Y-60097676D02*
X22565714Y-60192914D01*
X22565714Y-60192914D02*
X22497142Y-60240533D01*
X20674287Y-12954819D02*
X21085716Y-12954819D01*
X20880001Y-13954819D02*
X20880001Y-12954819D01*
X21257144Y-12954819D02*
X21737144Y-13954819D01*
X21737144Y-12954819D02*
X21257144Y-13954819D01*
X21977143Y-13050057D02*
X22011429Y-13002438D01*
X22011429Y-13002438D02*
X22080001Y-12954819D01*
X22080001Y-12954819D02*
X22251429Y-12954819D01*
X22251429Y-12954819D02*
X22320001Y-13002438D01*
X22320001Y-13002438D02*
X22354286Y-13050057D01*
X22354286Y-13050057D02*
X22388572Y-13145295D01*
X22388572Y-13145295D02*
X22388572Y-13240533D01*
X22388572Y-13240533D02*
X22354286Y-13383390D01*
X22354286Y-13383390D02*
X21942858Y-13954819D01*
X21942858Y-13954819D02*
X22388572Y-13954819D01*
X23931428Y-12954819D02*
X23999999Y-12954819D01*
X23999999Y-12954819D02*
X24068571Y-13002438D01*
X24068571Y-13002438D02*
X24102857Y-13050057D01*
X24102857Y-13050057D02*
X24137142Y-13145295D01*
X24137142Y-13145295D02*
X24171428Y-13335771D01*
X24171428Y-13335771D02*
X24171428Y-13573866D01*
X24171428Y-13573866D02*
X24137142Y-13764342D01*
X24137142Y-13764342D02*
X24102857Y-13859580D01*
X24102857Y-13859580D02*
X24068571Y-13907200D01*
X24068571Y-13907200D02*
X23999999Y-13954819D01*
X23999999Y-13954819D02*
X23931428Y-13954819D01*
X23931428Y-13954819D02*
X23862857Y-13907200D01*
X23862857Y-13907200D02*
X23828571Y-13859580D01*
X23828571Y-13859580D02*
X23794285Y-13764342D01*
X23794285Y-13764342D02*
X23759999Y-13573866D01*
X23759999Y-13573866D02*
X23759999Y-13335771D01*
X23759999Y-13335771D02*
X23794285Y-13145295D01*
X23794285Y-13145295D02*
X23828571Y-13050057D01*
X23828571Y-13050057D02*
X23862857Y-13002438D01*
X23862857Y-13002438D02*
X23931428Y-12954819D01*
X24479999Y-13859580D02*
X24514285Y-13907200D01*
X24514285Y-13907200D02*
X24479999Y-13954819D01*
X24479999Y-13954819D02*
X24445713Y-13907200D01*
X24445713Y-13907200D02*
X24479999Y-13859580D01*
X24479999Y-13859580D02*
X24479999Y-13954819D01*
X24754285Y-12954819D02*
X25234285Y-12954819D01*
X25234285Y-12954819D02*
X24925713Y-13954819D01*
X25851427Y-12954819D02*
X25508570Y-12954819D01*
X25508570Y-12954819D02*
X25474284Y-13431009D01*
X25474284Y-13431009D02*
X25508570Y-13383390D01*
X25508570Y-13383390D02*
X25577142Y-13335771D01*
X25577142Y-13335771D02*
X25748570Y-13335771D01*
X25748570Y-13335771D02*
X25817142Y-13383390D01*
X25817142Y-13383390D02*
X25851427Y-13431009D01*
X25851427Y-13431009D02*
X25885713Y-13526247D01*
X25885713Y-13526247D02*
X25885713Y-13764342D01*
X25885713Y-13764342D02*
X25851427Y-13859580D01*
X25851427Y-13859580D02*
X25817142Y-13907200D01*
X25817142Y-13907200D02*
X25748570Y-13954819D01*
X25748570Y-13954819D02*
X25577142Y-13954819D01*
X25577142Y-13954819D02*
X25508570Y-13907200D01*
X25508570Y-13907200D02*
X25474284Y-13859580D01*
X26674284Y-12954819D02*
X26845712Y-13954819D01*
X26845712Y-13954819D02*
X26982855Y-13240533D01*
X26982855Y-13240533D02*
X27119998Y-13954819D01*
X27119998Y-13954819D02*
X27291427Y-12954819D01*
X20674287Y-85954819D02*
X21085716Y-85954819D01*
X20880001Y-86954819D02*
X20880001Y-85954819D01*
X21257144Y-85954819D02*
X21737144Y-86954819D01*
X21737144Y-85954819D02*
X21257144Y-86954819D01*
X22388572Y-86954819D02*
X21977143Y-86954819D01*
X22182858Y-86954819D02*
X22182858Y-85954819D01*
X22182858Y-85954819D02*
X22114286Y-86097676D01*
X22114286Y-86097676D02*
X22045715Y-86192914D01*
X22045715Y-86192914D02*
X21977143Y-86240533D01*
X23931428Y-85954819D02*
X23999999Y-85954819D01*
X23999999Y-85954819D02*
X24068571Y-86002438D01*
X24068571Y-86002438D02*
X24102857Y-86050057D01*
X24102857Y-86050057D02*
X24137142Y-86145295D01*
X24137142Y-86145295D02*
X24171428Y-86335771D01*
X24171428Y-86335771D02*
X24171428Y-86573866D01*
X24171428Y-86573866D02*
X24137142Y-86764342D01*
X24137142Y-86764342D02*
X24102857Y-86859580D01*
X24102857Y-86859580D02*
X24068571Y-86907200D01*
X24068571Y-86907200D02*
X23999999Y-86954819D01*
X23999999Y-86954819D02*
X23931428Y-86954819D01*
X23931428Y-86954819D02*
X23862857Y-86907200D01*
X23862857Y-86907200D02*
X23828571Y-86859580D01*
X23828571Y-86859580D02*
X23794285Y-86764342D01*
X23794285Y-86764342D02*
X23759999Y-86573866D01*
X23759999Y-86573866D02*
X23759999Y-86335771D01*
X23759999Y-86335771D02*
X23794285Y-86145295D01*
X23794285Y-86145295D02*
X23828571Y-86050057D01*
X23828571Y-86050057D02*
X23862857Y-86002438D01*
X23862857Y-86002438D02*
X23931428Y-85954819D01*
X24479999Y-86859580D02*
X24514285Y-86907200D01*
X24514285Y-86907200D02*
X24479999Y-86954819D01*
X24479999Y-86954819D02*
X24445713Y-86907200D01*
X24445713Y-86907200D02*
X24479999Y-86859580D01*
X24479999Y-86859580D02*
X24479999Y-86954819D01*
X24754285Y-85954819D02*
X25234285Y-85954819D01*
X25234285Y-85954819D02*
X24925713Y-86954819D01*
X25851427Y-85954819D02*
X25508570Y-85954819D01*
X25508570Y-85954819D02*
X25474284Y-86431009D01*
X25474284Y-86431009D02*
X25508570Y-86383390D01*
X25508570Y-86383390D02*
X25577142Y-86335771D01*
X25577142Y-86335771D02*
X25748570Y-86335771D01*
X25748570Y-86335771D02*
X25817142Y-86383390D01*
X25817142Y-86383390D02*
X25851427Y-86431009D01*
X25851427Y-86431009D02*
X25885713Y-86526247D01*
X25885713Y-86526247D02*
X25885713Y-86764342D01*
X25885713Y-86764342D02*
X25851427Y-86859580D01*
X25851427Y-86859580D02*
X25817142Y-86907200D01*
X25817142Y-86907200D02*
X25748570Y-86954819D01*
X25748570Y-86954819D02*
X25577142Y-86954819D01*
X25577142Y-86954819D02*
X25508570Y-86907200D01*
X25508570Y-86907200D02*
X25474284Y-86859580D01*
X26674284Y-85954819D02*
X26845712Y-86954819D01*
X26845712Y-86954819D02*
X26982855Y-86240533D01*
X26982855Y-86240533D02*
X27119998Y-86954819D01*
X27119998Y-86954819D02*
X27291427Y-85954819D01*
D13*
X10761905Y-23645781D02*
X11247619Y-23645781D01*
X11004762Y-24845781D02*
X11004762Y-23645781D01*
X11450000Y-23645781D02*
X12016667Y-24845781D01*
X12016667Y-23645781D02*
X11450000Y-24845781D01*
X12300000Y-23760067D02*
X12340476Y-23702924D01*
X12340476Y-23702924D02*
X12421429Y-23645781D01*
X12421429Y-23645781D02*
X12623810Y-23645781D01*
X12623810Y-23645781D02*
X12704762Y-23702924D01*
X12704762Y-23702924D02*
X12745238Y-23760067D01*
X12745238Y-23760067D02*
X12785715Y-23874353D01*
X12785715Y-23874353D02*
X12785715Y-23988639D01*
X12785715Y-23988639D02*
X12745238Y-24160067D01*
X12745238Y-24160067D02*
X12259524Y-24845781D01*
X12259524Y-24845781D02*
X12785715Y-24845781D01*
X12947620Y-24960067D02*
X13595239Y-24960067D01*
X14283334Y-24845781D02*
X14000000Y-24274353D01*
X13797619Y-24845781D02*
X13797619Y-23645781D01*
X13797619Y-23645781D02*
X14121429Y-23645781D01*
X14121429Y-23645781D02*
X14202381Y-23702924D01*
X14202381Y-23702924D02*
X14242858Y-23760067D01*
X14242858Y-23760067D02*
X14283334Y-23874353D01*
X14283334Y-23874353D02*
X14283334Y-24045781D01*
X14283334Y-24045781D02*
X14242858Y-24160067D01*
X14242858Y-24160067D02*
X14202381Y-24217210D01*
X14202381Y-24217210D02*
X14121429Y-24274353D01*
X14121429Y-24274353D02*
X13797619Y-24274353D01*
X14607143Y-24502924D02*
X15011905Y-24502924D01*
X14526191Y-24845781D02*
X14809524Y-23645781D01*
X14809524Y-23645781D02*
X15092858Y-24845781D01*
X15376190Y-24845781D02*
X15376190Y-23645781D01*
X15376190Y-23645781D02*
X15578571Y-23645781D01*
X15578571Y-23645781D02*
X15700000Y-23702924D01*
X15700000Y-23702924D02*
X15780952Y-23817210D01*
X15780952Y-23817210D02*
X15821429Y-23931496D01*
X15821429Y-23931496D02*
X15861905Y-24160067D01*
X15861905Y-24160067D02*
X15861905Y-24331496D01*
X15861905Y-24331496D02*
X15821429Y-24560067D01*
X15821429Y-24560067D02*
X15780952Y-24674353D01*
X15780952Y-24674353D02*
X15700000Y-24788639D01*
X15700000Y-24788639D02*
X15578571Y-24845781D01*
X15578571Y-24845781D02*
X15376190Y-24845781D01*
X16226190Y-24845781D02*
X16226190Y-23645781D01*
X16792857Y-23645781D02*
X16954762Y-23645781D01*
X16954762Y-23645781D02*
X17035714Y-23702924D01*
X17035714Y-23702924D02*
X17116667Y-23817210D01*
X17116667Y-23817210D02*
X17157143Y-24045781D01*
X17157143Y-24045781D02*
X17157143Y-24445781D01*
X17157143Y-24445781D02*
X17116667Y-24674353D01*
X17116667Y-24674353D02*
X17035714Y-24788639D01*
X17035714Y-24788639D02*
X16954762Y-24845781D01*
X16954762Y-24845781D02*
X16792857Y-24845781D01*
X16792857Y-24845781D02*
X16711905Y-24788639D01*
X16711905Y-24788639D02*
X16630952Y-24674353D01*
X16630952Y-24674353D02*
X16590476Y-24445781D01*
X16590476Y-24445781D02*
X16590476Y-24045781D01*
X16590476Y-24045781D02*
X16630952Y-23817210D01*
X16630952Y-23817210D02*
X16711905Y-23702924D01*
X16711905Y-23702924D02*
X16792857Y-23645781D01*
X11267857Y-39845782D02*
X10984523Y-39274354D01*
X10782142Y-39845782D02*
X10782142Y-38645782D01*
X10782142Y-38645782D02*
X11105952Y-38645782D01*
X11105952Y-38645782D02*
X11186904Y-38702925D01*
X11186904Y-38702925D02*
X11227381Y-38760068D01*
X11227381Y-38760068D02*
X11267857Y-38874354D01*
X11267857Y-38874354D02*
X11267857Y-39045782D01*
X11267857Y-39045782D02*
X11227381Y-39160068D01*
X11227381Y-39160068D02*
X11186904Y-39217211D01*
X11186904Y-39217211D02*
X11105952Y-39274354D01*
X11105952Y-39274354D02*
X10782142Y-39274354D01*
X11551190Y-38645782D02*
X12117857Y-39845782D01*
X12117857Y-38645782D02*
X11551190Y-39845782D01*
X12401190Y-38760068D02*
X12441666Y-38702925D01*
X12441666Y-38702925D02*
X12522619Y-38645782D01*
X12522619Y-38645782D02*
X12725000Y-38645782D01*
X12725000Y-38645782D02*
X12805952Y-38702925D01*
X12805952Y-38702925D02*
X12846428Y-38760068D01*
X12846428Y-38760068D02*
X12886905Y-38874354D01*
X12886905Y-38874354D02*
X12886905Y-38988640D01*
X12886905Y-38988640D02*
X12846428Y-39160068D01*
X12846428Y-39160068D02*
X12360714Y-39845782D01*
X12360714Y-39845782D02*
X12886905Y-39845782D01*
X13048810Y-39960068D02*
X13696429Y-39960068D01*
X14384524Y-39845782D02*
X14101190Y-39274354D01*
X13898809Y-39845782D02*
X13898809Y-38645782D01*
X13898809Y-38645782D02*
X14222619Y-38645782D01*
X14222619Y-38645782D02*
X14303571Y-38702925D01*
X14303571Y-38702925D02*
X14344048Y-38760068D01*
X14344048Y-38760068D02*
X14384524Y-38874354D01*
X14384524Y-38874354D02*
X14384524Y-39045782D01*
X14384524Y-39045782D02*
X14344048Y-39160068D01*
X14344048Y-39160068D02*
X14303571Y-39217211D01*
X14303571Y-39217211D02*
X14222619Y-39274354D01*
X14222619Y-39274354D02*
X13898809Y-39274354D01*
X14708333Y-39502925D02*
X15113095Y-39502925D01*
X14627381Y-39845782D02*
X14910714Y-38645782D01*
X14910714Y-38645782D02*
X15194048Y-39845782D01*
X15477380Y-39845782D02*
X15477380Y-38645782D01*
X15477380Y-38645782D02*
X15679761Y-38645782D01*
X15679761Y-38645782D02*
X15801190Y-38702925D01*
X15801190Y-38702925D02*
X15882142Y-38817211D01*
X15882142Y-38817211D02*
X15922619Y-38931497D01*
X15922619Y-38931497D02*
X15963095Y-39160068D01*
X15963095Y-39160068D02*
X15963095Y-39331497D01*
X15963095Y-39331497D02*
X15922619Y-39560068D01*
X15922619Y-39560068D02*
X15882142Y-39674354D01*
X15882142Y-39674354D02*
X15801190Y-39788640D01*
X15801190Y-39788640D02*
X15679761Y-39845782D01*
X15679761Y-39845782D02*
X15477380Y-39845782D01*
X16327380Y-39845782D02*
X16327380Y-38645782D01*
X16894047Y-38645782D02*
X17055952Y-38645782D01*
X17055952Y-38645782D02*
X17136904Y-38702925D01*
X17136904Y-38702925D02*
X17217857Y-38817211D01*
X17217857Y-38817211D02*
X17258333Y-39045782D01*
X17258333Y-39045782D02*
X17258333Y-39445782D01*
X17258333Y-39445782D02*
X17217857Y-39674354D01*
X17217857Y-39674354D02*
X17136904Y-39788640D01*
X17136904Y-39788640D02*
X17055952Y-39845782D01*
X17055952Y-39845782D02*
X16894047Y-39845782D01*
X16894047Y-39845782D02*
X16813095Y-39788640D01*
X16813095Y-39788640D02*
X16732142Y-39674354D01*
X16732142Y-39674354D02*
X16691666Y-39445782D01*
X16691666Y-39445782D02*
X16691666Y-39045782D01*
X16691666Y-39045782D02*
X16732142Y-38817211D01*
X16732142Y-38817211D02*
X16813095Y-38702925D01*
X16813095Y-38702925D02*
X16894047Y-38645782D01*
X11267857Y-54845782D02*
X10984523Y-54274354D01*
X10782142Y-54845782D02*
X10782142Y-53645782D01*
X10782142Y-53645782D02*
X11105952Y-53645782D01*
X11105952Y-53645782D02*
X11186904Y-53702925D01*
X11186904Y-53702925D02*
X11227381Y-53760068D01*
X11227381Y-53760068D02*
X11267857Y-53874354D01*
X11267857Y-53874354D02*
X11267857Y-54045782D01*
X11267857Y-54045782D02*
X11227381Y-54160068D01*
X11227381Y-54160068D02*
X11186904Y-54217211D01*
X11186904Y-54217211D02*
X11105952Y-54274354D01*
X11105952Y-54274354D02*
X10782142Y-54274354D01*
X11551190Y-53645782D02*
X12117857Y-54845782D01*
X12117857Y-53645782D02*
X11551190Y-54845782D01*
X12886905Y-54845782D02*
X12401190Y-54845782D01*
X12644047Y-54845782D02*
X12644047Y-53645782D01*
X12644047Y-53645782D02*
X12563095Y-53817211D01*
X12563095Y-53817211D02*
X12482143Y-53931497D01*
X12482143Y-53931497D02*
X12401190Y-53988640D01*
X13048810Y-54960068D02*
X13696429Y-54960068D01*
X14384524Y-54845782D02*
X14101190Y-54274354D01*
X13898809Y-54845782D02*
X13898809Y-53645782D01*
X13898809Y-53645782D02*
X14222619Y-53645782D01*
X14222619Y-53645782D02*
X14303571Y-53702925D01*
X14303571Y-53702925D02*
X14344048Y-53760068D01*
X14344048Y-53760068D02*
X14384524Y-53874354D01*
X14384524Y-53874354D02*
X14384524Y-54045782D01*
X14384524Y-54045782D02*
X14344048Y-54160068D01*
X14344048Y-54160068D02*
X14303571Y-54217211D01*
X14303571Y-54217211D02*
X14222619Y-54274354D01*
X14222619Y-54274354D02*
X13898809Y-54274354D01*
X14708333Y-54502925D02*
X15113095Y-54502925D01*
X14627381Y-54845782D02*
X14910714Y-53645782D01*
X14910714Y-53645782D02*
X15194048Y-54845782D01*
X15477380Y-54845782D02*
X15477380Y-53645782D01*
X15477380Y-53645782D02*
X15679761Y-53645782D01*
X15679761Y-53645782D02*
X15801190Y-53702925D01*
X15801190Y-53702925D02*
X15882142Y-53817211D01*
X15882142Y-53817211D02*
X15922619Y-53931497D01*
X15922619Y-53931497D02*
X15963095Y-54160068D01*
X15963095Y-54160068D02*
X15963095Y-54331497D01*
X15963095Y-54331497D02*
X15922619Y-54560068D01*
X15922619Y-54560068D02*
X15882142Y-54674354D01*
X15882142Y-54674354D02*
X15801190Y-54788640D01*
X15801190Y-54788640D02*
X15679761Y-54845782D01*
X15679761Y-54845782D02*
X15477380Y-54845782D01*
X16327380Y-54845782D02*
X16327380Y-53645782D01*
X16894047Y-53645782D02*
X17055952Y-53645782D01*
X17055952Y-53645782D02*
X17136904Y-53702925D01*
X17136904Y-53702925D02*
X17217857Y-53817211D01*
X17217857Y-53817211D02*
X17258333Y-54045782D01*
X17258333Y-54045782D02*
X17258333Y-54445782D01*
X17258333Y-54445782D02*
X17217857Y-54674354D01*
X17217857Y-54674354D02*
X17136904Y-54788640D01*
X17136904Y-54788640D02*
X17055952Y-54845782D01*
X17055952Y-54845782D02*
X16894047Y-54845782D01*
X16894047Y-54845782D02*
X16813095Y-54788640D01*
X16813095Y-54788640D02*
X16732142Y-54674354D01*
X16732142Y-54674354D02*
X16691666Y-54445782D01*
X16691666Y-54445782D02*
X16691666Y-54045782D01*
X16691666Y-54045782D02*
X16732142Y-53817211D01*
X16732142Y-53817211D02*
X16813095Y-53702925D01*
X16813095Y-53702925D02*
X16894047Y-53645782D01*
X10761905Y-68645782D02*
X11247619Y-68645782D01*
X11004762Y-69845782D02*
X11004762Y-68645782D01*
X11450000Y-68645782D02*
X12016667Y-69845782D01*
X12016667Y-68645782D02*
X11450000Y-69845782D01*
X12785715Y-69845782D02*
X12300000Y-69845782D01*
X12542857Y-69845782D02*
X12542857Y-68645782D01*
X12542857Y-68645782D02*
X12461905Y-68817211D01*
X12461905Y-68817211D02*
X12380953Y-68931497D01*
X12380953Y-68931497D02*
X12300000Y-68988640D01*
X12947620Y-69960068D02*
X13595239Y-69960068D01*
X14283334Y-69845782D02*
X14000000Y-69274354D01*
X13797619Y-69845782D02*
X13797619Y-68645782D01*
X13797619Y-68645782D02*
X14121429Y-68645782D01*
X14121429Y-68645782D02*
X14202381Y-68702925D01*
X14202381Y-68702925D02*
X14242858Y-68760068D01*
X14242858Y-68760068D02*
X14283334Y-68874354D01*
X14283334Y-68874354D02*
X14283334Y-69045782D01*
X14283334Y-69045782D02*
X14242858Y-69160068D01*
X14242858Y-69160068D02*
X14202381Y-69217211D01*
X14202381Y-69217211D02*
X14121429Y-69274354D01*
X14121429Y-69274354D02*
X13797619Y-69274354D01*
X14607143Y-69502925D02*
X15011905Y-69502925D01*
X14526191Y-69845782D02*
X14809524Y-68645782D01*
X14809524Y-68645782D02*
X15092858Y-69845782D01*
X15376190Y-69845782D02*
X15376190Y-68645782D01*
X15376190Y-68645782D02*
X15578571Y-68645782D01*
X15578571Y-68645782D02*
X15700000Y-68702925D01*
X15700000Y-68702925D02*
X15780952Y-68817211D01*
X15780952Y-68817211D02*
X15821429Y-68931497D01*
X15821429Y-68931497D02*
X15861905Y-69160068D01*
X15861905Y-69160068D02*
X15861905Y-69331497D01*
X15861905Y-69331497D02*
X15821429Y-69560068D01*
X15821429Y-69560068D02*
X15780952Y-69674354D01*
X15780952Y-69674354D02*
X15700000Y-69788640D01*
X15700000Y-69788640D02*
X15578571Y-69845782D01*
X15578571Y-69845782D02*
X15376190Y-69845782D01*
X16226190Y-69845782D02*
X16226190Y-68645782D01*
X16792857Y-68645782D02*
X16954762Y-68645782D01*
X16954762Y-68645782D02*
X17035714Y-68702925D01*
X17035714Y-68702925D02*
X17116667Y-68817211D01*
X17116667Y-68817211D02*
X17157143Y-69045782D01*
X17157143Y-69045782D02*
X17157143Y-69445782D01*
X17157143Y-69445782D02*
X17116667Y-69674354D01*
X17116667Y-69674354D02*
X17035714Y-69788640D01*
X17035714Y-69788640D02*
X16954762Y-69845782D01*
X16954762Y-69845782D02*
X16792857Y-69845782D01*
X16792857Y-69845782D02*
X16711905Y-69788640D01*
X16711905Y-69788640D02*
X16630952Y-69674354D01*
X16630952Y-69674354D02*
X16590476Y-69445782D01*
X16590476Y-69445782D02*
X16590476Y-69045782D01*
X16590476Y-69045782D02*
X16630952Y-68817211D01*
X16630952Y-68817211D02*
X16711905Y-68702925D01*
X16711905Y-68702925D02*
X16792857Y-68645782D01*
X83490476Y-4145781D02*
X83976190Y-4145781D01*
X83733333Y-5345781D02*
X83733333Y-4145781D01*
X84178571Y-4145781D02*
X84745238Y-5345781D01*
X84745238Y-4145781D02*
X84178571Y-5345781D01*
X85028571Y-4260067D02*
X85069047Y-4202924D01*
X85069047Y-4202924D02*
X85150000Y-4145781D01*
X85150000Y-4145781D02*
X85352381Y-4145781D01*
X85352381Y-4145781D02*
X85433333Y-4202924D01*
X85433333Y-4202924D02*
X85473809Y-4260067D01*
X85473809Y-4260067D02*
X85514286Y-4374353D01*
X85514286Y-4374353D02*
X85514286Y-4488639D01*
X85514286Y-4488639D02*
X85473809Y-4660067D01*
X85473809Y-4660067D02*
X84988095Y-5345781D01*
X84988095Y-5345781D02*
X85514286Y-5345781D01*
X85676191Y-5460067D02*
X86323810Y-5460067D01*
X86485714Y-5002924D02*
X86890476Y-5002924D01*
X86404762Y-5345781D02*
X86688095Y-4145781D01*
X86688095Y-4145781D02*
X86971429Y-5345781D01*
X87254761Y-5345781D02*
X87254761Y-4145781D01*
X87254761Y-4145781D02*
X87740476Y-5345781D01*
X87740476Y-5345781D02*
X87740476Y-4145781D01*
X88023809Y-4145781D02*
X88509523Y-4145781D01*
X88266666Y-5345781D02*
X88266666Y-4145781D01*
X83996429Y-33345781D02*
X83713095Y-32774353D01*
X83510714Y-33345781D02*
X83510714Y-32145781D01*
X83510714Y-32145781D02*
X83834524Y-32145781D01*
X83834524Y-32145781D02*
X83915476Y-32202924D01*
X83915476Y-32202924D02*
X83955953Y-32260067D01*
X83955953Y-32260067D02*
X83996429Y-32374353D01*
X83996429Y-32374353D02*
X83996429Y-32545781D01*
X83996429Y-32545781D02*
X83955953Y-32660067D01*
X83955953Y-32660067D02*
X83915476Y-32717210D01*
X83915476Y-32717210D02*
X83834524Y-32774353D01*
X83834524Y-32774353D02*
X83510714Y-32774353D01*
X84279762Y-32145781D02*
X84846429Y-33345781D01*
X84846429Y-32145781D02*
X84279762Y-33345781D01*
X85129762Y-32260067D02*
X85170238Y-32202924D01*
X85170238Y-32202924D02*
X85251191Y-32145781D01*
X85251191Y-32145781D02*
X85453572Y-32145781D01*
X85453572Y-32145781D02*
X85534524Y-32202924D01*
X85534524Y-32202924D02*
X85575000Y-32260067D01*
X85575000Y-32260067D02*
X85615477Y-32374353D01*
X85615477Y-32374353D02*
X85615477Y-32488639D01*
X85615477Y-32488639D02*
X85575000Y-32660067D01*
X85575000Y-32660067D02*
X85089286Y-33345781D01*
X85089286Y-33345781D02*
X85615477Y-33345781D01*
X85777382Y-33460067D02*
X86425001Y-33460067D01*
X86586905Y-33002924D02*
X86991667Y-33002924D01*
X86505953Y-33345781D02*
X86789286Y-32145781D01*
X86789286Y-32145781D02*
X87072620Y-33345781D01*
X87355952Y-33345781D02*
X87355952Y-32145781D01*
X87355952Y-32145781D02*
X87841667Y-33345781D01*
X87841667Y-33345781D02*
X87841667Y-32145781D01*
X88125000Y-32145781D02*
X88610714Y-32145781D01*
X88367857Y-33345781D02*
X88367857Y-32145781D01*
X83996429Y-61345782D02*
X83713095Y-60774354D01*
X83510714Y-61345782D02*
X83510714Y-60145782D01*
X83510714Y-60145782D02*
X83834524Y-60145782D01*
X83834524Y-60145782D02*
X83915476Y-60202925D01*
X83915476Y-60202925D02*
X83955953Y-60260068D01*
X83955953Y-60260068D02*
X83996429Y-60374354D01*
X83996429Y-60374354D02*
X83996429Y-60545782D01*
X83996429Y-60545782D02*
X83955953Y-60660068D01*
X83955953Y-60660068D02*
X83915476Y-60717211D01*
X83915476Y-60717211D02*
X83834524Y-60774354D01*
X83834524Y-60774354D02*
X83510714Y-60774354D01*
X84279762Y-60145782D02*
X84846429Y-61345782D01*
X84846429Y-60145782D02*
X84279762Y-61345782D01*
X85615477Y-61345782D02*
X85129762Y-61345782D01*
X85372619Y-61345782D02*
X85372619Y-60145782D01*
X85372619Y-60145782D02*
X85291667Y-60317211D01*
X85291667Y-60317211D02*
X85210715Y-60431497D01*
X85210715Y-60431497D02*
X85129762Y-60488640D01*
X85777382Y-61460068D02*
X86425001Y-61460068D01*
X86586905Y-61002925D02*
X86991667Y-61002925D01*
X86505953Y-61345782D02*
X86789286Y-60145782D01*
X86789286Y-60145782D02*
X87072620Y-61345782D01*
X87355952Y-61345782D02*
X87355952Y-60145782D01*
X87355952Y-60145782D02*
X87841667Y-61345782D01*
X87841667Y-61345782D02*
X87841667Y-60145782D01*
X88125000Y-60145782D02*
X88610714Y-60145782D01*
X88367857Y-61345782D02*
X88367857Y-60145782D01*
X83490476Y-88145782D02*
X83976190Y-88145782D01*
X83733333Y-89345782D02*
X83733333Y-88145782D01*
X84178571Y-88145782D02*
X84745238Y-89345782D01*
X84745238Y-88145782D02*
X84178571Y-89345782D01*
X85514286Y-89345782D02*
X85028571Y-89345782D01*
X85271428Y-89345782D02*
X85271428Y-88145782D01*
X85271428Y-88145782D02*
X85190476Y-88317211D01*
X85190476Y-88317211D02*
X85109524Y-88431497D01*
X85109524Y-88431497D02*
X85028571Y-88488640D01*
X85676191Y-89460068D02*
X86323810Y-89460068D01*
X86485714Y-89002925D02*
X86890476Y-89002925D01*
X86404762Y-89345782D02*
X86688095Y-88145782D01*
X86688095Y-88145782D02*
X86971429Y-89345782D01*
X87254761Y-89345782D02*
X87254761Y-88145782D01*
X87254761Y-88145782D02*
X87740476Y-89345782D01*
X87740476Y-89345782D02*
X87740476Y-88145782D01*
X88023809Y-88145782D02*
X88509523Y-88145782D01*
X88266666Y-89345782D02*
X88266666Y-88145782D01*
X60689142Y-1845782D02*
X60277714Y-1845782D01*
X60277714Y-1845782D02*
X60236571Y-2417211D01*
X60236571Y-2417211D02*
X60277714Y-2360068D01*
X60277714Y-2360068D02*
X60360000Y-2302925D01*
X60360000Y-2302925D02*
X60565714Y-2302925D01*
X60565714Y-2302925D02*
X60648000Y-2360068D01*
X60648000Y-2360068D02*
X60689142Y-2417211D01*
X60689142Y-2417211D02*
X60730285Y-2531497D01*
X60730285Y-2531497D02*
X60730285Y-2817211D01*
X60730285Y-2817211D02*
X60689142Y-2931497D01*
X60689142Y-2931497D02*
X60648000Y-2988640D01*
X60648000Y-2988640D02*
X60565714Y-3045782D01*
X60565714Y-3045782D02*
X60360000Y-3045782D01*
X60360000Y-3045782D02*
X60277714Y-2988640D01*
X60277714Y-2988640D02*
X60236571Y-2931497D01*
X61100571Y-2931497D02*
X61141714Y-2988640D01*
X61141714Y-2988640D02*
X61100571Y-3045782D01*
X61100571Y-3045782D02*
X61059428Y-2988640D01*
X61059428Y-2988640D02*
X61100571Y-2931497D01*
X61100571Y-2931497D02*
X61100571Y-3045782D01*
X61635428Y-2360068D02*
X61553143Y-2302925D01*
X61553143Y-2302925D02*
X61512000Y-2245782D01*
X61512000Y-2245782D02*
X61470857Y-2131497D01*
X61470857Y-2131497D02*
X61470857Y-2074354D01*
X61470857Y-2074354D02*
X61512000Y-1960068D01*
X61512000Y-1960068D02*
X61553143Y-1902925D01*
X61553143Y-1902925D02*
X61635428Y-1845782D01*
X61635428Y-1845782D02*
X61800000Y-1845782D01*
X61800000Y-1845782D02*
X61882286Y-1902925D01*
X61882286Y-1902925D02*
X61923428Y-1960068D01*
X61923428Y-1960068D02*
X61964571Y-2074354D01*
X61964571Y-2074354D02*
X61964571Y-2131497D01*
X61964571Y-2131497D02*
X61923428Y-2245782D01*
X61923428Y-2245782D02*
X61882286Y-2302925D01*
X61882286Y-2302925D02*
X61800000Y-2360068D01*
X61800000Y-2360068D02*
X61635428Y-2360068D01*
X61635428Y-2360068D02*
X61553143Y-2417211D01*
X61553143Y-2417211D02*
X61512000Y-2474354D01*
X61512000Y-2474354D02*
X61470857Y-2588640D01*
X61470857Y-2588640D02*
X61470857Y-2817211D01*
X61470857Y-2817211D02*
X61512000Y-2931497D01*
X61512000Y-2931497D02*
X61553143Y-2988640D01*
X61553143Y-2988640D02*
X61635428Y-3045782D01*
X61635428Y-3045782D02*
X61800000Y-3045782D01*
X61800000Y-3045782D02*
X61882286Y-2988640D01*
X61882286Y-2988640D02*
X61923428Y-2931497D01*
X61923428Y-2931497D02*
X61964571Y-2817211D01*
X61964571Y-2817211D02*
X61964571Y-2588640D01*
X61964571Y-2588640D02*
X61923428Y-2474354D01*
X61923428Y-2474354D02*
X61882286Y-2417211D01*
X61882286Y-2417211D02*
X61800000Y-2360068D01*
X63445714Y-1902925D02*
X63363429Y-1845782D01*
X63363429Y-1845782D02*
X63240000Y-1845782D01*
X63240000Y-1845782D02*
X63116571Y-1902925D01*
X63116571Y-1902925D02*
X63034286Y-2017211D01*
X63034286Y-2017211D02*
X62993143Y-2131497D01*
X62993143Y-2131497D02*
X62952000Y-2360068D01*
X62952000Y-2360068D02*
X62952000Y-2531497D01*
X62952000Y-2531497D02*
X62993143Y-2760068D01*
X62993143Y-2760068D02*
X63034286Y-2874354D01*
X63034286Y-2874354D02*
X63116571Y-2988640D01*
X63116571Y-2988640D02*
X63240000Y-3045782D01*
X63240000Y-3045782D02*
X63322286Y-3045782D01*
X63322286Y-3045782D02*
X63445714Y-2988640D01*
X63445714Y-2988640D02*
X63486857Y-2931497D01*
X63486857Y-2931497D02*
X63486857Y-2531497D01*
X63486857Y-2531497D02*
X63322286Y-2531497D01*
X63857143Y-3045782D02*
X63857143Y-1845782D01*
X63857143Y-2417211D02*
X64350857Y-2417211D01*
X64350857Y-3045782D02*
X64350857Y-1845782D01*
X64680000Y-2245782D02*
X65132572Y-2245782D01*
X65132572Y-2245782D02*
X64680000Y-3045782D01*
X64680000Y-3045782D02*
X65132572Y-3045782D01*
X66613715Y-3045782D02*
X66325715Y-2474354D01*
X66120001Y-3045782D02*
X66120001Y-1845782D01*
X66120001Y-1845782D02*
X66449144Y-1845782D01*
X66449144Y-1845782D02*
X66531429Y-1902925D01*
X66531429Y-1902925D02*
X66572572Y-1960068D01*
X66572572Y-1960068D02*
X66613715Y-2074354D01*
X66613715Y-2074354D02*
X66613715Y-2245782D01*
X66613715Y-2245782D02*
X66572572Y-2360068D01*
X66572572Y-2360068D02*
X66531429Y-2417211D01*
X66531429Y-2417211D02*
X66449144Y-2474354D01*
X66449144Y-2474354D02*
X66120001Y-2474354D01*
X66942858Y-2702925D02*
X67354287Y-2702925D01*
X66860572Y-3045782D02*
X67148572Y-1845782D01*
X67148572Y-1845782D02*
X67436572Y-3045782D01*
X67724572Y-3045782D02*
X67724572Y-1845782D01*
X67724572Y-1845782D02*
X67930286Y-1845782D01*
X67930286Y-1845782D02*
X68053715Y-1902925D01*
X68053715Y-1902925D02*
X68136000Y-2017211D01*
X68136000Y-2017211D02*
X68177143Y-2131497D01*
X68177143Y-2131497D02*
X68218286Y-2360068D01*
X68218286Y-2360068D02*
X68218286Y-2531497D01*
X68218286Y-2531497D02*
X68177143Y-2760068D01*
X68177143Y-2760068D02*
X68136000Y-2874354D01*
X68136000Y-2874354D02*
X68053715Y-2988640D01*
X68053715Y-2988640D02*
X67930286Y-3045782D01*
X67930286Y-3045782D02*
X67724572Y-3045782D01*
X68547429Y-2702925D02*
X68958858Y-2702925D01*
X68465143Y-3045782D02*
X68753143Y-1845782D01*
X68753143Y-1845782D02*
X69041143Y-3045782D01*
X69822857Y-3045782D02*
X69534857Y-2474354D01*
X69329143Y-3045782D02*
X69329143Y-1845782D01*
X69329143Y-1845782D02*
X69658286Y-1845782D01*
X69658286Y-1845782D02*
X69740571Y-1902925D01*
X69740571Y-1902925D02*
X69781714Y-1960068D01*
X69781714Y-1960068D02*
X69822857Y-2074354D01*
X69822857Y-2074354D02*
X69822857Y-2245782D01*
X69822857Y-2245782D02*
X69781714Y-2360068D01*
X69781714Y-2360068D02*
X69740571Y-2417211D01*
X69740571Y-2417211D02*
X69658286Y-2474354D01*
X69658286Y-2474354D02*
X69329143Y-2474354D01*
X71139429Y-2417211D02*
X70851429Y-2417211D01*
X70851429Y-3045782D02*
X70851429Y-1845782D01*
X70851429Y-1845782D02*
X71262857Y-1845782D01*
X72085714Y-3045782D02*
X71797714Y-2474354D01*
X71592000Y-3045782D02*
X71592000Y-1845782D01*
X71592000Y-1845782D02*
X71921143Y-1845782D01*
X71921143Y-1845782D02*
X72003428Y-1902925D01*
X72003428Y-1902925D02*
X72044571Y-1960068D01*
X72044571Y-1960068D02*
X72085714Y-2074354D01*
X72085714Y-2074354D02*
X72085714Y-2245782D01*
X72085714Y-2245782D02*
X72044571Y-2360068D01*
X72044571Y-2360068D02*
X72003428Y-2417211D01*
X72003428Y-2417211D02*
X71921143Y-2474354D01*
X71921143Y-2474354D02*
X71592000Y-2474354D01*
X72620571Y-1845782D02*
X72785143Y-1845782D01*
X72785143Y-1845782D02*
X72867428Y-1902925D01*
X72867428Y-1902925D02*
X72949714Y-2017211D01*
X72949714Y-2017211D02*
X72990857Y-2245782D01*
X72990857Y-2245782D02*
X72990857Y-2645782D01*
X72990857Y-2645782D02*
X72949714Y-2874354D01*
X72949714Y-2874354D02*
X72867428Y-2988640D01*
X72867428Y-2988640D02*
X72785143Y-3045782D01*
X72785143Y-3045782D02*
X72620571Y-3045782D01*
X72620571Y-3045782D02*
X72538286Y-2988640D01*
X72538286Y-2988640D02*
X72456000Y-2874354D01*
X72456000Y-2874354D02*
X72414857Y-2645782D01*
X72414857Y-2645782D02*
X72414857Y-2245782D01*
X72414857Y-2245782D02*
X72456000Y-2017211D01*
X72456000Y-2017211D02*
X72538286Y-1902925D01*
X72538286Y-1902925D02*
X72620571Y-1845782D01*
X73361143Y-3045782D02*
X73361143Y-1845782D01*
X73361143Y-1845782D02*
X73854857Y-3045782D01*
X73854857Y-3045782D02*
X73854857Y-1845782D01*
X74142857Y-1845782D02*
X74636572Y-1845782D01*
X74389714Y-3045782D02*
X74389714Y-1845782D01*
X75582858Y-2417211D02*
X75870858Y-2417211D01*
X75994286Y-3045782D02*
X75582858Y-3045782D01*
X75582858Y-3045782D02*
X75582858Y-1845782D01*
X75582858Y-1845782D02*
X75994286Y-1845782D01*
X76364572Y-3045782D02*
X76364572Y-1845782D01*
X76364572Y-1845782D02*
X76858286Y-3045782D01*
X76858286Y-3045782D02*
X76858286Y-1845782D01*
X77269715Y-3045782D02*
X77269715Y-1845782D01*
X77269715Y-1845782D02*
X77475429Y-1845782D01*
X77475429Y-1845782D02*
X77598858Y-1902925D01*
X77598858Y-1902925D02*
X77681143Y-2017211D01*
X77681143Y-2017211D02*
X77722286Y-2131497D01*
X77722286Y-2131497D02*
X77763429Y-2360068D01*
X77763429Y-2360068D02*
X77763429Y-2531497D01*
X77763429Y-2531497D02*
X77722286Y-2760068D01*
X77722286Y-2760068D02*
X77681143Y-2874354D01*
X77681143Y-2874354D02*
X77598858Y-2988640D01*
X77598858Y-2988640D02*
X77475429Y-3045782D01*
X77475429Y-3045782D02*
X77269715Y-3045782D01*
M02*
