M48
; DRILL file KiCad 10.0.5 date 2026-08-09T20:05:45
; FORMAT={-:-/ absolute / metric / decimal}
; #@! TF.CreationDate,2026-08-09T20:05:45+01:00
; #@! TF.GenerationSoftware,Kicad,Pcbnew,10.0.5
; #@! TF.FileFunction,MixedPlating,1,4
FMAT,2
METRIC
; #@! TA.AperFunction,Plated,PTH,ViaDrill
T1C0.250
; #@! TA.AperFunction,Plated,PTH,ViaDrill
T2C0.300
; #@! TA.AperFunction,Plated,PTH,ViaDrill
T3C0.350
; #@! TA.AperFunction,Plated,PTH,ViaDrill
T4C0.400
; #@! TA.AperFunction,Plated,PTH,ComponentDrill
T5C1.020
; #@! TA.AperFunction,Plated,PTH,ComponentDrill
T6C3.200
%
G90
G05
T1
X1.43Y-84.0
X8.15Y-83.3
X9.85Y-83.3
X11.15Y-83.3
X11.3Y-87.15
X11.3Y-88.85
X12.85Y-83.3
X14.5Y-82.17
X20.1Y-8.17
X20.1Y-91.83
X23.9Y-8.17
X23.9Y-91.83
X26.2Y-39.2
X26.2Y-60.8
X28.8Y-39.2
X28.8Y-60.8
X32.1Y-37.17
X32.1Y-62.83
X33.65Y-23.65
X33.65Y-76.35
X35.35Y-23.65
X35.35Y-76.35
X35.9Y-37.17
X35.9Y-62.83
X38.33Y-40.374
X38.33Y-59.626
X38.64Y-41.104
X38.64Y-58.896
X38.73Y-17.424
X38.73Y-82.576
X40.34Y-41.104
X40.34Y-58.896
X41.4Y-46.234
X41.4Y-53.766
X41.6Y-19.574
X41.6Y-80.426
X42.04Y-41.104
X42.04Y-58.896
X43.1Y-46.234
X43.1Y-53.766
X43.3Y-19.574
X43.3Y-80.426
X47.05Y-20.704
X47.05Y-79.296
X48.75Y-20.704
X48.75Y-79.296
X48.995Y-42.274
X48.995Y-57.726
X53.17Y-46.424
X53.17Y-53.576
X55.75Y-9.43
X55.75Y-90.57
X59.47Y-17.424
X59.47Y-82.576
X60.0Y-19.574
X60.0Y-80.426
X61.7Y-19.574
X61.7Y-80.426
X65.45Y-20.704
X65.45Y-79.296
X67.15Y-20.704
X67.15Y-79.296
X81.996Y-32.637
X81.996Y-67.363
X84.511Y-12.104
X84.511Y-87.896
X86.211Y-12.104
X86.211Y-87.896
X86.541Y-11.374
X86.541Y-88.626
X87.911Y-12.104
X87.911Y-87.896
X94.866Y-13.274
X94.866Y-86.726
T2
X2.6Y-84.0
X6.55Y-79.19
X6.55Y-79.19
X15.6Y-81.0
X16.4Y-81.0
X33.45Y-3.512
X33.45Y-4.612
X33.45Y-5.712
X33.45Y-94.287
X33.45Y-95.387
X33.45Y-96.487
X34.0Y-4.062
X34.0Y-5.162
X34.0Y-94.837
X34.0Y-95.938
X34.55Y-3.512
X34.55Y-4.612
X34.55Y-5.712
X34.55Y-94.287
X34.55Y-95.387
X34.55Y-96.487
X36.255Y-42.274
X36.255Y-57.726
X45.14Y-22.55
X45.14Y-77.45
X49.52Y-4.52
X49.52Y-5.14
X49.52Y-5.76
X49.52Y-8.24
X49.52Y-8.86
X49.52Y-9.48
X49.52Y-90.52
X49.52Y-91.76
X49.52Y-94.86
X49.52Y-95.48
X49.6Y-72.0
X50.14Y-91.14
X50.14Y-94.24
X50.4Y-72.0
X50.76Y-6.38
X50.76Y-8.24
X50.76Y-8.86
X50.76Y-9.48
X50.76Y-91.76
X50.76Y-92.38
X50.76Y-93.62
X50.76Y-94.86
X50.76Y-95.48
X51.38Y-8.24
X51.38Y-8.86
X51.38Y-9.48
X51.38Y-94.86
X51.38Y-95.48
X51.4Y-6.4
X51.4Y-7.6
X51.4Y-92.4
X51.4Y-93.6
X52.0Y-6.4
X52.0Y-7.6
X52.0Y-92.4
X52.0Y-93.6
X52.0Y-94.24
X52.6Y-6.4
X52.6Y-7.6
X52.6Y-92.4
X52.6Y-93.6
X52.62Y-4.52
X52.62Y-5.14
X52.62Y-5.76
X52.62Y-8.24
X52.62Y-8.86
X52.62Y-9.48
X52.62Y-90.52
X52.62Y-91.76
X52.62Y-94.86
X52.62Y-95.48
X53.24Y-4.52
X53.24Y-5.14
X53.24Y-6.38
X53.24Y-8.24
X53.24Y-8.86
X53.24Y-9.48
X53.24Y-90.52
X53.24Y-91.76
X53.24Y-92.38
X53.24Y-93.62
X53.24Y-94.86
X53.24Y-95.48
X53.86Y-5.76
X53.86Y-91.14
X53.86Y-94.24
X54.48Y-4.52
X54.48Y-5.14
X54.48Y-8.24
X54.48Y-8.86
X54.48Y-9.48
X54.48Y-90.52
X54.48Y-91.76
X54.48Y-94.86
X54.48Y-95.48
X55.75Y-10.6
X55.75Y-89.4
X57.02Y-33.52
X57.02Y-34.14
X57.02Y-34.76
X57.02Y-37.24
X57.02Y-38.48
X57.02Y-61.52
X57.02Y-62.76
X57.02Y-65.24
X57.02Y-66.48
X57.64Y-37.86
X57.64Y-62.14
X57.64Y-65.86
X58.26Y-33.52
X58.26Y-34.14
X58.26Y-35.38
X58.26Y-36.62
X58.26Y-37.24
X58.26Y-38.48
X58.26Y-61.52
X58.26Y-62.76
X58.26Y-63.38
X58.26Y-64.62
X58.26Y-65.24
X58.26Y-66.48
X58.88Y-33.52
X58.88Y-34.14
X58.88Y-34.76
X58.88Y-37.24
X58.88Y-38.48
X58.88Y-61.52
X58.88Y-62.76
X58.88Y-65.24
X58.88Y-66.48
X58.9Y-36.0
X58.9Y-36.6
X58.9Y-63.4
X58.9Y-64.0
X58.9Y-64.6
X59.5Y-36.0
X59.5Y-36.6
X59.5Y-37.86
X59.5Y-62.14
X59.5Y-63.4
X59.5Y-64.0
X59.5Y-64.6
X59.5Y-65.86
X60.1Y-36.0
X60.1Y-36.6
X60.1Y-63.4
X60.1Y-64.0
X60.1Y-64.6
X60.12Y-33.52
X60.12Y-34.14
X60.12Y-34.76
X60.12Y-37.24
X60.12Y-38.48
X60.12Y-61.52
X60.12Y-62.76
X60.12Y-65.24
X60.12Y-66.48
X60.74Y-33.52
X60.74Y-34.14
X60.74Y-35.38
X60.74Y-36.62
X60.74Y-37.24
X60.74Y-38.48
X60.74Y-61.52
X60.74Y-62.76
X60.74Y-63.38
X60.74Y-64.62
X60.74Y-65.24
X60.74Y-66.48
X61.36Y-34.76
X61.36Y-37.86
X61.36Y-62.14
X61.36Y-65.86
X61.98Y-33.52
X61.98Y-34.14
X61.98Y-37.24
X61.98Y-38.48
X61.98Y-61.52
X61.98Y-62.76
X61.98Y-65.24
X61.98Y-66.48
X78.136Y-35.5
X78.136Y-36.5
X78.136Y-63.5
X78.136Y-64.5
X82.126Y-13.274
X82.126Y-86.726
T3
X23.075Y-34.0
X23.075Y-38.0
X23.075Y-62.0
X23.075Y-66.0
X23.925Y-34.0
X23.925Y-38.0
X23.925Y-62.0
X23.925Y-66.0
X49.575Y-30.2
X49.575Y-69.8
X50.425Y-30.2
X50.425Y-69.8
T4
X1.2Y-24.745
X1.2Y-30.255
X1.2Y-39.745
X1.2Y-45.255
X1.2Y-54.745
X1.2Y-60.255
X1.2Y-69.745
X1.2Y-75.255
X2.47Y-24.745
X2.47Y-30.255
X2.47Y-39.745
X2.47Y-45.255
X2.47Y-54.745
X2.47Y-60.255
X2.47Y-69.745
X2.47Y-75.255
X3.0Y-4.0
X3.0Y-7.0
X3.0Y-10.0
X3.0Y-13.0
X3.0Y-16.0
X3.0Y-19.0
X3.0Y-94.0
X3.0Y-97.0
X3.74Y-24.745
X3.74Y-30.255
X3.74Y-39.745
X3.74Y-45.255
X3.74Y-54.745
X3.74Y-60.255
X3.74Y-69.745
X3.74Y-75.255
X6.0Y-4.0
X6.0Y-16.0
X6.0Y-19.0
X6.0Y-22.0
X6.0Y-25.0
X6.0Y-31.0
X6.0Y-37.0
X6.0Y-40.0
X6.0Y-46.0
X6.0Y-52.0
X6.0Y-55.0
X6.0Y-61.0
X6.0Y-67.0
X9.0Y-4.0
X9.0Y-16.0
X9.0Y-19.0
X9.0Y-22.0
X9.0Y-25.0
X9.0Y-31.0
X9.0Y-37.0
X9.0Y-40.0
X9.0Y-46.0
X9.0Y-52.0
X9.0Y-55.0
X9.0Y-61.0
X9.0Y-67.0
X9.0Y-91.0
X9.0Y-94.0
X9.0Y-97.0
X12.0Y-4.0
X12.0Y-16.0
X12.0Y-19.0
X12.0Y-22.0
X12.0Y-25.0
X12.0Y-31.0
X12.0Y-37.0
X12.0Y-40.0
X12.0Y-46.0
X12.0Y-52.0
X12.0Y-55.0
X12.0Y-61.0
X12.0Y-67.0
X12.0Y-91.0
X15.0Y-4.0
X15.0Y-7.0
X15.0Y-10.0
X15.0Y-13.0
X15.0Y-16.0
X15.0Y-19.0
X15.0Y-22.0
X15.0Y-25.0
X15.0Y-31.0
X15.0Y-37.0
X15.0Y-40.0
X15.0Y-46.0
X15.0Y-52.0
X15.0Y-55.0
X15.0Y-61.0
X15.0Y-67.0
X15.0Y-91.0
X15.0Y-94.0
X15.0Y-97.0
X18.0Y-4.0
X18.0Y-31.0
X18.0Y-46.0
X18.0Y-49.0
X18.0Y-52.0
X18.0Y-97.0
X21.0Y-4.0
X21.0Y-10.0
X21.0Y-13.0
X21.0Y-16.0
X21.0Y-19.0
X21.0Y-22.0
X21.0Y-25.0
X21.0Y-28.0
X21.0Y-31.0
X21.0Y-40.0
X21.0Y-43.0
X21.0Y-46.0
X21.0Y-49.0
X21.0Y-52.0
X21.0Y-58.0
X21.0Y-61.0
X21.0Y-67.0
X21.0Y-70.0
X21.0Y-73.0
X21.0Y-76.0
X21.0Y-79.0
X21.0Y-82.0
X21.0Y-97.0
X24.0Y-4.0
X24.0Y-10.0
X24.0Y-13.0
X24.0Y-16.0
X24.0Y-19.0
X24.0Y-49.0
X24.0Y-52.0
X24.0Y-82.0
X24.0Y-97.0
X27.0Y-4.0
X27.0Y-10.0
X27.0Y-13.0
X27.0Y-16.0
X27.0Y-19.0
X27.0Y-25.0
X27.0Y-31.0
X27.0Y-43.0
X27.0Y-58.0
X27.0Y-67.0
X27.0Y-76.0
X27.0Y-82.0
X27.0Y-97.0
X30.0Y-4.0
X30.0Y-10.0
X30.0Y-13.0
X30.0Y-16.0
X30.0Y-19.0
X30.0Y-25.0
X30.0Y-31.0
X30.0Y-43.0
X30.0Y-58.0
X30.0Y-67.0
X30.0Y-76.0
X30.0Y-82.0
X30.0Y-97.0
X33.0Y-10.0
X33.0Y-13.0
X33.0Y-16.0
X33.0Y-19.0
X33.0Y-31.0
X33.0Y-34.0
X33.0Y-40.0
X33.0Y-43.0
X33.0Y-58.0
X33.0Y-61.0
X33.0Y-67.0
X33.0Y-82.0
X36.0Y-10.0
X36.0Y-13.0
X36.0Y-16.0
X36.0Y-31.0
X36.0Y-40.0
X36.0Y-49.0
X36.0Y-52.0
X36.0Y-61.0
X36.0Y-67.0
X39.0Y-4.0
X39.0Y-25.0
X39.0Y-49.0
X39.0Y-67.0
X39.0Y-76.0
X39.0Y-79.0
X39.0Y-97.0
X42.0Y-4.0
X42.0Y-10.0
X42.0Y-13.0
X42.0Y-16.0
X42.0Y-49.0
X42.0Y-97.0
X45.0Y-4.0
X45.0Y-10.0
X45.0Y-13.0
X45.0Y-16.0
X45.0Y-49.0
X45.0Y-97.0
X48.0Y-4.0
X48.0Y-10.0
X48.0Y-25.0
X48.0Y-97.0
X51.0Y-22.0
X51.0Y-25.0
X51.0Y-97.0
X54.0Y-49.0
X54.0Y-52.0
X54.0Y-97.0
X57.0Y-4.0
X57.0Y-49.0
X57.0Y-52.0
X57.0Y-97.0
X60.0Y-4.0
X60.0Y-10.0
X60.0Y-13.0
X60.0Y-22.0
X60.0Y-25.0
X60.0Y-28.0
X60.0Y-31.0
X60.0Y-70.0
X60.0Y-73.0
X60.0Y-76.0
X60.0Y-85.0
X60.0Y-88.0
X60.0Y-97.0
X63.0Y-4.0
X63.0Y-10.0
X63.0Y-13.0
X63.0Y-16.0
X63.0Y-22.0
X63.0Y-25.0
X63.0Y-28.0
X63.0Y-31.0
X63.0Y-70.0
X63.0Y-73.0
X63.0Y-76.0
X63.0Y-85.0
X63.0Y-88.0
X63.0Y-97.0
X66.0Y-13.0
X66.0Y-16.0
X66.0Y-25.0
X66.0Y-28.0
X66.0Y-31.0
X66.0Y-67.0
X66.0Y-70.0
X66.0Y-73.0
X66.0Y-76.0
X66.0Y-85.0
X66.0Y-88.0
X66.0Y-97.0
X69.0Y-13.0
X69.0Y-16.0
X69.0Y-19.0
X69.0Y-22.0
X69.0Y-25.0
X69.0Y-28.0
X69.0Y-31.0
X69.0Y-40.0
X69.0Y-61.0
X69.0Y-67.0
X69.0Y-70.0
X69.0Y-73.0
X69.0Y-76.0
X69.0Y-79.0
X69.0Y-82.0
X69.0Y-85.0
X69.0Y-88.0
X69.0Y-97.0
X72.0Y-13.0
X72.0Y-16.0
X72.0Y-19.0
X72.0Y-22.0
X72.0Y-25.0
X72.0Y-28.0
X72.0Y-31.0
X72.0Y-40.0
X72.0Y-61.0
X72.0Y-67.0
X72.0Y-70.0
X72.0Y-73.0
X72.0Y-76.0
X72.0Y-79.0
X72.0Y-82.0
X72.0Y-85.0
X72.0Y-88.0
X72.0Y-97.0
X75.0Y-13.0
X75.0Y-16.0
X75.0Y-19.0
X75.0Y-22.0
X75.0Y-25.0
X75.0Y-28.0
X75.0Y-31.0
X75.0Y-40.0
X75.0Y-46.0
X75.0Y-70.0
X75.0Y-73.0
X75.0Y-76.0
X75.0Y-79.0
X75.0Y-82.0
X75.0Y-85.0
X75.0Y-88.0
X75.0Y-97.0
X78.0Y-13.0
X78.0Y-16.0
X78.0Y-19.0
X78.0Y-22.0
X78.0Y-25.0
X78.0Y-28.0
X78.0Y-46.0
X78.0Y-55.0
X78.0Y-73.0
X78.0Y-76.0
X78.0Y-79.0
X78.0Y-82.0
X78.0Y-85.0
X78.0Y-88.0
X78.0Y-97.0
X81.0Y-40.0
X81.0Y-43.0
X81.0Y-46.0
X81.0Y-49.0
X81.0Y-52.0
X81.0Y-55.0
X81.0Y-58.0
X81.0Y-97.0
X84.0Y-4.0
X84.0Y-16.0
X84.0Y-19.0
X84.0Y-22.0
X84.0Y-25.0
X84.0Y-28.0
X84.0Y-31.0
X84.0Y-40.0
X84.0Y-43.0
X84.0Y-46.0
X84.0Y-49.0
X84.0Y-52.0
X84.0Y-55.0
X84.0Y-58.0
X84.0Y-70.0
X84.0Y-73.0
X84.0Y-76.0
X84.0Y-79.0
X84.0Y-82.0
X84.0Y-85.0
X84.0Y-97.0
X87.0Y-4.0
X87.0Y-16.0
X87.0Y-19.0
X87.0Y-22.0
X87.0Y-25.0
X87.0Y-28.0
X87.0Y-31.0
X87.0Y-40.0
X87.0Y-43.0
X87.0Y-46.0
X87.0Y-49.0
X87.0Y-52.0
X87.0Y-55.0
X87.0Y-58.0
X87.0Y-61.0
X87.0Y-67.0
X87.0Y-70.0
X87.0Y-73.0
X87.0Y-76.0
X87.0Y-79.0
X87.0Y-82.0
X87.0Y-85.0
X87.0Y-97.0
X90.0Y-4.0
X90.0Y-16.0
X90.0Y-19.0
X90.0Y-22.0
X90.0Y-25.0
X90.0Y-28.0
X90.0Y-31.0
X90.0Y-40.0
X90.0Y-43.0
X90.0Y-46.0
X90.0Y-49.0
X90.0Y-52.0
X90.0Y-55.0
X90.0Y-58.0
X90.0Y-61.0
X90.0Y-67.0
X90.0Y-70.0
X90.0Y-73.0
X90.0Y-76.0
X90.0Y-79.0
X90.0Y-82.0
X90.0Y-85.0
X90.0Y-97.0
X93.0Y-4.0
X93.0Y-16.0
X93.0Y-28.0
X93.0Y-31.0
X93.0Y-40.0
X93.0Y-43.0
X93.0Y-46.0
X93.0Y-49.0
X93.0Y-52.0
X93.0Y-55.0
X93.0Y-58.0
X93.0Y-61.0
X93.0Y-67.0
X93.0Y-70.0
X93.0Y-73.0
X93.0Y-85.0
X93.0Y-97.0
X96.0Y-16.0
X96.0Y-28.0
X96.0Y-43.0
X96.0Y-46.0
X96.0Y-49.0
X96.0Y-52.0
X96.0Y-55.0
X96.0Y-73.0
X96.0Y-85.0
X96.26Y-4.245
X96.26Y-9.755
X96.26Y-33.245
X96.26Y-38.755
X96.26Y-61.245
X96.26Y-66.755
X96.26Y-90.245
X96.26Y-95.755
X97.53Y-4.245
X97.53Y-9.755
X97.53Y-33.245
X97.53Y-38.755
X97.53Y-61.245
X97.53Y-66.755
X97.53Y-90.245
X97.53Y-95.755
X98.8Y-4.245
X98.8Y-9.755
X98.8Y-33.245
X98.8Y-38.755
X98.8Y-61.245
X98.8Y-66.755
X98.8Y-90.245
X98.8Y-95.755
T5
X61.11Y-48.73
X61.11Y-51.27
X63.65Y-48.73
X63.65Y-51.27
X66.19Y-48.73
X66.19Y-51.27
X68.73Y-48.73
X68.73Y-51.27
X71.27Y-48.73
X71.27Y-51.27
X73.81Y-48.73
X73.81Y-51.27
X76.35Y-48.73
X76.35Y-51.27
X78.89Y-48.73
X78.89Y-51.27
T6
X10.0Y-10.0
X30.0Y-50.0
X52.0Y-15.8
X52.0Y-84.2
X63.5Y-43.0
X63.5Y-57.0
X95.5Y-21.0
X95.5Y-79.0
M30
