%TF.GenerationSoftware,KiCad,Pcbnew,10.0.5*%
%TF.CreationDate,2026-08-09T20:36:14+01:00*%
%TF.ProjectId,radar_5g8_fe,72616461-725f-4356-9738-5f66652e6b69,rev?*%
%TF.SameCoordinates,Original*%
%TF.FileFunction,Profile,NP*%
%FSLAX46Y46*%
G04 Gerber Fmt 4.6, Leading zero omitted, Abs format (unit mm)*
G04 Created by KiCad (PCBNEW 10.0.5) date 2026-08-09 20:36:14*
%MOMM*%
%LPD*%
G01*
G04 APERTURE LIST*
%TA.AperFunction,Profile*%
%ADD10C,0.100000*%
%TD*%
G04 APERTURE END LIST*
D10*
X0Y-3000000D02*
X0Y-34200000D01*
X0Y-3000000D02*
G75*
G02*
X3000000Y0I3000000J0D01*
G01*
X0Y-34200000D02*
X14200000Y-34200000D01*
X0Y-35800000D02*
X0Y-49200000D01*
X0Y-49200000D02*
X14200000Y-49200000D01*
X0Y-50800000D02*
X0Y-64200000D01*
X0Y-64200000D02*
X14200000Y-64200000D01*
X0Y-65800000D02*
X0Y-97000000D01*
X2999999Y-100000000D02*
G75*
G02*
X0Y-97000000I1J3000000D01*
G01*
X3000000Y-100000000D02*
X97000000Y-100000000D01*
X14200000Y-34200000D02*
G75*
G02*
X14200000Y-35800000I0J-800000D01*
G01*
X14200000Y-35800000D02*
X0Y-35800000D01*
X14200000Y-49200000D02*
G75*
G02*
X14200000Y-50800000I0J-800000D01*
G01*
X14200000Y-50800000D02*
X0Y-50800000D01*
X14200000Y-64200000D02*
G75*
G02*
X14200000Y-65800000I0J-800000D01*
G01*
X14200000Y-65800000D02*
X0Y-65800000D01*
X97000000Y0D02*
X3000000Y0D01*
X97000000Y0D02*
G75*
G02*
X100000000Y-3000000I0J-3000000D01*
G01*
X100000000Y-97000000D02*
G75*
G02*
X97000000Y-100000000I-3000000J0D01*
G01*
X100000000Y-97000000D02*
X100000000Y-3000000D01*
M02*
