%TF.GenerationSoftware,KiCad,Pcbnew,10.0.5*%
%TF.CreationDate,2026-08-09T20:05:44+01:00*%
%TF.ProjectId,radar_5g8_fe,72616461-725f-4356-9738-5f66652e6b69,rev?*%
%TF.SameCoordinates,Original*%
%TF.FileFunction,Soldermask,Bot*%
%TF.FilePolarity,Negative*%
%FSLAX46Y46*%
G04 Gerber Fmt 4.6, Leading zero omitted, Abs format (unit mm)*
G04 Created by KiCad (PCBNEW 10.0.5) date 2026-08-09 20:05:44*
%MOMM*%
%LPD*%
G01*
G04 APERTURE LIST*
%ADD10C,0.000000*%
%ADD11C,6.000000*%
%ADD12C,1.700000*%
G04 APERTURE END LIST*
D10*
G36*
X36600000Y-10400000D02*
G01*
X31400000Y-10400000D01*
X31400000Y-3599999D01*
X36600000Y-3599999D01*
X36600000Y-10400000D01*
G37*
G36*
X36600000Y-96400000D02*
G01*
X31400000Y-96400000D01*
X31400000Y-89600000D01*
X36600000Y-89600000D01*
X36600000Y-96400000D01*
G37*
G36*
X55600000Y-10599999D02*
G01*
X48400000Y-10599999D01*
X48400000Y-3400000D01*
X55600000Y-3400000D01*
X55600000Y-10599999D01*
G37*
G36*
X55600000Y-96600000D02*
G01*
X48400000Y-96600000D01*
X48400000Y-89400000D01*
X55600000Y-89400000D01*
X55600000Y-96600000D01*
G37*
G36*
X63100000Y-39600000D02*
G01*
X55900000Y-39600000D01*
X55900000Y-32400000D01*
X63100000Y-32400000D01*
X63100000Y-39600000D01*
G37*
G36*
X63100000Y-67600000D02*
G01*
X55900000Y-67600000D01*
X55900000Y-60400000D01*
X63100000Y-60400000D01*
X63100000Y-67600000D01*
G37*
D11*
%TO.C,H63_43*%
X63500000Y-57000000D03*
%TD*%
%TO.C,H52_84*%
X52000000Y-15799999D03*
%TD*%
%TO.C,H95_79*%
X95500000Y-21000000D03*
%TD*%
%TO.C,H52_15*%
X52000000Y-84200000D03*
%TD*%
%TO.C,H63_57*%
X63500000Y-43000000D03*
%TD*%
D12*
%TO.C,J5*%
X61110000Y-48730000D03*
X63650000Y-48730000D03*
X66190000Y-48730000D03*
X68730000Y-48730000D03*
X71270000Y-48730000D03*
X73810000Y-48730000D03*
X76350000Y-48730000D03*
X78890000Y-48730000D03*
X61110000Y-51270000D03*
X63650000Y-51270000D03*
X66190000Y-51270000D03*
X68730000Y-51270000D03*
X71270000Y-51270000D03*
X73810000Y-51270000D03*
X76350000Y-51270000D03*
X78890000Y-51270000D03*
%TD*%
D11*
%TO.C,H30_50*%
X30000000Y-50000000D03*
%TD*%
%TO.C,H95_21*%
X95500000Y-79000000D03*
%TD*%
%TO.C,H10_90*%
X10000000Y-10000000D03*
%TD*%
M02*
