%TF.GenerationSoftware,KiCad,Pcbnew,10.0.5*%
%TF.CreationDate,2026-08-09T20:11:03+01:00*%
%TF.ProjectId,radar_5g8_fe,72616461-725f-4356-9738-5f66652e6b69,rev?*%
%TF.SameCoordinates,Original*%
%TF.FileFunction,Legend,Top*%
%TF.FilePolarity,Positive*%
%FSLAX46Y46*%
G04 Gerber Fmt 4.6, Leading zero omitted, Abs format (unit mm)*
G04 Created by KiCad (PCBNEW 10.0.5) date 2026-08-09 20:11:03*
%MOMM*%
%LPD*%
G01*
G04 APERTURE LIST*
%ADD10C,0.127500*%
%ADD11C,0.135000*%
%ADD12C,0.150000*%
%ADD13C,0.180000*%
%ADD14C,0.195000*%
G04 APERTURE END LIST*
D10*
X13697998Y-5036597D02*
X14047713Y-5036597D01*
X13872855Y-5886597D02*
X13872855Y-5036597D01*
X14193427Y-5036597D02*
X14601427Y-5886597D01*
X14601427Y-5036597D02*
X14193427Y-5886597D01*
X15417427Y-5036597D02*
X15475713Y-5036597D01*
X15475713Y-5036597D02*
X15533999Y-5077073D01*
X15533999Y-5077073D02*
X15563142Y-5117549D01*
X15563142Y-5117549D02*
X15592284Y-5198501D01*
X15592284Y-5198501D02*
X15621427Y-5360406D01*
X15621427Y-5360406D02*
X15621427Y-5562787D01*
X15621427Y-5562787D02*
X15592284Y-5724692D01*
X15592284Y-5724692D02*
X15563142Y-5805644D01*
X15563142Y-5805644D02*
X15533999Y-5846121D01*
X15533999Y-5846121D02*
X15475713Y-5886597D01*
X15475713Y-5886597D02*
X15417427Y-5886597D01*
X15417427Y-5886597D02*
X15359142Y-5846121D01*
X15359142Y-5846121D02*
X15329999Y-5805644D01*
X15329999Y-5805644D02*
X15300856Y-5724692D01*
X15300856Y-5724692D02*
X15271713Y-5562787D01*
X15271713Y-5562787D02*
X15271713Y-5360406D01*
X15271713Y-5360406D02*
X15300856Y-5198501D01*
X15300856Y-5198501D02*
X15329999Y-5117549D01*
X15329999Y-5117549D02*
X15359142Y-5077073D01*
X15359142Y-5077073D02*
X15417427Y-5036597D01*
X15883713Y-5805644D02*
X15912856Y-5846121D01*
X15912856Y-5846121D02*
X15883713Y-5886597D01*
X15883713Y-5886597D02*
X15854570Y-5846121D01*
X15854570Y-5846121D02*
X15883713Y-5805644D01*
X15883713Y-5805644D02*
X15883713Y-5886597D01*
X16116856Y-5036597D02*
X16524856Y-5036597D01*
X16524856Y-5036597D02*
X16262570Y-5886597D01*
X17049427Y-5036597D02*
X16757999Y-5036597D01*
X16757999Y-5036597D02*
X16728856Y-5441359D01*
X16728856Y-5441359D02*
X16757999Y-5400882D01*
X16757999Y-5400882D02*
X16816285Y-5360406D01*
X16816285Y-5360406D02*
X16961999Y-5360406D01*
X16961999Y-5360406D02*
X17020285Y-5400882D01*
X17020285Y-5400882D02*
X17049427Y-5441359D01*
X17049427Y-5441359D02*
X17078570Y-5522311D01*
X17078570Y-5522311D02*
X17078570Y-5724692D01*
X17078570Y-5724692D02*
X17049427Y-5805644D01*
X17049427Y-5805644D02*
X17020285Y-5846121D01*
X17020285Y-5846121D02*
X16961999Y-5886597D01*
X16961999Y-5886597D02*
X16816285Y-5886597D01*
X16816285Y-5886597D02*
X16757999Y-5846121D01*
X16757999Y-5846121D02*
X16728856Y-5805644D01*
X17748856Y-5036597D02*
X17894570Y-5886597D01*
X17894570Y-5886597D02*
X18011142Y-5279454D01*
X18011142Y-5279454D02*
X18127713Y-5886597D01*
X18127713Y-5886597D02*
X18273428Y-5036597D01*
X18914571Y-5886597D02*
X19235143Y-5319930D01*
X18914571Y-5319930D02*
X19235143Y-5886597D01*
X19439143Y-5117549D02*
X19468286Y-5077073D01*
X19468286Y-5077073D02*
X19526572Y-5036597D01*
X19526572Y-5036597D02*
X19672286Y-5036597D01*
X19672286Y-5036597D02*
X19730572Y-5077073D01*
X19730572Y-5077073D02*
X19759714Y-5117549D01*
X19759714Y-5117549D02*
X19788857Y-5198501D01*
X19788857Y-5198501D02*
X19788857Y-5279454D01*
X19788857Y-5279454D02*
X19759714Y-5400882D01*
X19759714Y-5400882D02*
X19410000Y-5886597D01*
X19410000Y-5886597D02*
X19788857Y-5886597D01*
X21799715Y-5886597D02*
X21595715Y-5481835D01*
X21450001Y-5886597D02*
X21450001Y-5036597D01*
X21450001Y-5036597D02*
X21683144Y-5036597D01*
X21683144Y-5036597D02*
X21741429Y-5077073D01*
X21741429Y-5077073D02*
X21770572Y-5117549D01*
X21770572Y-5117549D02*
X21799715Y-5198501D01*
X21799715Y-5198501D02*
X21799715Y-5319930D01*
X21799715Y-5319930D02*
X21770572Y-5400882D01*
X21770572Y-5400882D02*
X21741429Y-5441359D01*
X21741429Y-5441359D02*
X21683144Y-5481835D01*
X21683144Y-5481835D02*
X21450001Y-5481835D01*
X22003715Y-5036597D02*
X22411715Y-5886597D01*
X22411715Y-5036597D02*
X22003715Y-5886597D01*
X23082001Y-5117549D02*
X23111144Y-5077073D01*
X23111144Y-5077073D02*
X23169430Y-5036597D01*
X23169430Y-5036597D02*
X23315144Y-5036597D01*
X23315144Y-5036597D02*
X23373430Y-5077073D01*
X23373430Y-5077073D02*
X23402572Y-5117549D01*
X23402572Y-5117549D02*
X23431715Y-5198501D01*
X23431715Y-5198501D02*
X23431715Y-5279454D01*
X23431715Y-5279454D02*
X23402572Y-5400882D01*
X23402572Y-5400882D02*
X23052858Y-5886597D01*
X23052858Y-5886597D02*
X23431715Y-5886597D01*
X23810572Y-5036597D02*
X23868858Y-5036597D01*
X23868858Y-5036597D02*
X23927144Y-5077073D01*
X23927144Y-5077073D02*
X23956287Y-5117549D01*
X23956287Y-5117549D02*
X23985429Y-5198501D01*
X23985429Y-5198501D02*
X24014572Y-5360406D01*
X24014572Y-5360406D02*
X24014572Y-5562787D01*
X24014572Y-5562787D02*
X23985429Y-5724692D01*
X23985429Y-5724692D02*
X23956287Y-5805644D01*
X23956287Y-5805644D02*
X23927144Y-5846121D01*
X23927144Y-5846121D02*
X23868858Y-5886597D01*
X23868858Y-5886597D02*
X23810572Y-5886597D01*
X23810572Y-5886597D02*
X23752287Y-5846121D01*
X23752287Y-5846121D02*
X23723144Y-5805644D01*
X23723144Y-5805644D02*
X23694001Y-5724692D01*
X23694001Y-5724692D02*
X23664858Y-5562787D01*
X23664858Y-5562787D02*
X23664858Y-5360406D01*
X23664858Y-5360406D02*
X23694001Y-5198501D01*
X23694001Y-5198501D02*
X23723144Y-5117549D01*
X23723144Y-5117549D02*
X23752287Y-5077073D01*
X23752287Y-5077073D02*
X23810572Y-5036597D01*
X25005430Y-5886597D02*
X25005430Y-5036597D01*
X25005430Y-5846121D02*
X24947144Y-5886597D01*
X24947144Y-5886597D02*
X24830572Y-5886597D01*
X24830572Y-5886597D02*
X24772287Y-5846121D01*
X24772287Y-5846121D02*
X24743144Y-5805644D01*
X24743144Y-5805644D02*
X24714001Y-5724692D01*
X24714001Y-5724692D02*
X24714001Y-5481835D01*
X24714001Y-5481835D02*
X24743144Y-5400882D01*
X24743144Y-5400882D02*
X24772287Y-5360406D01*
X24772287Y-5360406D02*
X24830572Y-5319930D01*
X24830572Y-5319930D02*
X24947144Y-5319930D01*
X24947144Y-5319930D02*
X25005430Y-5360406D01*
X25500858Y-5441359D02*
X25588286Y-5481835D01*
X25588286Y-5481835D02*
X25617429Y-5522311D01*
X25617429Y-5522311D02*
X25646572Y-5603263D01*
X25646572Y-5603263D02*
X25646572Y-5724692D01*
X25646572Y-5724692D02*
X25617429Y-5805644D01*
X25617429Y-5805644D02*
X25588286Y-5846121D01*
X25588286Y-5846121D02*
X25530001Y-5886597D01*
X25530001Y-5886597D02*
X25296858Y-5886597D01*
X25296858Y-5886597D02*
X25296858Y-5036597D01*
X25296858Y-5036597D02*
X25500858Y-5036597D01*
X25500858Y-5036597D02*
X25559144Y-5077073D01*
X25559144Y-5077073D02*
X25588286Y-5117549D01*
X25588286Y-5117549D02*
X25617429Y-5198501D01*
X25617429Y-5198501D02*
X25617429Y-5279454D01*
X25617429Y-5279454D02*
X25588286Y-5360406D01*
X25588286Y-5360406D02*
X25559144Y-5400882D01*
X25559144Y-5400882D02*
X25500858Y-5441359D01*
X25500858Y-5441359D02*
X25296858Y-5441359D01*
X26316858Y-5886597D02*
X26637430Y-5319930D01*
X26316858Y-5319930D02*
X26637430Y-5886597D01*
X26841430Y-5117549D02*
X26870573Y-5077073D01*
X26870573Y-5077073D02*
X26928859Y-5036597D01*
X26928859Y-5036597D02*
X27074573Y-5036597D01*
X27074573Y-5036597D02*
X27132859Y-5077073D01*
X27132859Y-5077073D02*
X27162001Y-5117549D01*
X27162001Y-5117549D02*
X27191144Y-5198501D01*
X27191144Y-5198501D02*
X27191144Y-5279454D01*
X27191144Y-5279454D02*
X27162001Y-5400882D01*
X27162001Y-5400882D02*
X26812287Y-5886597D01*
X26812287Y-5886597D02*
X27191144Y-5886597D01*
X29172859Y-5886597D02*
X28823145Y-5886597D01*
X28998002Y-5886597D02*
X28998002Y-5036597D01*
X28998002Y-5036597D02*
X28939716Y-5158025D01*
X28939716Y-5158025D02*
X28881431Y-5238978D01*
X28881431Y-5238978D02*
X28823145Y-5279454D01*
X29406002Y-5117549D02*
X29435145Y-5077073D01*
X29435145Y-5077073D02*
X29493431Y-5036597D01*
X29493431Y-5036597D02*
X29639145Y-5036597D01*
X29639145Y-5036597D02*
X29697431Y-5077073D01*
X29697431Y-5077073D02*
X29726573Y-5117549D01*
X29726573Y-5117549D02*
X29755716Y-5198501D01*
X29755716Y-5198501D02*
X29755716Y-5279454D01*
X29755716Y-5279454D02*
X29726573Y-5400882D01*
X29726573Y-5400882D02*
X29376859Y-5886597D01*
X29376859Y-5886597D02*
X29755716Y-5886597D01*
X30396859Y-5036597D02*
X30600859Y-5886597D01*
X30600859Y-5886597D02*
X30804859Y-5036597D01*
X31795716Y-5886597D02*
X31446002Y-5886597D01*
X31620859Y-5886597D02*
X31620859Y-5036597D01*
X31620859Y-5036597D02*
X31562573Y-5158025D01*
X31562573Y-5158025D02*
X31504288Y-5238978D01*
X31504288Y-5238978D02*
X31446002Y-5279454D01*
X32058002Y-5805644D02*
X32087145Y-5846121D01*
X32087145Y-5846121D02*
X32058002Y-5886597D01*
X32058002Y-5886597D02*
X32028859Y-5846121D01*
X32028859Y-5846121D02*
X32058002Y-5805644D01*
X32058002Y-5805644D02*
X32058002Y-5886597D01*
X32320288Y-5117549D02*
X32349431Y-5077073D01*
X32349431Y-5077073D02*
X32407717Y-5036597D01*
X32407717Y-5036597D02*
X32553431Y-5036597D01*
X32553431Y-5036597D02*
X32611717Y-5077073D01*
X32611717Y-5077073D02*
X32640859Y-5117549D01*
X32640859Y-5117549D02*
X32670002Y-5198501D01*
X32670002Y-5198501D02*
X32670002Y-5279454D01*
X32670002Y-5279454D02*
X32640859Y-5400882D01*
X32640859Y-5400882D02*
X32291145Y-5886597D01*
X32291145Y-5886597D02*
X32670002Y-5886597D01*
X33223716Y-5036597D02*
X32932288Y-5036597D01*
X32932288Y-5036597D02*
X32903145Y-5441359D01*
X32903145Y-5441359D02*
X32932288Y-5400882D01*
X32932288Y-5400882D02*
X32990574Y-5360406D01*
X32990574Y-5360406D02*
X33136288Y-5360406D01*
X33136288Y-5360406D02*
X33194574Y-5400882D01*
X33194574Y-5400882D02*
X33223716Y-5441359D01*
X33223716Y-5441359D02*
X33252859Y-5522311D01*
X33252859Y-5522311D02*
X33252859Y-5724692D01*
X33252859Y-5724692D02*
X33223716Y-5805644D01*
X33223716Y-5805644D02*
X33194574Y-5846121D01*
X33194574Y-5846121D02*
X33136288Y-5886597D01*
X33136288Y-5886597D02*
X32990574Y-5886597D01*
X32990574Y-5886597D02*
X32932288Y-5846121D01*
X32932288Y-5846121D02*
X32903145Y-5805644D01*
X33952288Y-5643740D02*
X34243717Y-5643740D01*
X33894002Y-5886597D02*
X34098002Y-5036597D01*
X34098002Y-5036597D02*
X34302002Y-5886597D01*
X60972858Y-55536597D02*
X60972858Y-56143740D01*
X60972858Y-56143740D02*
X60943715Y-56265168D01*
X60943715Y-56265168D02*
X60885429Y-56346121D01*
X60885429Y-56346121D02*
X60798001Y-56386597D01*
X60798001Y-56386597D02*
X60739715Y-56386597D01*
X61555715Y-55536597D02*
X61264287Y-55536597D01*
X61264287Y-55536597D02*
X61235144Y-55941359D01*
X61235144Y-55941359D02*
X61264287Y-55900882D01*
X61264287Y-55900882D02*
X61322573Y-55860406D01*
X61322573Y-55860406D02*
X61468287Y-55860406D01*
X61468287Y-55860406D02*
X61526573Y-55900882D01*
X61526573Y-55900882D02*
X61555715Y-55941359D01*
X61555715Y-55941359D02*
X61584858Y-56022311D01*
X61584858Y-56022311D02*
X61584858Y-56224692D01*
X61584858Y-56224692D02*
X61555715Y-56305644D01*
X61555715Y-56305644D02*
X61526573Y-56346121D01*
X61526573Y-56346121D02*
X61468287Y-56386597D01*
X61468287Y-56386597D02*
X61322573Y-56386597D01*
X61322573Y-56386597D02*
X61264287Y-56346121D01*
X61264287Y-56346121D02*
X61235144Y-56305644D01*
X63012859Y-56346121D02*
X62954573Y-56386597D01*
X62954573Y-56386597D02*
X62838002Y-56386597D01*
X62838002Y-56386597D02*
X62779716Y-56346121D01*
X62779716Y-56346121D02*
X62750573Y-56265168D01*
X62750573Y-56265168D02*
X62750573Y-55941359D01*
X62750573Y-55941359D02*
X62779716Y-55860406D01*
X62779716Y-55860406D02*
X62838002Y-55819930D01*
X62838002Y-55819930D02*
X62954573Y-55819930D01*
X62954573Y-55819930D02*
X63012859Y-55860406D01*
X63012859Y-55860406D02*
X63042002Y-55941359D01*
X63042002Y-55941359D02*
X63042002Y-56022311D01*
X63042002Y-56022311D02*
X62750573Y-56103263D01*
X63304287Y-55819930D02*
X63304287Y-56386597D01*
X63304287Y-55900882D02*
X63333430Y-55860406D01*
X63333430Y-55860406D02*
X63391715Y-55819930D01*
X63391715Y-55819930D02*
X63479144Y-55819930D01*
X63479144Y-55819930D02*
X63537430Y-55860406D01*
X63537430Y-55860406D02*
X63566573Y-55941359D01*
X63566573Y-55941359D02*
X63566573Y-56386597D01*
X64120287Y-56386597D02*
X64120287Y-55941359D01*
X64120287Y-55941359D02*
X64091144Y-55860406D01*
X64091144Y-55860406D02*
X64032858Y-55819930D01*
X64032858Y-55819930D02*
X63916287Y-55819930D01*
X63916287Y-55819930D02*
X63858001Y-55860406D01*
X64120287Y-56346121D02*
X64062001Y-56386597D01*
X64062001Y-56386597D02*
X63916287Y-56386597D01*
X63916287Y-56386597D02*
X63858001Y-56346121D01*
X63858001Y-56346121D02*
X63828858Y-56265168D01*
X63828858Y-56265168D02*
X63828858Y-56184216D01*
X63828858Y-56184216D02*
X63858001Y-56103263D01*
X63858001Y-56103263D02*
X63916287Y-56062787D01*
X63916287Y-56062787D02*
X64062001Y-56062787D01*
X64062001Y-56062787D02*
X64120287Y-56022311D01*
X64411715Y-56386597D02*
X64411715Y-55536597D01*
X64411715Y-55860406D02*
X64470001Y-55819930D01*
X64470001Y-55819930D02*
X64586572Y-55819930D01*
X64586572Y-55819930D02*
X64644858Y-55860406D01*
X64644858Y-55860406D02*
X64674001Y-55900882D01*
X64674001Y-55900882D02*
X64703143Y-55981835D01*
X64703143Y-55981835D02*
X64703143Y-56224692D01*
X64703143Y-56224692D02*
X64674001Y-56305644D01*
X64674001Y-56305644D02*
X64644858Y-56346121D01*
X64644858Y-56346121D02*
X64586572Y-56386597D01*
X64586572Y-56386597D02*
X64470001Y-56386597D01*
X64470001Y-56386597D02*
X64411715Y-56346121D01*
X65052857Y-56386597D02*
X64994572Y-56346121D01*
X64994572Y-56346121D02*
X64965429Y-56265168D01*
X64965429Y-56265168D02*
X64965429Y-55536597D01*
X65519143Y-56346121D02*
X65460857Y-56386597D01*
X65460857Y-56386597D02*
X65344286Y-56386597D01*
X65344286Y-56386597D02*
X65286000Y-56346121D01*
X65286000Y-56346121D02*
X65256857Y-56265168D01*
X65256857Y-56265168D02*
X65256857Y-55941359D01*
X65256857Y-55941359D02*
X65286000Y-55860406D01*
X65286000Y-55860406D02*
X65344286Y-55819930D01*
X65344286Y-55819930D02*
X65460857Y-55819930D01*
X65460857Y-55819930D02*
X65519143Y-55860406D01*
X65519143Y-55860406D02*
X65548286Y-55941359D01*
X65548286Y-55941359D02*
X65548286Y-56022311D01*
X65548286Y-56022311D02*
X65256857Y-56103263D01*
X66276857Y-56062787D02*
X66743143Y-56062787D01*
X66510000Y-56386597D02*
X66510000Y-55738978D01*
X67500857Y-56386597D02*
X67500857Y-55819930D01*
X67500857Y-55900882D02*
X67530000Y-55860406D01*
X67530000Y-55860406D02*
X67588285Y-55819930D01*
X67588285Y-55819930D02*
X67675714Y-55819930D01*
X67675714Y-55819930D02*
X67734000Y-55860406D01*
X67734000Y-55860406D02*
X67763143Y-55941359D01*
X67763143Y-55941359D02*
X67763143Y-56386597D01*
X67763143Y-55941359D02*
X67792285Y-55860406D01*
X67792285Y-55860406D02*
X67850571Y-55819930D01*
X67850571Y-55819930D02*
X67938000Y-55819930D01*
X67938000Y-55819930D02*
X67996285Y-55860406D01*
X67996285Y-55860406D02*
X68025428Y-55941359D01*
X68025428Y-55941359D02*
X68025428Y-56386597D01*
X68404285Y-56386597D02*
X68346000Y-56346121D01*
X68346000Y-56346121D02*
X68316857Y-56305644D01*
X68316857Y-56305644D02*
X68287714Y-56224692D01*
X68287714Y-56224692D02*
X68287714Y-55981835D01*
X68287714Y-55981835D02*
X68316857Y-55900882D01*
X68316857Y-55900882D02*
X68346000Y-55860406D01*
X68346000Y-55860406D02*
X68404285Y-55819930D01*
X68404285Y-55819930D02*
X68491714Y-55819930D01*
X68491714Y-55819930D02*
X68550000Y-55860406D01*
X68550000Y-55860406D02*
X68579143Y-55900882D01*
X68579143Y-55900882D02*
X68608285Y-55981835D01*
X68608285Y-55981835D02*
X68608285Y-56224692D01*
X68608285Y-56224692D02*
X68579143Y-56305644D01*
X68579143Y-56305644D02*
X68550000Y-56346121D01*
X68550000Y-56346121D02*
X68491714Y-56386597D01*
X68491714Y-56386597D02*
X68404285Y-56386597D01*
X68870571Y-55819930D02*
X68870571Y-56386597D01*
X68870571Y-55900882D02*
X68899714Y-55860406D01*
X68899714Y-55860406D02*
X68957999Y-55819930D01*
X68957999Y-55819930D02*
X69045428Y-55819930D01*
X69045428Y-55819930D02*
X69103714Y-55860406D01*
X69103714Y-55860406D02*
X69132857Y-55941359D01*
X69132857Y-55941359D02*
X69132857Y-56386597D01*
X69424285Y-56386597D02*
X69424285Y-55819930D01*
X69424285Y-55536597D02*
X69395142Y-55577073D01*
X69395142Y-55577073D02*
X69424285Y-55617549D01*
X69424285Y-55617549D02*
X69453428Y-55577073D01*
X69453428Y-55577073D02*
X69424285Y-55536597D01*
X69424285Y-55536597D02*
X69424285Y-55617549D01*
X69628285Y-55819930D02*
X69861428Y-55819930D01*
X69715714Y-55536597D02*
X69715714Y-56265168D01*
X69715714Y-56265168D02*
X69744857Y-56346121D01*
X69744857Y-56346121D02*
X69803142Y-56386597D01*
X69803142Y-56386597D02*
X69861428Y-56386597D01*
X70152856Y-56386597D02*
X70094571Y-56346121D01*
X70094571Y-56346121D02*
X70065428Y-56305644D01*
X70065428Y-56305644D02*
X70036285Y-56224692D01*
X70036285Y-56224692D02*
X70036285Y-55981835D01*
X70036285Y-55981835D02*
X70065428Y-55900882D01*
X70065428Y-55900882D02*
X70094571Y-55860406D01*
X70094571Y-55860406D02*
X70152856Y-55819930D01*
X70152856Y-55819930D02*
X70240285Y-55819930D01*
X70240285Y-55819930D02*
X70298571Y-55860406D01*
X70298571Y-55860406D02*
X70327714Y-55900882D01*
X70327714Y-55900882D02*
X70356856Y-55981835D01*
X70356856Y-55981835D02*
X70356856Y-56224692D01*
X70356856Y-56224692D02*
X70327714Y-56305644D01*
X70327714Y-56305644D02*
X70298571Y-56346121D01*
X70298571Y-56346121D02*
X70240285Y-56386597D01*
X70240285Y-56386597D02*
X70152856Y-56386597D01*
X70619142Y-56386597D02*
X70619142Y-55819930D01*
X70619142Y-55981835D02*
X70648285Y-55900882D01*
X70648285Y-55900882D02*
X70677428Y-55860406D01*
X70677428Y-55860406D02*
X70735713Y-55819930D01*
X70735713Y-55819930D02*
X70793999Y-55819930D01*
X70968856Y-56346121D02*
X71027142Y-56386597D01*
X71027142Y-56386597D02*
X71143713Y-56386597D01*
X71143713Y-56386597D02*
X71201999Y-56346121D01*
X71201999Y-56346121D02*
X71231142Y-56265168D01*
X71231142Y-56265168D02*
X71231142Y-56224692D01*
X71231142Y-56224692D02*
X71201999Y-56143740D01*
X71201999Y-56143740D02*
X71143713Y-56103263D01*
X71143713Y-56103263D02*
X71056285Y-56103263D01*
X71056285Y-56103263D02*
X70997999Y-56062787D01*
X70997999Y-56062787D02*
X70968856Y-55981835D01*
X70968856Y-55981835D02*
X70968856Y-55941359D01*
X70968856Y-55941359D02*
X70997999Y-55860406D01*
X70997999Y-55860406D02*
X71056285Y-55819930D01*
X71056285Y-55819930D02*
X71143713Y-55819930D01*
X71143713Y-55819930D02*
X71201999Y-55860406D01*
D11*
X-338285Y-49509337D02*
X-338285Y-50237908D01*
X-338285Y-50237908D02*
X-307428Y-50323622D01*
X-307428Y-50323622D02*
X-276571Y-50366480D01*
X-276571Y-50366480D02*
X-214856Y-50409337D01*
X-214856Y-50409337D02*
X-91428Y-50409337D01*
X-91428Y-50409337D02*
X-29713Y-50366480D01*
X-29713Y-50366480D02*
X1143Y-50323622D01*
X1143Y-50323622D02*
X32000Y-50237908D01*
X32000Y-50237908D02*
X32000Y-49509337D01*
X309714Y-50366480D02*
X402286Y-50409337D01*
X402286Y-50409337D02*
X556571Y-50409337D01*
X556571Y-50409337D02*
X618286Y-50366480D01*
X618286Y-50366480D02*
X649143Y-50323622D01*
X649143Y-50323622D02*
X680000Y-50237908D01*
X680000Y-50237908D02*
X680000Y-50152194D01*
X680000Y-50152194D02*
X649143Y-50066480D01*
X649143Y-50066480D02*
X618286Y-50023622D01*
X618286Y-50023622D02*
X556571Y-49980765D01*
X556571Y-49980765D02*
X433143Y-49937908D01*
X433143Y-49937908D02*
X371428Y-49895051D01*
X371428Y-49895051D02*
X340571Y-49852194D01*
X340571Y-49852194D02*
X309714Y-49766480D01*
X309714Y-49766480D02*
X309714Y-49680765D01*
X309714Y-49680765D02*
X340571Y-49595051D01*
X340571Y-49595051D02*
X371428Y-49552194D01*
X371428Y-49552194D02*
X433143Y-49509337D01*
X433143Y-49509337D02*
X587428Y-49509337D01*
X587428Y-49509337D02*
X680000Y-49552194D01*
X1328000Y-50409337D02*
X1112000Y-49980765D01*
X957714Y-50409337D02*
X957714Y-49509337D01*
X957714Y-49509337D02*
X1204571Y-49509337D01*
X1204571Y-49509337D02*
X1266286Y-49552194D01*
X1266286Y-49552194D02*
X1297143Y-49595051D01*
X1297143Y-49595051D02*
X1328000Y-49680765D01*
X1328000Y-49680765D02*
X1328000Y-49809337D01*
X1328000Y-49809337D02*
X1297143Y-49895051D01*
X1297143Y-49895051D02*
X1266286Y-49937908D01*
X1266286Y-49937908D02*
X1204571Y-49980765D01*
X1204571Y-49980765D02*
X957714Y-49980765D01*
X1605714Y-50409337D02*
X1605714Y-49509337D01*
X1605714Y-49509337D02*
X1852571Y-49509337D01*
X1852571Y-49509337D02*
X1914286Y-49552194D01*
X1914286Y-49552194D02*
X1945143Y-49595051D01*
X1945143Y-49595051D02*
X1976000Y-49680765D01*
X1976000Y-49680765D02*
X1976000Y-49809337D01*
X1976000Y-49809337D02*
X1945143Y-49895051D01*
X1945143Y-49895051D02*
X1914286Y-49937908D01*
X1914286Y-49937908D02*
X1852571Y-49980765D01*
X1852571Y-49980765D02*
X1605714Y-49980765D01*
X2963428Y-49937908D02*
X3056000Y-49980765D01*
X3056000Y-49980765D02*
X3086857Y-50023622D01*
X3086857Y-50023622D02*
X3117714Y-50109337D01*
X3117714Y-50109337D02*
X3117714Y-50237908D01*
X3117714Y-50237908D02*
X3086857Y-50323622D01*
X3086857Y-50323622D02*
X3056000Y-50366480D01*
X3056000Y-50366480D02*
X2994285Y-50409337D01*
X2994285Y-50409337D02*
X2747428Y-50409337D01*
X2747428Y-50409337D02*
X2747428Y-49509337D01*
X2747428Y-49509337D02*
X2963428Y-49509337D01*
X2963428Y-49509337D02*
X3025143Y-49552194D01*
X3025143Y-49552194D02*
X3056000Y-49595051D01*
X3056000Y-49595051D02*
X3086857Y-49680765D01*
X3086857Y-49680765D02*
X3086857Y-49766480D01*
X3086857Y-49766480D02*
X3056000Y-49852194D01*
X3056000Y-49852194D02*
X3025143Y-49895051D01*
X3025143Y-49895051D02*
X2963428Y-49937908D01*
X2963428Y-49937908D02*
X2747428Y-49937908D01*
X3364571Y-49595051D02*
X3395428Y-49552194D01*
X3395428Y-49552194D02*
X3457143Y-49509337D01*
X3457143Y-49509337D02*
X3611428Y-49509337D01*
X3611428Y-49509337D02*
X3673143Y-49552194D01*
X3673143Y-49552194D02*
X3704000Y-49595051D01*
X3704000Y-49595051D02*
X3734857Y-49680765D01*
X3734857Y-49680765D02*
X3734857Y-49766480D01*
X3734857Y-49766480D02*
X3704000Y-49895051D01*
X3704000Y-49895051D02*
X3333714Y-50409337D01*
X3333714Y-50409337D02*
X3734857Y-50409337D01*
X4352000Y-50409337D02*
X3981714Y-50409337D01*
X4166857Y-50409337D02*
X4166857Y-49509337D01*
X4166857Y-49509337D02*
X4105143Y-49637908D01*
X4105143Y-49637908D02*
X4043428Y-49723622D01*
X4043428Y-49723622D02*
X3981714Y-49766480D01*
X4753143Y-49509337D02*
X4814857Y-49509337D01*
X4814857Y-49509337D02*
X4876571Y-49552194D01*
X4876571Y-49552194D02*
X4907429Y-49595051D01*
X4907429Y-49595051D02*
X4938286Y-49680765D01*
X4938286Y-49680765D02*
X4969143Y-49852194D01*
X4969143Y-49852194D02*
X4969143Y-50066480D01*
X4969143Y-50066480D02*
X4938286Y-50237908D01*
X4938286Y-50237908D02*
X4907429Y-50323622D01*
X4907429Y-50323622D02*
X4876571Y-50366480D01*
X4876571Y-50366480D02*
X4814857Y-50409337D01*
X4814857Y-50409337D02*
X4753143Y-50409337D01*
X4753143Y-50409337D02*
X4691429Y-50366480D01*
X4691429Y-50366480D02*
X4660571Y-50323622D01*
X4660571Y-50323622D02*
X4629714Y-50237908D01*
X4629714Y-50237908D02*
X4598857Y-50066480D01*
X4598857Y-50066480D02*
X4598857Y-49852194D01*
X4598857Y-49852194D02*
X4629714Y-49680765D01*
X4629714Y-49680765D02*
X4660571Y-49595051D01*
X4660571Y-49595051D02*
X4691429Y-49552194D01*
X4691429Y-49552194D02*
X4753143Y-49509337D01*
D12*
X16674287Y-11454819D02*
X17085716Y-11454819D01*
X16880001Y-12454819D02*
X16880001Y-11454819D01*
X17257144Y-11454819D02*
X17737144Y-12454819D01*
X17737144Y-11454819D02*
X17257144Y-12454819D01*
X17977143Y-11550057D02*
X18011429Y-11502438D01*
X18011429Y-11502438D02*
X18080001Y-11454819D01*
X18080001Y-11454819D02*
X18251429Y-11454819D01*
X18251429Y-11454819D02*
X18320001Y-11502438D01*
X18320001Y-11502438D02*
X18354286Y-11550057D01*
X18354286Y-11550057D02*
X18388572Y-11645295D01*
X18388572Y-11645295D02*
X18388572Y-11740533D01*
X18388572Y-11740533D02*
X18354286Y-11883390D01*
X18354286Y-11883390D02*
X17942858Y-12454819D01*
X17942858Y-12454819D02*
X18388572Y-12454819D01*
X19931428Y-11454819D02*
X19999999Y-11454819D01*
X19999999Y-11454819D02*
X20068571Y-11502438D01*
X20068571Y-11502438D02*
X20102857Y-11550057D01*
X20102857Y-11550057D02*
X20137142Y-11645295D01*
X20137142Y-11645295D02*
X20171428Y-11835771D01*
X20171428Y-11835771D02*
X20171428Y-12073866D01*
X20171428Y-12073866D02*
X20137142Y-12264342D01*
X20137142Y-12264342D02*
X20102857Y-12359580D01*
X20102857Y-12359580D02*
X20068571Y-12407200D01*
X20068571Y-12407200D02*
X19999999Y-12454819D01*
X19999999Y-12454819D02*
X19931428Y-12454819D01*
X19931428Y-12454819D02*
X19862857Y-12407200D01*
X19862857Y-12407200D02*
X19828571Y-12359580D01*
X19828571Y-12359580D02*
X19794285Y-12264342D01*
X19794285Y-12264342D02*
X19759999Y-12073866D01*
X19759999Y-12073866D02*
X19759999Y-11835771D01*
X19759999Y-11835771D02*
X19794285Y-11645295D01*
X19794285Y-11645295D02*
X19828571Y-11550057D01*
X19828571Y-11550057D02*
X19862857Y-11502438D01*
X19862857Y-11502438D02*
X19931428Y-11454819D01*
X20479999Y-12359580D02*
X20514285Y-12407200D01*
X20514285Y-12407200D02*
X20479999Y-12454819D01*
X20479999Y-12454819D02*
X20445713Y-12407200D01*
X20445713Y-12407200D02*
X20479999Y-12359580D01*
X20479999Y-12359580D02*
X20479999Y-12454819D01*
X20754285Y-11454819D02*
X21234285Y-11454819D01*
X21234285Y-11454819D02*
X20925713Y-12454819D01*
X21851427Y-11454819D02*
X21508570Y-11454819D01*
X21508570Y-11454819D02*
X21474284Y-11931009D01*
X21474284Y-11931009D02*
X21508570Y-11883390D01*
X21508570Y-11883390D02*
X21577142Y-11835771D01*
X21577142Y-11835771D02*
X21748570Y-11835771D01*
X21748570Y-11835771D02*
X21817142Y-11883390D01*
X21817142Y-11883390D02*
X21851427Y-11931009D01*
X21851427Y-11931009D02*
X21885713Y-12026247D01*
X21885713Y-12026247D02*
X21885713Y-12264342D01*
X21885713Y-12264342D02*
X21851427Y-12359580D01*
X21851427Y-12359580D02*
X21817142Y-12407200D01*
X21817142Y-12407200D02*
X21748570Y-12454819D01*
X21748570Y-12454819D02*
X21577142Y-12454819D01*
X21577142Y-12454819D02*
X21508570Y-12407200D01*
X21508570Y-12407200D02*
X21474284Y-12359580D01*
X22674284Y-11454819D02*
X22845712Y-12454819D01*
X22845712Y-12454819D02*
X22982855Y-11740533D01*
X22982855Y-11740533D02*
X23119998Y-12454819D01*
X23119998Y-12454819D02*
X23291427Y-11454819D01*
X19537143Y-41454819D02*
X19297143Y-40978628D01*
X19125714Y-41454819D02*
X19125714Y-40454819D01*
X19125714Y-40454819D02*
X19400000Y-40454819D01*
X19400000Y-40454819D02*
X19468571Y-40502438D01*
X19468571Y-40502438D02*
X19502857Y-40550057D01*
X19502857Y-40550057D02*
X19537143Y-40645295D01*
X19537143Y-40645295D02*
X19537143Y-40788152D01*
X19537143Y-40788152D02*
X19502857Y-40883390D01*
X19502857Y-40883390D02*
X19468571Y-40931009D01*
X19468571Y-40931009D02*
X19400000Y-40978628D01*
X19400000Y-40978628D02*
X19125714Y-40978628D01*
X19777143Y-40454819D02*
X20257143Y-41454819D01*
X20257143Y-40454819D02*
X19777143Y-41454819D01*
X20497142Y-40550057D02*
X20531428Y-40502438D01*
X20531428Y-40502438D02*
X20600000Y-40454819D01*
X20600000Y-40454819D02*
X20771428Y-40454819D01*
X20771428Y-40454819D02*
X20840000Y-40502438D01*
X20840000Y-40502438D02*
X20874285Y-40550057D01*
X20874285Y-40550057D02*
X20908571Y-40645295D01*
X20908571Y-40645295D02*
X20908571Y-40740533D01*
X20908571Y-40740533D02*
X20874285Y-40883390D01*
X20874285Y-40883390D02*
X20462857Y-41454819D01*
X20462857Y-41454819D02*
X20908571Y-41454819D01*
X19537143Y-59954819D02*
X19297143Y-59478628D01*
X19125714Y-59954819D02*
X19125714Y-58954819D01*
X19125714Y-58954819D02*
X19400000Y-58954819D01*
X19400000Y-58954819D02*
X19468571Y-59002438D01*
X19468571Y-59002438D02*
X19502857Y-59050057D01*
X19502857Y-59050057D02*
X19537143Y-59145295D01*
X19537143Y-59145295D02*
X19537143Y-59288152D01*
X19537143Y-59288152D02*
X19502857Y-59383390D01*
X19502857Y-59383390D02*
X19468571Y-59431009D01*
X19468571Y-59431009D02*
X19400000Y-59478628D01*
X19400000Y-59478628D02*
X19125714Y-59478628D01*
X19777143Y-58954819D02*
X20257143Y-59954819D01*
X20257143Y-58954819D02*
X19777143Y-59954819D01*
X20908571Y-59954819D02*
X20497142Y-59954819D01*
X20702857Y-59954819D02*
X20702857Y-58954819D01*
X20702857Y-58954819D02*
X20634285Y-59097676D01*
X20634285Y-59097676D02*
X20565714Y-59192914D01*
X20565714Y-59192914D02*
X20497142Y-59240533D01*
X16674287Y-86954819D02*
X17085716Y-86954819D01*
X16880001Y-87954819D02*
X16880001Y-86954819D01*
X17257144Y-86954819D02*
X17737144Y-87954819D01*
X17737144Y-86954819D02*
X17257144Y-87954819D01*
X18388572Y-87954819D02*
X17977143Y-87954819D01*
X18182858Y-87954819D02*
X18182858Y-86954819D01*
X18182858Y-86954819D02*
X18114286Y-87097676D01*
X18114286Y-87097676D02*
X18045715Y-87192914D01*
X18045715Y-87192914D02*
X17977143Y-87240533D01*
X19931428Y-86954819D02*
X19999999Y-86954819D01*
X19999999Y-86954819D02*
X20068571Y-87002438D01*
X20068571Y-87002438D02*
X20102857Y-87050057D01*
X20102857Y-87050057D02*
X20137142Y-87145295D01*
X20137142Y-87145295D02*
X20171428Y-87335771D01*
X20171428Y-87335771D02*
X20171428Y-87573866D01*
X20171428Y-87573866D02*
X20137142Y-87764342D01*
X20137142Y-87764342D02*
X20102857Y-87859580D01*
X20102857Y-87859580D02*
X20068571Y-87907200D01*
X20068571Y-87907200D02*
X19999999Y-87954819D01*
X19999999Y-87954819D02*
X19931428Y-87954819D01*
X19931428Y-87954819D02*
X19862857Y-87907200D01*
X19862857Y-87907200D02*
X19828571Y-87859580D01*
X19828571Y-87859580D02*
X19794285Y-87764342D01*
X19794285Y-87764342D02*
X19759999Y-87573866D01*
X19759999Y-87573866D02*
X19759999Y-87335771D01*
X19759999Y-87335771D02*
X19794285Y-87145295D01*
X19794285Y-87145295D02*
X19828571Y-87050057D01*
X19828571Y-87050057D02*
X19862857Y-87002438D01*
X19862857Y-87002438D02*
X19931428Y-86954819D01*
X20479999Y-87859580D02*
X20514285Y-87907200D01*
X20514285Y-87907200D02*
X20479999Y-87954819D01*
X20479999Y-87954819D02*
X20445713Y-87907200D01*
X20445713Y-87907200D02*
X20479999Y-87859580D01*
X20479999Y-87859580D02*
X20479999Y-87954819D01*
X20754285Y-86954819D02*
X21234285Y-86954819D01*
X21234285Y-86954819D02*
X20925713Y-87954819D01*
X21851427Y-86954819D02*
X21508570Y-86954819D01*
X21508570Y-86954819D02*
X21474284Y-87431009D01*
X21474284Y-87431009D02*
X21508570Y-87383390D01*
X21508570Y-87383390D02*
X21577142Y-87335771D01*
X21577142Y-87335771D02*
X21748570Y-87335771D01*
X21748570Y-87335771D02*
X21817142Y-87383390D01*
X21817142Y-87383390D02*
X21851427Y-87431009D01*
X21851427Y-87431009D02*
X21885713Y-87526247D01*
X21885713Y-87526247D02*
X21885713Y-87764342D01*
X21885713Y-87764342D02*
X21851427Y-87859580D01*
X21851427Y-87859580D02*
X21817142Y-87907200D01*
X21817142Y-87907200D02*
X21748570Y-87954819D01*
X21748570Y-87954819D02*
X21577142Y-87954819D01*
X21577142Y-87954819D02*
X21508570Y-87907200D01*
X21508570Y-87907200D02*
X21474284Y-87859580D01*
X22674284Y-86954819D02*
X22845712Y-87954819D01*
X22845712Y-87954819D02*
X22982855Y-87240533D01*
X22982855Y-87240533D02*
X23119998Y-87954819D01*
X23119998Y-87954819D02*
X23291427Y-86954819D01*
D13*
X10761905Y-23645781D02*
X11247619Y-23645781D01*
X11004762Y-24845781D02*
X11004762Y-23645781D01*
X11450000Y-23645781D02*
X12016667Y-24845781D01*
X12016667Y-23645781D02*
X11450000Y-24845781D01*
X12300000Y-23760067D02*
X12340476Y-23702924D01*
X12340476Y-23702924D02*
X12421429Y-23645781D01*
X12421429Y-23645781D02*
X12623810Y-23645781D01*
X12623810Y-23645781D02*
X12704762Y-23702924D01*
X12704762Y-23702924D02*
X12745238Y-23760067D01*
X12745238Y-23760067D02*
X12785715Y-23874353D01*
X12785715Y-23874353D02*
X12785715Y-23988639D01*
X12785715Y-23988639D02*
X12745238Y-24160067D01*
X12745238Y-24160067D02*
X12259524Y-24845781D01*
X12259524Y-24845781D02*
X12785715Y-24845781D01*
X12947620Y-24960067D02*
X13595239Y-24960067D01*
X14283334Y-24845781D02*
X14000000Y-24274353D01*
X13797619Y-24845781D02*
X13797619Y-23645781D01*
X13797619Y-23645781D02*
X14121429Y-23645781D01*
X14121429Y-23645781D02*
X14202381Y-23702924D01*
X14202381Y-23702924D02*
X14242858Y-23760067D01*
X14242858Y-23760067D02*
X14283334Y-23874353D01*
X14283334Y-23874353D02*
X14283334Y-24045781D01*
X14283334Y-24045781D02*
X14242858Y-24160067D01*
X14242858Y-24160067D02*
X14202381Y-24217210D01*
X14202381Y-24217210D02*
X14121429Y-24274353D01*
X14121429Y-24274353D02*
X13797619Y-24274353D01*
X14607143Y-24502924D02*
X15011905Y-24502924D01*
X14526191Y-24845781D02*
X14809524Y-23645781D01*
X14809524Y-23645781D02*
X15092858Y-24845781D01*
X15376190Y-24845781D02*
X15376190Y-23645781D01*
X15376190Y-23645781D02*
X15578571Y-23645781D01*
X15578571Y-23645781D02*
X15700000Y-23702924D01*
X15700000Y-23702924D02*
X15780952Y-23817210D01*
X15780952Y-23817210D02*
X15821429Y-23931496D01*
X15821429Y-23931496D02*
X15861905Y-24160067D01*
X15861905Y-24160067D02*
X15861905Y-24331496D01*
X15861905Y-24331496D02*
X15821429Y-24560067D01*
X15821429Y-24560067D02*
X15780952Y-24674353D01*
X15780952Y-24674353D02*
X15700000Y-24788639D01*
X15700000Y-24788639D02*
X15578571Y-24845781D01*
X15578571Y-24845781D02*
X15376190Y-24845781D01*
X16226190Y-24845781D02*
X16226190Y-23645781D01*
X16792857Y-23645781D02*
X16954762Y-23645781D01*
X16954762Y-23645781D02*
X17035714Y-23702924D01*
X17035714Y-23702924D02*
X17116667Y-23817210D01*
X17116667Y-23817210D02*
X17157143Y-24045781D01*
X17157143Y-24045781D02*
X17157143Y-24445781D01*
X17157143Y-24445781D02*
X17116667Y-24674353D01*
X17116667Y-24674353D02*
X17035714Y-24788639D01*
X17035714Y-24788639D02*
X16954762Y-24845781D01*
X16954762Y-24845781D02*
X16792857Y-24845781D01*
X16792857Y-24845781D02*
X16711905Y-24788639D01*
X16711905Y-24788639D02*
X16630952Y-24674353D01*
X16630952Y-24674353D02*
X16590476Y-24445781D01*
X16590476Y-24445781D02*
X16590476Y-24045781D01*
X16590476Y-24045781D02*
X16630952Y-23817210D01*
X16630952Y-23817210D02*
X16711905Y-23702924D01*
X16711905Y-23702924D02*
X16792857Y-23645781D01*
X11267857Y-39845782D02*
X10984523Y-39274354D01*
X10782142Y-39845782D02*
X10782142Y-38645782D01*
X10782142Y-38645782D02*
X11105952Y-38645782D01*
X11105952Y-38645782D02*
X11186904Y-38702925D01*
X11186904Y-38702925D02*
X11227381Y-38760068D01*
X11227381Y-38760068D02*
X11267857Y-38874354D01*
X11267857Y-38874354D02*
X11267857Y-39045782D01*
X11267857Y-39045782D02*
X11227381Y-39160068D01*
X11227381Y-39160068D02*
X11186904Y-39217211D01*
X11186904Y-39217211D02*
X11105952Y-39274354D01*
X11105952Y-39274354D02*
X10782142Y-39274354D01*
X11551190Y-38645782D02*
X12117857Y-39845782D01*
X12117857Y-38645782D02*
X11551190Y-39845782D01*
X12401190Y-38760068D02*
X12441666Y-38702925D01*
X12441666Y-38702925D02*
X12522619Y-38645782D01*
X12522619Y-38645782D02*
X12725000Y-38645782D01*
X12725000Y-38645782D02*
X12805952Y-38702925D01*
X12805952Y-38702925D02*
X12846428Y-38760068D01*
X12846428Y-38760068D02*
X12886905Y-38874354D01*
X12886905Y-38874354D02*
X12886905Y-38988640D01*
X12886905Y-38988640D02*
X12846428Y-39160068D01*
X12846428Y-39160068D02*
X12360714Y-39845782D01*
X12360714Y-39845782D02*
X12886905Y-39845782D01*
X13048810Y-39960068D02*
X13696429Y-39960068D01*
X14384524Y-39845782D02*
X14101190Y-39274354D01*
X13898809Y-39845782D02*
X13898809Y-38645782D01*
X13898809Y-38645782D02*
X14222619Y-38645782D01*
X14222619Y-38645782D02*
X14303571Y-38702925D01*
X14303571Y-38702925D02*
X14344048Y-38760068D01*
X14344048Y-38760068D02*
X14384524Y-38874354D01*
X14384524Y-38874354D02*
X14384524Y-39045782D01*
X14384524Y-39045782D02*
X14344048Y-39160068D01*
X14344048Y-39160068D02*
X14303571Y-39217211D01*
X14303571Y-39217211D02*
X14222619Y-39274354D01*
X14222619Y-39274354D02*
X13898809Y-39274354D01*
X14708333Y-39502925D02*
X15113095Y-39502925D01*
X14627381Y-39845782D02*
X14910714Y-38645782D01*
X14910714Y-38645782D02*
X15194048Y-39845782D01*
X15477380Y-39845782D02*
X15477380Y-38645782D01*
X15477380Y-38645782D02*
X15679761Y-38645782D01*
X15679761Y-38645782D02*
X15801190Y-38702925D01*
X15801190Y-38702925D02*
X15882142Y-38817211D01*
X15882142Y-38817211D02*
X15922619Y-38931497D01*
X15922619Y-38931497D02*
X15963095Y-39160068D01*
X15963095Y-39160068D02*
X15963095Y-39331497D01*
X15963095Y-39331497D02*
X15922619Y-39560068D01*
X15922619Y-39560068D02*
X15882142Y-39674354D01*
X15882142Y-39674354D02*
X15801190Y-39788640D01*
X15801190Y-39788640D02*
X15679761Y-39845782D01*
X15679761Y-39845782D02*
X15477380Y-39845782D01*
X16327380Y-39845782D02*
X16327380Y-38645782D01*
X16894047Y-38645782D02*
X17055952Y-38645782D01*
X17055952Y-38645782D02*
X17136904Y-38702925D01*
X17136904Y-38702925D02*
X17217857Y-38817211D01*
X17217857Y-38817211D02*
X17258333Y-39045782D01*
X17258333Y-39045782D02*
X17258333Y-39445782D01*
X17258333Y-39445782D02*
X17217857Y-39674354D01*
X17217857Y-39674354D02*
X17136904Y-39788640D01*
X17136904Y-39788640D02*
X17055952Y-39845782D01*
X17055952Y-39845782D02*
X16894047Y-39845782D01*
X16894047Y-39845782D02*
X16813095Y-39788640D01*
X16813095Y-39788640D02*
X16732142Y-39674354D01*
X16732142Y-39674354D02*
X16691666Y-39445782D01*
X16691666Y-39445782D02*
X16691666Y-39045782D01*
X16691666Y-39045782D02*
X16732142Y-38817211D01*
X16732142Y-38817211D02*
X16813095Y-38702925D01*
X16813095Y-38702925D02*
X16894047Y-38645782D01*
X11267857Y-54845782D02*
X10984523Y-54274354D01*
X10782142Y-54845782D02*
X10782142Y-53645782D01*
X10782142Y-53645782D02*
X11105952Y-53645782D01*
X11105952Y-53645782D02*
X11186904Y-53702925D01*
X11186904Y-53702925D02*
X11227381Y-53760068D01*
X11227381Y-53760068D02*
X11267857Y-53874354D01*
X11267857Y-53874354D02*
X11267857Y-54045782D01*
X11267857Y-54045782D02*
X11227381Y-54160068D01*
X11227381Y-54160068D02*
X11186904Y-54217211D01*
X11186904Y-54217211D02*
X11105952Y-54274354D01*
X11105952Y-54274354D02*
X10782142Y-54274354D01*
X11551190Y-53645782D02*
X12117857Y-54845782D01*
X12117857Y-53645782D02*
X11551190Y-54845782D01*
X12886905Y-54845782D02*
X12401190Y-54845782D01*
X12644047Y-54845782D02*
X12644047Y-53645782D01*
X12644047Y-53645782D02*
X12563095Y-53817211D01*
X12563095Y-53817211D02*
X12482143Y-53931497D01*
X12482143Y-53931497D02*
X12401190Y-53988640D01*
X13048810Y-54960068D02*
X13696429Y-54960068D01*
X14384524Y-54845782D02*
X14101190Y-54274354D01*
X13898809Y-54845782D02*
X13898809Y-53645782D01*
X13898809Y-53645782D02*
X14222619Y-53645782D01*
X14222619Y-53645782D02*
X14303571Y-53702925D01*
X14303571Y-53702925D02*
X14344048Y-53760068D01*
X14344048Y-53760068D02*
X14384524Y-53874354D01*
X14384524Y-53874354D02*
X14384524Y-54045782D01*
X14384524Y-54045782D02*
X14344048Y-54160068D01*
X14344048Y-54160068D02*
X14303571Y-54217211D01*
X14303571Y-54217211D02*
X14222619Y-54274354D01*
X14222619Y-54274354D02*
X13898809Y-54274354D01*
X14708333Y-54502925D02*
X15113095Y-54502925D01*
X14627381Y-54845782D02*
X14910714Y-53645782D01*
X14910714Y-53645782D02*
X15194048Y-54845782D01*
X15477380Y-54845782D02*
X15477380Y-53645782D01*
X15477380Y-53645782D02*
X15679761Y-53645782D01*
X15679761Y-53645782D02*
X15801190Y-53702925D01*
X15801190Y-53702925D02*
X15882142Y-53817211D01*
X15882142Y-53817211D02*
X15922619Y-53931497D01*
X15922619Y-53931497D02*
X15963095Y-54160068D01*
X15963095Y-54160068D02*
X15963095Y-54331497D01*
X15963095Y-54331497D02*
X15922619Y-54560068D01*
X15922619Y-54560068D02*
X15882142Y-54674354D01*
X15882142Y-54674354D02*
X15801190Y-54788640D01*
X15801190Y-54788640D02*
X15679761Y-54845782D01*
X15679761Y-54845782D02*
X15477380Y-54845782D01*
X16327380Y-54845782D02*
X16327380Y-53645782D01*
X16894047Y-53645782D02*
X17055952Y-53645782D01*
X17055952Y-53645782D02*
X17136904Y-53702925D01*
X17136904Y-53702925D02*
X17217857Y-53817211D01*
X17217857Y-53817211D02*
X17258333Y-54045782D01*
X17258333Y-54045782D02*
X17258333Y-54445782D01*
X17258333Y-54445782D02*
X17217857Y-54674354D01*
X17217857Y-54674354D02*
X17136904Y-54788640D01*
X17136904Y-54788640D02*
X17055952Y-54845782D01*
X17055952Y-54845782D02*
X16894047Y-54845782D01*
X16894047Y-54845782D02*
X16813095Y-54788640D01*
X16813095Y-54788640D02*
X16732142Y-54674354D01*
X16732142Y-54674354D02*
X16691666Y-54445782D01*
X16691666Y-54445782D02*
X16691666Y-54045782D01*
X16691666Y-54045782D02*
X16732142Y-53817211D01*
X16732142Y-53817211D02*
X16813095Y-53702925D01*
X16813095Y-53702925D02*
X16894047Y-53645782D01*
X10761905Y-68645782D02*
X11247619Y-68645782D01*
X11004762Y-69845782D02*
X11004762Y-68645782D01*
X11450000Y-68645782D02*
X12016667Y-69845782D01*
X12016667Y-68645782D02*
X11450000Y-69845782D01*
X12785715Y-69845782D02*
X12300000Y-69845782D01*
X12542857Y-69845782D02*
X12542857Y-68645782D01*
X12542857Y-68645782D02*
X12461905Y-68817211D01*
X12461905Y-68817211D02*
X12380953Y-68931497D01*
X12380953Y-68931497D02*
X12300000Y-68988640D01*
X12947620Y-69960068D02*
X13595239Y-69960068D01*
X14283334Y-69845782D02*
X14000000Y-69274354D01*
X13797619Y-69845782D02*
X13797619Y-68645782D01*
X13797619Y-68645782D02*
X14121429Y-68645782D01*
X14121429Y-68645782D02*
X14202381Y-68702925D01*
X14202381Y-68702925D02*
X14242858Y-68760068D01*
X14242858Y-68760068D02*
X14283334Y-68874354D01*
X14283334Y-68874354D02*
X14283334Y-69045782D01*
X14283334Y-69045782D02*
X14242858Y-69160068D01*
X14242858Y-69160068D02*
X14202381Y-69217211D01*
X14202381Y-69217211D02*
X14121429Y-69274354D01*
X14121429Y-69274354D02*
X13797619Y-69274354D01*
X14607143Y-69502925D02*
X15011905Y-69502925D01*
X14526191Y-69845782D02*
X14809524Y-68645782D01*
X14809524Y-68645782D02*
X15092858Y-69845782D01*
X15376190Y-69845782D02*
X15376190Y-68645782D01*
X15376190Y-68645782D02*
X15578571Y-68645782D01*
X15578571Y-68645782D02*
X15700000Y-68702925D01*
X15700000Y-68702925D02*
X15780952Y-68817211D01*
X15780952Y-68817211D02*
X15821429Y-68931497D01*
X15821429Y-68931497D02*
X15861905Y-69160068D01*
X15861905Y-69160068D02*
X15861905Y-69331497D01*
X15861905Y-69331497D02*
X15821429Y-69560068D01*
X15821429Y-69560068D02*
X15780952Y-69674354D01*
X15780952Y-69674354D02*
X15700000Y-69788640D01*
X15700000Y-69788640D02*
X15578571Y-69845782D01*
X15578571Y-69845782D02*
X15376190Y-69845782D01*
X16226190Y-69845782D02*
X16226190Y-68645782D01*
X16792857Y-68645782D02*
X16954762Y-68645782D01*
X16954762Y-68645782D02*
X17035714Y-68702925D01*
X17035714Y-68702925D02*
X17116667Y-68817211D01*
X17116667Y-68817211D02*
X17157143Y-69045782D01*
X17157143Y-69045782D02*
X17157143Y-69445782D01*
X17157143Y-69445782D02*
X17116667Y-69674354D01*
X17116667Y-69674354D02*
X17035714Y-69788640D01*
X17035714Y-69788640D02*
X16954762Y-69845782D01*
X16954762Y-69845782D02*
X16792857Y-69845782D01*
X16792857Y-69845782D02*
X16711905Y-69788640D01*
X16711905Y-69788640D02*
X16630952Y-69674354D01*
X16630952Y-69674354D02*
X16590476Y-69445782D01*
X16590476Y-69445782D02*
X16590476Y-69045782D01*
X16590476Y-69045782D02*
X16630952Y-68817211D01*
X16630952Y-68817211D02*
X16711905Y-68702925D01*
X16711905Y-68702925D02*
X16792857Y-68645782D01*
X83490476Y-3145781D02*
X83976190Y-3145781D01*
X83733333Y-4345781D02*
X83733333Y-3145781D01*
X84178571Y-3145781D02*
X84745238Y-4345781D01*
X84745238Y-3145781D02*
X84178571Y-4345781D01*
X85028571Y-3260067D02*
X85069047Y-3202924D01*
X85069047Y-3202924D02*
X85150000Y-3145781D01*
X85150000Y-3145781D02*
X85352381Y-3145781D01*
X85352381Y-3145781D02*
X85433333Y-3202924D01*
X85433333Y-3202924D02*
X85473809Y-3260067D01*
X85473809Y-3260067D02*
X85514286Y-3374353D01*
X85514286Y-3374353D02*
X85514286Y-3488639D01*
X85514286Y-3488639D02*
X85473809Y-3660067D01*
X85473809Y-3660067D02*
X84988095Y-4345781D01*
X84988095Y-4345781D02*
X85514286Y-4345781D01*
X85676191Y-4460067D02*
X86323810Y-4460067D01*
X86485714Y-4002924D02*
X86890476Y-4002924D01*
X86404762Y-4345781D02*
X86688095Y-3145781D01*
X86688095Y-3145781D02*
X86971429Y-4345781D01*
X87254761Y-4345781D02*
X87254761Y-3145781D01*
X87254761Y-3145781D02*
X87740476Y-4345781D01*
X87740476Y-4345781D02*
X87740476Y-3145781D01*
X88023809Y-3145781D02*
X88509523Y-3145781D01*
X88266666Y-4345781D02*
X88266666Y-3145781D01*
X83996429Y-33345781D02*
X83713095Y-32774353D01*
X83510714Y-33345781D02*
X83510714Y-32145781D01*
X83510714Y-32145781D02*
X83834524Y-32145781D01*
X83834524Y-32145781D02*
X83915476Y-32202924D01*
X83915476Y-32202924D02*
X83955953Y-32260067D01*
X83955953Y-32260067D02*
X83996429Y-32374353D01*
X83996429Y-32374353D02*
X83996429Y-32545781D01*
X83996429Y-32545781D02*
X83955953Y-32660067D01*
X83955953Y-32660067D02*
X83915476Y-32717210D01*
X83915476Y-32717210D02*
X83834524Y-32774353D01*
X83834524Y-32774353D02*
X83510714Y-32774353D01*
X84279762Y-32145781D02*
X84846429Y-33345781D01*
X84846429Y-32145781D02*
X84279762Y-33345781D01*
X85129762Y-32260067D02*
X85170238Y-32202924D01*
X85170238Y-32202924D02*
X85251191Y-32145781D01*
X85251191Y-32145781D02*
X85453572Y-32145781D01*
X85453572Y-32145781D02*
X85534524Y-32202924D01*
X85534524Y-32202924D02*
X85575000Y-32260067D01*
X85575000Y-32260067D02*
X85615477Y-32374353D01*
X85615477Y-32374353D02*
X85615477Y-32488639D01*
X85615477Y-32488639D02*
X85575000Y-32660067D01*
X85575000Y-32660067D02*
X85089286Y-33345781D01*
X85089286Y-33345781D02*
X85615477Y-33345781D01*
X85777382Y-33460067D02*
X86425001Y-33460067D01*
X86586905Y-33002924D02*
X86991667Y-33002924D01*
X86505953Y-33345781D02*
X86789286Y-32145781D01*
X86789286Y-32145781D02*
X87072620Y-33345781D01*
X87355952Y-33345781D02*
X87355952Y-32145781D01*
X87355952Y-32145781D02*
X87841667Y-33345781D01*
X87841667Y-33345781D02*
X87841667Y-32145781D01*
X88125000Y-32145781D02*
X88610714Y-32145781D01*
X88367857Y-33345781D02*
X88367857Y-32145781D01*
X83996429Y-61345782D02*
X83713095Y-60774354D01*
X83510714Y-61345782D02*
X83510714Y-60145782D01*
X83510714Y-60145782D02*
X83834524Y-60145782D01*
X83834524Y-60145782D02*
X83915476Y-60202925D01*
X83915476Y-60202925D02*
X83955953Y-60260068D01*
X83955953Y-60260068D02*
X83996429Y-60374354D01*
X83996429Y-60374354D02*
X83996429Y-60545782D01*
X83996429Y-60545782D02*
X83955953Y-60660068D01*
X83955953Y-60660068D02*
X83915476Y-60717211D01*
X83915476Y-60717211D02*
X83834524Y-60774354D01*
X83834524Y-60774354D02*
X83510714Y-60774354D01*
X84279762Y-60145782D02*
X84846429Y-61345782D01*
X84846429Y-60145782D02*
X84279762Y-61345782D01*
X85615477Y-61345782D02*
X85129762Y-61345782D01*
X85372619Y-61345782D02*
X85372619Y-60145782D01*
X85372619Y-60145782D02*
X85291667Y-60317211D01*
X85291667Y-60317211D02*
X85210715Y-60431497D01*
X85210715Y-60431497D02*
X85129762Y-60488640D01*
X85777382Y-61460068D02*
X86425001Y-61460068D01*
X86586905Y-61002925D02*
X86991667Y-61002925D01*
X86505953Y-61345782D02*
X86789286Y-60145782D01*
X86789286Y-60145782D02*
X87072620Y-61345782D01*
X87355952Y-61345782D02*
X87355952Y-60145782D01*
X87355952Y-60145782D02*
X87841667Y-61345782D01*
X87841667Y-61345782D02*
X87841667Y-60145782D01*
X88125000Y-60145782D02*
X88610714Y-60145782D01*
X88367857Y-61345782D02*
X88367857Y-60145782D01*
X83490476Y-89145782D02*
X83976190Y-89145782D01*
X83733333Y-90345782D02*
X83733333Y-89145782D01*
X84178571Y-89145782D02*
X84745238Y-90345782D01*
X84745238Y-89145782D02*
X84178571Y-90345782D01*
X85514286Y-90345782D02*
X85028571Y-90345782D01*
X85271428Y-90345782D02*
X85271428Y-89145782D01*
X85271428Y-89145782D02*
X85190476Y-89317211D01*
X85190476Y-89317211D02*
X85109524Y-89431497D01*
X85109524Y-89431497D02*
X85028571Y-89488640D01*
X85676191Y-90460068D02*
X86323810Y-90460068D01*
X86485714Y-90002925D02*
X86890476Y-90002925D01*
X86404762Y-90345782D02*
X86688095Y-89145782D01*
X86688095Y-89145782D02*
X86971429Y-90345782D01*
X87254761Y-90345782D02*
X87254761Y-89145782D01*
X87254761Y-89145782D02*
X87740476Y-90345782D01*
X87740476Y-90345782D02*
X87740476Y-89145782D01*
X88023809Y-89145782D02*
X88509523Y-89145782D01*
X88266666Y-90345782D02*
X88266666Y-89145782D01*
D14*
X14996571Y-2291264D02*
X14550857Y-2291264D01*
X14550857Y-2291264D02*
X14506285Y-2910312D01*
X14506285Y-2910312D02*
X14550857Y-2848407D01*
X14550857Y-2848407D02*
X14640000Y-2786502D01*
X14640000Y-2786502D02*
X14862857Y-2786502D01*
X14862857Y-2786502D02*
X14952000Y-2848407D01*
X14952000Y-2848407D02*
X14996571Y-2910312D01*
X14996571Y-2910312D02*
X15041142Y-3034121D01*
X15041142Y-3034121D02*
X15041142Y-3343645D01*
X15041142Y-3343645D02*
X14996571Y-3467455D01*
X14996571Y-3467455D02*
X14952000Y-3529360D01*
X14952000Y-3529360D02*
X14862857Y-3591264D01*
X14862857Y-3591264D02*
X14640000Y-3591264D01*
X14640000Y-3591264D02*
X14550857Y-3529360D01*
X14550857Y-3529360D02*
X14506285Y-3467455D01*
X15442286Y-3467455D02*
X15486857Y-3529360D01*
X15486857Y-3529360D02*
X15442286Y-3591264D01*
X15442286Y-3591264D02*
X15397714Y-3529360D01*
X15397714Y-3529360D02*
X15442286Y-3467455D01*
X15442286Y-3467455D02*
X15442286Y-3591264D01*
X16021714Y-2848407D02*
X15932571Y-2786502D01*
X15932571Y-2786502D02*
X15888000Y-2724598D01*
X15888000Y-2724598D02*
X15843428Y-2600788D01*
X15843428Y-2600788D02*
X15843428Y-2538883D01*
X15843428Y-2538883D02*
X15888000Y-2415074D01*
X15888000Y-2415074D02*
X15932571Y-2353169D01*
X15932571Y-2353169D02*
X16021714Y-2291264D01*
X16021714Y-2291264D02*
X16200000Y-2291264D01*
X16200000Y-2291264D02*
X16289143Y-2353169D01*
X16289143Y-2353169D02*
X16333714Y-2415074D01*
X16333714Y-2415074D02*
X16378285Y-2538883D01*
X16378285Y-2538883D02*
X16378285Y-2600788D01*
X16378285Y-2600788D02*
X16333714Y-2724598D01*
X16333714Y-2724598D02*
X16289143Y-2786502D01*
X16289143Y-2786502D02*
X16200000Y-2848407D01*
X16200000Y-2848407D02*
X16021714Y-2848407D01*
X16021714Y-2848407D02*
X15932571Y-2910312D01*
X15932571Y-2910312D02*
X15888000Y-2972217D01*
X15888000Y-2972217D02*
X15843428Y-3096026D01*
X15843428Y-3096026D02*
X15843428Y-3343645D01*
X15843428Y-3343645D02*
X15888000Y-3467455D01*
X15888000Y-3467455D02*
X15932571Y-3529360D01*
X15932571Y-3529360D02*
X16021714Y-3591264D01*
X16021714Y-3591264D02*
X16200000Y-3591264D01*
X16200000Y-3591264D02*
X16289143Y-3529360D01*
X16289143Y-3529360D02*
X16333714Y-3467455D01*
X16333714Y-3467455D02*
X16378285Y-3343645D01*
X16378285Y-3343645D02*
X16378285Y-3096026D01*
X16378285Y-3096026D02*
X16333714Y-2972217D01*
X16333714Y-2972217D02*
X16289143Y-2910312D01*
X16289143Y-2910312D02*
X16200000Y-2848407D01*
X17982857Y-2353169D02*
X17893715Y-2291264D01*
X17893715Y-2291264D02*
X17760000Y-2291264D01*
X17760000Y-2291264D02*
X17626286Y-2353169D01*
X17626286Y-2353169D02*
X17537143Y-2476979D01*
X17537143Y-2476979D02*
X17492572Y-2600788D01*
X17492572Y-2600788D02*
X17448000Y-2848407D01*
X17448000Y-2848407D02*
X17448000Y-3034121D01*
X17448000Y-3034121D02*
X17492572Y-3281740D01*
X17492572Y-3281740D02*
X17537143Y-3405550D01*
X17537143Y-3405550D02*
X17626286Y-3529360D01*
X17626286Y-3529360D02*
X17760000Y-3591264D01*
X17760000Y-3591264D02*
X17849143Y-3591264D01*
X17849143Y-3591264D02*
X17982857Y-3529360D01*
X17982857Y-3529360D02*
X18027429Y-3467455D01*
X18027429Y-3467455D02*
X18027429Y-3034121D01*
X18027429Y-3034121D02*
X17849143Y-3034121D01*
X18428572Y-3591264D02*
X18428572Y-2291264D01*
X18428572Y-2910312D02*
X18963429Y-2910312D01*
X18963429Y-3591264D02*
X18963429Y-2291264D01*
X19320000Y-2724598D02*
X19810286Y-2724598D01*
X19810286Y-2724598D02*
X19320000Y-3591264D01*
X19320000Y-3591264D02*
X19810286Y-3591264D01*
X21414857Y-3591264D02*
X21102857Y-2972217D01*
X20880000Y-3591264D02*
X20880000Y-2291264D01*
X20880000Y-2291264D02*
X21236571Y-2291264D01*
X21236571Y-2291264D02*
X21325714Y-2353169D01*
X21325714Y-2353169D02*
X21370285Y-2415074D01*
X21370285Y-2415074D02*
X21414857Y-2538883D01*
X21414857Y-2538883D02*
X21414857Y-2724598D01*
X21414857Y-2724598D02*
X21370285Y-2848407D01*
X21370285Y-2848407D02*
X21325714Y-2910312D01*
X21325714Y-2910312D02*
X21236571Y-2972217D01*
X21236571Y-2972217D02*
X20880000Y-2972217D01*
X21771428Y-3219836D02*
X22217143Y-3219836D01*
X21682285Y-3591264D02*
X21994285Y-2291264D01*
X21994285Y-2291264D02*
X22306285Y-3591264D01*
X22618286Y-3591264D02*
X22618286Y-2291264D01*
X22618286Y-2291264D02*
X22841143Y-2291264D01*
X22841143Y-2291264D02*
X22974857Y-2353169D01*
X22974857Y-2353169D02*
X23064000Y-2476979D01*
X23064000Y-2476979D02*
X23108571Y-2600788D01*
X23108571Y-2600788D02*
X23153143Y-2848407D01*
X23153143Y-2848407D02*
X23153143Y-3034121D01*
X23153143Y-3034121D02*
X23108571Y-3281740D01*
X23108571Y-3281740D02*
X23064000Y-3405550D01*
X23064000Y-3405550D02*
X22974857Y-3529360D01*
X22974857Y-3529360D02*
X22841143Y-3591264D01*
X22841143Y-3591264D02*
X22618286Y-3591264D01*
X23509714Y-3219836D02*
X23955429Y-3219836D01*
X23420571Y-3591264D02*
X23732571Y-2291264D01*
X23732571Y-2291264D02*
X24044571Y-3591264D01*
X24891429Y-3591264D02*
X24579429Y-2972217D01*
X24356572Y-3591264D02*
X24356572Y-2291264D01*
X24356572Y-2291264D02*
X24713143Y-2291264D01*
X24713143Y-2291264D02*
X24802286Y-2353169D01*
X24802286Y-2353169D02*
X24846857Y-2415074D01*
X24846857Y-2415074D02*
X24891429Y-2538883D01*
X24891429Y-2538883D02*
X24891429Y-2724598D01*
X24891429Y-2724598D02*
X24846857Y-2848407D01*
X24846857Y-2848407D02*
X24802286Y-2910312D01*
X24802286Y-2910312D02*
X24713143Y-2972217D01*
X24713143Y-2972217D02*
X24356572Y-2972217D01*
X26317715Y-2910312D02*
X26005715Y-2910312D01*
X26005715Y-3591264D02*
X26005715Y-2291264D01*
X26005715Y-2291264D02*
X26451429Y-2291264D01*
X27342858Y-3591264D02*
X27030858Y-2972217D01*
X26808001Y-3591264D02*
X26808001Y-2291264D01*
X26808001Y-2291264D02*
X27164572Y-2291264D01*
X27164572Y-2291264D02*
X27253715Y-2353169D01*
X27253715Y-2353169D02*
X27298286Y-2415074D01*
X27298286Y-2415074D02*
X27342858Y-2538883D01*
X27342858Y-2538883D02*
X27342858Y-2724598D01*
X27342858Y-2724598D02*
X27298286Y-2848407D01*
X27298286Y-2848407D02*
X27253715Y-2910312D01*
X27253715Y-2910312D02*
X27164572Y-2972217D01*
X27164572Y-2972217D02*
X26808001Y-2972217D01*
X27922286Y-2291264D02*
X28100572Y-2291264D01*
X28100572Y-2291264D02*
X28189715Y-2353169D01*
X28189715Y-2353169D02*
X28278858Y-2476979D01*
X28278858Y-2476979D02*
X28323429Y-2724598D01*
X28323429Y-2724598D02*
X28323429Y-3157931D01*
X28323429Y-3157931D02*
X28278858Y-3405550D01*
X28278858Y-3405550D02*
X28189715Y-3529360D01*
X28189715Y-3529360D02*
X28100572Y-3591264D01*
X28100572Y-3591264D02*
X27922286Y-3591264D01*
X27922286Y-3591264D02*
X27833144Y-3529360D01*
X27833144Y-3529360D02*
X27744001Y-3405550D01*
X27744001Y-3405550D02*
X27699429Y-3157931D01*
X27699429Y-3157931D02*
X27699429Y-2724598D01*
X27699429Y-2724598D02*
X27744001Y-2476979D01*
X27744001Y-2476979D02*
X27833144Y-2353169D01*
X27833144Y-2353169D02*
X27922286Y-2291264D01*
X28724572Y-3591264D02*
X28724572Y-2291264D01*
X28724572Y-2291264D02*
X29259429Y-3591264D01*
X29259429Y-3591264D02*
X29259429Y-2291264D01*
X29571428Y-2291264D02*
X30106286Y-2291264D01*
X29838857Y-3591264D02*
X29838857Y-2291264D01*
X31131429Y-2910312D02*
X31443429Y-2910312D01*
X31577143Y-3591264D02*
X31131429Y-3591264D01*
X31131429Y-3591264D02*
X31131429Y-2291264D01*
X31131429Y-2291264D02*
X31577143Y-2291264D01*
X31978286Y-3591264D02*
X31978286Y-2291264D01*
X31978286Y-2291264D02*
X32513143Y-3591264D01*
X32513143Y-3591264D02*
X32513143Y-2291264D01*
X32958857Y-3591264D02*
X32958857Y-2291264D01*
X32958857Y-2291264D02*
X33181714Y-2291264D01*
X33181714Y-2291264D02*
X33315428Y-2353169D01*
X33315428Y-2353169D02*
X33404571Y-2476979D01*
X33404571Y-2476979D02*
X33449142Y-2600788D01*
X33449142Y-2600788D02*
X33493714Y-2848407D01*
X33493714Y-2848407D02*
X33493714Y-3034121D01*
X33493714Y-3034121D02*
X33449142Y-3281740D01*
X33449142Y-3281740D02*
X33404571Y-3405550D01*
X33404571Y-3405550D02*
X33315428Y-3529360D01*
X33315428Y-3529360D02*
X33181714Y-3591264D01*
X33181714Y-3591264D02*
X32958857Y-3591264D01*
M02*
