M48
; DRILL file KiCad 10.0.5 date 2026-08-09T20:19:25
; FORMAT={-:-/ absolute / metric / decimal}
; #@! TF.CreationDate,2026-08-09T20:19:25+01:00
; #@! TF.GenerationSoftware,Kicad,Pcbnew,10.0.5
; #@! TF.FileFunction,MixedPlating,1,4
FMAT,2
METRIC
; #@! TA.AperFunction,Plated,PTH,ViaDrill
T1C0.250
; #@! TA.AperFunction,Plated,PTH,ViaDrill
T2C0.300
; #@! TA.AperFunction,Plated,PTH,ViaDrill
T3C0.350
; #@! TA.AperFunction,Plated,PTH,ViaDrill
T4C0.400
; #@! TA.AperFunction,Plated,PTH,ComponentDrill
T5C1.020
; #@! TA.AperFunction,Plated,PTH,ComponentDrill
T6C3.200
%
G90
G05
T1
X1.43Y-84.0
X8.15Y-83.3
X9.85Y-83.3
X11.15Y-83.3
X11.3Y-87.15
X11.3Y-88.85
X12.85Y-83.3
X14.5Y-82.17
X20.1Y-9.17
X20.1Y-90.83
X23.9Y-9.17
X23.9Y-90.83
X26.2Y-39.2
X26.2Y-60.8
X28.8Y-39.2
X28.8Y-60.8
X32.1Y-37.17
X32.1Y-62.83
X35.15Y-23.65
X35.15Y-76.35
X35.83Y-40.374
X35.83Y-59.626
X35.9Y-37.17
X35.9Y-62.83
X36.85Y-23.65
X36.85Y-76.35
X38.64Y-41.104
X38.64Y-58.896
X38.73Y-18.424
X38.73Y-81.576
X40.34Y-41.104
X40.34Y-58.896
X41.4Y-46.234
X41.4Y-53.766
X41.6Y-20.574
X41.6Y-79.426
X42.04Y-41.104
X42.04Y-58.896
X43.1Y-46.234
X43.1Y-53.766
X43.3Y-20.574
X43.3Y-79.426
X45.55Y-17.104
X45.55Y-82.896
X47.25Y-17.104
X47.25Y-82.896
X48.995Y-42.274
X48.995Y-57.726
X53.17Y-46.424
X53.17Y-53.576
X55.75Y-10.43
X55.75Y-89.57
X59.47Y-18.424
X59.47Y-81.576
X60.0Y-20.574
X60.0Y-79.426
X61.7Y-20.574
X61.7Y-79.426
X65.45Y-21.704
X65.45Y-78.296
X67.15Y-21.704
X67.15Y-78.296
X81.996Y-32.637
X81.996Y-67.363
X84.511Y-14.604
X84.511Y-85.396
X86.211Y-14.604
X86.211Y-85.396
X86.541Y-12.374
X86.541Y-87.626
X87.911Y-14.604
X87.911Y-85.396
X94.866Y-15.774
X94.866Y-84.226
T2
X2.6Y-84.0
X6.55Y-79.19
X15.6Y-81.0
X16.4Y-81.0
X33.45Y-4.513
X33.45Y-5.612
X33.45Y-6.712
X33.45Y-93.287
X33.45Y-94.387
X33.45Y-95.487
X34.0Y-5.062
X34.0Y-6.162
X34.0Y-93.837
X34.0Y-94.938
X34.55Y-4.513
X34.55Y-5.612
X34.55Y-6.712
X34.55Y-93.287
X34.55Y-94.387
X34.55Y-95.487
X36.255Y-42.274
X36.255Y-57.726
X45.14Y-22.55
X45.14Y-77.45
X48.2Y-72.0
X49.0Y-72.0
X49.52Y-5.52
X49.52Y-6.14
X49.52Y-6.76
X49.52Y-9.24
X49.52Y-9.86
X49.52Y-10.48
X49.52Y-89.52
X49.52Y-90.76
X49.52Y-93.86
X49.52Y-94.48
X50.14Y-90.14
X50.14Y-93.24
X50.76Y-7.38
X50.76Y-9.24
X50.76Y-9.86
X50.76Y-10.48
X50.76Y-90.76
X50.76Y-91.38
X50.76Y-92.62
X50.76Y-93.86
X50.76Y-94.48
X51.38Y-9.24
X51.38Y-9.86
X51.38Y-10.48
X51.38Y-93.86
X51.38Y-94.48
X51.4Y-7.4
X51.4Y-8.6
X51.4Y-91.4
X51.4Y-92.6
X52.0Y-7.4
X52.0Y-8.6
X52.0Y-91.4
X52.0Y-92.6
X52.0Y-93.24
X52.6Y-7.4
X52.6Y-8.6
X52.6Y-91.4
X52.6Y-92.6
X52.62Y-5.52
X52.62Y-6.14
X52.62Y-6.76
X52.62Y-9.24
X52.62Y-9.86
X52.62Y-10.48
X52.62Y-89.52
X52.62Y-90.76
X52.62Y-93.86
X52.62Y-94.48
X53.24Y-5.52
X53.24Y-6.14
X53.24Y-7.38
X53.24Y-9.24
X53.24Y-9.86
X53.24Y-10.48
X53.24Y-89.52
X53.24Y-90.76
X53.24Y-91.38
X53.24Y-92.62
X53.24Y-93.86
X53.24Y-94.48
X53.86Y-6.76
X53.86Y-90.14
X53.86Y-93.24
X54.48Y-5.52
X54.48Y-6.14
X54.48Y-9.24
X54.48Y-9.86
X54.48Y-10.48
X54.48Y-89.52
X54.48Y-90.76
X54.48Y-93.86
X54.48Y-94.48
X55.75Y-11.6
X55.75Y-88.4
X57.02Y-33.52
X57.02Y-34.14
X57.02Y-34.76
X57.02Y-37.24
X57.02Y-38.48
X57.02Y-61.52
X57.02Y-62.76
X57.02Y-65.24
X57.02Y-66.48
X57.64Y-37.86
X57.64Y-62.14
X57.64Y-65.86
X58.26Y-33.52
X58.26Y-34.14
X58.26Y-35.38
X58.26Y-36.62
X58.26Y-37.24
X58.26Y-38.48
X58.26Y-61.52
X58.26Y-62.76
X58.26Y-63.38
X58.26Y-64.62
X58.26Y-65.24
X58.26Y-66.48
X58.88Y-33.52
X58.88Y-34.14
X58.88Y-34.76
X58.88Y-37.24
X58.88Y-38.48
X58.88Y-61.52
X58.88Y-62.76
X58.88Y-65.24
X58.88Y-66.48
X58.9Y-36.0
X58.9Y-36.6
X58.9Y-63.4
X58.9Y-64.0
X58.9Y-64.6
X59.5Y-36.0
X59.5Y-36.6
X59.5Y-37.86
X59.5Y-62.14
X59.5Y-63.4
X59.5Y-64.0
X59.5Y-64.6
X59.5Y-65.86
X60.1Y-36.0
X60.1Y-36.6
X60.1Y-63.4
X60.1Y-64.0
X60.1Y-64.6
X60.12Y-33.52
X60.12Y-34.14
X60.12Y-34.76
X60.12Y-37.24
X60.12Y-38.48
X60.12Y-61.52
X60.12Y-62.76
X60.12Y-65.24
X60.12Y-66.48
X60.74Y-33.52
X60.74Y-34.14
X60.74Y-35.38
X60.74Y-36.62
X60.74Y-37.24
X60.74Y-38.48
X60.74Y-61.52
X60.74Y-62.76
X60.74Y-63.38
X60.74Y-64.62
X60.74Y-65.24
X60.74Y-66.48
X61.36Y-34.76
X61.36Y-37.86
X61.36Y-62.14
X61.36Y-65.86
X61.98Y-33.52
X61.98Y-34.14
X61.98Y-37.24
X61.98Y-38.48
X61.98Y-61.52
X61.98Y-62.76
X61.98Y-65.24
X61.98Y-66.48
X78.136Y-35.5
X78.136Y-36.5
X78.136Y-63.5
X78.136Y-64.5
X82.126Y-15.774
X82.126Y-84.226
T3
X23.075Y-34.0
X23.075Y-38.0
X23.075Y-62.0
X23.075Y-66.0
X23.925Y-34.0
X23.925Y-38.0
X23.925Y-62.0
X23.925Y-66.0
X51.075Y-30.2
X51.075Y-69.8
X51.925Y-30.2
X51.925Y-69.8
T4
X1.2Y-24.745
X1.2Y-30.255
X1.2Y-39.745
X1.2Y-45.255
X1.2Y-54.745
X1.2Y-60.255
X1.2Y-69.745
X1.2Y-75.255
X2.47Y-24.745
X2.47Y-30.255
X2.47Y-39.745
X2.47Y-45.255
X2.47Y-54.745
X2.47Y-60.255
X2.47Y-69.745
X2.47Y-75.255
X3.0Y-4.0
X3.0Y-7.0
X3.0Y-10.0
X3.0Y-13.0
X3.0Y-16.0
X3.0Y-19.0
X3.0Y-94.0
X3.0Y-97.0
X3.74Y-24.745
X3.74Y-30.255
X3.74Y-39.745
X3.74Y-45.255
X3.74Y-54.745
X3.74Y-60.255
X3.74Y-69.745
X3.74Y-75.255
X6.0Y-4.0
X6.0Y-16.0
X6.0Y-19.0
X6.0Y-22.0
X6.0Y-25.0
X6.0Y-31.0
X6.0Y-37.0
X6.0Y-40.0
X6.0Y-46.0
X6.0Y-52.0
X6.0Y-55.0
X6.0Y-61.0
X6.0Y-67.0
X9.0Y-4.0
X9.0Y-16.0
X9.0Y-19.0
X9.0Y-22.0
X9.0Y-25.0
X9.0Y-31.0
X9.0Y-37.0
X9.0Y-40.0
X9.0Y-46.0
X9.0Y-52.0
X9.0Y-55.0
X9.0Y-61.0
X9.0Y-67.0
X9.0Y-91.0
X9.0Y-94.0
X9.0Y-97.0
X12.0Y-4.0
X12.0Y-16.0
X12.0Y-19.0
X12.0Y-22.0
X12.0Y-25.0
X12.0Y-31.0
X12.0Y-37.0
X12.0Y-40.0
X12.0Y-46.0
X12.0Y-52.0
X12.0Y-55.0
X12.0Y-61.0
X12.0Y-67.0
X12.0Y-91.0
X15.0Y-4.0
X15.0Y-7.0
X15.0Y-10.0
X15.0Y-13.0
X15.0Y-16.0
X15.0Y-19.0
X15.0Y-22.0
X15.0Y-25.0
X15.0Y-31.0
X15.0Y-37.0
X15.0Y-40.0
X15.0Y-46.0
X15.0Y-52.0
X15.0Y-55.0
X15.0Y-61.0
X15.0Y-67.0
X15.0Y-91.0
X15.0Y-94.0
X15.0Y-97.0
X18.0Y-31.0
X18.0Y-46.0
X18.0Y-49.0
X18.0Y-52.0
X21.0Y-13.0
X21.0Y-16.0
X21.0Y-19.0
X21.0Y-22.0
X21.0Y-25.0
X21.0Y-28.0
X21.0Y-31.0
X21.0Y-40.0
X21.0Y-43.0
X21.0Y-46.0
X21.0Y-49.0
X21.0Y-52.0
X21.0Y-58.0
X21.0Y-61.0
X21.0Y-67.0
X21.0Y-70.0
X21.0Y-73.0
X21.0Y-76.0
X21.0Y-79.0
X21.0Y-82.0
X21.0Y-85.0
X24.0Y-4.0
X24.0Y-13.0
X24.0Y-16.0
X24.0Y-19.0
X24.0Y-49.0
X24.0Y-52.0
X24.0Y-82.0
X24.0Y-85.0
X24.0Y-97.0
X27.0Y-4.0
X27.0Y-13.0
X27.0Y-16.0
X27.0Y-19.0
X27.0Y-25.0
X27.0Y-31.0
X27.0Y-43.0
X27.0Y-58.0
X27.0Y-67.0
X27.0Y-76.0
X27.0Y-82.0
X27.0Y-85.0
X27.0Y-97.0
X30.0Y-4.0
X30.0Y-13.0
X30.0Y-16.0
X30.0Y-19.0
X30.0Y-31.0
X30.0Y-43.0
X30.0Y-58.0
X30.0Y-67.0
X30.0Y-82.0
X30.0Y-85.0
X30.0Y-97.0
X33.0Y-13.0
X33.0Y-16.0
X33.0Y-19.0
X33.0Y-25.0
X33.0Y-31.0
X33.0Y-34.0
X33.0Y-40.0
X33.0Y-43.0
X33.0Y-58.0
X33.0Y-61.0
X33.0Y-67.0
X33.0Y-76.0
X33.0Y-82.0
X33.0Y-85.0
X36.0Y-13.0
X36.0Y-16.0
X36.0Y-31.0
X36.0Y-49.0
X36.0Y-52.0
X36.0Y-67.0
X36.0Y-85.0
X39.0Y-4.0
X39.0Y-25.0
X39.0Y-49.0
X39.0Y-67.0
X39.0Y-76.0
X39.0Y-79.0
X39.0Y-97.0
X42.0Y-13.0
X42.0Y-16.0
X42.0Y-49.0
X42.0Y-85.0
X45.0Y-13.0
X45.0Y-49.0
X45.0Y-85.0
X48.0Y-13.0
X48.0Y-22.0
X48.0Y-25.0
X48.0Y-49.0
X51.0Y-13.0
X51.0Y-16.0
X51.0Y-19.0
X51.0Y-22.0
X51.0Y-25.0
X51.0Y-76.0
X51.0Y-79.0
X51.0Y-82.0
X51.0Y-85.0
X51.0Y-97.0
X54.0Y-4.0
X54.0Y-49.0
X54.0Y-52.0
X54.0Y-97.0
X57.0Y-4.0
X57.0Y-49.0
X57.0Y-52.0
X57.0Y-97.0
X60.0Y-4.0
X60.0Y-13.0
X60.0Y-16.0
X60.0Y-25.0
X60.0Y-28.0
X60.0Y-31.0
X60.0Y-40.0
X60.0Y-70.0
X60.0Y-73.0
X60.0Y-76.0
X60.0Y-85.0
X60.0Y-88.0
X60.0Y-97.0
X63.0Y-4.0
X63.0Y-13.0
X63.0Y-16.0
X63.0Y-25.0
X63.0Y-28.0
X63.0Y-31.0
X63.0Y-40.0
X63.0Y-70.0
X63.0Y-73.0
X63.0Y-76.0
X63.0Y-85.0
X63.0Y-88.0
X63.0Y-97.0
X66.0Y-4.0
X66.0Y-13.0
X66.0Y-16.0
X66.0Y-25.0
X66.0Y-28.0
X66.0Y-31.0
X66.0Y-40.0
X66.0Y-61.0
X66.0Y-67.0
X66.0Y-70.0
X66.0Y-73.0
X66.0Y-76.0
X66.0Y-85.0
X66.0Y-88.0
X66.0Y-97.0
X69.0Y-4.0
X69.0Y-13.0
X69.0Y-16.0
X69.0Y-19.0
X69.0Y-22.0
X69.0Y-25.0
X69.0Y-28.0
X69.0Y-31.0
X69.0Y-40.0
X69.0Y-61.0
X69.0Y-67.0
X69.0Y-70.0
X69.0Y-73.0
X69.0Y-76.0
X69.0Y-79.0
X69.0Y-82.0
X69.0Y-85.0
X69.0Y-88.0
X69.0Y-97.0
X72.0Y-4.0
X72.0Y-13.0
X72.0Y-16.0
X72.0Y-19.0
X72.0Y-22.0
X72.0Y-25.0
X72.0Y-28.0
X72.0Y-31.0
X72.0Y-40.0
X72.0Y-61.0
X72.0Y-67.0
X72.0Y-70.0
X72.0Y-73.0
X72.0Y-76.0
X72.0Y-79.0
X72.0Y-82.0
X72.0Y-85.0
X72.0Y-88.0
X72.0Y-97.0
X75.0Y-4.0
X75.0Y-13.0
X75.0Y-16.0
X75.0Y-19.0
X75.0Y-22.0
X75.0Y-25.0
X75.0Y-28.0
X75.0Y-31.0
X75.0Y-40.0
X75.0Y-46.0
X75.0Y-70.0
X75.0Y-73.0
X75.0Y-76.0
X75.0Y-79.0
X75.0Y-82.0
X75.0Y-85.0
X75.0Y-88.0
X75.0Y-97.0
X78.0Y-4.0
X78.0Y-13.0
X78.0Y-16.0
X78.0Y-19.0
X78.0Y-22.0
X78.0Y-25.0
X78.0Y-28.0
X78.0Y-46.0
X78.0Y-55.0
X78.0Y-73.0
X78.0Y-76.0
X78.0Y-79.0
X78.0Y-82.0
X78.0Y-85.0
X78.0Y-88.0
X78.0Y-97.0
X81.0Y-4.0
X81.0Y-13.0
X81.0Y-40.0
X81.0Y-43.0
X81.0Y-46.0
X81.0Y-49.0
X81.0Y-52.0
X81.0Y-55.0
X81.0Y-58.0
X81.0Y-88.0
X81.0Y-97.0
X84.0Y-4.0
X84.0Y-19.0
X84.0Y-22.0
X84.0Y-25.0
X84.0Y-28.0
X84.0Y-31.0
X84.0Y-40.0
X84.0Y-43.0
X84.0Y-46.0
X84.0Y-49.0
X84.0Y-52.0
X84.0Y-55.0
X84.0Y-58.0
X84.0Y-70.0
X84.0Y-73.0
X84.0Y-76.0
X84.0Y-79.0
X84.0Y-82.0
X84.0Y-97.0
X87.0Y-4.0
X87.0Y-19.0
X87.0Y-22.0
X87.0Y-25.0
X87.0Y-28.0
X87.0Y-31.0
X87.0Y-40.0
X87.0Y-43.0
X87.0Y-46.0
X87.0Y-49.0
X87.0Y-52.0
X87.0Y-55.0
X87.0Y-58.0
X87.0Y-61.0
X87.0Y-67.0
X87.0Y-70.0
X87.0Y-73.0
X87.0Y-76.0
X87.0Y-79.0
X87.0Y-82.0
X87.0Y-97.0
X90.0Y-4.0
X90.0Y-13.0
X90.0Y-19.0
X90.0Y-22.0
X90.0Y-25.0
X90.0Y-28.0
X90.0Y-31.0
X90.0Y-40.0
X90.0Y-43.0
X90.0Y-46.0
X90.0Y-49.0
X90.0Y-52.0
X90.0Y-55.0
X90.0Y-58.0
X90.0Y-61.0
X90.0Y-67.0
X90.0Y-70.0
X90.0Y-73.0
X90.0Y-76.0
X90.0Y-79.0
X90.0Y-82.0
X90.0Y-97.0
X93.0Y-4.0
X93.0Y-28.0
X93.0Y-31.0
X93.0Y-40.0
X93.0Y-43.0
X93.0Y-46.0
X93.0Y-49.0
X93.0Y-52.0
X93.0Y-55.0
X93.0Y-58.0
X93.0Y-61.0
X93.0Y-67.0
X93.0Y-70.0
X93.0Y-73.0
X93.0Y-97.0
X96.0Y-1.7
X96.0Y-28.0
X96.0Y-43.0
X96.0Y-46.0
X96.0Y-49.0
X96.0Y-52.0
X96.0Y-55.0
X96.0Y-73.0
X96.0Y-98.3
X96.26Y-5.245
X96.26Y-10.755
X96.26Y-33.245
X96.26Y-38.755
X96.26Y-61.245
X96.26Y-66.755
X96.26Y-89.245
X96.26Y-94.755
X97.53Y-5.245
X97.53Y-10.755
X97.53Y-33.245
X97.53Y-38.755
X97.53Y-61.245
X97.53Y-66.755
X97.53Y-89.245
X97.53Y-94.755
X97.6Y-1.9
X97.6Y-98.1
X98.8Y-2.4
X98.8Y-5.245
X98.8Y-10.755
X98.8Y-33.245
X98.8Y-38.755
X98.8Y-61.245
X98.8Y-66.755
X98.8Y-89.245
X98.8Y-94.755
X98.8Y-97.6
T5
X61.11Y-48.73
X61.11Y-51.27
X63.65Y-48.73
X63.65Y-51.27
X66.19Y-48.73
X66.19Y-51.27
X68.73Y-48.73
X68.73Y-51.27
X71.27Y-48.73
X71.27Y-51.27
X73.81Y-48.73
X73.81Y-51.27
X76.35Y-48.73
X76.35Y-51.27
X78.89Y-48.73
X78.89Y-51.27
T6
X10.0Y-10.0
X19.5Y-3.5
X19.5Y-96.5
X30.0Y-50.0
X44.0Y-3.5
X44.0Y-96.5
X95.5Y-21.0
X95.5Y-79.0
M30
