%TF.GenerationSoftware,KiCad,Pcbnew,10.0.5*%
%TF.CreationDate,2026-08-09T20:16:12+01:00*%
%TF.ProjectId,radar_5g8_fe,72616461-725f-4356-9738-5f66652e6b69,rev?*%
%TF.SameCoordinates,Original*%
%TF.FileFunction,Copper,L2,Inr*%
%TF.FilePolarity,Positive*%
%FSLAX46Y46*%
G04 Gerber Fmt 4.6, Leading zero omitted, Abs format (unit mm)*
G04 Created by KiCad (PCBNEW 10.0.5) date 2026-08-09 20:16:12*
%MOMM*%
%LPD*%
G01*
G04 APERTURE LIST*
%TA.AperFunction,ComponentPad*%
%ADD10C,6.000000*%
%TD*%
%TA.AperFunction,ComponentPad*%
%ADD11C,1.700000*%
%TD*%
%TA.AperFunction,ViaPad*%
%ADD12C,0.600000*%
%TD*%
%TA.AperFunction,ViaPad*%
%ADD13C,0.520000*%
%TD*%
%TA.AperFunction,ViaPad*%
%ADD14C,0.750000*%
%TD*%
%TA.AperFunction,ViaPad*%
%ADD15C,0.550000*%
%TD*%
%TA.AperFunction,ViaPad*%
%ADD16C,0.500000*%
%TD*%
%TA.AperFunction,ViaPad*%
%ADD17C,0.650000*%
%TD*%
G04 APERTURE END LIST*
D10*
%TO.N,GND*%
%TO.C,H95_79*%
X95500000Y-21000000D03*
%TD*%
%TO.N,GND*%
%TO.C,H19_96*%
X19500000Y-3500000D03*
%TD*%
%TO.N,GND*%
%TO.C,H44_3*%
X44000000Y-96500000D03*
%TD*%
%TO.N,GND*%
%TO.C,H10_90*%
X10000000Y-10000000D03*
%TD*%
%TO.N,GND*%
%TO.C,H30_50*%
X30000000Y-50000000D03*
%TD*%
D11*
%TO.N,GND*%
%TO.C,J5*%
X61110000Y-48730000D03*
%TO.N,DETD*%
X63650000Y-48730000D03*
%TO.N,IMONB*%
X66190000Y-48730000D03*
%TO.N,TEMPB*%
X68730000Y-48730000D03*
%TO.N,DETB*%
X71270000Y-48730000D03*
%TO.N,GND*%
X73810000Y-48730000D03*
X76350000Y-48730000D03*
X78890000Y-48730000D03*
X61110000Y-51270000D03*
%TO.N,EN*%
X63650000Y-51270000D03*
%TO.N,DETC*%
X66190000Y-51270000D03*
%TO.N,IMONA*%
X68730000Y-51270000D03*
%TO.N,TEMPA*%
X71270000Y-51270000D03*
%TO.N,DETA*%
X73810000Y-51270000D03*
%TO.N,GND*%
X76350000Y-51270000D03*
X78890000Y-51270000D03*
%TD*%
D10*
%TO.N,GND*%
%TO.C,H44_96*%
X44000000Y-3500000D03*
%TD*%
%TO.N,GND*%
%TO.C,H19_3*%
X19500000Y-96500000D03*
%TD*%
%TO.N,GND*%
%TO.C,H95_21*%
X95500000Y-79000000D03*
%TD*%
D12*
%TO.N,DETA*%
X82126001Y-84226138D03*
%TO.N,DETB*%
X82126001Y-15773861D03*
%TO.N,DETC*%
X36254709Y-57726138D03*
%TO.N,DETD*%
X36254709Y-42273861D03*
%TO.N,EN*%
X2600000Y-84000000D03*
X6550000Y-79190000D03*
D13*
%TO.N,GND*%
X52620000Y-94480000D03*
D14*
X72000000Y-61000000D03*
X12000000Y-22000000D03*
X3000000Y-13000000D03*
X78000000Y-85000000D03*
X97530000Y-66754864D03*
D15*
X61700000Y-20574152D03*
D14*
X69000000Y-4000000D03*
D13*
X57020000Y-61520000D03*
D14*
X33000000Y-25000000D03*
X3740000Y-60254864D03*
X72000000Y-28000000D03*
X87000000Y-97000000D03*
X75000000Y-22000000D03*
X9000000Y-31000000D03*
D13*
X58260000Y-37240000D03*
D14*
X96259999Y-66754864D03*
X18000000Y-52000000D03*
D15*
X59470000Y-18424152D03*
D14*
X15000000Y-46000000D03*
X42000000Y-85000000D03*
X21000000Y-31000000D03*
D16*
X58900000Y-36000000D03*
D13*
X58260000Y-65240000D03*
D14*
X96000000Y-52000000D03*
X93000000Y-46000000D03*
D16*
X60100000Y-36000000D03*
D14*
X9000000Y-22000000D03*
X6000000Y-55000000D03*
D13*
X57020000Y-34140000D03*
D16*
X59500000Y-36600000D03*
D14*
X97530000Y-10754864D03*
X78000000Y-13000000D03*
D13*
X54480000Y-9860000D03*
D16*
X34550000Y-93287500D03*
D14*
X15000000Y-22000000D03*
X63000000Y-40000000D03*
D15*
X81995736Y-32637064D03*
D13*
X58880000Y-33519999D03*
D14*
X66000000Y-31000000D03*
D15*
X53170000Y-46424152D03*
D14*
X66000000Y-40000000D03*
X75000000Y-4000000D03*
X1200000Y-69745135D03*
X90000000Y-52000000D03*
X93000000Y-97000000D03*
X87000000Y-67000000D03*
D16*
X52000000Y-92600000D03*
D14*
X33000000Y-43000000D03*
D16*
X58900000Y-64599999D03*
D13*
X60120000Y-61520000D03*
D15*
X35150000Y-76350000D03*
D14*
X84000000Y-22000000D03*
D15*
X11300000Y-87150000D03*
D14*
X72000000Y-88000000D03*
X72000000Y-85000000D03*
X24000000Y-19000000D03*
X97530000Y-61245135D03*
X33000000Y-40000000D03*
X54000000Y-97000000D03*
D16*
X34000000Y-5062500D03*
X51400000Y-8599999D03*
D14*
X33000000Y-34000000D03*
D15*
X11150000Y-83300000D03*
D14*
X60000000Y-85000000D03*
X6000000Y-61000000D03*
X21000000Y-70000000D03*
D15*
X40339709Y-41103861D03*
D14*
X98800000Y-94754864D03*
X51000000Y-76000000D03*
X6000000Y-4000000D03*
D15*
X20100000Y-90830000D03*
D14*
X75000000Y-79000000D03*
X15000000Y-25000000D03*
D13*
X59500000Y-37860000D03*
X51380000Y-94480000D03*
D14*
X9000000Y-67000000D03*
D13*
X52620000Y-9239999D03*
D14*
X84000000Y-73000000D03*
D13*
X58260000Y-62760000D03*
D14*
X6000000Y-37000000D03*
D13*
X54480000Y-10480000D03*
D14*
X87000000Y-31000000D03*
X78000000Y-73000000D03*
X84000000Y-52000000D03*
X69000000Y-19000000D03*
D15*
X45550000Y-17104152D03*
D14*
X69000000Y-85000000D03*
X78000000Y-97000000D03*
X87000000Y-43000000D03*
D13*
X60740000Y-66479999D03*
D14*
X69000000Y-22000000D03*
D13*
X49520000Y-94480000D03*
D14*
X12000000Y-40000000D03*
X12000000Y-25000000D03*
D15*
X81995736Y-67362935D03*
D14*
X54000000Y-52000000D03*
X97530000Y-33245135D03*
X63000000Y-13000000D03*
D13*
X57020000Y-62760000D03*
X58880000Y-34760000D03*
D14*
X9000000Y-97000000D03*
D15*
X35900000Y-62830000D03*
X20100000Y-9170000D03*
D14*
X21000000Y-67000000D03*
X87000000Y-19000000D03*
D13*
X58880000Y-65240000D03*
X61980000Y-37240000D03*
D14*
X21000000Y-49000000D03*
D13*
X49520000Y-90760000D03*
D14*
X51000000Y-13000000D03*
X75000000Y-82000000D03*
D13*
X58880000Y-38480000D03*
D14*
X78000000Y-22000000D03*
D13*
X61360000Y-37860000D03*
D14*
X60000000Y-88000000D03*
X57000000Y-52000000D03*
D15*
X38730000Y-18424152D03*
D14*
X84000000Y-70000000D03*
D13*
X50760000Y-94480000D03*
X52620000Y-5519999D03*
D14*
X60000000Y-73000000D03*
X63000000Y-25000000D03*
X93000000Y-31000000D03*
X12000000Y-4000000D03*
D13*
X49520000Y-9239999D03*
D14*
X72000000Y-97000000D03*
X21000000Y-40000000D03*
D15*
X67149999Y-78295847D03*
D14*
X78000000Y-76000000D03*
X42000000Y-49000000D03*
X69000000Y-70000000D03*
X24000000Y-4000000D03*
D13*
X60740000Y-35379999D03*
D14*
X69000000Y-40000000D03*
D15*
X26200000Y-39200000D03*
D14*
X87000000Y-40000000D03*
D16*
X59500000Y-64599999D03*
D14*
X2469999Y-54745135D03*
X6000000Y-52000000D03*
D15*
X55750000Y-10429999D03*
D14*
X9000000Y-37000000D03*
X21000000Y-73000000D03*
X96000000Y-73000000D03*
X21000000Y-82000000D03*
D15*
X23900000Y-9170000D03*
D14*
X51000000Y-19000000D03*
D15*
X60000000Y-20574152D03*
D14*
X21000000Y-13000000D03*
X75000000Y-19000000D03*
X27000000Y-76000000D03*
X24000000Y-85000000D03*
D13*
X53240000Y-91380000D03*
D14*
X15000000Y-91000000D03*
X93000000Y-28000000D03*
X66000000Y-97000000D03*
X39000000Y-4000000D03*
D13*
X53240000Y-7379999D03*
D14*
X9000000Y-4000000D03*
X81000000Y-46000000D03*
X90000000Y-70000000D03*
X97530000Y-5245135D03*
D16*
X60100000Y-63400000D03*
D14*
X60000000Y-16000000D03*
X81000000Y-4000000D03*
X3740000Y-39745135D03*
X97530000Y-38754864D03*
X30000000Y-67000000D03*
X78000000Y-46000000D03*
D13*
X59500000Y-62140000D03*
D14*
X3740000Y-30254864D03*
X21000000Y-58000000D03*
X21000000Y-28000000D03*
X69000000Y-97000000D03*
X87000000Y-61000000D03*
X2469999Y-39745135D03*
X66000000Y-76000000D03*
D16*
X34550000Y-6712499D03*
D13*
X54480000Y-9239999D03*
X54480000Y-93860000D03*
D15*
X43300000Y-79425847D03*
D14*
X12000000Y-61000000D03*
X27000000Y-67000000D03*
X78000000Y-55000000D03*
D16*
X59500000Y-64000000D03*
D14*
X75000000Y-13000000D03*
X63000000Y-70000000D03*
X69000000Y-82000000D03*
D15*
X87911001Y-14603861D03*
D14*
X96259999Y-38754864D03*
D13*
X54480000Y-89520000D03*
D16*
X58900000Y-63400000D03*
D14*
X30000000Y-43000000D03*
X87000000Y-52000000D03*
D13*
X58260000Y-66479999D03*
D14*
X9000000Y-61000000D03*
X2469999Y-30254864D03*
D15*
X86541292Y-87626138D03*
D13*
X61360000Y-34760000D03*
D14*
X18000000Y-46000000D03*
D13*
X53860000Y-90140000D03*
D14*
X2469999Y-24745135D03*
D13*
X61980000Y-66479999D03*
D16*
X34550000Y-5612499D03*
D14*
X1200000Y-75254864D03*
D13*
X51380000Y-93860000D03*
D14*
X21000000Y-43000000D03*
X69000000Y-13000000D03*
D13*
X57020000Y-65240000D03*
X58880000Y-37240000D03*
D14*
X72000000Y-40000000D03*
D13*
X51380000Y-9239999D03*
D14*
X72000000Y-25000000D03*
D15*
X41400000Y-53765847D03*
D16*
X51400000Y-91400000D03*
D14*
X90000000Y-13000000D03*
X69000000Y-88000000D03*
X81000000Y-58000000D03*
X39000000Y-49000000D03*
D13*
X58260000Y-35379999D03*
D14*
X75000000Y-97000000D03*
D16*
X34550000Y-4512500D03*
D14*
X93000000Y-43000000D03*
X33000000Y-61000000D03*
X75000000Y-25000000D03*
D13*
X57020000Y-38480000D03*
D15*
X32100000Y-62830000D03*
D14*
X90000000Y-4000000D03*
X81000000Y-40000000D03*
D13*
X51380000Y-10480000D03*
D14*
X66000000Y-67000000D03*
D15*
X60000000Y-79425847D03*
D14*
X93000000Y-58000000D03*
X15000000Y-94000000D03*
X78000000Y-16000000D03*
X15000000Y-10000000D03*
D13*
X58880000Y-66479999D03*
D15*
X23900000Y-90830000D03*
D16*
X52000000Y-7400000D03*
D14*
X15000000Y-40000000D03*
D13*
X58880000Y-34140000D03*
D14*
X81000000Y-49000000D03*
D15*
X38730000Y-81575847D03*
D14*
X87000000Y-22000000D03*
X63000000Y-97000000D03*
X36000000Y-31000000D03*
X90000000Y-58000000D03*
X6000000Y-67000000D03*
X27000000Y-43000000D03*
X81000000Y-13000000D03*
X87000000Y-55000000D03*
X33000000Y-58000000D03*
X15000000Y-4000000D03*
X36000000Y-13000000D03*
X33000000Y-82000000D03*
X51000000Y-82000000D03*
X66000000Y-13000000D03*
X96000000Y-46000000D03*
X48000000Y-13000000D03*
X36000000Y-67000000D03*
X87000000Y-28000000D03*
X6000000Y-46000000D03*
X1200000Y-60254864D03*
X93000000Y-49000000D03*
X84000000Y-76000000D03*
X60000000Y-4000000D03*
D15*
X42039709Y-41103861D03*
D14*
X27000000Y-16000000D03*
D15*
X47250000Y-17104152D03*
X86211001Y-85396138D03*
D14*
X84000000Y-43000000D03*
X3740000Y-24745135D03*
D16*
X52000000Y-91400000D03*
D14*
X15000000Y-13000000D03*
X3000000Y-19000000D03*
D13*
X53240000Y-9860000D03*
D14*
X2469999Y-69745135D03*
D15*
X48994709Y-42273861D03*
D16*
X52600000Y-8599999D03*
D14*
X63000000Y-16000000D03*
D13*
X60740000Y-38480000D03*
D14*
X21000000Y-76000000D03*
X93000000Y-52000000D03*
D13*
X57020000Y-37240000D03*
D14*
X60000000Y-70000000D03*
D15*
X65450000Y-78295847D03*
D14*
X24000000Y-52000000D03*
X39000000Y-79000000D03*
X12000000Y-16000000D03*
X75000000Y-46000000D03*
X66000000Y-4000000D03*
X51000000Y-16000000D03*
X63000000Y-76000000D03*
X90000000Y-73000000D03*
D16*
X59500000Y-36000000D03*
D14*
X90000000Y-76000000D03*
X84000000Y-19000000D03*
X75000000Y-16000000D03*
D16*
X60100000Y-36600000D03*
D13*
X52620000Y-9860000D03*
D14*
X9000000Y-94000000D03*
X1200000Y-39745135D03*
D13*
X53860000Y-93240000D03*
X60740000Y-37240000D03*
D14*
X6000000Y-40000000D03*
D13*
X50760000Y-10480000D03*
D16*
X52600000Y-92600000D03*
D14*
X27000000Y-4000000D03*
D13*
X60740000Y-65240000D03*
D14*
X2469999Y-75254864D03*
X63000000Y-88000000D03*
D13*
X57020000Y-34760000D03*
D14*
X72000000Y-13000000D03*
X60000000Y-76000000D03*
X96259999Y-94754864D03*
D13*
X57640000Y-62140000D03*
X53240000Y-89520000D03*
D16*
X78136106Y-36500000D03*
D15*
X48994709Y-57726138D03*
D13*
X49520000Y-93860000D03*
D16*
X33450000Y-4512500D03*
D13*
X52620000Y-90760000D03*
D14*
X15000000Y-67000000D03*
X3740000Y-69745135D03*
X3740000Y-75254864D03*
X36000000Y-52000000D03*
D13*
X60120000Y-65240000D03*
D14*
X75000000Y-70000000D03*
X1200000Y-24745135D03*
D13*
X50760000Y-7379999D03*
X60120000Y-38480000D03*
X60120000Y-33519999D03*
D14*
X45000000Y-85000000D03*
X84000000Y-25000000D03*
X3000000Y-16000000D03*
X15000000Y-37000000D03*
D15*
X35830000Y-40373861D03*
D13*
X58260000Y-38480000D03*
X49520000Y-5519999D03*
D14*
X87000000Y-25000000D03*
X51000000Y-85000000D03*
D16*
X51400000Y-7400000D03*
D14*
X75000000Y-31000000D03*
D15*
X41600000Y-79425847D03*
D14*
X84000000Y-46000000D03*
X42000000Y-16000000D03*
X15000000Y-61000000D03*
X98800000Y-10754864D03*
X27000000Y-13000000D03*
X72000000Y-79000000D03*
X6000000Y-25000000D03*
X87000000Y-4000000D03*
X54000000Y-4000000D03*
D16*
X34550000Y-95487500D03*
X33450000Y-95487500D03*
D14*
X27000000Y-19000000D03*
X60000000Y-13000000D03*
X84000000Y-49000000D03*
X57000000Y-97000000D03*
X63000000Y-31000000D03*
D13*
X54480000Y-6140000D03*
X50760000Y-93860000D03*
D14*
X96000000Y-28000000D03*
D13*
X60120000Y-62760000D03*
D16*
X52000000Y-8599999D03*
D14*
X12000000Y-52000000D03*
X30000000Y-4000000D03*
X72000000Y-76000000D03*
X36000000Y-49000000D03*
D15*
X94866001Y-84226138D03*
X12850000Y-83300000D03*
X53170000Y-53575847D03*
D14*
X69000000Y-73000000D03*
D16*
X34550000Y-94387500D03*
D14*
X78000000Y-82000000D03*
X21000000Y-61000000D03*
X96259999Y-89245135D03*
X30000000Y-19000000D03*
X75000000Y-88000000D03*
X66000000Y-61000000D03*
X24000000Y-13000000D03*
X66000000Y-25000000D03*
X72000000Y-82000000D03*
X69000000Y-76000000D03*
X96000000Y-49000000D03*
D15*
X9850000Y-83300000D03*
D14*
X69000000Y-67000000D03*
X2469999Y-60254864D03*
D13*
X50760000Y-92620000D03*
D14*
X78000000Y-28000000D03*
X3740000Y-54745135D03*
X9000000Y-16000000D03*
D16*
X58900000Y-64000000D03*
X33450000Y-5612499D03*
D14*
X2469999Y-45254864D03*
X75000000Y-40000000D03*
D15*
X45550000Y-82895847D03*
D14*
X1200000Y-54745135D03*
X60000000Y-40000000D03*
X60000000Y-28000000D03*
X84000000Y-4000000D03*
X90000000Y-67000000D03*
X21000000Y-19000000D03*
D13*
X58260000Y-61520000D03*
D14*
X98800000Y-38754864D03*
X27000000Y-25000000D03*
X66000000Y-73000000D03*
D16*
X34000000Y-94937500D03*
D14*
X93000000Y-67000000D03*
X87000000Y-70000000D03*
X96000000Y-43000000D03*
X75000000Y-28000000D03*
X66000000Y-70000000D03*
D13*
X54480000Y-94480000D03*
D14*
X33000000Y-76000000D03*
X12000000Y-19000000D03*
X78000000Y-79000000D03*
D13*
X57020000Y-33519999D03*
D15*
X67149999Y-21704152D03*
X65450000Y-21704152D03*
X42039709Y-58896138D03*
D14*
X98800000Y-66754864D03*
X66000000Y-28000000D03*
X21000000Y-16000000D03*
X81000000Y-97000000D03*
D16*
X78136106Y-35500000D03*
D15*
X87911001Y-85396138D03*
D13*
X53240000Y-90760000D03*
D14*
X33000000Y-85000000D03*
X57000000Y-4000000D03*
X84000000Y-40000000D03*
X21000000Y-46000000D03*
X69000000Y-25000000D03*
X33000000Y-31000000D03*
D13*
X60740000Y-64620000D03*
D15*
X41600000Y-20574152D03*
D14*
X90000000Y-40000000D03*
X15000000Y-52000000D03*
X81000000Y-55000000D03*
D13*
X50140000Y-90140000D03*
D14*
X12000000Y-91000000D03*
D16*
X60100000Y-64599999D03*
D14*
X93000000Y-61000000D03*
D13*
X58880000Y-62760000D03*
X60740000Y-34140000D03*
D14*
X72000000Y-70000000D03*
X33000000Y-13000000D03*
X72000000Y-31000000D03*
X1200000Y-30254864D03*
X90000000Y-46000000D03*
X96259999Y-33245135D03*
D13*
X60740000Y-61520000D03*
D14*
X51000000Y-97000000D03*
X30000000Y-31000000D03*
D15*
X36850000Y-23650000D03*
X43100000Y-46234152D03*
D14*
X60000000Y-97000000D03*
D15*
X28800000Y-60800000D03*
D14*
X9000000Y-40000000D03*
X81000000Y-43000000D03*
D13*
X61980000Y-62760000D03*
X49520000Y-6140000D03*
X49520000Y-9860000D03*
D14*
X27000000Y-82000000D03*
X81000000Y-52000000D03*
D13*
X60740000Y-62760000D03*
D14*
X66000000Y-85000000D03*
D15*
X35150000Y-23650000D03*
D14*
X84000000Y-82000000D03*
X45000000Y-13000000D03*
X39000000Y-97000000D03*
D16*
X33450000Y-93287500D03*
D14*
X98800000Y-33245135D03*
D13*
X53860000Y-6760000D03*
D14*
X15000000Y-7000000D03*
X30000000Y-85000000D03*
D13*
X57640000Y-37860000D03*
D14*
X9000000Y-25000000D03*
D13*
X49520000Y-6760000D03*
D14*
X90000000Y-22000000D03*
D15*
X43300000Y-20574152D03*
D13*
X57020000Y-66479999D03*
D16*
X59500000Y-63400000D03*
D13*
X60120000Y-37240000D03*
D16*
X33450000Y-94387500D03*
D14*
X27000000Y-97000000D03*
X90000000Y-61000000D03*
X60000000Y-31000000D03*
D13*
X60740000Y-36620000D03*
D14*
X72000000Y-67000000D03*
X87000000Y-76000000D03*
X84000000Y-28000000D03*
D16*
X60100000Y-64000000D03*
D14*
X69000000Y-61000000D03*
X84000000Y-31000000D03*
X33000000Y-19000000D03*
D13*
X52620000Y-6140000D03*
D14*
X45000000Y-49000000D03*
X72000000Y-16000000D03*
X30000000Y-97000000D03*
D15*
X61700000Y-79425847D03*
D14*
X30000000Y-13000000D03*
X24000000Y-49000000D03*
D13*
X58260000Y-64620000D03*
X58260000Y-36620000D03*
D14*
X78000000Y-25000000D03*
D13*
X61360000Y-65860000D03*
D15*
X14500000Y-82170000D03*
X47250000Y-82895847D03*
D13*
X59500000Y-65860000D03*
D14*
X84000000Y-97000000D03*
X75000000Y-73000000D03*
X36000000Y-16000000D03*
X98800000Y-89245135D03*
X9000000Y-55000000D03*
X96000000Y-55000000D03*
X93000000Y-70000000D03*
X78000000Y-4000000D03*
X30000000Y-82000000D03*
X12000000Y-31000000D03*
D13*
X53240000Y-93860000D03*
D14*
X15000000Y-19000000D03*
D13*
X52620000Y-6760000D03*
D14*
X51000000Y-25000000D03*
X93000000Y-73000000D03*
X21000000Y-79000000D03*
X21000000Y-22000000D03*
X90000000Y-82000000D03*
D15*
X86541292Y-12373861D03*
D13*
X52000000Y-93240000D03*
X49520000Y-10480000D03*
D14*
X96259999Y-10754864D03*
X6000000Y-16000000D03*
D15*
X55750000Y-89570000D03*
D14*
X15000000Y-16000000D03*
X57000000Y-49000000D03*
D13*
X60120000Y-66479999D03*
D14*
X3000000Y-97000000D03*
X90000000Y-49000000D03*
D15*
X36850000Y-76350000D03*
D14*
X72000000Y-19000000D03*
D15*
X1430000Y-84000000D03*
X26200000Y-60800000D03*
D13*
X57640000Y-65860000D03*
X52620000Y-89520000D03*
X54480000Y-90760000D03*
X53240000Y-10480000D03*
X61980000Y-61520000D03*
D14*
X87000000Y-49000000D03*
D16*
X51400000Y-92600000D03*
D14*
X78000000Y-88000000D03*
D13*
X61980000Y-65240000D03*
D14*
X87000000Y-58000000D03*
X84000000Y-79000000D03*
X6000000Y-19000000D03*
X18000000Y-31000000D03*
X69000000Y-16000000D03*
X9000000Y-52000000D03*
D15*
X8150000Y-83300000D03*
D13*
X61980000Y-34140000D03*
X50760000Y-91380000D03*
D15*
X59470000Y-81575847D03*
D14*
X98800000Y-5245135D03*
X24000000Y-82000000D03*
X69000000Y-28000000D03*
X63000000Y-4000000D03*
X48000000Y-25000000D03*
X6000000Y-31000000D03*
D13*
X49520000Y-89520000D03*
D14*
X27000000Y-85000000D03*
D16*
X34000000Y-93837500D03*
D13*
X50760000Y-9860000D03*
D16*
X78136106Y-64500000D03*
D14*
X72000000Y-73000000D03*
X66000000Y-88000000D03*
X51000000Y-22000000D03*
X33000000Y-16000000D03*
D15*
X40339709Y-58896138D03*
D13*
X52620000Y-93860000D03*
D14*
X1200000Y-45254864D03*
X84000000Y-58000000D03*
X93000000Y-55000000D03*
X90000000Y-55000000D03*
X33000000Y-67000000D03*
X90000000Y-25000000D03*
D15*
X38639709Y-41103861D03*
D14*
X69000000Y-79000000D03*
X51000000Y-79000000D03*
X90000000Y-97000000D03*
X30000000Y-16000000D03*
D13*
X58880000Y-61520000D03*
D14*
X39000000Y-67000000D03*
D13*
X51380000Y-9860000D03*
D14*
X75000000Y-76000000D03*
D13*
X53240000Y-9239999D03*
X60120000Y-34140000D03*
D14*
X69000000Y-31000000D03*
D16*
X52600000Y-91400000D03*
D14*
X12000000Y-46000000D03*
X96259999Y-5245135D03*
X90000000Y-31000000D03*
D15*
X84511001Y-14603861D03*
D14*
X90000000Y-43000000D03*
D13*
X60740000Y-63380000D03*
X50760000Y-9239999D03*
D15*
X11300000Y-88850000D03*
D14*
X21000000Y-52000000D03*
X39000000Y-25000000D03*
X90000000Y-79000000D03*
D15*
X84511001Y-85396138D03*
D14*
X3000000Y-10000000D03*
X63000000Y-85000000D03*
X93000000Y-4000000D03*
D13*
X53240000Y-5519999D03*
D16*
X78136106Y-63500000D03*
D14*
X15000000Y-97000000D03*
D13*
X60120000Y-34760000D03*
D14*
X87000000Y-46000000D03*
D13*
X50760000Y-90760000D03*
D16*
X33450000Y-6712499D03*
D13*
X58260000Y-33519999D03*
D14*
X21000000Y-85000000D03*
X87000000Y-79000000D03*
D13*
X61980000Y-33519999D03*
X52620000Y-10480000D03*
D14*
X27000000Y-58000000D03*
D16*
X58900000Y-36600000D03*
D14*
X66000000Y-16000000D03*
D15*
X86211001Y-14603861D03*
D13*
X53240000Y-94480000D03*
D14*
X12000000Y-37000000D03*
X97530000Y-89245135D03*
X96259999Y-61245135D03*
X84000000Y-55000000D03*
X36000000Y-85000000D03*
X97530000Y-94754864D03*
X81000000Y-88000000D03*
X30000000Y-58000000D03*
D15*
X38639709Y-58896138D03*
D14*
X90000000Y-28000000D03*
X15000000Y-31000000D03*
D15*
X32100000Y-37170000D03*
X41400000Y-46234152D03*
D14*
X87000000Y-73000000D03*
X9000000Y-19000000D03*
D13*
X58260000Y-34140000D03*
D14*
X39000000Y-76000000D03*
D15*
X28800000Y-39200000D03*
D14*
X72000000Y-4000000D03*
X3000000Y-4000000D03*
D13*
X61360000Y-62140000D03*
D14*
X3000000Y-7000000D03*
X75000000Y-85000000D03*
D13*
X58260000Y-63380000D03*
D14*
X3000000Y-94000000D03*
X12000000Y-55000000D03*
X78000000Y-19000000D03*
X27000000Y-31000000D03*
D13*
X60740000Y-33519999D03*
D14*
X21000000Y-25000000D03*
X87000000Y-82000000D03*
D13*
X61980000Y-38480000D03*
D15*
X94866001Y-15773861D03*
D13*
X53240000Y-6140000D03*
D14*
X42000000Y-13000000D03*
X18000000Y-49000000D03*
X93000000Y-40000000D03*
X6000000Y-22000000D03*
X72000000Y-22000000D03*
D13*
X54480000Y-5519999D03*
D14*
X90000000Y-19000000D03*
X98800000Y-61245135D03*
X9000000Y-46000000D03*
X15000000Y-55000000D03*
X24000000Y-16000000D03*
X60000000Y-25000000D03*
D16*
X34000000Y-6162499D03*
D14*
X63000000Y-73000000D03*
X3740000Y-45254864D03*
X63000000Y-28000000D03*
D15*
X35830000Y-59626138D03*
D14*
X54000000Y-49000000D03*
D16*
X52600000Y-7400000D03*
D14*
X12000000Y-67000000D03*
D15*
X43100000Y-53765847D03*
D13*
X50140000Y-93240000D03*
D14*
X9000000Y-91000000D03*
D15*
X35900000Y-37170000D03*
D14*
X48000000Y-49000000D03*
X24000000Y-97000000D03*
X48000000Y-22000000D03*
D13*
X53240000Y-92620000D03*
D12*
%TO.N,IMONA*%
X45140000Y-77450000D03*
%TO.N,IMONB*%
X45140000Y-22549999D03*
%TO.N,TEMPA*%
X55750000Y-88400000D03*
%TO.N,TEMPB*%
X55750000Y-11599999D03*
D17*
%TO.N,V12*%
X51075000Y-69800000D03*
D12*
X16399999Y-81000000D03*
D17*
X51925000Y-30200000D03*
D12*
X48200000Y-72000000D03*
X15600000Y-81000000D03*
X49000000Y-72000000D03*
D17*
X51925000Y-69800000D03*
X51075000Y-30200000D03*
%TO.N,V5A*%
X23075000Y-62000000D03*
X23925000Y-66000000D03*
X23925000Y-62000000D03*
X23075000Y-66000000D03*
%TO.N,V5B*%
X23925000Y-34000000D03*
X23075000Y-34000000D03*
X23075000Y-38000000D03*
X23925000Y-38000000D03*
%TD*%
%TA.AperFunction,Conductor*%
%TO.N,GND*%
G36*
X97003614Y-250355D02*
G01*
X97529249Y-302126D01*
X97543466Y-304953D01*
X98045407Y-457216D01*
X98058809Y-462768D01*
X98521388Y-710021D01*
X98533450Y-718080D01*
X98938908Y-1050832D01*
X98949166Y-1061090D01*
X99281918Y-1466548D01*
X99289977Y-1478610D01*
X99537230Y-1941189D01*
X99542782Y-1954591D01*
X99695043Y-2456527D01*
X99697873Y-2470755D01*
X99749644Y-2996385D01*
X99750000Y-3003638D01*
X99750000Y-96996361D01*
X99749644Y-97003614D01*
X99697873Y-97529243D01*
X99695043Y-97543471D01*
X99542782Y-98045407D01*
X99537230Y-98058809D01*
X99289977Y-98521388D01*
X99281918Y-98533450D01*
X98949166Y-98938908D01*
X98938908Y-98949166D01*
X98533450Y-99281918D01*
X98521388Y-99289977D01*
X98058809Y-99537230D01*
X98045407Y-99542782D01*
X97543471Y-99695043D01*
X97529243Y-99697873D01*
X97003614Y-99749644D01*
X96996361Y-99750000D01*
X3003638Y-99750000D01*
X2996385Y-99749644D01*
X2470755Y-99697873D01*
X2456527Y-99695043D01*
X1954591Y-99542782D01*
X1941189Y-99537230D01*
X1478610Y-99289977D01*
X1466548Y-99281918D01*
X1061090Y-98949166D01*
X1050832Y-98938908D01*
X718080Y-98533450D01*
X710021Y-98521388D01*
X462768Y-98058809D01*
X457216Y-98045407D01*
X304953Y-97543466D01*
X302126Y-97529249D01*
X250356Y-97003614D01*
X250000Y-96996361D01*
X250000Y-88327522D01*
X55199500Y-88327522D01*
X55199500Y-88472477D01*
X55237014Y-88612481D01*
X55237016Y-88612486D01*
X55309491Y-88738015D01*
X55411985Y-88840509D01*
X55537515Y-88912984D01*
X55537516Y-88912984D01*
X55537518Y-88912985D01*
X55607520Y-88931742D01*
X55677522Y-88950499D01*
X55677523Y-88950500D01*
X55677525Y-88950500D01*
X55822477Y-88950500D01*
X55822477Y-88950499D01*
X55962485Y-88912984D01*
X56088015Y-88840509D01*
X56190509Y-88738015D01*
X56262984Y-88612485D01*
X56300499Y-88472477D01*
X56300500Y-88472477D01*
X56300500Y-88327523D01*
X56300499Y-88327522D01*
X56262985Y-88187518D01*
X56262983Y-88187513D01*
X56190508Y-88061984D01*
X56088015Y-87959491D01*
X55962486Y-87887016D01*
X55962481Y-87887014D01*
X55822477Y-87849500D01*
X55822475Y-87849500D01*
X55677525Y-87849500D01*
X55677523Y-87849500D01*
X55537518Y-87887014D01*
X55537513Y-87887016D01*
X55411984Y-87959491D01*
X55309491Y-88061984D01*
X55237016Y-88187513D01*
X55237014Y-88187518D01*
X55199500Y-88327522D01*
X250000Y-88327522D01*
X250000Y-83927522D01*
X2049500Y-83927522D01*
X2049500Y-84072477D01*
X2087014Y-84212481D01*
X2087016Y-84212486D01*
X2136742Y-84298613D01*
X2159491Y-84338015D01*
X2261985Y-84440509D01*
X2387515Y-84512984D01*
X2387516Y-84512984D01*
X2387518Y-84512985D01*
X2457520Y-84531742D01*
X2527522Y-84550499D01*
X2527523Y-84550500D01*
X2527525Y-84550500D01*
X2672477Y-84550500D01*
X2672477Y-84550499D01*
X2812485Y-84512984D01*
X2938015Y-84440509D01*
X3040509Y-84338015D01*
X3112984Y-84212485D01*
X3114979Y-84205039D01*
X3128747Y-84153660D01*
X81575501Y-84153660D01*
X81575501Y-84298615D01*
X81613015Y-84438619D01*
X81613017Y-84438624D01*
X81655949Y-84512983D01*
X81685492Y-84564153D01*
X81787986Y-84666647D01*
X81913516Y-84739122D01*
X81913517Y-84739122D01*
X81913519Y-84739123D01*
X81983521Y-84757880D01*
X82053523Y-84776637D01*
X82053524Y-84776638D01*
X82053526Y-84776638D01*
X82198478Y-84776638D01*
X82198478Y-84776637D01*
X82338486Y-84739122D01*
X82464016Y-84666647D01*
X82566510Y-84564153D01*
X82638985Y-84438623D01*
X82676500Y-84298615D01*
X82676501Y-84298615D01*
X82676501Y-84153661D01*
X82676500Y-84153660D01*
X82638986Y-84013656D01*
X82638984Y-84013651D01*
X82589259Y-83927525D01*
X82566510Y-83888123D01*
X82464016Y-83785629D01*
X82338487Y-83713154D01*
X82338482Y-83713152D01*
X82198478Y-83675638D01*
X82198476Y-83675638D01*
X82053526Y-83675638D01*
X82053524Y-83675638D01*
X81913519Y-83713152D01*
X81913514Y-83713154D01*
X81787985Y-83785629D01*
X81685492Y-83888122D01*
X81613017Y-84013651D01*
X81613015Y-84013656D01*
X81575501Y-84153660D01*
X3128747Y-84153660D01*
X3135176Y-84129667D01*
X3135177Y-84129660D01*
X3150499Y-84072477D01*
X3150500Y-84072475D01*
X3150500Y-83927525D01*
X3150500Y-83927523D01*
X3150499Y-83927522D01*
X3112985Y-83787518D01*
X3112983Y-83787513D01*
X3093563Y-83753876D01*
X3040509Y-83661985D01*
X2938015Y-83559491D01*
X2812486Y-83487016D01*
X2812481Y-83487014D01*
X2672477Y-83449500D01*
X2672475Y-83449500D01*
X2527525Y-83449500D01*
X2527523Y-83449500D01*
X2387518Y-83487014D01*
X2387513Y-83487016D01*
X2261984Y-83559491D01*
X2159491Y-83661984D01*
X2087016Y-83787513D01*
X2087014Y-83787518D01*
X2049500Y-83927522D01*
X250000Y-83927522D01*
X250000Y-80927522D01*
X15049500Y-80927522D01*
X15049500Y-81072477D01*
X15087014Y-81212481D01*
X15087016Y-81212486D01*
X15159491Y-81338015D01*
X15261985Y-81440509D01*
X15387515Y-81512984D01*
X15387516Y-81512984D01*
X15387518Y-81512985D01*
X15457520Y-81531742D01*
X15527522Y-81550499D01*
X15527523Y-81550500D01*
X15527525Y-81550500D01*
X15672477Y-81550500D01*
X15672477Y-81550499D01*
X15812485Y-81512984D01*
X15938015Y-81440509D01*
X15947672Y-81430851D01*
X15999996Y-81409176D01*
X16052323Y-81430848D01*
X16061984Y-81440509D01*
X16187514Y-81512984D01*
X16187515Y-81512984D01*
X16187517Y-81512985D01*
X16257519Y-81531742D01*
X16327521Y-81550499D01*
X16327522Y-81550500D01*
X16327524Y-81550500D01*
X16472476Y-81550500D01*
X16472476Y-81550499D01*
X16612484Y-81512984D01*
X16738014Y-81440509D01*
X16840508Y-81338015D01*
X16912983Y-81212485D01*
X16950498Y-81072477D01*
X16950499Y-81072477D01*
X16950499Y-80927523D01*
X16950498Y-80927522D01*
X16912984Y-80787518D01*
X16912982Y-80787513D01*
X16840507Y-80661984D01*
X16738014Y-80559491D01*
X16612485Y-80487016D01*
X16612480Y-80487014D01*
X16472476Y-80449500D01*
X16472474Y-80449500D01*
X16327524Y-80449500D01*
X16327522Y-80449500D01*
X16187517Y-80487014D01*
X16187512Y-80487016D01*
X16061983Y-80559491D01*
X16052323Y-80569151D01*
X15999996Y-80590823D01*
X15947673Y-80569149D01*
X15938015Y-80559491D01*
X15812486Y-80487016D01*
X15812481Y-80487014D01*
X15672477Y-80449500D01*
X15672475Y-80449500D01*
X15527525Y-80449500D01*
X15527523Y-80449500D01*
X15387518Y-80487014D01*
X15387513Y-80487016D01*
X15261984Y-80559491D01*
X15159491Y-80661984D01*
X15087016Y-80787513D01*
X15087014Y-80787518D01*
X15049500Y-80927522D01*
X250000Y-80927522D01*
X250000Y-79117522D01*
X5999500Y-79117522D01*
X5999500Y-79262477D01*
X6037014Y-79402481D01*
X6037016Y-79402486D01*
X6109491Y-79528015D01*
X6211985Y-79630509D01*
X6337515Y-79702984D01*
X6337516Y-79702984D01*
X6337518Y-79702985D01*
X6407520Y-79721742D01*
X6477522Y-79740499D01*
X6477523Y-79740500D01*
X6477525Y-79740500D01*
X6622477Y-79740500D01*
X6622477Y-79740499D01*
X6762485Y-79702984D01*
X6888015Y-79630509D01*
X6990509Y-79528015D01*
X7062984Y-79402485D01*
X7100499Y-79262477D01*
X7100500Y-79262477D01*
X7100500Y-79117523D01*
X7100499Y-79117522D01*
X7062985Y-78977518D01*
X7062983Y-78977513D01*
X6990508Y-78851984D01*
X6888015Y-78749491D01*
X6762486Y-78677016D01*
X6762481Y-78677014D01*
X6622477Y-78639500D01*
X6622475Y-78639500D01*
X6477525Y-78639500D01*
X6477523Y-78639500D01*
X6337518Y-78677014D01*
X6337513Y-78677016D01*
X6211984Y-78749491D01*
X6109491Y-78851984D01*
X6037016Y-78977513D01*
X6037014Y-78977518D01*
X5999500Y-79117522D01*
X250000Y-79117522D01*
X250000Y-77377522D01*
X44589500Y-77377522D01*
X44589500Y-77522477D01*
X44627014Y-77662481D01*
X44627016Y-77662486D01*
X44699491Y-77788015D01*
X44801985Y-77890509D01*
X44927515Y-77962984D01*
X44927516Y-77962984D01*
X44927518Y-77962985D01*
X44997520Y-77981742D01*
X45067522Y-78000499D01*
X45067523Y-78000500D01*
X45067525Y-78000500D01*
X45212477Y-78000500D01*
X45212477Y-78000499D01*
X45352485Y-77962984D01*
X45478015Y-77890509D01*
X45580509Y-77788015D01*
X45652984Y-77662485D01*
X45690499Y-77522477D01*
X45690500Y-77522477D01*
X45690500Y-77377523D01*
X45690499Y-77377522D01*
X45652985Y-77237518D01*
X45652983Y-77237513D01*
X45580508Y-77111984D01*
X45478015Y-77009491D01*
X45352486Y-76937016D01*
X45352481Y-76937014D01*
X45212477Y-76899500D01*
X45212475Y-76899500D01*
X45067525Y-76899500D01*
X45067523Y-76899500D01*
X44927518Y-76937014D01*
X44927513Y-76937016D01*
X44801984Y-77009491D01*
X44699491Y-77111984D01*
X44627016Y-77237513D01*
X44627014Y-77237518D01*
X44589500Y-77377522D01*
X250000Y-77377522D01*
X250000Y-71927522D01*
X47649500Y-71927522D01*
X47649500Y-72072477D01*
X47687014Y-72212481D01*
X47687016Y-72212486D01*
X47759491Y-72338015D01*
X47861985Y-72440509D01*
X47987515Y-72512984D01*
X47987516Y-72512984D01*
X47987518Y-72512985D01*
X48057520Y-72531742D01*
X48127522Y-72550499D01*
X48127523Y-72550500D01*
X48127525Y-72550500D01*
X48272477Y-72550500D01*
X48272477Y-72550499D01*
X48412485Y-72512984D01*
X48538015Y-72440509D01*
X48547674Y-72430850D01*
X48600000Y-72409176D01*
X48652326Y-72430850D01*
X48661985Y-72440509D01*
X48787515Y-72512984D01*
X48787516Y-72512984D01*
X48787518Y-72512985D01*
X48857520Y-72531742D01*
X48927522Y-72550499D01*
X48927523Y-72550500D01*
X48927525Y-72550500D01*
X49072477Y-72550500D01*
X49072477Y-72550499D01*
X49212485Y-72512984D01*
X49338015Y-72440509D01*
X49440509Y-72338015D01*
X49512984Y-72212485D01*
X49550499Y-72072477D01*
X49550500Y-72072477D01*
X49550500Y-71927523D01*
X49550499Y-71927522D01*
X49512985Y-71787518D01*
X49512983Y-71787513D01*
X49440508Y-71661984D01*
X49338015Y-71559491D01*
X49212486Y-71487016D01*
X49212481Y-71487014D01*
X49072477Y-71449500D01*
X49072475Y-71449500D01*
X48927525Y-71449500D01*
X48927523Y-71449500D01*
X48787518Y-71487014D01*
X48787513Y-71487016D01*
X48661984Y-71559491D01*
X48652326Y-71569150D01*
X48600000Y-71590824D01*
X48547674Y-71569150D01*
X48538015Y-71559491D01*
X48412486Y-71487016D01*
X48412481Y-71487014D01*
X48272477Y-71449500D01*
X48272475Y-71449500D01*
X48127525Y-71449500D01*
X48127523Y-71449500D01*
X47987518Y-71487014D01*
X47987513Y-71487016D01*
X47861984Y-71559491D01*
X47759491Y-71661984D01*
X47687016Y-71787513D01*
X47687014Y-71787518D01*
X47649500Y-71927522D01*
X250000Y-71927522D01*
X250000Y-69724231D01*
X50499500Y-69724231D01*
X50499500Y-69875768D01*
X50538717Y-70022130D01*
X50538718Y-70022133D01*
X50538719Y-70022135D01*
X50614485Y-70153365D01*
X50721635Y-70260515D01*
X50852865Y-70336281D01*
X50999231Y-70375499D01*
X50999232Y-70375500D01*
X50999234Y-70375500D01*
X51150768Y-70375500D01*
X51150768Y-70375499D01*
X51297135Y-70336281D01*
X51428365Y-70260515D01*
X51447675Y-70241204D01*
X51500000Y-70219531D01*
X51552324Y-70241204D01*
X51571635Y-70260515D01*
X51702865Y-70336281D01*
X51849231Y-70375499D01*
X51849232Y-70375500D01*
X51849234Y-70375500D01*
X52000768Y-70375500D01*
X52000768Y-70375499D01*
X52147135Y-70336281D01*
X52278365Y-70260515D01*
X52385515Y-70153365D01*
X52461281Y-70022135D01*
X52500499Y-69875768D01*
X52500500Y-69875768D01*
X52500500Y-69724232D01*
X52500499Y-69724231D01*
X52461282Y-69577869D01*
X52461281Y-69577865D01*
X52385515Y-69446635D01*
X52278365Y-69339485D01*
X52278362Y-69339483D01*
X52147139Y-69263721D01*
X52147130Y-69263717D01*
X52000768Y-69224500D01*
X52000766Y-69224500D01*
X51849234Y-69224500D01*
X51849232Y-69224500D01*
X51702869Y-69263717D01*
X51702860Y-69263721D01*
X51571636Y-69339484D01*
X51552325Y-69358795D01*
X51499998Y-69380468D01*
X51447675Y-69358795D01*
X51428365Y-69339485D01*
X51384621Y-69314229D01*
X51297139Y-69263721D01*
X51297130Y-69263717D01*
X51150768Y-69224500D01*
X51150766Y-69224500D01*
X50999234Y-69224500D01*
X50999232Y-69224500D01*
X50852869Y-69263717D01*
X50852860Y-69263721D01*
X50721637Y-69339483D01*
X50614483Y-69446637D01*
X50538721Y-69577860D01*
X50538717Y-69577869D01*
X50499500Y-69724231D01*
X250000Y-69724231D01*
X250000Y-66004500D01*
X271674Y-65952174D01*
X324000Y-65930500D01*
X14291644Y-65930500D01*
X14291646Y-65930500D01*
X14323162Y-65924231D01*
X22499500Y-65924231D01*
X22499500Y-66075768D01*
X22538717Y-66222130D01*
X22538718Y-66222133D01*
X22538719Y-66222135D01*
X22614485Y-66353365D01*
X22721635Y-66460515D01*
X22852865Y-66536281D01*
X22999231Y-66575499D01*
X22999232Y-66575500D01*
X22999234Y-66575500D01*
X23150768Y-66575500D01*
X23150768Y-66575499D01*
X23297135Y-66536281D01*
X23428365Y-66460515D01*
X23447675Y-66441204D01*
X23500000Y-66419531D01*
X23552324Y-66441204D01*
X23571635Y-66460515D01*
X23702865Y-66536281D01*
X23849231Y-66575499D01*
X23849232Y-66575500D01*
X23849234Y-66575500D01*
X24000768Y-66575500D01*
X24000768Y-66575499D01*
X24147135Y-66536281D01*
X24278365Y-66460515D01*
X24385515Y-66353365D01*
X24461281Y-66222135D01*
X24500499Y-66075768D01*
X24500500Y-66075768D01*
X24500500Y-65924232D01*
X24500499Y-65924231D01*
X24461282Y-65777869D01*
X24461281Y-65777865D01*
X24385515Y-65646635D01*
X24278365Y-65539485D01*
X24278362Y-65539483D01*
X24147139Y-65463721D01*
X24147130Y-65463717D01*
X24000768Y-65424500D01*
X24000766Y-65424500D01*
X23849234Y-65424500D01*
X23849232Y-65424500D01*
X23702869Y-65463717D01*
X23702860Y-65463721D01*
X23571636Y-65539484D01*
X23552325Y-65558795D01*
X23499998Y-65580468D01*
X23447675Y-65558795D01*
X23428365Y-65539485D01*
X23384621Y-65514229D01*
X23297139Y-65463721D01*
X23297130Y-65463717D01*
X23150768Y-65424500D01*
X23150766Y-65424500D01*
X22999234Y-65424500D01*
X22999232Y-65424500D01*
X22852869Y-65463717D01*
X22852860Y-65463721D01*
X22721637Y-65539483D01*
X22614483Y-65646637D01*
X22538721Y-65777860D01*
X22538717Y-65777869D01*
X22499500Y-65924231D01*
X14323162Y-65924231D01*
X14471417Y-65894741D01*
X14640757Y-65824598D01*
X14793159Y-65722766D01*
X14922766Y-65593159D01*
X15024598Y-65440757D01*
X15094741Y-65271417D01*
X15130500Y-65091646D01*
X15130500Y-64908354D01*
X15094741Y-64728583D01*
X15024598Y-64559243D01*
X14922766Y-64406841D01*
X14793159Y-64277234D01*
X14788204Y-64273923D01*
X14640756Y-64175401D01*
X14471417Y-64105259D01*
X14471411Y-64105257D01*
X14351026Y-64081311D01*
X14291646Y-64069500D01*
X14291644Y-64069500D01*
X324000Y-64069500D01*
X271674Y-64047826D01*
X250000Y-63995500D01*
X250000Y-61924231D01*
X22499500Y-61924231D01*
X22499500Y-62075768D01*
X22538717Y-62222130D01*
X22538718Y-62222133D01*
X22538719Y-62222135D01*
X22614485Y-62353365D01*
X22721635Y-62460515D01*
X22852865Y-62536281D01*
X22999231Y-62575499D01*
X22999232Y-62575500D01*
X22999234Y-62575500D01*
X23150768Y-62575500D01*
X23150768Y-62575499D01*
X23297135Y-62536281D01*
X23428365Y-62460515D01*
X23447675Y-62441204D01*
X23500000Y-62419531D01*
X23552324Y-62441204D01*
X23571635Y-62460515D01*
X23702865Y-62536281D01*
X23849231Y-62575499D01*
X23849232Y-62575500D01*
X23849234Y-62575500D01*
X24000768Y-62575500D01*
X24000768Y-62575499D01*
X24147135Y-62536281D01*
X24278365Y-62460515D01*
X24385515Y-62353365D01*
X24461281Y-62222135D01*
X24500499Y-62075768D01*
X24500500Y-62075768D01*
X24500500Y-61924232D01*
X24500499Y-61924231D01*
X24461282Y-61777869D01*
X24461281Y-61777865D01*
X24385515Y-61646635D01*
X24278365Y-61539485D01*
X24278362Y-61539483D01*
X24147139Y-61463721D01*
X24147130Y-61463717D01*
X24000768Y-61424500D01*
X24000766Y-61424500D01*
X23849234Y-61424500D01*
X23849232Y-61424500D01*
X23702869Y-61463717D01*
X23702860Y-61463721D01*
X23571636Y-61539484D01*
X23552325Y-61558795D01*
X23499998Y-61580468D01*
X23447675Y-61558795D01*
X23428365Y-61539485D01*
X23384621Y-61514229D01*
X23297139Y-61463721D01*
X23297130Y-61463717D01*
X23150768Y-61424500D01*
X23150766Y-61424500D01*
X22999234Y-61424500D01*
X22999232Y-61424500D01*
X22852869Y-61463717D01*
X22852860Y-61463721D01*
X22721637Y-61539483D01*
X22614483Y-61646637D01*
X22538721Y-61777860D01*
X22538717Y-61777869D01*
X22499500Y-61924231D01*
X250000Y-61924231D01*
X250000Y-57653660D01*
X35704209Y-57653660D01*
X35704209Y-57798615D01*
X35741723Y-57938619D01*
X35741725Y-57938624D01*
X35814200Y-58064153D01*
X35916694Y-58166647D01*
X36042224Y-58239122D01*
X36042225Y-58239122D01*
X36042227Y-58239123D01*
X36112229Y-58257880D01*
X36182231Y-58276637D01*
X36182232Y-58276638D01*
X36182234Y-58276638D01*
X36327186Y-58276638D01*
X36327186Y-58276637D01*
X36467194Y-58239122D01*
X36592724Y-58166647D01*
X36695218Y-58064153D01*
X36767693Y-57938623D01*
X36805208Y-57798615D01*
X36805209Y-57798615D01*
X36805209Y-57653661D01*
X36805208Y-57653660D01*
X36767694Y-57513656D01*
X36767692Y-57513651D01*
X36695217Y-57388122D01*
X36592724Y-57285629D01*
X36467195Y-57213154D01*
X36467190Y-57213152D01*
X36327186Y-57175638D01*
X36327184Y-57175638D01*
X36182234Y-57175638D01*
X36182232Y-57175638D01*
X36042227Y-57213152D01*
X36042222Y-57213154D01*
X35916693Y-57285629D01*
X35814200Y-57388122D01*
X35741725Y-57513651D01*
X35741723Y-57513656D01*
X35704209Y-57653660D01*
X250000Y-57653660D01*
X250000Y-51183388D01*
X62549500Y-51183388D01*
X62549500Y-51356611D01*
X62576597Y-51527698D01*
X62576600Y-51527711D01*
X62630125Y-51692442D01*
X62630127Y-51692446D01*
X62708767Y-51846787D01*
X62708768Y-51846788D01*
X62810586Y-51986928D01*
X62933072Y-52109414D01*
X62933075Y-52109416D01*
X62933076Y-52109417D01*
X63073212Y-52211232D01*
X63227553Y-52289872D01*
X63227557Y-52289874D01*
X63392288Y-52343399D01*
X63392294Y-52343400D01*
X63392299Y-52343402D01*
X63506359Y-52361467D01*
X63563388Y-52370500D01*
X63563389Y-52370500D01*
X63736612Y-52370500D01*
X63779383Y-52363725D01*
X63907701Y-52343402D01*
X63907708Y-52343399D01*
X63907711Y-52343399D01*
X64072442Y-52289874D01*
X64072442Y-52289873D01*
X64072445Y-52289873D01*
X64226788Y-52211232D01*
X64366928Y-52109414D01*
X64489414Y-51986928D01*
X64591232Y-51846788D01*
X64669873Y-51692445D01*
X64723402Y-51527701D01*
X64750500Y-51356611D01*
X64750500Y-51183389D01*
X64750500Y-51183388D01*
X65089500Y-51183388D01*
X65089500Y-51356611D01*
X65116597Y-51527698D01*
X65116600Y-51527711D01*
X65170125Y-51692442D01*
X65170127Y-51692446D01*
X65248767Y-51846787D01*
X65248768Y-51846788D01*
X65350586Y-51986928D01*
X65473072Y-52109414D01*
X65473075Y-52109416D01*
X65473076Y-52109417D01*
X65613212Y-52211232D01*
X65767553Y-52289872D01*
X65767557Y-52289874D01*
X65932288Y-52343399D01*
X65932294Y-52343400D01*
X65932299Y-52343402D01*
X66046359Y-52361467D01*
X66103388Y-52370500D01*
X66103389Y-52370500D01*
X66276612Y-52370500D01*
X66319383Y-52363725D01*
X66447701Y-52343402D01*
X66447708Y-52343399D01*
X66447711Y-52343399D01*
X66612442Y-52289874D01*
X66612442Y-52289873D01*
X66612445Y-52289873D01*
X66766788Y-52211232D01*
X66906928Y-52109414D01*
X67029414Y-51986928D01*
X67131232Y-51846788D01*
X67209873Y-51692445D01*
X67263402Y-51527701D01*
X67290500Y-51356611D01*
X67290500Y-51183389D01*
X67290500Y-51183388D01*
X67629500Y-51183388D01*
X67629500Y-51356611D01*
X67656597Y-51527698D01*
X67656600Y-51527711D01*
X67710125Y-51692442D01*
X67710127Y-51692446D01*
X67788767Y-51846787D01*
X67788768Y-51846788D01*
X67890586Y-51986928D01*
X68013072Y-52109414D01*
X68013075Y-52109416D01*
X68013076Y-52109417D01*
X68153212Y-52211232D01*
X68307553Y-52289872D01*
X68307557Y-52289874D01*
X68472288Y-52343399D01*
X68472294Y-52343400D01*
X68472299Y-52343402D01*
X68586359Y-52361467D01*
X68643388Y-52370500D01*
X68643389Y-52370500D01*
X68816612Y-52370500D01*
X68859383Y-52363725D01*
X68987701Y-52343402D01*
X68987708Y-52343399D01*
X68987711Y-52343399D01*
X69152442Y-52289874D01*
X69152442Y-52289873D01*
X69152445Y-52289873D01*
X69306788Y-52211232D01*
X69446928Y-52109414D01*
X69569414Y-51986928D01*
X69671232Y-51846788D01*
X69749873Y-51692445D01*
X69803402Y-51527701D01*
X69830500Y-51356611D01*
X69830500Y-51183389D01*
X69830500Y-51183388D01*
X70169500Y-51183388D01*
X70169500Y-51356611D01*
X70196597Y-51527698D01*
X70196600Y-51527711D01*
X70250125Y-51692442D01*
X70250127Y-51692446D01*
X70328767Y-51846787D01*
X70328768Y-51846788D01*
X70430586Y-51986928D01*
X70553072Y-52109414D01*
X70553075Y-52109416D01*
X70553076Y-52109417D01*
X70693212Y-52211232D01*
X70847553Y-52289872D01*
X70847557Y-52289874D01*
X71012288Y-52343399D01*
X71012294Y-52343400D01*
X71012299Y-52343402D01*
X71126359Y-52361467D01*
X71183388Y-52370500D01*
X71183389Y-52370500D01*
X71356612Y-52370500D01*
X71399383Y-52363725D01*
X71527701Y-52343402D01*
X71527708Y-52343399D01*
X71527711Y-52343399D01*
X71692442Y-52289874D01*
X71692442Y-52289873D01*
X71692445Y-52289873D01*
X71846788Y-52211232D01*
X71986928Y-52109414D01*
X72109414Y-51986928D01*
X72211232Y-51846788D01*
X72289873Y-51692445D01*
X72343402Y-51527701D01*
X72370500Y-51356611D01*
X72370500Y-51183389D01*
X72370500Y-51183388D01*
X72709500Y-51183388D01*
X72709500Y-51356611D01*
X72736597Y-51527698D01*
X72736600Y-51527711D01*
X72790125Y-51692442D01*
X72790127Y-51692446D01*
X72868767Y-51846787D01*
X72868768Y-51846788D01*
X72970586Y-51986928D01*
X73093072Y-52109414D01*
X73093075Y-52109416D01*
X73093076Y-52109417D01*
X73233212Y-52211232D01*
X73387553Y-52289872D01*
X73387557Y-52289874D01*
X73552288Y-52343399D01*
X73552294Y-52343400D01*
X73552299Y-52343402D01*
X73666359Y-52361467D01*
X73723388Y-52370500D01*
X73723389Y-52370500D01*
X73896612Y-52370500D01*
X73939383Y-52363725D01*
X74067701Y-52343402D01*
X74067708Y-52343399D01*
X74067711Y-52343399D01*
X74232442Y-52289874D01*
X74232442Y-52289873D01*
X74232445Y-52289873D01*
X74386788Y-52211232D01*
X74526928Y-52109414D01*
X74649414Y-51986928D01*
X74751232Y-51846788D01*
X74829873Y-51692445D01*
X74883402Y-51527701D01*
X74910500Y-51356611D01*
X74910500Y-51183389D01*
X74883402Y-51012299D01*
X74883400Y-51012294D01*
X74883399Y-51012288D01*
X74829874Y-50847557D01*
X74829872Y-50847553D01*
X74751232Y-50693212D01*
X74649417Y-50553076D01*
X74649416Y-50553075D01*
X74649414Y-50553072D01*
X74526928Y-50430586D01*
X74526925Y-50430583D01*
X74526923Y-50430582D01*
X74386787Y-50328767D01*
X74232446Y-50250127D01*
X74232442Y-50250125D01*
X74067711Y-50196600D01*
X74067698Y-50196597D01*
X73896612Y-50169500D01*
X73896611Y-50169500D01*
X73723389Y-50169500D01*
X73723388Y-50169500D01*
X73552301Y-50196597D01*
X73552288Y-50196600D01*
X73387557Y-50250125D01*
X73387553Y-50250127D01*
X73233212Y-50328767D01*
X73093076Y-50430582D01*
X72970582Y-50553076D01*
X72868767Y-50693212D01*
X72790127Y-50847553D01*
X72790125Y-50847557D01*
X72736600Y-51012288D01*
X72736597Y-51012301D01*
X72709500Y-51183388D01*
X72370500Y-51183388D01*
X72343402Y-51012299D01*
X72343400Y-51012294D01*
X72343399Y-51012288D01*
X72289874Y-50847557D01*
X72289872Y-50847553D01*
X72211232Y-50693212D01*
X72109417Y-50553076D01*
X72109416Y-50553075D01*
X72109414Y-50553072D01*
X71986928Y-50430586D01*
X71986925Y-50430583D01*
X71986923Y-50430582D01*
X71846787Y-50328767D01*
X71692446Y-50250127D01*
X71692442Y-50250125D01*
X71527711Y-50196600D01*
X71527698Y-50196597D01*
X71356612Y-50169500D01*
X71356611Y-50169500D01*
X71183389Y-50169500D01*
X71183388Y-50169500D01*
X71012301Y-50196597D01*
X71012288Y-50196600D01*
X70847557Y-50250125D01*
X70847553Y-50250127D01*
X70693212Y-50328767D01*
X70553076Y-50430582D01*
X70430582Y-50553076D01*
X70328767Y-50693212D01*
X70250127Y-50847553D01*
X70250125Y-50847557D01*
X70196600Y-51012288D01*
X70196597Y-51012301D01*
X70169500Y-51183388D01*
X69830500Y-51183388D01*
X69803402Y-51012299D01*
X69803400Y-51012294D01*
X69803399Y-51012288D01*
X69749874Y-50847557D01*
X69749872Y-50847553D01*
X69671232Y-50693212D01*
X69569417Y-50553076D01*
X69569416Y-50553075D01*
X69569414Y-50553072D01*
X69446928Y-50430586D01*
X69446925Y-50430583D01*
X69446923Y-50430582D01*
X69306787Y-50328767D01*
X69152446Y-50250127D01*
X69152442Y-50250125D01*
X68987711Y-50196600D01*
X68987698Y-50196597D01*
X68816612Y-50169500D01*
X68816611Y-50169500D01*
X68643389Y-50169500D01*
X68643388Y-50169500D01*
X68472301Y-50196597D01*
X68472288Y-50196600D01*
X68307557Y-50250125D01*
X68307553Y-50250127D01*
X68153212Y-50328767D01*
X68013076Y-50430582D01*
X67890582Y-50553076D01*
X67788767Y-50693212D01*
X67710127Y-50847553D01*
X67710125Y-50847557D01*
X67656600Y-51012288D01*
X67656597Y-51012301D01*
X67629500Y-51183388D01*
X67290500Y-51183388D01*
X67263402Y-51012299D01*
X67263400Y-51012294D01*
X67263399Y-51012288D01*
X67209874Y-50847557D01*
X67209872Y-50847553D01*
X67131232Y-50693212D01*
X67029417Y-50553076D01*
X67029416Y-50553075D01*
X67029414Y-50553072D01*
X66906928Y-50430586D01*
X66906925Y-50430583D01*
X66906923Y-50430582D01*
X66766787Y-50328767D01*
X66612446Y-50250127D01*
X66612442Y-50250125D01*
X66447711Y-50196600D01*
X66447698Y-50196597D01*
X66276612Y-50169500D01*
X66276611Y-50169500D01*
X66103389Y-50169500D01*
X66103388Y-50169500D01*
X65932301Y-50196597D01*
X65932288Y-50196600D01*
X65767557Y-50250125D01*
X65767553Y-50250127D01*
X65613212Y-50328767D01*
X65473076Y-50430582D01*
X65350582Y-50553076D01*
X65248767Y-50693212D01*
X65170127Y-50847553D01*
X65170125Y-50847557D01*
X65116600Y-51012288D01*
X65116597Y-51012301D01*
X65089500Y-51183388D01*
X64750500Y-51183388D01*
X64723402Y-51012299D01*
X64723400Y-51012294D01*
X64723399Y-51012288D01*
X64669874Y-50847557D01*
X64669872Y-50847553D01*
X64591232Y-50693212D01*
X64489417Y-50553076D01*
X64489416Y-50553075D01*
X64489414Y-50553072D01*
X64366928Y-50430586D01*
X64366925Y-50430583D01*
X64366923Y-50430582D01*
X64226787Y-50328767D01*
X64072446Y-50250127D01*
X64072442Y-50250125D01*
X63907711Y-50196600D01*
X63907698Y-50196597D01*
X63736612Y-50169500D01*
X63736611Y-50169500D01*
X63563389Y-50169500D01*
X63563388Y-50169500D01*
X63392301Y-50196597D01*
X63392288Y-50196600D01*
X63227557Y-50250125D01*
X63227553Y-50250127D01*
X63073212Y-50328767D01*
X62933076Y-50430582D01*
X62810582Y-50553076D01*
X62708767Y-50693212D01*
X62630127Y-50847553D01*
X62630125Y-50847557D01*
X62576600Y-51012288D01*
X62576597Y-51012301D01*
X62549500Y-51183388D01*
X250000Y-51183388D01*
X250000Y-51004500D01*
X271674Y-50952174D01*
X324000Y-50930500D01*
X14291644Y-50930500D01*
X14291646Y-50930500D01*
X14471417Y-50894741D01*
X14640757Y-50824598D01*
X14793159Y-50722766D01*
X14922766Y-50593159D01*
X15024598Y-50440757D01*
X15094741Y-50271417D01*
X15130500Y-50091646D01*
X15130500Y-49908354D01*
X15094741Y-49728583D01*
X15024598Y-49559243D01*
X14922766Y-49406841D01*
X14793159Y-49277234D01*
X14788204Y-49273923D01*
X14640756Y-49175401D01*
X14471417Y-49105259D01*
X14471411Y-49105257D01*
X14351026Y-49081311D01*
X14291646Y-49069500D01*
X14291644Y-49069500D01*
X324000Y-49069500D01*
X271674Y-49047826D01*
X250000Y-48995500D01*
X250000Y-48643388D01*
X62549500Y-48643388D01*
X62549500Y-48816611D01*
X62576597Y-48987698D01*
X62576600Y-48987711D01*
X62630125Y-49152442D01*
X62630127Y-49152446D01*
X62708767Y-49306787D01*
X62738191Y-49347286D01*
X62810586Y-49446928D01*
X62933072Y-49569414D01*
X62933075Y-49569416D01*
X62933076Y-49569417D01*
X63073212Y-49671232D01*
X63227553Y-49749872D01*
X63227557Y-49749874D01*
X63392288Y-49803399D01*
X63392294Y-49803400D01*
X63392299Y-49803402D01*
X63506359Y-49821467D01*
X63563388Y-49830500D01*
X63563389Y-49830500D01*
X63736612Y-49830500D01*
X63779383Y-49823725D01*
X63907701Y-49803402D01*
X63907708Y-49803399D01*
X63907711Y-49803399D01*
X64072442Y-49749874D01*
X64072442Y-49749873D01*
X64072445Y-49749873D01*
X64226788Y-49671232D01*
X64366928Y-49569414D01*
X64489414Y-49446928D01*
X64591232Y-49306788D01*
X64669873Y-49152445D01*
X64685205Y-49105259D01*
X64723399Y-48987711D01*
X64723399Y-48987708D01*
X64723402Y-48987701D01*
X64750500Y-48816611D01*
X64750500Y-48643389D01*
X64750500Y-48643388D01*
X65089500Y-48643388D01*
X65089500Y-48816611D01*
X65116597Y-48987698D01*
X65116600Y-48987711D01*
X65170125Y-49152442D01*
X65170127Y-49152446D01*
X65248767Y-49306787D01*
X65278191Y-49347286D01*
X65350586Y-49446928D01*
X65473072Y-49569414D01*
X65473075Y-49569416D01*
X65473076Y-49569417D01*
X65613212Y-49671232D01*
X65767553Y-49749872D01*
X65767557Y-49749874D01*
X65932288Y-49803399D01*
X65932294Y-49803400D01*
X65932299Y-49803402D01*
X66046359Y-49821467D01*
X66103388Y-49830500D01*
X66103389Y-49830500D01*
X66276612Y-49830500D01*
X66319383Y-49823725D01*
X66447701Y-49803402D01*
X66447708Y-49803399D01*
X66447711Y-49803399D01*
X66612442Y-49749874D01*
X66612442Y-49749873D01*
X66612445Y-49749873D01*
X66766788Y-49671232D01*
X66906928Y-49569414D01*
X67029414Y-49446928D01*
X67131232Y-49306788D01*
X67209873Y-49152445D01*
X67225205Y-49105259D01*
X67263399Y-48987711D01*
X67263399Y-48987708D01*
X67263402Y-48987701D01*
X67290500Y-48816611D01*
X67290500Y-48643389D01*
X67290500Y-48643388D01*
X67629500Y-48643388D01*
X67629500Y-48816611D01*
X67656597Y-48987698D01*
X67656600Y-48987711D01*
X67710125Y-49152442D01*
X67710127Y-49152446D01*
X67788767Y-49306787D01*
X67818191Y-49347286D01*
X67890586Y-49446928D01*
X68013072Y-49569414D01*
X68013075Y-49569416D01*
X68013076Y-49569417D01*
X68153212Y-49671232D01*
X68307553Y-49749872D01*
X68307557Y-49749874D01*
X68472288Y-49803399D01*
X68472294Y-49803400D01*
X68472299Y-49803402D01*
X68586359Y-49821467D01*
X68643388Y-49830500D01*
X68643389Y-49830500D01*
X68816612Y-49830500D01*
X68859383Y-49823725D01*
X68987701Y-49803402D01*
X68987708Y-49803399D01*
X68987711Y-49803399D01*
X69152442Y-49749874D01*
X69152442Y-49749873D01*
X69152445Y-49749873D01*
X69306788Y-49671232D01*
X69446928Y-49569414D01*
X69569414Y-49446928D01*
X69671232Y-49306788D01*
X69749873Y-49152445D01*
X69765205Y-49105259D01*
X69803399Y-48987711D01*
X69803399Y-48987708D01*
X69803402Y-48987701D01*
X69830500Y-48816611D01*
X69830500Y-48643389D01*
X69830500Y-48643388D01*
X70169500Y-48643388D01*
X70169500Y-48816611D01*
X70196597Y-48987698D01*
X70196600Y-48987711D01*
X70250125Y-49152442D01*
X70250127Y-49152446D01*
X70328767Y-49306787D01*
X70358191Y-49347286D01*
X70430586Y-49446928D01*
X70553072Y-49569414D01*
X70553075Y-49569416D01*
X70553076Y-49569417D01*
X70693212Y-49671232D01*
X70847553Y-49749872D01*
X70847557Y-49749874D01*
X71012288Y-49803399D01*
X71012294Y-49803400D01*
X71012299Y-49803402D01*
X71126359Y-49821467D01*
X71183388Y-49830500D01*
X71183389Y-49830500D01*
X71356612Y-49830500D01*
X71399383Y-49823725D01*
X71527701Y-49803402D01*
X71527708Y-49803399D01*
X71527711Y-49803399D01*
X71692442Y-49749874D01*
X71692442Y-49749873D01*
X71692445Y-49749873D01*
X71846788Y-49671232D01*
X71986928Y-49569414D01*
X72109414Y-49446928D01*
X72211232Y-49306788D01*
X72289873Y-49152445D01*
X72305205Y-49105259D01*
X72343399Y-48987711D01*
X72343399Y-48987708D01*
X72343402Y-48987701D01*
X72370500Y-48816611D01*
X72370500Y-48643389D01*
X72343402Y-48472299D01*
X72343400Y-48472294D01*
X72343399Y-48472288D01*
X72289874Y-48307557D01*
X72289872Y-48307553D01*
X72211232Y-48153212D01*
X72109417Y-48013076D01*
X72109416Y-48013075D01*
X72109414Y-48013072D01*
X71986928Y-47890586D01*
X71986925Y-47890583D01*
X71986923Y-47890582D01*
X71846787Y-47788767D01*
X71692446Y-47710127D01*
X71692442Y-47710125D01*
X71527711Y-47656600D01*
X71527698Y-47656597D01*
X71356612Y-47629500D01*
X71356611Y-47629500D01*
X71183389Y-47629500D01*
X71183388Y-47629500D01*
X71012301Y-47656597D01*
X71012288Y-47656600D01*
X70847557Y-47710125D01*
X70847553Y-47710127D01*
X70693212Y-47788767D01*
X70553076Y-47890582D01*
X70430582Y-48013076D01*
X70328767Y-48153212D01*
X70250127Y-48307553D01*
X70250125Y-48307557D01*
X70196600Y-48472288D01*
X70196597Y-48472301D01*
X70169500Y-48643388D01*
X69830500Y-48643388D01*
X69803402Y-48472299D01*
X69803400Y-48472294D01*
X69803399Y-48472288D01*
X69749874Y-48307557D01*
X69749872Y-48307553D01*
X69671232Y-48153212D01*
X69569417Y-48013076D01*
X69569416Y-48013075D01*
X69569414Y-48013072D01*
X69446928Y-47890586D01*
X69446925Y-47890583D01*
X69446923Y-47890582D01*
X69306787Y-47788767D01*
X69152446Y-47710127D01*
X69152442Y-47710125D01*
X68987711Y-47656600D01*
X68987698Y-47656597D01*
X68816612Y-47629500D01*
X68816611Y-47629500D01*
X68643389Y-47629500D01*
X68643388Y-47629500D01*
X68472301Y-47656597D01*
X68472288Y-47656600D01*
X68307557Y-47710125D01*
X68307553Y-47710127D01*
X68153212Y-47788767D01*
X68013076Y-47890582D01*
X67890582Y-48013076D01*
X67788767Y-48153212D01*
X67710127Y-48307553D01*
X67710125Y-48307557D01*
X67656600Y-48472288D01*
X67656597Y-48472301D01*
X67629500Y-48643388D01*
X67290500Y-48643388D01*
X67263402Y-48472299D01*
X67263400Y-48472294D01*
X67263399Y-48472288D01*
X67209874Y-48307557D01*
X67209872Y-48307553D01*
X67131232Y-48153212D01*
X67029417Y-48013076D01*
X67029416Y-48013075D01*
X67029414Y-48013072D01*
X66906928Y-47890586D01*
X66906925Y-47890583D01*
X66906923Y-47890582D01*
X66766787Y-47788767D01*
X66612446Y-47710127D01*
X66612442Y-47710125D01*
X66447711Y-47656600D01*
X66447698Y-47656597D01*
X66276612Y-47629500D01*
X66276611Y-47629500D01*
X66103389Y-47629500D01*
X66103388Y-47629500D01*
X65932301Y-47656597D01*
X65932288Y-47656600D01*
X65767557Y-47710125D01*
X65767553Y-47710127D01*
X65613212Y-47788767D01*
X65473076Y-47890582D01*
X65350582Y-48013076D01*
X65248767Y-48153212D01*
X65170127Y-48307553D01*
X65170125Y-48307557D01*
X65116600Y-48472288D01*
X65116597Y-48472301D01*
X65089500Y-48643388D01*
X64750500Y-48643388D01*
X64723402Y-48472299D01*
X64723400Y-48472294D01*
X64723399Y-48472288D01*
X64669874Y-48307557D01*
X64669872Y-48307553D01*
X64591232Y-48153212D01*
X64489417Y-48013076D01*
X64489416Y-48013075D01*
X64489414Y-48013072D01*
X64366928Y-47890586D01*
X64366925Y-47890583D01*
X64366923Y-47890582D01*
X64226787Y-47788767D01*
X64072446Y-47710127D01*
X64072442Y-47710125D01*
X63907711Y-47656600D01*
X63907698Y-47656597D01*
X63736612Y-47629500D01*
X63736611Y-47629500D01*
X63563389Y-47629500D01*
X63563388Y-47629500D01*
X63392301Y-47656597D01*
X63392288Y-47656600D01*
X63227557Y-47710125D01*
X63227553Y-47710127D01*
X63073212Y-47788767D01*
X62933076Y-47890582D01*
X62810582Y-48013076D01*
X62708767Y-48153212D01*
X62630127Y-48307553D01*
X62630125Y-48307557D01*
X62576600Y-48472288D01*
X62576597Y-48472301D01*
X62549500Y-48643388D01*
X250000Y-48643388D01*
X250000Y-42201383D01*
X35704209Y-42201383D01*
X35704209Y-42346338D01*
X35741723Y-42486342D01*
X35741725Y-42486347D01*
X35814200Y-42611876D01*
X35916694Y-42714370D01*
X36042224Y-42786845D01*
X36042225Y-42786845D01*
X36042227Y-42786846D01*
X36112229Y-42805603D01*
X36182231Y-42824360D01*
X36182232Y-42824361D01*
X36182234Y-42824361D01*
X36327186Y-42824361D01*
X36327186Y-42824360D01*
X36467194Y-42786845D01*
X36592724Y-42714370D01*
X36695218Y-42611876D01*
X36767693Y-42486346D01*
X36805208Y-42346338D01*
X36805209Y-42346338D01*
X36805209Y-42201384D01*
X36805208Y-42201383D01*
X36767694Y-42061379D01*
X36767692Y-42061374D01*
X36695217Y-41935845D01*
X36592724Y-41833352D01*
X36467195Y-41760877D01*
X36467190Y-41760875D01*
X36327186Y-41723361D01*
X36327184Y-41723361D01*
X36182234Y-41723361D01*
X36182232Y-41723361D01*
X36042227Y-41760875D01*
X36042222Y-41760877D01*
X35916693Y-41833352D01*
X35814200Y-41935845D01*
X35741725Y-42061374D01*
X35741723Y-42061379D01*
X35704209Y-42201383D01*
X250000Y-42201383D01*
X250000Y-37924231D01*
X22499500Y-37924231D01*
X22499500Y-38075768D01*
X22538717Y-38222130D01*
X22538718Y-38222133D01*
X22538719Y-38222135D01*
X22614485Y-38353365D01*
X22721635Y-38460515D01*
X22852865Y-38536281D01*
X22999231Y-38575499D01*
X22999232Y-38575500D01*
X22999234Y-38575500D01*
X23150768Y-38575500D01*
X23150768Y-38575499D01*
X23297135Y-38536281D01*
X23428365Y-38460515D01*
X23447675Y-38441204D01*
X23500000Y-38419531D01*
X23552324Y-38441204D01*
X23571635Y-38460515D01*
X23702865Y-38536281D01*
X23849231Y-38575499D01*
X23849232Y-38575500D01*
X23849234Y-38575500D01*
X24000768Y-38575500D01*
X24000768Y-38575499D01*
X24147135Y-38536281D01*
X24278365Y-38460515D01*
X24385515Y-38353365D01*
X24461281Y-38222135D01*
X24500499Y-38075768D01*
X24500500Y-38075768D01*
X24500500Y-37924232D01*
X24500499Y-37924231D01*
X24461282Y-37777869D01*
X24461281Y-37777865D01*
X24385515Y-37646635D01*
X24278365Y-37539485D01*
X24278362Y-37539483D01*
X24147139Y-37463721D01*
X24147130Y-37463717D01*
X24000768Y-37424500D01*
X24000766Y-37424500D01*
X23849234Y-37424500D01*
X23849232Y-37424500D01*
X23702869Y-37463717D01*
X23702860Y-37463721D01*
X23571636Y-37539484D01*
X23552325Y-37558795D01*
X23499998Y-37580468D01*
X23447675Y-37558795D01*
X23428365Y-37539485D01*
X23384621Y-37514229D01*
X23297139Y-37463721D01*
X23297130Y-37463717D01*
X23150768Y-37424500D01*
X23150766Y-37424500D01*
X22999234Y-37424500D01*
X22999232Y-37424500D01*
X22852869Y-37463717D01*
X22852860Y-37463721D01*
X22721637Y-37539483D01*
X22614483Y-37646637D01*
X22538721Y-37777860D01*
X22538717Y-37777869D01*
X22499500Y-37924231D01*
X250000Y-37924231D01*
X250000Y-36004500D01*
X271674Y-35952174D01*
X324000Y-35930500D01*
X14291644Y-35930500D01*
X14291646Y-35930500D01*
X14471417Y-35894741D01*
X14640757Y-35824598D01*
X14793159Y-35722766D01*
X14922766Y-35593159D01*
X15024598Y-35440757D01*
X15094741Y-35271417D01*
X15130500Y-35091646D01*
X15130500Y-34908354D01*
X15094741Y-34728583D01*
X15024598Y-34559243D01*
X14922766Y-34406841D01*
X14793159Y-34277234D01*
X14788204Y-34273923D01*
X14640756Y-34175401D01*
X14471417Y-34105259D01*
X14471411Y-34105257D01*
X14351026Y-34081311D01*
X14291646Y-34069500D01*
X14291644Y-34069500D01*
X324000Y-34069500D01*
X271674Y-34047826D01*
X250000Y-33995500D01*
X250000Y-33924231D01*
X22499500Y-33924231D01*
X22499500Y-34075768D01*
X22538717Y-34222130D01*
X22538721Y-34222139D01*
X22601284Y-34330500D01*
X22614485Y-34353365D01*
X22721635Y-34460515D01*
X22852865Y-34536281D01*
X22999231Y-34575499D01*
X22999232Y-34575500D01*
X22999234Y-34575500D01*
X23150768Y-34575500D01*
X23150768Y-34575499D01*
X23297135Y-34536281D01*
X23428365Y-34460515D01*
X23447675Y-34441204D01*
X23500000Y-34419531D01*
X23552324Y-34441204D01*
X23571635Y-34460515D01*
X23702865Y-34536281D01*
X23849231Y-34575499D01*
X23849232Y-34575500D01*
X23849234Y-34575500D01*
X24000768Y-34575500D01*
X24000768Y-34575499D01*
X24147135Y-34536281D01*
X24278365Y-34460515D01*
X24385515Y-34353365D01*
X24461281Y-34222135D01*
X24500499Y-34075768D01*
X24500500Y-34075768D01*
X24500500Y-33924232D01*
X24500499Y-33924231D01*
X24461282Y-33777869D01*
X24461281Y-33777865D01*
X24385515Y-33646635D01*
X24278365Y-33539485D01*
X24278362Y-33539483D01*
X24147139Y-33463721D01*
X24147130Y-33463717D01*
X24000768Y-33424500D01*
X24000766Y-33424500D01*
X23849234Y-33424500D01*
X23849232Y-33424500D01*
X23702869Y-33463717D01*
X23702860Y-33463721D01*
X23571636Y-33539484D01*
X23552325Y-33558795D01*
X23499998Y-33580468D01*
X23447675Y-33558795D01*
X23428365Y-33539485D01*
X23384621Y-33514229D01*
X23297139Y-33463721D01*
X23297130Y-33463717D01*
X23150768Y-33424500D01*
X23150766Y-33424500D01*
X22999234Y-33424500D01*
X22999232Y-33424500D01*
X22852869Y-33463717D01*
X22852860Y-33463721D01*
X22721637Y-33539483D01*
X22614483Y-33646637D01*
X22538721Y-33777860D01*
X22538717Y-33777869D01*
X22499500Y-33924231D01*
X250000Y-33924231D01*
X250000Y-30124231D01*
X50499500Y-30124231D01*
X50499500Y-30275768D01*
X50538717Y-30422130D01*
X50538718Y-30422133D01*
X50538719Y-30422135D01*
X50614485Y-30553365D01*
X50721635Y-30660515D01*
X50852865Y-30736281D01*
X50999231Y-30775499D01*
X50999232Y-30775500D01*
X50999234Y-30775500D01*
X51150768Y-30775500D01*
X51150768Y-30775499D01*
X51297135Y-30736281D01*
X51428365Y-30660515D01*
X51447675Y-30641204D01*
X51500000Y-30619531D01*
X51552324Y-30641204D01*
X51571635Y-30660515D01*
X51702865Y-30736281D01*
X51849231Y-30775499D01*
X51849232Y-30775500D01*
X51849234Y-30775500D01*
X52000768Y-30775500D01*
X52000768Y-30775499D01*
X52147135Y-30736281D01*
X52278365Y-30660515D01*
X52385515Y-30553365D01*
X52461281Y-30422135D01*
X52500499Y-30275768D01*
X52500500Y-30275768D01*
X52500500Y-30124232D01*
X52500499Y-30124231D01*
X52461282Y-29977869D01*
X52461281Y-29977865D01*
X52385515Y-29846635D01*
X52278365Y-29739485D01*
X52278362Y-29739483D01*
X52147139Y-29663721D01*
X52147130Y-29663717D01*
X52000768Y-29624500D01*
X52000766Y-29624500D01*
X51849234Y-29624500D01*
X51849232Y-29624500D01*
X51702869Y-29663717D01*
X51702860Y-29663721D01*
X51571636Y-29739484D01*
X51552325Y-29758795D01*
X51499998Y-29780468D01*
X51447675Y-29758795D01*
X51428365Y-29739485D01*
X51384621Y-29714229D01*
X51297139Y-29663721D01*
X51297130Y-29663717D01*
X51150768Y-29624500D01*
X51150766Y-29624500D01*
X50999234Y-29624500D01*
X50999232Y-29624500D01*
X50852869Y-29663717D01*
X50852860Y-29663721D01*
X50721637Y-29739483D01*
X50614483Y-29846637D01*
X50538721Y-29977860D01*
X50538717Y-29977869D01*
X50499500Y-30124231D01*
X250000Y-30124231D01*
X250000Y-22477521D01*
X44589500Y-22477521D01*
X44589500Y-22622476D01*
X44627014Y-22762480D01*
X44627016Y-22762485D01*
X44699491Y-22888014D01*
X44801985Y-22990508D01*
X44927515Y-23062983D01*
X44927516Y-23062983D01*
X44927518Y-23062984D01*
X44997520Y-23081741D01*
X45067522Y-23100498D01*
X45067523Y-23100499D01*
X45067525Y-23100499D01*
X45212477Y-23100499D01*
X45212477Y-23100498D01*
X45352485Y-23062983D01*
X45478015Y-22990508D01*
X45580509Y-22888014D01*
X45652984Y-22762484D01*
X45690499Y-22622476D01*
X45690500Y-22622476D01*
X45690500Y-22477522D01*
X45690499Y-22477521D01*
X45652985Y-22337517D01*
X45652983Y-22337512D01*
X45580508Y-22211983D01*
X45478015Y-22109490D01*
X45352486Y-22037015D01*
X45352481Y-22037013D01*
X45212477Y-21999499D01*
X45212475Y-21999499D01*
X45067525Y-21999499D01*
X45067523Y-21999499D01*
X44927518Y-22037013D01*
X44927513Y-22037015D01*
X44801984Y-22109490D01*
X44699491Y-22211983D01*
X44627016Y-22337512D01*
X44627014Y-22337517D01*
X44589500Y-22477521D01*
X250000Y-22477521D01*
X250000Y-15701383D01*
X81575501Y-15701383D01*
X81575501Y-15846338D01*
X81613015Y-15986342D01*
X81613017Y-15986347D01*
X81685492Y-16111876D01*
X81787986Y-16214370D01*
X81913516Y-16286845D01*
X81913517Y-16286845D01*
X81913519Y-16286846D01*
X81983521Y-16305603D01*
X82053523Y-16324360D01*
X82053524Y-16324361D01*
X82053526Y-16324361D01*
X82198478Y-16324361D01*
X82198478Y-16324360D01*
X82338486Y-16286845D01*
X82464016Y-16214370D01*
X82566510Y-16111876D01*
X82638985Y-15986346D01*
X82676500Y-15846338D01*
X82676501Y-15846338D01*
X82676501Y-15701384D01*
X82676500Y-15701383D01*
X82638986Y-15561379D01*
X82638984Y-15561374D01*
X82566509Y-15435845D01*
X82464016Y-15333352D01*
X82338487Y-15260877D01*
X82338482Y-15260875D01*
X82198478Y-15223361D01*
X82198476Y-15223361D01*
X82053526Y-15223361D01*
X82053524Y-15223361D01*
X81913519Y-15260875D01*
X81913514Y-15260877D01*
X81787985Y-15333352D01*
X81685492Y-15435845D01*
X81613017Y-15561374D01*
X81613015Y-15561379D01*
X81575501Y-15701383D01*
X250000Y-15701383D01*
X250000Y-11527521D01*
X55199500Y-11527521D01*
X55199500Y-11672476D01*
X55237014Y-11812480D01*
X55237016Y-11812485D01*
X55309491Y-11938014D01*
X55411985Y-12040508D01*
X55537515Y-12112983D01*
X55537516Y-12112983D01*
X55537518Y-12112984D01*
X55607520Y-12131741D01*
X55677522Y-12150498D01*
X55677523Y-12150499D01*
X55677525Y-12150499D01*
X55822477Y-12150499D01*
X55822477Y-12150498D01*
X55962485Y-12112983D01*
X56088015Y-12040508D01*
X56190509Y-11938014D01*
X56262984Y-11812484D01*
X56300499Y-11672476D01*
X56300500Y-11672476D01*
X56300500Y-11527522D01*
X56300499Y-11527521D01*
X56262985Y-11387517D01*
X56262983Y-11387512D01*
X56190508Y-11261983D01*
X56088015Y-11159490D01*
X55962486Y-11087015D01*
X55962481Y-11087013D01*
X55822477Y-11049499D01*
X55822475Y-11049499D01*
X55677525Y-11049499D01*
X55677523Y-11049499D01*
X55537518Y-11087013D01*
X55537513Y-11087015D01*
X55411984Y-11159490D01*
X55309491Y-11261983D01*
X55237016Y-11387512D01*
X55237014Y-11387517D01*
X55199500Y-11527521D01*
X250000Y-11527521D01*
X250000Y-3003638D01*
X250356Y-2996385D01*
X302126Y-2470747D01*
X304953Y-2456534D01*
X457217Y-1954587D01*
X462768Y-1941189D01*
X710024Y-1478605D01*
X718076Y-1466553D01*
X1050833Y-1061088D01*
X1061090Y-1050832D01*
X1466553Y-718076D01*
X1478605Y-710024D01*
X1941192Y-462766D01*
X1954587Y-457217D01*
X2456534Y-304953D01*
X2470747Y-302126D01*
X2996385Y-250355D01*
X3003638Y-250000D01*
X96996362Y-250000D01*
X97003614Y-250355D01*
G37*
%TD.AperFunction*%
%TD*%
M02*
