%TF.GenerationSoftware,KiCad,Pcbnew,10.0.5*%
%TF.CreationDate,2026-08-09T20:37:15+01:00*%
%TF.ProjectId,radar_5g8_pa,72616461-725f-4356-9738-5f70612e6b69,rev?*%
%TF.SameCoordinates,Original*%
%TF.FileFunction,Copper,L4,Bot*%
%TF.FilePolarity,Positive*%
%FSLAX46Y46*%
G04 Gerber Fmt 4.6, Leading zero omitted, Abs format (unit mm)*
G04 Created by KiCad (PCBNEW 10.0.5) date 2026-08-09 20:37:15*
%MOMM*%
%LPD*%
G01*
G04 APERTURE LIST*
%TA.AperFunction,ComponentPad*%
%ADD10C,6.000000*%
%TD*%
%TA.AperFunction,ComponentPad*%
%ADD11C,1.700000*%
%TD*%
%TA.AperFunction,SMDPad,CuDef*%
%ADD12R,7.200000X7.199999*%
%TD*%
%TA.AperFunction,SMDPad,CuDef*%
%ADD13R,5.200000X6.800000*%
%TD*%
%TA.AperFunction,ViaPad*%
%ADD14C,0.600000*%
%TD*%
%TA.AperFunction,ViaPad*%
%ADD15C,0.750000*%
%TD*%
%TA.AperFunction,ViaPad*%
%ADD16C,0.520000*%
%TD*%
%TA.AperFunction,ViaPad*%
%ADD17C,0.550000*%
%TD*%
%TA.AperFunction,ViaPad*%
%ADD18C,0.500000*%
%TD*%
G04 APERTURE END LIST*
D10*
%TO.P,H95_79,1*%
%TO.N,GND*%
X95000000Y-5000000D03*
%TD*%
%TO.P,H36_62,1*%
%TO.N,GND*%
X36500000Y-22000000D03*
%TD*%
%TO.P,H36_22,1*%
%TO.N,GND*%
X36500000Y-62000000D03*
%TD*%
%TO.P,H5_79,1*%
%TO.N,GND*%
X5000000Y-5000000D03*
%TD*%
%TO.P,H5_5,1*%
%TO.N,GND*%
X5000000Y-79000000D03*
%TD*%
D11*
%TO.P,J5,1*%
%TO.N,EN*%
X89730000Y-34380000D03*
%TO.P,J5,2*%
%TO.N,GND*%
X92270000Y-34380000D03*
%TO.P,J5,3*%
X89730000Y-36920000D03*
%TO.P,J5,4*%
%TO.N,DETA*%
X92270000Y-36920000D03*
%TO.P,J5,5*%
%TO.N,TEMPA*%
X89730000Y-39460000D03*
%TO.P,J5,6*%
%TO.N,GND*%
X92270000Y-39460000D03*
%TO.P,J5,7*%
%TO.N,IMONA*%
X89730000Y-42000000D03*
%TO.P,J5,8*%
%TO.N,GND*%
X92270000Y-42000000D03*
%TO.P,J5,9*%
%TO.N,IMONB*%
X89730000Y-44540000D03*
%TO.P,J5,10*%
%TO.N,GND*%
X92270000Y-44540000D03*
%TO.P,J5,11*%
%TO.N,TEMPB*%
X89730000Y-47080000D03*
%TO.P,J5,12*%
%TO.N,GND*%
X92270000Y-47080000D03*
%TO.P,J5,13*%
X89730000Y-49620000D03*
%TO.P,J5,14*%
%TO.N,DETB*%
X92270000Y-49620000D03*
%TD*%
D10*
%TO.P,H95_5,1*%
%TO.N,GND*%
X95000000Y-79000000D03*
%TD*%
D12*
%TO.P,TP1,1*%
%TO.N,GND*%
X40500000Y-10000000D03*
%TD*%
D13*
%TO.P,TP2,1*%
%TO.N,GND*%
X22500000Y-10000000D03*
%TD*%
%TO.P,TP4,1*%
%TO.N,GND*%
X22500000Y-74000000D03*
%TD*%
D12*
%TO.P,TP3,1*%
%TO.N,GND*%
X40500000Y-74000000D03*
%TD*%
D14*
%TO.N,DETA*%
X94981001Y-14773861D03*
%TO.N,DETB*%
X94981001Y-69226138D03*
%TO.N,EN*%
X65000000Y-33880000D03*
D15*
%TO.N,GND*%
X63000000Y-30000000D03*
X54000000Y-48000000D03*
X3000000Y-36000000D03*
X54000000Y-39000000D03*
X24000000Y-81000000D03*
X12000000Y-42000000D03*
D16*
X41740000Y-72760000D03*
D15*
X3000000Y-27000000D03*
X87000000Y-3000000D03*
X51000000Y-78000000D03*
D16*
X38640000Y-75240000D03*
D15*
X33000000Y-81000000D03*
D16*
X42360000Y-75240000D03*
D15*
X18000000Y-36000000D03*
D17*
X93000000Y-63230000D03*
D15*
X3000000Y-33000000D03*
X12000000Y-81000000D03*
D17*
X91381001Y-68056138D03*
D15*
X48000000Y-30000000D03*
D16*
X41120000Y-75860000D03*
D17*
X26700000Y-24374152D03*
D15*
X12000000Y-39000000D03*
D16*
X38020000Y-7519999D03*
X41120000Y-8760000D03*
D15*
X66000000Y-21000000D03*
D16*
X41120000Y-11860000D03*
D15*
X3000000Y-51000000D03*
X69000000Y-60000000D03*
X51000000Y-39000000D03*
X66000000Y-6000000D03*
X66000000Y-63000000D03*
X2469999Y-71245135D03*
X12000000Y-6000000D03*
X3740000Y-12754864D03*
X3000000Y-48000000D03*
D17*
X33369999Y-52950000D03*
D15*
X72000000Y-21000000D03*
X96000000Y-39000000D03*
X54000000Y-30000000D03*
X18000000Y-78000000D03*
X63000000Y-54000000D03*
X60000000Y-81000000D03*
D17*
X52000000Y-15170000D03*
D15*
X6000000Y-60000000D03*
D18*
X40500000Y-74600000D03*
D15*
X75000000Y-81000000D03*
X42000000Y-69000000D03*
X21000000Y-81000000D03*
X72000000Y-54000000D03*
D18*
X21950000Y-76387500D03*
D17*
X25000000Y-59625847D03*
D15*
X27000000Y-66000000D03*
X51000000Y-30000000D03*
D17*
X8600000Y-11170000D03*
D15*
X15000000Y-48000000D03*
D16*
X41740000Y-74620000D03*
D15*
X6000000Y-18000000D03*
X48000000Y-3000000D03*
X66000000Y-81000000D03*
X63000000Y-69000000D03*
X72000000Y-51000000D03*
D18*
X23050000Y-76387500D03*
D15*
X72000000Y-57000000D03*
X78000000Y-6000000D03*
D17*
X48500000Y-24374152D03*
D15*
X54000000Y-78000000D03*
X75000000Y-57000000D03*
X96259999Y-12754864D03*
X1200000Y-76754864D03*
X78000000Y-3000000D03*
X30000000Y-48000000D03*
X27000000Y-69000000D03*
X42000000Y-78000000D03*
D16*
X38640000Y-72140000D03*
D15*
X69000000Y-69000000D03*
X36000000Y-81000000D03*
X69000000Y-57000000D03*
X6000000Y-69000000D03*
X42000000Y-63000000D03*
X97530000Y-12754864D03*
X12000000Y-18000000D03*
X42000000Y-15000000D03*
X12000000Y-27000000D03*
X3000000Y-45000000D03*
X63000000Y-3000000D03*
X27000000Y-78000000D03*
X24000000Y-15000000D03*
X51000000Y-21000000D03*
X6000000Y-27000000D03*
X21000000Y-42000000D03*
X54000000Y-36000000D03*
X24000000Y-63000000D03*
X15000000Y-30000000D03*
X84000000Y-60000000D03*
X60000000Y-6000000D03*
X6000000Y-21000000D03*
X75000000Y-51000000D03*
D16*
X41740000Y-73380000D03*
X39260000Y-12480000D03*
D18*
X21950000Y-7612499D03*
D15*
X24000000Y-18000000D03*
X51000000Y-63000000D03*
X66000000Y-27000000D03*
X84000000Y-3000000D03*
D17*
X89800000Y-27830000D03*
X12400000Y-72830000D03*
D15*
X18000000Y-54000000D03*
X24000000Y-21000000D03*
X97530000Y-76754864D03*
X24000000Y-36000000D03*
X98800000Y-7245135D03*
X63000000Y-27000000D03*
D18*
X40500000Y-10599999D03*
D15*
X54000000Y-63000000D03*
D17*
X16149999Y-25504152D03*
D15*
X54000000Y-51000000D03*
X3000000Y-18000000D03*
X18000000Y-42000000D03*
X63000000Y-6000000D03*
X6000000Y-63000000D03*
X78000000Y-57000000D03*
X30000000Y-42000000D03*
D17*
X16149999Y-58495847D03*
D15*
X60000000Y-78000000D03*
X12000000Y-48000000D03*
X6000000Y-33000000D03*
X27000000Y-3000000D03*
D16*
X41740000Y-11860000D03*
X39880000Y-75860000D03*
X41120000Y-76480000D03*
X39260000Y-11239999D03*
D15*
X63000000Y-81000000D03*
D17*
X22500000Y-56130000D03*
D15*
X87000000Y-63000000D03*
D17*
X35070000Y-31049999D03*
D15*
X96259999Y-15245135D03*
X60000000Y-18000000D03*
X78000000Y-81000000D03*
X78000000Y-78000000D03*
X69000000Y-21000000D03*
X24000000Y-66000000D03*
D17*
X50200000Y-59625847D03*
D15*
X30000000Y-3000000D03*
D16*
X39260000Y-75860000D03*
D15*
X30000000Y-69000000D03*
D16*
X38020000Y-72760000D03*
D15*
X45000000Y-30000000D03*
X30000000Y-81000000D03*
D16*
X39260000Y-73380000D03*
D15*
X1200000Y-7245135D03*
X81000000Y-81000000D03*
X3000000Y-66000000D03*
X18000000Y-81000000D03*
X33000000Y-3000000D03*
X9000000Y-48000000D03*
X45000000Y-54000000D03*
X9000000Y-57000000D03*
D16*
X38020000Y-8760000D03*
D15*
X42000000Y-18000000D03*
D16*
X41120000Y-71520000D03*
D15*
X24000000Y-48000000D03*
X18000000Y-51000000D03*
X60000000Y-66000000D03*
X69000000Y-78000000D03*
X12000000Y-24000000D03*
X12000000Y-36000000D03*
D16*
X42360000Y-72140000D03*
D15*
X78000000Y-51000000D03*
D17*
X83150000Y-26700000D03*
D18*
X41100000Y-9400000D03*
D15*
X15000000Y-63000000D03*
D17*
X50200000Y-24374152D03*
D15*
X98800000Y-71245135D03*
X66000000Y-69000000D03*
X57000000Y-81000000D03*
X98800000Y-20754864D03*
D17*
X53949999Y-25504152D03*
D15*
X30000000Y-36000000D03*
X97530000Y-71245135D03*
X33000000Y-78000000D03*
X45000000Y-18000000D03*
X66000000Y-54000000D03*
D17*
X35070000Y-52950000D03*
D15*
X69000000Y-15000000D03*
X66000000Y-60000000D03*
D16*
X39880000Y-12480000D03*
D15*
X9000000Y-63000000D03*
X60000000Y-69000000D03*
X3000000Y-39000000D03*
X60000000Y-21000000D03*
X15000000Y-42000000D03*
X54000000Y-66000000D03*
X18000000Y-66000000D03*
X9000000Y-66000000D03*
X45000000Y-24000000D03*
X1200000Y-71245135D03*
X9000000Y-21000000D03*
X18000000Y-45000000D03*
X3000000Y-42000000D03*
X72000000Y-60000000D03*
X54000000Y-18000000D03*
X60000000Y-36000000D03*
X36000000Y-3000000D03*
X98800000Y-63245135D03*
X87000000Y-78000000D03*
D17*
X86350000Y-26700000D03*
D15*
X3000000Y-30000000D03*
X9000000Y-27000000D03*
X21000000Y-69000000D03*
X15000000Y-18000000D03*
X39000000Y-27000000D03*
D16*
X41740000Y-7519999D03*
D15*
X39000000Y-15000000D03*
X63000000Y-51000000D03*
X12000000Y-78000000D03*
X81000000Y-63000000D03*
D16*
X41740000Y-12480000D03*
D18*
X41100000Y-73400000D03*
D15*
X90000000Y-60000000D03*
D16*
X41120000Y-11239999D03*
D15*
X24000000Y-42000000D03*
X45000000Y-66000000D03*
X6000000Y-66000000D03*
D18*
X21950000Y-77487500D03*
D15*
X75000000Y-27000000D03*
X75000000Y-78000000D03*
X9000000Y-15000000D03*
X27000000Y-81000000D03*
X36000000Y-69000000D03*
X33000000Y-48000000D03*
D16*
X39260000Y-74620000D03*
D15*
X18000000Y-30000000D03*
X3000000Y-21000000D03*
D17*
X91381001Y-15943861D03*
D15*
X93000000Y-60000000D03*
X36000000Y-15000000D03*
X72000000Y-6000000D03*
X54000000Y-33000000D03*
X18000000Y-39000000D03*
X90000000Y-3000000D03*
X60000000Y-15000000D03*
X15000000Y-33000000D03*
X24000000Y-33000000D03*
D16*
X38020000Y-71520000D03*
D15*
X78000000Y-63000000D03*
D16*
X42980000Y-8140000D03*
D18*
X22500000Y-76937500D03*
D15*
X12000000Y-54000000D03*
D17*
X88050000Y-26700000D03*
D15*
X18000000Y-48000000D03*
X6000000Y-48000000D03*
D16*
X42980000Y-71520000D03*
D15*
X6000000Y-39000000D03*
D17*
X27229999Y-63575847D03*
D15*
X63000000Y-15000000D03*
X18000000Y-18000000D03*
X9000000Y-45000000D03*
X97530000Y-68754864D03*
X15000000Y-3000000D03*
X9000000Y-30000000D03*
X36000000Y-57000000D03*
X18000000Y-63000000D03*
X33000000Y-6000000D03*
X12000000Y-63000000D03*
X51000000Y-57000000D03*
X54000000Y-81000000D03*
X60000000Y-54000000D03*
X45000000Y-3000000D03*
X12000000Y-66000000D03*
D17*
X47970000Y-63575847D03*
D16*
X42980000Y-7519999D03*
D18*
X40500000Y-9400000D03*
D15*
X3000000Y-57000000D03*
X57000000Y-3000000D03*
X84000000Y-63000000D03*
X45000000Y-15000000D03*
X84000000Y-57000000D03*
D16*
X42980000Y-76480000D03*
D15*
X87000000Y-6000000D03*
X42000000Y-3000000D03*
D17*
X87981001Y-15943861D03*
D15*
X36000000Y-27000000D03*
X63000000Y-63000000D03*
D17*
X53949999Y-58495847D03*
D15*
X90000000Y-81000000D03*
X57000000Y-78000000D03*
X39000000Y-78000000D03*
X66000000Y-18000000D03*
X60000000Y-51000000D03*
X12000000Y-33000000D03*
X36000000Y-6000000D03*
X21000000Y-63000000D03*
X69000000Y-51000000D03*
X3740000Y-76754864D03*
X42000000Y-24000000D03*
X30000000Y-15000000D03*
X63000000Y-78000000D03*
X27000000Y-15000000D03*
X15000000Y-51000000D03*
X12000000Y-51000000D03*
D18*
X41100000Y-10599999D03*
D15*
X60000000Y-3000000D03*
X33000000Y-69000000D03*
X39000000Y-54000000D03*
X6000000Y-51000000D03*
X3000000Y-63000000D03*
D16*
X38020000Y-76480000D03*
D15*
X96259999Y-76754864D03*
X90000000Y-78000000D03*
X96259999Y-71245135D03*
X84000000Y-51000000D03*
X93000000Y-54000000D03*
X81000000Y-21000000D03*
X69000000Y-81000000D03*
X81000000Y-57000000D03*
X51000000Y-33000000D03*
X24000000Y-51000000D03*
X63000000Y-18000000D03*
X87000000Y-54000000D03*
D18*
X40500000Y-73400000D03*
D15*
X24000000Y-69000000D03*
X66000000Y-66000000D03*
X60000000Y-60000000D03*
X12000000Y-21000000D03*
X18000000Y-6000000D03*
X6000000Y-15000000D03*
X75000000Y-6000000D03*
X75000000Y-3000000D03*
X12000000Y-60000000D03*
D16*
X39880000Y-11239999D03*
D15*
X33000000Y-36000000D03*
D16*
X39260000Y-72760000D03*
D15*
X78000000Y-15000000D03*
X96259999Y-63245135D03*
X3000000Y-24000000D03*
X72000000Y-3000000D03*
D17*
X84650000Y-22160000D03*
D15*
X60000000Y-57000000D03*
X39000000Y-30000000D03*
X63000000Y-57000000D03*
X54000000Y-6000000D03*
X54000000Y-21000000D03*
X24000000Y-3000000D03*
D18*
X23050000Y-8712499D03*
D15*
X9000000Y-42000000D03*
X90000000Y-63000000D03*
X15000000Y-69000000D03*
X63000000Y-60000000D03*
X42000000Y-81000000D03*
X45000000Y-81000000D03*
D16*
X39260000Y-76480000D03*
D18*
X23050000Y-6512500D03*
D15*
X81000000Y-54000000D03*
X30000000Y-30000000D03*
X15000000Y-78000000D03*
D16*
X38020000Y-11239999D03*
X42980000Y-11860000D03*
D17*
X47970000Y-20424152D03*
D15*
X9000000Y-24000000D03*
D17*
X82196001Y-15943861D03*
D15*
X42000000Y-42000000D03*
D18*
X22500000Y-7062500D03*
D16*
X41740000Y-11239999D03*
D15*
X96000000Y-45000000D03*
X48000000Y-54000000D03*
D18*
X39900000Y-9400000D03*
D15*
X3000000Y-60000000D03*
X72000000Y-81000000D03*
D18*
X23050000Y-77487500D03*
D15*
X84000000Y-6000000D03*
D16*
X39880000Y-76480000D03*
D15*
X75000000Y-54000000D03*
D18*
X23050000Y-7612499D03*
D17*
X24150000Y-55000000D03*
D15*
X45000000Y-60000000D03*
X72000000Y-63000000D03*
D18*
X39900000Y-10599999D03*
D17*
X82196001Y-68056138D03*
D18*
X39900000Y-74600000D03*
D15*
X30000000Y-6000000D03*
X98800000Y-68754864D03*
X51000000Y-51000000D03*
X39000000Y-36000000D03*
X30000000Y-78000000D03*
X27000000Y-18000000D03*
X90000000Y-6000000D03*
X12000000Y-15000000D03*
X69000000Y-63000000D03*
X63000000Y-21000000D03*
X69000000Y-18000000D03*
D16*
X41120000Y-7519999D03*
D15*
X21000000Y-3000000D03*
D16*
X41740000Y-9379999D03*
D15*
X9000000Y-39000000D03*
X9000000Y-54000000D03*
X98800000Y-15245135D03*
X84000000Y-78000000D03*
X78000000Y-54000000D03*
D17*
X87981001Y-68056138D03*
D15*
X97530000Y-7245135D03*
X81000000Y-60000000D03*
D17*
X52000000Y-68830000D03*
X26700000Y-59625847D03*
D15*
X6000000Y-36000000D03*
X39000000Y-42000000D03*
X96259999Y-20754864D03*
X18000000Y-21000000D03*
D16*
X40500000Y-75240000D03*
D15*
X87000000Y-81000000D03*
X3740000Y-7245135D03*
D16*
X41740000Y-76480000D03*
D15*
X42000000Y-6000000D03*
X75000000Y-21000000D03*
X27000000Y-42000000D03*
D18*
X22500000Y-8162499D03*
D15*
X9000000Y-33000000D03*
D16*
X42980000Y-72760000D03*
D15*
X12000000Y-30000000D03*
X51000000Y-6000000D03*
X51000000Y-81000000D03*
D18*
X21950000Y-75287500D03*
D16*
X42980000Y-11239999D03*
D15*
X69000000Y-6000000D03*
D18*
X21950000Y-6512500D03*
D15*
X6000000Y-24000000D03*
X60000000Y-63000000D03*
D17*
X27229999Y-20424152D03*
D15*
X90000000Y-21000000D03*
X78000000Y-21000000D03*
X75000000Y-63000000D03*
X39000000Y-81000000D03*
X90000000Y-57000000D03*
X90000000Y-54000000D03*
X15000000Y-15000000D03*
X6000000Y-57000000D03*
X72000000Y-78000000D03*
X12000000Y-69000000D03*
D17*
X48500000Y-59625847D03*
D15*
X98800000Y-76754864D03*
X45000000Y-21000000D03*
X1200000Y-12754864D03*
X3740000Y-71245135D03*
D18*
X39900000Y-73400000D03*
D15*
X78000000Y-69000000D03*
D16*
X39260000Y-9379999D03*
D15*
X6000000Y-54000000D03*
X27000000Y-48000000D03*
D16*
X42980000Y-12480000D03*
D15*
X12000000Y-45000000D03*
X9000000Y-69000000D03*
X2469999Y-76754864D03*
X39000000Y-57000000D03*
X36000000Y-42000000D03*
X54000000Y-54000000D03*
X9000000Y-36000000D03*
D17*
X8600000Y-72830000D03*
D15*
X66000000Y-78000000D03*
X66000000Y-3000000D03*
X15000000Y-36000000D03*
X2469999Y-7245135D03*
X81000000Y-78000000D03*
X96259999Y-7245135D03*
X6000000Y-30000000D03*
X66000000Y-51000000D03*
X42000000Y-21000000D03*
X6000000Y-42000000D03*
X54000000Y-3000000D03*
D17*
X25850000Y-55000000D03*
D15*
X27000000Y-6000000D03*
D16*
X38020000Y-75860000D03*
D15*
X48000000Y-81000000D03*
D17*
X22500000Y-27870000D03*
D15*
X57000000Y-6000000D03*
D18*
X23050000Y-75287500D03*
D17*
X33369999Y-31049999D03*
X89681001Y-15943861D03*
D15*
X97530000Y-20754864D03*
X87000000Y-60000000D03*
X66000000Y-15000000D03*
X30000000Y-54000000D03*
D17*
X25850000Y-29000000D03*
X63500000Y-35050000D03*
D15*
X42000000Y-66000000D03*
X36000000Y-36000000D03*
X48000000Y-6000000D03*
X21000000Y-66000000D03*
D16*
X41740000Y-75860000D03*
D15*
X39000000Y-3000000D03*
X81000000Y-3000000D03*
X3000000Y-54000000D03*
X69000000Y-27000000D03*
D17*
X84850000Y-26700000D03*
D15*
X2469999Y-12754864D03*
X98800000Y-12754864D03*
X15000000Y-66000000D03*
X84000000Y-81000000D03*
D18*
X41100000Y-74600000D03*
D15*
X15000000Y-81000000D03*
X45000000Y-63000000D03*
X21000000Y-21000000D03*
D17*
X24150000Y-29000000D03*
D15*
X39000000Y-48000000D03*
X51000000Y-3000000D03*
D16*
X41740000Y-8140000D03*
D15*
X51000000Y-36000000D03*
X18000000Y-3000000D03*
X78000000Y-60000000D03*
X15000000Y-54000000D03*
D17*
X17850000Y-25504152D03*
D15*
X33000000Y-42000000D03*
X12000000Y-57000000D03*
D17*
X86350000Y-22160000D03*
D15*
X21000000Y-15000000D03*
D16*
X41120000Y-72760000D03*
X39260000Y-11860000D03*
D15*
X45000000Y-6000000D03*
X9000000Y-60000000D03*
D17*
X89681001Y-68056138D03*
D16*
X41740000Y-71520000D03*
D15*
X66000000Y-57000000D03*
X21000000Y-18000000D03*
D16*
X38020000Y-8140000D03*
D15*
X9000000Y-18000000D03*
X18000000Y-69000000D03*
X15000000Y-6000000D03*
X75000000Y-60000000D03*
X33000000Y-15000000D03*
D16*
X38020000Y-12480000D03*
D15*
X15000000Y-39000000D03*
X93000000Y-57000000D03*
D17*
X12400000Y-11170000D03*
D15*
X36000000Y-78000000D03*
X27000000Y-36000000D03*
D16*
X39880000Y-11860000D03*
D15*
X51000000Y-18000000D03*
X6000000Y-45000000D03*
X69000000Y-54000000D03*
X45000000Y-69000000D03*
X96259999Y-68754864D03*
X81000000Y-6000000D03*
X93000000Y-27000000D03*
D16*
X42980000Y-75860000D03*
D15*
X51000000Y-48000000D03*
X97530000Y-15245135D03*
D18*
X22500000Y-75837500D03*
D16*
X38020000Y-11860000D03*
D15*
X18000000Y-15000000D03*
D16*
X42360000Y-8760000D03*
D15*
X45000000Y-78000000D03*
D17*
X55650000Y-58495847D03*
D16*
X41120000Y-8140000D03*
D15*
X96000000Y-42000000D03*
X87000000Y-57000000D03*
D17*
X25000000Y-24374152D03*
D15*
X69000000Y-66000000D03*
X18000000Y-33000000D03*
X97530000Y-63245135D03*
X69000000Y-3000000D03*
X72000000Y-27000000D03*
D17*
X17850000Y-58495847D03*
D18*
X21950000Y-8712499D03*
D15*
X87000000Y-51000000D03*
D17*
X55650000Y-25504152D03*
D15*
X63000000Y-66000000D03*
X12000000Y-3000000D03*
X81000000Y-51000000D03*
D16*
X41120000Y-12480000D03*
D15*
X36000000Y-48000000D03*
X15000000Y-21000000D03*
X51000000Y-27000000D03*
X48000000Y-78000000D03*
X51000000Y-66000000D03*
X15000000Y-45000000D03*
D17*
X93000000Y-20769999D03*
D15*
X42000000Y-60000000D03*
X9000000Y-51000000D03*
X84000000Y-54000000D03*
X51000000Y-54000000D03*
D14*
%TO.N,IMONA*%
X45140000Y-39950000D03*
%TO.N,IMONB*%
X45140000Y-44050000D03*
%TO.N,TEMPA*%
X56400000Y-14000000D03*
%TO.N,TEMPB*%
X56400000Y-70000000D03*
%TD*%
%TA.AperFunction,Conductor*%
%TO.N,GND*%
G36*
X97003614Y-250355D02*
G01*
X97529249Y-302126D01*
X97543466Y-304953D01*
X98045407Y-457216D01*
X98058809Y-462768D01*
X98521388Y-710021D01*
X98533450Y-718080D01*
X98938908Y-1050832D01*
X98949166Y-1061090D01*
X99281918Y-1466548D01*
X99289977Y-1478610D01*
X99537230Y-1941189D01*
X99542782Y-1954591D01*
X99695043Y-2456527D01*
X99697873Y-2470755D01*
X99749644Y-2996385D01*
X99750000Y-3003638D01*
X99750000Y-80996361D01*
X99749644Y-81003614D01*
X99697873Y-81529243D01*
X99695043Y-81543471D01*
X99542782Y-82045407D01*
X99537230Y-82058809D01*
X99289977Y-82521388D01*
X99281918Y-82533450D01*
X98949166Y-82938908D01*
X98938908Y-82949166D01*
X98533450Y-83281918D01*
X98521388Y-83289977D01*
X98058809Y-83537230D01*
X98045407Y-83542782D01*
X97543471Y-83695043D01*
X97529243Y-83697873D01*
X97003614Y-83749644D01*
X96996361Y-83750000D01*
X3003638Y-83750000D01*
X2996385Y-83749644D01*
X2470755Y-83697873D01*
X2456527Y-83695043D01*
X1954591Y-83542782D01*
X1941189Y-83537230D01*
X1478610Y-83289977D01*
X1466548Y-83281918D01*
X1061090Y-82949166D01*
X1050832Y-82938908D01*
X718080Y-82533450D01*
X710021Y-82521388D01*
X462768Y-82058809D01*
X457216Y-82045407D01*
X304953Y-81543466D01*
X302126Y-81529249D01*
X250356Y-81003614D01*
X250000Y-80996361D01*
X250000Y-69927522D01*
X55849500Y-69927522D01*
X55849500Y-70072477D01*
X55887014Y-70212481D01*
X55887016Y-70212486D01*
X55959491Y-70338015D01*
X56061985Y-70440509D01*
X56187515Y-70512984D01*
X56187516Y-70512984D01*
X56187518Y-70512985D01*
X56257520Y-70531742D01*
X56327522Y-70550499D01*
X56327523Y-70550500D01*
X56327525Y-70550500D01*
X56472477Y-70550500D01*
X56472477Y-70550499D01*
X56612485Y-70512984D01*
X56738015Y-70440509D01*
X56840509Y-70338015D01*
X56912984Y-70212485D01*
X56950499Y-70072477D01*
X56950500Y-70072477D01*
X56950500Y-69927523D01*
X56950499Y-69927522D01*
X56912985Y-69787518D01*
X56912983Y-69787513D01*
X56885044Y-69739121D01*
X56840509Y-69661985D01*
X56738015Y-69559491D01*
X56612486Y-69487016D01*
X56612481Y-69487014D01*
X56472477Y-69449500D01*
X56472475Y-69449500D01*
X56327525Y-69449500D01*
X56327523Y-69449500D01*
X56187518Y-69487014D01*
X56187513Y-69487016D01*
X56061984Y-69559491D01*
X55959491Y-69661984D01*
X55887016Y-69787513D01*
X55887014Y-69787518D01*
X55849500Y-69927522D01*
X250000Y-69927522D01*
X250000Y-69153660D01*
X94430501Y-69153660D01*
X94430501Y-69298615D01*
X94468015Y-69438619D01*
X94468017Y-69438624D01*
X94537800Y-69559491D01*
X94540492Y-69564153D01*
X94642986Y-69666647D01*
X94768516Y-69739122D01*
X94768517Y-69739122D01*
X94768519Y-69739123D01*
X94838521Y-69757880D01*
X94908523Y-69776637D01*
X94908524Y-69776638D01*
X94908526Y-69776638D01*
X95053478Y-69776638D01*
X95053478Y-69776637D01*
X95193486Y-69739122D01*
X95319016Y-69666647D01*
X95421510Y-69564153D01*
X95493985Y-69438623D01*
X95531500Y-69298615D01*
X95531501Y-69298615D01*
X95531501Y-69153661D01*
X95531500Y-69153660D01*
X95493986Y-69013656D01*
X95493984Y-69013651D01*
X95421509Y-68888122D01*
X95319016Y-68785629D01*
X95193487Y-68713154D01*
X95193482Y-68713152D01*
X95053478Y-68675638D01*
X95053476Y-68675638D01*
X94908526Y-68675638D01*
X94908524Y-68675638D01*
X94768519Y-68713152D01*
X94768514Y-68713154D01*
X94642985Y-68785629D01*
X94540492Y-68888122D01*
X94468017Y-69013651D01*
X94468015Y-69013656D01*
X94430501Y-69153660D01*
X250000Y-69153660D01*
X250000Y-49533388D01*
X91169500Y-49533388D01*
X91169500Y-49706611D01*
X91196597Y-49877698D01*
X91196600Y-49877711D01*
X91250125Y-50042442D01*
X91250127Y-50042446D01*
X91328767Y-50196787D01*
X91328768Y-50196788D01*
X91430586Y-50336928D01*
X91553072Y-50459414D01*
X91553075Y-50459416D01*
X91553076Y-50459417D01*
X91693212Y-50561232D01*
X91847553Y-50639872D01*
X91847557Y-50639874D01*
X92012288Y-50693399D01*
X92012294Y-50693400D01*
X92012299Y-50693402D01*
X92126359Y-50711467D01*
X92183388Y-50720500D01*
X92183389Y-50720500D01*
X92356612Y-50720500D01*
X92399383Y-50713725D01*
X92527701Y-50693402D01*
X92527708Y-50693399D01*
X92527711Y-50693399D01*
X92692442Y-50639874D01*
X92692442Y-50639873D01*
X92692445Y-50639873D01*
X92846788Y-50561232D01*
X92986928Y-50459414D01*
X93109414Y-50336928D01*
X93211232Y-50196788D01*
X93289873Y-50042445D01*
X93343402Y-49877701D01*
X93370500Y-49706611D01*
X93370500Y-49533389D01*
X93343402Y-49362299D01*
X93343400Y-49362294D01*
X93343399Y-49362288D01*
X93289874Y-49197557D01*
X93289872Y-49197553D01*
X93211232Y-49043212D01*
X93109417Y-48903076D01*
X93109416Y-48903075D01*
X93109414Y-48903072D01*
X92986928Y-48780586D01*
X92986925Y-48780583D01*
X92986923Y-48780582D01*
X92846787Y-48678767D01*
X92692446Y-48600127D01*
X92692442Y-48600125D01*
X92527711Y-48546600D01*
X92527698Y-48546597D01*
X92356612Y-48519500D01*
X92356611Y-48519500D01*
X92183389Y-48519500D01*
X92183388Y-48519500D01*
X92012301Y-48546597D01*
X92012288Y-48546600D01*
X91847557Y-48600125D01*
X91847553Y-48600127D01*
X91693212Y-48678767D01*
X91553076Y-48780582D01*
X91430582Y-48903076D01*
X91328767Y-49043212D01*
X91250127Y-49197553D01*
X91250125Y-49197557D01*
X91196600Y-49362288D01*
X91196597Y-49362301D01*
X91169500Y-49533388D01*
X250000Y-49533388D01*
X250000Y-46993388D01*
X88629500Y-46993388D01*
X88629500Y-47166611D01*
X88656597Y-47337698D01*
X88656600Y-47337711D01*
X88710125Y-47502442D01*
X88710127Y-47502446D01*
X88788767Y-47656787D01*
X88788768Y-47656788D01*
X88890586Y-47796928D01*
X89013072Y-47919414D01*
X89013075Y-47919416D01*
X89013076Y-47919417D01*
X89153212Y-48021232D01*
X89307553Y-48099872D01*
X89307557Y-48099874D01*
X89472288Y-48153399D01*
X89472294Y-48153400D01*
X89472299Y-48153402D01*
X89586359Y-48171467D01*
X89643388Y-48180500D01*
X89643389Y-48180500D01*
X89816612Y-48180500D01*
X89859383Y-48173725D01*
X89987701Y-48153402D01*
X89987708Y-48153399D01*
X89987711Y-48153399D01*
X90152442Y-48099874D01*
X90152442Y-48099873D01*
X90152445Y-48099873D01*
X90306788Y-48021232D01*
X90446928Y-47919414D01*
X90569414Y-47796928D01*
X90671232Y-47656788D01*
X90749873Y-47502445D01*
X90803402Y-47337701D01*
X90830500Y-47166611D01*
X90830500Y-46993389D01*
X90803402Y-46822299D01*
X90803400Y-46822294D01*
X90803399Y-46822288D01*
X90749874Y-46657557D01*
X90749872Y-46657553D01*
X90671232Y-46503212D01*
X90569417Y-46363076D01*
X90569416Y-46363075D01*
X90569414Y-46363072D01*
X90446928Y-46240586D01*
X90446925Y-46240583D01*
X90446923Y-46240582D01*
X90306787Y-46138767D01*
X90152446Y-46060127D01*
X90152442Y-46060125D01*
X89987711Y-46006600D01*
X89987698Y-46006597D01*
X89816612Y-45979500D01*
X89816611Y-45979500D01*
X89643389Y-45979500D01*
X89643388Y-45979500D01*
X89472301Y-46006597D01*
X89472288Y-46006600D01*
X89307557Y-46060125D01*
X89307553Y-46060127D01*
X89153212Y-46138767D01*
X89013076Y-46240582D01*
X88890582Y-46363076D01*
X88788767Y-46503212D01*
X88710127Y-46657553D01*
X88710125Y-46657557D01*
X88656600Y-46822288D01*
X88656597Y-46822301D01*
X88629500Y-46993388D01*
X250000Y-46993388D01*
X250000Y-43977522D01*
X44589500Y-43977522D01*
X44589500Y-44122477D01*
X44627014Y-44262481D01*
X44627016Y-44262486D01*
X44699491Y-44388015D01*
X44801985Y-44490509D01*
X44927515Y-44562984D01*
X44927516Y-44562984D01*
X44927518Y-44562985D01*
X44997520Y-44581742D01*
X45067522Y-44600499D01*
X45067523Y-44600500D01*
X45067525Y-44600500D01*
X45212477Y-44600500D01*
X45212477Y-44600499D01*
X45352485Y-44562984D01*
X45478015Y-44490509D01*
X45515136Y-44453388D01*
X88629500Y-44453388D01*
X88629500Y-44626611D01*
X88656597Y-44797698D01*
X88656600Y-44797711D01*
X88710125Y-44962442D01*
X88710127Y-44962446D01*
X88788767Y-45116787D01*
X88788768Y-45116788D01*
X88890586Y-45256928D01*
X89013072Y-45379414D01*
X89013075Y-45379416D01*
X89013076Y-45379417D01*
X89153212Y-45481232D01*
X89307553Y-45559872D01*
X89307557Y-45559874D01*
X89472288Y-45613399D01*
X89472294Y-45613400D01*
X89472299Y-45613402D01*
X89586359Y-45631467D01*
X89643388Y-45640500D01*
X89643389Y-45640500D01*
X89816612Y-45640500D01*
X89859383Y-45633725D01*
X89987701Y-45613402D01*
X89987708Y-45613399D01*
X89987711Y-45613399D01*
X90152442Y-45559874D01*
X90152442Y-45559873D01*
X90152445Y-45559873D01*
X90306788Y-45481232D01*
X90446928Y-45379414D01*
X90569414Y-45256928D01*
X90671232Y-45116788D01*
X90749873Y-44962445D01*
X90803402Y-44797701D01*
X90830500Y-44626611D01*
X90830500Y-44453389D01*
X90803402Y-44282299D01*
X90803400Y-44282294D01*
X90803399Y-44282288D01*
X90749874Y-44117557D01*
X90749872Y-44117553D01*
X90671232Y-43963212D01*
X90569417Y-43823076D01*
X90569416Y-43823075D01*
X90569414Y-43823072D01*
X90446928Y-43700586D01*
X90446925Y-43700583D01*
X90446923Y-43700582D01*
X90306787Y-43598767D01*
X90152446Y-43520127D01*
X90152442Y-43520125D01*
X89987711Y-43466600D01*
X89987698Y-43466597D01*
X89816612Y-43439500D01*
X89816611Y-43439500D01*
X89643389Y-43439500D01*
X89643388Y-43439500D01*
X89472301Y-43466597D01*
X89472288Y-43466600D01*
X89307557Y-43520125D01*
X89307553Y-43520127D01*
X89153212Y-43598767D01*
X89013076Y-43700582D01*
X88890582Y-43823076D01*
X88788767Y-43963212D01*
X88710127Y-44117553D01*
X88710125Y-44117557D01*
X88656600Y-44282288D01*
X88656597Y-44282301D01*
X88629500Y-44453388D01*
X45515136Y-44453388D01*
X45580509Y-44388015D01*
X45652984Y-44262485D01*
X45690499Y-44122477D01*
X45690500Y-44122477D01*
X45690500Y-43977523D01*
X45690499Y-43977522D01*
X45652985Y-43837518D01*
X45652983Y-43837513D01*
X45580508Y-43711984D01*
X45478015Y-43609491D01*
X45352486Y-43537016D01*
X45352481Y-43537014D01*
X45212477Y-43499500D01*
X45212475Y-43499500D01*
X45067525Y-43499500D01*
X45067523Y-43499500D01*
X44927518Y-43537014D01*
X44927513Y-43537016D01*
X44801984Y-43609491D01*
X44699491Y-43711984D01*
X44627016Y-43837513D01*
X44627014Y-43837518D01*
X44589500Y-43977522D01*
X250000Y-43977522D01*
X250000Y-41913388D01*
X88629500Y-41913388D01*
X88629500Y-42086611D01*
X88656597Y-42257698D01*
X88656600Y-42257711D01*
X88710125Y-42422442D01*
X88710127Y-42422446D01*
X88788767Y-42576787D01*
X88788768Y-42576788D01*
X88890586Y-42716928D01*
X89013072Y-42839414D01*
X89013075Y-42839416D01*
X89013076Y-42839417D01*
X89153212Y-42941232D01*
X89307553Y-43019872D01*
X89307557Y-43019874D01*
X89472288Y-43073399D01*
X89472294Y-43073400D01*
X89472299Y-43073402D01*
X89586359Y-43091467D01*
X89643388Y-43100500D01*
X89643389Y-43100500D01*
X89816612Y-43100500D01*
X89859383Y-43093725D01*
X89987701Y-43073402D01*
X89987708Y-43073399D01*
X89987711Y-43073399D01*
X90152442Y-43019874D01*
X90152442Y-43019873D01*
X90152445Y-43019873D01*
X90306788Y-42941232D01*
X90446928Y-42839414D01*
X90569414Y-42716928D01*
X90671232Y-42576788D01*
X90749873Y-42422445D01*
X90803402Y-42257701D01*
X90830500Y-42086611D01*
X90830500Y-41913389D01*
X90803402Y-41742299D01*
X90803400Y-41742294D01*
X90803399Y-41742288D01*
X90749874Y-41577557D01*
X90749872Y-41577553D01*
X90671232Y-41423212D01*
X90569417Y-41283076D01*
X90569416Y-41283075D01*
X90569414Y-41283072D01*
X90446928Y-41160586D01*
X90446925Y-41160583D01*
X90446923Y-41160582D01*
X90306787Y-41058767D01*
X90152446Y-40980127D01*
X90152442Y-40980125D01*
X89987711Y-40926600D01*
X89987698Y-40926597D01*
X89816612Y-40899500D01*
X89816611Y-40899500D01*
X89643389Y-40899500D01*
X89643388Y-40899500D01*
X89472301Y-40926597D01*
X89472288Y-40926600D01*
X89307557Y-40980125D01*
X89307553Y-40980127D01*
X89153212Y-41058767D01*
X89013076Y-41160582D01*
X88890582Y-41283076D01*
X88788767Y-41423212D01*
X88710127Y-41577553D01*
X88710125Y-41577557D01*
X88656600Y-41742288D01*
X88656597Y-41742301D01*
X88629500Y-41913388D01*
X250000Y-41913388D01*
X250000Y-39877522D01*
X44589500Y-39877522D01*
X44589500Y-40022477D01*
X44627014Y-40162481D01*
X44627016Y-40162486D01*
X44699491Y-40288015D01*
X44801985Y-40390509D01*
X44927515Y-40462984D01*
X44927516Y-40462984D01*
X44927518Y-40462985D01*
X44990541Y-40479872D01*
X45067522Y-40500499D01*
X45067523Y-40500500D01*
X45067525Y-40500500D01*
X45212477Y-40500500D01*
X45212477Y-40500499D01*
X45352485Y-40462984D01*
X45478015Y-40390509D01*
X45580509Y-40288015D01*
X45652984Y-40162485D01*
X45690499Y-40022477D01*
X45690500Y-40022477D01*
X45690500Y-39877523D01*
X45690499Y-39877522D01*
X45652985Y-39737518D01*
X45652983Y-39737513D01*
X45580508Y-39611984D01*
X45478015Y-39509491D01*
X45352486Y-39437016D01*
X45352481Y-39437014D01*
X45212477Y-39399500D01*
X45212475Y-39399500D01*
X45067525Y-39399500D01*
X45067523Y-39399500D01*
X44927518Y-39437014D01*
X44927513Y-39437016D01*
X44801984Y-39509491D01*
X44699491Y-39611984D01*
X44627016Y-39737513D01*
X44627014Y-39737518D01*
X44589500Y-39877522D01*
X250000Y-39877522D01*
X250000Y-39373388D01*
X88629500Y-39373388D01*
X88629500Y-39546611D01*
X88656597Y-39717698D01*
X88656600Y-39717711D01*
X88710125Y-39882442D01*
X88710127Y-39882446D01*
X88788767Y-40036787D01*
X88880092Y-40162485D01*
X88890586Y-40176928D01*
X89013072Y-40299414D01*
X89013075Y-40299416D01*
X89013076Y-40299417D01*
X89153212Y-40401232D01*
X89307553Y-40479872D01*
X89307557Y-40479874D01*
X89472288Y-40533399D01*
X89472294Y-40533400D01*
X89472299Y-40533402D01*
X89586359Y-40551467D01*
X89643388Y-40560500D01*
X89643389Y-40560500D01*
X89816612Y-40560500D01*
X89859383Y-40553725D01*
X89987701Y-40533402D01*
X89987708Y-40533399D01*
X89987711Y-40533399D01*
X90152442Y-40479874D01*
X90152442Y-40479873D01*
X90152445Y-40479873D01*
X90306788Y-40401232D01*
X90446928Y-40299414D01*
X90569414Y-40176928D01*
X90671232Y-40036788D01*
X90749873Y-39882445D01*
X90803402Y-39717701D01*
X90830500Y-39546611D01*
X90830500Y-39373389D01*
X90803402Y-39202299D01*
X90803400Y-39202294D01*
X90803399Y-39202288D01*
X90749874Y-39037557D01*
X90749872Y-39037553D01*
X90671232Y-38883212D01*
X90569417Y-38743076D01*
X90569416Y-38743075D01*
X90569414Y-38743072D01*
X90446928Y-38620586D01*
X90446925Y-38620583D01*
X90446923Y-38620582D01*
X90306787Y-38518767D01*
X90152446Y-38440127D01*
X90152442Y-38440125D01*
X89987711Y-38386600D01*
X89987698Y-38386597D01*
X89816612Y-38359500D01*
X89816611Y-38359500D01*
X89643389Y-38359500D01*
X89643388Y-38359500D01*
X89472301Y-38386597D01*
X89472288Y-38386600D01*
X89307557Y-38440125D01*
X89307553Y-38440127D01*
X89153212Y-38518767D01*
X89013076Y-38620582D01*
X88890582Y-38743076D01*
X88788767Y-38883212D01*
X88710127Y-39037553D01*
X88710125Y-39037557D01*
X88656600Y-39202288D01*
X88656597Y-39202301D01*
X88629500Y-39373388D01*
X250000Y-39373388D01*
X250000Y-36833388D01*
X91169500Y-36833388D01*
X91169500Y-37006611D01*
X91196597Y-37177698D01*
X91196600Y-37177711D01*
X91250125Y-37342442D01*
X91250127Y-37342446D01*
X91328767Y-37496787D01*
X91328768Y-37496788D01*
X91430586Y-37636928D01*
X91553072Y-37759414D01*
X91553075Y-37759416D01*
X91553076Y-37759417D01*
X91693212Y-37861232D01*
X91847553Y-37939872D01*
X91847557Y-37939874D01*
X92012288Y-37993399D01*
X92012294Y-37993400D01*
X92012299Y-37993402D01*
X92126359Y-38011467D01*
X92183388Y-38020500D01*
X92183389Y-38020500D01*
X92356612Y-38020500D01*
X92399383Y-38013725D01*
X92527701Y-37993402D01*
X92527708Y-37993399D01*
X92527711Y-37993399D01*
X92692442Y-37939874D01*
X92692442Y-37939873D01*
X92692445Y-37939873D01*
X92846788Y-37861232D01*
X92986928Y-37759414D01*
X93109414Y-37636928D01*
X93211232Y-37496788D01*
X93289873Y-37342445D01*
X93343402Y-37177701D01*
X93370500Y-37006611D01*
X93370500Y-36833389D01*
X93343402Y-36662299D01*
X93343400Y-36662294D01*
X93343399Y-36662288D01*
X93289874Y-36497557D01*
X93289872Y-36497553D01*
X93211232Y-36343212D01*
X93109417Y-36203076D01*
X93109416Y-36203075D01*
X93109414Y-36203072D01*
X92986928Y-36080586D01*
X92986925Y-36080583D01*
X92986923Y-36080582D01*
X92846787Y-35978767D01*
X92692446Y-35900127D01*
X92692442Y-35900125D01*
X92527711Y-35846600D01*
X92527698Y-35846597D01*
X92356612Y-35819500D01*
X92356611Y-35819500D01*
X92183389Y-35819500D01*
X92183388Y-35819500D01*
X92012301Y-35846597D01*
X92012288Y-35846600D01*
X91847557Y-35900125D01*
X91847553Y-35900127D01*
X91693212Y-35978767D01*
X91553076Y-36080582D01*
X91430582Y-36203076D01*
X91328767Y-36343212D01*
X91250127Y-36497553D01*
X91250125Y-36497557D01*
X91196600Y-36662288D01*
X91196597Y-36662301D01*
X91169500Y-36833388D01*
X250000Y-36833388D01*
X250000Y-33807522D01*
X64449500Y-33807522D01*
X64449500Y-33952477D01*
X64487014Y-34092481D01*
X64487016Y-34092486D01*
X64504229Y-34122299D01*
X64559491Y-34218015D01*
X64661985Y-34320509D01*
X64787515Y-34392984D01*
X64787516Y-34392984D01*
X64787518Y-34392985D01*
X64857520Y-34411742D01*
X64927522Y-34430499D01*
X64927523Y-34430500D01*
X64927525Y-34430500D01*
X65072477Y-34430500D01*
X65072477Y-34430499D01*
X65212485Y-34392984D01*
X65338015Y-34320509D01*
X65365136Y-34293388D01*
X88629500Y-34293388D01*
X88629500Y-34466611D01*
X88656597Y-34637698D01*
X88656600Y-34637711D01*
X88710125Y-34802442D01*
X88710127Y-34802446D01*
X88788767Y-34956787D01*
X88788768Y-34956788D01*
X88890586Y-35096928D01*
X89013072Y-35219414D01*
X89013075Y-35219416D01*
X89013076Y-35219417D01*
X89153212Y-35321232D01*
X89307553Y-35399872D01*
X89307557Y-35399874D01*
X89472288Y-35453399D01*
X89472294Y-35453400D01*
X89472299Y-35453402D01*
X89586359Y-35471467D01*
X89643388Y-35480500D01*
X89643389Y-35480500D01*
X89816612Y-35480500D01*
X89859383Y-35473725D01*
X89987701Y-35453402D01*
X89987708Y-35453399D01*
X89987711Y-35453399D01*
X90152442Y-35399874D01*
X90152442Y-35399873D01*
X90152445Y-35399873D01*
X90306788Y-35321232D01*
X90446928Y-35219414D01*
X90569414Y-35096928D01*
X90671232Y-34956788D01*
X90749873Y-34802445D01*
X90803402Y-34637701D01*
X90830500Y-34466611D01*
X90830500Y-34293389D01*
X90803402Y-34122299D01*
X90803400Y-34122294D01*
X90803399Y-34122288D01*
X90749874Y-33957557D01*
X90749872Y-33957553D01*
X90671232Y-33803212D01*
X90569417Y-33663076D01*
X90569416Y-33663075D01*
X90569414Y-33663072D01*
X90446928Y-33540586D01*
X90446925Y-33540583D01*
X90446923Y-33540582D01*
X90306787Y-33438767D01*
X90152446Y-33360127D01*
X90152442Y-33360125D01*
X89987711Y-33306600D01*
X89987698Y-33306597D01*
X89816612Y-33279500D01*
X89816611Y-33279500D01*
X89643389Y-33279500D01*
X89643388Y-33279500D01*
X89472301Y-33306597D01*
X89472288Y-33306600D01*
X89307557Y-33360125D01*
X89307553Y-33360127D01*
X89153212Y-33438767D01*
X89013076Y-33540582D01*
X88890582Y-33663076D01*
X88788767Y-33803212D01*
X88710127Y-33957553D01*
X88710125Y-33957557D01*
X88656600Y-34122288D01*
X88656597Y-34122301D01*
X88629500Y-34293388D01*
X65365136Y-34293388D01*
X65440509Y-34218015D01*
X65512984Y-34092485D01*
X65550499Y-33952477D01*
X65550500Y-33952477D01*
X65550500Y-33807523D01*
X65550499Y-33807522D01*
X65512985Y-33667518D01*
X65512983Y-33667513D01*
X65440508Y-33541984D01*
X65338015Y-33439491D01*
X65212486Y-33367016D01*
X65212481Y-33367014D01*
X65072477Y-33329500D01*
X65072475Y-33329500D01*
X64927525Y-33329500D01*
X64927523Y-33329500D01*
X64787518Y-33367014D01*
X64787513Y-33367016D01*
X64661984Y-33439491D01*
X64559491Y-33541984D01*
X64487016Y-33667513D01*
X64487014Y-33667518D01*
X64449500Y-33807522D01*
X250000Y-33807522D01*
X250000Y-14701383D01*
X94430501Y-14701383D01*
X94430501Y-14846338D01*
X94468015Y-14986342D01*
X94468017Y-14986347D01*
X94540492Y-15111876D01*
X94642986Y-15214370D01*
X94768516Y-15286845D01*
X94768517Y-15286845D01*
X94768519Y-15286846D01*
X94838521Y-15305603D01*
X94908523Y-15324360D01*
X94908524Y-15324361D01*
X94908526Y-15324361D01*
X95053478Y-15324361D01*
X95053478Y-15324360D01*
X95193486Y-15286845D01*
X95319016Y-15214370D01*
X95421510Y-15111876D01*
X95493985Y-14986346D01*
X95531500Y-14846338D01*
X95531501Y-14846338D01*
X95531501Y-14701384D01*
X95531500Y-14701383D01*
X95493986Y-14561379D01*
X95493984Y-14561374D01*
X95424202Y-14440509D01*
X95421510Y-14435846D01*
X95319016Y-14333352D01*
X95193487Y-14260877D01*
X95193482Y-14260875D01*
X95053478Y-14223361D01*
X95053476Y-14223361D01*
X94908526Y-14223361D01*
X94908524Y-14223361D01*
X94768519Y-14260875D01*
X94768514Y-14260877D01*
X94642985Y-14333352D01*
X94540492Y-14435845D01*
X94468017Y-14561374D01*
X94468015Y-14561379D01*
X94430501Y-14701383D01*
X250000Y-14701383D01*
X250000Y-13927522D01*
X55849500Y-13927522D01*
X55849500Y-14072477D01*
X55887014Y-14212481D01*
X55887016Y-14212486D01*
X55893295Y-14223361D01*
X55959491Y-14338015D01*
X56061985Y-14440509D01*
X56187515Y-14512984D01*
X56187516Y-14512984D01*
X56187518Y-14512985D01*
X56257520Y-14531742D01*
X56327522Y-14550499D01*
X56327523Y-14550500D01*
X56327525Y-14550500D01*
X56472477Y-14550500D01*
X56472477Y-14550499D01*
X56612485Y-14512984D01*
X56738015Y-14440509D01*
X56840509Y-14338015D01*
X56912984Y-14212485D01*
X56950499Y-14072477D01*
X56950500Y-14072477D01*
X56950500Y-13927523D01*
X56950499Y-13927522D01*
X56912985Y-13787518D01*
X56912983Y-13787513D01*
X56840508Y-13661984D01*
X56738015Y-13559491D01*
X56612486Y-13487016D01*
X56612481Y-13487014D01*
X56472477Y-13449500D01*
X56472475Y-13449500D01*
X56327525Y-13449500D01*
X56327523Y-13449500D01*
X56187518Y-13487014D01*
X56187513Y-13487016D01*
X56061984Y-13559491D01*
X55959491Y-13661984D01*
X55887016Y-13787513D01*
X55887014Y-13787518D01*
X55849500Y-13927522D01*
X250000Y-13927522D01*
X250000Y-3003638D01*
X250356Y-2996385D01*
X302126Y-2470747D01*
X304953Y-2456534D01*
X457217Y-1954587D01*
X462768Y-1941189D01*
X710024Y-1478605D01*
X718076Y-1466553D01*
X1050833Y-1061088D01*
X1061090Y-1050832D01*
X1466553Y-718076D01*
X1478605Y-710024D01*
X1941192Y-462766D01*
X1954587Y-457217D01*
X2456534Y-304953D01*
X2470747Y-302126D01*
X2996385Y-250355D01*
X3003638Y-250000D01*
X96996362Y-250000D01*
X97003614Y-250355D01*
G37*
%TD.AperFunction*%
%TD*%
M02*
