%TF.GenerationSoftware,KiCad,Pcbnew,10.0.5*%
%TF.CreationDate,2026-08-09T20:21:00+01:00*%
%TF.ProjectId,radar_5g8_pa,72616461-725f-4356-9738-5f70612e6b69,rev?*%
%TF.SameCoordinates,Original*%
%TF.FileFunction,Copper,L1,Top*%
%TF.FilePolarity,Positive*%
%FSLAX46Y46*%
G04 Gerber Fmt 4.6, Leading zero omitted, Abs format (unit mm)*
G04 Created by KiCad (PCBNEW 10.0.5) date 2026-08-09 20:21:00*
%MOMM*%
%LPD*%
G01*
G04 APERTURE LIST*
%TA.AperFunction,Conductor*%
%ADD10C,0.000000*%
%TD*%
%TA.AperFunction,SMDPad,CuDef*%
%ADD11R,0.620000X0.620000*%
%TD*%
%TA.AperFunction,SMDPad,CuDef*%
%ADD12R,0.600000X1.475000*%
%TD*%
%TA.AperFunction,SMDPad,CuDef*%
%ADD13R,2.700000X1.300000*%
%TD*%
%TA.AperFunction,SMDPad,CuDef*%
%ADD14R,1.600000X3.350000*%
%TD*%
%TA.AperFunction,ComponentPad*%
%ADD15C,6.000000*%
%TD*%
%TA.AperFunction,SMDPad,CuDef*%
%ADD16C,1.000000*%
%TD*%
%TA.AperFunction,SMDPad,CuDef*%
%ADD17R,1.500000X2.000000*%
%TD*%
%TA.AperFunction,SMDPad,CuDef*%
%ADD18R,3.800000X2.000000*%
%TD*%
%TA.AperFunction,ComponentPad*%
%ADD19C,1.700000*%
%TD*%
%TA.AperFunction,SMDPad,CuDef*%
%ADD20R,1.700000X1.700000*%
%TD*%
%TA.AperFunction,SMDPad,CuDef*%
%ADD21R,2.000000X1.250000*%
%TD*%
%TA.AperFunction,SMDPad,CuDef*%
%ADD22R,0.900000X1.300000*%
%TD*%
%TA.AperFunction,SMDPad,CuDef*%
%ADD23R,0.900000X1.475000*%
%TD*%
%TA.AperFunction,SMDPad,CuDef*%
%ADD24R,1.733000X3.125000*%
%TD*%
%TA.AperFunction,SMDPad,CuDef*%
%ADD25R,1.325000X0.600000*%
%TD*%
%TA.AperFunction,SMDPad,CuDef*%
%ADD26R,1.300000X2.700000*%
%TD*%
%TA.AperFunction,ViaPad*%
%ADD27C,0.600000*%
%TD*%
%TA.AperFunction,ViaPad*%
%ADD28C,0.520000*%
%TD*%
%TA.AperFunction,ViaPad*%
%ADD29C,0.500000*%
%TD*%
%TA.AperFunction,ViaPad*%
%ADD30C,0.750000*%
%TD*%
%TA.AperFunction,ViaPad*%
%ADD31C,0.550000*%
%TD*%
G04 APERTURE END LIST*
D10*
%TA.AperFunction,Conductor*%
%TO.N,TX1_IN*%
G36*
X7390000Y-10926764D02*
G01*
X150000Y-10926764D01*
X150000Y-9073235D01*
X7390000Y-9073235D01*
X7390000Y-10926764D01*
G37*
%TD.AperFunction*%
%TA.AperFunction,Conductor*%
%TO.N,TX2_IN*%
G36*
X7390000Y-74926764D02*
G01*
X150000Y-74926764D01*
X150000Y-73073235D01*
X7390000Y-73073235D01*
X7390000Y-74926764D01*
G37*
%TD.AperFunction*%
%TA.AperFunction,Conductor*%
%TO.N,GND*%
G36*
X4300000Y-8095135D02*
G01*
X300000Y-8095135D01*
X300000Y-4400000D01*
X4300000Y-4400000D01*
X4300000Y-8095135D01*
G37*
%TD.AperFunction*%
%TA.AperFunction,Conductor*%
G36*
X4300000Y-15599999D02*
G01*
X300000Y-15599999D01*
X300000Y-11904864D01*
X4300000Y-11904864D01*
X4300000Y-15599999D01*
G37*
%TD.AperFunction*%
%TA.AperFunction,Conductor*%
G36*
X4300000Y-72095135D02*
G01*
X300000Y-72095135D01*
X300000Y-68400000D01*
X4300000Y-68400000D01*
X4300000Y-72095135D01*
G37*
%TD.AperFunction*%
%TA.AperFunction,Conductor*%
G36*
X4300000Y-79600000D02*
G01*
X300000Y-79600000D01*
X300000Y-75904864D01*
X4300000Y-75904864D01*
X4300000Y-79600000D01*
G37*
%TD.AperFunction*%
%TA.AperFunction,Conductor*%
%TO.N,TX1_IN*%
G36*
X6823333Y-10721176D02*
G01*
X6089999Y-10721176D01*
X6089999Y-9278823D01*
X6823333Y-9278823D01*
X6823333Y-10721176D01*
G37*
%TD.AperFunction*%
%TA.AperFunction,Conductor*%
%TO.N,TX2_IN*%
G36*
X6823333Y-74721176D02*
G01*
X6089999Y-74721176D01*
X6089999Y-73278823D01*
X6823333Y-73278823D01*
X6823333Y-74721176D01*
G37*
%TD.AperFunction*%
%TA.AperFunction,Conductor*%
%TO.N,TX1_IN*%
G36*
X7556666Y-10515588D02*
G01*
X6823333Y-10515588D01*
X6823333Y-9484411D01*
X7556666Y-9484411D01*
X7556666Y-10515588D01*
G37*
%TD.AperFunction*%
%TA.AperFunction,Conductor*%
%TO.N,TX2_IN*%
G36*
X7556666Y-74515588D02*
G01*
X6823333Y-74515588D01*
X6823333Y-73484411D01*
X7556666Y-73484411D01*
X7556666Y-74515588D01*
G37*
%TD.AperFunction*%
%TA.AperFunction,Conductor*%
%TO.N,TX1_IN*%
G36*
X8289999Y-10310000D02*
G01*
X7556666Y-10310000D01*
X7556666Y-9689999D01*
X8289999Y-9689999D01*
X8289999Y-10310000D01*
G37*
%TD.AperFunction*%
%TA.AperFunction,Conductor*%
%TO.N,TX2_IN*%
G36*
X8289999Y-74310000D02*
G01*
X7556666Y-74310000D01*
X7556666Y-73690000D01*
X8289999Y-73690000D01*
X8289999Y-74310000D01*
G37*
%TD.AperFunction*%
%TA.AperFunction,Conductor*%
%TO.N,TX1_IN*%
G36*
X9915000Y-10310000D02*
G01*
X8289999Y-10310000D01*
X8289999Y-9689999D01*
X9915000Y-9689999D01*
X9915000Y-10310000D01*
G37*
%TD.AperFunction*%
%TA.AperFunction,Conductor*%
%TO.N,TX2_IN*%
G36*
X9915000Y-74310000D02*
G01*
X8289999Y-74310000D01*
X8289999Y-73690000D01*
X9915000Y-73690000D01*
X9915000Y-74310000D01*
G37*
%TD.AperFunction*%
%TA.AperFunction,Conductor*%
%TO.N,TX1_P*%
G36*
X12710000Y-10310000D02*
G01*
X11085000Y-10310000D01*
X11085000Y-9689999D01*
X12710000Y-9689999D01*
X12710000Y-10310000D01*
G37*
%TD.AperFunction*%
%TA.AperFunction,Conductor*%
%TO.N,TX2_P*%
G36*
X12710000Y-74310000D02*
G01*
X11085000Y-74310000D01*
X11085000Y-73690000D01*
X12710000Y-73690000D01*
X12710000Y-74310000D01*
G37*
%TD.AperFunction*%
%TA.AperFunction,Conductor*%
%TO.N,TX1_P*%
G36*
X13443333Y-10310000D02*
G01*
X12710000Y-10310000D01*
X12710000Y-9689999D01*
X13443333Y-9689999D01*
X13443333Y-10310000D01*
G37*
%TD.AperFunction*%
%TA.AperFunction,Conductor*%
%TO.N,TX2_P*%
G36*
X13443333Y-74310000D02*
G01*
X12710000Y-74310000D01*
X12710000Y-73690000D01*
X13443333Y-73690000D01*
X13443333Y-74310000D01*
G37*
%TD.AperFunction*%
%TA.AperFunction,Conductor*%
%TO.N,TX1_P*%
G36*
X14176666Y-10515588D02*
G01*
X13443333Y-10515588D01*
X13443333Y-9484411D01*
X14176666Y-9484411D01*
X14176666Y-10515588D01*
G37*
%TD.AperFunction*%
%TA.AperFunction,Conductor*%
%TO.N,TX2_P*%
G36*
X14176666Y-74515588D02*
G01*
X13443333Y-74515588D01*
X13443333Y-73484411D01*
X14176666Y-73484411D01*
X14176666Y-74515588D01*
G37*
%TD.AperFunction*%
%TA.AperFunction,Conductor*%
%TO.N,TX1_P*%
G36*
X15814999Y-10926764D02*
G01*
X13610000Y-10926764D01*
X13610000Y-9073235D01*
X15814999Y-9073235D01*
X15814999Y-10926764D01*
G37*
%TD.AperFunction*%
%TA.AperFunction,Conductor*%
%TO.N,TX2_P*%
G36*
X15814999Y-74926764D02*
G01*
X13610000Y-74926764D01*
X13610000Y-73073235D01*
X15814999Y-73073235D01*
X15814999Y-74926764D01*
G37*
%TD.AperFunction*%
%TA.AperFunction,Conductor*%
%TO.N,TX1_P*%
G36*
X14910000Y-10721176D02*
G01*
X14176666Y-10721176D01*
X14176666Y-9278823D01*
X14910000Y-9278823D01*
X14910000Y-10721176D01*
G37*
%TD.AperFunction*%
%TA.AperFunction,Conductor*%
%TO.N,TX2_P*%
G36*
X14910000Y-74721176D02*
G01*
X14176666Y-74721176D01*
X14176666Y-73278823D01*
X14910000Y-73278823D01*
X14910000Y-74721176D01*
G37*
%TD.AperFunction*%
%TA.AperFunction,Conductor*%
%TO.N,TX1_D*%
G36*
X28400000Y-23454152D02*
G01*
X16399999Y-23454152D01*
X16399999Y-22954152D01*
X28400000Y-22954152D01*
X28400000Y-23454152D01*
G37*
%TD.AperFunction*%
%TA.AperFunction,Conductor*%
%TO.N,TX2_D*%
G36*
X28400000Y-61045847D02*
G01*
X16399999Y-61045847D01*
X16399999Y-60545847D01*
X28400000Y-60545847D01*
X28400000Y-61045847D01*
G37*
%TD.AperFunction*%
%TA.AperFunction,Conductor*%
%TO.N,TX1_DI*%
G36*
X21000000Y-10926764D02*
G01*
X16985000Y-10926764D01*
X16985000Y-9073235D01*
X21000000Y-9073235D01*
X21000000Y-10926764D01*
G37*
%TD.AperFunction*%
%TA.AperFunction,Conductor*%
%TO.N,TX2_DI*%
G36*
X21000000Y-74926764D02*
G01*
X16985000Y-74926764D01*
X16985000Y-73073235D01*
X21000000Y-73073235D01*
X21000000Y-74926764D01*
G37*
%TD.AperFunction*%
%TA.AperFunction,Conductor*%
%TO.N,TX1_D*%
G36*
X20250000Y-37750000D02*
G01*
X19750000Y-37750000D01*
X19750000Y-26700000D01*
X20250000Y-26700000D01*
X20250000Y-37750000D01*
G37*
%TD.AperFunction*%
%TA.AperFunction,Conductor*%
%TO.N,TX2_D*%
G36*
X20250000Y-57300000D02*
G01*
X19750000Y-57300000D01*
X19750000Y-46250000D01*
X20250000Y-46250000D01*
X20250000Y-57300000D01*
G37*
%TD.AperFunction*%
%TA.AperFunction,Conductor*%
%TO.N,TX1_D*%
G36*
X31900000Y-27100000D02*
G01*
X20000000Y-27100000D01*
X20000000Y-26300000D01*
X31900000Y-26300000D01*
X31900000Y-27100000D01*
G37*
%TD.AperFunction*%
%TA.AperFunction,Conductor*%
G36*
X42860000Y-38000000D02*
G01*
X20000000Y-38000000D01*
X20000000Y-37500000D01*
X42860000Y-37500000D01*
X42860000Y-38000000D01*
G37*
%TD.AperFunction*%
%TA.AperFunction,Conductor*%
%TO.N,TX2_D*%
G36*
X42860000Y-46500000D02*
G01*
X20000000Y-46500000D01*
X20000000Y-46000000D01*
X42860000Y-46000000D01*
X42860000Y-46500000D01*
G37*
%TD.AperFunction*%
%TA.AperFunction,Conductor*%
G36*
X31900000Y-57700000D02*
G01*
X20000000Y-57700000D01*
X20000000Y-56900000D01*
X31900000Y-56900000D01*
X31900000Y-57700000D01*
G37*
%TD.AperFunction*%
%TA.AperFunction,Conductor*%
%TO.N,TX1_D*%
G36*
X28400000Y-10926764D02*
G01*
X24000000Y-10926764D01*
X24000000Y-9073235D01*
X28400000Y-9073235D01*
X28400000Y-10926764D01*
G37*
%TD.AperFunction*%
%TA.AperFunction,Conductor*%
%TO.N,TX2_D*%
G36*
X28400000Y-74926764D02*
G01*
X24000000Y-74926764D01*
X24000000Y-73073235D01*
X28400000Y-73073235D01*
X28400000Y-74926764D01*
G37*
%TD.AperFunction*%
%TA.AperFunction,Conductor*%
%TO.N,TX1_D*%
G36*
X28709999Y-20424152D02*
G01*
X28090000Y-20424152D01*
X28090000Y-19804152D01*
X28709999Y-19804152D01*
X28709999Y-20424152D01*
G37*
%TD.AperFunction*%
%TA.AperFunction,Conductor*%
%TO.N,TX2_D*%
G36*
X28709999Y-64195847D02*
G01*
X28090000Y-64195847D01*
X28090000Y-63575847D01*
X28709999Y-63575847D01*
X28709999Y-64195847D01*
G37*
%TD.AperFunction*%
%TA.AperFunction,Conductor*%
%TO.N,TX1_D*%
G36*
X28650000Y-23204152D02*
G01*
X28150000Y-23204152D01*
X28150000Y-19804152D01*
X28650000Y-19804152D01*
X28650000Y-23204152D01*
G37*
%TD.AperFunction*%
%TA.AperFunction,Conductor*%
%TO.N,TX2_D*%
G36*
X28650000Y-64195847D02*
G01*
X28150000Y-64195847D01*
X28150000Y-60795847D01*
X28650000Y-60795847D01*
X28650000Y-64195847D01*
G37*
%TD.AperFunction*%
%TA.AperFunction,Conductor*%
%TO.N,TX1_D*%
G36*
X28501609Y-19804152D02*
G01*
X28298390Y-19804152D01*
X28298390Y-10000000D01*
X28501609Y-10000000D01*
X28501609Y-19804152D01*
G37*
%TD.AperFunction*%
%TA.AperFunction,Conductor*%
%TO.N,TX2_D*%
G36*
X28501609Y-74000000D02*
G01*
X28298390Y-74000000D01*
X28298390Y-64195847D01*
X28501609Y-64195847D01*
X28501609Y-74000000D01*
G37*
%TD.AperFunction*%
%TA.AperFunction,Conductor*%
%TO.N,TX1_D*%
G36*
X33415000Y-10926764D02*
G01*
X28400000Y-10926764D01*
X28400000Y-9073235D01*
X33415000Y-9073235D01*
X33415000Y-10926764D01*
G37*
%TD.AperFunction*%
%TA.AperFunction,Conductor*%
G36*
X30400000Y-20054152D02*
G01*
X28400000Y-20054152D01*
X28400000Y-19554152D01*
X30400000Y-19554152D01*
X30400000Y-20054152D01*
G37*
%TD.AperFunction*%
%TA.AperFunction,Conductor*%
%TO.N,TX2_D*%
G36*
X30400000Y-64445847D02*
G01*
X28400000Y-64445847D01*
X28400000Y-63945847D01*
X30400000Y-63945847D01*
X30400000Y-64445847D01*
G37*
%TD.AperFunction*%
%TA.AperFunction,Conductor*%
G36*
X33415000Y-74926764D02*
G01*
X28400000Y-74926764D01*
X28400000Y-73073235D01*
X33415000Y-73073235D01*
X33415000Y-74926764D01*
G37*
%TD.AperFunction*%
%TA.AperFunction,Conductor*%
%TO.N,TX1_D*%
G36*
X30250000Y-18054152D02*
G01*
X29750000Y-18054152D01*
X29750000Y-17554152D01*
X30250000Y-17554152D01*
X30250000Y-18054152D01*
G37*
%TD.AperFunction*%
%TA.AperFunction,Conductor*%
G36*
X30250000Y-26700000D02*
G01*
X29750000Y-26700000D01*
X29750000Y-17804152D01*
X30250000Y-17804152D01*
X30250000Y-26700000D01*
G37*
%TD.AperFunction*%
%TA.AperFunction,Conductor*%
%TO.N,TX2_D*%
G36*
X30250000Y-66195847D02*
G01*
X29750000Y-66195847D01*
X29750000Y-57300000D01*
X30250000Y-57300000D01*
X30250000Y-66195847D01*
G37*
%TD.AperFunction*%
%TA.AperFunction,Conductor*%
G36*
X30250000Y-66445847D02*
G01*
X29750000Y-66445847D01*
X29750000Y-65945847D01*
X30250000Y-65945847D01*
X30250000Y-66445847D01*
G37*
%TD.AperFunction*%
%TA.AperFunction,Conductor*%
%TO.N,TX1_D*%
G36*
X30400000Y-18054152D02*
G01*
X30000000Y-18054152D01*
X30000000Y-17554152D01*
X30400000Y-17554152D01*
X30400000Y-18054152D01*
G37*
%TD.AperFunction*%
%TA.AperFunction,Conductor*%
%TO.N,TX2_D*%
G36*
X30400000Y-66445847D02*
G01*
X30000000Y-66445847D01*
X30000000Y-65945847D01*
X30400000Y-65945847D01*
X30400000Y-66445847D01*
G37*
%TD.AperFunction*%
%TA.AperFunction,Conductor*%
%TO.N,TX1_D*%
G36*
X30650000Y-18054152D02*
G01*
X30150000Y-18054152D01*
X30150000Y-17554152D01*
X30650000Y-17554152D01*
X30650000Y-18054152D01*
G37*
%TD.AperFunction*%
%TA.AperFunction,Conductor*%
G36*
X30650000Y-19804152D02*
G01*
X30150000Y-19804152D01*
X30150000Y-17804152D01*
X30650000Y-17804152D01*
X30650000Y-19804152D01*
G37*
%TD.AperFunction*%
%TA.AperFunction,Conductor*%
%TO.N,TX2_D*%
G36*
X30650000Y-66195847D02*
G01*
X30150000Y-66195847D01*
X30150000Y-64195847D01*
X30650000Y-64195847D01*
X30650000Y-66195847D01*
G37*
%TD.AperFunction*%
%TA.AperFunction,Conductor*%
G36*
X30650000Y-66445847D02*
G01*
X30150000Y-66445847D01*
X30150000Y-65945847D01*
X30650000Y-65945847D01*
X30650000Y-66445847D01*
G37*
%TD.AperFunction*%
%TA.AperFunction,Conductor*%
%TO.N,V5A_I*%
G36*
X37000000Y-33350000D02*
G01*
X32299999Y-33350000D01*
X32299999Y-32650000D01*
X37000000Y-32650000D01*
X37000000Y-33350000D01*
G37*
%TD.AperFunction*%
%TA.AperFunction,Conductor*%
%TO.N,V5B_I*%
G36*
X37000000Y-51350000D02*
G01*
X32299999Y-51350000D01*
X32299999Y-50650000D01*
X37000000Y-50650000D01*
X37000000Y-51350000D01*
G37*
%TD.AperFunction*%
%TA.AperFunction,Conductor*%
%TO.N,TX1_PI*%
G36*
X36745000Y-10926764D02*
G01*
X34585000Y-10926764D01*
X34585000Y-9073235D01*
X36745000Y-9073235D01*
X36745000Y-10926764D01*
G37*
%TD.AperFunction*%
%TA.AperFunction,Conductor*%
%TO.N,TX2_PI*%
G36*
X36745000Y-74926764D02*
G01*
X34585000Y-74926764D01*
X34585000Y-73073235D01*
X36745000Y-73073235D01*
X36745000Y-74926764D01*
G37*
%TD.AperFunction*%
%TA.AperFunction,Conductor*%
%TO.N,TX1_PI*%
G36*
X37225000Y-10771411D02*
G01*
X36745000Y-10771411D01*
X36745000Y-9228588D01*
X37225000Y-9228588D01*
X37225000Y-10771411D01*
G37*
%TD.AperFunction*%
%TA.AperFunction,Conductor*%
%TO.N,TX2_PI*%
G36*
X37225000Y-74771411D02*
G01*
X36745000Y-74771411D01*
X36745000Y-73228588D01*
X37225000Y-73228588D01*
X37225000Y-74771411D01*
G37*
%TD.AperFunction*%
%TA.AperFunction,Conductor*%
%TO.N,TX1_PI*%
G36*
X37705000Y-10616058D02*
G01*
X37225000Y-10616058D01*
X37225000Y-9383941D01*
X37705000Y-9383941D01*
X37705000Y-10616058D01*
G37*
%TD.AperFunction*%
%TA.AperFunction,Conductor*%
%TO.N,TX2_PI*%
G36*
X37705000Y-74616058D02*
G01*
X37225000Y-74616058D01*
X37225000Y-73383941D01*
X37705000Y-73383941D01*
X37705000Y-74616058D01*
G37*
%TD.AperFunction*%
%TA.AperFunction,Conductor*%
%TO.N,TX1_PI*%
G36*
X38185000Y-10460705D02*
G01*
X37705000Y-10460705D01*
X37705000Y-9539294D01*
X38185000Y-9539294D01*
X38185000Y-10460705D01*
G37*
%TD.AperFunction*%
%TA.AperFunction,Conductor*%
%TO.N,TX2_PI*%
G36*
X38185000Y-74460705D02*
G01*
X37705000Y-74460705D01*
X37705000Y-73539294D01*
X38185000Y-73539294D01*
X38185000Y-74460705D01*
G37*
%TD.AperFunction*%
%TA.AperFunction,Conductor*%
%TO.N,TX1_PI*%
G36*
X38665000Y-10305352D02*
G01*
X38185000Y-10305352D01*
X38185000Y-9694647D01*
X38665000Y-9694647D01*
X38665000Y-10305352D01*
G37*
%TD.AperFunction*%
%TA.AperFunction,Conductor*%
%TO.N,TX2_PI*%
G36*
X38665000Y-74305352D02*
G01*
X38185000Y-74305352D01*
X38185000Y-73694647D01*
X38665000Y-73694647D01*
X38665000Y-74305352D01*
G37*
%TD.AperFunction*%
%TA.AperFunction,Conductor*%
%TO.N,TX1_PI*%
G36*
X39145000Y-10150000D02*
G01*
X38665000Y-10150000D01*
X38665000Y-9849999D01*
X39145000Y-9849999D01*
X39145000Y-10150000D01*
G37*
%TD.AperFunction*%
%TA.AperFunction,Conductor*%
%TO.N,TX2_PI*%
G36*
X39145000Y-74150000D02*
G01*
X38665000Y-74150000D01*
X38665000Y-73850000D01*
X39145000Y-73850000D01*
X39145000Y-74150000D01*
G37*
%TD.AperFunction*%
%TA.AperFunction,Conductor*%
%TO.N,TX1_PA*%
G36*
X42500000Y-33350000D02*
G01*
X39500000Y-33350000D01*
X39500000Y-32650000D01*
X42500000Y-32650000D01*
X42500000Y-33350000D01*
G37*
%TD.AperFunction*%
%TA.AperFunction,Conductor*%
%TO.N,TX2_PA*%
G36*
X42500000Y-51350000D02*
G01*
X39500000Y-51350000D01*
X39500000Y-50650000D01*
X42500000Y-50650000D01*
X42500000Y-51350000D01*
G37*
%TD.AperFunction*%
%TA.AperFunction,Conductor*%
%TO.N,TX1_IADJ*%
G36*
X40140000Y-8644999D02*
G01*
X39840000Y-8644999D01*
X39840000Y-7444999D01*
X40140000Y-7444999D01*
X40140000Y-8644999D01*
G37*
%TD.AperFunction*%
%TA.AperFunction,Conductor*%
%TO.N,TX2_IADJ*%
G36*
X40140000Y-72645000D02*
G01*
X39840000Y-72645000D01*
X39840000Y-71445000D01*
X40140000Y-71445000D01*
X40140000Y-72645000D01*
G37*
%TD.AperFunction*%
%TA.AperFunction,Conductor*%
%TO.N,TX1_PA*%
G36*
X42334999Y-10150000D02*
G01*
X41855000Y-10150000D01*
X41855000Y-9849999D01*
X42334999Y-9849999D01*
X42334999Y-10150000D01*
G37*
%TD.AperFunction*%
%TA.AperFunction,Conductor*%
%TO.N,TX2_PA*%
G36*
X42334999Y-74150000D02*
G01*
X41855000Y-74150000D01*
X41855000Y-73850000D01*
X42334999Y-73850000D01*
X42334999Y-74150000D01*
G37*
%TD.AperFunction*%
%TA.AperFunction,Conductor*%
%TO.N,TX1_PA*%
G36*
X42850000Y-26350000D02*
G01*
X42150000Y-26350000D01*
X42150000Y-25650000D01*
X42850000Y-25650000D01*
X42850000Y-26350000D01*
G37*
%TD.AperFunction*%
%TA.AperFunction,Conductor*%
G36*
X42850000Y-33000000D02*
G01*
X42150000Y-33000000D01*
X42150000Y-26000000D01*
X42850000Y-26000000D01*
X42850000Y-33000000D01*
G37*
%TD.AperFunction*%
%TA.AperFunction,Conductor*%
%TO.N,TX2_PA*%
G36*
X42850000Y-58000000D02*
G01*
X42150000Y-58000000D01*
X42150000Y-51000000D01*
X42850000Y-51000000D01*
X42850000Y-58000000D01*
G37*
%TD.AperFunction*%
%TA.AperFunction,Conductor*%
G36*
X42850000Y-58350000D02*
G01*
X42150000Y-58350000D01*
X42150000Y-57650000D01*
X42850000Y-57650000D01*
X42850000Y-58350000D01*
G37*
%TD.AperFunction*%
%TA.AperFunction,Conductor*%
%TO.N,TX1_PA*%
G36*
X42750000Y-35849999D02*
G01*
X42250000Y-35849999D01*
X42250000Y-33000000D01*
X42750000Y-33000000D01*
X42750000Y-35849999D01*
G37*
%TD.AperFunction*%
%TA.AperFunction,Conductor*%
%TO.N,TX2_PA*%
G36*
X42750000Y-51000000D02*
G01*
X42250000Y-51000000D01*
X42250000Y-48150000D01*
X42750000Y-48150000D01*
X42750000Y-51000000D01*
G37*
%TD.AperFunction*%
%TA.AperFunction,Conductor*%
%TO.N,TX1_PA*%
G36*
X42815000Y-10305352D02*
G01*
X42334999Y-10305352D01*
X42334999Y-9694647D01*
X42815000Y-9694647D01*
X42815000Y-10305352D01*
G37*
%TD.AperFunction*%
%TA.AperFunction,Conductor*%
%TO.N,TX2_PA*%
G36*
X42815000Y-74305352D02*
G01*
X42334999Y-74305352D01*
X42334999Y-73694647D01*
X42815000Y-73694647D01*
X42815000Y-74305352D01*
G37*
%TD.AperFunction*%
%TA.AperFunction,Conductor*%
%TO.N,TX1_PA*%
G36*
X46800000Y-26350000D02*
G01*
X42500000Y-26350000D01*
X42500000Y-25650000D01*
X46800000Y-25650000D01*
X46800000Y-26350000D01*
G37*
%TD.AperFunction*%
%TA.AperFunction,Conductor*%
%TO.N,TX2_PA*%
G36*
X46800000Y-58350000D02*
G01*
X42500000Y-58350000D01*
X42500000Y-57650000D01*
X46800000Y-57650000D01*
X46800000Y-58350000D01*
G37*
%TD.AperFunction*%
%TA.AperFunction,Conductor*%
%TO.N,TX1_PA*%
G36*
X43294999Y-10460705D02*
G01*
X42815000Y-10460705D01*
X42815000Y-9539294D01*
X43294999Y-9539294D01*
X43294999Y-10460705D01*
G37*
%TD.AperFunction*%
%TA.AperFunction,Conductor*%
%TO.N,TX2_PA*%
G36*
X43294999Y-74460705D02*
G01*
X42815000Y-74460705D01*
X42815000Y-73539294D01*
X43294999Y-73539294D01*
X43294999Y-74460705D01*
G37*
%TD.AperFunction*%
%TA.AperFunction,Conductor*%
%TO.N,TX1_PA*%
G36*
X43775000Y-10616058D02*
G01*
X43294999Y-10616058D01*
X43294999Y-9383941D01*
X43775000Y-9383941D01*
X43775000Y-10616058D01*
G37*
%TD.AperFunction*%
%TA.AperFunction,Conductor*%
%TO.N,TX2_PA*%
G36*
X43775000Y-74616058D02*
G01*
X43294999Y-74616058D01*
X43294999Y-73383941D01*
X43775000Y-73383941D01*
X43775000Y-74616058D01*
G37*
%TD.AperFunction*%
%TA.AperFunction,Conductor*%
%TO.N,TX1_PA*%
G36*
X44254999Y-10771411D02*
G01*
X43775000Y-10771411D01*
X43775000Y-9228588D01*
X44254999Y-9228588D01*
X44254999Y-10771411D01*
G37*
%TD.AperFunction*%
%TA.AperFunction,Conductor*%
%TO.N,TX2_PA*%
G36*
X44254999Y-74771411D02*
G01*
X43775000Y-74771411D01*
X43775000Y-73228588D01*
X44254999Y-73228588D01*
X44254999Y-74771411D01*
G37*
%TD.AperFunction*%
%TA.AperFunction,Conductor*%
%TO.N,TX1_PA*%
G36*
X46800000Y-10926764D02*
G01*
X44254999Y-10926764D01*
X44254999Y-9073235D01*
X46800000Y-9073235D01*
X46800000Y-10926764D01*
G37*
%TD.AperFunction*%
%TA.AperFunction,Conductor*%
%TO.N,TX2_PA*%
G36*
X46800000Y-74926764D02*
G01*
X44254999Y-74926764D01*
X44254999Y-73073235D01*
X46800000Y-73073235D01*
X46800000Y-74926764D01*
G37*
%TD.AperFunction*%
%TA.AperFunction,Conductor*%
%TO.N,IMONA*%
G36*
X45440000Y-40250000D02*
G01*
X44840000Y-40250000D01*
X44840000Y-39650000D01*
X45440000Y-39650000D01*
X45440000Y-40250000D01*
G37*
%TD.AperFunction*%
%TA.AperFunction,Conductor*%
%TO.N,IMONB*%
G36*
X45440000Y-44349999D02*
G01*
X44840000Y-44349999D01*
X44840000Y-43750000D01*
X45440000Y-43750000D01*
X45440000Y-44349999D01*
G37*
%TD.AperFunction*%
%TA.AperFunction,Conductor*%
%TO.N,IMONA*%
G36*
X45340000Y-39950000D02*
G01*
X44940000Y-39950000D01*
X44940000Y-37750000D01*
X45340000Y-37750000D01*
X45340000Y-39950000D01*
G37*
%TD.AperFunction*%
%TA.AperFunction,Conductor*%
%TO.N,IMONB*%
G36*
X45340000Y-46250000D02*
G01*
X44940000Y-46250000D01*
X44940000Y-44050000D01*
X45340000Y-44050000D01*
X45340000Y-46250000D01*
G37*
%TD.AperFunction*%
%TA.AperFunction,Conductor*%
%TO.N,V12*%
G36*
X45750000Y-35849999D02*
G01*
X45250000Y-35849999D01*
X45250000Y-33000000D01*
X45750000Y-33000000D01*
X45750000Y-35849999D01*
G37*
%TD.AperFunction*%
%TA.AperFunction,Conductor*%
G36*
X45750000Y-51000000D02*
G01*
X45250000Y-51000000D01*
X45250000Y-48150000D01*
X45750000Y-48150000D01*
X45750000Y-51000000D01*
G37*
%TD.AperFunction*%
%TA.AperFunction,Conductor*%
G36*
X47000000Y-33450000D02*
G01*
X45500000Y-33450000D01*
X45500000Y-32549999D01*
X47000000Y-32549999D01*
X47000000Y-33450000D01*
G37*
%TD.AperFunction*%
%TA.AperFunction,Conductor*%
G36*
X47000000Y-51450000D02*
G01*
X45500000Y-51450000D01*
X45500000Y-50550000D01*
X47000000Y-50550000D01*
X47000000Y-51450000D01*
G37*
%TD.AperFunction*%
%TA.AperFunction,Conductor*%
%TO.N,TX1_PA*%
G36*
X47150000Y-23204152D02*
G01*
X46449999Y-23204152D01*
X46449999Y-19804152D01*
X47150000Y-19804152D01*
X47150000Y-23204152D01*
G37*
%TD.AperFunction*%
%TA.AperFunction,Conductor*%
G36*
X47150000Y-26000000D02*
G01*
X46449999Y-26000000D01*
X46449999Y-19804152D01*
X47150000Y-19804152D01*
X47150000Y-26000000D01*
G37*
%TD.AperFunction*%
%TA.AperFunction,Conductor*%
G36*
X47150000Y-26350000D02*
G01*
X46449999Y-26350000D01*
X46449999Y-25650000D01*
X47150000Y-25650000D01*
X47150000Y-26350000D01*
G37*
%TD.AperFunction*%
%TA.AperFunction,Conductor*%
%TO.N,TX2_PA*%
G36*
X47150000Y-58350000D02*
G01*
X46449999Y-58350000D01*
X46449999Y-57650000D01*
X47150000Y-57650000D01*
X47150000Y-58350000D01*
G37*
%TD.AperFunction*%
%TA.AperFunction,Conductor*%
G36*
X47150000Y-64195847D02*
G01*
X46449999Y-64195847D01*
X46449999Y-58000000D01*
X47150000Y-58000000D01*
X47150000Y-64195847D01*
G37*
%TD.AperFunction*%
%TA.AperFunction,Conductor*%
G36*
X47150000Y-64195847D02*
G01*
X46449999Y-64195847D01*
X46449999Y-60795847D01*
X47150000Y-60795847D01*
X47150000Y-64195847D01*
G37*
%TD.AperFunction*%
%TA.AperFunction,Conductor*%
%TO.N,TX1_PA*%
G36*
X47110000Y-20424152D02*
G01*
X46489999Y-20424152D01*
X46489999Y-19804152D01*
X47110000Y-19804152D01*
X47110000Y-20424152D01*
G37*
%TD.AperFunction*%
%TA.AperFunction,Conductor*%
%TO.N,TX2_PA*%
G36*
X47110000Y-64195847D02*
G01*
X46489999Y-64195847D01*
X46489999Y-63575847D01*
X47110000Y-63575847D01*
X47110000Y-64195847D01*
G37*
%TD.AperFunction*%
%TA.AperFunction,Conductor*%
%TO.N,V12*%
G36*
X47450000Y-51000000D02*
G01*
X46550000Y-51000000D01*
X46550000Y-33000000D01*
X47450000Y-33000000D01*
X47450000Y-51000000D01*
G37*
%TD.AperFunction*%
%TA.AperFunction,Conductor*%
%TO.N,TX1_PA*%
G36*
X46901609Y-19804152D02*
G01*
X46698390Y-19804152D01*
X46698390Y-10000000D01*
X46901609Y-10000000D01*
X46901609Y-19804152D01*
G37*
%TD.AperFunction*%
%TA.AperFunction,Conductor*%
%TO.N,TX2_PA*%
G36*
X46901609Y-74000000D02*
G01*
X46698390Y-74000000D01*
X46698390Y-64195847D01*
X46901609Y-64195847D01*
X46901609Y-74000000D01*
G37*
%TD.AperFunction*%
%TA.AperFunction,Conductor*%
%TO.N,TX1_PA*%
G36*
X50415000Y-10926764D02*
G01*
X46800000Y-10926764D01*
X46800000Y-9073235D01*
X50415000Y-9073235D01*
X50415000Y-10926764D01*
G37*
%TD.AperFunction*%
%TA.AperFunction,Conductor*%
G36*
X56000000Y-23554152D02*
G01*
X46800000Y-23554152D01*
X46800000Y-22854152D01*
X56000000Y-22854152D01*
X56000000Y-23554152D01*
G37*
%TD.AperFunction*%
%TA.AperFunction,Conductor*%
%TO.N,TX2_PA*%
G36*
X56000000Y-61145847D02*
G01*
X46800000Y-61145847D01*
X46800000Y-60445847D01*
X56000000Y-60445847D01*
X56000000Y-61145847D01*
G37*
%TD.AperFunction*%
%TA.AperFunction,Conductor*%
G36*
X50415000Y-74926764D02*
G01*
X46800000Y-74926764D01*
X46800000Y-73073235D01*
X50415000Y-73073235D01*
X50415000Y-74926764D01*
G37*
%TD.AperFunction*%
%TA.AperFunction,Conductor*%
%TO.N,V12*%
G36*
X82000000Y-43450000D02*
G01*
X47000000Y-43450000D01*
X47000000Y-42550000D01*
X82000000Y-42550000D01*
X82000000Y-43450000D01*
G37*
%TD.AperFunction*%
%TA.AperFunction,Conductor*%
%TO.N,TX1_F*%
G36*
X54000000Y-10926764D02*
G01*
X51585000Y-10926764D01*
X51585000Y-9073235D01*
X54000000Y-9073235D01*
X54000000Y-10926764D01*
G37*
%TD.AperFunction*%
%TA.AperFunction,Conductor*%
%TO.N,TX2_F*%
G36*
X54000000Y-74926764D02*
G01*
X51585000Y-74926764D01*
X51585000Y-73073235D01*
X54000000Y-73073235D01*
X54000000Y-74926764D01*
G37*
%TD.AperFunction*%
%TA.AperFunction,Conductor*%
%TO.N,TEMPA*%
G36*
X56400000Y-14200000D02*
G01*
X52000000Y-14200000D01*
X52000000Y-13799999D01*
X56400000Y-13799999D01*
X56400000Y-14200000D01*
G37*
%TD.AperFunction*%
%TA.AperFunction,Conductor*%
%TO.N,TEMPB*%
G36*
X56400000Y-70200000D02*
G01*
X52000000Y-70200000D01*
X52000000Y-69800000D01*
X56400000Y-69800000D01*
X56400000Y-70200000D01*
G37*
%TD.AperFunction*%
%TA.AperFunction,Conductor*%
%TO.N,TX1_F*%
G36*
X55880877Y-12622585D02*
G01*
X54000000Y-12622585D01*
X54000000Y-7377414D01*
X55880877Y-7377414D01*
X55880877Y-12622585D01*
G37*
%TD.AperFunction*%
%TA.AperFunction,Conductor*%
%TO.N,TX2_F*%
G36*
X55880877Y-76622585D02*
G01*
X54000000Y-76622585D01*
X54000000Y-71377414D01*
X55880877Y-71377414D01*
X55880877Y-76622585D01*
G37*
%TD.AperFunction*%
%TA.AperFunction,Conductor*%
%TO.N,TX1_F*%
G36*
X57887524Y-10102162D02*
G01*
X55880877Y-10102162D01*
X55880877Y-9897837D01*
X57887524Y-9897837D01*
X57887524Y-10102162D01*
G37*
%TD.AperFunction*%
%TA.AperFunction,Conductor*%
%TO.N,TX2_F*%
G36*
X57887524Y-74102162D02*
G01*
X55880877Y-74102162D01*
X55880877Y-73897837D01*
X57887524Y-73897837D01*
X57887524Y-74102162D01*
G37*
%TD.AperFunction*%
%TA.AperFunction,Conductor*%
%TO.N,TEMPA*%
G36*
X56699999Y-14299999D02*
G01*
X56100000Y-14299999D01*
X56100000Y-13700000D01*
X56699999Y-13700000D01*
X56699999Y-14299999D01*
G37*
%TD.AperFunction*%
%TA.AperFunction,Conductor*%
%TO.N,TEMPB*%
G36*
X56699999Y-70300000D02*
G01*
X56100000Y-70300000D01*
X56100000Y-69700000D01*
X56699999Y-69700000D01*
X56699999Y-70300000D01*
G37*
%TD.AperFunction*%
%TA.AperFunction,Conductor*%
%TO.N,TX1_F*%
G36*
X61226193Y-12622585D02*
G01*
X57887524Y-12622585D01*
X57887524Y-7377414D01*
X61226193Y-7377414D01*
X61226193Y-12622585D01*
G37*
%TD.AperFunction*%
%TA.AperFunction,Conductor*%
%TO.N,TX2_F*%
G36*
X61226193Y-76622585D02*
G01*
X57887524Y-76622585D01*
X57887524Y-71377414D01*
X61226193Y-71377414D01*
X61226193Y-76622585D01*
G37*
%TD.AperFunction*%
%TA.AperFunction,Conductor*%
%TO.N,VF*%
G36*
X59250000Y-33880000D02*
G01*
X58750000Y-33880000D01*
X58750000Y-23000000D01*
X59250000Y-23000000D01*
X59250000Y-33880000D01*
G37*
%TD.AperFunction*%
%TA.AperFunction,Conductor*%
G36*
X79500000Y-23250000D02*
G01*
X59000000Y-23250000D01*
X59000000Y-22750000D01*
X79500000Y-22750000D01*
X79500000Y-23250000D01*
G37*
%TD.AperFunction*%
%TA.AperFunction,Conductor*%
G36*
X60415000Y-34130000D02*
G01*
X59000000Y-34130000D01*
X59000000Y-33630000D01*
X60415000Y-33630000D01*
X60415000Y-34130000D01*
G37*
%TD.AperFunction*%
%TA.AperFunction,Conductor*%
%TO.N,TX1_F*%
G36*
X63445098Y-10102162D02*
G01*
X61226193Y-10102162D01*
X61226193Y-9897837D01*
X63445098Y-9897837D01*
X63445098Y-10102162D01*
G37*
%TD.AperFunction*%
%TA.AperFunction,Conductor*%
%TO.N,TX2_F*%
G36*
X63445098Y-74102162D02*
G01*
X61226193Y-74102162D01*
X61226193Y-73897837D01*
X63445098Y-73897837D01*
X63445098Y-74102162D01*
G37*
%TD.AperFunction*%
%TA.AperFunction,Conductor*%
%TO.N,EN*%
G36*
X66050000Y-34055000D02*
G01*
X61585000Y-34055000D01*
X61585000Y-33705000D01*
X66050000Y-33705000D01*
X66050000Y-34055000D01*
G37*
%TD.AperFunction*%
%TA.AperFunction,Conductor*%
%TO.N,TX1_F*%
G36*
X66783767Y-12622585D02*
G01*
X63445098Y-12622585D01*
X63445098Y-7377414D01*
X66783767Y-7377414D01*
X66783767Y-12622585D01*
G37*
%TD.AperFunction*%
%TA.AperFunction,Conductor*%
%TO.N,TX2_F*%
G36*
X66783767Y-76622585D02*
G01*
X63445098Y-76622585D01*
X63445098Y-71377414D01*
X66783767Y-71377414D01*
X66783767Y-76622585D01*
G37*
%TD.AperFunction*%
%TA.AperFunction,Conductor*%
%TO.N,EN*%
G36*
X65000000Y-34055000D02*
G01*
X63500000Y-34055000D01*
X63500000Y-33705000D01*
X65000000Y-33705000D01*
X65000000Y-34055000D01*
G37*
%TD.AperFunction*%
%TA.AperFunction,Conductor*%
G36*
X65300000Y-34180000D02*
G01*
X64700000Y-34180000D01*
X64700000Y-33580000D01*
X65300000Y-33580000D01*
X65300000Y-34180000D01*
G37*
%TD.AperFunction*%
%TA.AperFunction,Conductor*%
%TO.N,TX1_F*%
G36*
X68790414Y-10102162D02*
G01*
X66783767Y-10102162D01*
X66783767Y-9897837D01*
X68790414Y-9897837D01*
X68790414Y-10102162D01*
G37*
%TD.AperFunction*%
%TA.AperFunction,Conductor*%
%TO.N,TX2_F*%
G36*
X68790414Y-74102162D02*
G01*
X66783767Y-74102162D01*
X66783767Y-73897837D01*
X68790414Y-73897837D01*
X68790414Y-74102162D01*
G37*
%TD.AperFunction*%
%TA.AperFunction,Conductor*%
%TO.N,V12G*%
G36*
X67175000Y-32000000D02*
G01*
X66825000Y-32000000D01*
X66825000Y-31000000D01*
X67175000Y-31000000D01*
X67175000Y-32000000D01*
G37*
%TD.AperFunction*%
%TA.AperFunction,Conductor*%
G36*
X69000000Y-31174999D02*
G01*
X67000000Y-31174999D01*
X67000000Y-30825000D01*
X69000000Y-30825000D01*
X69000000Y-31174999D01*
G37*
%TD.AperFunction*%
%TA.AperFunction,Conductor*%
%TO.N,TX1_F*%
G36*
X70671292Y-12622585D02*
G01*
X68790414Y-12622585D01*
X68790414Y-7377414D01*
X70671292Y-7377414D01*
X70671292Y-12622585D01*
G37*
%TD.AperFunction*%
%TA.AperFunction,Conductor*%
%TO.N,TX2_F*%
G36*
X70671292Y-76622585D02*
G01*
X68790414Y-76622585D01*
X68790414Y-71377414D01*
X70671292Y-71377414D01*
X70671292Y-76622585D01*
G37*
%TD.AperFunction*%
%TA.AperFunction,Conductor*%
%TO.N,V12G*%
G36*
X78550000Y-31174999D02*
G01*
X69000000Y-31174999D01*
X69000000Y-30825000D01*
X78550000Y-30825000D01*
X78550000Y-31174999D01*
G37*
%TD.AperFunction*%
%TA.AperFunction,Conductor*%
%TO.N,V12*%
G36*
X82000000Y-36250000D02*
G01*
X69000000Y-36250000D01*
X69000000Y-35750000D01*
X82000000Y-35750000D01*
X82000000Y-36250000D01*
G37*
%TD.AperFunction*%
%TA.AperFunction,Conductor*%
%TO.N,TX1_F*%
G36*
X73871292Y-10926764D02*
G01*
X70671292Y-10926764D01*
X70671292Y-9073235D01*
X73871292Y-9073235D01*
X73871292Y-10926764D01*
G37*
%TD.AperFunction*%
%TA.AperFunction,Conductor*%
%TO.N,TX2_F*%
G36*
X73871292Y-74926764D02*
G01*
X70671292Y-74926764D01*
X70671292Y-73073235D01*
X73871292Y-73073235D01*
X73871292Y-74926764D01*
G37*
%TD.AperFunction*%
%TA.AperFunction,Conductor*%
%TO.N,V12G*%
G36*
X71175000Y-32915000D02*
G01*
X70825000Y-32915000D01*
X70825000Y-31000000D01*
X71175000Y-31000000D01*
X71175000Y-32915000D01*
G37*
%TD.AperFunction*%
%TA.AperFunction,Conductor*%
%TO.N,V12*%
G36*
X71175000Y-36000000D02*
G01*
X70825000Y-36000000D01*
X70825000Y-34085000D01*
X71175000Y-34085000D01*
X71175000Y-36000000D01*
G37*
%TD.AperFunction*%
%TA.AperFunction,Conductor*%
%TO.N,TX1_CPL*%
G36*
X74798056Y-18000000D02*
G01*
X72944527Y-18000000D01*
X72944527Y-12773861D01*
X74798056Y-12773861D01*
X74798056Y-18000000D01*
G37*
%TD.AperFunction*%
%TA.AperFunction,Conductor*%
G36*
X74798056Y-18926764D02*
G01*
X72944527Y-18926764D01*
X72944527Y-17073235D01*
X74798056Y-17073235D01*
X74798056Y-18926764D01*
G37*
%TD.AperFunction*%
%TA.AperFunction,Conductor*%
%TO.N,TX2_CPL*%
G36*
X74798056Y-66926764D02*
G01*
X72944527Y-66926764D01*
X72944527Y-65073235D01*
X74798056Y-65073235D01*
X74798056Y-66926764D01*
G37*
%TD.AperFunction*%
%TA.AperFunction,Conductor*%
G36*
X74798056Y-71226138D02*
G01*
X72944527Y-71226138D01*
X72944527Y-66000000D01*
X74798056Y-66000000D01*
X74798056Y-71226138D01*
G37*
%TD.AperFunction*%
%TA.AperFunction,Conductor*%
%TO.N,V12G*%
G36*
X73675000Y-32915000D02*
G01*
X73325000Y-32915000D01*
X73325000Y-31000000D01*
X73675000Y-31000000D01*
X73675000Y-32915000D01*
G37*
%TD.AperFunction*%
%TA.AperFunction,Conductor*%
%TO.N,V12*%
G36*
X73675000Y-36000000D02*
G01*
X73325000Y-36000000D01*
X73325000Y-34085000D01*
X73675000Y-34085000D01*
X73675000Y-36000000D01*
G37*
%TD.AperFunction*%
%TA.AperFunction,Conductor*%
%TO.N,TX1_F*%
G36*
X82196001Y-10917496D02*
G01*
X73871292Y-10917496D01*
X73871292Y-9082503D01*
X82196001Y-9082503D01*
X82196001Y-10917496D01*
G37*
%TD.AperFunction*%
%TA.AperFunction,Conductor*%
%TO.N,TX1_CPL*%
G36*
X82196001Y-13691357D02*
G01*
X73871292Y-13691357D01*
X73871292Y-11856364D01*
X82196001Y-11856364D01*
X82196001Y-13691357D01*
G37*
%TD.AperFunction*%
%TA.AperFunction,Conductor*%
G36*
X99850000Y-18926764D02*
G01*
X73871292Y-18926764D01*
X73871292Y-17073235D01*
X99850000Y-17073235D01*
X99850000Y-18926764D01*
G37*
%TD.AperFunction*%
%TA.AperFunction,Conductor*%
%TO.N,TX2_CPL*%
G36*
X99850000Y-66926764D02*
G01*
X73871292Y-66926764D01*
X73871292Y-65073235D01*
X99850000Y-65073235D01*
X99850000Y-66926764D01*
G37*
%TD.AperFunction*%
%TA.AperFunction,Conductor*%
G36*
X82196001Y-72143635D02*
G01*
X73871292Y-72143635D01*
X73871292Y-70308642D01*
X82196001Y-70308642D01*
X82196001Y-72143635D01*
G37*
%TD.AperFunction*%
%TA.AperFunction,Conductor*%
%TO.N,TX2_F*%
G36*
X82196001Y-74917496D02*
G01*
X73871292Y-74917496D01*
X73871292Y-73082503D01*
X82196001Y-73082503D01*
X82196001Y-74917496D01*
G37*
%TD.AperFunction*%
%TA.AperFunction,Conductor*%
%TO.N,V12G*%
G36*
X76175000Y-32915000D02*
G01*
X75825000Y-32915000D01*
X75825000Y-31000000D01*
X76175000Y-31000000D01*
X76175000Y-32915000D01*
G37*
%TD.AperFunction*%
%TA.AperFunction,Conductor*%
%TO.N,V12*%
G36*
X76175000Y-36000000D02*
G01*
X75825000Y-36000000D01*
X75825000Y-34085000D01*
X76175000Y-34085000D01*
X76175000Y-36000000D01*
G37*
%TD.AperFunction*%
%TA.AperFunction,Conductor*%
%TO.N,V12G*%
G36*
X78725000Y-31000000D02*
G01*
X78375000Y-31000000D01*
X78375000Y-26340000D01*
X78725000Y-26340000D01*
X78725000Y-31000000D01*
G37*
%TD.AperFunction*%
%TA.AperFunction,Conductor*%
%TO.N,VF*%
G36*
X79750000Y-24460000D02*
G01*
X79250000Y-24460000D01*
X79250000Y-23000000D01*
X79750000Y-23000000D01*
X79750000Y-24460000D01*
G37*
%TD.AperFunction*%
%TA.AperFunction,Conductor*%
G36*
X88350000Y-24910000D02*
G01*
X79500000Y-24910000D01*
X79500000Y-24009999D01*
X88350000Y-24009999D01*
X88350000Y-24910000D01*
G37*
%TD.AperFunction*%
%TA.AperFunction,Conductor*%
%TO.N,V12*%
G36*
X82000000Y-26690000D02*
G01*
X80450000Y-26690000D01*
X80450000Y-25990000D01*
X82000000Y-25990000D01*
X82000000Y-26690000D01*
G37*
%TD.AperFunction*%
%TA.AperFunction,Conductor*%
G36*
X82450000Y-43000000D02*
G01*
X81550000Y-43000000D01*
X81550000Y-26340000D01*
X82450000Y-26340000D01*
X82450000Y-43000000D01*
G37*
%TD.AperFunction*%
%TA.AperFunction,Conductor*%
%TO.N,TX1_CPL*%
G36*
X82496001Y-14773861D02*
G01*
X81896001Y-14773861D01*
X81896001Y-12773861D01*
X82496001Y-12773861D01*
X82496001Y-14773861D01*
G37*
%TD.AperFunction*%
%TA.AperFunction,Conductor*%
%TO.N,TX2_CPL*%
G36*
X82496001Y-71226138D02*
G01*
X81896001Y-71226138D01*
X81896001Y-69226138D01*
X82496001Y-69226138D01*
X82496001Y-71226138D01*
G37*
%TD.AperFunction*%
%TA.AperFunction,Conductor*%
%TO.N,V12*%
G36*
X90000000Y-29450000D02*
G01*
X82000000Y-29450000D01*
X82000000Y-28549999D01*
X90000000Y-28549999D01*
X90000000Y-29450000D01*
G37*
%TD.AperFunction*%
%TA.AperFunction,Conductor*%
%TO.N,TX1_F*%
G36*
X99850000Y-10926764D02*
G01*
X82196001Y-10926764D01*
X82196001Y-9073235D01*
X99850000Y-9073235D01*
X99850000Y-10926764D01*
G37*
%TD.AperFunction*%
%TA.AperFunction,Conductor*%
%TO.N,TX1_CPL*%
G36*
X85596001Y-15073861D02*
G01*
X82196001Y-15073861D01*
X82196001Y-14473861D01*
X85596001Y-14473861D01*
X85596001Y-15073861D01*
G37*
%TD.AperFunction*%
%TA.AperFunction,Conductor*%
%TO.N,TX2_CPL*%
G36*
X85596001Y-69526138D02*
G01*
X82196001Y-69526138D01*
X82196001Y-68926138D01*
X85596001Y-68926138D01*
X85596001Y-69526138D01*
G37*
%TD.AperFunction*%
%TA.AperFunction,Conductor*%
%TO.N,TX2_F*%
G36*
X99850000Y-74926764D02*
G01*
X82196001Y-74926764D01*
X82196001Y-73073235D01*
X99850000Y-73073235D01*
X99850000Y-74926764D01*
G37*
%TD.AperFunction*%
%TA.AperFunction,Conductor*%
%TO.N,TX1_DETV*%
G36*
X87981001Y-15073861D02*
G01*
X86781001Y-15073861D01*
X86781001Y-14473861D01*
X87981001Y-14473861D01*
X87981001Y-15073861D01*
G37*
%TD.AperFunction*%
%TA.AperFunction,Conductor*%
G36*
X89681001Y-15073861D02*
G01*
X86781001Y-15073861D01*
X86781001Y-14473861D01*
X89681001Y-14473861D01*
X89681001Y-15073861D01*
G37*
%TD.AperFunction*%
%TA.AperFunction,Conductor*%
G36*
X91381001Y-15073861D02*
G01*
X86781001Y-15073861D01*
X86781001Y-14473861D01*
X91381001Y-14473861D01*
X91381001Y-15073861D01*
G37*
%TD.AperFunction*%
%TA.AperFunction,Conductor*%
%TO.N,TX2_DETV*%
G36*
X87981001Y-69526138D02*
G01*
X86781001Y-69526138D01*
X86781001Y-68926138D01*
X87981001Y-68926138D01*
X87981001Y-69526138D01*
G37*
%TD.AperFunction*%
%TA.AperFunction,Conductor*%
G36*
X89681001Y-69526138D02*
G01*
X86781001Y-69526138D01*
X86781001Y-68926138D01*
X89681001Y-68926138D01*
X89681001Y-69526138D01*
G37*
%TD.AperFunction*%
%TA.AperFunction,Conductor*%
G36*
X91381001Y-69526138D02*
G01*
X86781001Y-69526138D01*
X86781001Y-68926138D01*
X91381001Y-68926138D01*
X91381001Y-69526138D01*
G37*
%TD.AperFunction*%
%TA.AperFunction,Conductor*%
%TO.N,VIN*%
G36*
X94000000Y-24910000D02*
G01*
X90650000Y-24910000D01*
X90650000Y-24009999D01*
X94000000Y-24009999D01*
X94000000Y-24910000D01*
G37*
%TD.AperFunction*%
%TA.AperFunction,Conductor*%
%TO.N,TX1_DETV*%
G36*
X92596001Y-15073861D02*
G01*
X91381001Y-15073861D01*
X91381001Y-14473861D01*
X92596001Y-14473861D01*
X92596001Y-15073861D01*
G37*
%TD.AperFunction*%
%TA.AperFunction,Conductor*%
%TO.N,TX2_DETV*%
G36*
X92596001Y-69526138D02*
G01*
X91381001Y-69526138D01*
X91381001Y-68926138D01*
X92596001Y-68926138D01*
X92596001Y-69526138D01*
G37*
%TD.AperFunction*%
%TA.AperFunction,Conductor*%
%TO.N,TX1_CPL*%
G36*
X93250000Y-19599999D02*
G01*
X92750000Y-19599999D01*
X92750000Y-18000000D01*
X93250000Y-18000000D01*
X93250000Y-19599999D01*
G37*
%TD.AperFunction*%
%TA.AperFunction,Conductor*%
%TO.N,TX2_CPL*%
G36*
X93250000Y-66000000D02*
G01*
X92750000Y-66000000D01*
X92750000Y-64400000D01*
X93250000Y-64400000D01*
X93250000Y-66000000D01*
G37*
%TD.AperFunction*%
%TA.AperFunction,Conductor*%
%TO.N,DETA*%
G36*
X94981001Y-14973861D02*
G01*
X93766001Y-14973861D01*
X93766001Y-14573861D01*
X94981001Y-14573861D01*
X94981001Y-14973861D01*
G37*
%TD.AperFunction*%
%TA.AperFunction,Conductor*%
%TO.N,DETB*%
G36*
X94981001Y-69426138D02*
G01*
X93766001Y-69426138D01*
X93766001Y-69026138D01*
X94981001Y-69026138D01*
X94981001Y-69426138D01*
G37*
%TD.AperFunction*%
%TA.AperFunction,Conductor*%
%TO.N,DETA*%
G36*
X95281001Y-15073861D02*
G01*
X94681001Y-15073861D01*
X94681001Y-14473861D01*
X95281001Y-14473861D01*
X95281001Y-15073861D01*
G37*
%TD.AperFunction*%
%TA.AperFunction,Conductor*%
%TO.N,DETB*%
G36*
X95281001Y-69526138D02*
G01*
X94681001Y-69526138D01*
X94681001Y-68926138D01*
X95281001Y-68926138D01*
X95281001Y-69526138D01*
G37*
%TD.AperFunction*%
%TA.AperFunction,Conductor*%
%TO.N,GND*%
G36*
X99700000Y-8095135D02*
G01*
X95700000Y-8095135D01*
X95700000Y-4400000D01*
X99700000Y-4400000D01*
X99700000Y-8095135D01*
G37*
%TD.AperFunction*%
%TA.AperFunction,Conductor*%
G36*
X99700000Y-15599999D02*
G01*
X95700000Y-15599999D01*
X95700000Y-11904864D01*
X99700000Y-11904864D01*
X99700000Y-15599999D01*
G37*
%TD.AperFunction*%
%TA.AperFunction,Conductor*%
G36*
X99700000Y-16095135D02*
G01*
X95700000Y-16095135D01*
X95700000Y-12400000D01*
X99700000Y-12400000D01*
X99700000Y-16095135D01*
G37*
%TD.AperFunction*%
%TA.AperFunction,Conductor*%
G36*
X99700000Y-23600000D02*
G01*
X95700000Y-23600000D01*
X95700000Y-19904864D01*
X99700000Y-19904864D01*
X99700000Y-23600000D01*
G37*
%TD.AperFunction*%
%TA.AperFunction,Conductor*%
G36*
X99700000Y-64095135D02*
G01*
X95700000Y-64095135D01*
X95700000Y-60400000D01*
X99700000Y-60400000D01*
X99700000Y-64095135D01*
G37*
%TD.AperFunction*%
%TA.AperFunction,Conductor*%
G36*
X99700000Y-71600000D02*
G01*
X95700000Y-71600000D01*
X95700000Y-67904864D01*
X99700000Y-67904864D01*
X99700000Y-71600000D01*
G37*
%TD.AperFunction*%
%TA.AperFunction,Conductor*%
G36*
X99700000Y-72095135D02*
G01*
X95700000Y-72095135D01*
X95700000Y-68400000D01*
X99700000Y-68400000D01*
X99700000Y-72095135D01*
G37*
%TD.AperFunction*%
%TA.AperFunction,Conductor*%
G36*
X99700000Y-79600000D02*
G01*
X95700000Y-79600000D01*
X95700000Y-75904864D01*
X99700000Y-75904864D01*
X99700000Y-79600000D01*
G37*
%TD.AperFunction*%
%TD*%
D11*
%TO.P,CAD0,1*%
%TO.N,TX1_DETV*%
X87981001Y-14773861D03*
%TO.P,CAD0,2*%
%TO.N,GND*%
X87981001Y-15943861D03*
%TD*%
%TO.P,RAO,1*%
%TO.N,TX1_DETV*%
X92596001Y-14773861D03*
%TO.P,RAO,2*%
%TO.N,DETA*%
X93766001Y-14773861D03*
%TD*%
%TO.P,CA81,1*%
%TO.N,TX1_PA*%
X48500000Y-23204152D03*
%TO.P,CA81,2*%
%TO.N,GND*%
X48500000Y-24374152D03*
%TD*%
D12*
%TO.P,Q4,1*%
%TO.N,EN*%
X66050000Y-33877500D03*
%TO.P,Q4,2*%
%TO.N,GND*%
X67950000Y-33877500D03*
%TO.P,Q4,3*%
%TO.N,V12G*%
X67000000Y-32002499D03*
%TD*%
D11*
%TO.P,RBF,1*%
%TO.N,TX2_CPL*%
X93000000Y-64400000D03*
%TO.P,RBF,2*%
%TO.N,GND*%
X93000000Y-63230000D03*
%TD*%
%TO.P,CA82,1*%
%TO.N,TX1_PA*%
X50200000Y-23204152D03*
%TO.P,CA82,2*%
%TO.N,GND*%
X50200000Y-24374152D03*
%TD*%
D13*
%TO.P,CA83,1*%
%TO.N,TX1_PA*%
X54800000Y-23204152D03*
%TO.P,CA83,2*%
%TO.N,GND*%
X54800000Y-25504152D03*
%TD*%
D11*
%TO.P,RAI,1*%
%TO.N,TX1_IADJ*%
X39990000Y-7430000D03*
%TO.P,RAI,2*%
%TO.N,GND*%
X39990000Y-6260000D03*
%TD*%
D13*
%TO.P,CB93,1*%
%TO.N,TX2_D*%
X17000000Y-60795847D03*
%TO.P,CB93,2*%
%TO.N,GND*%
X17000000Y-58495847D03*
%TD*%
D11*
%TO.P,CA92,1*%
%TO.N,TX1_D*%
X25000000Y-23204152D03*
%TO.P,CA92,2*%
%TO.N,GND*%
X25000000Y-24374152D03*
%TD*%
%TO.P,RBP2,1*%
%TO.N,TX2_IN*%
X9915000Y-74000000D03*
%TO.P,RBP2,2*%
%TO.N,TX2_P*%
X11085000Y-74000000D03*
%TD*%
D13*
%TO.P,CB6,1*%
%TO.N,TX2_D*%
X25000000Y-57300000D03*
%TO.P,CB6,2*%
%TO.N,GND*%
X25000000Y-55000000D03*
%TD*%
D11*
%TO.P,CBD2,1*%
%TO.N,TX2_DETV*%
X91381001Y-69226138D03*
%TO.P,CBD2,2*%
%TO.N,GND*%
X91381001Y-68056138D03*
%TD*%
%TO.P,RAD1,1*%
%TO.N,TX1_DETV*%
X89681001Y-14773861D03*
%TO.P,RAD1,2*%
%TO.N,GND*%
X89681001Y-15943861D03*
%TD*%
%TO.P,CB82,1*%
%TO.N,TX2_PA*%
X50200000Y-60795847D03*
%TO.P,CB82,2*%
%TO.N,GND*%
X50200000Y-59625847D03*
%TD*%
D14*
%TO.P,RAS,1*%
%TO.N,TX1_PA*%
X42500000Y-33000000D03*
%TO.P,RAS,2*%
%TO.N,V12*%
X45500000Y-33000000D03*
%TD*%
D15*
%TO.P,H95_5,1*%
%TO.N,GND*%
X95000000Y-79000000D03*
%TD*%
D11*
%TO.P,RBI,1*%
%TO.N,TX2_IADJ*%
X39990000Y-71430000D03*
%TO.P,RBI,2*%
%TO.N,GND*%
X39990000Y-70260000D03*
%TD*%
D16*
%TO.P,FID50_81,1*%
%TO.N,GND*%
X50000000Y-3000000D03*
%TD*%
D11*
%TO.P,CA7,1*%
%TO.N,TX1_D*%
X22500000Y-26700000D03*
%TO.P,CA7,2*%
%TO.N,GND*%
X22500000Y-27870000D03*
%TD*%
D15*
%TO.P,H5_5,1*%
%TO.N,GND*%
X5000000Y-79000000D03*
%TD*%
D17*
%TO.P,UA3,1*%
%TO.N,GND*%
X27700000Y-33000000D03*
D18*
%TO.P,UA3,2*%
%TO.N,TX1_D*%
X30000000Y-26700000D03*
D17*
%TO.N,V5A*%
X30000000Y-33000000D03*
%TO.P,UA3,3*%
%TO.N,V5A_I*%
X32299999Y-33000000D03*
%TD*%
D11*
%TO.P,CB2,1*%
%TO.N,TX2_D*%
X33415000Y-74000000D03*
%TO.P,CB2,2*%
%TO.N,TX2_PI*%
X34585000Y-74000000D03*
%TD*%
%TO.P,RAT,1*%
%TO.N,TX1_CPL*%
X82196001Y-14773861D03*
%TO.P,RAT,2*%
%TO.N,GND*%
X82196001Y-15943861D03*
%TD*%
D19*
%TO.P,J5,1*%
%TO.N,EN*%
X89730000Y-34380000D03*
%TO.P,J5,2*%
%TO.N,GND*%
X92270000Y-34380000D03*
%TO.P,J5,3*%
X89730000Y-36920000D03*
%TO.P,J5,4*%
%TO.N,DETA*%
X92270000Y-36920000D03*
%TO.P,J5,5*%
%TO.N,TEMPA*%
X89730000Y-39460000D03*
%TO.P,J5,6*%
%TO.N,GND*%
X92270000Y-39460000D03*
%TO.P,J5,7*%
%TO.N,IMONA*%
X89730000Y-42000000D03*
%TO.P,J5,8*%
%TO.N,GND*%
X92270000Y-42000000D03*
%TO.P,J5,9*%
%TO.N,IMONB*%
X89730000Y-44540000D03*
%TO.P,J5,10*%
%TO.N,GND*%
X92270000Y-44540000D03*
%TO.P,J5,11*%
%TO.N,TEMPB*%
X89730000Y-47080000D03*
%TO.P,J5,12*%
%TO.N,GND*%
X92270000Y-47080000D03*
%TO.P,J5,13*%
X89730000Y-49620000D03*
%TO.P,J5,14*%
%TO.N,DETB*%
X92270000Y-49620000D03*
%TD*%
D13*
%TO.P,CA93,1*%
%TO.N,TX1_D*%
X17000000Y-23204152D03*
%TO.P,CA93,2*%
%TO.N,GND*%
X17000000Y-25504152D03*
%TD*%
D11*
%TO.P,CB1,1*%
%TO.N,TX2_P*%
X15814999Y-74000000D03*
%TO.P,CB1,2*%
%TO.N,TX2_DI*%
X16985000Y-74000000D03*
%TD*%
%TO.P,C22,1*%
%TO.N,V12*%
X89800000Y-29000000D03*
%TO.P,C22,2*%
%TO.N,GND*%
X89800000Y-27830000D03*
%TD*%
D13*
%TO.P,D5,1*%
%TO.N,VF*%
X85500000Y-24460000D03*
%TO.P,D5,2*%
%TO.N,GND*%
X85500000Y-22160000D03*
%TD*%
D11*
%TO.P,RTA,1*%
%TO.N,TEMPA*%
X52000000Y-14000000D03*
%TO.P,RTA,2*%
%TO.N,GND*%
X52000000Y-15170000D03*
%TD*%
%TO.P,CB81,1*%
%TO.N,TX2_PA*%
X48500000Y-60795847D03*
%TO.P,CB81,2*%
%TO.N,GND*%
X48500000Y-59625847D03*
%TD*%
%TO.P,CAD2,1*%
%TO.N,TX1_DETV*%
X91381001Y-14773861D03*
%TO.P,CAD2,2*%
%TO.N,GND*%
X91381001Y-15943861D03*
%TD*%
D15*
%TO.P,H95_79,1*%
%TO.N,GND*%
X95000000Y-5000000D03*
%TD*%
D14*
%TO.P,RAV,1*%
%TO.N,V5A_I*%
X37000000Y-33000000D03*
%TO.P,RAV,2*%
%TO.N,TX1_PA*%
X40000000Y-33000000D03*
%TD*%
D17*
%TO.P,UB3,1*%
%TO.N,GND*%
X27700000Y-51000000D03*
%TO.P,UB3,2*%
%TO.N,V5B*%
X30000000Y-51000000D03*
D18*
%TO.N,TX2_D*%
X30000000Y-57300000D03*
D17*
%TO.P,UB3,3*%
%TO.N,V5B_I*%
X32299999Y-51000000D03*
%TD*%
D11*
%TO.P,C1,1*%
%TO.N,V12*%
X73500000Y-34085000D03*
%TO.P,C1,2*%
%TO.N,V12G*%
X73500000Y-32915000D03*
%TD*%
D20*
%TO.P,J1,1*%
%TO.N,VIN*%
X94000000Y-24460000D03*
%TO.P,J1,2*%
%TO.N,GND*%
X94000000Y-29540000D03*
%TD*%
D13*
%TO.P,C21,1*%
%TO.N,V12*%
X87200000Y-29000000D03*
%TO.P,C21,2*%
%TO.N,GND*%
X87200000Y-26700000D03*
%TD*%
D21*
%TO.P,CA5,1*%
%TO.N,V5A_I*%
X34220000Y-33000000D03*
%TO.P,CA5,2*%
%TO.N,GND*%
X34220000Y-31049999D03*
%TD*%
D11*
%TO.P,RBP1,1*%
%TO.N,TX2_IN*%
X8600000Y-74000000D03*
%TO.P,RBP1,2*%
%TO.N,GND*%
X8600000Y-72830000D03*
%TD*%
%TO.P,CA90,1*%
%TO.N,TX1_D*%
X28400000Y-20424152D03*
%TO.P,CA90,2*%
%TO.N,GND*%
X27229999Y-20424152D03*
%TD*%
%TO.P,CA3,1*%
%TO.N,TX1_PA*%
X50415000Y-10000000D03*
%TO.P,CA3,2*%
%TO.N,TX1_F*%
X51585000Y-10000000D03*
%TD*%
%TO.P,RBT,1*%
%TO.N,TX2_CPL*%
X82196001Y-69226138D03*
%TO.P,RBT,2*%
%TO.N,GND*%
X82196001Y-68056138D03*
%TD*%
D14*
%TO.P,RBV,1*%
%TO.N,V5B_I*%
X37000000Y-51000000D03*
%TO.P,RBV,2*%
%TO.N,TX2_PA*%
X40000000Y-51000000D03*
%TD*%
D11*
%TO.P,CB91,1*%
%TO.N,TX2_D*%
X26700000Y-60795847D03*
%TO.P,CB91,2*%
%TO.N,GND*%
X26700000Y-59625847D03*
%TD*%
%TO.P,RAP3,1*%
%TO.N,TX1_P*%
X12400000Y-10000000D03*
%TO.P,RAP3,2*%
%TO.N,GND*%
X12400000Y-11170000D03*
%TD*%
%TO.P,CB90,1*%
%TO.N,TX2_D*%
X28400000Y-63575847D03*
%TO.P,CB90,2*%
%TO.N,GND*%
X27229999Y-63575847D03*
%TD*%
D12*
%TO.P,Q3,1*%
%TO.N,V12G*%
X78550000Y-26337500D03*
%TO.P,Q3,2*%
%TO.N,V12*%
X80450000Y-26337500D03*
%TO.P,Q3,3*%
%TO.N,VF*%
X79500000Y-24462500D03*
%TD*%
D22*
%TO.P,UA1,1*%
%TO.N,TX1_DI*%
X21000000Y-10000000D03*
D23*
%TO.P,UA1,2*%
%TO.N,GND*%
X22500000Y-9912499D03*
D22*
%TO.P,UA1,3*%
%TO.N,TX1_D*%
X24000000Y-10000000D03*
D24*
%TO.P,UA1,4*%
%TO.N,GND*%
X22500000Y-7612499D03*
%TD*%
D15*
%TO.P,H36_62,1*%
%TO.N,GND*%
X36500000Y-22000000D03*
%TD*%
D11*
%TO.P,RBP3,1*%
%TO.N,TX2_P*%
X12400000Y-74000000D03*
%TO.P,RBP3,2*%
%TO.N,GND*%
X12400000Y-72830000D03*
%TD*%
%TO.P,D6,1*%
%TO.N,V12*%
X71000000Y-34085000D03*
%TO.P,D6,2*%
%TO.N,V12G*%
X71000000Y-32915000D03*
%TD*%
%TO.P,CA91,1*%
%TO.N,TX1_D*%
X26700000Y-23204152D03*
%TO.P,CA91,2*%
%TO.N,GND*%
X26700000Y-24374152D03*
%TD*%
%TO.P,RAP1,1*%
%TO.N,TX1_IN*%
X8600000Y-10000000D03*
%TO.P,RAP1,2*%
%TO.N,GND*%
X8600000Y-11170000D03*
%TD*%
D16*
%TO.P,FID4_42,1*%
%TO.N,GND*%
X4000000Y-42000000D03*
%TD*%
D25*
%TO.P,UB4,1*%
%TO.N,IMONB*%
X45137500Y-46250000D03*
%TO.P,UB4,2*%
%TO.N,GND*%
X45137500Y-47200000D03*
%TO.P,UB4,3*%
%TO.N,V12*%
X45137500Y-48150000D03*
%TO.P,UB4,4*%
%TO.N,TX2_PA*%
X42862500Y-48150000D03*
%TO.P,UB4,5*%
%TO.N,GND*%
X42862500Y-47200000D03*
%TO.P,UB4,6*%
%TO.N,TX2_D*%
X42862500Y-46250000D03*
%TD*%
D11*
%TO.P,RAP2,1*%
%TO.N,TX1_IN*%
X9915000Y-10000000D03*
%TO.P,RAP2,2*%
%TO.N,TX1_P*%
X11085000Y-10000000D03*
%TD*%
%TO.P,RTB,1*%
%TO.N,TEMPB*%
X52000000Y-70000000D03*
%TO.P,RTB,2*%
%TO.N,GND*%
X52000000Y-68830000D03*
%TD*%
D13*
%TO.P,C20,1*%
%TO.N,V12*%
X84000000Y-29000000D03*
%TO.P,C20,2*%
%TO.N,GND*%
X84000000Y-26700000D03*
%TD*%
D11*
%TO.P,RBO,1*%
%TO.N,TX2_DETV*%
X92596001Y-69226138D03*
%TO.P,RBO,2*%
%TO.N,DETB*%
X93766001Y-69226138D03*
%TD*%
%TO.P,R1,1*%
%TO.N,V12*%
X76000000Y-34085000D03*
%TO.P,R1,2*%
%TO.N,V12G*%
X76000000Y-32915000D03*
%TD*%
D15*
%TO.P,H36_22,1*%
%TO.N,GND*%
X36500000Y-62000000D03*
%TD*%
D16*
%TO.P,FID96_42,1*%
%TO.N,GND*%
X96000000Y-42000000D03*
%TD*%
D11*
%TO.P,DA1,1*%
%TO.N,TX1_CPL*%
X85611001Y-14773861D03*
%TO.P,DA1,2*%
%TO.N,TX1_DETV*%
X86781001Y-14773861D03*
%TD*%
%TO.P,R3,1*%
%TO.N,EN*%
X63500000Y-33880000D03*
%TO.P,R3,2*%
%TO.N,GND*%
X63500000Y-35050000D03*
%TD*%
D21*
%TO.P,CB5,1*%
%TO.N,V5B_I*%
X34220000Y-51000000D03*
%TO.P,CB5,2*%
%TO.N,GND*%
X34220000Y-52950000D03*
%TD*%
D11*
%TO.P,RAF,1*%
%TO.N,TX1_CPL*%
X93000000Y-19599999D03*
%TO.P,RAF,2*%
%TO.N,GND*%
X93000000Y-20769999D03*
%TD*%
%TO.P,DB1,1*%
%TO.N,TX2_CPL*%
X85611001Y-69226138D03*
%TO.P,DB1,2*%
%TO.N,TX2_DETV*%
X86781001Y-69226138D03*
%TD*%
D13*
%TO.P,CB83,1*%
%TO.N,TX2_PA*%
X54800000Y-60795847D03*
%TO.P,CB83,2*%
%TO.N,GND*%
X54800000Y-58495847D03*
%TD*%
%TO.P,CA6,1*%
%TO.N,TX1_D*%
X25000000Y-26700000D03*
%TO.P,CA6,2*%
%TO.N,GND*%
X25000000Y-29000000D03*
%TD*%
D11*
%TO.P,CB3,1*%
%TO.N,TX2_PA*%
X50415000Y-74000000D03*
%TO.P,CB3,2*%
%TO.N,TX2_F*%
X51585000Y-74000000D03*
%TD*%
%TO.P,RBD1,1*%
%TO.N,TX2_DETV*%
X89681001Y-69226138D03*
%TO.P,RBD1,2*%
%TO.N,GND*%
X89681001Y-68056138D03*
%TD*%
D15*
%TO.P,H5_79,1*%
%TO.N,GND*%
X5000000Y-5000000D03*
%TD*%
D25*
%TO.P,UA4,1*%
%TO.N,IMONA*%
X45137500Y-37750000D03*
%TO.P,UA4,2*%
%TO.N,GND*%
X45137500Y-36800000D03*
%TO.P,UA4,3*%
%TO.N,V12*%
X45137500Y-35850000D03*
%TO.P,UA4,4*%
%TO.N,TX1_PA*%
X42862500Y-35850000D03*
%TO.P,UA4,5*%
%TO.N,GND*%
X42862500Y-36800000D03*
%TO.P,UA4,6*%
%TO.N,TX1_D*%
X42862500Y-37750000D03*
%TD*%
D11*
%TO.P,CB7,1*%
%TO.N,TX2_D*%
X22500000Y-57300000D03*
%TO.P,CB7,2*%
%TO.N,GND*%
X22500000Y-56130000D03*
%TD*%
%TO.P,CBD0,1*%
%TO.N,TX2_DETV*%
X87981001Y-69226138D03*
%TO.P,CBD0,2*%
%TO.N,GND*%
X87981001Y-68056138D03*
%TD*%
%TO.P,CA2,1*%
%TO.N,TX1_D*%
X33415000Y-10000000D03*
%TO.P,CA2,2*%
%TO.N,TX1_PI*%
X34585000Y-10000000D03*
%TD*%
%TO.P,CB92,1*%
%TO.N,TX2_D*%
X25000000Y-60795847D03*
%TO.P,CB92,2*%
%TO.N,GND*%
X25000000Y-59625847D03*
%TD*%
D14*
%TO.P,RBS,1*%
%TO.N,TX2_PA*%
X42500000Y-51000000D03*
%TO.P,RBS,2*%
%TO.N,V12*%
X45500000Y-51000000D03*
%TD*%
D11*
%TO.P,CB80,1*%
%TO.N,TX2_PA*%
X46800000Y-63575847D03*
%TO.P,CB80,2*%
%TO.N,GND*%
X47970000Y-63575847D03*
%TD*%
%TO.P,CA80,1*%
%TO.N,TX1_PA*%
X46800000Y-20424152D03*
%TO.P,CA80,2*%
%TO.N,GND*%
X47970000Y-20424152D03*
%TD*%
%TO.P,R2,1*%
%TO.N,VF*%
X60415000Y-33880000D03*
%TO.P,R2,2*%
%TO.N,EN*%
X61585000Y-33880000D03*
%TD*%
D26*
%TO.P,F1,1*%
%TO.N,VF*%
X88350000Y-24460000D03*
%TO.P,F1,2*%
%TO.N,VIN*%
X90650000Y-24460000D03*
%TD*%
D11*
%TO.P,CA1,1*%
%TO.N,TX1_P*%
X15814999Y-10000000D03*
%TO.P,CA1,2*%
%TO.N,TX1_DI*%
X16985000Y-10000000D03*
%TD*%
D22*
%TO.P,UB1,1*%
%TO.N,TX2_DI*%
X21000000Y-74000000D03*
D23*
%TO.P,UB1,2*%
%TO.N,GND*%
X22500000Y-74087500D03*
D22*
%TO.P,UB1,3*%
%TO.N,TX2_D*%
X24000000Y-74000000D03*
D24*
%TO.P,UB1,4*%
%TO.N,GND*%
X22500000Y-76387500D03*
%TD*%
D27*
%TO.N,DETA*%
X94981001Y-14773861D03*
%TO.N,DETB*%
X94981001Y-69226138D03*
%TO.N,EN*%
X65000000Y-33880000D03*
D28*
%TO.N,GND*%
X41740000Y-71520000D03*
D29*
X41100000Y-73400000D03*
D28*
X42980000Y-7519999D03*
D30*
X63000000Y-51000000D03*
X18000000Y-51000000D03*
X1200000Y-7245135D03*
X33000000Y-6000000D03*
X12000000Y-66000000D03*
X81000000Y-3000000D03*
X33000000Y-81000000D03*
X12000000Y-30000000D03*
X3000000Y-27000000D03*
X9000000Y-66000000D03*
X66000000Y-66000000D03*
D28*
X38020000Y-71520000D03*
X38020000Y-11860000D03*
D30*
X12000000Y-60000000D03*
D28*
X41120000Y-11239999D03*
D30*
X18000000Y-36000000D03*
X39000000Y-3000000D03*
X54000000Y-21000000D03*
X3000000Y-51000000D03*
X27000000Y-42000000D03*
D31*
X48500000Y-24374152D03*
X25850000Y-55000000D03*
D30*
X9000000Y-60000000D03*
X84000000Y-54000000D03*
X33000000Y-15000000D03*
X24000000Y-36000000D03*
X63000000Y-15000000D03*
D28*
X39260000Y-11239999D03*
D30*
X3740000Y-12754864D03*
D28*
X41120000Y-12480000D03*
D30*
X98800000Y-71245135D03*
X98800000Y-68754864D03*
D28*
X38020000Y-72760000D03*
D30*
X72000000Y-51000000D03*
D31*
X27229999Y-63575847D03*
D30*
X6000000Y-42000000D03*
D28*
X42980000Y-71520000D03*
D31*
X16149999Y-25504152D03*
D30*
X81000000Y-6000000D03*
X6000000Y-18000000D03*
X69000000Y-3000000D03*
X97530000Y-63245135D03*
X87000000Y-63000000D03*
X96259999Y-7245135D03*
D31*
X86350000Y-26700000D03*
D30*
X60000000Y-36000000D03*
X2469999Y-76754864D03*
X15000000Y-3000000D03*
D31*
X12400000Y-11170000D03*
D30*
X24000000Y-15000000D03*
X72000000Y-60000000D03*
X81000000Y-63000000D03*
X93000000Y-60000000D03*
X72000000Y-3000000D03*
X78000000Y-54000000D03*
D28*
X42980000Y-11239999D03*
D30*
X60000000Y-3000000D03*
D29*
X40500000Y-73400000D03*
D30*
X66000000Y-51000000D03*
X15000000Y-42000000D03*
D29*
X39900000Y-74600000D03*
D31*
X52000000Y-15170000D03*
D30*
X78000000Y-78000000D03*
D31*
X47970000Y-63575847D03*
D30*
X12000000Y-27000000D03*
D28*
X41120000Y-8760000D03*
D30*
X3000000Y-24000000D03*
X12000000Y-21000000D03*
X54000000Y-78000000D03*
X6000000Y-24000000D03*
X6000000Y-48000000D03*
D29*
X41100000Y-74600000D03*
X21950000Y-77487500D03*
D30*
X69000000Y-27000000D03*
X15000000Y-33000000D03*
X51000000Y-66000000D03*
X75000000Y-57000000D03*
X12000000Y-36000000D03*
D28*
X41740000Y-11860000D03*
D30*
X72000000Y-57000000D03*
X78000000Y-6000000D03*
X96259999Y-76754864D03*
X9000000Y-42000000D03*
X30000000Y-15000000D03*
X78000000Y-51000000D03*
X66000000Y-6000000D03*
X9000000Y-51000000D03*
D31*
X26700000Y-59625847D03*
D30*
X69000000Y-81000000D03*
D28*
X38640000Y-75240000D03*
X39260000Y-11860000D03*
D29*
X23050000Y-6512500D03*
D30*
X51000000Y-18000000D03*
X36000000Y-57000000D03*
X51000000Y-57000000D03*
X72000000Y-81000000D03*
X30000000Y-30000000D03*
X18000000Y-18000000D03*
D29*
X21950000Y-76387500D03*
D30*
X97530000Y-76754864D03*
D31*
X82196001Y-15943861D03*
D30*
X69000000Y-6000000D03*
X24000000Y-21000000D03*
D28*
X39260000Y-12480000D03*
D30*
X24000000Y-18000000D03*
X78000000Y-57000000D03*
X27000000Y-81000000D03*
X42000000Y-3000000D03*
X9000000Y-39000000D03*
X96259999Y-15245135D03*
X3000000Y-54000000D03*
X42000000Y-42000000D03*
X24000000Y-48000000D03*
X45000000Y-69000000D03*
X27000000Y-36000000D03*
D31*
X82196001Y-68056138D03*
D28*
X41120000Y-11860000D03*
D30*
X51000000Y-27000000D03*
X63000000Y-3000000D03*
X66000000Y-60000000D03*
X54000000Y-33000000D03*
X75000000Y-27000000D03*
D31*
X33369999Y-52950000D03*
D30*
X72000000Y-78000000D03*
X39000000Y-27000000D03*
X60000000Y-57000000D03*
X15000000Y-18000000D03*
D31*
X22500000Y-27870000D03*
D30*
X81000000Y-21000000D03*
X75000000Y-60000000D03*
X51000000Y-21000000D03*
X75000000Y-78000000D03*
D29*
X39900000Y-9400000D03*
D30*
X48000000Y-81000000D03*
X12000000Y-42000000D03*
X1200000Y-12754864D03*
X57000000Y-6000000D03*
X98800000Y-12754864D03*
X9000000Y-24000000D03*
D29*
X40500000Y-74600000D03*
D30*
X45000000Y-63000000D03*
D31*
X86350000Y-22160000D03*
D28*
X38020000Y-8760000D03*
D31*
X48500000Y-59625847D03*
D28*
X39880000Y-12480000D03*
D30*
X72000000Y-21000000D03*
X9000000Y-21000000D03*
D31*
X8600000Y-72830000D03*
D30*
X63000000Y-60000000D03*
D29*
X23050000Y-76387500D03*
D30*
X3000000Y-39000000D03*
D29*
X39900000Y-73400000D03*
D30*
X69000000Y-57000000D03*
D31*
X91381001Y-15943861D03*
D30*
X51000000Y-63000000D03*
X57000000Y-81000000D03*
X36000000Y-69000000D03*
D31*
X87981001Y-15943861D03*
D30*
X75000000Y-81000000D03*
X18000000Y-48000000D03*
X60000000Y-15000000D03*
X24000000Y-69000000D03*
X15000000Y-30000000D03*
X42000000Y-60000000D03*
X54000000Y-63000000D03*
X72000000Y-63000000D03*
X87000000Y-3000000D03*
X60000000Y-21000000D03*
X3000000Y-18000000D03*
X63000000Y-21000000D03*
X63000000Y-54000000D03*
X45000000Y-60000000D03*
X6000000Y-57000000D03*
X36000000Y-36000000D03*
X6000000Y-39000000D03*
X12000000Y-78000000D03*
X60000000Y-54000000D03*
D31*
X50200000Y-24374152D03*
D30*
X3000000Y-45000000D03*
D31*
X91381001Y-68056138D03*
D30*
X63000000Y-63000000D03*
X60000000Y-51000000D03*
X66000000Y-15000000D03*
X15000000Y-48000000D03*
X15000000Y-15000000D03*
X9000000Y-69000000D03*
X3000000Y-66000000D03*
D28*
X42360000Y-8760000D03*
D30*
X18000000Y-63000000D03*
X66000000Y-57000000D03*
X24000000Y-63000000D03*
X30000000Y-6000000D03*
X1200000Y-76754864D03*
X18000000Y-54000000D03*
X78000000Y-69000000D03*
X15000000Y-39000000D03*
X9000000Y-57000000D03*
X33000000Y-48000000D03*
X21000000Y-15000000D03*
X12000000Y-15000000D03*
D28*
X41740000Y-75860000D03*
D30*
X84000000Y-6000000D03*
X81000000Y-78000000D03*
X69000000Y-60000000D03*
X78000000Y-21000000D03*
D31*
X35070000Y-52950000D03*
X17850000Y-25504152D03*
D28*
X38020000Y-75860000D03*
D30*
X3000000Y-33000000D03*
X90000000Y-63000000D03*
X84000000Y-78000000D03*
X33000000Y-36000000D03*
X36000000Y-15000000D03*
X21000000Y-21000000D03*
X18000000Y-81000000D03*
X30000000Y-3000000D03*
X9000000Y-48000000D03*
X42000000Y-81000000D03*
X18000000Y-30000000D03*
D29*
X21950000Y-75287500D03*
X41100000Y-9400000D03*
X21950000Y-7612499D03*
D30*
X42000000Y-78000000D03*
X18000000Y-69000000D03*
X45000000Y-15000000D03*
X15000000Y-54000000D03*
X66000000Y-54000000D03*
X36000000Y-6000000D03*
X54000000Y-6000000D03*
X18000000Y-33000000D03*
X12000000Y-33000000D03*
X36000000Y-48000000D03*
X54000000Y-18000000D03*
D28*
X41120000Y-72760000D03*
D30*
X54000000Y-30000000D03*
X63000000Y-81000000D03*
X6000000Y-27000000D03*
D31*
X55650000Y-25504152D03*
D30*
X96259999Y-63245135D03*
X69000000Y-69000000D03*
X24000000Y-51000000D03*
X27000000Y-48000000D03*
X42000000Y-66000000D03*
X3740000Y-7245135D03*
X60000000Y-66000000D03*
X48000000Y-3000000D03*
X36000000Y-78000000D03*
X75000000Y-51000000D03*
X90000000Y-78000000D03*
D31*
X8600000Y-11170000D03*
D30*
X48000000Y-30000000D03*
X75000000Y-6000000D03*
X3000000Y-63000000D03*
X51000000Y-39000000D03*
X81000000Y-81000000D03*
D31*
X87981001Y-68056138D03*
D30*
X93000000Y-54000000D03*
D28*
X42980000Y-12480000D03*
D30*
X6000000Y-15000000D03*
X15000000Y-66000000D03*
X30000000Y-36000000D03*
X90000000Y-21000000D03*
X54000000Y-81000000D03*
X9000000Y-36000000D03*
D28*
X41120000Y-71520000D03*
X41740000Y-9379999D03*
D30*
X48000000Y-54000000D03*
X6000000Y-33000000D03*
X39000000Y-48000000D03*
X51000000Y-48000000D03*
X69000000Y-66000000D03*
X21000000Y-63000000D03*
X78000000Y-3000000D03*
D31*
X17850000Y-58495847D03*
D30*
X96000000Y-42000000D03*
X93000000Y-57000000D03*
X21000000Y-42000000D03*
X6000000Y-21000000D03*
X27000000Y-66000000D03*
X30000000Y-69000000D03*
X42000000Y-6000000D03*
X27000000Y-69000000D03*
X15000000Y-81000000D03*
X36000000Y-27000000D03*
D29*
X40500000Y-10599999D03*
D30*
X66000000Y-3000000D03*
X60000000Y-81000000D03*
X51000000Y-81000000D03*
X12000000Y-51000000D03*
X84000000Y-3000000D03*
X18000000Y-3000000D03*
X15000000Y-78000000D03*
X15000000Y-21000000D03*
X54000000Y-54000000D03*
D28*
X42980000Y-11860000D03*
D30*
X12000000Y-45000000D03*
X39000000Y-15000000D03*
X69000000Y-54000000D03*
X69000000Y-18000000D03*
X39000000Y-54000000D03*
X81000000Y-51000000D03*
X51000000Y-3000000D03*
X98800000Y-76754864D03*
X57000000Y-3000000D03*
X18000000Y-78000000D03*
X54000000Y-48000000D03*
D31*
X63500000Y-35050000D03*
D30*
X78000000Y-60000000D03*
X9000000Y-45000000D03*
X15000000Y-6000000D03*
X45000000Y-3000000D03*
X3000000Y-21000000D03*
D28*
X41740000Y-11239999D03*
D30*
X12000000Y-69000000D03*
D28*
X39260000Y-9379999D03*
X39260000Y-75860000D03*
D30*
X18000000Y-15000000D03*
X12000000Y-63000000D03*
X54000000Y-39000000D03*
X42000000Y-15000000D03*
D28*
X38020000Y-76480000D03*
D30*
X97530000Y-68754864D03*
D28*
X39260000Y-72760000D03*
D31*
X24150000Y-55000000D03*
D30*
X3000000Y-57000000D03*
X97530000Y-12754864D03*
X60000000Y-63000000D03*
D31*
X27229999Y-20424152D03*
D28*
X39260000Y-74620000D03*
D30*
X12000000Y-18000000D03*
X27000000Y-3000000D03*
X36000000Y-42000000D03*
X42000000Y-63000000D03*
D28*
X38020000Y-12480000D03*
D29*
X39900000Y-10599999D03*
D28*
X41120000Y-7519999D03*
D30*
X2469999Y-71245135D03*
X12000000Y-24000000D03*
X6000000Y-36000000D03*
X30000000Y-81000000D03*
X51000000Y-51000000D03*
X18000000Y-21000000D03*
X12000000Y-3000000D03*
D31*
X12400000Y-72830000D03*
D30*
X75000000Y-63000000D03*
X69000000Y-51000000D03*
D28*
X38020000Y-11239999D03*
D30*
X42000000Y-18000000D03*
D28*
X41120000Y-76480000D03*
X38020000Y-8140000D03*
X41740000Y-8140000D03*
D30*
X30000000Y-42000000D03*
D28*
X41740000Y-74620000D03*
D30*
X39000000Y-36000000D03*
X96259999Y-12754864D03*
X98800000Y-20754864D03*
X45000000Y-66000000D03*
X78000000Y-63000000D03*
D31*
X89800000Y-27830000D03*
D30*
X51000000Y-33000000D03*
X96000000Y-39000000D03*
X60000000Y-60000000D03*
D28*
X42980000Y-75860000D03*
D30*
X24000000Y-66000000D03*
X60000000Y-69000000D03*
X45000000Y-21000000D03*
X81000000Y-60000000D03*
D29*
X21950000Y-6512500D03*
D30*
X78000000Y-81000000D03*
X63000000Y-69000000D03*
D31*
X24150000Y-29000000D03*
D30*
X63000000Y-6000000D03*
X63000000Y-30000000D03*
X87000000Y-81000000D03*
X75000000Y-21000000D03*
X96259999Y-68754864D03*
X45000000Y-6000000D03*
D29*
X23050000Y-75287500D03*
D30*
X9000000Y-15000000D03*
D28*
X41740000Y-76480000D03*
D31*
X25850000Y-29000000D03*
D30*
X98800000Y-7245135D03*
X6000000Y-51000000D03*
X66000000Y-27000000D03*
X39000000Y-78000000D03*
D31*
X93000000Y-20769999D03*
D28*
X42360000Y-75240000D03*
D30*
X45000000Y-78000000D03*
X93000000Y-27000000D03*
X6000000Y-60000000D03*
X18000000Y-45000000D03*
X54000000Y-36000000D03*
X18000000Y-6000000D03*
D31*
X89681001Y-15943861D03*
D30*
X27000000Y-18000000D03*
X24000000Y-81000000D03*
X84000000Y-60000000D03*
X33000000Y-78000000D03*
X63000000Y-78000000D03*
X45000000Y-24000000D03*
X66000000Y-21000000D03*
D28*
X40500000Y-75240000D03*
X41740000Y-7519999D03*
D30*
X30000000Y-78000000D03*
X9000000Y-30000000D03*
X63000000Y-57000000D03*
D29*
X22500000Y-7062500D03*
D30*
X39000000Y-57000000D03*
D31*
X16149999Y-58495847D03*
D30*
X69000000Y-21000000D03*
X24000000Y-42000000D03*
X9000000Y-63000000D03*
X12000000Y-6000000D03*
X6000000Y-66000000D03*
X45000000Y-18000000D03*
D29*
X23050000Y-77487500D03*
D30*
X36000000Y-3000000D03*
X33000000Y-69000000D03*
X27000000Y-6000000D03*
X21000000Y-69000000D03*
X12000000Y-39000000D03*
D28*
X39880000Y-75860000D03*
D30*
X96259999Y-71245135D03*
X48000000Y-6000000D03*
X87000000Y-57000000D03*
X39000000Y-30000000D03*
X98800000Y-63245135D03*
X75000000Y-54000000D03*
D31*
X84850000Y-26700000D03*
D30*
X96000000Y-45000000D03*
X87000000Y-60000000D03*
X6000000Y-63000000D03*
X12000000Y-48000000D03*
X97530000Y-71245135D03*
X42000000Y-69000000D03*
D28*
X42980000Y-76480000D03*
D30*
X30000000Y-54000000D03*
X96259999Y-20754864D03*
X66000000Y-63000000D03*
X81000000Y-54000000D03*
D28*
X41740000Y-72760000D03*
X38640000Y-72140000D03*
X41740000Y-73380000D03*
D30*
X51000000Y-30000000D03*
X3740000Y-71245135D03*
X97530000Y-7245135D03*
X60000000Y-78000000D03*
X87000000Y-6000000D03*
X63000000Y-66000000D03*
X84000000Y-63000000D03*
D29*
X22500000Y-8162499D03*
D30*
X12000000Y-81000000D03*
X87000000Y-51000000D03*
D29*
X40500000Y-9400000D03*
D30*
X81000000Y-57000000D03*
X97530000Y-20754864D03*
X33000000Y-42000000D03*
X87000000Y-54000000D03*
X60000000Y-6000000D03*
D31*
X84650000Y-22160000D03*
D30*
X51000000Y-78000000D03*
D31*
X25000000Y-59625847D03*
D28*
X38020000Y-7519999D03*
D30*
X72000000Y-6000000D03*
D29*
X23050000Y-7612499D03*
D30*
X60000000Y-18000000D03*
X3000000Y-48000000D03*
X54000000Y-3000000D03*
X18000000Y-42000000D03*
X72000000Y-27000000D03*
X63000000Y-18000000D03*
D31*
X55650000Y-58495847D03*
D30*
X3000000Y-60000000D03*
D28*
X39260000Y-73380000D03*
D30*
X6000000Y-30000000D03*
X18000000Y-66000000D03*
X15000000Y-63000000D03*
X15000000Y-51000000D03*
X6000000Y-69000000D03*
X15000000Y-45000000D03*
X33000000Y-3000000D03*
D31*
X47970000Y-20424152D03*
D30*
X72000000Y-54000000D03*
X63000000Y-27000000D03*
X51000000Y-54000000D03*
D31*
X25000000Y-24374152D03*
D30*
X27000000Y-15000000D03*
X24000000Y-33000000D03*
X75000000Y-3000000D03*
X84000000Y-57000000D03*
D31*
X22500000Y-56130000D03*
D30*
X3000000Y-36000000D03*
D31*
X35070000Y-31049999D03*
D30*
X12000000Y-57000000D03*
D29*
X21950000Y-8712499D03*
D30*
X90000000Y-6000000D03*
X36000000Y-81000000D03*
X30000000Y-48000000D03*
X27000000Y-78000000D03*
X21000000Y-3000000D03*
X69000000Y-78000000D03*
X48000000Y-78000000D03*
X66000000Y-78000000D03*
X6000000Y-45000000D03*
X51000000Y-36000000D03*
X21000000Y-81000000D03*
X51000000Y-6000000D03*
X78000000Y-15000000D03*
D31*
X53949999Y-58495847D03*
D30*
X90000000Y-81000000D03*
X45000000Y-81000000D03*
X90000000Y-3000000D03*
D28*
X39880000Y-11239999D03*
X41120000Y-75860000D03*
X39880000Y-76480000D03*
D30*
X6000000Y-54000000D03*
X98800000Y-15245135D03*
D28*
X41120000Y-8140000D03*
D30*
X66000000Y-81000000D03*
X90000000Y-60000000D03*
X24000000Y-3000000D03*
X12000000Y-54000000D03*
X97530000Y-15245135D03*
D28*
X42980000Y-8140000D03*
D30*
X2469999Y-12754864D03*
X87000000Y-78000000D03*
X3000000Y-30000000D03*
D28*
X42360000Y-72140000D03*
D30*
X9000000Y-33000000D03*
X21000000Y-66000000D03*
X66000000Y-69000000D03*
X21000000Y-18000000D03*
X54000000Y-66000000D03*
X9000000Y-18000000D03*
D31*
X93000000Y-63230000D03*
X26700000Y-24374152D03*
D30*
X90000000Y-57000000D03*
D31*
X50200000Y-59625847D03*
D30*
X3000000Y-42000000D03*
X45000000Y-30000000D03*
X54000000Y-51000000D03*
X42000000Y-24000000D03*
X66000000Y-18000000D03*
X39000000Y-42000000D03*
X15000000Y-69000000D03*
D31*
X89681001Y-68056138D03*
D28*
X41740000Y-12480000D03*
D31*
X33369999Y-31049999D03*
D29*
X23050000Y-8712499D03*
D28*
X39880000Y-11860000D03*
D30*
X84000000Y-51000000D03*
D29*
X22500000Y-75837500D03*
D30*
X90000000Y-54000000D03*
X45000000Y-54000000D03*
X18000000Y-39000000D03*
X9000000Y-27000000D03*
D31*
X88050000Y-26700000D03*
D28*
X42980000Y-72760000D03*
D30*
X69000000Y-63000000D03*
X57000000Y-78000000D03*
X84000000Y-81000000D03*
X2469999Y-7245135D03*
D29*
X22500000Y-76937500D03*
D31*
X53949999Y-25504152D03*
D30*
X39000000Y-81000000D03*
X9000000Y-54000000D03*
X15000000Y-36000000D03*
D31*
X52000000Y-68830000D03*
X83150000Y-26700000D03*
D29*
X41100000Y-10599999D03*
D30*
X69000000Y-15000000D03*
X1200000Y-71245135D03*
X42000000Y-21000000D03*
D28*
X39260000Y-76480000D03*
D30*
X3740000Y-76754864D03*
D27*
%TO.N,IMONA*%
X45140000Y-39950000D03*
%TO.N,IMONB*%
X45140000Y-44050000D03*
%TO.N,TEMPA*%
X56400000Y-14000000D03*
%TO.N,TEMPB*%
X56400000Y-70000000D03*
%TD*%
%TA.AperFunction,Conductor*%
%TO.N,GND*%
G36*
X78959274Y-23527174D02*
G01*
X78980948Y-23579500D01*
X78968476Y-23620610D01*
X78964034Y-23627260D01*
X78964033Y-23627261D01*
X78953444Y-23680499D01*
X78949500Y-23700326D01*
X78949500Y-25224674D01*
X78951541Y-25234938D01*
X78956855Y-25261652D01*
X78945805Y-25317201D01*
X78898713Y-25348666D01*
X78877021Y-25349731D01*
X78874676Y-25349500D01*
X78874674Y-25349500D01*
X78225326Y-25349500D01*
X78176615Y-25359189D01*
X78152259Y-25364034D01*
X78069399Y-25419398D01*
X78069398Y-25419399D01*
X78014034Y-25502259D01*
X78014034Y-25502260D01*
X77999500Y-25575326D01*
X77999500Y-27099674D01*
X78014034Y-27172740D01*
X78069398Y-27255600D01*
X78069401Y-27255603D01*
X78086611Y-27267102D01*
X78118078Y-27314193D01*
X78119500Y-27328631D01*
X78119500Y-30495500D01*
X78097826Y-30547826D01*
X78045500Y-30569500D01*
X69000000Y-30569500D01*
X67000000Y-30569500D01*
X66934816Y-30582466D01*
X66902223Y-30588949D01*
X66819334Y-30644333D01*
X66819333Y-30644334D01*
X66759900Y-30733283D01*
X66757870Y-30731926D01*
X66731926Y-30757870D01*
X66733283Y-30759900D01*
X66644334Y-30819333D01*
X66644333Y-30819334D01*
X66588949Y-30902223D01*
X66588949Y-30902224D01*
X66569501Y-30999998D01*
X66569500Y-31000001D01*
X66569500Y-31011367D01*
X66547826Y-31063693D01*
X66536613Y-31072895D01*
X66519400Y-31084396D01*
X66519398Y-31084398D01*
X66464034Y-31167258D01*
X66449500Y-31240326D01*
X66449500Y-32764673D01*
X66456855Y-32801653D01*
X66445805Y-32857201D01*
X66398712Y-32888666D01*
X66377021Y-32889731D01*
X66374676Y-32889500D01*
X66374674Y-32889500D01*
X65725326Y-32889500D01*
X65676615Y-32899189D01*
X65652259Y-32904034D01*
X65569399Y-32959398D01*
X65569398Y-32959399D01*
X65514034Y-33042259D01*
X65499500Y-33115327D01*
X65499500Y-33275335D01*
X65477826Y-33327661D01*
X65425500Y-33349335D01*
X65404948Y-33345247D01*
X65404924Y-33345371D01*
X65397776Y-33343949D01*
X65300000Y-33324500D01*
X64700000Y-33324500D01*
X64652070Y-33334034D01*
X64602223Y-33343949D01*
X64519335Y-33399332D01*
X64519334Y-33399334D01*
X64507788Y-33416613D01*
X64460698Y-33448078D01*
X64446261Y-33449500D01*
X64070313Y-33449500D01*
X64017987Y-33427826D01*
X64008784Y-33416612D01*
X63990601Y-33389399D01*
X63990600Y-33389398D01*
X63907740Y-33334034D01*
X63834674Y-33319500D01*
X63165326Y-33319500D01*
X63124299Y-33327661D01*
X63092259Y-33334034D01*
X63009399Y-33389398D01*
X63009398Y-33389399D01*
X62991216Y-33416612D01*
X62944124Y-33448078D01*
X62929687Y-33449500D01*
X62155313Y-33449500D01*
X62102987Y-33427826D01*
X62093784Y-33416612D01*
X62075601Y-33389399D01*
X62075600Y-33389398D01*
X61992740Y-33334034D01*
X61919674Y-33319500D01*
X61250326Y-33319500D01*
X61209299Y-33327661D01*
X61177259Y-33334034D01*
X61094399Y-33389398D01*
X61094398Y-33389399D01*
X61061529Y-33438593D01*
X61014437Y-33470059D01*
X60958888Y-33459010D01*
X60938471Y-33438593D01*
X60905601Y-33389399D01*
X60905600Y-33389398D01*
X60822740Y-33334034D01*
X60749674Y-33319500D01*
X60080326Y-33319500D01*
X60039299Y-33327661D01*
X60007259Y-33334034D01*
X59984360Y-33349335D01*
X59968209Y-33360127D01*
X59965362Y-33362029D01*
X59924250Y-33374500D01*
X59579500Y-33374500D01*
X59527174Y-33352826D01*
X59505500Y-33300500D01*
X59505500Y-23579500D01*
X59527174Y-23527174D01*
X59579500Y-23505500D01*
X78906948Y-23505500D01*
X78959274Y-23527174D01*
G37*
%TD.AperFunction*%
%TA.AperFunction,Conductor*%
G36*
X97003614Y-250355D02*
G01*
X97529249Y-302126D01*
X97543466Y-304953D01*
X98045407Y-457216D01*
X98058809Y-462768D01*
X98521388Y-710021D01*
X98533450Y-718080D01*
X98938908Y-1050832D01*
X98949166Y-1061090D01*
X99281918Y-1466548D01*
X99289977Y-1478610D01*
X99537230Y-1941189D01*
X99542782Y-1954591D01*
X99695043Y-2456527D01*
X99697873Y-2470755D01*
X99749644Y-2996385D01*
X99750000Y-3003638D01*
X99750000Y-8743735D01*
X99728326Y-8796061D01*
X99676000Y-8817735D01*
X82196001Y-8817735D01*
X82176505Y-8821613D01*
X82156556Y-8825581D01*
X82142120Y-8827003D01*
X73925173Y-8827003D01*
X73910737Y-8825581D01*
X73890788Y-8821613D01*
X73871292Y-8817735D01*
X73871291Y-8817735D01*
X71000792Y-8817735D01*
X70948466Y-8796061D01*
X70926792Y-8743735D01*
X70926792Y-7377415D01*
X70926792Y-7377414D01*
X70907343Y-7279638D01*
X70851958Y-7196748D01*
X70769068Y-7141363D01*
X70671292Y-7121914D01*
X68790414Y-7121914D01*
X68725230Y-7134880D01*
X68692637Y-7141363D01*
X68609748Y-7196747D01*
X68609747Y-7196748D01*
X68554363Y-7279637D01*
X68534914Y-7377415D01*
X68534914Y-9568337D01*
X68513240Y-9620663D01*
X68460914Y-9642337D01*
X67113267Y-9642337D01*
X67060941Y-9620663D01*
X67039267Y-9568337D01*
X67039267Y-7377415D01*
X67039267Y-7377414D01*
X67019818Y-7279638D01*
X66964433Y-7196748D01*
X66881543Y-7141363D01*
X66783767Y-7121914D01*
X63445098Y-7121914D01*
X63379914Y-7134880D01*
X63347321Y-7141363D01*
X63264432Y-7196747D01*
X63264431Y-7196748D01*
X63209047Y-7279637D01*
X63189598Y-7377415D01*
X63189598Y-9568337D01*
X63167924Y-9620663D01*
X63115598Y-9642337D01*
X61555693Y-9642337D01*
X61503367Y-9620663D01*
X61481693Y-9568337D01*
X61481693Y-7377415D01*
X61481693Y-7377414D01*
X61462244Y-7279638D01*
X61406859Y-7196748D01*
X61323969Y-7141363D01*
X61226193Y-7121914D01*
X57887524Y-7121914D01*
X57822340Y-7134880D01*
X57789747Y-7141363D01*
X57706858Y-7196747D01*
X57706857Y-7196748D01*
X57651473Y-7279637D01*
X57632024Y-7377415D01*
X57632024Y-9568337D01*
X57610350Y-9620663D01*
X57558024Y-9642337D01*
X56210377Y-9642337D01*
X56158051Y-9620663D01*
X56136377Y-9568337D01*
X56136377Y-7377415D01*
X56136377Y-7377414D01*
X56116928Y-7279638D01*
X56061543Y-7196748D01*
X55978653Y-7141363D01*
X55880877Y-7121914D01*
X54000000Y-7121914D01*
X53934816Y-7134880D01*
X53902223Y-7141363D01*
X53819334Y-7196747D01*
X53819333Y-7196748D01*
X53763949Y-7279637D01*
X53744500Y-7377415D01*
X53744500Y-8743735D01*
X53722826Y-8796061D01*
X53670500Y-8817735D01*
X51585000Y-8817735D01*
X51519816Y-8830701D01*
X51487223Y-8837184D01*
X51404334Y-8892568D01*
X51404333Y-8892569D01*
X51348949Y-8975458D01*
X51329500Y-9073236D01*
X51329500Y-9365500D01*
X51307826Y-9417826D01*
X51255500Y-9439500D01*
X51250326Y-9439500D01*
X51201615Y-9449189D01*
X51177259Y-9454034D01*
X51094399Y-9509398D01*
X51094398Y-9509399D01*
X51061529Y-9558593D01*
X51014437Y-9590059D01*
X50958888Y-9579010D01*
X50938471Y-9558593D01*
X50905601Y-9509399D01*
X50905600Y-9509398D01*
X50822740Y-9454034D01*
X50749674Y-9439500D01*
X50749672Y-9439500D01*
X50744500Y-9439500D01*
X50692174Y-9417826D01*
X50670500Y-9365500D01*
X50670500Y-9073236D01*
X50665465Y-9047922D01*
X50651051Y-8975459D01*
X50595666Y-8892569D01*
X50578426Y-8881050D01*
X50512776Y-8837184D01*
X50415000Y-8817735D01*
X46800000Y-8817735D01*
X44254999Y-8817735D01*
X44189815Y-8830701D01*
X44157222Y-8837184D01*
X44074333Y-8892568D01*
X44074332Y-8892569D01*
X44042507Y-8940200D01*
X43995415Y-8971666D01*
X43980978Y-8973088D01*
X43775000Y-8973088D01*
X43709816Y-8986054D01*
X43677223Y-8992537D01*
X43594334Y-9047921D01*
X43594333Y-9047922D01*
X43562508Y-9095553D01*
X43515416Y-9127019D01*
X43500979Y-9128441D01*
X43294999Y-9128441D01*
X43229815Y-9141407D01*
X43197222Y-9147890D01*
X43114333Y-9203274D01*
X43114332Y-9203275D01*
X43082507Y-9250906D01*
X43035415Y-9282372D01*
X43020978Y-9283794D01*
X42815000Y-9283794D01*
X42749816Y-9296760D01*
X42717223Y-9303243D01*
X42634334Y-9358627D01*
X42634333Y-9358628D01*
X42602508Y-9406259D01*
X42555416Y-9437725D01*
X42540979Y-9439147D01*
X42334999Y-9439147D01*
X42269815Y-9452113D01*
X42237222Y-9458596D01*
X42154333Y-9513980D01*
X42154332Y-9513981D01*
X42122508Y-9561611D01*
X42075416Y-9593077D01*
X42060979Y-9594499D01*
X41855000Y-9594499D01*
X41789816Y-9607465D01*
X41757223Y-9613948D01*
X41674334Y-9669332D01*
X41674333Y-9669333D01*
X41618949Y-9752222D01*
X41618949Y-9752223D01*
X41599500Y-9849999D01*
X41599500Y-10150000D01*
X41618949Y-10247776D01*
X41674334Y-10330666D01*
X41757224Y-10386051D01*
X41855000Y-10405500D01*
X42060979Y-10405500D01*
X42113305Y-10427174D01*
X42122507Y-10438387D01*
X42154333Y-10486018D01*
X42237223Y-10541403D01*
X42334999Y-10560852D01*
X42540979Y-10560852D01*
X42593305Y-10582526D01*
X42602508Y-10593740D01*
X42613046Y-10609512D01*
X42634334Y-10641371D01*
X42717224Y-10696756D01*
X42815000Y-10716205D01*
X43020978Y-10716205D01*
X43073304Y-10737879D01*
X43082507Y-10749093D01*
X43114333Y-10796724D01*
X43197223Y-10852109D01*
X43294999Y-10871558D01*
X43500979Y-10871558D01*
X43553305Y-10893232D01*
X43562508Y-10904446D01*
X43594334Y-10952077D01*
X43677224Y-11007462D01*
X43775000Y-11026911D01*
X43980978Y-11026911D01*
X44033304Y-11048585D01*
X44042507Y-11059799D01*
X44074333Y-11107430D01*
X44157223Y-11162815D01*
X44254999Y-11182264D01*
X46368890Y-11182264D01*
X46421216Y-11203938D01*
X46442890Y-11256264D01*
X46442890Y-19489336D01*
X46421216Y-19541662D01*
X46383327Y-19561914D01*
X46352222Y-19568101D01*
X46269333Y-19623485D01*
X46269332Y-19623486D01*
X46213948Y-19706375D01*
X46213948Y-19706376D01*
X46194500Y-19804150D01*
X46194499Y-19804153D01*
X46194499Y-25320500D01*
X46172825Y-25372826D01*
X46120499Y-25394500D01*
X42850000Y-25394500D01*
X42150000Y-25394500D01*
X42084816Y-25407466D01*
X42052223Y-25413949D01*
X41969334Y-25469333D01*
X41969333Y-25469334D01*
X41913949Y-25552223D01*
X41894500Y-25650001D01*
X41894500Y-31000500D01*
X41872826Y-31052826D01*
X41820500Y-31074500D01*
X41675326Y-31074500D01*
X41626615Y-31084189D01*
X41602259Y-31089034D01*
X41519399Y-31144398D01*
X41519398Y-31144399D01*
X41464034Y-31227259D01*
X41449500Y-31300327D01*
X41449500Y-32320500D01*
X41427826Y-32372826D01*
X41375500Y-32394500D01*
X41124500Y-32394500D01*
X41072174Y-32372826D01*
X41050500Y-32320500D01*
X41050500Y-31300327D01*
X41050500Y-31300326D01*
X41035966Y-31227260D01*
X40980601Y-31144399D01*
X40897740Y-31089034D01*
X40824674Y-31074500D01*
X39175326Y-31074500D01*
X39126615Y-31084189D01*
X39102259Y-31089034D01*
X39019399Y-31144398D01*
X39019398Y-31144399D01*
X38964034Y-31227259D01*
X38949500Y-31300327D01*
X38949500Y-34699672D01*
X38964034Y-34772740D01*
X38983882Y-34802446D01*
X39019399Y-34855601D01*
X39102260Y-34910966D01*
X39175326Y-34925500D01*
X39175328Y-34925500D01*
X40824672Y-34925500D01*
X40824674Y-34925500D01*
X40897740Y-34910966D01*
X40980601Y-34855601D01*
X41035966Y-34772740D01*
X41050500Y-34699674D01*
X41050500Y-33679500D01*
X41072174Y-33627174D01*
X41124500Y-33605500D01*
X41375500Y-33605500D01*
X41427826Y-33627174D01*
X41449500Y-33679500D01*
X41449500Y-34699672D01*
X41464034Y-34772740D01*
X41483882Y-34802446D01*
X41519399Y-34855601D01*
X41602260Y-34910966D01*
X41675326Y-34925500D01*
X41920500Y-34925500D01*
X41972826Y-34947174D01*
X41994500Y-34999500D01*
X41994500Y-35384216D01*
X41982030Y-35425325D01*
X41971205Y-35441526D01*
X41964033Y-35452261D01*
X41955632Y-35494500D01*
X41949500Y-35525326D01*
X41949500Y-36174674D01*
X41964034Y-36247740D01*
X42019399Y-36330601D01*
X42102260Y-36385966D01*
X42175326Y-36400500D01*
X42175328Y-36400500D01*
X43549672Y-36400500D01*
X43549674Y-36400500D01*
X43622740Y-36385966D01*
X43705601Y-36330601D01*
X43760966Y-36247740D01*
X43775500Y-36174674D01*
X43775500Y-35525326D01*
X44224500Y-35525326D01*
X44224500Y-36174674D01*
X44239034Y-36247740D01*
X44294399Y-36330601D01*
X44377260Y-36385966D01*
X44450326Y-36400500D01*
X44450328Y-36400500D01*
X45824672Y-36400500D01*
X45824674Y-36400500D01*
X45897740Y-36385966D01*
X45980601Y-36330601D01*
X46035966Y-36247740D01*
X46050500Y-36174674D01*
X46050500Y-35525326D01*
X46035966Y-35452260D01*
X46017969Y-35425325D01*
X46005500Y-35384216D01*
X46005500Y-34999500D01*
X46027174Y-34947174D01*
X46079500Y-34925500D01*
X46220500Y-34925500D01*
X46272826Y-34947174D01*
X46294500Y-34999500D01*
X46294500Y-49000500D01*
X46272826Y-49052826D01*
X46220500Y-49074500D01*
X46079500Y-49074500D01*
X46027174Y-49052826D01*
X46005500Y-49000500D01*
X46005500Y-48615783D01*
X46017971Y-48574671D01*
X46035966Y-48547740D01*
X46050500Y-48474674D01*
X46050500Y-47825326D01*
X46035966Y-47752260D01*
X45980601Y-47669399D01*
X45961725Y-47656787D01*
X45897740Y-47614034D01*
X45824674Y-47599500D01*
X44450326Y-47599500D01*
X44401615Y-47609189D01*
X44377259Y-47614034D01*
X44294399Y-47669398D01*
X44294398Y-47669399D01*
X44239034Y-47752259D01*
X44239034Y-47752260D01*
X44224500Y-47825326D01*
X44224500Y-48474674D01*
X44239034Y-48547740D01*
X44294399Y-48630601D01*
X44377260Y-48685966D01*
X44450326Y-48700500D01*
X44920500Y-48700500D01*
X44972826Y-48722174D01*
X44994500Y-48774500D01*
X44994500Y-49000500D01*
X44972826Y-49052826D01*
X44920500Y-49074500D01*
X44675326Y-49074500D01*
X44626615Y-49084189D01*
X44602259Y-49089034D01*
X44519399Y-49144398D01*
X44519398Y-49144399D01*
X44464034Y-49227259D01*
X44464034Y-49227260D01*
X44449500Y-49300326D01*
X44449500Y-52699674D01*
X44464034Y-52772740D01*
X44519399Y-52855601D01*
X44602260Y-52910966D01*
X44675326Y-52925500D01*
X44675328Y-52925500D01*
X46324672Y-52925500D01*
X46324674Y-52925500D01*
X46397740Y-52910966D01*
X46480601Y-52855601D01*
X46535966Y-52772740D01*
X46550500Y-52699674D01*
X46550500Y-51779500D01*
X46572174Y-51727174D01*
X46624500Y-51705500D01*
X46999998Y-51705500D01*
X47000000Y-51705500D01*
X47097776Y-51686051D01*
X47180666Y-51630666D01*
X47236051Y-51547776D01*
X47255500Y-51450000D01*
X47255500Y-51329500D01*
X47277174Y-51277174D01*
X47329500Y-51255500D01*
X47449998Y-51255500D01*
X47450000Y-51255500D01*
X47547776Y-51236051D01*
X47630666Y-51180666D01*
X47686051Y-51097776D01*
X47705500Y-51000000D01*
X47705500Y-49533388D01*
X91169500Y-49533388D01*
X91169500Y-49706611D01*
X91196597Y-49877698D01*
X91196600Y-49877711D01*
X91250125Y-50042442D01*
X91250127Y-50042446D01*
X91328767Y-50196787D01*
X91387234Y-50277260D01*
X91430586Y-50336928D01*
X91553072Y-50459414D01*
X91553075Y-50459416D01*
X91553076Y-50459417D01*
X91693212Y-50561232D01*
X91847553Y-50639872D01*
X91847557Y-50639874D01*
X92012288Y-50693399D01*
X92012294Y-50693400D01*
X92012299Y-50693402D01*
X92126359Y-50711467D01*
X92183388Y-50720500D01*
X92183389Y-50720500D01*
X92356612Y-50720500D01*
X92399383Y-50713725D01*
X92527701Y-50693402D01*
X92527708Y-50693399D01*
X92527711Y-50693399D01*
X92692442Y-50639874D01*
X92692442Y-50639873D01*
X92692445Y-50639873D01*
X92846788Y-50561232D01*
X92986928Y-50459414D01*
X93109414Y-50336928D01*
X93211232Y-50196788D01*
X93289873Y-50042445D01*
X93311681Y-49975327D01*
X93343399Y-49877711D01*
X93343399Y-49877708D01*
X93343402Y-49877701D01*
X93370500Y-49706611D01*
X93370500Y-49533389D01*
X93343402Y-49362299D01*
X93343400Y-49362294D01*
X93343399Y-49362288D01*
X93289874Y-49197557D01*
X93289872Y-49197553D01*
X93211232Y-49043212D01*
X93109417Y-48903076D01*
X93109416Y-48903075D01*
X93109414Y-48903072D01*
X92986928Y-48780586D01*
X92986925Y-48780583D01*
X92986923Y-48780582D01*
X92846787Y-48678767D01*
X92692446Y-48600127D01*
X92692442Y-48600125D01*
X92527711Y-48546600D01*
X92527698Y-48546597D01*
X92356612Y-48519500D01*
X92356611Y-48519500D01*
X92183389Y-48519500D01*
X92183388Y-48519500D01*
X92012301Y-48546597D01*
X92012288Y-48546600D01*
X91847557Y-48600125D01*
X91847553Y-48600127D01*
X91693212Y-48678767D01*
X91553076Y-48780582D01*
X91430582Y-48903076D01*
X91328767Y-49043212D01*
X91250127Y-49197553D01*
X91250125Y-49197557D01*
X91196600Y-49362288D01*
X91196597Y-49362301D01*
X91169500Y-49533388D01*
X47705500Y-49533388D01*
X47705500Y-46993388D01*
X88629500Y-46993388D01*
X88629500Y-47166611D01*
X88656597Y-47337698D01*
X88656600Y-47337711D01*
X88710125Y-47502442D01*
X88710127Y-47502446D01*
X88788767Y-47656787D01*
X88858132Y-47752260D01*
X88890586Y-47796928D01*
X89013072Y-47919414D01*
X89013075Y-47919416D01*
X89013076Y-47919417D01*
X89153212Y-48021232D01*
X89307553Y-48099872D01*
X89307557Y-48099874D01*
X89472288Y-48153399D01*
X89472294Y-48153400D01*
X89472299Y-48153402D01*
X89586359Y-48171467D01*
X89643388Y-48180500D01*
X89643389Y-48180500D01*
X89816612Y-48180500D01*
X89859383Y-48173725D01*
X89987701Y-48153402D01*
X89987708Y-48153399D01*
X89987711Y-48153399D01*
X90152442Y-48099874D01*
X90152442Y-48099873D01*
X90152445Y-48099873D01*
X90306788Y-48021232D01*
X90446928Y-47919414D01*
X90569414Y-47796928D01*
X90671232Y-47656788D01*
X90749873Y-47502445D01*
X90803402Y-47337701D01*
X90830500Y-47166611D01*
X90830500Y-46993389D01*
X90803402Y-46822299D01*
X90803400Y-46822294D01*
X90803399Y-46822288D01*
X90749874Y-46657557D01*
X90749872Y-46657553D01*
X90671232Y-46503212D01*
X90569417Y-46363076D01*
X90569416Y-46363075D01*
X90569414Y-46363072D01*
X90446928Y-46240586D01*
X90446925Y-46240583D01*
X90446923Y-46240582D01*
X90306787Y-46138767D01*
X90152446Y-46060127D01*
X90152442Y-46060125D01*
X89987711Y-46006600D01*
X89987698Y-46006597D01*
X89816612Y-45979500D01*
X89816611Y-45979500D01*
X89643389Y-45979500D01*
X89643388Y-45979500D01*
X89472301Y-46006597D01*
X89472288Y-46006600D01*
X89307557Y-46060125D01*
X89307553Y-46060127D01*
X89153212Y-46138767D01*
X89013076Y-46240582D01*
X88890582Y-46363076D01*
X88788767Y-46503212D01*
X88710127Y-46657553D01*
X88710125Y-46657557D01*
X88656600Y-46822288D01*
X88656597Y-46822301D01*
X88629500Y-46993388D01*
X47705500Y-46993388D01*
X47705500Y-44453388D01*
X88629500Y-44453388D01*
X88629500Y-44626611D01*
X88656597Y-44797698D01*
X88656600Y-44797711D01*
X88710125Y-44962442D01*
X88710127Y-44962446D01*
X88788767Y-45116787D01*
X88788768Y-45116788D01*
X88890586Y-45256928D01*
X89013072Y-45379414D01*
X89013075Y-45379416D01*
X89013076Y-45379417D01*
X89153212Y-45481232D01*
X89307553Y-45559872D01*
X89307557Y-45559874D01*
X89472288Y-45613399D01*
X89472294Y-45613400D01*
X89472299Y-45613402D01*
X89548683Y-45625500D01*
X89643388Y-45640500D01*
X89643389Y-45640500D01*
X89816612Y-45640500D01*
X89859383Y-45633725D01*
X89987701Y-45613402D01*
X89987708Y-45613399D01*
X89987711Y-45613399D01*
X90152442Y-45559874D01*
X90152442Y-45559873D01*
X90152445Y-45559873D01*
X90306788Y-45481232D01*
X90446928Y-45379414D01*
X90569414Y-45256928D01*
X90671232Y-45116788D01*
X90749873Y-44962445D01*
X90803402Y-44797701D01*
X90830500Y-44626611D01*
X90830500Y-44453389D01*
X90803402Y-44282299D01*
X90803400Y-44282294D01*
X90803399Y-44282288D01*
X90749874Y-44117557D01*
X90749872Y-44117553D01*
X90671232Y-43963212D01*
X90569417Y-43823076D01*
X90569416Y-43823075D01*
X90569414Y-43823072D01*
X90446928Y-43700586D01*
X90446925Y-43700583D01*
X90446923Y-43700582D01*
X90306787Y-43598767D01*
X90152446Y-43520127D01*
X90152442Y-43520125D01*
X89987711Y-43466600D01*
X89987698Y-43466597D01*
X89816612Y-43439500D01*
X89816611Y-43439500D01*
X89643389Y-43439500D01*
X89643388Y-43439500D01*
X89472301Y-43466597D01*
X89472288Y-43466600D01*
X89307557Y-43520125D01*
X89307553Y-43520127D01*
X89153212Y-43598767D01*
X89013076Y-43700582D01*
X88890582Y-43823076D01*
X88788767Y-43963212D01*
X88710127Y-44117553D01*
X88710125Y-44117557D01*
X88656600Y-44282288D01*
X88656597Y-44282301D01*
X88629500Y-44453388D01*
X47705500Y-44453388D01*
X47705500Y-43779500D01*
X47727174Y-43727174D01*
X47779500Y-43705500D01*
X81999998Y-43705500D01*
X82000000Y-43705500D01*
X82097776Y-43686051D01*
X82180666Y-43630666D01*
X82236051Y-43547776D01*
X82255500Y-43450000D01*
X82255500Y-43329500D01*
X82277174Y-43277174D01*
X82329500Y-43255500D01*
X82449998Y-43255500D01*
X82450000Y-43255500D01*
X82547776Y-43236051D01*
X82630666Y-43180666D01*
X82686051Y-43097776D01*
X82705500Y-43000000D01*
X82705500Y-41913388D01*
X88629500Y-41913388D01*
X88629500Y-42086611D01*
X88656597Y-42257698D01*
X88656600Y-42257711D01*
X88710125Y-42422442D01*
X88710127Y-42422446D01*
X88788767Y-42576787D01*
X88788768Y-42576788D01*
X88890586Y-42716928D01*
X89013072Y-42839414D01*
X89013075Y-42839416D01*
X89013076Y-42839417D01*
X89153212Y-42941232D01*
X89307553Y-43019872D01*
X89307557Y-43019874D01*
X89472288Y-43073399D01*
X89472294Y-43073400D01*
X89472299Y-43073402D01*
X89586359Y-43091467D01*
X89643388Y-43100500D01*
X89643389Y-43100500D01*
X89816612Y-43100500D01*
X89859383Y-43093725D01*
X89987701Y-43073402D01*
X89987708Y-43073399D01*
X89987711Y-43073399D01*
X90152442Y-43019874D01*
X90152442Y-43019873D01*
X90152445Y-43019873D01*
X90306788Y-42941232D01*
X90446928Y-42839414D01*
X90569414Y-42716928D01*
X90671232Y-42576788D01*
X90749873Y-42422445D01*
X90803402Y-42257701D01*
X90830500Y-42086611D01*
X90830500Y-41913389D01*
X90803402Y-41742299D01*
X90803400Y-41742294D01*
X90803399Y-41742288D01*
X90749874Y-41577557D01*
X90749872Y-41577553D01*
X90671232Y-41423212D01*
X90569417Y-41283076D01*
X90569416Y-41283075D01*
X90569414Y-41283072D01*
X90446928Y-41160586D01*
X90446925Y-41160583D01*
X90446923Y-41160582D01*
X90306787Y-41058767D01*
X90152446Y-40980127D01*
X90152442Y-40980125D01*
X89987711Y-40926600D01*
X89987698Y-40926597D01*
X89816612Y-40899500D01*
X89816611Y-40899500D01*
X89643389Y-40899500D01*
X89643388Y-40899500D01*
X89472301Y-40926597D01*
X89472288Y-40926600D01*
X89307557Y-40980125D01*
X89307553Y-40980127D01*
X89153212Y-41058767D01*
X89013076Y-41160582D01*
X88890582Y-41283076D01*
X88788767Y-41423212D01*
X88710127Y-41577553D01*
X88710125Y-41577557D01*
X88656600Y-41742288D01*
X88656597Y-41742301D01*
X88629500Y-41913388D01*
X82705500Y-41913388D01*
X82705500Y-39373388D01*
X88629500Y-39373388D01*
X88629500Y-39546611D01*
X88656597Y-39717698D01*
X88656600Y-39717711D01*
X88710125Y-39882442D01*
X88710127Y-39882446D01*
X88788767Y-40036787D01*
X88788768Y-40036788D01*
X88890586Y-40176928D01*
X89013072Y-40299414D01*
X89013075Y-40299416D01*
X89013076Y-40299417D01*
X89153212Y-40401232D01*
X89307553Y-40479872D01*
X89307557Y-40479874D01*
X89472288Y-40533399D01*
X89472294Y-40533400D01*
X89472299Y-40533402D01*
X89586359Y-40551467D01*
X89643388Y-40560500D01*
X89643389Y-40560500D01*
X89816612Y-40560500D01*
X89859383Y-40553725D01*
X89987701Y-40533402D01*
X89987708Y-40533399D01*
X89987711Y-40533399D01*
X90152442Y-40479874D01*
X90152442Y-40479873D01*
X90152445Y-40479873D01*
X90306788Y-40401232D01*
X90446928Y-40299414D01*
X90569414Y-40176928D01*
X90671232Y-40036788D01*
X90749873Y-39882445D01*
X90803402Y-39717701D01*
X90830500Y-39546611D01*
X90830500Y-39373389D01*
X90803402Y-39202299D01*
X90803400Y-39202294D01*
X90803399Y-39202288D01*
X90749874Y-39037557D01*
X90749872Y-39037553D01*
X90671232Y-38883212D01*
X90569417Y-38743076D01*
X90569416Y-38743075D01*
X90569414Y-38743072D01*
X90446928Y-38620586D01*
X90446925Y-38620583D01*
X90446923Y-38620582D01*
X90306787Y-38518767D01*
X90152446Y-38440127D01*
X90152442Y-38440125D01*
X89987711Y-38386600D01*
X89987698Y-38386597D01*
X89816612Y-38359500D01*
X89816611Y-38359500D01*
X89643389Y-38359500D01*
X89643388Y-38359500D01*
X89472301Y-38386597D01*
X89472288Y-38386600D01*
X89307557Y-38440125D01*
X89307553Y-38440127D01*
X89153212Y-38518767D01*
X89013076Y-38620582D01*
X88890582Y-38743076D01*
X88788767Y-38883212D01*
X88710127Y-39037553D01*
X88710125Y-39037557D01*
X88656600Y-39202288D01*
X88656597Y-39202301D01*
X88629500Y-39373388D01*
X82705500Y-39373388D01*
X82705500Y-36833388D01*
X91169500Y-36833388D01*
X91169500Y-37006611D01*
X91196597Y-37177698D01*
X91196600Y-37177711D01*
X91250125Y-37342442D01*
X91250127Y-37342446D01*
X91292357Y-37425327D01*
X91328768Y-37496788D01*
X91430586Y-37636928D01*
X91553072Y-37759414D01*
X91553075Y-37759416D01*
X91553076Y-37759417D01*
X91693212Y-37861232D01*
X91847553Y-37939872D01*
X91847557Y-37939874D01*
X92012288Y-37993399D01*
X92012294Y-37993400D01*
X92012299Y-37993402D01*
X92126359Y-38011467D01*
X92183388Y-38020500D01*
X92183389Y-38020500D01*
X92356612Y-38020500D01*
X92399383Y-38013725D01*
X92527701Y-37993402D01*
X92527708Y-37993399D01*
X92527711Y-37993399D01*
X92692442Y-37939874D01*
X92692442Y-37939873D01*
X92692445Y-37939873D01*
X92846788Y-37861232D01*
X92986928Y-37759414D01*
X93109414Y-37636928D01*
X93211232Y-37496788D01*
X93289873Y-37342445D01*
X93343402Y-37177701D01*
X93370500Y-37006611D01*
X93370500Y-36833389D01*
X93343402Y-36662299D01*
X93343400Y-36662294D01*
X93343399Y-36662288D01*
X93289874Y-36497557D01*
X93289872Y-36497553D01*
X93211232Y-36343212D01*
X93109417Y-36203076D01*
X93109416Y-36203075D01*
X93109414Y-36203072D01*
X92986928Y-36080586D01*
X92986925Y-36080583D01*
X92986923Y-36080582D01*
X92846787Y-35978767D01*
X92692446Y-35900127D01*
X92692442Y-35900125D01*
X92527711Y-35846600D01*
X92527698Y-35846597D01*
X92356612Y-35819500D01*
X92356611Y-35819500D01*
X92183389Y-35819500D01*
X92183388Y-35819500D01*
X92012301Y-35846597D01*
X92012288Y-35846600D01*
X91847557Y-35900125D01*
X91847553Y-35900127D01*
X91693212Y-35978767D01*
X91553076Y-36080582D01*
X91430582Y-36203076D01*
X91328767Y-36343212D01*
X91250127Y-36497553D01*
X91250125Y-36497557D01*
X91196600Y-36662288D01*
X91196597Y-36662301D01*
X91169500Y-36833388D01*
X82705500Y-36833388D01*
X82705500Y-34293388D01*
X88629500Y-34293388D01*
X88629500Y-34466611D01*
X88656597Y-34637698D01*
X88656600Y-34637711D01*
X88710125Y-34802442D01*
X88710127Y-34802446D01*
X88772826Y-34925500D01*
X88788768Y-34956788D01*
X88890586Y-35096928D01*
X89013072Y-35219414D01*
X89013075Y-35219416D01*
X89013076Y-35219417D01*
X89153212Y-35321232D01*
X89307553Y-35399872D01*
X89307557Y-35399874D01*
X89472288Y-35453399D01*
X89472294Y-35453400D01*
X89472299Y-35453402D01*
X89586359Y-35471467D01*
X89643388Y-35480500D01*
X89643389Y-35480500D01*
X89816612Y-35480500D01*
X89865063Y-35472826D01*
X89987701Y-35453402D01*
X89987708Y-35453399D01*
X89987711Y-35453399D01*
X90152442Y-35399874D01*
X90152442Y-35399873D01*
X90152445Y-35399873D01*
X90306788Y-35321232D01*
X90446928Y-35219414D01*
X90569414Y-35096928D01*
X90671232Y-34956788D01*
X90749873Y-34802445D01*
X90797680Y-34655312D01*
X90803399Y-34637711D01*
X90803399Y-34637708D01*
X90803402Y-34637701D01*
X90830500Y-34466611D01*
X90830500Y-34293389D01*
X90803402Y-34122299D01*
X90803400Y-34122294D01*
X90803399Y-34122288D01*
X90749874Y-33957557D01*
X90749872Y-33957553D01*
X90671232Y-33803212D01*
X90569417Y-33663076D01*
X90569416Y-33663075D01*
X90569414Y-33663072D01*
X90446928Y-33540586D01*
X90446925Y-33540583D01*
X90446923Y-33540582D01*
X90306787Y-33438767D01*
X90152446Y-33360127D01*
X90152442Y-33360125D01*
X89987711Y-33306600D01*
X89987698Y-33306597D01*
X89816612Y-33279500D01*
X89816611Y-33279500D01*
X89643389Y-33279500D01*
X89643388Y-33279500D01*
X89472301Y-33306597D01*
X89472288Y-33306600D01*
X89307557Y-33360125D01*
X89307553Y-33360127D01*
X89153212Y-33438767D01*
X89013076Y-33540582D01*
X88890582Y-33663076D01*
X88788767Y-33803212D01*
X88710127Y-33957553D01*
X88710125Y-33957557D01*
X88656600Y-34122288D01*
X88656597Y-34122301D01*
X88629500Y-34293388D01*
X82705500Y-34293388D01*
X82705500Y-29974500D01*
X82727174Y-29922174D01*
X82779500Y-29900500D01*
X85374672Y-29900500D01*
X85374674Y-29900500D01*
X85447740Y-29885966D01*
X85530601Y-29830601D01*
X85538471Y-29818822D01*
X85585562Y-29787356D01*
X85641111Y-29798404D01*
X85661527Y-29818820D01*
X85669399Y-29830601D01*
X85752260Y-29885966D01*
X85825326Y-29900500D01*
X85825328Y-29900500D01*
X88574672Y-29900500D01*
X88574674Y-29900500D01*
X88647740Y-29885966D01*
X88730601Y-29830601D01*
X88785966Y-29747740D01*
X88785966Y-29747739D01*
X88790015Y-29741680D01*
X88792427Y-29743292D01*
X88824597Y-29711130D01*
X88852908Y-29705500D01*
X89999998Y-29705500D01*
X90000000Y-29705500D01*
X90097776Y-29686051D01*
X90180666Y-29630666D01*
X90236051Y-29547776D01*
X90236051Y-29547772D01*
X90238841Y-29541041D01*
X90242450Y-29542536D01*
X90266258Y-29506865D01*
X90290601Y-29490601D01*
X90345966Y-29407740D01*
X90360500Y-29334674D01*
X90360500Y-28665326D01*
X90345966Y-28592260D01*
X90290601Y-28509399D01*
X90290600Y-28509398D01*
X90266292Y-28493156D01*
X90242444Y-28457465D01*
X90238841Y-28458958D01*
X90236051Y-28452224D01*
X90236051Y-28452223D01*
X90180666Y-28369333D01*
X90097776Y-28313948D01*
X90000000Y-28294499D01*
X89999998Y-28294499D01*
X88852907Y-28294499D01*
X88800581Y-28272825D01*
X88790619Y-28257915D01*
X88790015Y-28258320D01*
X88730601Y-28169399D01*
X88730600Y-28169398D01*
X88647740Y-28114034D01*
X88574674Y-28099500D01*
X85825326Y-28099500D01*
X85776615Y-28109189D01*
X85752259Y-28114034D01*
X85669399Y-28169398D01*
X85669398Y-28169399D01*
X85661529Y-28181177D01*
X85614437Y-28212643D01*
X85558888Y-28201594D01*
X85538471Y-28181177D01*
X85530601Y-28169399D01*
X85530600Y-28169398D01*
X85447740Y-28114034D01*
X85374674Y-28099500D01*
X85374672Y-28099500D01*
X82779500Y-28099500D01*
X82727174Y-28077826D01*
X82705500Y-28025500D01*
X82705500Y-26340001D01*
X82705500Y-26340000D01*
X82686051Y-26242224D01*
X82630666Y-26159334D01*
X82570801Y-26119334D01*
X82547776Y-26103949D01*
X82450000Y-26084500D01*
X82449998Y-26084500D01*
X82329500Y-26084500D01*
X82277174Y-26062826D01*
X82255500Y-26010500D01*
X82255500Y-25990001D01*
X82247993Y-25952260D01*
X82236051Y-25892224D01*
X82180666Y-25809334D01*
X82165948Y-25799500D01*
X82097776Y-25753949D01*
X82000000Y-25734500D01*
X81999998Y-25734500D01*
X81074500Y-25734500D01*
X81022174Y-25712826D01*
X81000500Y-25660500D01*
X81000500Y-25575327D01*
X80997551Y-25560500D01*
X80985966Y-25502260D01*
X80930601Y-25419399D01*
X80922444Y-25413949D01*
X80847740Y-25364034D01*
X80774674Y-25349500D01*
X80125326Y-25349500D01*
X80125320Y-25349501D01*
X80122977Y-25349732D01*
X80122212Y-25349500D01*
X80121691Y-25349500D01*
X80121691Y-25349341D01*
X80068778Y-25333292D01*
X80042078Y-25283343D01*
X80043144Y-25261652D01*
X80050422Y-25225061D01*
X80081888Y-25177971D01*
X80123000Y-25165500D01*
X83847092Y-25165500D01*
X83899418Y-25187174D01*
X83909381Y-25202083D01*
X83909985Y-25201680D01*
X83950055Y-25261651D01*
X83969399Y-25290601D01*
X84052260Y-25345966D01*
X84125326Y-25360500D01*
X84125328Y-25360500D01*
X86874672Y-25360500D01*
X86874674Y-25360500D01*
X86947740Y-25345966D01*
X87030601Y-25290601D01*
X87085966Y-25207740D01*
X87085966Y-25207739D01*
X87090015Y-25201680D01*
X87092427Y-25203292D01*
X87124597Y-25171130D01*
X87152908Y-25165500D01*
X87375500Y-25165500D01*
X87427826Y-25187174D01*
X87449500Y-25239500D01*
X87449500Y-25834674D01*
X87460948Y-25892224D01*
X87464034Y-25907740D01*
X87515614Y-25984937D01*
X87519399Y-25990601D01*
X87602260Y-26045966D01*
X87675326Y-26060500D01*
X87675328Y-26060500D01*
X89024672Y-26060500D01*
X89024674Y-26060500D01*
X89097740Y-26045966D01*
X89180601Y-25990601D01*
X89235966Y-25907740D01*
X89250500Y-25834674D01*
X89250500Y-23085326D01*
X89749500Y-23085326D01*
X89749500Y-25834674D01*
X89760948Y-25892224D01*
X89764034Y-25907740D01*
X89815614Y-25984937D01*
X89819399Y-25990601D01*
X89902260Y-26045966D01*
X89975326Y-26060500D01*
X89975328Y-26060500D01*
X91324672Y-26060500D01*
X91324674Y-26060500D01*
X91397740Y-26045966D01*
X91480601Y-25990601D01*
X91535966Y-25907740D01*
X91550500Y-25834674D01*
X91550500Y-25239500D01*
X91572174Y-25187174D01*
X91624500Y-25165500D01*
X92825500Y-25165500D01*
X92877826Y-25187174D01*
X92899500Y-25239500D01*
X92899500Y-25334674D01*
X92904637Y-25360500D01*
X92914034Y-25407740D01*
X92941936Y-25449500D01*
X92969399Y-25490601D01*
X93052260Y-25545966D01*
X93125326Y-25560500D01*
X93125328Y-25560500D01*
X94874672Y-25560500D01*
X94874674Y-25560500D01*
X94947740Y-25545966D01*
X95030601Y-25490601D01*
X95085966Y-25407740D01*
X95100500Y-25334674D01*
X95100500Y-23585326D01*
X95085966Y-23512260D01*
X95030601Y-23429399D01*
X94947740Y-23374034D01*
X94874674Y-23359500D01*
X93125326Y-23359500D01*
X93076615Y-23369189D01*
X93052259Y-23374034D01*
X92969399Y-23429398D01*
X92969398Y-23429399D01*
X92914034Y-23512259D01*
X92899500Y-23585327D01*
X92899500Y-23680499D01*
X92877826Y-23732825D01*
X92825500Y-23754499D01*
X91624500Y-23754499D01*
X91572174Y-23732825D01*
X91550500Y-23680499D01*
X91550500Y-23085327D01*
X91550500Y-23085326D01*
X91535966Y-23012260D01*
X91480601Y-22929399D01*
X91397740Y-22874034D01*
X91324674Y-22859500D01*
X89975326Y-22859500D01*
X89926615Y-22869189D01*
X89902259Y-22874034D01*
X89819399Y-22929398D01*
X89819398Y-22929399D01*
X89764034Y-23012259D01*
X89764034Y-23012260D01*
X89749500Y-23085326D01*
X89250500Y-23085326D01*
X89235966Y-23012260D01*
X89180601Y-22929399D01*
X89097740Y-22874034D01*
X89024674Y-22859500D01*
X87675326Y-22859500D01*
X87626615Y-22869189D01*
X87602259Y-22874034D01*
X87519399Y-22929398D01*
X87519398Y-22929399D01*
X87464034Y-23012259D01*
X87449500Y-23085327D01*
X87449500Y-23680499D01*
X87427826Y-23732825D01*
X87375500Y-23754499D01*
X87152907Y-23754499D01*
X87100581Y-23732825D01*
X87090619Y-23717915D01*
X87090015Y-23718320D01*
X87030601Y-23629399D01*
X87030600Y-23629398D01*
X86947740Y-23574034D01*
X86874674Y-23559500D01*
X84125326Y-23559500D01*
X84076615Y-23569189D01*
X84052259Y-23574034D01*
X83969399Y-23629398D01*
X83969398Y-23629399D01*
X83909985Y-23718320D01*
X83907569Y-23716706D01*
X83875415Y-23748865D01*
X83847093Y-23754499D01*
X80122006Y-23754499D01*
X80069680Y-23732825D01*
X80049428Y-23694936D01*
X80035966Y-23627261D01*
X80035966Y-23627260D01*
X80017969Y-23600325D01*
X80005500Y-23559216D01*
X80005500Y-23000001D01*
X79991456Y-22929398D01*
X79986051Y-22902224D01*
X79930666Y-22819334D01*
X79847776Y-22763949D01*
X79803080Y-22755058D01*
X79755989Y-22723591D01*
X79744941Y-22696918D01*
X79736051Y-22652224D01*
X79680666Y-22569334D01*
X79626316Y-22533019D01*
X79597776Y-22513949D01*
X79500000Y-22494500D01*
X59000000Y-22494500D01*
X58934816Y-22507466D01*
X58902223Y-22513949D01*
X58819334Y-22569333D01*
X58819333Y-22569334D01*
X58763949Y-22652223D01*
X58755058Y-22696918D01*
X58723591Y-22744010D01*
X58696918Y-22755058D01*
X58652223Y-22763949D01*
X58569334Y-22819333D01*
X58569333Y-22819334D01*
X58513949Y-22902223D01*
X58504224Y-22951112D01*
X58494500Y-23000000D01*
X58494500Y-33880000D01*
X58513949Y-33977776D01*
X58569334Y-34060666D01*
X58652224Y-34116051D01*
X58696917Y-34124940D01*
X58744008Y-34156405D01*
X58755058Y-34183080D01*
X58763949Y-34227776D01*
X58819334Y-34310666D01*
X58902224Y-34366051D01*
X59000000Y-34385500D01*
X59924250Y-34385500D01*
X59965361Y-34397970D01*
X60007260Y-34425966D01*
X60080326Y-34440500D01*
X60080328Y-34440500D01*
X60749672Y-34440500D01*
X60749674Y-34440500D01*
X60822740Y-34425966D01*
X60905601Y-34370601D01*
X60938471Y-34321407D01*
X60985562Y-34289940D01*
X61041111Y-34300989D01*
X61061529Y-34321407D01*
X61094396Y-34370598D01*
X61094398Y-34370600D01*
X61094399Y-34370601D01*
X61177260Y-34425966D01*
X61250326Y-34440500D01*
X61250328Y-34440500D01*
X61919672Y-34440500D01*
X61919674Y-34440500D01*
X61992740Y-34425966D01*
X62075601Y-34370601D01*
X62093784Y-34343387D01*
X62140876Y-34311922D01*
X62155313Y-34310500D01*
X62929687Y-34310500D01*
X62982013Y-34332174D01*
X62991216Y-34343388D01*
X63002760Y-34360666D01*
X63009399Y-34370601D01*
X63092260Y-34425966D01*
X63165326Y-34440500D01*
X63165328Y-34440500D01*
X63834672Y-34440500D01*
X63834674Y-34440500D01*
X63907740Y-34425966D01*
X63990601Y-34370601D01*
X64008784Y-34343387D01*
X64055876Y-34311922D01*
X64070313Y-34310500D01*
X64446261Y-34310500D01*
X64498587Y-34332174D01*
X64507785Y-34343382D01*
X64519334Y-34360666D01*
X64519335Y-34360667D01*
X64527393Y-34366051D01*
X64602224Y-34416051D01*
X64700000Y-34435500D01*
X64700002Y-34435500D01*
X65299998Y-34435500D01*
X65300000Y-34435500D01*
X65397776Y-34416051D01*
X65397776Y-34416050D01*
X65404924Y-34414629D01*
X65405255Y-34416296D01*
X65453817Y-34416296D01*
X65493867Y-34456344D01*
X65499500Y-34484664D01*
X65499500Y-34639674D01*
X65514034Y-34712740D01*
X65569399Y-34795601D01*
X65652260Y-34850966D01*
X65725326Y-34865500D01*
X65725328Y-34865500D01*
X66374672Y-34865500D01*
X66374674Y-34865500D01*
X66447740Y-34850966D01*
X66530601Y-34795601D01*
X66585966Y-34712740D01*
X66600500Y-34639674D01*
X66600500Y-33115326D01*
X66593144Y-33078346D01*
X66604193Y-33022798D01*
X66651285Y-32991332D01*
X66672989Y-32990268D01*
X66675322Y-32990498D01*
X66675326Y-32990499D01*
X66675330Y-32990499D01*
X67324672Y-32990499D01*
X67324674Y-32990499D01*
X67397740Y-32975965D01*
X67480601Y-32920600D01*
X67535966Y-32837739D01*
X67550500Y-32764673D01*
X67550500Y-31504499D01*
X67572174Y-31452173D01*
X67624500Y-31430499D01*
X69000000Y-31430499D01*
X70495500Y-31430499D01*
X70547826Y-31452173D01*
X70569500Y-31504499D01*
X70569500Y-32344686D01*
X70547826Y-32397012D01*
X70536613Y-32406214D01*
X70509400Y-32424397D01*
X70509398Y-32424399D01*
X70454034Y-32507259D01*
X70454034Y-32507260D01*
X70439500Y-32580326D01*
X70439500Y-33249674D01*
X70453390Y-33319500D01*
X70454034Y-33322740D01*
X70509398Y-33405600D01*
X70509399Y-33405601D01*
X70558593Y-33438471D01*
X70590059Y-33485563D01*
X70579010Y-33541112D01*
X70558593Y-33561529D01*
X70509399Y-33594398D01*
X70509398Y-33594399D01*
X70454034Y-33677259D01*
X70454034Y-33677260D01*
X70439500Y-33750326D01*
X70439500Y-34419674D01*
X70454034Y-34492740D01*
X70509399Y-34575601D01*
X70536612Y-34593783D01*
X70568078Y-34640873D01*
X70569500Y-34655312D01*
X70569500Y-35420500D01*
X70547826Y-35472826D01*
X70495500Y-35494500D01*
X69000000Y-35494500D01*
X68934816Y-35507466D01*
X68902223Y-35513949D01*
X68819334Y-35569333D01*
X68819333Y-35569334D01*
X68763949Y-35652223D01*
X68763949Y-35652224D01*
X68744500Y-35750000D01*
X68744500Y-36250000D01*
X68760533Y-36330601D01*
X68763949Y-36347776D01*
X68789466Y-36385966D01*
X68819334Y-36430666D01*
X68902224Y-36486051D01*
X69000000Y-36505500D01*
X81220500Y-36505500D01*
X81272826Y-36527174D01*
X81294500Y-36579500D01*
X81294500Y-42220500D01*
X81272826Y-42272826D01*
X81220500Y-42294500D01*
X47779500Y-42294500D01*
X47727174Y-42272826D01*
X47705500Y-42220500D01*
X47705500Y-33000001D01*
X47700719Y-32975964D01*
X47686051Y-32902224D01*
X47630666Y-32819334D01*
X47604204Y-32801653D01*
X47547776Y-32763949D01*
X47450000Y-32744500D01*
X47449998Y-32744500D01*
X47329500Y-32744500D01*
X47277174Y-32722826D01*
X47255500Y-32670500D01*
X47255500Y-32550000D01*
X47255500Y-32549999D01*
X47236051Y-32452223D01*
X47180666Y-32369333D01*
X47129188Y-32334937D01*
X47097776Y-32313948D01*
X47000000Y-32294499D01*
X46999998Y-32294499D01*
X46624500Y-32294499D01*
X46572174Y-32272825D01*
X46550500Y-32220499D01*
X46550500Y-31300327D01*
X46550500Y-31300326D01*
X46535966Y-31227260D01*
X46480601Y-31144399D01*
X46397740Y-31089034D01*
X46324674Y-31074500D01*
X44675326Y-31074500D01*
X44626615Y-31084189D01*
X44602259Y-31089034D01*
X44519399Y-31144398D01*
X44519398Y-31144399D01*
X44464034Y-31227259D01*
X44449500Y-31300327D01*
X44449500Y-34699672D01*
X44464034Y-34772740D01*
X44483882Y-34802446D01*
X44519399Y-34855601D01*
X44602260Y-34910966D01*
X44675326Y-34925500D01*
X44920500Y-34925500D01*
X44972826Y-34947174D01*
X44994500Y-34999500D01*
X44994500Y-35225500D01*
X44972826Y-35277826D01*
X44920500Y-35299500D01*
X44450326Y-35299500D01*
X44401615Y-35309189D01*
X44377259Y-35314034D01*
X44294399Y-35369398D01*
X44294398Y-35369399D01*
X44239034Y-35452259D01*
X44239034Y-35452260D01*
X44224500Y-35525326D01*
X43775500Y-35525326D01*
X43760966Y-35452260D01*
X43705601Y-35369399D01*
X43622740Y-35314034D01*
X43549674Y-35299500D01*
X43549672Y-35299500D01*
X43079500Y-35299500D01*
X43027174Y-35277826D01*
X43005500Y-35225500D01*
X43005500Y-34999500D01*
X43027174Y-34947174D01*
X43079500Y-34925500D01*
X43324672Y-34925500D01*
X43324674Y-34925500D01*
X43397740Y-34910966D01*
X43480601Y-34855601D01*
X43535966Y-34772740D01*
X43550500Y-34699674D01*
X43550500Y-31300326D01*
X43535966Y-31227260D01*
X43480601Y-31144399D01*
X43397740Y-31089034D01*
X43324674Y-31074500D01*
X43324672Y-31074500D01*
X43179500Y-31074500D01*
X43127174Y-31052826D01*
X43105500Y-31000500D01*
X43105500Y-26679500D01*
X43127174Y-26627174D01*
X43179500Y-26605500D01*
X47149998Y-26605500D01*
X47150000Y-26605500D01*
X47247776Y-26586051D01*
X47330666Y-26530666D01*
X47386051Y-26447776D01*
X47405500Y-26350000D01*
X47405500Y-25650000D01*
X47405500Y-23883652D01*
X47427174Y-23831326D01*
X47479500Y-23809652D01*
X53125617Y-23809652D01*
X53177943Y-23831326D01*
X53198730Y-23875271D01*
X53198791Y-23875260D01*
X53198838Y-23875500D01*
X53199260Y-23876391D01*
X53199499Y-23878823D01*
X53199500Y-23878826D01*
X53214034Y-23951892D01*
X53269399Y-24034753D01*
X53352260Y-24090118D01*
X53425326Y-24104652D01*
X53425328Y-24104652D01*
X56174672Y-24104652D01*
X56174674Y-24104652D01*
X56247740Y-24090118D01*
X56330601Y-24034753D01*
X56385966Y-23951892D01*
X56400500Y-23878826D01*
X56400500Y-22529478D01*
X56385966Y-22456412D01*
X56330601Y-22373551D01*
X56247740Y-22318186D01*
X56174674Y-22303652D01*
X53425326Y-22303652D01*
X53376615Y-22313341D01*
X53352259Y-22318186D01*
X53269399Y-22373550D01*
X53269398Y-22373551D01*
X53214034Y-22456411D01*
X53199499Y-22529480D01*
X53199260Y-22531913D01*
X53198871Y-22532639D01*
X53198791Y-22533044D01*
X53198668Y-22533019D01*
X53172556Y-22581860D01*
X53125617Y-22598652D01*
X47479500Y-22598652D01*
X47427174Y-22576978D01*
X47405500Y-22524652D01*
X47405500Y-19804153D01*
X47405500Y-19804152D01*
X47386051Y-19706376D01*
X47330666Y-19623486D01*
X47247776Y-19568101D01*
X47216671Y-19561913D01*
X47169580Y-19530448D01*
X47157109Y-19489336D01*
X47157109Y-13665326D01*
X51439500Y-13665326D01*
X51439500Y-14334674D01*
X51447737Y-14376084D01*
X51454034Y-14407740D01*
X51509397Y-14490599D01*
X51509399Y-14490601D01*
X51592260Y-14545966D01*
X51665326Y-14560500D01*
X51665328Y-14560500D01*
X52334672Y-14560500D01*
X52334674Y-14560500D01*
X52407740Y-14545966D01*
X52490601Y-14490601D01*
X52491082Y-14489880D01*
X52492081Y-14488387D01*
X52494292Y-14486909D01*
X52495755Y-14485447D01*
X52496045Y-14485737D01*
X52539173Y-14456922D01*
X52553609Y-14455500D01*
X55863517Y-14455500D01*
X55915843Y-14477174D01*
X55919333Y-14480664D01*
X55919334Y-14480665D01*
X56002224Y-14536050D01*
X56100000Y-14555499D01*
X56100002Y-14555499D01*
X56699997Y-14555499D01*
X56699999Y-14555499D01*
X56797775Y-14536050D01*
X56880665Y-14480665D01*
X56936050Y-14397775D01*
X56955499Y-14299999D01*
X56955499Y-13700000D01*
X56936050Y-13602224D01*
X56880665Y-13519334D01*
X56869105Y-13511610D01*
X56797775Y-13463949D01*
X56699999Y-13444500D01*
X56100000Y-13444500D01*
X56052070Y-13454034D01*
X56002223Y-13463949D01*
X55919334Y-13519333D01*
X55915843Y-13522825D01*
X55863517Y-13544499D01*
X52553608Y-13544499D01*
X52501282Y-13522825D01*
X52492079Y-13511610D01*
X52490603Y-13509401D01*
X52490600Y-13509398D01*
X52407740Y-13454034D01*
X52334674Y-13439500D01*
X51665326Y-13439500D01*
X51616615Y-13449189D01*
X51592259Y-13454034D01*
X51509399Y-13509398D01*
X51509398Y-13509399D01*
X51454034Y-13592259D01*
X51454034Y-13592260D01*
X51439500Y-13665326D01*
X47157109Y-13665326D01*
X47157109Y-11256264D01*
X47178783Y-11203938D01*
X47231109Y-11182264D01*
X50414998Y-11182264D01*
X50415000Y-11182264D01*
X50512776Y-11162815D01*
X50595666Y-11107430D01*
X50651051Y-11024540D01*
X50670500Y-10926764D01*
X50670500Y-10634500D01*
X50692174Y-10582174D01*
X50744500Y-10560500D01*
X50749672Y-10560500D01*
X50749674Y-10560500D01*
X50822740Y-10545966D01*
X50905601Y-10490601D01*
X50938471Y-10441407D01*
X50985562Y-10409940D01*
X51041111Y-10420989D01*
X51061529Y-10441407D01*
X51094396Y-10490598D01*
X51094398Y-10490600D01*
X51094399Y-10490601D01*
X51177260Y-10545966D01*
X51250326Y-10560500D01*
X51255500Y-10560500D01*
X51307826Y-10582174D01*
X51329500Y-10634500D01*
X51329500Y-10926764D01*
X51348949Y-11024540D01*
X51404334Y-11107430D01*
X51487224Y-11162815D01*
X51585000Y-11182264D01*
X53670500Y-11182264D01*
X53722826Y-11203938D01*
X53744500Y-11256264D01*
X53744500Y-12622585D01*
X53763949Y-12720361D01*
X53819334Y-12803251D01*
X53902224Y-12858636D01*
X54000000Y-12878085D01*
X54000002Y-12878085D01*
X55880875Y-12878085D01*
X55880877Y-12878085D01*
X55978653Y-12858636D01*
X56061543Y-12803251D01*
X56116928Y-12720361D01*
X56136377Y-12622585D01*
X56136377Y-10431662D01*
X56158051Y-10379336D01*
X56210377Y-10357662D01*
X57558024Y-10357662D01*
X57610350Y-10379336D01*
X57632024Y-10431662D01*
X57632024Y-12622585D01*
X57651473Y-12720361D01*
X57706858Y-12803251D01*
X57789748Y-12858636D01*
X57887524Y-12878085D01*
X57887526Y-12878085D01*
X61226191Y-12878085D01*
X61226193Y-12878085D01*
X61323969Y-12858636D01*
X61406859Y-12803251D01*
X61462244Y-12720361D01*
X61481693Y-12622585D01*
X61481693Y-10431662D01*
X61503367Y-10379336D01*
X61555693Y-10357662D01*
X63115598Y-10357662D01*
X63167924Y-10379336D01*
X63189598Y-10431662D01*
X63189598Y-12622585D01*
X63209047Y-12720361D01*
X63264432Y-12803251D01*
X63347322Y-12858636D01*
X63445098Y-12878085D01*
X63445100Y-12878085D01*
X66783765Y-12878085D01*
X66783767Y-12878085D01*
X66881543Y-12858636D01*
X66964433Y-12803251D01*
X67019818Y-12720361D01*
X67039267Y-12622585D01*
X67039267Y-10431662D01*
X67060941Y-10379336D01*
X67113267Y-10357662D01*
X68460914Y-10357662D01*
X68513240Y-10379336D01*
X68534914Y-10431662D01*
X68534914Y-12622585D01*
X68554363Y-12720361D01*
X68609748Y-12803251D01*
X68692638Y-12858636D01*
X68790414Y-12878085D01*
X68790416Y-12878085D01*
X70671290Y-12878085D01*
X70671292Y-12878085D01*
X70769068Y-12858636D01*
X70851958Y-12803251D01*
X70907343Y-12720361D01*
X70926792Y-12622585D01*
X70926792Y-11256264D01*
X70948466Y-11203938D01*
X71000792Y-11182264D01*
X73871291Y-11182264D01*
X73871292Y-11182264D01*
X73892987Y-11177948D01*
X73910737Y-11174418D01*
X73925173Y-11172996D01*
X82142120Y-11172996D01*
X82156556Y-11174418D01*
X82174305Y-11177948D01*
X82196001Y-11182264D01*
X82196002Y-11182264D01*
X99676000Y-11182264D01*
X99728326Y-11203938D01*
X99750000Y-11256264D01*
X99750000Y-16743735D01*
X99728326Y-16796061D01*
X99676000Y-16817735D01*
X75127556Y-16817735D01*
X75075230Y-16796061D01*
X75053556Y-16743735D01*
X75053556Y-14020857D01*
X75075230Y-13968531D01*
X75127556Y-13946857D01*
X81566501Y-13946857D01*
X81618827Y-13968531D01*
X81640501Y-14020857D01*
X81640501Y-14406762D01*
X81639079Y-14421198D01*
X81635501Y-14439187D01*
X81635501Y-15108533D01*
X81650035Y-15181601D01*
X81705398Y-15264460D01*
X81705400Y-15264462D01*
X81788261Y-15319827D01*
X81861327Y-15334361D01*
X81861329Y-15334361D01*
X82530675Y-15334361D01*
X82548663Y-15330783D01*
X82563099Y-15329361D01*
X85243903Y-15329361D01*
X85258339Y-15330783D01*
X85276327Y-15334361D01*
X85945673Y-15334361D01*
X85945675Y-15334361D01*
X86018741Y-15319827D01*
X86101602Y-15264462D01*
X86108241Y-15254526D01*
X86134472Y-15215268D01*
X86181563Y-15183801D01*
X86237112Y-15194850D01*
X86257530Y-15215268D01*
X86290397Y-15264459D01*
X86290399Y-15264461D01*
X86290400Y-15264462D01*
X86373261Y-15319827D01*
X86446327Y-15334361D01*
X86446329Y-15334361D01*
X87115675Y-15334361D01*
X87133663Y-15330783D01*
X87148099Y-15329361D01*
X87613903Y-15329361D01*
X87628339Y-15330783D01*
X87646327Y-15334361D01*
X88315675Y-15334361D01*
X88333663Y-15330783D01*
X88348099Y-15329361D01*
X89313903Y-15329361D01*
X89328339Y-15330783D01*
X89346327Y-15334361D01*
X90015675Y-15334361D01*
X90033663Y-15330783D01*
X90048099Y-15329361D01*
X91013903Y-15329361D01*
X91028339Y-15330783D01*
X91046327Y-15334361D01*
X91715675Y-15334361D01*
X91733663Y-15330783D01*
X91748099Y-15329361D01*
X92228903Y-15329361D01*
X92243339Y-15330783D01*
X92261327Y-15334361D01*
X92930673Y-15334361D01*
X92930675Y-15334361D01*
X93003741Y-15319827D01*
X93086602Y-15264462D01*
X93093241Y-15254526D01*
X93119472Y-15215268D01*
X93166563Y-15183801D01*
X93222112Y-15194850D01*
X93242530Y-15215268D01*
X93275397Y-15264459D01*
X93275399Y-15264461D01*
X93275400Y-15264462D01*
X93358261Y-15319827D01*
X93431327Y-15334361D01*
X93431329Y-15334361D01*
X94100673Y-15334361D01*
X94100675Y-15334361D01*
X94173741Y-15319827D01*
X94256602Y-15264462D01*
X94257083Y-15263741D01*
X94258082Y-15262248D01*
X94260293Y-15260770D01*
X94261756Y-15259308D01*
X94262046Y-15259598D01*
X94305174Y-15230783D01*
X94319610Y-15229361D01*
X94444517Y-15229361D01*
X94496843Y-15251035D01*
X94500334Y-15254526D01*
X94500335Y-15254527D01*
X94583225Y-15309912D01*
X94681001Y-15329361D01*
X94681003Y-15329361D01*
X95280999Y-15329361D01*
X95281001Y-15329361D01*
X95378777Y-15309912D01*
X95461667Y-15254527D01*
X95517052Y-15171637D01*
X95536501Y-15073861D01*
X95536501Y-14473861D01*
X95517052Y-14376085D01*
X95461667Y-14293195D01*
X95446798Y-14283260D01*
X95378777Y-14237810D01*
X95281001Y-14218361D01*
X94681001Y-14218361D01*
X94633071Y-14227895D01*
X94583224Y-14237810D01*
X94500335Y-14293194D01*
X94496843Y-14296687D01*
X94444517Y-14318361D01*
X94319610Y-14318361D01*
X94267284Y-14296687D01*
X94258082Y-14285474D01*
X94256603Y-14283261D01*
X94256601Y-14283259D01*
X94173741Y-14227895D01*
X94100675Y-14213361D01*
X93431327Y-14213361D01*
X93382616Y-14223050D01*
X93358260Y-14227895D01*
X93275400Y-14283259D01*
X93275399Y-14283260D01*
X93242530Y-14332454D01*
X93195438Y-14363920D01*
X93139889Y-14352871D01*
X93119472Y-14332454D01*
X93086602Y-14283260D01*
X93086601Y-14283259D01*
X93003741Y-14227895D01*
X92930675Y-14213361D01*
X92261327Y-14213361D01*
X92243339Y-14216939D01*
X92228903Y-14218361D01*
X91748099Y-14218361D01*
X91733663Y-14216939D01*
X91715675Y-14213361D01*
X91046327Y-14213361D01*
X91028339Y-14216939D01*
X91013903Y-14218361D01*
X90048099Y-14218361D01*
X90033663Y-14216939D01*
X90015675Y-14213361D01*
X89346327Y-14213361D01*
X89328339Y-14216939D01*
X89313903Y-14218361D01*
X88348099Y-14218361D01*
X88333663Y-14216939D01*
X88315675Y-14213361D01*
X87646327Y-14213361D01*
X87628339Y-14216939D01*
X87613903Y-14218361D01*
X87148099Y-14218361D01*
X87133663Y-14216939D01*
X87115675Y-14213361D01*
X86446327Y-14213361D01*
X86397616Y-14223050D01*
X86373260Y-14227895D01*
X86290400Y-14283259D01*
X86290399Y-14283260D01*
X86257530Y-14332454D01*
X86210438Y-14363920D01*
X86154889Y-14352871D01*
X86134472Y-14332454D01*
X86101602Y-14283260D01*
X86101601Y-14283259D01*
X86018741Y-14227895D01*
X85945675Y-14213361D01*
X85276327Y-14213361D01*
X85258339Y-14216939D01*
X85243903Y-14218361D01*
X82825501Y-14218361D01*
X82773175Y-14196687D01*
X82751501Y-14144361D01*
X82751501Y-12773862D01*
X82740859Y-12720361D01*
X82732052Y-12676085D01*
X82676667Y-12593195D01*
X82593777Y-12537810D01*
X82511064Y-12521357D01*
X82463972Y-12489891D01*
X82451501Y-12448779D01*
X82451501Y-11856365D01*
X82451501Y-11856364D01*
X82432052Y-11758588D01*
X82376667Y-11675698D01*
X82293777Y-11620313D01*
X82196001Y-11600864D01*
X73871292Y-11600864D01*
X73806108Y-11613830D01*
X73773515Y-11620313D01*
X73690626Y-11675697D01*
X73690625Y-11675698D01*
X73635241Y-11758587D01*
X73615792Y-11856365D01*
X73615792Y-12444361D01*
X73594118Y-12496687D01*
X73541792Y-12518361D01*
X72944527Y-12518361D01*
X72879343Y-12531327D01*
X72846750Y-12537810D01*
X72763861Y-12593194D01*
X72763860Y-12593195D01*
X72708476Y-12676084D01*
X72708476Y-12676085D01*
X72689027Y-12773861D01*
X72689027Y-17073235D01*
X72689027Y-18926764D01*
X72708476Y-19024540D01*
X72763861Y-19107430D01*
X72846751Y-19162815D01*
X72944527Y-19182264D01*
X73871292Y-19182264D01*
X92366035Y-19182264D01*
X92418361Y-19203938D01*
X92440035Y-19256264D01*
X92439678Y-19263525D01*
X92439500Y-19265320D01*
X92439500Y-19265325D01*
X92439500Y-19934673D01*
X92449475Y-19984818D01*
X92454034Y-20007739D01*
X92488110Y-20058739D01*
X92509399Y-20090600D01*
X92592260Y-20145965D01*
X92665326Y-20160499D01*
X92665328Y-20160499D01*
X93334672Y-20160499D01*
X93334674Y-20160499D01*
X93407740Y-20145965D01*
X93490601Y-20090600D01*
X93545966Y-20007739D01*
X93560500Y-19934673D01*
X93560500Y-19265325D01*
X93560499Y-19265320D01*
X93560322Y-19263525D01*
X93560500Y-19262937D01*
X93560500Y-19261690D01*
X93560878Y-19261690D01*
X93576757Y-19209325D01*
X93626704Y-19182621D01*
X93633965Y-19182264D01*
X99676000Y-19182264D01*
X99728326Y-19203938D01*
X99750000Y-19256264D01*
X99750000Y-64743735D01*
X99728326Y-64796061D01*
X99676000Y-64817735D01*
X93633965Y-64817735D01*
X93581639Y-64796061D01*
X93559965Y-64743735D01*
X93560322Y-64736474D01*
X93560498Y-64734679D01*
X93560500Y-64734674D01*
X93560500Y-64065326D01*
X93545966Y-63992260D01*
X93490601Y-63909399D01*
X93407740Y-63854034D01*
X93334674Y-63839500D01*
X92665326Y-63839500D01*
X92616615Y-63849189D01*
X92592259Y-63854034D01*
X92509399Y-63909398D01*
X92509398Y-63909399D01*
X92454034Y-63992259D01*
X92454034Y-63992260D01*
X92439500Y-64065326D01*
X92439500Y-64734674D01*
X92439501Y-64734679D01*
X92439678Y-64736474D01*
X92439500Y-64737061D01*
X92439500Y-64738309D01*
X92439122Y-64738309D01*
X92423243Y-64790674D01*
X92373296Y-64817378D01*
X92366035Y-64817735D01*
X74798056Y-64817735D01*
X72944527Y-64817735D01*
X72879343Y-64830701D01*
X72846750Y-64837184D01*
X72763861Y-64892568D01*
X72763860Y-64892569D01*
X72708476Y-64975458D01*
X72708476Y-64975459D01*
X72689027Y-65073235D01*
X72689027Y-66000000D01*
X72689027Y-71226138D01*
X72708476Y-71323914D01*
X72763861Y-71406804D01*
X72846751Y-71462189D01*
X72944527Y-71481638D01*
X73541792Y-71481638D01*
X73594118Y-71503312D01*
X73615792Y-71555638D01*
X73615792Y-72143635D01*
X73635241Y-72241411D01*
X73690626Y-72324301D01*
X73773516Y-72379686D01*
X73871292Y-72399135D01*
X73871294Y-72399135D01*
X82195999Y-72399135D01*
X82196001Y-72399135D01*
X82293777Y-72379686D01*
X82376667Y-72324301D01*
X82432052Y-72241411D01*
X82451501Y-72143635D01*
X82451501Y-71551219D01*
X82473175Y-71498893D01*
X82511063Y-71478641D01*
X82593777Y-71462189D01*
X82676667Y-71406804D01*
X82732052Y-71323914D01*
X82751501Y-71226138D01*
X82751501Y-69855638D01*
X82773175Y-69803312D01*
X82825501Y-69781638D01*
X85243903Y-69781638D01*
X85258339Y-69783060D01*
X85276327Y-69786638D01*
X85945673Y-69786638D01*
X85945675Y-69786638D01*
X86018741Y-69772104D01*
X86101602Y-69716739D01*
X86108241Y-69706803D01*
X86134472Y-69667545D01*
X86181563Y-69636078D01*
X86237112Y-69647127D01*
X86257530Y-69667545D01*
X86290397Y-69716736D01*
X86290400Y-69716739D01*
X86373261Y-69772104D01*
X86446327Y-69786638D01*
X86446329Y-69786638D01*
X87115675Y-69786638D01*
X87133663Y-69783060D01*
X87148099Y-69781638D01*
X87613903Y-69781638D01*
X87628339Y-69783060D01*
X87646327Y-69786638D01*
X88315675Y-69786638D01*
X88333663Y-69783060D01*
X88348099Y-69781638D01*
X89313903Y-69781638D01*
X89328339Y-69783060D01*
X89346327Y-69786638D01*
X90015675Y-69786638D01*
X90033663Y-69783060D01*
X90048099Y-69781638D01*
X91013903Y-69781638D01*
X91028339Y-69783060D01*
X91046327Y-69786638D01*
X91715675Y-69786638D01*
X91733663Y-69783060D01*
X91748099Y-69781638D01*
X92228903Y-69781638D01*
X92243339Y-69783060D01*
X92261327Y-69786638D01*
X92930673Y-69786638D01*
X92930675Y-69786638D01*
X93003741Y-69772104D01*
X93086602Y-69716739D01*
X93093241Y-69706803D01*
X93119472Y-69667545D01*
X93166563Y-69636078D01*
X93222112Y-69647127D01*
X93242530Y-69667545D01*
X93275397Y-69716736D01*
X93275400Y-69716739D01*
X93358261Y-69772104D01*
X93431327Y-69786638D01*
X93431329Y-69786638D01*
X94100673Y-69786638D01*
X94100675Y-69786638D01*
X94173741Y-69772104D01*
X94256602Y-69716739D01*
X94257083Y-69716018D01*
X94258082Y-69714525D01*
X94260293Y-69713047D01*
X94261756Y-69711585D01*
X94262046Y-69711875D01*
X94305174Y-69683060D01*
X94319610Y-69681638D01*
X94444517Y-69681638D01*
X94496843Y-69703312D01*
X94500334Y-69706803D01*
X94500335Y-69706804D01*
X94583225Y-69762189D01*
X94681001Y-69781638D01*
X94681003Y-69781638D01*
X95280999Y-69781638D01*
X95281001Y-69781638D01*
X95378777Y-69762189D01*
X95461667Y-69706804D01*
X95517052Y-69623914D01*
X95536501Y-69526138D01*
X95536501Y-68926138D01*
X95517052Y-68828362D01*
X95461667Y-68745472D01*
X95446798Y-68735537D01*
X95378777Y-68690087D01*
X95281001Y-68670638D01*
X94681001Y-68670638D01*
X94633071Y-68680172D01*
X94583224Y-68690087D01*
X94500335Y-68745471D01*
X94496843Y-68748964D01*
X94444517Y-68770638D01*
X94319610Y-68770638D01*
X94267284Y-68748964D01*
X94258082Y-68737751D01*
X94256603Y-68735538D01*
X94256601Y-68735536D01*
X94173741Y-68680172D01*
X94100675Y-68665638D01*
X93431327Y-68665638D01*
X93382616Y-68675327D01*
X93358260Y-68680172D01*
X93275400Y-68735536D01*
X93275399Y-68735537D01*
X93242530Y-68784731D01*
X93195438Y-68816197D01*
X93139889Y-68805148D01*
X93119472Y-68784731D01*
X93086602Y-68735537D01*
X93086601Y-68735536D01*
X93003741Y-68680172D01*
X92930675Y-68665638D01*
X92261327Y-68665638D01*
X92243339Y-68669216D01*
X92228903Y-68670638D01*
X91748099Y-68670638D01*
X91733663Y-68669216D01*
X91715675Y-68665638D01*
X91046327Y-68665638D01*
X91028339Y-68669216D01*
X91013903Y-68670638D01*
X90048099Y-68670638D01*
X90033663Y-68669216D01*
X90015675Y-68665638D01*
X89346327Y-68665638D01*
X89328339Y-68669216D01*
X89313903Y-68670638D01*
X88348099Y-68670638D01*
X88333663Y-68669216D01*
X88315675Y-68665638D01*
X87646327Y-68665638D01*
X87628339Y-68669216D01*
X87613903Y-68670638D01*
X87148099Y-68670638D01*
X87133663Y-68669216D01*
X87115675Y-68665638D01*
X86446327Y-68665638D01*
X86397616Y-68675327D01*
X86373260Y-68680172D01*
X86290400Y-68735536D01*
X86290399Y-68735537D01*
X86257530Y-68784731D01*
X86210438Y-68816197D01*
X86154889Y-68805148D01*
X86134472Y-68784731D01*
X86101602Y-68735537D01*
X86101601Y-68735536D01*
X86018741Y-68680172D01*
X85945675Y-68665638D01*
X85276327Y-68665638D01*
X85258339Y-68669216D01*
X85243903Y-68670638D01*
X82563099Y-68670638D01*
X82548663Y-68669216D01*
X82530675Y-68665638D01*
X81861327Y-68665638D01*
X81812616Y-68675327D01*
X81788260Y-68680172D01*
X81705400Y-68735536D01*
X81705399Y-68735537D01*
X81650035Y-68818397D01*
X81635501Y-68891465D01*
X81635501Y-69560810D01*
X81639079Y-69578798D01*
X81640501Y-69593235D01*
X81640501Y-69979142D01*
X81618827Y-70031468D01*
X81566501Y-70053142D01*
X75127556Y-70053142D01*
X75075230Y-70031468D01*
X75053556Y-69979142D01*
X75053556Y-67256264D01*
X75075230Y-67203938D01*
X75127556Y-67182264D01*
X99676000Y-67182264D01*
X99728326Y-67203938D01*
X99750000Y-67256264D01*
X99750000Y-72743735D01*
X99728326Y-72796061D01*
X99676000Y-72817735D01*
X82196001Y-72817735D01*
X82176505Y-72821613D01*
X82156556Y-72825581D01*
X82142120Y-72827003D01*
X73925173Y-72827003D01*
X73910737Y-72825581D01*
X73890788Y-72821613D01*
X73871292Y-72817735D01*
X73871291Y-72817735D01*
X71000792Y-72817735D01*
X70948466Y-72796061D01*
X70926792Y-72743735D01*
X70926792Y-71377415D01*
X70916150Y-71323914D01*
X70907343Y-71279638D01*
X70851958Y-71196748D01*
X70769068Y-71141363D01*
X70671292Y-71121914D01*
X68790414Y-71121914D01*
X68725230Y-71134880D01*
X68692637Y-71141363D01*
X68609748Y-71196747D01*
X68609747Y-71196748D01*
X68554363Y-71279637D01*
X68534914Y-71377415D01*
X68534914Y-73568337D01*
X68513240Y-73620663D01*
X68460914Y-73642337D01*
X67113267Y-73642337D01*
X67060941Y-73620663D01*
X67039267Y-73568337D01*
X67039267Y-71377415D01*
X67028625Y-71323914D01*
X67019818Y-71279638D01*
X66964433Y-71196748D01*
X66881543Y-71141363D01*
X66783767Y-71121914D01*
X63445098Y-71121914D01*
X63379914Y-71134880D01*
X63347321Y-71141363D01*
X63264432Y-71196747D01*
X63264431Y-71196748D01*
X63209047Y-71279637D01*
X63189598Y-71377415D01*
X63189598Y-73568337D01*
X63167924Y-73620663D01*
X63115598Y-73642337D01*
X61555693Y-73642337D01*
X61503367Y-73620663D01*
X61481693Y-73568337D01*
X61481693Y-71377415D01*
X61471051Y-71323914D01*
X61462244Y-71279638D01*
X61406859Y-71196748D01*
X61323969Y-71141363D01*
X61226193Y-71121914D01*
X57887524Y-71121914D01*
X57822340Y-71134880D01*
X57789747Y-71141363D01*
X57706858Y-71196747D01*
X57706857Y-71196748D01*
X57651473Y-71279637D01*
X57632024Y-71377415D01*
X57632024Y-73568337D01*
X57610350Y-73620663D01*
X57558024Y-73642337D01*
X56210377Y-73642337D01*
X56158051Y-73620663D01*
X56136377Y-73568337D01*
X56136377Y-71377415D01*
X56125735Y-71323914D01*
X56116928Y-71279638D01*
X56061543Y-71196748D01*
X55978653Y-71141363D01*
X55880877Y-71121914D01*
X54000000Y-71121914D01*
X53934816Y-71134880D01*
X53902223Y-71141363D01*
X53819334Y-71196747D01*
X53819333Y-71196748D01*
X53763949Y-71279637D01*
X53744500Y-71377415D01*
X53744500Y-72743735D01*
X53722826Y-72796061D01*
X53670500Y-72817735D01*
X51585000Y-72817735D01*
X51519816Y-72830701D01*
X51487223Y-72837184D01*
X51404334Y-72892568D01*
X51404333Y-72892569D01*
X51348949Y-72975458D01*
X51329500Y-73073236D01*
X51329500Y-73365500D01*
X51307826Y-73417826D01*
X51255500Y-73439500D01*
X51250326Y-73439500D01*
X51201615Y-73449189D01*
X51177259Y-73454034D01*
X51094399Y-73509398D01*
X51094398Y-73509399D01*
X51061529Y-73558593D01*
X51014437Y-73590059D01*
X50958888Y-73579010D01*
X50938471Y-73558593D01*
X50905601Y-73509399D01*
X50905600Y-73509398D01*
X50822740Y-73454034D01*
X50749674Y-73439500D01*
X50749672Y-73439500D01*
X50744500Y-73439500D01*
X50692174Y-73417826D01*
X50670500Y-73365500D01*
X50670500Y-73073236D01*
X50665465Y-73047922D01*
X50651051Y-72975459D01*
X50595666Y-72892569D01*
X50578426Y-72881050D01*
X50512776Y-72837184D01*
X50415000Y-72817735D01*
X50414998Y-72817735D01*
X47231109Y-72817735D01*
X47178783Y-72796061D01*
X47157109Y-72743735D01*
X47157109Y-69665327D01*
X51439500Y-69665327D01*
X51439500Y-70334672D01*
X51454034Y-70407740D01*
X51509397Y-70490599D01*
X51509399Y-70490601D01*
X51592260Y-70545966D01*
X51665326Y-70560500D01*
X51665328Y-70560500D01*
X52334672Y-70560500D01*
X52334674Y-70560500D01*
X52407740Y-70545966D01*
X52490601Y-70490601D01*
X52491082Y-70489880D01*
X52492081Y-70488387D01*
X52494292Y-70486909D01*
X52495755Y-70485447D01*
X52496045Y-70485737D01*
X52539173Y-70456922D01*
X52553609Y-70455500D01*
X55863516Y-70455500D01*
X55915842Y-70477174D01*
X55919333Y-70480665D01*
X55919334Y-70480666D01*
X56002224Y-70536051D01*
X56100000Y-70555500D01*
X56100002Y-70555500D01*
X56699997Y-70555500D01*
X56699999Y-70555500D01*
X56797775Y-70536051D01*
X56880665Y-70480666D01*
X56936050Y-70397776D01*
X56955499Y-70300000D01*
X56955499Y-69700000D01*
X56936050Y-69602224D01*
X56880665Y-69519334D01*
X56865796Y-69509399D01*
X56797775Y-69463949D01*
X56699999Y-69444500D01*
X56100000Y-69444500D01*
X56052070Y-69454034D01*
X56002223Y-69463949D01*
X55919334Y-69519333D01*
X55915842Y-69522826D01*
X55863516Y-69544500D01*
X52553609Y-69544500D01*
X52501283Y-69522826D01*
X52492081Y-69511613D01*
X52490602Y-69509400D01*
X52490600Y-69509398D01*
X52407740Y-69454034D01*
X52334674Y-69439500D01*
X51665326Y-69439500D01*
X51616615Y-69449189D01*
X51592259Y-69454034D01*
X51509399Y-69509398D01*
X51509398Y-69509399D01*
X51454034Y-69592259D01*
X51439500Y-69665327D01*
X47157109Y-69665327D01*
X47157109Y-64510662D01*
X47178783Y-64458336D01*
X47216673Y-64438084D01*
X47247776Y-64431898D01*
X47330666Y-64376513D01*
X47386051Y-64293623D01*
X47405500Y-64195847D01*
X47405500Y-61475347D01*
X47427174Y-61423021D01*
X47479500Y-61401347D01*
X53125617Y-61401347D01*
X53177943Y-61423021D01*
X53198730Y-61466966D01*
X53198791Y-61466955D01*
X53198838Y-61467195D01*
X53199260Y-61468086D01*
X53199499Y-61470518D01*
X53199500Y-61470521D01*
X53214034Y-61543587D01*
X53269399Y-61626448D01*
X53352260Y-61681813D01*
X53425326Y-61696347D01*
X53425328Y-61696347D01*
X56174672Y-61696347D01*
X56174674Y-61696347D01*
X56247740Y-61681813D01*
X56330601Y-61626448D01*
X56385966Y-61543587D01*
X56400500Y-61470521D01*
X56400500Y-60121173D01*
X56385966Y-60048107D01*
X56330601Y-59965246D01*
X56247740Y-59909881D01*
X56174674Y-59895347D01*
X53425326Y-59895347D01*
X53376615Y-59905036D01*
X53352259Y-59909881D01*
X53269399Y-59965245D01*
X53269398Y-59965246D01*
X53214034Y-60048106D01*
X53199499Y-60121175D01*
X53199260Y-60123608D01*
X53198871Y-60124334D01*
X53198791Y-60124739D01*
X53198668Y-60124714D01*
X53172556Y-60173555D01*
X53125617Y-60190347D01*
X47479500Y-60190347D01*
X47427174Y-60168673D01*
X47405500Y-60116347D01*
X47405500Y-57650001D01*
X47405500Y-57650000D01*
X47386051Y-57552224D01*
X47330666Y-57469334D01*
X47247776Y-57413949D01*
X47150000Y-57394500D01*
X47149998Y-57394500D01*
X43179500Y-57394500D01*
X43127174Y-57372826D01*
X43105500Y-57320500D01*
X43105500Y-52999500D01*
X43127174Y-52947174D01*
X43179500Y-52925500D01*
X43324672Y-52925500D01*
X43324674Y-52925500D01*
X43397740Y-52910966D01*
X43480601Y-52855601D01*
X43535966Y-52772740D01*
X43550500Y-52699674D01*
X43550500Y-49300326D01*
X43535966Y-49227260D01*
X43480601Y-49144399D01*
X43397740Y-49089034D01*
X43324674Y-49074500D01*
X43324672Y-49074500D01*
X43079500Y-49074500D01*
X43027174Y-49052826D01*
X43005500Y-49000500D01*
X43005500Y-48774500D01*
X43027174Y-48722174D01*
X43079500Y-48700500D01*
X43549672Y-48700500D01*
X43549674Y-48700500D01*
X43622740Y-48685966D01*
X43705601Y-48630601D01*
X43760966Y-48547740D01*
X43775500Y-48474674D01*
X43775500Y-47825326D01*
X43760966Y-47752260D01*
X43705601Y-47669399D01*
X43686725Y-47656787D01*
X43622740Y-47614034D01*
X43549674Y-47599500D01*
X42175326Y-47599500D01*
X42126615Y-47609189D01*
X42102259Y-47614034D01*
X42019399Y-47669398D01*
X42019398Y-47669399D01*
X41964034Y-47752259D01*
X41964034Y-47752260D01*
X41949500Y-47825326D01*
X41949500Y-48474674D01*
X41964034Y-48547740D01*
X41982029Y-48574671D01*
X41994500Y-48615783D01*
X41994500Y-49000500D01*
X41972826Y-49052826D01*
X41920500Y-49074500D01*
X41675326Y-49074500D01*
X41626615Y-49084189D01*
X41602259Y-49089034D01*
X41519399Y-49144398D01*
X41519398Y-49144399D01*
X41464034Y-49227259D01*
X41449500Y-49300327D01*
X41449500Y-50320500D01*
X41427826Y-50372826D01*
X41375500Y-50394500D01*
X41124500Y-50394500D01*
X41072174Y-50372826D01*
X41050500Y-50320500D01*
X41050500Y-49300327D01*
X41050500Y-49300326D01*
X41035966Y-49227260D01*
X40980601Y-49144399D01*
X40897740Y-49089034D01*
X40824674Y-49074500D01*
X39175326Y-49074500D01*
X39126615Y-49084189D01*
X39102259Y-49089034D01*
X39019399Y-49144398D01*
X39019398Y-49144399D01*
X38964034Y-49227259D01*
X38964034Y-49227260D01*
X38949500Y-49300326D01*
X38949500Y-52699674D01*
X38964034Y-52772740D01*
X39019399Y-52855601D01*
X39102260Y-52910966D01*
X39175326Y-52925500D01*
X39175328Y-52925500D01*
X40824672Y-52925500D01*
X40824674Y-52925500D01*
X40897740Y-52910966D01*
X40980601Y-52855601D01*
X41035966Y-52772740D01*
X41050500Y-52699674D01*
X41050500Y-51679500D01*
X41072174Y-51627174D01*
X41124500Y-51605500D01*
X41375500Y-51605500D01*
X41427826Y-51627174D01*
X41449500Y-51679500D01*
X41449500Y-52699674D01*
X41464034Y-52772740D01*
X41519399Y-52855601D01*
X41602260Y-52910966D01*
X41675326Y-52925500D01*
X41820500Y-52925500D01*
X41872826Y-52947174D01*
X41894500Y-52999500D01*
X41894500Y-57650000D01*
X41894500Y-58350000D01*
X41913949Y-58447776D01*
X41969334Y-58530666D01*
X42052224Y-58586051D01*
X42150000Y-58605500D01*
X42500000Y-58605500D01*
X46120499Y-58605500D01*
X46172825Y-58627174D01*
X46194499Y-58679500D01*
X46194499Y-64195847D01*
X46213948Y-64293623D01*
X46269333Y-64376513D01*
X46352223Y-64431898D01*
X46383325Y-64438084D01*
X46430418Y-64469549D01*
X46442890Y-64510662D01*
X46442890Y-72743735D01*
X46421216Y-72796061D01*
X46368890Y-72817735D01*
X44254999Y-72817735D01*
X44189815Y-72830701D01*
X44157222Y-72837184D01*
X44074333Y-72892568D01*
X44074332Y-72892569D01*
X44042507Y-72940200D01*
X43995415Y-72971666D01*
X43980978Y-72973088D01*
X43775000Y-72973088D01*
X43709816Y-72986054D01*
X43677223Y-72992537D01*
X43594334Y-73047921D01*
X43594333Y-73047922D01*
X43562508Y-73095553D01*
X43515416Y-73127019D01*
X43500979Y-73128441D01*
X43294999Y-73128441D01*
X43229815Y-73141407D01*
X43197222Y-73147890D01*
X43114333Y-73203274D01*
X43114332Y-73203275D01*
X43082507Y-73250906D01*
X43035415Y-73282372D01*
X43020978Y-73283794D01*
X42815000Y-73283794D01*
X42749816Y-73296760D01*
X42717223Y-73303243D01*
X42634334Y-73358627D01*
X42634333Y-73358628D01*
X42602508Y-73406259D01*
X42555416Y-73437725D01*
X42540979Y-73439147D01*
X42334999Y-73439147D01*
X42269815Y-73452113D01*
X42237222Y-73458596D01*
X42154333Y-73513980D01*
X42154332Y-73513981D01*
X42122507Y-73561612D01*
X42075415Y-73593078D01*
X42060978Y-73594500D01*
X41855000Y-73594500D01*
X41789816Y-73607466D01*
X41757223Y-73613949D01*
X41674334Y-73669333D01*
X41674333Y-73669334D01*
X41618949Y-73752223D01*
X41618949Y-73752224D01*
X41599500Y-73850000D01*
X41599500Y-74150000D01*
X41618949Y-74247776D01*
X41674334Y-74330666D01*
X41757224Y-74386051D01*
X41855000Y-74405500D01*
X42060979Y-74405500D01*
X42113305Y-74427174D01*
X42122507Y-74438387D01*
X42154333Y-74486018D01*
X42237223Y-74541403D01*
X42334999Y-74560852D01*
X42540979Y-74560852D01*
X42593305Y-74582526D01*
X42602508Y-74593740D01*
X42613046Y-74609512D01*
X42634334Y-74641371D01*
X42717224Y-74696756D01*
X42815000Y-74716205D01*
X43020978Y-74716205D01*
X43073304Y-74737879D01*
X43082507Y-74749093D01*
X43114333Y-74796724D01*
X43197223Y-74852109D01*
X43294999Y-74871558D01*
X43500979Y-74871558D01*
X43553305Y-74893232D01*
X43562508Y-74904446D01*
X43594334Y-74952077D01*
X43677224Y-75007462D01*
X43775000Y-75026911D01*
X43980978Y-75026911D01*
X44033304Y-75048585D01*
X44042507Y-75059799D01*
X44074333Y-75107430D01*
X44157223Y-75162815D01*
X44254999Y-75182264D01*
X44255001Y-75182264D01*
X50414998Y-75182264D01*
X50415000Y-75182264D01*
X50512776Y-75162815D01*
X50595666Y-75107430D01*
X50651051Y-75024540D01*
X50670500Y-74926764D01*
X50670500Y-74634500D01*
X50692174Y-74582174D01*
X50744500Y-74560500D01*
X50749672Y-74560500D01*
X50749674Y-74560500D01*
X50822740Y-74545966D01*
X50905601Y-74490601D01*
X50938471Y-74441407D01*
X50985562Y-74409940D01*
X51041111Y-74420989D01*
X51061529Y-74441407D01*
X51094396Y-74490598D01*
X51094398Y-74490600D01*
X51094399Y-74490601D01*
X51177260Y-74545966D01*
X51250326Y-74560500D01*
X51255500Y-74560500D01*
X51307826Y-74582174D01*
X51329500Y-74634500D01*
X51329500Y-74926764D01*
X51348949Y-75024540D01*
X51404334Y-75107430D01*
X51487224Y-75162815D01*
X51585000Y-75182264D01*
X53670500Y-75182264D01*
X53722826Y-75203938D01*
X53744500Y-75256264D01*
X53744500Y-76622585D01*
X53763949Y-76720361D01*
X53819334Y-76803251D01*
X53902224Y-76858636D01*
X54000000Y-76878085D01*
X54000002Y-76878085D01*
X55880875Y-76878085D01*
X55880877Y-76878085D01*
X55978653Y-76858636D01*
X56061543Y-76803251D01*
X56116928Y-76720361D01*
X56136377Y-76622585D01*
X56136377Y-74431662D01*
X56158051Y-74379336D01*
X56210377Y-74357662D01*
X57558024Y-74357662D01*
X57610350Y-74379336D01*
X57632024Y-74431662D01*
X57632024Y-76622585D01*
X57651473Y-76720361D01*
X57706858Y-76803251D01*
X57789748Y-76858636D01*
X57887524Y-76878085D01*
X57887526Y-76878085D01*
X61226191Y-76878085D01*
X61226193Y-76878085D01*
X61323969Y-76858636D01*
X61406859Y-76803251D01*
X61462244Y-76720361D01*
X61481693Y-76622585D01*
X61481693Y-74431662D01*
X61503367Y-74379336D01*
X61555693Y-74357662D01*
X63115598Y-74357662D01*
X63167924Y-74379336D01*
X63189598Y-74431662D01*
X63189598Y-76622585D01*
X63209047Y-76720361D01*
X63264432Y-76803251D01*
X63347322Y-76858636D01*
X63445098Y-76878085D01*
X63445100Y-76878085D01*
X66783765Y-76878085D01*
X66783767Y-76878085D01*
X66881543Y-76858636D01*
X66964433Y-76803251D01*
X67019818Y-76720361D01*
X67039267Y-76622585D01*
X67039267Y-74431662D01*
X67060941Y-74379336D01*
X67113267Y-74357662D01*
X68460914Y-74357662D01*
X68513240Y-74379336D01*
X68534914Y-74431662D01*
X68534914Y-76622585D01*
X68554363Y-76720361D01*
X68609748Y-76803251D01*
X68692638Y-76858636D01*
X68790414Y-76878085D01*
X68790416Y-76878085D01*
X70671290Y-76878085D01*
X70671292Y-76878085D01*
X70769068Y-76858636D01*
X70851958Y-76803251D01*
X70907343Y-76720361D01*
X70926792Y-76622585D01*
X70926792Y-75256264D01*
X70948466Y-75203938D01*
X71000792Y-75182264D01*
X73871291Y-75182264D01*
X73871292Y-75182264D01*
X73892987Y-75177948D01*
X73910737Y-75174418D01*
X73925173Y-75172996D01*
X82142120Y-75172996D01*
X82156556Y-75174418D01*
X82174305Y-75177948D01*
X82196001Y-75182264D01*
X82196002Y-75182264D01*
X99676000Y-75182264D01*
X99728326Y-75203938D01*
X99750000Y-75256264D01*
X99750000Y-80996361D01*
X99749644Y-81003614D01*
X99697873Y-81529243D01*
X99695043Y-81543471D01*
X99542782Y-82045407D01*
X99537230Y-82058809D01*
X99289977Y-82521388D01*
X99281918Y-82533450D01*
X98949166Y-82938908D01*
X98938908Y-82949166D01*
X98533450Y-83281918D01*
X98521388Y-83289977D01*
X98058809Y-83537230D01*
X98045407Y-83542782D01*
X97543471Y-83695043D01*
X97529243Y-83697873D01*
X97003614Y-83749644D01*
X96996361Y-83750000D01*
X3003638Y-83750000D01*
X2996385Y-83749644D01*
X2470755Y-83697873D01*
X2456527Y-83695043D01*
X1954591Y-83542782D01*
X1941189Y-83537230D01*
X1478610Y-83289977D01*
X1466548Y-83281918D01*
X1061090Y-82949166D01*
X1050832Y-82938908D01*
X718080Y-82533450D01*
X710021Y-82521388D01*
X462768Y-82058809D01*
X457216Y-82045407D01*
X304953Y-81543466D01*
X302126Y-81529249D01*
X250356Y-81003614D01*
X250000Y-80996361D01*
X250000Y-75256264D01*
X271674Y-75203938D01*
X324000Y-75182264D01*
X7389998Y-75182264D01*
X7390000Y-75182264D01*
X7487776Y-75162815D01*
X7570666Y-75107430D01*
X7626051Y-75024540D01*
X7645500Y-74926764D01*
X7645500Y-74797168D01*
X7667174Y-74744842D01*
X7678388Y-74735639D01*
X7686792Y-74730023D01*
X7737332Y-74696254D01*
X7792717Y-74613364D01*
X7792717Y-74613360D01*
X7793621Y-74611182D01*
X7795290Y-74609512D01*
X7796766Y-74607304D01*
X7797205Y-74607597D01*
X7833669Y-74571133D01*
X7861988Y-74565500D01*
X9915000Y-74565500D01*
X9932989Y-74561922D01*
X9947425Y-74560500D01*
X10249672Y-74560500D01*
X10249674Y-74560500D01*
X10322740Y-74545966D01*
X10405601Y-74490601D01*
X10438471Y-74441407D01*
X10485562Y-74409940D01*
X10541111Y-74420989D01*
X10561529Y-74441407D01*
X10594396Y-74490598D01*
X10594398Y-74490600D01*
X10594399Y-74490601D01*
X10677260Y-74545966D01*
X10750326Y-74560500D01*
X11052575Y-74560500D01*
X11067011Y-74561922D01*
X11085000Y-74565500D01*
X12710000Y-74565500D01*
X13138011Y-74565500D01*
X13190337Y-74587174D01*
X13206378Y-74611182D01*
X13207281Y-74613362D01*
X13207281Y-74613363D01*
X13207282Y-74613364D01*
X13262667Y-74696254D01*
X13321612Y-74735640D01*
X13353078Y-74782731D01*
X13354500Y-74797168D01*
X13354500Y-74926764D01*
X13373949Y-75024540D01*
X13429334Y-75107430D01*
X13512224Y-75162815D01*
X13610000Y-75182264D01*
X13610002Y-75182264D01*
X15814997Y-75182264D01*
X15814999Y-75182264D01*
X15912775Y-75162815D01*
X15995665Y-75107430D01*
X16051050Y-75024540D01*
X16070499Y-74926764D01*
X16070499Y-74634500D01*
X16092173Y-74582174D01*
X16144499Y-74560500D01*
X16149671Y-74560500D01*
X16149673Y-74560500D01*
X16222739Y-74545966D01*
X16305600Y-74490601D01*
X16338471Y-74441404D01*
X16385561Y-74409939D01*
X16441110Y-74420987D01*
X16461527Y-74441404D01*
X16494399Y-74490601D01*
X16577260Y-74545966D01*
X16650326Y-74560500D01*
X16655500Y-74560500D01*
X16707826Y-74582174D01*
X16729500Y-74634500D01*
X16729500Y-74926764D01*
X16748949Y-75024540D01*
X16804334Y-75107430D01*
X16887224Y-75162815D01*
X16985000Y-75182264D01*
X16985002Y-75182264D01*
X20999998Y-75182264D01*
X21000000Y-75182264D01*
X21097776Y-75162815D01*
X21180666Y-75107430D01*
X21236051Y-75024540D01*
X21248876Y-74960062D01*
X21280342Y-74912971D01*
X21321454Y-74900500D01*
X21474672Y-74900500D01*
X21474674Y-74900500D01*
X21547740Y-74885966D01*
X21630601Y-74830601D01*
X21685966Y-74747740D01*
X21700500Y-74674674D01*
X21700500Y-73325326D01*
X21685966Y-73252260D01*
X21630601Y-73169399D01*
X21547740Y-73114034D01*
X21474674Y-73099500D01*
X21474672Y-73099500D01*
X21321454Y-73099500D01*
X21269128Y-73077826D01*
X21248876Y-73039936D01*
X21236051Y-72975459D01*
X21180666Y-72892569D01*
X21180665Y-72892568D01*
X21097776Y-72837184D01*
X21000000Y-72817735D01*
X16985000Y-72817735D01*
X16919816Y-72830701D01*
X16887223Y-72837184D01*
X16804334Y-72892568D01*
X16804333Y-72892569D01*
X16748949Y-72975458D01*
X16729500Y-73073236D01*
X16729500Y-73365500D01*
X16707826Y-73417826D01*
X16655500Y-73439500D01*
X16650326Y-73439500D01*
X16601615Y-73449189D01*
X16577259Y-73454034D01*
X16494399Y-73509398D01*
X16494398Y-73509399D01*
X16461528Y-73558594D01*
X16414436Y-73590060D01*
X16358887Y-73579011D01*
X16338470Y-73558593D01*
X16305602Y-73509401D01*
X16305599Y-73509398D01*
X16222739Y-73454034D01*
X16149673Y-73439500D01*
X16149671Y-73439500D01*
X16144499Y-73439500D01*
X16092173Y-73417826D01*
X16070499Y-73365500D01*
X16070499Y-73073236D01*
X16065464Y-73047922D01*
X16051050Y-72975459D01*
X15995665Y-72892569D01*
X15978425Y-72881050D01*
X15912775Y-72837184D01*
X15814999Y-72817735D01*
X13610000Y-72817735D01*
X13544816Y-72830701D01*
X13512223Y-72837184D01*
X13429334Y-72892568D01*
X13429333Y-72892569D01*
X13373949Y-72975458D01*
X13354500Y-73073236D01*
X13354500Y-73202830D01*
X13332826Y-73255156D01*
X13321612Y-73264359D01*
X13262667Y-73303744D01*
X13262666Y-73303745D01*
X13221404Y-73365500D01*
X13207282Y-73386635D01*
X13207281Y-73386638D01*
X13206380Y-73388815D01*
X13204708Y-73390486D01*
X13203233Y-73392695D01*
X13202793Y-73392401D01*
X13166333Y-73428866D01*
X13138011Y-73434500D01*
X11085000Y-73434500D01*
X11067011Y-73438078D01*
X11052575Y-73439500D01*
X10750326Y-73439500D01*
X10701615Y-73449189D01*
X10677259Y-73454034D01*
X10594399Y-73509398D01*
X10594398Y-73509399D01*
X10561529Y-73558593D01*
X10514437Y-73590059D01*
X10458888Y-73579010D01*
X10438471Y-73558593D01*
X10405601Y-73509399D01*
X10405600Y-73509398D01*
X10322740Y-73454034D01*
X10249674Y-73439500D01*
X10249672Y-73439500D01*
X9947425Y-73439500D01*
X9932989Y-73438078D01*
X9915000Y-73434500D01*
X8289999Y-73434500D01*
X7861988Y-73434500D01*
X7809662Y-73412826D01*
X7793619Y-73388815D01*
X7792718Y-73386643D01*
X7792717Y-73386635D01*
X7737332Y-73303745D01*
X7737331Y-73303744D01*
X7737330Y-73303743D01*
X7678387Y-73264358D01*
X7646922Y-73217266D01*
X7645500Y-73202830D01*
X7645500Y-73073236D01*
X7640465Y-73047922D01*
X7626051Y-72975459D01*
X7570666Y-72892569D01*
X7553426Y-72881050D01*
X7487776Y-72837184D01*
X7390000Y-72817735D01*
X324000Y-72817735D01*
X271674Y-72796061D01*
X250000Y-72743735D01*
X250000Y-60121173D01*
X15399500Y-60121173D01*
X15399500Y-61470521D01*
X15414034Y-61543587D01*
X15469399Y-61626448D01*
X15552260Y-61681813D01*
X15625326Y-61696347D01*
X15625328Y-61696347D01*
X18374672Y-61696347D01*
X18374674Y-61696347D01*
X18447740Y-61681813D01*
X18530601Y-61626448D01*
X18585966Y-61543587D01*
X18600500Y-61470521D01*
X18600500Y-61375347D01*
X18622174Y-61323021D01*
X18674500Y-61301347D01*
X24509250Y-61301347D01*
X24550361Y-61313817D01*
X24592260Y-61341813D01*
X24665326Y-61356347D01*
X24665328Y-61356347D01*
X25334672Y-61356347D01*
X25334674Y-61356347D01*
X25407740Y-61341813D01*
X25449638Y-61313817D01*
X25490750Y-61301347D01*
X26209250Y-61301347D01*
X26250361Y-61313817D01*
X26292260Y-61341813D01*
X26365326Y-61356347D01*
X26365328Y-61356347D01*
X27034672Y-61356347D01*
X27034674Y-61356347D01*
X27107740Y-61341813D01*
X27149638Y-61313817D01*
X27190750Y-61301347D01*
X27820500Y-61301347D01*
X27872826Y-61323021D01*
X27894500Y-61375347D01*
X27894500Y-63085096D01*
X27882029Y-63126207D01*
X27854034Y-63168105D01*
X27839500Y-63241174D01*
X27839500Y-63543422D01*
X27838078Y-63557858D01*
X27834500Y-63575847D01*
X27834500Y-64195847D01*
X27853949Y-64293623D01*
X27909334Y-64376513D01*
X27992224Y-64431898D01*
X27992232Y-64431899D01*
X27997205Y-64433960D01*
X28037256Y-64474007D01*
X28042890Y-64502329D01*
X28042890Y-72743735D01*
X28021216Y-72796061D01*
X27968890Y-72817735D01*
X24000000Y-72817735D01*
X23934816Y-72830701D01*
X23902223Y-72837184D01*
X23819334Y-72892568D01*
X23819333Y-72892569D01*
X23763948Y-72975459D01*
X23751124Y-73039936D01*
X23719658Y-73087029D01*
X23678546Y-73099500D01*
X23525326Y-73099500D01*
X23488793Y-73106767D01*
X23452259Y-73114034D01*
X23369399Y-73169398D01*
X23369398Y-73169399D01*
X23314034Y-73252259D01*
X23311627Y-73264359D01*
X23299500Y-73325326D01*
X23299500Y-74674674D01*
X23313458Y-74744842D01*
X23314034Y-74747740D01*
X23346763Y-74796724D01*
X23369399Y-74830601D01*
X23452260Y-74885966D01*
X23525326Y-74900500D01*
X23678546Y-74900500D01*
X23730872Y-74922174D01*
X23751123Y-74960061D01*
X23763949Y-75024540D01*
X23819334Y-75107430D01*
X23902224Y-75162815D01*
X24000000Y-75182264D01*
X24000002Y-75182264D01*
X33414998Y-75182264D01*
X33415000Y-75182264D01*
X33512776Y-75162815D01*
X33595666Y-75107430D01*
X33651051Y-75024540D01*
X33670500Y-74926764D01*
X33670500Y-74634500D01*
X33692174Y-74582174D01*
X33744500Y-74560500D01*
X33749672Y-74560500D01*
X33749674Y-74560500D01*
X33822740Y-74545966D01*
X33905601Y-74490601D01*
X33938471Y-74441407D01*
X33985562Y-74409940D01*
X34041111Y-74420989D01*
X34061529Y-74441407D01*
X34094396Y-74490598D01*
X34094398Y-74490600D01*
X34094399Y-74490601D01*
X34177260Y-74545966D01*
X34250326Y-74560500D01*
X34255500Y-74560500D01*
X34307826Y-74582174D01*
X34329500Y-74634500D01*
X34329500Y-74926764D01*
X34348949Y-75024540D01*
X34404334Y-75107430D01*
X34487224Y-75162815D01*
X34585000Y-75182264D01*
X34585002Y-75182264D01*
X36744998Y-75182264D01*
X36745000Y-75182264D01*
X36842776Y-75162815D01*
X36925666Y-75107430D01*
X36957492Y-75059799D01*
X37004584Y-75028333D01*
X37019021Y-75026911D01*
X37224998Y-75026911D01*
X37225000Y-75026911D01*
X37322776Y-75007462D01*
X37405666Y-74952077D01*
X37437492Y-74904446D01*
X37484584Y-74872980D01*
X37499021Y-74871558D01*
X37704998Y-74871558D01*
X37705000Y-74871558D01*
X37802776Y-74852109D01*
X37885666Y-74796724D01*
X37917492Y-74749093D01*
X37964584Y-74717627D01*
X37979021Y-74716205D01*
X38184998Y-74716205D01*
X38185000Y-74716205D01*
X38282776Y-74696756D01*
X38365666Y-74641371D01*
X38397492Y-74593740D01*
X38444584Y-74562274D01*
X38459021Y-74560852D01*
X38664998Y-74560852D01*
X38665000Y-74560852D01*
X38762776Y-74541403D01*
X38845666Y-74486018D01*
X38877491Y-74438387D01*
X38924583Y-74406922D01*
X38939020Y-74405500D01*
X39144998Y-74405500D01*
X39145000Y-74405500D01*
X39242776Y-74386051D01*
X39325666Y-74330666D01*
X39381051Y-74247776D01*
X39400500Y-74150000D01*
X39400500Y-73850000D01*
X39381051Y-73752224D01*
X39325666Y-73669334D01*
X39242776Y-73613949D01*
X39145000Y-73594500D01*
X39144998Y-73594500D01*
X38939021Y-73594500D01*
X38886695Y-73572826D01*
X38877492Y-73561612D01*
X38845666Y-73513981D01*
X38845665Y-73513980D01*
X38762776Y-73458596D01*
X38739841Y-73454034D01*
X38665000Y-73439147D01*
X38664998Y-73439147D01*
X38459021Y-73439147D01*
X38406695Y-73417473D01*
X38397492Y-73406259D01*
X38365666Y-73358628D01*
X38365665Y-73358627D01*
X38282776Y-73303243D01*
X38185000Y-73283794D01*
X38184998Y-73283794D01*
X37979021Y-73283794D01*
X37926695Y-73262120D01*
X37917492Y-73250906D01*
X37885666Y-73203275D01*
X37885665Y-73203274D01*
X37802776Y-73147890D01*
X37705000Y-73128441D01*
X37704998Y-73128441D01*
X37499021Y-73128441D01*
X37446695Y-73106767D01*
X37437492Y-73095553D01*
X37405666Y-73047922D01*
X37405665Y-73047921D01*
X37322776Y-72992537D01*
X37225000Y-72973088D01*
X37224998Y-72973088D01*
X37019021Y-72973088D01*
X36966695Y-72951414D01*
X36957492Y-72940200D01*
X36925666Y-72892569D01*
X36925665Y-72892568D01*
X36842776Y-72837184D01*
X36745000Y-72817735D01*
X34585000Y-72817735D01*
X34519816Y-72830701D01*
X34487223Y-72837184D01*
X34404334Y-72892568D01*
X34404333Y-72892569D01*
X34348949Y-72975458D01*
X34329500Y-73073236D01*
X34329500Y-73365500D01*
X34307826Y-73417826D01*
X34255500Y-73439500D01*
X34250326Y-73439500D01*
X34201615Y-73449189D01*
X34177259Y-73454034D01*
X34094399Y-73509398D01*
X34094398Y-73509399D01*
X34061529Y-73558593D01*
X34014437Y-73590059D01*
X33958888Y-73579010D01*
X33938471Y-73558593D01*
X33905601Y-73509399D01*
X33905600Y-73509398D01*
X33822740Y-73454034D01*
X33749674Y-73439500D01*
X33749672Y-73439500D01*
X33744500Y-73439500D01*
X33692174Y-73417826D01*
X33670500Y-73365500D01*
X33670500Y-73073236D01*
X33665465Y-73047922D01*
X33651051Y-72975459D01*
X33595666Y-72892569D01*
X33578426Y-72881050D01*
X33512776Y-72837184D01*
X33415000Y-72817735D01*
X33414998Y-72817735D01*
X28831109Y-72817735D01*
X28778783Y-72796061D01*
X28757109Y-72743735D01*
X28757109Y-71095327D01*
X39429500Y-71095327D01*
X39429500Y-71764672D01*
X39444034Y-71837740D01*
X39499398Y-71920600D01*
X39499399Y-71920601D01*
X39551612Y-71955488D01*
X39583078Y-72002580D01*
X39584500Y-72017017D01*
X39584500Y-72644998D01*
X39603949Y-72742776D01*
X39654034Y-72817735D01*
X39659334Y-72825666D01*
X39742224Y-72881051D01*
X39840000Y-72900500D01*
X39840002Y-72900500D01*
X40139998Y-72900500D01*
X40140000Y-72900500D01*
X40237776Y-72881051D01*
X40320666Y-72825666D01*
X40376051Y-72742776D01*
X40395500Y-72645000D01*
X40395500Y-72017017D01*
X40417174Y-71964691D01*
X40428388Y-71955488D01*
X40480601Y-71920601D01*
X40535966Y-71837740D01*
X40550500Y-71764674D01*
X40550500Y-71095326D01*
X40535966Y-71022260D01*
X40480601Y-70939399D01*
X40397740Y-70884034D01*
X40324674Y-70869500D01*
X39655326Y-70869500D01*
X39606615Y-70879189D01*
X39582259Y-70884034D01*
X39499399Y-70939398D01*
X39499398Y-70939399D01*
X39444034Y-71022259D01*
X39429500Y-71095327D01*
X28757109Y-71095327D01*
X28757109Y-64775347D01*
X28778783Y-64723021D01*
X28831109Y-64701347D01*
X29420500Y-64701347D01*
X29472826Y-64723021D01*
X29494500Y-64775347D01*
X29494500Y-65945847D01*
X29494500Y-66445847D01*
X29513949Y-66543623D01*
X29569334Y-66626513D01*
X29652224Y-66681898D01*
X29750000Y-66701347D01*
X29750002Y-66701347D01*
X30649998Y-66701347D01*
X30650000Y-66701347D01*
X30747776Y-66681898D01*
X30830666Y-66626513D01*
X30886051Y-66543623D01*
X30905500Y-66445847D01*
X30905500Y-65945847D01*
X30905500Y-64195847D01*
X30886051Y-64098071D01*
X30830666Y-64015181D01*
X30747776Y-63959796D01*
X30703080Y-63950905D01*
X30655989Y-63919438D01*
X30644941Y-63892766D01*
X30636051Y-63848071D01*
X30580666Y-63765181D01*
X30580665Y-63765180D01*
X30538387Y-63736930D01*
X30506922Y-63689838D01*
X30505500Y-63675402D01*
X30505500Y-58624500D01*
X30527174Y-58572174D01*
X30579500Y-58550500D01*
X31924672Y-58550500D01*
X31924674Y-58550500D01*
X31997740Y-58535966D01*
X32080601Y-58480601D01*
X32135966Y-58397740D01*
X32150500Y-58324674D01*
X32150500Y-57732423D01*
X32151922Y-57717986D01*
X32155500Y-57699998D01*
X32155500Y-56900000D01*
X32151922Y-56882011D01*
X32150500Y-56867575D01*
X32150500Y-56275327D01*
X32150500Y-56275326D01*
X32135966Y-56202260D01*
X32080601Y-56119399D01*
X31997740Y-56064034D01*
X31924674Y-56049500D01*
X28075326Y-56049500D01*
X28026615Y-56059189D01*
X28002259Y-56064034D01*
X27919399Y-56119398D01*
X27919398Y-56119399D01*
X27864034Y-56202259D01*
X27849500Y-56275327D01*
X27849500Y-56570500D01*
X27827826Y-56622826D01*
X27775500Y-56644500D01*
X26665044Y-56644500D01*
X26612718Y-56622826D01*
X26592466Y-56584937D01*
X26589594Y-56570500D01*
X26585966Y-56552260D01*
X26530601Y-56469399D01*
X26447740Y-56414034D01*
X26374674Y-56399500D01*
X23625326Y-56399500D01*
X23576615Y-56409189D01*
X23552259Y-56414034D01*
X23469399Y-56469398D01*
X23469398Y-56469399D01*
X23414034Y-56552259D01*
X23407534Y-56584937D01*
X23376068Y-56632029D01*
X23334956Y-56644500D01*
X20579500Y-56644500D01*
X20527174Y-56622826D01*
X20505500Y-56570500D01*
X20505500Y-49975326D01*
X28999500Y-49975326D01*
X28999500Y-52024674D01*
X29014034Y-52097740D01*
X29069399Y-52180601D01*
X29152260Y-52235966D01*
X29225326Y-52250500D01*
X29225328Y-52250500D01*
X30774672Y-52250500D01*
X30774674Y-52250500D01*
X30847740Y-52235966D01*
X30930601Y-52180601D01*
X30985966Y-52097740D01*
X31000500Y-52024674D01*
X31000500Y-49975326D01*
X31299499Y-49975326D01*
X31299499Y-52024674D01*
X31314033Y-52097740D01*
X31369398Y-52180601D01*
X31452259Y-52235966D01*
X31525325Y-52250500D01*
X31525327Y-52250500D01*
X33074671Y-52250500D01*
X33074673Y-52250500D01*
X33147739Y-52235966D01*
X33230600Y-52180601D01*
X33285965Y-52097740D01*
X33300499Y-52024674D01*
X33300499Y-51949500D01*
X33322173Y-51897174D01*
X33374499Y-51875500D01*
X35244672Y-51875500D01*
X35244674Y-51875500D01*
X35317740Y-51860966D01*
X35400601Y-51805601D01*
X35455966Y-51722740D01*
X35467439Y-51665063D01*
X35498905Y-51617971D01*
X35540017Y-51605500D01*
X35875500Y-51605500D01*
X35927826Y-51627174D01*
X35949500Y-51679500D01*
X35949500Y-52699674D01*
X35964034Y-52772740D01*
X36019399Y-52855601D01*
X36102260Y-52910966D01*
X36175326Y-52925500D01*
X36175328Y-52925500D01*
X37824672Y-52925500D01*
X37824674Y-52925500D01*
X37897740Y-52910966D01*
X37980601Y-52855601D01*
X38035966Y-52772740D01*
X38050500Y-52699674D01*
X38050500Y-49300326D01*
X38035966Y-49227260D01*
X37980601Y-49144399D01*
X37897740Y-49089034D01*
X37824674Y-49074500D01*
X36175326Y-49074500D01*
X36126615Y-49084189D01*
X36102259Y-49089034D01*
X36019399Y-49144398D01*
X36019398Y-49144399D01*
X35964034Y-49227259D01*
X35949500Y-49300327D01*
X35949500Y-50320500D01*
X35927826Y-50372826D01*
X35875500Y-50394500D01*
X35540017Y-50394500D01*
X35487691Y-50372826D01*
X35467439Y-50334937D01*
X35464567Y-50320500D01*
X35455966Y-50277260D01*
X35400601Y-50194399D01*
X35317740Y-50139034D01*
X35244674Y-50124500D01*
X35244672Y-50124500D01*
X33374499Y-50124500D01*
X33322173Y-50102826D01*
X33300499Y-50050500D01*
X33300499Y-49975327D01*
X33300499Y-49975326D01*
X33285965Y-49902260D01*
X33230600Y-49819399D01*
X33147739Y-49764034D01*
X33074673Y-49749500D01*
X31525325Y-49749500D01*
X31476614Y-49759189D01*
X31452258Y-49764034D01*
X31369398Y-49819398D01*
X31369397Y-49819399D01*
X31314033Y-49902259D01*
X31314033Y-49902260D01*
X31299499Y-49975326D01*
X31000500Y-49975326D01*
X30985966Y-49902260D01*
X30930601Y-49819399D01*
X30847740Y-49764034D01*
X30774674Y-49749500D01*
X29225326Y-49749500D01*
X29176615Y-49759189D01*
X29152259Y-49764034D01*
X29069399Y-49819398D01*
X29069398Y-49819399D01*
X29014034Y-49902259D01*
X29014034Y-49902260D01*
X28999500Y-49975326D01*
X20505500Y-49975326D01*
X20505500Y-46829500D01*
X20527174Y-46777174D01*
X20579500Y-46755500D01*
X42034216Y-46755500D01*
X42075327Y-46767971D01*
X42102258Y-46785965D01*
X42102260Y-46785966D01*
X42175326Y-46800500D01*
X42175328Y-46800500D01*
X43549672Y-46800500D01*
X43549674Y-46800500D01*
X43622740Y-46785966D01*
X43705601Y-46730601D01*
X43760966Y-46647740D01*
X43775500Y-46574674D01*
X43775500Y-45925326D01*
X44224500Y-45925326D01*
X44224500Y-46574674D01*
X44239034Y-46647740D01*
X44294399Y-46730601D01*
X44377260Y-46785966D01*
X44450326Y-46800500D01*
X44450328Y-46800500D01*
X45824672Y-46800500D01*
X45824674Y-46800500D01*
X45897740Y-46785966D01*
X45980601Y-46730601D01*
X46035966Y-46647740D01*
X46050500Y-46574674D01*
X46050500Y-45925326D01*
X46035966Y-45852260D01*
X45980601Y-45769399D01*
X45972444Y-45763949D01*
X45897740Y-45714034D01*
X45824674Y-45699500D01*
X45824672Y-45699500D01*
X45669500Y-45699500D01*
X45617174Y-45677826D01*
X45595500Y-45625500D01*
X45595500Y-44586483D01*
X45617174Y-44534157D01*
X45620662Y-44530667D01*
X45620666Y-44530665D01*
X45676051Y-44447775D01*
X45695500Y-44349999D01*
X45695500Y-43750000D01*
X45676051Y-43652224D01*
X45620666Y-43569334D01*
X45537776Y-43513949D01*
X45440000Y-43494500D01*
X44840000Y-43494500D01*
X44774816Y-43507466D01*
X44742223Y-43513949D01*
X44659334Y-43569333D01*
X44659333Y-43569334D01*
X44603949Y-43652223D01*
X44597220Y-43686051D01*
X44589041Y-43727174D01*
X44584500Y-43750001D01*
X44584500Y-44349997D01*
X44603949Y-44447775D01*
X44659333Y-44530664D01*
X44662826Y-44534157D01*
X44684500Y-44586483D01*
X44684500Y-45625500D01*
X44662826Y-45677826D01*
X44610500Y-45699500D01*
X44450326Y-45699500D01*
X44401615Y-45709189D01*
X44377259Y-45714034D01*
X44294399Y-45769398D01*
X44294398Y-45769399D01*
X44239034Y-45852259D01*
X44239034Y-45852260D01*
X44224500Y-45925326D01*
X43775500Y-45925326D01*
X43760966Y-45852260D01*
X43705601Y-45769399D01*
X43697444Y-45763949D01*
X43622740Y-45714034D01*
X43549674Y-45699500D01*
X42175326Y-45699500D01*
X42138793Y-45706767D01*
X42102258Y-45714034D01*
X42075327Y-45732029D01*
X42034216Y-45744500D01*
X20000000Y-45744500D01*
X19934816Y-45757466D01*
X19902223Y-45763949D01*
X19819334Y-45819333D01*
X19819333Y-45819334D01*
X19763949Y-45902223D01*
X19755058Y-45946918D01*
X19723591Y-45994010D01*
X19696918Y-46005058D01*
X19652223Y-46013949D01*
X19569334Y-46069333D01*
X19569333Y-46069334D01*
X19513949Y-46152223D01*
X19513949Y-46152224D01*
X19496374Y-46240582D01*
X19494500Y-46250001D01*
X19494500Y-57299998D01*
X19513949Y-57397776D01*
X19561761Y-57469333D01*
X19569334Y-57480666D01*
X19652224Y-57536051D01*
X19684937Y-57542557D01*
X19732028Y-57574022D01*
X19744500Y-57615135D01*
X19744500Y-57700000D01*
X19763949Y-57797776D01*
X19819334Y-57880666D01*
X19902224Y-57936051D01*
X20000000Y-57955500D01*
X23334956Y-57955500D01*
X23387282Y-57977174D01*
X23407534Y-58015063D01*
X23414034Y-58047740D01*
X23469399Y-58130601D01*
X23552260Y-58185966D01*
X23625326Y-58200500D01*
X23625328Y-58200500D01*
X26374672Y-58200500D01*
X26374674Y-58200500D01*
X26447740Y-58185966D01*
X26530601Y-58130601D01*
X26585966Y-58047740D01*
X26592466Y-58015063D01*
X26623932Y-57967971D01*
X26665044Y-57955500D01*
X27775500Y-57955500D01*
X27827826Y-57977174D01*
X27849500Y-58029500D01*
X27849500Y-58324674D01*
X27864034Y-58397740D01*
X27919399Y-58480601D01*
X28002260Y-58535966D01*
X28075326Y-58550500D01*
X29420500Y-58550500D01*
X29472826Y-58572174D01*
X29494500Y-58624500D01*
X29494500Y-63616347D01*
X29472826Y-63668673D01*
X29420500Y-63690347D01*
X29039499Y-63690347D01*
X28987173Y-63668673D01*
X28965499Y-63616347D01*
X28965499Y-63575847D01*
X28961922Y-63557863D01*
X28960500Y-63543427D01*
X28960500Y-63241174D01*
X28960500Y-63241173D01*
X28945966Y-63168107D01*
X28945965Y-63168105D01*
X28917971Y-63126207D01*
X28905500Y-63085096D01*
X28905500Y-60795848D01*
X28905500Y-60795847D01*
X28886051Y-60698071D01*
X28830666Y-60615181D01*
X28747776Y-60559796D01*
X28703080Y-60550905D01*
X28655989Y-60519438D01*
X28644941Y-60492766D01*
X28636051Y-60448071D01*
X28580666Y-60365181D01*
X28497776Y-60309796D01*
X28400000Y-60290347D01*
X28399998Y-60290347D01*
X27190750Y-60290347D01*
X27149638Y-60277876D01*
X27107740Y-60249881D01*
X27034674Y-60235347D01*
X26365326Y-60235347D01*
X26316615Y-60245036D01*
X26292259Y-60249881D01*
X26250362Y-60277876D01*
X26209250Y-60290347D01*
X25490750Y-60290347D01*
X25449638Y-60277876D01*
X25407740Y-60249881D01*
X25334674Y-60235347D01*
X24665326Y-60235347D01*
X24616615Y-60245036D01*
X24592259Y-60249881D01*
X24550362Y-60277876D01*
X24509250Y-60290347D01*
X18674500Y-60290347D01*
X18622174Y-60268673D01*
X18600500Y-60216347D01*
X18600500Y-60121174D01*
X18599540Y-60116347D01*
X18585966Y-60048107D01*
X18530601Y-59965246D01*
X18447740Y-59909881D01*
X18374674Y-59895347D01*
X15625326Y-59895347D01*
X15576615Y-59905036D01*
X15552259Y-59909881D01*
X15469399Y-59965245D01*
X15469398Y-59965246D01*
X15414034Y-60048106D01*
X15414034Y-60048107D01*
X15399500Y-60121173D01*
X250000Y-60121173D01*
X250000Y-22529478D01*
X15399500Y-22529478D01*
X15399500Y-23878826D01*
X15414034Y-23951892D01*
X15469399Y-24034753D01*
X15552260Y-24090118D01*
X15625326Y-24104652D01*
X15625328Y-24104652D01*
X18374672Y-24104652D01*
X18374674Y-24104652D01*
X18447740Y-24090118D01*
X18530601Y-24034753D01*
X18585966Y-23951892D01*
X18600500Y-23878826D01*
X18600500Y-23783652D01*
X18622174Y-23731326D01*
X18674500Y-23709652D01*
X24509250Y-23709652D01*
X24550361Y-23722122D01*
X24592260Y-23750118D01*
X24665326Y-23764652D01*
X24665328Y-23764652D01*
X25334672Y-23764652D01*
X25334674Y-23764652D01*
X25407740Y-23750118D01*
X25449638Y-23722122D01*
X25490750Y-23709652D01*
X26209250Y-23709652D01*
X26250361Y-23722122D01*
X26292260Y-23750118D01*
X26365326Y-23764652D01*
X26365328Y-23764652D01*
X27034672Y-23764652D01*
X27034674Y-23764652D01*
X27107740Y-23750118D01*
X27149638Y-23722122D01*
X27190750Y-23709652D01*
X28399998Y-23709652D01*
X28400000Y-23709652D01*
X28497776Y-23690203D01*
X28580666Y-23634818D01*
X28636051Y-23551928D01*
X28644941Y-23507233D01*
X28676404Y-23460142D01*
X28703079Y-23449093D01*
X28747776Y-23440203D01*
X28830666Y-23384818D01*
X28886051Y-23301928D01*
X28905500Y-23204152D01*
X28905500Y-20914901D01*
X28917971Y-20873789D01*
X28945966Y-20831892D01*
X28960500Y-20758826D01*
X28960500Y-20456570D01*
X28961922Y-20442133D01*
X28965499Y-20424150D01*
X28965499Y-20383652D01*
X28987173Y-20331326D01*
X29039499Y-20309652D01*
X29420500Y-20309652D01*
X29472826Y-20331326D01*
X29494500Y-20383652D01*
X29494500Y-25375500D01*
X29472826Y-25427826D01*
X29420500Y-25449500D01*
X28075326Y-25449500D01*
X28026615Y-25459189D01*
X28002259Y-25464034D01*
X27919399Y-25519398D01*
X27919398Y-25519399D01*
X27864034Y-25602259D01*
X27849500Y-25675327D01*
X27849500Y-25970500D01*
X27827826Y-26022826D01*
X27775500Y-26044500D01*
X26665044Y-26044500D01*
X26612718Y-26022826D01*
X26592466Y-25984937D01*
X26589594Y-25970500D01*
X26585966Y-25952260D01*
X26530601Y-25869399D01*
X26478630Y-25834674D01*
X26447740Y-25814034D01*
X26374674Y-25799500D01*
X23625326Y-25799500D01*
X23576615Y-25809189D01*
X23552259Y-25814034D01*
X23469399Y-25869398D01*
X23469398Y-25869399D01*
X23414034Y-25952259D01*
X23407534Y-25984937D01*
X23376068Y-26032029D01*
X23334956Y-26044500D01*
X20000000Y-26044500D01*
X19934816Y-26057466D01*
X19902223Y-26063949D01*
X19819334Y-26119333D01*
X19819333Y-26119334D01*
X19763949Y-26202223D01*
X19744500Y-26300001D01*
X19744500Y-26384864D01*
X19722826Y-26437190D01*
X19684937Y-26457442D01*
X19652223Y-26463949D01*
X19569334Y-26519333D01*
X19569333Y-26519334D01*
X19513949Y-26602223D01*
X19513949Y-26602224D01*
X19494500Y-26700000D01*
X19494500Y-37750000D01*
X19513949Y-37847776D01*
X19569334Y-37930666D01*
X19652224Y-37986051D01*
X19696917Y-37994940D01*
X19744008Y-38026405D01*
X19755058Y-38053080D01*
X19763949Y-38097776D01*
X19797333Y-38147740D01*
X19819334Y-38180666D01*
X19902224Y-38236051D01*
X20000000Y-38255500D01*
X42034216Y-38255500D01*
X42075327Y-38267971D01*
X42102258Y-38285965D01*
X42102260Y-38285966D01*
X42175326Y-38300500D01*
X42175328Y-38300500D01*
X43549672Y-38300500D01*
X43549674Y-38300500D01*
X43622740Y-38285966D01*
X43705601Y-38230601D01*
X43760966Y-38147740D01*
X43775500Y-38074674D01*
X43775500Y-37425326D01*
X44224500Y-37425326D01*
X44224500Y-38074674D01*
X44239034Y-38147740D01*
X44294399Y-38230601D01*
X44377260Y-38285966D01*
X44450326Y-38300500D01*
X44610500Y-38300500D01*
X44662826Y-38322174D01*
X44684500Y-38374500D01*
X44684500Y-39413516D01*
X44662826Y-39465842D01*
X44659333Y-39469334D01*
X44603949Y-39552223D01*
X44603949Y-39552224D01*
X44584500Y-39650000D01*
X44584500Y-40250000D01*
X44603949Y-40347776D01*
X44659334Y-40430666D01*
X44742224Y-40486051D01*
X44840000Y-40505500D01*
X44840002Y-40505500D01*
X45439998Y-40505500D01*
X45440000Y-40505500D01*
X45537776Y-40486051D01*
X45620666Y-40430666D01*
X45676051Y-40347776D01*
X45695500Y-40250000D01*
X45695500Y-39650000D01*
X45676051Y-39552224D01*
X45620666Y-39469334D01*
X45617174Y-39465842D01*
X45595500Y-39413516D01*
X45595500Y-38374500D01*
X45617174Y-38322174D01*
X45669500Y-38300500D01*
X45824672Y-38300500D01*
X45824674Y-38300500D01*
X45897740Y-38285966D01*
X45980601Y-38230601D01*
X46035966Y-38147740D01*
X46050500Y-38074674D01*
X46050500Y-37425326D01*
X46035966Y-37352260D01*
X45980601Y-37269399D01*
X45943336Y-37244500D01*
X45897740Y-37214034D01*
X45824674Y-37199500D01*
X44450326Y-37199500D01*
X44401615Y-37209189D01*
X44377259Y-37214034D01*
X44294399Y-37269398D01*
X44294398Y-37269399D01*
X44239034Y-37352259D01*
X44239034Y-37352260D01*
X44224500Y-37425326D01*
X43775500Y-37425326D01*
X43760966Y-37352260D01*
X43705601Y-37269399D01*
X43668336Y-37244500D01*
X43622740Y-37214034D01*
X43549674Y-37199500D01*
X42175326Y-37199500D01*
X42138793Y-37206767D01*
X42102258Y-37214034D01*
X42075327Y-37232029D01*
X42034216Y-37244500D01*
X20579500Y-37244500D01*
X20527174Y-37222826D01*
X20505500Y-37170500D01*
X20505500Y-31975326D01*
X28999500Y-31975326D01*
X28999500Y-34024674D01*
X29014034Y-34097740D01*
X29030443Y-34122299D01*
X29069399Y-34180601D01*
X29152260Y-34235966D01*
X29225326Y-34250500D01*
X29225328Y-34250500D01*
X30774672Y-34250500D01*
X30774674Y-34250500D01*
X30847740Y-34235966D01*
X30930601Y-34180601D01*
X30985966Y-34097740D01*
X31000500Y-34024674D01*
X31000500Y-31975326D01*
X31299499Y-31975326D01*
X31299499Y-34024674D01*
X31314033Y-34097740D01*
X31330442Y-34122299D01*
X31369398Y-34180601D01*
X31452259Y-34235966D01*
X31525325Y-34250500D01*
X31525327Y-34250500D01*
X33074671Y-34250500D01*
X33074673Y-34250500D01*
X33147739Y-34235966D01*
X33230600Y-34180601D01*
X33285965Y-34097740D01*
X33300499Y-34024674D01*
X33300499Y-33949500D01*
X33322173Y-33897174D01*
X33374499Y-33875500D01*
X35244672Y-33875500D01*
X35244674Y-33875500D01*
X35317740Y-33860966D01*
X35400601Y-33805601D01*
X35455966Y-33722740D01*
X35467439Y-33665063D01*
X35498905Y-33617971D01*
X35540017Y-33605500D01*
X35875500Y-33605500D01*
X35927826Y-33627174D01*
X35949500Y-33679500D01*
X35949500Y-34699672D01*
X35964034Y-34772740D01*
X35983882Y-34802446D01*
X36019399Y-34855601D01*
X36102260Y-34910966D01*
X36175326Y-34925500D01*
X36175328Y-34925500D01*
X37824672Y-34925500D01*
X37824674Y-34925500D01*
X37897740Y-34910966D01*
X37980601Y-34855601D01*
X38035966Y-34772740D01*
X38050500Y-34699674D01*
X38050500Y-31300326D01*
X38035966Y-31227260D01*
X37980601Y-31144399D01*
X37897740Y-31089034D01*
X37824674Y-31074500D01*
X36175326Y-31074500D01*
X36126615Y-31084189D01*
X36102259Y-31089034D01*
X36019399Y-31144398D01*
X36019398Y-31144399D01*
X35964034Y-31227259D01*
X35949500Y-31300327D01*
X35949500Y-32320500D01*
X35927826Y-32372826D01*
X35875500Y-32394500D01*
X35540017Y-32394500D01*
X35487691Y-32372826D01*
X35467439Y-32334937D01*
X35459395Y-32294499D01*
X35455966Y-32277260D01*
X35400601Y-32194399D01*
X35317740Y-32139034D01*
X35244674Y-32124500D01*
X35244672Y-32124500D01*
X33374499Y-32124500D01*
X33322173Y-32102826D01*
X33300499Y-32050500D01*
X33300499Y-31975327D01*
X33300499Y-31975326D01*
X33285965Y-31902260D01*
X33230600Y-31819399D01*
X33147739Y-31764034D01*
X33074673Y-31749500D01*
X31525325Y-31749500D01*
X31476614Y-31759189D01*
X31452258Y-31764034D01*
X31369398Y-31819398D01*
X31369397Y-31819399D01*
X31314033Y-31902259D01*
X31314033Y-31902260D01*
X31299499Y-31975326D01*
X31000500Y-31975326D01*
X30985966Y-31902260D01*
X30930601Y-31819399D01*
X30847740Y-31764034D01*
X30774674Y-31749500D01*
X29225326Y-31749500D01*
X29176615Y-31759189D01*
X29152259Y-31764034D01*
X29069399Y-31819398D01*
X29069398Y-31819399D01*
X29014034Y-31902259D01*
X29014034Y-31902260D01*
X28999500Y-31975326D01*
X20505500Y-31975326D01*
X20505500Y-27429500D01*
X20527174Y-27377174D01*
X20579500Y-27355500D01*
X23334956Y-27355500D01*
X23387282Y-27377174D01*
X23407534Y-27415063D01*
X23414034Y-27447740D01*
X23469399Y-27530601D01*
X23552260Y-27585966D01*
X23625326Y-27600500D01*
X23625328Y-27600500D01*
X26374672Y-27600500D01*
X26374674Y-27600500D01*
X26447740Y-27585966D01*
X26530601Y-27530601D01*
X26585966Y-27447740D01*
X26592466Y-27415063D01*
X26623932Y-27367971D01*
X26665044Y-27355500D01*
X27775500Y-27355500D01*
X27827826Y-27377174D01*
X27849500Y-27429500D01*
X27849500Y-27724674D01*
X27864034Y-27797740D01*
X27919399Y-27880601D01*
X28002260Y-27935966D01*
X28075326Y-27950500D01*
X28075328Y-27950500D01*
X31924672Y-27950500D01*
X31924674Y-27950500D01*
X31997740Y-27935966D01*
X32080601Y-27880601D01*
X32135966Y-27797740D01*
X32150500Y-27724674D01*
X32150500Y-27132423D01*
X32151922Y-27117986D01*
X32155500Y-27099998D01*
X32155500Y-26300000D01*
X32151922Y-26282011D01*
X32150500Y-26267575D01*
X32150500Y-25675327D01*
X32145462Y-25650000D01*
X32135966Y-25602260D01*
X32080601Y-25519399D01*
X32076476Y-25516643D01*
X31997740Y-25464034D01*
X31924674Y-25449500D01*
X31924672Y-25449500D01*
X30579500Y-25449500D01*
X30527174Y-25427826D01*
X30505500Y-25375500D01*
X30505500Y-20324596D01*
X30527174Y-20272270D01*
X30538388Y-20263067D01*
X30580666Y-20234818D01*
X30636051Y-20151928D01*
X30644941Y-20107233D01*
X30676404Y-20060142D01*
X30703079Y-20049093D01*
X30747776Y-20040203D01*
X30830666Y-19984818D01*
X30886051Y-19901928D01*
X30905500Y-19804152D01*
X30905500Y-17804152D01*
X30905500Y-17554152D01*
X30886051Y-17456376D01*
X30830666Y-17373486D01*
X30747776Y-17318101D01*
X30650000Y-17298652D01*
X30400000Y-17298652D01*
X30250000Y-17298652D01*
X29750000Y-17298652D01*
X29684816Y-17311618D01*
X29652223Y-17318101D01*
X29569334Y-17373485D01*
X29569333Y-17373486D01*
X29513949Y-17456375D01*
X29494500Y-17554153D01*
X29494500Y-19224652D01*
X29472826Y-19276978D01*
X29420500Y-19298652D01*
X28831109Y-19298652D01*
X28778783Y-19276978D01*
X28757109Y-19224652D01*
X28757109Y-11256264D01*
X28778783Y-11203938D01*
X28831109Y-11182264D01*
X33414998Y-11182264D01*
X33415000Y-11182264D01*
X33512776Y-11162815D01*
X33595666Y-11107430D01*
X33651051Y-11024540D01*
X33670500Y-10926764D01*
X33670500Y-10634500D01*
X33692174Y-10582174D01*
X33744500Y-10560500D01*
X33749672Y-10560500D01*
X33749674Y-10560500D01*
X33822740Y-10545966D01*
X33905601Y-10490601D01*
X33938471Y-10441407D01*
X33985562Y-10409940D01*
X34041111Y-10420989D01*
X34061529Y-10441407D01*
X34094396Y-10490598D01*
X34094398Y-10490600D01*
X34094399Y-10490601D01*
X34177260Y-10545966D01*
X34250326Y-10560500D01*
X34255500Y-10560500D01*
X34307826Y-10582174D01*
X34329500Y-10634500D01*
X34329500Y-10926764D01*
X34348949Y-11024540D01*
X34404334Y-11107430D01*
X34487224Y-11162815D01*
X34585000Y-11182264D01*
X34585002Y-11182264D01*
X36744998Y-11182264D01*
X36745000Y-11182264D01*
X36842776Y-11162815D01*
X36925666Y-11107430D01*
X36957492Y-11059799D01*
X37004584Y-11028333D01*
X37019021Y-11026911D01*
X37224998Y-11026911D01*
X37225000Y-11026911D01*
X37322776Y-11007462D01*
X37405666Y-10952077D01*
X37437492Y-10904446D01*
X37484584Y-10872980D01*
X37499021Y-10871558D01*
X37704998Y-10871558D01*
X37705000Y-10871558D01*
X37802776Y-10852109D01*
X37885666Y-10796724D01*
X37917492Y-10749093D01*
X37964584Y-10717627D01*
X37979021Y-10716205D01*
X38184998Y-10716205D01*
X38185000Y-10716205D01*
X38282776Y-10696756D01*
X38365666Y-10641371D01*
X38397492Y-10593740D01*
X38444584Y-10562274D01*
X38459021Y-10560852D01*
X38664998Y-10560852D01*
X38665000Y-10560852D01*
X38762776Y-10541403D01*
X38845666Y-10486018D01*
X38877491Y-10438387D01*
X38924583Y-10406922D01*
X38939020Y-10405500D01*
X39144998Y-10405500D01*
X39145000Y-10405500D01*
X39242776Y-10386051D01*
X39325666Y-10330666D01*
X39381051Y-10247776D01*
X39400500Y-10150000D01*
X39400500Y-9849999D01*
X39381051Y-9752223D01*
X39325666Y-9669333D01*
X39319669Y-9665326D01*
X39242776Y-9613948D01*
X39145000Y-9594499D01*
X39144998Y-9594499D01*
X38939020Y-9594499D01*
X38886694Y-9572825D01*
X38877491Y-9561611D01*
X38875474Y-9558593D01*
X38845666Y-9513981D01*
X38762776Y-9458596D01*
X38665000Y-9439147D01*
X38664998Y-9439147D01*
X38459021Y-9439147D01*
X38406695Y-9417473D01*
X38397492Y-9406259D01*
X38365666Y-9358628D01*
X38365665Y-9358627D01*
X38282776Y-9303243D01*
X38185000Y-9283794D01*
X38184998Y-9283794D01*
X37979021Y-9283794D01*
X37926695Y-9262120D01*
X37917492Y-9250906D01*
X37885666Y-9203275D01*
X37885665Y-9203274D01*
X37802776Y-9147890D01*
X37705000Y-9128441D01*
X37704998Y-9128441D01*
X37499021Y-9128441D01*
X37446695Y-9106767D01*
X37437492Y-9095553D01*
X37405666Y-9047922D01*
X37405665Y-9047921D01*
X37322776Y-8992537D01*
X37225000Y-8973088D01*
X37224998Y-8973088D01*
X37019021Y-8973088D01*
X36966695Y-8951414D01*
X36957492Y-8940200D01*
X36925666Y-8892569D01*
X36925665Y-8892568D01*
X36842776Y-8837184D01*
X36745000Y-8817735D01*
X34585000Y-8817735D01*
X34519816Y-8830701D01*
X34487223Y-8837184D01*
X34404334Y-8892568D01*
X34404333Y-8892569D01*
X34348949Y-8975458D01*
X34329500Y-9073236D01*
X34329500Y-9365500D01*
X34307826Y-9417826D01*
X34255500Y-9439500D01*
X34250326Y-9439500D01*
X34201615Y-9449189D01*
X34177259Y-9454034D01*
X34094399Y-9509398D01*
X34094398Y-9509399D01*
X34061529Y-9558593D01*
X34014437Y-9590059D01*
X33958888Y-9579010D01*
X33938471Y-9558593D01*
X33905601Y-9509399D01*
X33905600Y-9509398D01*
X33822740Y-9454034D01*
X33749674Y-9439500D01*
X33749672Y-9439500D01*
X33744500Y-9439500D01*
X33692174Y-9417826D01*
X33670500Y-9365500D01*
X33670500Y-9073236D01*
X33665465Y-9047922D01*
X33651051Y-8975459D01*
X33595666Y-8892569D01*
X33578426Y-8881050D01*
X33512776Y-8837184D01*
X33415000Y-8817735D01*
X28400000Y-8817735D01*
X24000000Y-8817735D01*
X23934816Y-8830701D01*
X23902223Y-8837184D01*
X23819334Y-8892568D01*
X23819333Y-8892569D01*
X23763948Y-8975459D01*
X23751124Y-9039936D01*
X23719658Y-9087029D01*
X23678546Y-9099500D01*
X23525326Y-9099500D01*
X23488793Y-9106767D01*
X23452259Y-9114034D01*
X23369399Y-9169398D01*
X23369398Y-9169399D01*
X23314034Y-9252259D01*
X23311627Y-9264359D01*
X23299500Y-9325326D01*
X23299500Y-10674674D01*
X23313458Y-10744842D01*
X23314034Y-10747740D01*
X23346763Y-10796724D01*
X23369399Y-10830601D01*
X23452260Y-10885966D01*
X23525326Y-10900500D01*
X23678546Y-10900500D01*
X23730872Y-10922174D01*
X23751123Y-10960061D01*
X23763949Y-11024540D01*
X23819334Y-11107430D01*
X23902224Y-11162815D01*
X24000000Y-11182264D01*
X27968890Y-11182264D01*
X28021216Y-11203938D01*
X28042890Y-11256264D01*
X28042890Y-19497669D01*
X28021216Y-19549995D01*
X27997210Y-19566036D01*
X27992223Y-19568101D01*
X27909334Y-19623485D01*
X27909333Y-19623486D01*
X27853949Y-19706375D01*
X27853949Y-19706376D01*
X27834501Y-19804150D01*
X27834500Y-19804153D01*
X27834500Y-20424150D01*
X27838078Y-20442138D01*
X27839500Y-20456570D01*
X27839500Y-20758826D01*
X27854034Y-20831892D01*
X27882029Y-20873789D01*
X27894500Y-20914901D01*
X27894500Y-22624652D01*
X27872826Y-22676978D01*
X27820500Y-22698652D01*
X27190750Y-22698652D01*
X27149638Y-22686181D01*
X27107740Y-22658186D01*
X27034674Y-22643652D01*
X26365326Y-22643652D01*
X26316615Y-22653341D01*
X26292259Y-22658186D01*
X26250362Y-22686181D01*
X26209250Y-22698652D01*
X25490750Y-22698652D01*
X25449638Y-22686181D01*
X25407740Y-22658186D01*
X25334674Y-22643652D01*
X24665326Y-22643652D01*
X24616615Y-22653341D01*
X24592259Y-22658186D01*
X24550362Y-22686181D01*
X24509250Y-22698652D01*
X18674500Y-22698652D01*
X18622174Y-22676978D01*
X18600500Y-22624652D01*
X18600500Y-22529479D01*
X18593542Y-22494500D01*
X18585966Y-22456412D01*
X18530601Y-22373551D01*
X18447740Y-22318186D01*
X18374674Y-22303652D01*
X15625326Y-22303652D01*
X15576615Y-22313341D01*
X15552259Y-22318186D01*
X15469399Y-22373550D01*
X15469398Y-22373551D01*
X15414034Y-22456411D01*
X15414034Y-22456412D01*
X15399500Y-22529478D01*
X250000Y-22529478D01*
X250000Y-11256264D01*
X271674Y-11203938D01*
X324000Y-11182264D01*
X7389998Y-11182264D01*
X7390000Y-11182264D01*
X7487776Y-11162815D01*
X7570666Y-11107430D01*
X7626051Y-11024540D01*
X7645500Y-10926764D01*
X7645500Y-10797168D01*
X7667174Y-10744842D01*
X7678388Y-10735639D01*
X7686792Y-10730023D01*
X7737332Y-10696254D01*
X7792717Y-10613364D01*
X7792717Y-10613360D01*
X7793621Y-10611182D01*
X7795290Y-10609512D01*
X7796766Y-10607304D01*
X7797205Y-10607597D01*
X7833669Y-10571133D01*
X7861988Y-10565500D01*
X9915000Y-10565500D01*
X9932989Y-10561922D01*
X9947425Y-10560500D01*
X10249672Y-10560500D01*
X10249674Y-10560500D01*
X10322740Y-10545966D01*
X10405601Y-10490601D01*
X10438471Y-10441407D01*
X10485562Y-10409940D01*
X10541111Y-10420989D01*
X10561529Y-10441407D01*
X10594396Y-10490598D01*
X10594398Y-10490600D01*
X10594399Y-10490601D01*
X10677260Y-10545966D01*
X10750326Y-10560500D01*
X11052575Y-10560500D01*
X11067011Y-10561922D01*
X11085000Y-10565500D01*
X12710000Y-10565500D01*
X13138011Y-10565500D01*
X13190337Y-10587174D01*
X13206378Y-10611182D01*
X13207281Y-10613362D01*
X13207281Y-10613363D01*
X13207282Y-10613364D01*
X13262667Y-10696254D01*
X13321612Y-10735640D01*
X13353078Y-10782731D01*
X13354500Y-10797168D01*
X13354500Y-10926764D01*
X13373949Y-11024540D01*
X13429334Y-11107430D01*
X13512224Y-11162815D01*
X13610000Y-11182264D01*
X13610002Y-11182264D01*
X15814997Y-11182264D01*
X15814999Y-11182264D01*
X15912775Y-11162815D01*
X15995665Y-11107430D01*
X16051050Y-11024540D01*
X16070499Y-10926764D01*
X16070499Y-10634500D01*
X16092173Y-10582174D01*
X16144499Y-10560500D01*
X16149671Y-10560500D01*
X16149673Y-10560500D01*
X16222739Y-10545966D01*
X16305600Y-10490601D01*
X16338471Y-10441404D01*
X16385561Y-10409939D01*
X16441110Y-10420987D01*
X16461527Y-10441404D01*
X16494399Y-10490601D01*
X16577260Y-10545966D01*
X16650326Y-10560500D01*
X16655500Y-10560500D01*
X16707826Y-10582174D01*
X16729500Y-10634500D01*
X16729500Y-10926764D01*
X16748949Y-11024540D01*
X16804334Y-11107430D01*
X16887224Y-11162815D01*
X16985000Y-11182264D01*
X16985002Y-11182264D01*
X20999998Y-11182264D01*
X21000000Y-11182264D01*
X21097776Y-11162815D01*
X21180666Y-11107430D01*
X21236051Y-11024540D01*
X21248876Y-10960062D01*
X21280342Y-10912971D01*
X21321454Y-10900500D01*
X21474672Y-10900500D01*
X21474674Y-10900500D01*
X21547740Y-10885966D01*
X21630601Y-10830601D01*
X21685966Y-10747740D01*
X21700500Y-10674674D01*
X21700500Y-9325326D01*
X21685966Y-9252260D01*
X21630601Y-9169399D01*
X21547740Y-9114034D01*
X21474674Y-9099500D01*
X21474672Y-9099500D01*
X21321454Y-9099500D01*
X21269128Y-9077826D01*
X21248876Y-9039936D01*
X21236051Y-8975459D01*
X21180666Y-8892569D01*
X21180665Y-8892568D01*
X21097776Y-8837184D01*
X21000000Y-8817735D01*
X16985000Y-8817735D01*
X16919816Y-8830701D01*
X16887223Y-8837184D01*
X16804334Y-8892568D01*
X16804333Y-8892569D01*
X16748949Y-8975458D01*
X16729500Y-9073236D01*
X16729500Y-9365500D01*
X16707826Y-9417826D01*
X16655500Y-9439500D01*
X16650326Y-9439500D01*
X16601615Y-9449189D01*
X16577259Y-9454034D01*
X16494399Y-9509398D01*
X16494398Y-9509399D01*
X16461528Y-9558594D01*
X16414436Y-9590060D01*
X16358887Y-9579011D01*
X16338470Y-9558593D01*
X16305602Y-9509401D01*
X16305599Y-9509398D01*
X16222739Y-9454034D01*
X16149673Y-9439500D01*
X16149671Y-9439500D01*
X16144499Y-9439500D01*
X16092173Y-9417826D01*
X16070499Y-9365500D01*
X16070499Y-9073236D01*
X16065464Y-9047922D01*
X16051050Y-8975459D01*
X15995665Y-8892569D01*
X15978425Y-8881050D01*
X15912775Y-8837184D01*
X15814999Y-8817735D01*
X13610000Y-8817735D01*
X13544816Y-8830701D01*
X13512223Y-8837184D01*
X13429334Y-8892568D01*
X13429333Y-8892569D01*
X13373949Y-8975458D01*
X13354500Y-9073236D01*
X13354500Y-9202830D01*
X13332826Y-9255156D01*
X13321612Y-9264359D01*
X13262667Y-9303744D01*
X13262666Y-9303745D01*
X13207281Y-9386636D01*
X13206378Y-9388817D01*
X13204708Y-9390486D01*
X13203233Y-9392695D01*
X13202793Y-9392401D01*
X13166330Y-9428866D01*
X13138011Y-9434499D01*
X11085000Y-9434499D01*
X11067006Y-9438078D01*
X11052570Y-9439500D01*
X10750326Y-9439500D01*
X10701615Y-9449189D01*
X10677259Y-9454034D01*
X10594399Y-9509398D01*
X10594398Y-9509399D01*
X10561529Y-9558593D01*
X10514437Y-9590059D01*
X10458888Y-9579010D01*
X10438471Y-9558593D01*
X10405601Y-9509399D01*
X10405600Y-9509398D01*
X10322740Y-9454034D01*
X10249674Y-9439500D01*
X10249672Y-9439500D01*
X9947430Y-9439500D01*
X9932994Y-9438078D01*
X9915000Y-9434499D01*
X8289999Y-9434499D01*
X7861988Y-9434499D01*
X7809662Y-9412825D01*
X7793621Y-9388817D01*
X7792717Y-9386636D01*
X7792717Y-9386635D01*
X7737332Y-9303745D01*
X7737331Y-9303744D01*
X7737330Y-9303743D01*
X7678387Y-9264358D01*
X7646922Y-9217266D01*
X7645500Y-9202830D01*
X7645500Y-9073236D01*
X7640465Y-9047922D01*
X7626051Y-8975459D01*
X7570666Y-8892569D01*
X7553426Y-8881050D01*
X7487776Y-8837184D01*
X7390000Y-8817735D01*
X324000Y-8817735D01*
X271674Y-8796061D01*
X250000Y-8743735D01*
X250000Y-7095327D01*
X39429500Y-7095327D01*
X39429500Y-7764672D01*
X39444034Y-7837740D01*
X39499398Y-7920600D01*
X39499399Y-7920601D01*
X39551612Y-7955488D01*
X39583078Y-8002580D01*
X39584500Y-8017017D01*
X39584500Y-8644997D01*
X39603949Y-8742775D01*
X39656626Y-8821613D01*
X39659334Y-8825665D01*
X39742224Y-8881050D01*
X39840000Y-8900499D01*
X39840002Y-8900499D01*
X40139998Y-8900499D01*
X40140000Y-8900499D01*
X40237776Y-8881050D01*
X40320666Y-8825665D01*
X40376051Y-8742775D01*
X40395500Y-8644999D01*
X40395500Y-8017017D01*
X40417174Y-7964691D01*
X40428388Y-7955488D01*
X40480601Y-7920601D01*
X40535966Y-7837740D01*
X40550500Y-7764674D01*
X40550500Y-7095326D01*
X40535966Y-7022260D01*
X40480601Y-6939399D01*
X40397740Y-6884034D01*
X40324674Y-6869500D01*
X39655326Y-6869500D01*
X39606615Y-6879189D01*
X39582259Y-6884034D01*
X39499399Y-6939398D01*
X39499398Y-6939399D01*
X39444034Y-7022259D01*
X39429500Y-7095327D01*
X250000Y-7095327D01*
X250000Y-3003638D01*
X250356Y-2996385D01*
X302126Y-2470747D01*
X304953Y-2456534D01*
X457217Y-1954587D01*
X462768Y-1941189D01*
X710024Y-1478605D01*
X718076Y-1466553D01*
X1050833Y-1061088D01*
X1061090Y-1050832D01*
X1466553Y-718076D01*
X1478605Y-710024D01*
X1941192Y-462766D01*
X1954587Y-457217D01*
X2456534Y-304953D01*
X2470747Y-302126D01*
X2996385Y-250355D01*
X3003638Y-250000D01*
X96996362Y-250000D01*
X97003614Y-250355D01*
G37*
%TD.AperFunction*%
%TD*%
M02*
