M48
; DRILL file KiCad 10.0.5 date 2026-08-09T16:32:02
; FORMAT={-:-/ absolute / metric / decimal}
; #@! TF.CreationDate,2026-08-09T16:32:02+01:00
; #@! TF.GenerationSoftware,Kicad,Pcbnew,10.0.5
; #@! TF.FileFunction,MixedPlating,1,4
FMAT,2
METRIC
; #@! TA.AperFunction,Plated,PTH,ViaDrill
T1C0.250
; #@! TA.AperFunction,Plated,PTH,ViaDrill
T2C0.300
; #@! TA.AperFunction,Plated,PTH,ViaDrill
T3C0.400
; #@! TA.AperFunction,Plated,PTH,ComponentDrill
T4C1.020
; #@! TA.AperFunction,Plated,PTH,ComponentDrill
T5C3.200
%
G90
G05
T1
X8.6Y-11.17
X8.6Y-72.83
X12.4Y-11.17
X12.4Y-72.83
X16.15Y-25.504
X16.15Y-58.496
X17.85Y-25.504
X17.85Y-58.496
X22.5Y-27.87
X22.5Y-56.13
X24.15Y-29.0
X24.15Y-55.0
X25.0Y-24.374
X25.0Y-59.626
X25.85Y-29.0
X25.85Y-55.0
X26.7Y-24.374
X26.7Y-59.626
X27.23Y-20.424
X27.23Y-63.576
X33.37Y-31.05
X33.37Y-52.95
X35.07Y-31.05
X35.07Y-52.95
X47.97Y-20.424
X47.97Y-63.576
X48.5Y-24.374
X48.5Y-59.626
X50.2Y-24.374
X50.2Y-59.626
X52.0Y-15.17
X52.0Y-68.83
X53.95Y-25.504
X53.95Y-58.496
X55.65Y-25.504
X55.65Y-58.496
X63.5Y-35.05
X82.196Y-15.944
X82.196Y-68.056
X83.15Y-26.7
X84.65Y-22.16
X84.85Y-26.7
X86.35Y-22.16
X86.35Y-26.7
X87.981Y-15.944
X87.981Y-68.056
X88.05Y-26.7
X89.681Y-15.944
X89.681Y-68.056
X89.8Y-27.83
X91.381Y-15.944
X91.381Y-68.056
X93.0Y-20.77
X93.0Y-63.23
T2
X21.95Y-6.512
X21.95Y-7.612
X21.95Y-8.712
X21.95Y-75.287
X21.95Y-76.388
X21.95Y-77.487
X22.5Y-7.062
X22.5Y-8.162
X22.5Y-75.837
X22.5Y-76.938
X23.05Y-6.512
X23.05Y-7.612
X23.05Y-8.712
X23.05Y-75.287
X23.05Y-76.388
X23.05Y-77.487
X38.02Y-7.52
X38.02Y-8.14
X38.02Y-8.76
X38.02Y-11.24
X38.02Y-11.86
X38.02Y-12.48
X38.02Y-71.52
X38.02Y-72.76
X38.02Y-75.86
X38.02Y-76.48
X38.64Y-72.14
X38.64Y-75.24
X39.26Y-9.38
X39.26Y-11.24
X39.26Y-11.86
X39.26Y-12.48
X39.26Y-72.76
X39.26Y-73.38
X39.26Y-74.62
X39.26Y-75.86
X39.26Y-76.48
X39.88Y-11.24
X39.88Y-11.86
X39.88Y-12.48
X39.88Y-75.86
X39.88Y-76.48
X39.9Y-9.4
X39.9Y-10.6
X39.9Y-73.4
X39.9Y-74.6
X40.5Y-9.4
X40.5Y-10.6
X40.5Y-73.4
X40.5Y-74.6
X40.5Y-75.24
X41.1Y-9.4
X41.1Y-10.6
X41.1Y-73.4
X41.1Y-74.6
X41.12Y-7.52
X41.12Y-8.14
X41.12Y-8.76
X41.12Y-11.24
X41.12Y-11.86
X41.12Y-12.48
X41.12Y-71.52
X41.12Y-72.76
X41.12Y-75.86
X41.12Y-76.48
X41.74Y-7.52
X41.74Y-8.14
X41.74Y-9.38
X41.74Y-11.24
X41.74Y-11.86
X41.74Y-12.48
X41.74Y-71.52
X41.74Y-72.76
X41.74Y-73.38
X41.74Y-74.62
X41.74Y-75.86
X41.74Y-76.48
X42.36Y-8.76
X42.36Y-72.14
X42.36Y-75.24
X42.98Y-7.52
X42.98Y-8.14
X42.98Y-11.24
X42.98Y-11.86
X42.98Y-12.48
X42.98Y-71.52
X42.98Y-72.76
X42.98Y-75.86
X42.98Y-76.48
X45.14Y-39.95
X45.14Y-44.05
X56.4Y-14.0
X56.4Y-70.0
X65.0Y-33.88
X94.981Y-14.774
X94.981Y-69.226
T3
X1.2Y-7.245
X1.2Y-12.755
X1.2Y-71.245
X1.2Y-76.755
X2.47Y-7.245
X2.47Y-12.755
X2.47Y-71.245
X2.47Y-76.755
X3.0Y-18.0
X3.0Y-21.0
X3.0Y-24.0
X3.0Y-27.0
X3.0Y-30.0
X3.0Y-33.0
X3.0Y-36.0
X3.0Y-39.0
X3.0Y-42.0
X3.0Y-45.0
X3.0Y-48.0
X3.0Y-51.0
X3.0Y-54.0
X3.0Y-57.0
X3.0Y-60.0
X3.0Y-63.0
X3.0Y-66.0
X3.74Y-7.245
X3.74Y-12.755
X3.74Y-71.245
X3.74Y-76.755
X6.0Y-15.0
X6.0Y-18.0
X6.0Y-21.0
X6.0Y-24.0
X6.0Y-27.0
X6.0Y-30.0
X6.0Y-33.0
X6.0Y-36.0
X6.0Y-39.0
X6.0Y-42.0
X6.0Y-45.0
X6.0Y-48.0
X6.0Y-51.0
X6.0Y-54.0
X6.0Y-57.0
X6.0Y-60.0
X6.0Y-63.0
X6.0Y-66.0
X6.0Y-69.0
X9.0Y-15.0
X9.0Y-18.0
X9.0Y-21.0
X9.0Y-24.0
X9.0Y-27.0
X9.0Y-30.0
X9.0Y-33.0
X9.0Y-36.0
X9.0Y-39.0
X9.0Y-42.0
X9.0Y-45.0
X9.0Y-48.0
X9.0Y-51.0
X9.0Y-54.0
X9.0Y-57.0
X9.0Y-60.0
X9.0Y-63.0
X9.0Y-66.0
X9.0Y-69.0
X12.0Y-3.0
X12.0Y-6.0
X12.0Y-15.0
X12.0Y-18.0
X12.0Y-21.0
X12.0Y-24.0
X12.0Y-27.0
X12.0Y-30.0
X12.0Y-33.0
X12.0Y-36.0
X12.0Y-39.0
X12.0Y-42.0
X12.0Y-45.0
X12.0Y-48.0
X12.0Y-51.0
X12.0Y-54.0
X12.0Y-57.0
X12.0Y-60.0
X12.0Y-63.0
X12.0Y-66.0
X12.0Y-69.0
X12.0Y-78.0
X12.0Y-81.0
X15.0Y-3.0
X15.0Y-6.0
X15.0Y-15.0
X15.0Y-18.0
X15.0Y-21.0
X15.0Y-30.0
X15.0Y-33.0
X15.0Y-36.0
X15.0Y-39.0
X15.0Y-42.0
X15.0Y-45.0
X15.0Y-48.0
X15.0Y-51.0
X15.0Y-54.0
X15.0Y-63.0
X15.0Y-66.0
X15.0Y-69.0
X15.0Y-78.0
X15.0Y-81.0
X18.0Y-3.0
X18.0Y-6.0
X18.0Y-15.0
X18.0Y-18.0
X18.0Y-21.0
X18.0Y-30.0
X18.0Y-33.0
X18.0Y-36.0
X18.0Y-39.0
X18.0Y-42.0
X18.0Y-45.0
X18.0Y-48.0
X18.0Y-51.0
X18.0Y-54.0
X18.0Y-63.0
X18.0Y-66.0
X18.0Y-69.0
X18.0Y-78.0
X18.0Y-81.0
X21.0Y-3.0
X21.0Y-15.0
X21.0Y-18.0
X21.0Y-21.0
X21.0Y-42.0
X21.0Y-63.0
X21.0Y-66.0
X21.0Y-69.0
X21.0Y-81.0
X24.0Y-3.0
X24.0Y-15.0
X24.0Y-18.0
X24.0Y-21.0
X24.0Y-33.0
X24.0Y-36.0
X24.0Y-42.0
X24.0Y-48.0
X24.0Y-51.0
X24.0Y-63.0
X24.0Y-66.0
X24.0Y-69.0
X24.0Y-81.0
X27.0Y-3.0
X27.0Y-6.0
X27.0Y-15.0
X27.0Y-18.0
X27.0Y-36.0
X27.0Y-42.0
X27.0Y-48.0
X27.0Y-66.0
X27.0Y-69.0
X27.0Y-78.0
X27.0Y-81.0
X30.0Y-3.0
X30.0Y-6.0
X30.0Y-15.0
X30.0Y-30.0
X30.0Y-36.0
X30.0Y-42.0
X30.0Y-48.0
X30.0Y-54.0
X30.0Y-69.0
X30.0Y-78.0
X30.0Y-81.0
X33.0Y-3.0
X33.0Y-6.0
X33.0Y-15.0
X33.0Y-36.0
X33.0Y-42.0
X33.0Y-48.0
X33.0Y-69.0
X33.0Y-78.0
X33.0Y-81.0
X36.0Y-3.0
X36.0Y-6.0
X36.0Y-15.0
X36.0Y-27.0
X36.0Y-36.0
X36.0Y-42.0
X36.0Y-48.0
X36.0Y-57.0
X36.0Y-69.0
X36.0Y-78.0
X36.0Y-81.0
X39.0Y-3.0
X39.0Y-15.0
X39.0Y-27.0
X39.0Y-30.0
X39.0Y-36.0
X39.0Y-42.0
X39.0Y-48.0
X39.0Y-54.0
X39.0Y-57.0
X39.0Y-78.0
X39.0Y-81.0
X42.0Y-3.0
X42.0Y-6.0
X42.0Y-15.0
X42.0Y-18.0
X42.0Y-21.0
X42.0Y-24.0
X42.0Y-42.0
X42.0Y-60.0
X42.0Y-63.0
X42.0Y-66.0
X42.0Y-69.0
X42.0Y-78.0
X42.0Y-81.0
X45.0Y-3.0
X45.0Y-6.0
X45.0Y-15.0
X45.0Y-18.0
X45.0Y-21.0
X45.0Y-24.0
X45.0Y-30.0
X45.0Y-54.0
X45.0Y-60.0
X45.0Y-63.0
X45.0Y-66.0
X45.0Y-69.0
X45.0Y-78.0
X45.0Y-81.0
X48.0Y-3.0
X48.0Y-6.0
X48.0Y-30.0
X48.0Y-54.0
X48.0Y-78.0
X48.0Y-81.0
X51.0Y-3.0
X51.0Y-6.0
X51.0Y-18.0
X51.0Y-21.0
X51.0Y-27.0
X51.0Y-30.0
X51.0Y-33.0
X51.0Y-36.0
X51.0Y-39.0
X51.0Y-48.0
X51.0Y-51.0
X51.0Y-54.0
X51.0Y-57.0
X51.0Y-63.0
X51.0Y-66.0
X51.0Y-78.0
X51.0Y-81.0
X54.0Y-3.0
X54.0Y-6.0
X54.0Y-18.0
X54.0Y-21.0
X54.0Y-30.0
X54.0Y-33.0
X54.0Y-36.0
X54.0Y-39.0
X54.0Y-48.0
X54.0Y-51.0
X54.0Y-54.0
X54.0Y-63.0
X54.0Y-66.0
X54.0Y-78.0
X54.0Y-81.0
X57.0Y-3.0
X57.0Y-6.0
X57.0Y-78.0
X57.0Y-81.0
X60.0Y-3.0
X60.0Y-6.0
X60.0Y-15.0
X60.0Y-18.0
X60.0Y-21.0
X60.0Y-36.0
X60.0Y-51.0
X60.0Y-54.0
X60.0Y-57.0
X60.0Y-60.0
X60.0Y-63.0
X60.0Y-66.0
X60.0Y-69.0
X60.0Y-78.0
X60.0Y-81.0
X63.0Y-3.0
X63.0Y-6.0
X63.0Y-15.0
X63.0Y-18.0
X63.0Y-21.0
X63.0Y-27.0
X63.0Y-30.0
X63.0Y-51.0
X63.0Y-54.0
X63.0Y-57.0
X63.0Y-60.0
X63.0Y-63.0
X63.0Y-66.0
X63.0Y-69.0
X63.0Y-78.0
X63.0Y-81.0
X66.0Y-3.0
X66.0Y-6.0
X66.0Y-15.0
X66.0Y-18.0
X66.0Y-21.0
X66.0Y-27.0
X66.0Y-51.0
X66.0Y-54.0
X66.0Y-57.0
X66.0Y-60.0
X66.0Y-63.0
X66.0Y-66.0
X66.0Y-69.0
X66.0Y-78.0
X66.0Y-81.0
X69.0Y-3.0
X69.0Y-6.0
X69.0Y-15.0
X69.0Y-18.0
X69.0Y-21.0
X69.0Y-27.0
X69.0Y-51.0
X69.0Y-54.0
X69.0Y-57.0
X69.0Y-60.0
X69.0Y-63.0
X69.0Y-66.0
X69.0Y-69.0
X69.0Y-78.0
X69.0Y-81.0
X72.0Y-3.0
X72.0Y-6.0
X72.0Y-21.0
X72.0Y-27.0
X72.0Y-51.0
X72.0Y-54.0
X72.0Y-57.0
X72.0Y-60.0
X72.0Y-63.0
X72.0Y-78.0
X72.0Y-81.0
X75.0Y-3.0
X75.0Y-6.0
X75.0Y-21.0
X75.0Y-27.0
X75.0Y-51.0
X75.0Y-54.0
X75.0Y-57.0
X75.0Y-60.0
X75.0Y-63.0
X75.0Y-78.0
X75.0Y-81.0
X78.0Y-3.0
X78.0Y-6.0
X78.0Y-15.0
X78.0Y-21.0
X78.0Y-51.0
X78.0Y-54.0
X78.0Y-57.0
X78.0Y-60.0
X78.0Y-63.0
X78.0Y-69.0
X78.0Y-78.0
X78.0Y-81.0
X81.0Y-3.0
X81.0Y-6.0
X81.0Y-21.0
X81.0Y-51.0
X81.0Y-54.0
X81.0Y-57.0
X81.0Y-60.0
X81.0Y-63.0
X81.0Y-78.0
X81.0Y-81.0
X84.0Y-3.0
X84.0Y-6.0
X84.0Y-51.0
X84.0Y-54.0
X84.0Y-57.0
X84.0Y-60.0
X84.0Y-63.0
X84.0Y-78.0
X84.0Y-81.0
X87.0Y-3.0
X87.0Y-6.0
X87.0Y-51.0
X87.0Y-54.0
X87.0Y-57.0
X87.0Y-60.0
X87.0Y-63.0
X87.0Y-78.0
X87.0Y-81.0
X90.0Y-3.0
X90.0Y-6.0
X90.0Y-21.0
X90.0Y-54.0
X90.0Y-57.0
X90.0Y-60.0
X90.0Y-63.0
X90.0Y-78.0
X90.0Y-81.0
X93.0Y-27.0
X93.0Y-54.0
X93.0Y-57.0
X93.0Y-60.0
X96.0Y-39.0
X96.0Y-42.0
X96.0Y-45.0
X96.26Y-7.245
X96.26Y-12.755
X96.26Y-15.245
X96.26Y-20.755
X96.26Y-63.245
X96.26Y-68.755
X96.26Y-71.245
X96.26Y-76.755
X97.53Y-7.245
X97.53Y-12.755
X97.53Y-15.245
X97.53Y-20.755
X97.53Y-63.245
X97.53Y-68.755
X97.53Y-71.245
X97.53Y-76.755
X98.8Y-7.245
X98.8Y-12.755
X98.8Y-15.245
X98.8Y-20.755
X98.8Y-63.245
X98.8Y-68.755
X98.8Y-71.245
X98.8Y-76.755
T4
X89.73Y-34.38
X89.73Y-36.92
X89.73Y-39.46
X89.73Y-42.0
X89.73Y-44.54
X89.73Y-47.08
X89.73Y-49.62
X92.27Y-34.38
X92.27Y-36.92
X92.27Y-39.46
X92.27Y-42.0
X92.27Y-44.54
X92.27Y-47.08
X92.27Y-49.62
T5
X5.0Y-5.0
X5.0Y-79.0
X36.5Y-22.0
X36.5Y-62.0
X95.0Y-5.0
X95.0Y-79.0
M30
