%TF.GenerationSoftware,KiCad,Pcbnew,10.0.5*%
%TF.CreationDate,2026-08-09T20:40:27+01:00*%
%TF.ProjectId,radar_5g8_pa,72616461-725f-4356-9738-5f70612e6b69,rev?*%
%TF.SameCoordinates,Original*%
%TF.FileFunction,Paste,Top*%
%TF.FilePolarity,Positive*%
%FSLAX46Y46*%
G04 Gerber Fmt 4.6, Leading zero omitted, Abs format (unit mm)*
G04 Created by KiCad (PCBNEW 10.0.5) date 2026-08-09 20:40:27*
%MOMM*%
%LPD*%
G01*
G04 APERTURE LIST*
%ADD10R,2.700000X1.300000*%
%ADD11R,1.700000X1.700000*%
%ADD12R,0.620000X0.620000*%
%ADD13R,1.325000X0.600000*%
%ADD14C,1.000000*%
%ADD15R,1.600000X3.350000*%
%ADD16R,1.500000X2.000000*%
%ADD17R,3.800000X2.000000*%
%ADD18R,0.600000X1.475000*%
%ADD19R,2.000000X1.250000*%
%ADD20R,1.300000X2.700000*%
%ADD21R,0.900000X1.300000*%
%ADD22R,0.900000X1.475000*%
%ADD23R,1.733000X3.125000*%
G04 APERTURE END LIST*
D10*
%TO.C,CA83*%
X54800000Y-23204152D03*
X54800000Y-25504152D03*
%TD*%
%TO.C,C21*%
X87200000Y-29000000D03*
X87200000Y-26700000D03*
%TD*%
D11*
%TO.C,J1*%
X94000000Y-24460000D03*
X94000000Y-29540000D03*
%TD*%
D12*
%TO.C,RBP2*%
X9915000Y-74000000D03*
X11085000Y-74000000D03*
%TD*%
%TO.C,CB1*%
X15814999Y-74000000D03*
X16985000Y-74000000D03*
%TD*%
%TO.C,CA1*%
X15814999Y-10000000D03*
X16985000Y-10000000D03*
%TD*%
D13*
%TO.C,UB4*%
X45137500Y-46250000D03*
X45137500Y-47200000D03*
X45137500Y-48150000D03*
X42862500Y-48150000D03*
X42862500Y-47200000D03*
X42862500Y-46250000D03*
%TD*%
D12*
%TO.C,RAP1*%
X8600000Y-10000000D03*
X8600000Y-11170000D03*
%TD*%
%TO.C,CB91*%
X26700000Y-60795847D03*
X26700000Y-59625847D03*
%TD*%
%TO.C,CB82*%
X50200000Y-60795847D03*
X50200000Y-59625847D03*
%TD*%
%TO.C,DB1*%
X85611001Y-69226138D03*
X86781001Y-69226138D03*
%TD*%
%TO.C,CA2*%
X33415000Y-10000000D03*
X34585000Y-10000000D03*
%TD*%
%TO.C,RTA*%
X52000000Y-14000000D03*
X52000000Y-15170000D03*
%TD*%
%TO.C,CA7*%
X22500000Y-26700000D03*
X22500000Y-27870000D03*
%TD*%
%TO.C,CB92*%
X25000000Y-60795847D03*
X25000000Y-59625847D03*
%TD*%
D10*
%TO.C,CA6*%
X25000000Y-26700000D03*
X25000000Y-29000000D03*
%TD*%
D14*
%TO.C,FID4_42*%
X4000000Y-42000000D03*
%TD*%
D15*
%TO.C,RBV*%
X37000000Y-51000000D03*
X40000000Y-51000000D03*
%TD*%
D12*
%TO.C,CAD0*%
X87981001Y-14773861D03*
X87981001Y-15943861D03*
%TD*%
D10*
%TO.C,CB6*%
X25000000Y-57300000D03*
X25000000Y-55000000D03*
%TD*%
D14*
%TO.C,FID50_81*%
X50000000Y-3000000D03*
%TD*%
D12*
%TO.C,RAO*%
X92596001Y-14773861D03*
X93766001Y-14773861D03*
%TD*%
D10*
%TO.C,CA93*%
X17000000Y-23204152D03*
X17000000Y-25504152D03*
%TD*%
D12*
%TO.C,RBI*%
X39990000Y-71430000D03*
X39990000Y-70260000D03*
%TD*%
%TO.C,CB3*%
X50415000Y-74000000D03*
X51585000Y-74000000D03*
%TD*%
%TO.C,CAD2*%
X91381001Y-14773861D03*
X91381001Y-15943861D03*
%TD*%
D16*
%TO.C,UA3*%
X27700000Y-33000000D03*
D17*
X30000000Y-26700000D03*
D16*
X30000000Y-33000000D03*
X32299999Y-33000000D03*
%TD*%
D18*
%TO.C,Q4*%
X66050000Y-33877500D03*
X67950000Y-33877500D03*
X67000000Y-32002499D03*
%TD*%
D15*
%TO.C,RBS*%
X42500000Y-51000000D03*
X45500000Y-51000000D03*
%TD*%
D12*
%TO.C,DA1*%
X85611001Y-14773861D03*
X86781001Y-14773861D03*
%TD*%
%TO.C,RBP3*%
X12400000Y-74000000D03*
X12400000Y-72830000D03*
%TD*%
%TO.C,RAP2*%
X9915000Y-10000000D03*
X11085000Y-10000000D03*
%TD*%
%TO.C,C1*%
X73500000Y-34085000D03*
X73500000Y-32915000D03*
%TD*%
%TO.C,RAT*%
X82196001Y-14773861D03*
X82196001Y-15943861D03*
%TD*%
%TO.C,RBD1*%
X89681001Y-69226138D03*
X89681001Y-68056138D03*
%TD*%
D19*
%TO.C,CB5*%
X34220000Y-51000000D03*
X34220000Y-52950000D03*
%TD*%
D12*
%TO.C,RBP1*%
X8600000Y-74000000D03*
X8600000Y-72830000D03*
%TD*%
%TO.C,CA82*%
X50200000Y-23204152D03*
X50200000Y-24374152D03*
%TD*%
D15*
%TO.C,RAS*%
X42500000Y-33000000D03*
X45500000Y-33000000D03*
%TD*%
D12*
%TO.C,RAD1*%
X89681001Y-14773861D03*
X89681001Y-15943861D03*
%TD*%
D19*
%TO.C,CA5*%
X34220000Y-33000000D03*
X34220000Y-31049999D03*
%TD*%
D12*
%TO.C,RAP3*%
X12400000Y-10000000D03*
X12400000Y-11170000D03*
%TD*%
%TO.C,C22*%
X89800000Y-29000000D03*
X89800000Y-27830000D03*
%TD*%
%TO.C,RAF*%
X93000000Y-19599999D03*
X93000000Y-20769999D03*
%TD*%
%TO.C,RTB*%
X52000000Y-70000000D03*
X52000000Y-68830000D03*
%TD*%
D18*
%TO.C,Q3*%
X78550000Y-26337500D03*
X80450000Y-26337500D03*
X79500000Y-24462500D03*
%TD*%
D12*
%TO.C,CB90*%
X28400000Y-63575847D03*
X27229999Y-63575847D03*
%TD*%
%TO.C,CB80*%
X46800000Y-63575847D03*
X47970000Y-63575847D03*
%TD*%
%TO.C,CBD0*%
X87981001Y-69226138D03*
X87981001Y-68056138D03*
%TD*%
%TO.C,CA91*%
X26700000Y-23204152D03*
X26700000Y-24374152D03*
%TD*%
%TO.C,R3*%
X63500000Y-33880000D03*
X63500000Y-35050000D03*
%TD*%
%TO.C,R2*%
X60415000Y-33880000D03*
X61585000Y-33880000D03*
%TD*%
%TO.C,CA81*%
X48500000Y-23204152D03*
X48500000Y-24374152D03*
%TD*%
%TO.C,CB7*%
X22500000Y-57300000D03*
X22500000Y-56130000D03*
%TD*%
%TO.C,CB2*%
X33415000Y-74000000D03*
X34585000Y-74000000D03*
%TD*%
D20*
%TO.C,F1*%
X88350000Y-24460000D03*
X90650000Y-24460000D03*
%TD*%
D12*
%TO.C,R1*%
X76000000Y-34085000D03*
X76000000Y-32915000D03*
%TD*%
%TO.C,CA90*%
X28400000Y-20424152D03*
X27229999Y-20424152D03*
%TD*%
%TO.C,CBD2*%
X91381001Y-69226138D03*
X91381001Y-68056138D03*
%TD*%
D13*
%TO.C,UA4*%
X45137500Y-37750000D03*
X45137500Y-36800000D03*
X45137500Y-35850000D03*
X42862500Y-35850000D03*
X42862500Y-36800000D03*
X42862500Y-37750000D03*
%TD*%
D12*
%TO.C,RBF*%
X93000000Y-64400000D03*
X93000000Y-63230000D03*
%TD*%
%TO.C,CA3*%
X50415000Y-10000000D03*
X51585000Y-10000000D03*
%TD*%
%TO.C,CB81*%
X48500000Y-60795847D03*
X48500000Y-59625847D03*
%TD*%
D16*
%TO.C,UB3*%
X27700000Y-51000000D03*
X30000000Y-51000000D03*
D17*
X30000000Y-57300000D03*
D16*
X32299999Y-51000000D03*
%TD*%
D10*
%TO.C,D5*%
X85500000Y-24460000D03*
X85500000Y-22160000D03*
%TD*%
D12*
%TO.C,RBT*%
X82196001Y-69226138D03*
X82196001Y-68056138D03*
%TD*%
D10*
%TO.C,CB83*%
X54800000Y-60795847D03*
X54800000Y-58495847D03*
%TD*%
D12*
%TO.C,CA80*%
X46800000Y-20424152D03*
X47970000Y-20424152D03*
%TD*%
%TO.C,D6*%
X71000000Y-34085000D03*
X71000000Y-32915000D03*
%TD*%
D14*
%TO.C,FID96_42*%
X96000000Y-42000000D03*
%TD*%
D10*
%TO.C,C20*%
X84000000Y-29000000D03*
X84000000Y-26700000D03*
%TD*%
D15*
%TO.C,RAV*%
X37000000Y-33000000D03*
X40000000Y-33000000D03*
%TD*%
D10*
%TO.C,CB93*%
X17000000Y-60795847D03*
X17000000Y-58495847D03*
%TD*%
D21*
%TO.C,UB1*%
X21000000Y-74000000D03*
D22*
X22500000Y-74087500D03*
D21*
X24000000Y-74000000D03*
D23*
X22500000Y-76387500D03*
%TD*%
D12*
%TO.C,CA92*%
X25000000Y-23204152D03*
X25000000Y-24374152D03*
%TD*%
%TO.C,RBO*%
X92596001Y-69226138D03*
X93766001Y-69226138D03*
%TD*%
D21*
%TO.C,UA1*%
X21000000Y-10000000D03*
D22*
X22500000Y-9912499D03*
D21*
X24000000Y-10000000D03*
D23*
X22500000Y-7612499D03*
%TD*%
D12*
%TO.C,RAI*%
X39990000Y-7430000D03*
X39990000Y-6260000D03*
%TD*%
M02*
