0
SECTION
2
ENTITIES
0
LINE
8
OUTLINE
10
3.0000
20
0.0000
30
0.0
11
68.3420
21
0.0000
31
0.0
0
LINE
8
OUTLINE
10
71.3420
20
3.0000
30
0.0
11
71.3420
21
44.2370
31
0.0
0
LINE
8
OUTLINE
10
68.3420
20
47.2370
30
0.0
11
3.0000
21
47.2370
31
0.0
0
LINE
8
OUTLINE
10
0.0000
20
44.2370
30
0.0
11
0.0000
21
3.0000
31
0.0
0
ARC
8
OUTLINE
10
68.3420
20
3.0000
30
0.0
40
3.0000
50
270.000
51
360.000
0
ARC
8
OUTLINE
10
68.3420
20
44.2370
30
0.0
40
3.0000
50
0.000
51
90.000
0
ARC
8
OUTLINE
10
3.0000
20
44.2370
30
0.0
40
3.0000
50
90.000
51
180.000
0
ARC
8
OUTLINE
10
3.0000
20
3.0000
30
0.0
40
3.0000
50
180.000
51
270.000
0
CIRCLE
8
HOLES
10
4.0000
20
43.0000
30
0.0
40
1.6000
0
CIRCLE
8
HOLE_KEEPOUT
10
4.0000
20
43.0000
30
0.0
40
3.0000
0
CIRCLE
8
HOLES
10
67.0000
20
40.0000
30
0.0
40
1.6000
0
CIRCLE
8
HOLE_KEEPOUT
10
67.0000
20
40.0000
30
0.0
40
3.0000
0
CIRCLE
8
HOLES
10
34.0000
20
4.0000
30
0.0
40
1.6000
0
CIRCLE
8
HOLE_KEEPOUT
10
34.0000
20
4.0000
30
0.0
40
3.0000
0
CIRCLE
8
HOLES
10
43.0000
20
17.0000
30
0.0
40
1.6000
0
CIRCLE
8
HOLE_KEEPOUT
10
43.0000
20
17.0000
30
0.0
40
3.0000
0
CIRCLE
8
HOLES
10
29.0000
20
17.0000
30
0.0
40
1.6000
0
CIRCLE
8
HOLE_KEEPOUT
10
29.0000
20
17.0000
30
0.0
40
3.0000
0
LINE
8
PATCH
10
15.9572
20
27.1532
30
0.0
11
30.0407
21
27.1532
31
0.0
0
LINE
8
PATCH
10
30.0407
20
27.1532
30
0.0
11
30.0407
21
41.2368
31
0.0
0
LINE
8
PATCH
10
30.0407
20
41.2368
30
0.0
11
15.9572
21
41.2368
31
0.0
0
LINE
8
PATCH
10
15.9572
20
41.2368
30
0.0
11
15.9572
21
27.1532
31
0.0
0
CIRCLE
8
PHASE_CENTRE
10
22.9990
20
34.1950
30
0.0
40
0.5000
0
LINE
8
PATCH
10
41.8014
20
27.1532
30
0.0
11
55.8849
21
27.1532
31
0.0
0
LINE
8
PATCH
10
55.8849
20
27.1532
30
0.0
11
55.8849
21
41.2368
31
0.0
0
LINE
8
PATCH
10
55.8849
20
41.2368
30
0.0
11
41.8014
21
41.2368
31
0.0
0
LINE
8
PATCH
10
41.8014
20
41.2368
30
0.0
11
41.8014
21
27.1532
31
0.0
0
CIRCLE
8
PHASE_CENTRE
10
48.8432
20
34.1950
30
0.0
40
0.5000
0
LINE
8
CONNECTOR
10
1.6500
20
-9.0000
30
0.0
11
11.1500
21
-9.0000
31
0.0
0
LINE
8
CONNECTOR
10
11.1500
20
-9.0000
30
0.0
11
11.1500
21
0.0000
31
0.0
0
LINE
8
CONNECTOR
10
11.1500
20
0.0000
30
0.0
11
1.6500
21
0.0000
31
0.0
0
LINE
8
CONNECTOR
10
1.6500
20
0.0000
30
0.0
11
1.6500
21
-9.0000
31
0.0
0
LINE
8
CONNECTOR
10
51.6939
20
-9.0000
30
0.0
11
61.1939
21
-9.0000
31
0.0
0
LINE
8
CONNECTOR
10
61.1939
20
-9.0000
30
0.0
11
61.1939
21
0.0000
31
0.0
0
LINE
8
CONNECTOR
10
61.1939
20
0.0000
30
0.0
11
51.6939
21
0.0000
31
0.0
0
LINE
8
CONNECTOR
10
51.6939
20
0.0000
30
0.0
11
51.6939
21
-9.0000
31
0.0
0
ENDSEC
0
EOF
