0
SECTION
2
ENTITIES
0
LINE
8
OUTLINE
10
3.0000
20
0.0000
30
0.0
11
44.2370
21
0.0000
31
0.0
0
LINE
8
OUTLINE
10
47.2370
20
3.0000
30
0.0
11
47.2370
21
68.3687
31
0.0
0
LINE
8
OUTLINE
10
44.2370
20
71.3687
30
0.0
11
3.0000
21
71.3687
31
0.0
0
LINE
8
OUTLINE
10
0.0000
20
68.3687
30
0.0
11
0.0000
21
3.0000
31
0.0
0
ARC
8
OUTLINE
10
44.2370
20
3.0000
30
0.0
40
3.0000
50
270.000
51
360.000
0
ARC
8
OUTLINE
10
44.2370
20
68.3687
30
0.0
40
3.0000
50
0.000
51
90.000
0
ARC
8
OUTLINE
10
3.0000
20
68.3687
30
0.0
40
3.0000
50
90.000
51
180.000
0
ARC
8
OUTLINE
10
3.0000
20
3.0000
30
0.0
40
3.0000
50
180.000
51
270.000
0
CIRCLE
8
HOLES
10
4.0000
20
44.0000
30
0.0
40
1.6000
0
CIRCLE
8
HOLE_KEEPOUT
10
4.0000
20
44.0000
30
0.0
40
3.0000
0
CIRCLE
8
HOLES
10
43.0000
20
4.0000
30
0.0
40
1.6000
0
CIRCLE
8
HOLE_KEEPOUT
10
43.0000
20
4.0000
30
0.0
40
3.0000
0
CIRCLE
8
HOLES
10
43.0000
20
67.0000
30
0.0
40
1.6000
0
CIRCLE
8
HOLE_KEEPOUT
10
43.0000
20
67.0000
30
0.0
40
3.0000
0
CIRCLE
8
HOLES
10
8.0000
20
24.0000
30
0.0
40
1.6000
0
CIRCLE
8
HOLE_KEEPOUT
10
8.0000
20
24.0000
30
0.0
40
3.0000
0
CIRCLE
8
HOLES
10
13.0000
20
35.0000
30
0.0
40
1.6000
0
CIRCLE
8
HOLE_KEEPOUT
10
13.0000
20
35.0000
30
0.0
40
3.0000
0
LINE
8
PATCH
10
27.1532
20
15.9840
30
0.0
11
41.2368
21
15.9840
31
0.0
0
LINE
8
PATCH
10
41.2368
20
15.9840
30
0.0
11
41.2368
21
30.0675
31
0.0
0
LINE
8
PATCH
10
41.2368
20
30.0675
30
0.0
11
27.1532
21
30.0675
31
0.0
0
LINE
8
PATCH
10
27.1532
20
30.0675
30
0.0
11
27.1532
21
15.9840
31
0.0
0
CIRCLE
8
PHASE_CENTRE
10
34.1950
20
23.0257
30
0.0
40
0.5000
0
LINE
8
PATCH
10
27.1532
20
41.8282
30
0.0
11
41.2368
21
41.8282
31
0.0
0
LINE
8
PATCH
10
41.2368
20
41.8282
30
0.0
11
41.2368
21
55.9117
31
0.0
0
LINE
8
PATCH
10
41.2368
20
55.9117
30
0.0
11
27.1532
21
55.9117
31
0.0
0
LINE
8
PATCH
10
27.1532
20
55.9117
30
0.0
11
27.1532
21
41.8282
31
0.0
0
CIRCLE
8
PHASE_CENTRE
10
34.1950
20
48.8699
30
0.0
40
0.5000
0
LINE
8
CONNECTOR
10
-9.0000
20
1.6768
30
0.0
11
0.0000
21
1.6768
31
0.0
0
LINE
8
CONNECTOR
10
0.0000
20
1.6768
30
0.0
11
0.0000
21
11.1768
31
0.0
0
LINE
8
CONNECTOR
10
0.0000
20
11.1768
30
0.0
11
-9.0000
21
11.1768
31
0.0
0
LINE
8
CONNECTOR
10
-9.0000
20
11.1768
30
0.0
11
-9.0000
21
1.6768
31
0.0
0
LINE
8
CONNECTOR
10
-9.0000
20
51.7207
30
0.0
11
0.0000
21
51.7207
31
0.0
0
LINE
8
CONNECTOR
10
0.0000
20
51.7207
30
0.0
11
0.0000
21
61.2207
31
0.0
0
LINE
8
CONNECTOR
10
0.0000
20
61.2207
30
0.0
11
-9.0000
21
61.2207
31
0.0
0
LINE
8
CONNECTOR
10
-9.0000
20
61.2207
30
0.0
11
-9.0000
21
51.7207
31
0.0
0
ENDSEC
0
EOF
