%TF.GenerationSoftware,KiCad,Pcbnew,10.0.5*%
%TF.CreationDate,2026-08-09T20:40:40+01:00*%
%TF.ProjectId,radar_5g8_lna,72616461-725f-4356-9738-5f6c6e612e6b,rev?*%
%TF.SameCoordinates,Original*%
%TF.FileFunction,Copper,L4,Bot*%
%TF.FilePolarity,Positive*%
%FSLAX46Y46*%
G04 Gerber Fmt 4.6, Leading zero omitted, Abs format (unit mm)*
G04 Created by KiCad (PCBNEW 10.0.5) date 2026-08-09 20:40:40*
%MOMM*%
%LPD*%
G01*
G04 APERTURE LIST*
%TA.AperFunction,ComponentPad*%
%ADD10C,6.000000*%
%TD*%
%TA.AperFunction,ComponentPad*%
%ADD11C,1.700000*%
%TD*%
%TA.AperFunction,SMDPad,CuDef*%
%ADD12R,7.200000X7.199999*%
%TD*%
%TA.AperFunction,SMDPad,CuDef*%
%ADD13R,7.200000X7.200000*%
%TD*%
%TA.AperFunction,ViaPad*%
%ADD14C,0.600000*%
%TD*%
%TA.AperFunction,ViaPad*%
%ADD15C,0.750000*%
%TD*%
%TA.AperFunction,ViaPad*%
%ADD16C,0.500000*%
%TD*%
%TA.AperFunction,ViaPad*%
%ADD17C,0.520000*%
%TD*%
%TA.AperFunction,ViaPad*%
%ADD18C,0.550000*%
%TD*%
G04 APERTURE END LIST*
D10*
%TO.P,H87_5,1*%
%TO.N,GND*%
X87000000Y-63000000D03*
%TD*%
%TO.P,H5_63,1*%
%TO.N,GND*%
X5000000Y-5000000D03*
%TD*%
%TO.P,H20_52,1*%
%TO.N,GND*%
X20000000Y-16000000D03*
%TD*%
D11*
%TO.P,J5,1*%
%TO.N,EN*%
X81730000Y-26380000D03*
%TO.P,J5,2*%
%TO.N,GND*%
X84270000Y-26380000D03*
%TO.P,J5,3*%
%TO.N,TEMPA*%
X81730000Y-28920000D03*
%TO.P,J5,4*%
%TO.N,GND*%
X84270000Y-28920000D03*
%TO.P,J5,5*%
%TO.N,IMONA*%
X81730000Y-31460000D03*
%TO.P,J5,6*%
%TO.N,GND*%
X84270000Y-31460000D03*
%TO.P,J5,7*%
%TO.N,DETA*%
X81730000Y-34000000D03*
%TO.P,J5,8*%
%TO.N,GND*%
X84270000Y-34000000D03*
%TO.P,J5,9*%
%TO.N,IMONB*%
X81730000Y-36540000D03*
%TO.P,J5,10*%
%TO.N,GND*%
X84270000Y-36540000D03*
%TO.P,J5,11*%
%TO.N,DETB*%
X81730000Y-39080000D03*
%TO.P,J5,12*%
%TO.N,GND*%
X84270000Y-39080000D03*
%TO.P,J5,13*%
%TO.N,TEMPB*%
X81730000Y-41620000D03*
%TO.P,J5,14*%
%TO.N,GND*%
X84270000Y-41620000D03*
%TD*%
D10*
%TO.P,H20_16,1*%
%TO.N,GND*%
X20000000Y-52000000D03*
%TD*%
%TO.P,H5_5,1*%
%TO.N,GND*%
X5000000Y-63000000D03*
%TD*%
%TO.P,H87_63,1*%
%TO.N,GND*%
X87000000Y-5000000D03*
%TD*%
D12*
%TO.P,TP2,1*%
%TO.N,GND*%
X38000000Y-58000000D03*
%TD*%
D13*
%TO.P,TP1,1*%
%TO.N,GND*%
X38000000Y-10000000D03*
%TD*%
D14*
%TO.N,DETA*%
X42430000Y-2315415D03*
%TO.N,DETB*%
X42430000Y-65684584D03*
%TO.N,EN*%
X58050000Y-28000000D03*
D15*
%TO.N,GND*%
X48000000Y-53000000D03*
X12000000Y-41000000D03*
X81000000Y-14000000D03*
X84000000Y-44000000D03*
X63227093Y-1200000D03*
D16*
X38600000Y-58600000D03*
D15*
X48000000Y-14000000D03*
D17*
X40480000Y-56760000D03*
X36760000Y-58620000D03*
D15*
X60000000Y-53000000D03*
X63227093Y-66800000D03*
X33000000Y-5000000D03*
X24000000Y-5000000D03*
D17*
X39240000Y-11240000D03*
D15*
X6000000Y-20000000D03*
X12000000Y-62000000D03*
X18000000Y-38000000D03*
X88259999Y-60754864D03*
X78000000Y-44000000D03*
X69000000Y-50000000D03*
X27000000Y-5000000D03*
X63000000Y-44000000D03*
X33000000Y-62000000D03*
X68736822Y-65530000D03*
D17*
X39240000Y-59860000D03*
D15*
X6000000Y-35000000D03*
X3000000Y-32000000D03*
D17*
X35520000Y-11240000D03*
D18*
X23650000Y-23000000D03*
X45170000Y-20424152D03*
X52850000Y-25504152D03*
D15*
X78000000Y-53000000D03*
D18*
X64099999Y-56830000D03*
D15*
X9000000Y-32000000D03*
D17*
X40480000Y-55519999D03*
X37380000Y-11240000D03*
D15*
X66000000Y-53000000D03*
X6000000Y-50000000D03*
X48000000Y-17000000D03*
X63000000Y-50000000D03*
X24000000Y-65000000D03*
X36000000Y-5000000D03*
X48000000Y-47000000D03*
X6000000Y-47000000D03*
D18*
X47400000Y-24374152D03*
X22000000Y-46130000D03*
D15*
X36000000Y-17000000D03*
D18*
X23595736Y-6637064D03*
D15*
X75000000Y-53000000D03*
D17*
X39240000Y-55519999D03*
D15*
X30000000Y-53000000D03*
X27000000Y-14000000D03*
X66000000Y-56000000D03*
X90800000Y-12754864D03*
X36000000Y-14000000D03*
X6000000Y-23000000D03*
D18*
X23595736Y-61362935D03*
D15*
X3000000Y-44000000D03*
X1200000Y-7245135D03*
X78000000Y-14000000D03*
D17*
X35520000Y-12479999D03*
D15*
X87000000Y-29000000D03*
X3740000Y-60754864D03*
X6000000Y-14000000D03*
X18000000Y-23000000D03*
X81000000Y-62000000D03*
X18000000Y-5000000D03*
X68736822Y-3740000D03*
D18*
X73300000Y-13200000D03*
D15*
X3000000Y-23000000D03*
X27000000Y-38000000D03*
D18*
X45170000Y-47575847D03*
D15*
X30000000Y-14000000D03*
D18*
X51150000Y-42495847D03*
D16*
X37400000Y-9399999D03*
D15*
X27000000Y-17000000D03*
X81000000Y-65000000D03*
D18*
X48215000Y-1145415D03*
D15*
X30000000Y-50000000D03*
X1200000Y-60754864D03*
X15000000Y-17000000D03*
X66000000Y-47000000D03*
X6000000Y-38000000D03*
X81000000Y-53000000D03*
X63000000Y-23000000D03*
X12000000Y-38000000D03*
X33000000Y-50000000D03*
X9000000Y-20000000D03*
X15000000Y-50000000D03*
X63000000Y-53000000D03*
X66000000Y-44000000D03*
X12000000Y-35000000D03*
X90800000Y-60754864D03*
X57000000Y-5000000D03*
X68736822Y-64260000D03*
X33000000Y-65000000D03*
D17*
X37380000Y-12479999D03*
X38620000Y-12479999D03*
D15*
X87000000Y-50000000D03*
X39000000Y-14000000D03*
X54000000Y-17000000D03*
X39000000Y-44000000D03*
D17*
X38000000Y-11860000D03*
D15*
X3000000Y-26000000D03*
X39000000Y-38000000D03*
X69000000Y-47000000D03*
X15000000Y-35000000D03*
X87000000Y-35000000D03*
D17*
X38620000Y-56760000D03*
X36760000Y-12479999D03*
D15*
X33000000Y-17000000D03*
X27000000Y-50000000D03*
D18*
X35070000Y-25049999D03*
D15*
X30000000Y-17000000D03*
X24000000Y-41000000D03*
D17*
X36760000Y-9380000D03*
D15*
X21000000Y-5000000D03*
X78000000Y-5000000D03*
X6000000Y-26000000D03*
X39000000Y-62000000D03*
X78000000Y-47000000D03*
X39000000Y-5000000D03*
D18*
X54000000Y-1145415D03*
D15*
X15000000Y-26000000D03*
X89530000Y-12754864D03*
X9000000Y-23000000D03*
X3000000Y-50000000D03*
D18*
X80150000Y-21200000D03*
D17*
X37380000Y-55519999D03*
D15*
X72000000Y-5000000D03*
D18*
X73300000Y-54800000D03*
D17*
X36760000Y-60480000D03*
X40480000Y-60480000D03*
D18*
X33369999Y-42950000D03*
D15*
X48000000Y-5000000D03*
X30000000Y-65000000D03*
X33000000Y-14000000D03*
X6000000Y-17000000D03*
X72000000Y-47000000D03*
X69000000Y-44000000D03*
D17*
X35520000Y-8759999D03*
D15*
X66000000Y-14000000D03*
X87000000Y-41000000D03*
X9000000Y-38000000D03*
X9000000Y-14000000D03*
X75000000Y-14000000D03*
X87000000Y-53000000D03*
X15000000Y-38000000D03*
D17*
X36760000Y-56760000D03*
D15*
X90800000Y-7245135D03*
X2469999Y-12754864D03*
D17*
X37380000Y-8759999D03*
X36140000Y-59240000D03*
D18*
X52000000Y-52830000D03*
D15*
X9000000Y-26000000D03*
X12000000Y-50000000D03*
D17*
X39860000Y-56140000D03*
D15*
X9000000Y-29000000D03*
X88259999Y-12754864D03*
X12000000Y-17000000D03*
D18*
X44815000Y-1145415D03*
D17*
X36140000Y-56140000D03*
D15*
X60000000Y-50000000D03*
D18*
X81850000Y-21200000D03*
D15*
X36000000Y-23000000D03*
X36000000Y-65000000D03*
X90800000Y-55245135D03*
X84000000Y-50000000D03*
X12000000Y-32000000D03*
D17*
X36760000Y-55519999D03*
D15*
X63000000Y-47000000D03*
X6000000Y-44000000D03*
D18*
X33369999Y-25049999D03*
D17*
X36760000Y-11240000D03*
D15*
X81000000Y-47000000D03*
X18000000Y-35000000D03*
X3740000Y-7245135D03*
X27000000Y-53000000D03*
X54000000Y-20000000D03*
D18*
X22000000Y-21870000D03*
D15*
X30000000Y-44000000D03*
X39000000Y-50000000D03*
D17*
X40480000Y-12479999D03*
D15*
X78000000Y-50000000D03*
X12000000Y-14000000D03*
X87000000Y-44000000D03*
X75000000Y-62000000D03*
D17*
X39860000Y-59240000D03*
D15*
X39000000Y-17000000D03*
D16*
X38600000Y-10600000D03*
D15*
X15000000Y-65000000D03*
X51000000Y-17000000D03*
X84000000Y-53000000D03*
X15000000Y-41000000D03*
X60000000Y-47000000D03*
X57000000Y-65000000D03*
X33000000Y-23000000D03*
D17*
X35520000Y-60480000D03*
D15*
X2469999Y-7245135D03*
D17*
X38620000Y-11240000D03*
D15*
X6000000Y-41000000D03*
X30000000Y-23000000D03*
X18000000Y-26000000D03*
X15000000Y-32000000D03*
X89530000Y-60754864D03*
X87000000Y-26000000D03*
D18*
X68751957Y-6000000D03*
D15*
X87000000Y-47000000D03*
D17*
X39240000Y-58620000D03*
D18*
X70700000Y-13200000D03*
D15*
X15000000Y-29000000D03*
X9000000Y-50000000D03*
X18000000Y-62000000D03*
D17*
X36760000Y-57380000D03*
X36760000Y-10619999D03*
D15*
X72000000Y-50000000D03*
X33000000Y-38000000D03*
X15000000Y-47000000D03*
X30000000Y-38000000D03*
D18*
X54000000Y-66854584D03*
D16*
X38600000Y-10000000D03*
D15*
X69000000Y-53000000D03*
D17*
X38620000Y-59860000D03*
D18*
X35070000Y-42950000D03*
X52850000Y-42495847D03*
D17*
X38620000Y-7520000D03*
X36760000Y-7520000D03*
D15*
X45000000Y-5000000D03*
X12000000Y-5000000D03*
X89530000Y-55245135D03*
D18*
X52000000Y-15170000D03*
D15*
X15000000Y-5000000D03*
X63227093Y-3740000D03*
D17*
X36760000Y-59860000D03*
D15*
X63227093Y-65530000D03*
D17*
X39240000Y-9380000D03*
D18*
X84200000Y-22330000D03*
D15*
X60000000Y-44000000D03*
X51000000Y-20000000D03*
X48000000Y-20000000D03*
D16*
X19736106Y-9500000D03*
D15*
X18000000Y-44000000D03*
X36000000Y-50000000D03*
D18*
X68751957Y-62000000D03*
D17*
X38000000Y-8140000D03*
D18*
X67900000Y-11170000D03*
D17*
X38000000Y-56140000D03*
D15*
X81000000Y-44000000D03*
X60000000Y-14000000D03*
D18*
X51150000Y-25504152D03*
D15*
X66000000Y-50000000D03*
X12000000Y-47000000D03*
D17*
X39240000Y-8759999D03*
D15*
X18000000Y-29000000D03*
D17*
X35520000Y-7520000D03*
D16*
X38000000Y-57400000D03*
D18*
X76650000Y-20759999D03*
D16*
X19736106Y-57500000D03*
X38000000Y-58600000D03*
X37400000Y-58600000D03*
D15*
X63227093Y-2469999D03*
X15000000Y-53000000D03*
X68736822Y-2469999D03*
D16*
X19736106Y-10500000D03*
D15*
X15000000Y-23000000D03*
X15000000Y-14000000D03*
X27000000Y-65000000D03*
X9000000Y-41000000D03*
X54000000Y-47000000D03*
X9000000Y-47000000D03*
X72000000Y-53000000D03*
D18*
X70700000Y-54800000D03*
D15*
X72000000Y-23000000D03*
D17*
X38620000Y-55519999D03*
D15*
X33000000Y-53000000D03*
D18*
X23650000Y-45000000D03*
D17*
X35520000Y-59860000D03*
X37380000Y-7520000D03*
D18*
X48215000Y-66854584D03*
D17*
X38620000Y-60480000D03*
D15*
X1200000Y-12754864D03*
D17*
X39240000Y-56760000D03*
X39860000Y-8140000D03*
D15*
X88259999Y-55245135D03*
X68736822Y-1200000D03*
X51000000Y-47000000D03*
X51000000Y-62000000D03*
D17*
X35520000Y-55519999D03*
D15*
X9000000Y-44000000D03*
D16*
X37400000Y-10000000D03*
D15*
X9000000Y-35000000D03*
X24000000Y-29000000D03*
X54000000Y-29000000D03*
X84000000Y-47000000D03*
X3740000Y-12754864D03*
X12000000Y-23000000D03*
X36000000Y-62000000D03*
X88259999Y-7245135D03*
X72000000Y-62000000D03*
D16*
X38600000Y-9399999D03*
D15*
X3000000Y-41000000D03*
D16*
X38000000Y-9399999D03*
X19736106Y-58500000D03*
D15*
X12000000Y-20000000D03*
X87000000Y-38000000D03*
D17*
X36140000Y-8140000D03*
D15*
X2469999Y-60754864D03*
X78000000Y-65000000D03*
X69000000Y-14000000D03*
X30000000Y-5000000D03*
D17*
X35520000Y-56760000D03*
X37380000Y-60480000D03*
X40480000Y-11240000D03*
X39240000Y-57380000D03*
D15*
X3000000Y-38000000D03*
X63000000Y-14000000D03*
X66000000Y-23000000D03*
X69000000Y-23000000D03*
D18*
X45700000Y-43625847D03*
D15*
X63227093Y-64260000D03*
X15000000Y-62000000D03*
D17*
X40480000Y-59860000D03*
D16*
X38000000Y-10600000D03*
D17*
X40480000Y-7520000D03*
D16*
X38000000Y-10000000D03*
D18*
X46514999Y-1145415D03*
D15*
X75000000Y-5000000D03*
X24000000Y-26000000D03*
X9000000Y-17000000D03*
X6000000Y-32000000D03*
D18*
X46514999Y-66854584D03*
D15*
X15000000Y-44000000D03*
X18000000Y-41000000D03*
X84000000Y-14000000D03*
X21000000Y-65000000D03*
X3000000Y-17000000D03*
D17*
X39240000Y-7520000D03*
D15*
X54000000Y-50000000D03*
X75000000Y-65000000D03*
X72000000Y-44000000D03*
D17*
X40480000Y-8759999D03*
D18*
X67900000Y-56830000D03*
D17*
X36140000Y-11860000D03*
D15*
X89530000Y-7245135D03*
D18*
X44815000Y-66854584D03*
D15*
X75000000Y-50000000D03*
D17*
X37380000Y-59860000D03*
D15*
X36000000Y-53000000D03*
X48000000Y-62000000D03*
D17*
X38000000Y-59240000D03*
D15*
X60000000Y-5000000D03*
X6000000Y-53000000D03*
X3740000Y-55245135D03*
D17*
X37380000Y-56760000D03*
D18*
X59800000Y-35255000D03*
D15*
X18000000Y-65000000D03*
D17*
X39240000Y-60480000D03*
D15*
X68736822Y-66800000D03*
X12000000Y-26000000D03*
X3000000Y-35000000D03*
X39000000Y-23000000D03*
D18*
X25350000Y-45000000D03*
D17*
X39240000Y-10619999D03*
D15*
X21000000Y-62000000D03*
X81000000Y-5000000D03*
X3000000Y-20000000D03*
X1200000Y-55245135D03*
D17*
X39860000Y-11860000D03*
D15*
X3000000Y-29000000D03*
X27000000Y-62000000D03*
X12000000Y-65000000D03*
X75000000Y-44000000D03*
X87000000Y-32000000D03*
X51000000Y-50000000D03*
D17*
X39240000Y-12479999D03*
D18*
X47400000Y-43625847D03*
D15*
X3000000Y-47000000D03*
X9000000Y-53000000D03*
D17*
X38620000Y-8759999D03*
D15*
X2469999Y-55245135D03*
D18*
X64099999Y-11170000D03*
D15*
X12000000Y-29000000D03*
D18*
X78350000Y-20759999D03*
X45700000Y-24374152D03*
D15*
X12000000Y-44000000D03*
X6000000Y-29000000D03*
X45000000Y-62000000D03*
X18000000Y-47000000D03*
X30000000Y-62000000D03*
X81000000Y-50000000D03*
X18000000Y-32000000D03*
X12000000Y-53000000D03*
D16*
X37400000Y-57400000D03*
D17*
X36760000Y-8759999D03*
D18*
X25350000Y-23000000D03*
D15*
X75000000Y-47000000D03*
X15000000Y-20000000D03*
X39000000Y-65000000D03*
X60000000Y-23000000D03*
X24000000Y-38000000D03*
X39000000Y-53000000D03*
D16*
X38600000Y-57400000D03*
D15*
X48000000Y-50000000D03*
X51000000Y-5000000D03*
D16*
X37400000Y-10600000D03*
D15*
X78000000Y-62000000D03*
X36000000Y-38000000D03*
D14*
%TO.N,IMONA*%
X47340000Y-31750000D03*
%TO.N,IMONB*%
X47340000Y-36250000D03*
%TO.N,TEMPA*%
X56400000Y-14000000D03*
%TO.N,TEMPB*%
X56400000Y-54000000D03*
%TD*%
%TA.AperFunction,Conductor*%
%TO.N,GND*%
G36*
X89003614Y-250355D02*
G01*
X89529249Y-302126D01*
X89543466Y-304953D01*
X90045407Y-457216D01*
X90058809Y-462768D01*
X90521388Y-710021D01*
X90533450Y-718080D01*
X90938908Y-1050832D01*
X90949166Y-1061090D01*
X91281918Y-1466548D01*
X91289977Y-1478610D01*
X91537230Y-1941189D01*
X91542782Y-1954591D01*
X91695043Y-2456527D01*
X91697873Y-2470755D01*
X91749644Y-2996385D01*
X91750000Y-3003638D01*
X91750000Y-64996361D01*
X91749644Y-65003614D01*
X91697873Y-65529243D01*
X91695043Y-65543471D01*
X91542782Y-66045407D01*
X91537230Y-66058809D01*
X91289977Y-66521388D01*
X91281918Y-66533450D01*
X90949166Y-66938908D01*
X90938908Y-66949166D01*
X90533450Y-67281918D01*
X90521388Y-67289977D01*
X90058809Y-67537230D01*
X90045407Y-67542782D01*
X89543471Y-67695043D01*
X89529243Y-67697873D01*
X89003614Y-67749644D01*
X88996361Y-67750000D01*
X3003638Y-67750000D01*
X2996385Y-67749644D01*
X2470755Y-67697873D01*
X2456527Y-67695043D01*
X1954591Y-67542782D01*
X1941189Y-67537230D01*
X1478610Y-67289977D01*
X1466548Y-67281918D01*
X1061090Y-66949166D01*
X1050832Y-66938908D01*
X718080Y-66533450D01*
X710021Y-66521388D01*
X462768Y-66058809D01*
X457216Y-66045407D01*
X330821Y-65628740D01*
X325775Y-65612106D01*
X41879500Y-65612106D01*
X41879500Y-65757061D01*
X41917014Y-65897065D01*
X41917016Y-65897070D01*
X41989491Y-66022599D01*
X42091985Y-66125093D01*
X42217515Y-66197568D01*
X42217516Y-66197568D01*
X42217518Y-66197569D01*
X42287520Y-66216326D01*
X42357522Y-66235083D01*
X42357523Y-66235084D01*
X42357525Y-66235084D01*
X42502477Y-66235084D01*
X42502477Y-66235083D01*
X42642485Y-66197568D01*
X42768015Y-66125093D01*
X42870509Y-66022599D01*
X42942984Y-65897069D01*
X42980499Y-65757061D01*
X42980500Y-65757061D01*
X42980500Y-65612107D01*
X42980499Y-65612106D01*
X42942985Y-65472102D01*
X42942983Y-65472097D01*
X42870508Y-65346568D01*
X42768015Y-65244075D01*
X42642486Y-65171600D01*
X42642481Y-65171598D01*
X42502477Y-65134084D01*
X42502475Y-65134084D01*
X42357525Y-65134084D01*
X42357523Y-65134084D01*
X42217518Y-65171598D01*
X42217513Y-65171600D01*
X42091984Y-65244075D01*
X41989491Y-65346568D01*
X41917016Y-65472097D01*
X41917014Y-65472102D01*
X41879500Y-65612106D01*
X325775Y-65612106D01*
X304954Y-65543468D01*
X302126Y-65529249D01*
X250356Y-65003614D01*
X250000Y-64996361D01*
X250000Y-53927522D01*
X55849500Y-53927522D01*
X55849500Y-54072477D01*
X55887014Y-54212481D01*
X55887016Y-54212486D01*
X55959491Y-54338015D01*
X56061985Y-54440509D01*
X56187515Y-54512984D01*
X56187516Y-54512984D01*
X56187518Y-54512985D01*
X56257520Y-54531742D01*
X56327522Y-54550499D01*
X56327523Y-54550500D01*
X56327525Y-54550500D01*
X56472477Y-54550500D01*
X56472477Y-54550499D01*
X56612485Y-54512984D01*
X56738015Y-54440509D01*
X56840509Y-54338015D01*
X56912984Y-54212485D01*
X56950499Y-54072477D01*
X56950500Y-54072477D01*
X56950500Y-53927523D01*
X56950499Y-53927522D01*
X56912985Y-53787518D01*
X56912983Y-53787513D01*
X56840508Y-53661984D01*
X56738015Y-53559491D01*
X56612486Y-53487016D01*
X56612481Y-53487014D01*
X56472477Y-53449500D01*
X56472475Y-53449500D01*
X56327525Y-53449500D01*
X56327523Y-53449500D01*
X56187518Y-53487014D01*
X56187513Y-53487016D01*
X56061984Y-53559491D01*
X55959491Y-53661984D01*
X55887016Y-53787513D01*
X55887014Y-53787518D01*
X55849500Y-53927522D01*
X250000Y-53927522D01*
X250000Y-41533388D01*
X80629500Y-41533388D01*
X80629500Y-41706611D01*
X80656597Y-41877698D01*
X80656600Y-41877711D01*
X80710125Y-42042442D01*
X80710127Y-42042446D01*
X80788767Y-42196787D01*
X80788768Y-42196788D01*
X80890586Y-42336928D01*
X81013072Y-42459414D01*
X81013075Y-42459416D01*
X81013076Y-42459417D01*
X81153212Y-42561232D01*
X81307553Y-42639872D01*
X81307557Y-42639874D01*
X81472288Y-42693399D01*
X81472294Y-42693400D01*
X81472299Y-42693402D01*
X81586359Y-42711467D01*
X81643388Y-42720500D01*
X81643389Y-42720500D01*
X81816612Y-42720500D01*
X81859383Y-42713725D01*
X81987701Y-42693402D01*
X81987708Y-42693399D01*
X81987711Y-42693399D01*
X82152442Y-42639874D01*
X82152442Y-42639873D01*
X82152445Y-42639873D01*
X82306788Y-42561232D01*
X82446928Y-42459414D01*
X82569414Y-42336928D01*
X82671232Y-42196788D01*
X82749873Y-42042445D01*
X82803402Y-41877701D01*
X82830500Y-41706611D01*
X82830500Y-41533389D01*
X82803402Y-41362299D01*
X82803400Y-41362294D01*
X82803399Y-41362288D01*
X82749874Y-41197557D01*
X82749872Y-41197553D01*
X82671232Y-41043212D01*
X82569417Y-40903076D01*
X82569416Y-40903075D01*
X82569414Y-40903072D01*
X82446928Y-40780586D01*
X82446925Y-40780583D01*
X82446923Y-40780582D01*
X82306787Y-40678767D01*
X82152446Y-40600127D01*
X82152442Y-40600125D01*
X81987711Y-40546600D01*
X81987698Y-40546597D01*
X81816612Y-40519500D01*
X81816611Y-40519500D01*
X81643389Y-40519500D01*
X81643388Y-40519500D01*
X81472301Y-40546597D01*
X81472288Y-40546600D01*
X81307557Y-40600125D01*
X81307553Y-40600127D01*
X81153212Y-40678767D01*
X81013076Y-40780582D01*
X80890582Y-40903076D01*
X80788767Y-41043212D01*
X80710127Y-41197553D01*
X80710125Y-41197557D01*
X80656600Y-41362288D01*
X80656597Y-41362301D01*
X80629500Y-41533388D01*
X250000Y-41533388D01*
X250000Y-38993388D01*
X80629500Y-38993388D01*
X80629500Y-39166611D01*
X80656597Y-39337698D01*
X80656600Y-39337711D01*
X80710125Y-39502442D01*
X80710127Y-39502446D01*
X80788767Y-39656787D01*
X80788768Y-39656788D01*
X80890586Y-39796928D01*
X81013072Y-39919414D01*
X81013075Y-39919416D01*
X81013076Y-39919417D01*
X81153212Y-40021232D01*
X81307553Y-40099872D01*
X81307557Y-40099874D01*
X81472288Y-40153399D01*
X81472294Y-40153400D01*
X81472299Y-40153402D01*
X81586359Y-40171467D01*
X81643388Y-40180500D01*
X81643389Y-40180500D01*
X81816612Y-40180500D01*
X81859383Y-40173725D01*
X81987701Y-40153402D01*
X81987708Y-40153399D01*
X81987711Y-40153399D01*
X82152442Y-40099874D01*
X82152442Y-40099873D01*
X82152445Y-40099873D01*
X82306788Y-40021232D01*
X82446928Y-39919414D01*
X82569414Y-39796928D01*
X82671232Y-39656788D01*
X82749873Y-39502445D01*
X82803402Y-39337701D01*
X82830500Y-39166611D01*
X82830500Y-38993389D01*
X82803402Y-38822299D01*
X82803400Y-38822294D01*
X82803399Y-38822288D01*
X82749874Y-38657557D01*
X82749872Y-38657553D01*
X82671232Y-38503212D01*
X82569417Y-38363076D01*
X82569416Y-38363075D01*
X82569414Y-38363072D01*
X82446928Y-38240586D01*
X82446925Y-38240583D01*
X82446923Y-38240582D01*
X82306787Y-38138767D01*
X82152446Y-38060127D01*
X82152442Y-38060125D01*
X81987711Y-38006600D01*
X81987698Y-38006597D01*
X81816612Y-37979500D01*
X81816611Y-37979500D01*
X81643389Y-37979500D01*
X81643388Y-37979500D01*
X81472301Y-38006597D01*
X81472288Y-38006600D01*
X81307557Y-38060125D01*
X81307553Y-38060127D01*
X81153212Y-38138767D01*
X81013076Y-38240582D01*
X80890582Y-38363076D01*
X80788767Y-38503212D01*
X80710127Y-38657553D01*
X80710125Y-38657557D01*
X80656600Y-38822288D01*
X80656597Y-38822301D01*
X80629500Y-38993388D01*
X250000Y-38993388D01*
X250000Y-36177522D01*
X46789500Y-36177522D01*
X46789500Y-36322477D01*
X46827014Y-36462481D01*
X46827016Y-36462486D01*
X46899491Y-36588015D01*
X47001985Y-36690509D01*
X47127515Y-36762984D01*
X47127516Y-36762984D01*
X47127518Y-36762985D01*
X47197520Y-36781742D01*
X47267522Y-36800499D01*
X47267523Y-36800500D01*
X47267525Y-36800500D01*
X47412477Y-36800500D01*
X47412477Y-36800499D01*
X47552485Y-36762984D01*
X47678015Y-36690509D01*
X47780509Y-36588015D01*
X47852984Y-36462485D01*
X47855422Y-36453388D01*
X80629500Y-36453388D01*
X80629500Y-36626611D01*
X80656597Y-36797698D01*
X80656600Y-36797711D01*
X80710125Y-36962442D01*
X80710127Y-36962446D01*
X80788767Y-37116787D01*
X80788768Y-37116788D01*
X80890586Y-37256928D01*
X81013072Y-37379414D01*
X81013075Y-37379416D01*
X81013076Y-37379417D01*
X81153212Y-37481232D01*
X81307553Y-37559872D01*
X81307557Y-37559874D01*
X81472288Y-37613399D01*
X81472294Y-37613400D01*
X81472299Y-37613402D01*
X81586359Y-37631467D01*
X81643388Y-37640500D01*
X81643389Y-37640500D01*
X81816612Y-37640500D01*
X81859383Y-37633725D01*
X81987701Y-37613402D01*
X81987708Y-37613399D01*
X81987711Y-37613399D01*
X82152442Y-37559874D01*
X82152442Y-37559873D01*
X82152445Y-37559873D01*
X82306788Y-37481232D01*
X82446928Y-37379414D01*
X82569414Y-37256928D01*
X82671232Y-37116788D01*
X82749873Y-36962445D01*
X82803402Y-36797701D01*
X82830500Y-36626611D01*
X82830500Y-36453389D01*
X82803402Y-36282299D01*
X82803400Y-36282294D01*
X82803399Y-36282288D01*
X82749874Y-36117557D01*
X82749872Y-36117553D01*
X82671232Y-35963212D01*
X82569417Y-35823076D01*
X82569416Y-35823075D01*
X82569414Y-35823072D01*
X82446928Y-35700586D01*
X82446925Y-35700583D01*
X82446923Y-35700582D01*
X82306787Y-35598767D01*
X82152446Y-35520127D01*
X82152442Y-35520125D01*
X81987711Y-35466600D01*
X81987698Y-35466597D01*
X81816612Y-35439500D01*
X81816611Y-35439500D01*
X81643389Y-35439500D01*
X81643388Y-35439500D01*
X81472301Y-35466597D01*
X81472288Y-35466600D01*
X81307557Y-35520125D01*
X81307553Y-35520127D01*
X81153212Y-35598767D01*
X81013076Y-35700582D01*
X80890582Y-35823076D01*
X80788767Y-35963212D01*
X80710127Y-36117553D01*
X80710125Y-36117557D01*
X80656600Y-36282288D01*
X80656597Y-36282301D01*
X80629500Y-36453388D01*
X47855422Y-36453388D01*
X47861333Y-36431329D01*
X47890499Y-36322477D01*
X47890500Y-36322477D01*
X47890500Y-36177523D01*
X47890499Y-36177522D01*
X47852985Y-36037518D01*
X47852983Y-36037513D01*
X47780508Y-35911984D01*
X47678015Y-35809491D01*
X47552486Y-35737016D01*
X47552481Y-35737014D01*
X47412477Y-35699500D01*
X47412475Y-35699500D01*
X47267525Y-35699500D01*
X47267523Y-35699500D01*
X47127518Y-35737014D01*
X47127513Y-35737016D01*
X47001984Y-35809491D01*
X46899491Y-35911984D01*
X46827016Y-36037513D01*
X46827014Y-36037518D01*
X46789500Y-36177522D01*
X250000Y-36177522D01*
X250000Y-33913388D01*
X80629500Y-33913388D01*
X80629500Y-34086611D01*
X80656597Y-34257698D01*
X80656600Y-34257711D01*
X80710125Y-34422442D01*
X80710127Y-34422446D01*
X80788767Y-34576787D01*
X80788768Y-34576788D01*
X80890586Y-34716928D01*
X81013072Y-34839414D01*
X81013075Y-34839416D01*
X81013076Y-34839417D01*
X81153212Y-34941232D01*
X81307553Y-35019872D01*
X81307557Y-35019874D01*
X81472288Y-35073399D01*
X81472294Y-35073400D01*
X81472299Y-35073402D01*
X81586359Y-35091467D01*
X81643388Y-35100500D01*
X81643389Y-35100500D01*
X81816612Y-35100500D01*
X81859383Y-35093725D01*
X81987701Y-35073402D01*
X81987708Y-35073399D01*
X81987711Y-35073399D01*
X82152442Y-35019874D01*
X82152442Y-35019873D01*
X82152445Y-35019873D01*
X82306788Y-34941232D01*
X82446928Y-34839414D01*
X82569414Y-34716928D01*
X82671232Y-34576788D01*
X82749873Y-34422445D01*
X82803402Y-34257701D01*
X82830500Y-34086611D01*
X82830500Y-33913389D01*
X82803402Y-33742299D01*
X82803400Y-33742294D01*
X82803399Y-33742288D01*
X82749874Y-33577557D01*
X82749872Y-33577553D01*
X82671232Y-33423212D01*
X82569417Y-33283076D01*
X82569416Y-33283075D01*
X82569414Y-33283072D01*
X82446928Y-33160586D01*
X82446925Y-33160583D01*
X82446923Y-33160582D01*
X82306787Y-33058767D01*
X82152446Y-32980127D01*
X82152442Y-32980125D01*
X81987711Y-32926600D01*
X81987698Y-32926597D01*
X81816612Y-32899500D01*
X81816611Y-32899500D01*
X81643389Y-32899500D01*
X81643388Y-32899500D01*
X81472301Y-32926597D01*
X81472288Y-32926600D01*
X81307557Y-32980125D01*
X81307553Y-32980127D01*
X81153212Y-33058767D01*
X81013076Y-33160582D01*
X80890582Y-33283076D01*
X80788767Y-33423212D01*
X80710127Y-33577553D01*
X80710125Y-33577557D01*
X80656600Y-33742288D01*
X80656597Y-33742301D01*
X80629500Y-33913388D01*
X250000Y-33913388D01*
X250000Y-31677522D01*
X46789500Y-31677522D01*
X46789500Y-31822477D01*
X46827014Y-31962481D01*
X46827016Y-31962486D01*
X46869914Y-32036787D01*
X46899491Y-32088015D01*
X47001985Y-32190509D01*
X47127515Y-32262984D01*
X47127516Y-32262984D01*
X47127518Y-32262985D01*
X47197520Y-32281742D01*
X47267522Y-32300499D01*
X47267523Y-32300500D01*
X47267525Y-32300500D01*
X47412477Y-32300500D01*
X47412477Y-32300499D01*
X47552485Y-32262984D01*
X47678015Y-32190509D01*
X47780509Y-32088015D01*
X47852984Y-31962485D01*
X47890499Y-31822477D01*
X47890500Y-31822477D01*
X47890500Y-31677523D01*
X47890499Y-31677522D01*
X47852985Y-31537518D01*
X47852983Y-31537513D01*
X47780508Y-31411984D01*
X47741912Y-31373388D01*
X80629500Y-31373388D01*
X80629500Y-31546611D01*
X80656597Y-31717698D01*
X80656600Y-31717711D01*
X80710125Y-31882442D01*
X80710127Y-31882446D01*
X80788767Y-32036787D01*
X80825986Y-32088015D01*
X80890586Y-32176928D01*
X81013072Y-32299414D01*
X81013075Y-32299416D01*
X81013076Y-32299417D01*
X81153212Y-32401232D01*
X81307553Y-32479872D01*
X81307557Y-32479874D01*
X81472288Y-32533399D01*
X81472294Y-32533400D01*
X81472299Y-32533402D01*
X81586359Y-32551467D01*
X81643388Y-32560500D01*
X81643389Y-32560500D01*
X81816612Y-32560500D01*
X81859383Y-32553725D01*
X81987701Y-32533402D01*
X81987708Y-32533399D01*
X81987711Y-32533399D01*
X82152442Y-32479874D01*
X82152442Y-32479873D01*
X82152445Y-32479873D01*
X82306788Y-32401232D01*
X82446928Y-32299414D01*
X82569414Y-32176928D01*
X82671232Y-32036788D01*
X82749873Y-31882445D01*
X82803402Y-31717701D01*
X82830500Y-31546611D01*
X82830500Y-31373389D01*
X82803402Y-31202299D01*
X82803400Y-31202294D01*
X82803399Y-31202288D01*
X82749874Y-31037557D01*
X82749872Y-31037553D01*
X82671232Y-30883212D01*
X82569417Y-30743076D01*
X82569416Y-30743075D01*
X82569414Y-30743072D01*
X82446928Y-30620586D01*
X82446925Y-30620583D01*
X82446923Y-30620582D01*
X82306787Y-30518767D01*
X82152446Y-30440127D01*
X82152442Y-30440125D01*
X81987711Y-30386600D01*
X81987698Y-30386597D01*
X81816612Y-30359500D01*
X81816611Y-30359500D01*
X81643389Y-30359500D01*
X81643388Y-30359500D01*
X81472301Y-30386597D01*
X81472288Y-30386600D01*
X81307557Y-30440125D01*
X81307553Y-30440127D01*
X81153212Y-30518767D01*
X81013076Y-30620582D01*
X80890582Y-30743076D01*
X80788767Y-30883212D01*
X80710127Y-31037553D01*
X80710125Y-31037557D01*
X80656600Y-31202288D01*
X80656597Y-31202301D01*
X80629500Y-31373388D01*
X47741912Y-31373388D01*
X47678015Y-31309491D01*
X47552486Y-31237016D01*
X47552481Y-31237014D01*
X47412477Y-31199500D01*
X47412475Y-31199500D01*
X47267525Y-31199500D01*
X47267523Y-31199500D01*
X47127518Y-31237014D01*
X47127513Y-31237016D01*
X47001984Y-31309491D01*
X46899491Y-31411984D01*
X46827016Y-31537513D01*
X46827014Y-31537518D01*
X46789500Y-31677522D01*
X250000Y-31677522D01*
X250000Y-28833388D01*
X80629500Y-28833388D01*
X80629500Y-29006611D01*
X80656597Y-29177698D01*
X80656600Y-29177711D01*
X80710125Y-29342442D01*
X80710127Y-29342446D01*
X80788767Y-29496787D01*
X80788768Y-29496788D01*
X80890586Y-29636928D01*
X81013072Y-29759414D01*
X81013075Y-29759416D01*
X81013076Y-29759417D01*
X81153212Y-29861232D01*
X81307553Y-29939872D01*
X81307557Y-29939874D01*
X81472288Y-29993399D01*
X81472294Y-29993400D01*
X81472299Y-29993402D01*
X81586359Y-30011467D01*
X81643388Y-30020500D01*
X81643389Y-30020500D01*
X81816612Y-30020500D01*
X81859383Y-30013725D01*
X81987701Y-29993402D01*
X81987708Y-29993399D01*
X81987711Y-29993399D01*
X82152442Y-29939874D01*
X82152442Y-29939873D01*
X82152445Y-29939873D01*
X82306788Y-29861232D01*
X82446928Y-29759414D01*
X82569414Y-29636928D01*
X82671232Y-29496788D01*
X82749873Y-29342445D01*
X82803402Y-29177701D01*
X82830500Y-29006611D01*
X82830500Y-28833389D01*
X82803402Y-28662299D01*
X82803400Y-28662294D01*
X82803399Y-28662288D01*
X82749874Y-28497557D01*
X82749872Y-28497553D01*
X82671232Y-28343212D01*
X82569417Y-28203076D01*
X82569416Y-28203075D01*
X82569414Y-28203072D01*
X82446928Y-28080586D01*
X82446925Y-28080583D01*
X82446923Y-28080582D01*
X82306787Y-27978767D01*
X82152446Y-27900127D01*
X82152442Y-27900125D01*
X81987711Y-27846600D01*
X81987698Y-27846597D01*
X81816612Y-27819500D01*
X81816611Y-27819500D01*
X81643389Y-27819500D01*
X81643388Y-27819500D01*
X81472301Y-27846597D01*
X81472288Y-27846600D01*
X81307557Y-27900125D01*
X81307553Y-27900127D01*
X81153212Y-27978767D01*
X81013076Y-28080582D01*
X80890582Y-28203076D01*
X80788767Y-28343212D01*
X80710127Y-28497553D01*
X80710125Y-28497557D01*
X80656600Y-28662288D01*
X80656597Y-28662301D01*
X80629500Y-28833388D01*
X250000Y-28833388D01*
X250000Y-27927522D01*
X57499500Y-27927522D01*
X57499500Y-28072477D01*
X57537014Y-28212481D01*
X57537016Y-28212486D01*
X57609491Y-28338015D01*
X57711985Y-28440509D01*
X57837515Y-28512984D01*
X57837516Y-28512984D01*
X57837518Y-28512985D01*
X57907520Y-28531742D01*
X57977522Y-28550499D01*
X57977523Y-28550500D01*
X57977525Y-28550500D01*
X58122477Y-28550500D01*
X58122477Y-28550499D01*
X58262485Y-28512984D01*
X58388015Y-28440509D01*
X58490509Y-28338015D01*
X58562984Y-28212485D01*
X58600499Y-28072477D01*
X58600500Y-28072477D01*
X58600500Y-27927523D01*
X58600499Y-27927522D01*
X58562985Y-27787518D01*
X58562983Y-27787513D01*
X58490508Y-27661984D01*
X58388015Y-27559491D01*
X58262486Y-27487016D01*
X58262481Y-27487014D01*
X58122477Y-27449500D01*
X58122475Y-27449500D01*
X57977525Y-27449500D01*
X57977523Y-27449500D01*
X57837518Y-27487014D01*
X57837513Y-27487016D01*
X57711984Y-27559491D01*
X57609491Y-27661984D01*
X57537016Y-27787513D01*
X57537014Y-27787518D01*
X57499500Y-27927522D01*
X250000Y-27927522D01*
X250000Y-26293388D01*
X80629500Y-26293388D01*
X80629500Y-26466611D01*
X80656597Y-26637698D01*
X80656600Y-26637711D01*
X80710125Y-26802442D01*
X80710127Y-26802446D01*
X80788767Y-26956787D01*
X80788768Y-26956788D01*
X80890586Y-27096928D01*
X81013072Y-27219414D01*
X81013075Y-27219416D01*
X81013076Y-27219417D01*
X81153212Y-27321232D01*
X81307553Y-27399872D01*
X81307557Y-27399874D01*
X81472288Y-27453399D01*
X81472294Y-27453400D01*
X81472299Y-27453402D01*
X81586359Y-27471467D01*
X81643388Y-27480500D01*
X81643389Y-27480500D01*
X81816612Y-27480500D01*
X81859383Y-27473725D01*
X81987701Y-27453402D01*
X81987708Y-27453399D01*
X81987711Y-27453399D01*
X82152442Y-27399874D01*
X82152442Y-27399873D01*
X82152445Y-27399873D01*
X82306788Y-27321232D01*
X82446928Y-27219414D01*
X82569414Y-27096928D01*
X82671232Y-26956788D01*
X82749873Y-26802445D01*
X82803402Y-26637701D01*
X82830500Y-26466611D01*
X82830500Y-26293389D01*
X82803402Y-26122299D01*
X82803400Y-26122294D01*
X82803399Y-26122288D01*
X82749874Y-25957557D01*
X82749872Y-25957553D01*
X82671232Y-25803212D01*
X82569417Y-25663076D01*
X82569416Y-25663075D01*
X82569414Y-25663072D01*
X82446928Y-25540586D01*
X82446925Y-25540583D01*
X82446923Y-25540582D01*
X82306787Y-25438767D01*
X82152446Y-25360127D01*
X82152442Y-25360125D01*
X81987711Y-25306600D01*
X81987698Y-25306597D01*
X81816612Y-25279500D01*
X81816611Y-25279500D01*
X81643389Y-25279500D01*
X81643388Y-25279500D01*
X81472301Y-25306597D01*
X81472288Y-25306600D01*
X81307557Y-25360125D01*
X81307553Y-25360127D01*
X81153212Y-25438767D01*
X81013076Y-25540582D01*
X80890582Y-25663076D01*
X80788767Y-25803212D01*
X80710127Y-25957553D01*
X80710125Y-25957557D01*
X80656600Y-26122288D01*
X80656597Y-26122301D01*
X80629500Y-26293388D01*
X250000Y-26293388D01*
X250000Y-13927522D01*
X55849500Y-13927522D01*
X55849500Y-14072477D01*
X55887014Y-14212481D01*
X55887016Y-14212486D01*
X55959491Y-14338015D01*
X56061985Y-14440509D01*
X56187515Y-14512984D01*
X56187516Y-14512984D01*
X56187518Y-14512985D01*
X56257520Y-14531742D01*
X56327522Y-14550499D01*
X56327523Y-14550500D01*
X56327525Y-14550500D01*
X56472477Y-14550500D01*
X56472477Y-14550499D01*
X56612485Y-14512984D01*
X56738015Y-14440509D01*
X56840509Y-14338015D01*
X56912984Y-14212485D01*
X56950499Y-14072477D01*
X56950500Y-14072477D01*
X56950500Y-13927523D01*
X56950499Y-13927522D01*
X56912985Y-13787518D01*
X56912983Y-13787513D01*
X56840508Y-13661984D01*
X56738015Y-13559491D01*
X56612486Y-13487016D01*
X56612481Y-13487014D01*
X56472477Y-13449500D01*
X56472475Y-13449500D01*
X56327525Y-13449500D01*
X56327523Y-13449500D01*
X56187518Y-13487014D01*
X56187513Y-13487016D01*
X56061984Y-13559491D01*
X55959491Y-13661984D01*
X55887016Y-13787513D01*
X55887014Y-13787518D01*
X55849500Y-13927522D01*
X250000Y-13927522D01*
X250000Y-3003638D01*
X250356Y-2996385D01*
X274039Y-2755923D01*
X302126Y-2470747D01*
X304953Y-2456534D01*
X369747Y-2242937D01*
X41879500Y-2242937D01*
X41879500Y-2387892D01*
X41917014Y-2527896D01*
X41917016Y-2527901D01*
X41989491Y-2653430D01*
X42091985Y-2755924D01*
X42217515Y-2828399D01*
X42217516Y-2828399D01*
X42217518Y-2828400D01*
X42287520Y-2847157D01*
X42357522Y-2865914D01*
X42357523Y-2865915D01*
X42357525Y-2865915D01*
X42502477Y-2865915D01*
X42502477Y-2865914D01*
X42642485Y-2828399D01*
X42768015Y-2755924D01*
X42870509Y-2653430D01*
X42942984Y-2527900D01*
X42980499Y-2387892D01*
X42980500Y-2387892D01*
X42980500Y-2242938D01*
X42980499Y-2242937D01*
X42942985Y-2102933D01*
X42942983Y-2102928D01*
X42870508Y-1977399D01*
X42768015Y-1874906D01*
X42642486Y-1802431D01*
X42642481Y-1802429D01*
X42502477Y-1764915D01*
X42502475Y-1764915D01*
X42357525Y-1764915D01*
X42357523Y-1764915D01*
X42217518Y-1802429D01*
X42217513Y-1802431D01*
X42091984Y-1874906D01*
X41989491Y-1977399D01*
X41917016Y-2102928D01*
X41917014Y-2102933D01*
X41879500Y-2242937D01*
X369747Y-2242937D01*
X457217Y-1954587D01*
X462768Y-1941189D01*
X536937Y-1802429D01*
X710024Y-1478605D01*
X718076Y-1466553D01*
X1050833Y-1061088D01*
X1061090Y-1050832D01*
X1466553Y-718076D01*
X1478605Y-710024D01*
X1941192Y-462766D01*
X1954587Y-457217D01*
X2456534Y-304953D01*
X2470747Y-302126D01*
X2996385Y-250355D01*
X3003638Y-250000D01*
X88996362Y-250000D01*
X89003614Y-250355D01*
G37*
%TD.AperFunction*%
%TD*%
M02*
