M48
; DRILL file KiCad 10.0.5 date 2026-08-09T20:35:57
; FORMAT={-:-/ absolute / metric / decimal}
; #@! TF.CreationDate,2026-08-09T20:35:57+01:00
; #@! TF.GenerationSoftware,Kicad,Pcbnew,10.0.5
; #@! TF.FileFunction,MixedPlating,1,4
FMAT,2
METRIC
; #@! TA.AperFunction,Plated,PTH,ViaDrill
T1C0.250
; #@! TA.AperFunction,Plated,PTH,ViaDrill
T2C0.300
; #@! TA.AperFunction,Plated,PTH,ViaDrill
T3C0.400
; #@! TA.AperFunction,Plated,PTH,ComponentDrill
T4C1.020
; #@! TA.AperFunction,Plated,PTH,ComponentDrill
T5C3.200
%
G90
G05
T1
X22.0Y-21.87
X22.0Y-46.13
X23.596Y-6.637
X23.596Y-61.363
X23.65Y-23.0
X23.65Y-45.0
X25.35Y-23.0
X25.35Y-45.0
X33.37Y-25.05
X33.37Y-42.95
X35.07Y-25.05
X35.07Y-42.95
X44.815Y-1.145
X44.815Y-66.855
X45.17Y-20.424
X45.17Y-47.576
X45.7Y-24.374
X45.7Y-43.626
X46.515Y-1.145
X46.515Y-66.855
X47.4Y-24.374
X47.4Y-43.626
X48.215Y-1.145
X48.215Y-66.855
X51.15Y-25.504
X51.15Y-42.496
X52.0Y-15.17
X52.0Y-52.83
X52.85Y-25.504
X52.85Y-42.496
X54.0Y-1.145
X54.0Y-66.855
X59.8Y-35.255
X64.1Y-11.17
X64.1Y-56.83
X67.9Y-11.17
X67.9Y-56.83
X68.752Y-6.0
X68.752Y-62.0
X70.7Y-13.2
X70.7Y-54.8
X73.3Y-13.2
X73.3Y-54.8
X76.65Y-20.76
X78.35Y-20.76
X80.15Y-21.2
X81.85Y-21.2
X84.2Y-22.33
T2
X19.736Y-9.5
X19.736Y-10.5
X19.736Y-57.5
X19.736Y-58.5
X35.52Y-7.52
X35.52Y-8.76
X35.52Y-11.24
X35.52Y-12.48
X35.52Y-55.52
X35.52Y-56.76
X35.52Y-59.86
X35.52Y-60.48
X36.14Y-8.14
X36.14Y-11.86
X36.14Y-56.14
X36.14Y-59.24
X36.76Y-7.52
X36.76Y-8.76
X36.76Y-9.38
X36.76Y-10.62
X36.76Y-11.24
X36.76Y-12.48
X36.76Y-55.52
X36.76Y-56.76
X36.76Y-57.38
X36.76Y-58.62
X36.76Y-59.86
X36.76Y-60.48
X37.38Y-7.52
X37.38Y-8.76
X37.38Y-11.24
X37.38Y-12.48
X37.38Y-55.52
X37.38Y-56.76
X37.38Y-59.86
X37.38Y-60.48
X37.4Y-9.4
X37.4Y-10.0
X37.4Y-10.6
X37.4Y-57.4
X37.4Y-58.6
X38.0Y-8.14
X38.0Y-9.4
X38.0Y-10.0
X38.0Y-10.6
X38.0Y-11.86
X38.0Y-56.14
X38.0Y-57.4
X38.0Y-58.6
X38.0Y-59.24
X38.6Y-9.4
X38.6Y-10.0
X38.6Y-10.6
X38.6Y-57.4
X38.6Y-58.6
X38.62Y-7.52
X38.62Y-8.76
X38.62Y-11.24
X38.62Y-12.48
X38.62Y-55.52
X38.62Y-56.76
X38.62Y-59.86
X38.62Y-60.48
X39.24Y-7.52
X39.24Y-8.76
X39.24Y-9.38
X39.24Y-10.62
X39.24Y-11.24
X39.24Y-12.48
X39.24Y-55.52
X39.24Y-56.76
X39.24Y-57.38
X39.24Y-58.62
X39.24Y-59.86
X39.24Y-60.48
X39.86Y-8.14
X39.86Y-11.86
X39.86Y-56.14
X39.86Y-59.24
X40.48Y-7.52
X40.48Y-8.76
X40.48Y-11.24
X40.48Y-12.48
X40.48Y-55.52
X40.48Y-56.76
X40.48Y-59.86
X40.48Y-60.48
X42.43Y-2.315
X42.43Y-65.685
X47.34Y-31.75
X47.34Y-36.25
X56.4Y-14.0
X56.4Y-54.0
X58.05Y-28.0
T3
X1.2Y-7.245
X1.2Y-12.755
X1.2Y-55.245
X1.2Y-60.755
X2.47Y-7.245
X2.47Y-12.755
X2.47Y-55.245
X2.47Y-60.755
X3.0Y-17.0
X3.0Y-20.0
X3.0Y-23.0
X3.0Y-26.0
X3.0Y-29.0
X3.0Y-32.0
X3.0Y-35.0
X3.0Y-38.0
X3.0Y-41.0
X3.0Y-44.0
X3.0Y-47.0
X3.0Y-50.0
X3.74Y-7.245
X3.74Y-12.755
X3.74Y-55.245
X3.74Y-60.755
X6.0Y-14.0
X6.0Y-17.0
X6.0Y-20.0
X6.0Y-23.0
X6.0Y-26.0
X6.0Y-29.0
X6.0Y-32.0
X6.0Y-35.0
X6.0Y-38.0
X6.0Y-41.0
X6.0Y-44.0
X6.0Y-47.0
X6.0Y-50.0
X6.0Y-53.0
X9.0Y-14.0
X9.0Y-17.0
X9.0Y-20.0
X9.0Y-23.0
X9.0Y-26.0
X9.0Y-29.0
X9.0Y-32.0
X9.0Y-35.0
X9.0Y-38.0
X9.0Y-41.0
X9.0Y-44.0
X9.0Y-47.0
X9.0Y-50.0
X9.0Y-53.0
X12.0Y-5.0
X12.0Y-14.0
X12.0Y-17.0
X12.0Y-20.0
X12.0Y-23.0
X12.0Y-26.0
X12.0Y-29.0
X12.0Y-32.0
X12.0Y-35.0
X12.0Y-38.0
X12.0Y-41.0
X12.0Y-44.0
X12.0Y-47.0
X12.0Y-50.0
X12.0Y-53.0
X12.0Y-62.0
X12.0Y-65.0
X15.0Y-5.0
X15.0Y-14.0
X15.0Y-17.0
X15.0Y-20.0
X15.0Y-23.0
X15.0Y-26.0
X15.0Y-29.0
X15.0Y-32.0
X15.0Y-35.0
X15.0Y-38.0
X15.0Y-41.0
X15.0Y-44.0
X15.0Y-47.0
X15.0Y-50.0
X15.0Y-53.0
X15.0Y-62.0
X15.0Y-65.0
X18.0Y-5.0
X18.0Y-23.0
X18.0Y-26.0
X18.0Y-29.0
X18.0Y-32.0
X18.0Y-35.0
X18.0Y-38.0
X18.0Y-41.0
X18.0Y-44.0
X18.0Y-47.0
X18.0Y-62.0
X18.0Y-65.0
X21.0Y-5.0
X21.0Y-62.0
X21.0Y-65.0
X24.0Y-5.0
X24.0Y-26.0
X24.0Y-29.0
X24.0Y-38.0
X24.0Y-41.0
X24.0Y-65.0
X27.0Y-5.0
X27.0Y-14.0
X27.0Y-17.0
X27.0Y-38.0
X27.0Y-50.0
X27.0Y-53.0
X27.0Y-62.0
X27.0Y-65.0
X30.0Y-5.0
X30.0Y-14.0
X30.0Y-17.0
X30.0Y-23.0
X30.0Y-38.0
X30.0Y-44.0
X30.0Y-50.0
X30.0Y-53.0
X30.0Y-62.0
X30.0Y-65.0
X33.0Y-5.0
X33.0Y-14.0
X33.0Y-17.0
X33.0Y-23.0
X33.0Y-38.0
X33.0Y-50.0
X33.0Y-53.0
X33.0Y-62.0
X33.0Y-65.0
X36.0Y-5.0
X36.0Y-14.0
X36.0Y-17.0
X36.0Y-23.0
X36.0Y-38.0
X36.0Y-50.0
X36.0Y-53.0
X36.0Y-62.0
X36.0Y-65.0
X39.0Y-5.0
X39.0Y-14.0
X39.0Y-17.0
X39.0Y-23.0
X39.0Y-38.0
X39.0Y-44.0
X39.0Y-50.0
X39.0Y-53.0
X39.0Y-62.0
X39.0Y-65.0
X45.0Y-5.0
X45.0Y-62.0
X48.0Y-5.0
X48.0Y-14.0
X48.0Y-17.0
X48.0Y-20.0
X48.0Y-47.0
X48.0Y-50.0
X48.0Y-53.0
X48.0Y-62.0
X51.0Y-5.0
X51.0Y-17.0
X51.0Y-20.0
X51.0Y-47.0
X51.0Y-50.0
X51.0Y-62.0
X54.0Y-17.0
X54.0Y-20.0
X54.0Y-29.0
X54.0Y-47.0
X54.0Y-50.0
X57.0Y-5.0
X57.0Y-65.0
X60.0Y-5.0
X60.0Y-14.0
X60.0Y-23.0
X60.0Y-44.0
X60.0Y-47.0
X60.0Y-50.0
X60.0Y-53.0
X63.0Y-14.0
X63.0Y-23.0
X63.0Y-44.0
X63.0Y-47.0
X63.0Y-50.0
X63.0Y-53.0
X63.227Y-1.2
X63.227Y-2.47
X63.227Y-3.74
X63.227Y-64.26
X63.227Y-65.53
X63.227Y-66.8
X66.0Y-14.0
X66.0Y-23.0
X66.0Y-44.0
X66.0Y-47.0
X66.0Y-50.0
X66.0Y-53.0
X66.0Y-56.0
X68.737Y-1.2
X68.737Y-2.47
X68.737Y-3.74
X68.737Y-64.26
X68.737Y-65.53
X68.737Y-66.8
X69.0Y-14.0
X69.0Y-23.0
X69.0Y-44.0
X69.0Y-47.0
X69.0Y-50.0
X69.0Y-53.0
X72.0Y-5.0
X72.0Y-23.0
X72.0Y-44.0
X72.0Y-47.0
X72.0Y-50.0
X72.0Y-53.0
X72.0Y-62.0
X75.0Y-5.0
X75.0Y-14.0
X75.0Y-44.0
X75.0Y-47.0
X75.0Y-50.0
X75.0Y-53.0
X75.0Y-62.0
X75.0Y-65.0
X78.0Y-5.0
X78.0Y-14.0
X78.0Y-44.0
X78.0Y-47.0
X78.0Y-50.0
X78.0Y-53.0
X78.0Y-62.0
X78.0Y-65.0
X81.0Y-5.0
X81.0Y-14.0
X81.0Y-44.0
X81.0Y-47.0
X81.0Y-50.0
X81.0Y-53.0
X81.0Y-62.0
X81.0Y-65.0
X84.0Y-14.0
X84.0Y-44.0
X84.0Y-47.0
X84.0Y-50.0
X84.0Y-53.0
X87.0Y-26.0
X87.0Y-29.0
X87.0Y-32.0
X87.0Y-35.0
X87.0Y-38.0
X87.0Y-41.0
X87.0Y-44.0
X87.0Y-47.0
X87.0Y-50.0
X87.0Y-53.0
X88.26Y-7.245
X88.26Y-12.755
X88.26Y-55.245
X88.26Y-60.755
X89.53Y-7.245
X89.53Y-12.755
X89.53Y-55.245
X89.53Y-60.755
X90.8Y-7.245
X90.8Y-12.755
X90.8Y-55.245
X90.8Y-60.755
T4
X81.73Y-26.38
X81.73Y-28.92
X81.73Y-31.46
X81.73Y-34.0
X81.73Y-36.54
X81.73Y-39.08
X81.73Y-41.62
X84.27Y-26.38
X84.27Y-28.92
X84.27Y-31.46
X84.27Y-34.0
X84.27Y-36.54
X84.27Y-39.08
X84.27Y-41.62
T5
X5.0Y-5.0
X5.0Y-63.0
X20.0Y-16.0
X20.0Y-52.0
X87.0Y-5.0
X87.0Y-63.0
M30
