%TF.GenerationSoftware,KiCad,Pcbnew,10.0.5*%
%TF.CreationDate,2026-08-09T20:40:40+01:00*%
%TF.ProjectId,radar_5g8_lna,72616461-725f-4356-9738-5f6c6e612e6b,rev?*%
%TF.SameCoordinates,Original*%
%TF.FileFunction,Copper,L3,Inr*%
%TF.FilePolarity,Positive*%
%FSLAX46Y46*%
G04 Gerber Fmt 4.6, Leading zero omitted, Abs format (unit mm)*
G04 Created by KiCad (PCBNEW 10.0.5) date 2026-08-09 20:40:40*
%MOMM*%
%LPD*%
G01*
G04 APERTURE LIST*
%TA.AperFunction,Conductor*%
%ADD10C,0.000000*%
%TD*%
%TA.AperFunction,ComponentPad*%
%ADD11C,6.000000*%
%TD*%
%TA.AperFunction,ComponentPad*%
%ADD12C,1.700000*%
%TD*%
%TA.AperFunction,ViaPad*%
%ADD13C,0.600000*%
%TD*%
%TA.AperFunction,ViaPad*%
%ADD14C,0.750000*%
%TD*%
%TA.AperFunction,ViaPad*%
%ADD15C,0.500000*%
%TD*%
%TA.AperFunction,ViaPad*%
%ADD16C,0.520000*%
%TD*%
%TA.AperFunction,ViaPad*%
%ADD17C,0.550000*%
%TD*%
G04 APERTURE END LIST*
D10*
%TA.AperFunction,Conductor*%
%TO.N,DETA*%
G36*
X42655000Y-34000000D02*
G01*
X42205000Y-34000000D01*
X42205000Y-2315415D01*
X42655000Y-2315415D01*
X42655000Y-34000000D01*
G37*
%TD.AperFunction*%
%TA.AperFunction,Conductor*%
%TO.N,DETB*%
G36*
X42655000Y-65684584D02*
G01*
X42205000Y-65684584D01*
X42205000Y-39080000D01*
X42655000Y-39080000D01*
X42655000Y-65684584D01*
G37*
%TD.AperFunction*%
%TA.AperFunction,Conductor*%
%TO.N,DETA*%
G36*
X81730000Y-34225000D02*
G01*
X42430000Y-34225000D01*
X42430000Y-33775000D01*
X81730000Y-33775000D01*
X81730000Y-34225000D01*
G37*
%TD.AperFunction*%
%TA.AperFunction,Conductor*%
%TO.N,DETB*%
G36*
X81730000Y-39305000D02*
G01*
X42430000Y-39305000D01*
X42430000Y-38855000D01*
X81730000Y-38855000D01*
X81730000Y-39305000D01*
G37*
%TD.AperFunction*%
%TA.AperFunction,Conductor*%
%TO.N,IMONA*%
G36*
X47565000Y-31750000D02*
G01*
X47115000Y-31750000D01*
X47115000Y-31460000D01*
X47565000Y-31460000D01*
X47565000Y-31750000D01*
G37*
%TD.AperFunction*%
%TA.AperFunction,Conductor*%
%TO.N,IMONB*%
G36*
X47565000Y-36540000D02*
G01*
X47115000Y-36540000D01*
X47115000Y-36250000D01*
X47565000Y-36250000D01*
X47565000Y-36540000D01*
G37*
%TD.AperFunction*%
%TA.AperFunction,Conductor*%
%TO.N,IMONA*%
G36*
X81730000Y-31685000D02*
G01*
X47340000Y-31685000D01*
X47340000Y-31235000D01*
X81730000Y-31235000D01*
X81730000Y-31685000D01*
G37*
%TD.AperFunction*%
%TA.AperFunction,Conductor*%
%TO.N,IMONB*%
G36*
X81730000Y-36765000D02*
G01*
X47340000Y-36765000D01*
X47340000Y-36315000D01*
X81730000Y-36315000D01*
X81730000Y-36765000D01*
G37*
%TD.AperFunction*%
%TA.AperFunction,Conductor*%
%TO.N,TEMPA*%
G36*
X56625000Y-28920000D02*
G01*
X56175000Y-28920000D01*
X56175000Y-14000000D01*
X56625000Y-14000000D01*
X56625000Y-28920000D01*
G37*
%TD.AperFunction*%
%TA.AperFunction,Conductor*%
%TO.N,TEMPB*%
G36*
X56625000Y-54000000D02*
G01*
X56175000Y-54000000D01*
X56175000Y-41620000D01*
X56625000Y-41620000D01*
X56625000Y-54000000D01*
G37*
%TD.AperFunction*%
%TA.AperFunction,Conductor*%
%TO.N,TEMPA*%
G36*
X81730000Y-29145000D02*
G01*
X56400000Y-29145000D01*
X56400000Y-28695000D01*
X81730000Y-28695000D01*
X81730000Y-29145000D01*
G37*
%TD.AperFunction*%
%TA.AperFunction,Conductor*%
%TO.N,TEMPB*%
G36*
X81730000Y-41845000D02*
G01*
X56400000Y-41845000D01*
X56400000Y-41394999D01*
X81730000Y-41394999D01*
X81730000Y-41845000D01*
G37*
%TD.AperFunction*%
%TA.AperFunction,Conductor*%
%TO.N,EN*%
G36*
X58275000Y-28000000D02*
G01*
X57824999Y-28000000D01*
X57824999Y-26380000D01*
X58275000Y-26380000D01*
X58275000Y-28000000D01*
G37*
%TD.AperFunction*%
%TA.AperFunction,Conductor*%
G36*
X81730000Y-26605000D02*
G01*
X58050000Y-26605000D01*
X58050000Y-26155000D01*
X81730000Y-26155000D01*
X81730000Y-26605000D01*
G37*
%TD.AperFunction*%
%TD*%
D11*
%TO.N,GND*%
%TO.C,H87_5*%
X87000000Y-63000000D03*
%TD*%
%TO.N,GND*%
%TO.C,H5_63*%
X5000000Y-5000000D03*
%TD*%
%TO.N,GND*%
%TO.C,H20_52*%
X20000000Y-16000000D03*
%TD*%
D12*
%TO.N,EN*%
%TO.C,J5*%
X81730000Y-26380000D03*
%TO.N,GND*%
X84270000Y-26380000D03*
%TO.N,TEMPA*%
X81730000Y-28920000D03*
%TO.N,GND*%
X84270000Y-28920000D03*
%TO.N,IMONA*%
X81730000Y-31460000D03*
%TO.N,GND*%
X84270000Y-31460000D03*
%TO.N,DETA*%
X81730000Y-34000000D03*
%TO.N,GND*%
X84270000Y-34000000D03*
%TO.N,IMONB*%
X81730000Y-36540000D03*
%TO.N,GND*%
X84270000Y-36540000D03*
%TO.N,DETB*%
X81730000Y-39080000D03*
%TO.N,GND*%
X84270000Y-39080000D03*
%TO.N,TEMPB*%
X81730000Y-41620000D03*
%TO.N,GND*%
X84270000Y-41620000D03*
%TD*%
D11*
%TO.N,GND*%
%TO.C,H20_16*%
X20000000Y-52000000D03*
%TD*%
%TO.N,GND*%
%TO.C,H5_5*%
X5000000Y-63000000D03*
%TD*%
%TO.N,GND*%
%TO.C,H87_63*%
X87000000Y-5000000D03*
%TD*%
D13*
%TO.N,DETA*%
X42430000Y-2315415D03*
%TO.N,DETB*%
X42430000Y-65684584D03*
%TO.N,EN*%
X58050000Y-28000000D03*
D14*
%TO.N,GND*%
X48000000Y-53000000D03*
X12000000Y-41000000D03*
X81000000Y-14000000D03*
X84000000Y-44000000D03*
X63227093Y-1200000D03*
D15*
X38600000Y-58600000D03*
D14*
X48000000Y-14000000D03*
D16*
X40480000Y-56760000D03*
X36760000Y-58620000D03*
D14*
X60000000Y-53000000D03*
X63227093Y-66800000D03*
X33000000Y-5000000D03*
X24000000Y-5000000D03*
D16*
X39240000Y-11240000D03*
D14*
X6000000Y-20000000D03*
X12000000Y-62000000D03*
X18000000Y-38000000D03*
X88259999Y-60754864D03*
X78000000Y-44000000D03*
X69000000Y-50000000D03*
X27000000Y-5000000D03*
X63000000Y-44000000D03*
X33000000Y-62000000D03*
X68736822Y-65530000D03*
D16*
X39240000Y-59860000D03*
D14*
X6000000Y-35000000D03*
X3000000Y-32000000D03*
D16*
X35520000Y-11240000D03*
D17*
X23650000Y-23000000D03*
X45170000Y-20424152D03*
X52850000Y-25504152D03*
D14*
X78000000Y-53000000D03*
D17*
X64099999Y-56830000D03*
D14*
X9000000Y-32000000D03*
D16*
X40480000Y-55519999D03*
X37380000Y-11240000D03*
D14*
X66000000Y-53000000D03*
X6000000Y-50000000D03*
X48000000Y-17000000D03*
X63000000Y-50000000D03*
X24000000Y-65000000D03*
X36000000Y-5000000D03*
X48000000Y-47000000D03*
X6000000Y-47000000D03*
D17*
X47400000Y-24374152D03*
X22000000Y-46130000D03*
D14*
X36000000Y-17000000D03*
D17*
X23595736Y-6637064D03*
D14*
X75000000Y-53000000D03*
D16*
X39240000Y-55519999D03*
D14*
X30000000Y-53000000D03*
X27000000Y-14000000D03*
X66000000Y-56000000D03*
X90800000Y-12754864D03*
X36000000Y-14000000D03*
X6000000Y-23000000D03*
D17*
X23595736Y-61362935D03*
D14*
X3000000Y-44000000D03*
X1200000Y-7245135D03*
X78000000Y-14000000D03*
D16*
X35520000Y-12479999D03*
D14*
X87000000Y-29000000D03*
X3740000Y-60754864D03*
X6000000Y-14000000D03*
X18000000Y-23000000D03*
X81000000Y-62000000D03*
X18000000Y-5000000D03*
X68736822Y-3740000D03*
D17*
X73300000Y-13200000D03*
D14*
X3000000Y-23000000D03*
X27000000Y-38000000D03*
D17*
X45170000Y-47575847D03*
D14*
X30000000Y-14000000D03*
D17*
X51150000Y-42495847D03*
D15*
X37400000Y-9399999D03*
D14*
X27000000Y-17000000D03*
X81000000Y-65000000D03*
D17*
X48215000Y-1145415D03*
D14*
X30000000Y-50000000D03*
X1200000Y-60754864D03*
X15000000Y-17000000D03*
X66000000Y-47000000D03*
X6000000Y-38000000D03*
X81000000Y-53000000D03*
X63000000Y-23000000D03*
X12000000Y-38000000D03*
X33000000Y-50000000D03*
X9000000Y-20000000D03*
X15000000Y-50000000D03*
X63000000Y-53000000D03*
X66000000Y-44000000D03*
X12000000Y-35000000D03*
X90800000Y-60754864D03*
X57000000Y-5000000D03*
X68736822Y-64260000D03*
X33000000Y-65000000D03*
D16*
X37380000Y-12479999D03*
X38620000Y-12479999D03*
D14*
X87000000Y-50000000D03*
X39000000Y-14000000D03*
X54000000Y-17000000D03*
X39000000Y-44000000D03*
D16*
X38000000Y-11860000D03*
D14*
X3000000Y-26000000D03*
X39000000Y-38000000D03*
X69000000Y-47000000D03*
X15000000Y-35000000D03*
X87000000Y-35000000D03*
D16*
X38620000Y-56760000D03*
X36760000Y-12479999D03*
D14*
X33000000Y-17000000D03*
X27000000Y-50000000D03*
D17*
X35070000Y-25049999D03*
D14*
X30000000Y-17000000D03*
X24000000Y-41000000D03*
D16*
X36760000Y-9380000D03*
D14*
X21000000Y-5000000D03*
X78000000Y-5000000D03*
X6000000Y-26000000D03*
X39000000Y-62000000D03*
X78000000Y-47000000D03*
X39000000Y-5000000D03*
D17*
X54000000Y-1145415D03*
D14*
X15000000Y-26000000D03*
X89530000Y-12754864D03*
X9000000Y-23000000D03*
X3000000Y-50000000D03*
D17*
X80150000Y-21200000D03*
D16*
X37380000Y-55519999D03*
D14*
X72000000Y-5000000D03*
D17*
X73300000Y-54800000D03*
D16*
X36760000Y-60480000D03*
X40480000Y-60480000D03*
D17*
X33369999Y-42950000D03*
D14*
X48000000Y-5000000D03*
X30000000Y-65000000D03*
X33000000Y-14000000D03*
X6000000Y-17000000D03*
X72000000Y-47000000D03*
X69000000Y-44000000D03*
D16*
X35520000Y-8759999D03*
D14*
X66000000Y-14000000D03*
X87000000Y-41000000D03*
X9000000Y-38000000D03*
X9000000Y-14000000D03*
X75000000Y-14000000D03*
X87000000Y-53000000D03*
X15000000Y-38000000D03*
D16*
X36760000Y-56760000D03*
D14*
X90800000Y-7245135D03*
X2469999Y-12754864D03*
D16*
X37380000Y-8759999D03*
X36140000Y-59240000D03*
D17*
X52000000Y-52830000D03*
D14*
X9000000Y-26000000D03*
X12000000Y-50000000D03*
D16*
X39860000Y-56140000D03*
D14*
X9000000Y-29000000D03*
X88259999Y-12754864D03*
X12000000Y-17000000D03*
D17*
X44815000Y-1145415D03*
D16*
X36140000Y-56140000D03*
D14*
X60000000Y-50000000D03*
D17*
X81850000Y-21200000D03*
D14*
X36000000Y-23000000D03*
X36000000Y-65000000D03*
X90800000Y-55245135D03*
X84000000Y-50000000D03*
X12000000Y-32000000D03*
D16*
X36760000Y-55519999D03*
D14*
X63000000Y-47000000D03*
X6000000Y-44000000D03*
D17*
X33369999Y-25049999D03*
D16*
X36760000Y-11240000D03*
D14*
X81000000Y-47000000D03*
X18000000Y-35000000D03*
X3740000Y-7245135D03*
X27000000Y-53000000D03*
X54000000Y-20000000D03*
D17*
X22000000Y-21870000D03*
D14*
X30000000Y-44000000D03*
X39000000Y-50000000D03*
D16*
X40480000Y-12479999D03*
D14*
X78000000Y-50000000D03*
X12000000Y-14000000D03*
X87000000Y-44000000D03*
X75000000Y-62000000D03*
D16*
X39860000Y-59240000D03*
D14*
X39000000Y-17000000D03*
D15*
X38600000Y-10600000D03*
D14*
X15000000Y-65000000D03*
X51000000Y-17000000D03*
X84000000Y-53000000D03*
X15000000Y-41000000D03*
X60000000Y-47000000D03*
X57000000Y-65000000D03*
X33000000Y-23000000D03*
D16*
X35520000Y-60480000D03*
D14*
X2469999Y-7245135D03*
D16*
X38620000Y-11240000D03*
D14*
X6000000Y-41000000D03*
X30000000Y-23000000D03*
X18000000Y-26000000D03*
X15000000Y-32000000D03*
X89530000Y-60754864D03*
X87000000Y-26000000D03*
D17*
X68751957Y-6000000D03*
D14*
X87000000Y-47000000D03*
D16*
X39240000Y-58620000D03*
D17*
X70700000Y-13200000D03*
D14*
X15000000Y-29000000D03*
X9000000Y-50000000D03*
X18000000Y-62000000D03*
D16*
X36760000Y-57380000D03*
X36760000Y-10619999D03*
D14*
X72000000Y-50000000D03*
X33000000Y-38000000D03*
X15000000Y-47000000D03*
X30000000Y-38000000D03*
D17*
X54000000Y-66854584D03*
D15*
X38600000Y-10000000D03*
D14*
X69000000Y-53000000D03*
D16*
X38620000Y-59860000D03*
D17*
X35070000Y-42950000D03*
X52850000Y-42495847D03*
D16*
X38620000Y-7520000D03*
X36760000Y-7520000D03*
D14*
X45000000Y-5000000D03*
X12000000Y-5000000D03*
X89530000Y-55245135D03*
D17*
X52000000Y-15170000D03*
D14*
X15000000Y-5000000D03*
X63227093Y-3740000D03*
D16*
X36760000Y-59860000D03*
D14*
X63227093Y-65530000D03*
D16*
X39240000Y-9380000D03*
D17*
X84200000Y-22330000D03*
D14*
X60000000Y-44000000D03*
X51000000Y-20000000D03*
X48000000Y-20000000D03*
D15*
X19736106Y-9500000D03*
D14*
X18000000Y-44000000D03*
X36000000Y-50000000D03*
D17*
X68751957Y-62000000D03*
D16*
X38000000Y-8140000D03*
D17*
X67900000Y-11170000D03*
D16*
X38000000Y-56140000D03*
D14*
X81000000Y-44000000D03*
X60000000Y-14000000D03*
D17*
X51150000Y-25504152D03*
D14*
X66000000Y-50000000D03*
X12000000Y-47000000D03*
D16*
X39240000Y-8759999D03*
D14*
X18000000Y-29000000D03*
D16*
X35520000Y-7520000D03*
D15*
X38000000Y-57400000D03*
D17*
X76650000Y-20759999D03*
D15*
X19736106Y-57500000D03*
X38000000Y-58600000D03*
X37400000Y-58600000D03*
D14*
X63227093Y-2469999D03*
X15000000Y-53000000D03*
X68736822Y-2469999D03*
D15*
X19736106Y-10500000D03*
D14*
X15000000Y-23000000D03*
X15000000Y-14000000D03*
X27000000Y-65000000D03*
X9000000Y-41000000D03*
X54000000Y-47000000D03*
X9000000Y-47000000D03*
X72000000Y-53000000D03*
D17*
X70700000Y-54800000D03*
D14*
X72000000Y-23000000D03*
D16*
X38620000Y-55519999D03*
D14*
X33000000Y-53000000D03*
D17*
X23650000Y-45000000D03*
D16*
X35520000Y-59860000D03*
X37380000Y-7520000D03*
D17*
X48215000Y-66854584D03*
D16*
X38620000Y-60480000D03*
D14*
X1200000Y-12754864D03*
D16*
X39240000Y-56760000D03*
X39860000Y-8140000D03*
D14*
X88259999Y-55245135D03*
X68736822Y-1200000D03*
X51000000Y-47000000D03*
X51000000Y-62000000D03*
D16*
X35520000Y-55519999D03*
D14*
X9000000Y-44000000D03*
D15*
X37400000Y-10000000D03*
D14*
X9000000Y-35000000D03*
X24000000Y-29000000D03*
X54000000Y-29000000D03*
X84000000Y-47000000D03*
X3740000Y-12754864D03*
X12000000Y-23000000D03*
X36000000Y-62000000D03*
X88259999Y-7245135D03*
X72000000Y-62000000D03*
D15*
X38600000Y-9399999D03*
D14*
X3000000Y-41000000D03*
D15*
X38000000Y-9399999D03*
X19736106Y-58500000D03*
D14*
X12000000Y-20000000D03*
X87000000Y-38000000D03*
D16*
X36140000Y-8140000D03*
D14*
X2469999Y-60754864D03*
X78000000Y-65000000D03*
X69000000Y-14000000D03*
X30000000Y-5000000D03*
D16*
X35520000Y-56760000D03*
X37380000Y-60480000D03*
X40480000Y-11240000D03*
X39240000Y-57380000D03*
D14*
X3000000Y-38000000D03*
X63000000Y-14000000D03*
X66000000Y-23000000D03*
X69000000Y-23000000D03*
D17*
X45700000Y-43625847D03*
D14*
X63227093Y-64260000D03*
X15000000Y-62000000D03*
D16*
X40480000Y-59860000D03*
D15*
X38000000Y-10600000D03*
D16*
X40480000Y-7520000D03*
D15*
X38000000Y-10000000D03*
D17*
X46514999Y-1145415D03*
D14*
X75000000Y-5000000D03*
X24000000Y-26000000D03*
X9000000Y-17000000D03*
X6000000Y-32000000D03*
D17*
X46514999Y-66854584D03*
D14*
X15000000Y-44000000D03*
X18000000Y-41000000D03*
X84000000Y-14000000D03*
X21000000Y-65000000D03*
X3000000Y-17000000D03*
D16*
X39240000Y-7520000D03*
D14*
X54000000Y-50000000D03*
X75000000Y-65000000D03*
X72000000Y-44000000D03*
D16*
X40480000Y-8759999D03*
D17*
X67900000Y-56830000D03*
D16*
X36140000Y-11860000D03*
D14*
X89530000Y-7245135D03*
D17*
X44815000Y-66854584D03*
D14*
X75000000Y-50000000D03*
D16*
X37380000Y-59860000D03*
D14*
X36000000Y-53000000D03*
X48000000Y-62000000D03*
D16*
X38000000Y-59240000D03*
D14*
X60000000Y-5000000D03*
X6000000Y-53000000D03*
X3740000Y-55245135D03*
D16*
X37380000Y-56760000D03*
D17*
X59800000Y-35255000D03*
D14*
X18000000Y-65000000D03*
D16*
X39240000Y-60480000D03*
D14*
X68736822Y-66800000D03*
X12000000Y-26000000D03*
X3000000Y-35000000D03*
X39000000Y-23000000D03*
D17*
X25350000Y-45000000D03*
D16*
X39240000Y-10619999D03*
D14*
X21000000Y-62000000D03*
X81000000Y-5000000D03*
X3000000Y-20000000D03*
X1200000Y-55245135D03*
D16*
X39860000Y-11860000D03*
D14*
X3000000Y-29000000D03*
X27000000Y-62000000D03*
X12000000Y-65000000D03*
X75000000Y-44000000D03*
X87000000Y-32000000D03*
X51000000Y-50000000D03*
D16*
X39240000Y-12479999D03*
D17*
X47400000Y-43625847D03*
D14*
X3000000Y-47000000D03*
X9000000Y-53000000D03*
D16*
X38620000Y-8759999D03*
D14*
X2469999Y-55245135D03*
D17*
X64099999Y-11170000D03*
D14*
X12000000Y-29000000D03*
D17*
X78350000Y-20759999D03*
X45700000Y-24374152D03*
D14*
X12000000Y-44000000D03*
X6000000Y-29000000D03*
X45000000Y-62000000D03*
X18000000Y-47000000D03*
X30000000Y-62000000D03*
X81000000Y-50000000D03*
X18000000Y-32000000D03*
X12000000Y-53000000D03*
D15*
X37400000Y-57400000D03*
D16*
X36760000Y-8759999D03*
D17*
X25350000Y-23000000D03*
D14*
X75000000Y-47000000D03*
X15000000Y-20000000D03*
X39000000Y-65000000D03*
X60000000Y-23000000D03*
X24000000Y-38000000D03*
X39000000Y-53000000D03*
D15*
X38600000Y-57400000D03*
D14*
X48000000Y-50000000D03*
X51000000Y-5000000D03*
D15*
X37400000Y-10600000D03*
D14*
X78000000Y-62000000D03*
X36000000Y-38000000D03*
D13*
%TO.N,IMONA*%
X47340000Y-31750000D03*
%TO.N,IMONB*%
X47340000Y-36250000D03*
%TO.N,TEMPA*%
X56400000Y-14000000D03*
%TO.N,TEMPB*%
X56400000Y-54000000D03*
%TD*%
M02*
