%TF.GenerationSoftware,KiCad,Pcbnew,10.0.5*%
%TF.CreationDate,2026-08-09T11:14:27+01:00*%
%TF.ProjectId,radar_5g8_transmit,72616461-725f-4356-9738-5f7472616e73,rev?*%
%TF.SameCoordinates,Original*%
%TF.FileFunction,Drillmap*%
%TF.FilePolarity,Positive*%
%FSLAX45Y45*%
G04 Gerber Fmt 4.5, Leading zero omitted, Abs format (unit mm)*
G04 Created by KiCad (PCBNEW 10.0.5) date 2026-08-09 11:14:27*
%MOMM*%
%LPD*%
G01*
G04 APERTURE LIST*
%ADD10C,0.100000*%
%ADD11C,0.200000*%
G04 APERTURE END LIST*
D10*
X0Y-80000D02*
X0Y-4657300D01*
X0Y-80000D02*
G75*
G02*
X80000Y0I80000J0D01*
G01*
X80000Y-4737300D02*
G75*
G02*
X0Y-4657300I0J80000D01*
G01*
X80000Y-4737300D02*
X7068505Y-4737300D01*
X7068505Y0D02*
X80000Y0D01*
X7068505Y0D02*
G75*
G02*
X7148500Y-80000I5J-79990D01*
G01*
X7148505Y-4657300D02*
G75*
G02*
X7068505Y-4737295I-79995J0D01*
G01*
X7148505Y-4657300D02*
X7148505Y-80000D01*
D11*
X255777Y-5053784D02*
X255777Y-4853784D01*
X255777Y-4853784D02*
X303396Y-4853784D01*
X303396Y-4853784D02*
X331967Y-4863308D01*
X331967Y-4863308D02*
X351015Y-4882355D01*
X351015Y-4882355D02*
X360539Y-4901403D01*
X360539Y-4901403D02*
X370062Y-4939498D01*
X370062Y-4939498D02*
X370062Y-4968070D01*
X370062Y-4968070D02*
X360539Y-5006165D01*
X360539Y-5006165D02*
X351015Y-5025212D01*
X351015Y-5025212D02*
X331967Y-5044260D01*
X331967Y-5044260D02*
X303396Y-5053784D01*
X303396Y-5053784D02*
X255777Y-5053784D01*
X455777Y-5053784D02*
X455777Y-4920450D01*
X455777Y-4958546D02*
X465301Y-4939498D01*
X465301Y-4939498D02*
X474824Y-4929974D01*
X474824Y-4929974D02*
X493872Y-4920450D01*
X493872Y-4920450D02*
X512920Y-4920450D01*
X579586Y-5053784D02*
X579586Y-4920450D01*
X579586Y-4853784D02*
X570063Y-4863308D01*
X570063Y-4863308D02*
X579586Y-4872831D01*
X579586Y-4872831D02*
X589110Y-4863308D01*
X589110Y-4863308D02*
X579586Y-4853784D01*
X579586Y-4853784D02*
X579586Y-4872831D01*
X703396Y-5053784D02*
X684348Y-5044260D01*
X684348Y-5044260D02*
X674824Y-5025212D01*
X674824Y-5025212D02*
X674824Y-4853784D01*
X808158Y-5053784D02*
X789110Y-5044260D01*
X789110Y-5044260D02*
X779586Y-5025212D01*
X779586Y-5025212D02*
X779586Y-4853784D01*
X1036729Y-5053784D02*
X1036729Y-4853784D01*
X1036729Y-4853784D02*
X1103396Y-4996641D01*
X1103396Y-4996641D02*
X1170063Y-4853784D01*
X1170063Y-4853784D02*
X1170063Y-5053784D01*
X1351015Y-5053784D02*
X1351015Y-4949022D01*
X1351015Y-4949022D02*
X1341491Y-4929974D01*
X1341491Y-4929974D02*
X1322444Y-4920450D01*
X1322444Y-4920450D02*
X1284348Y-4920450D01*
X1284348Y-4920450D02*
X1265301Y-4929974D01*
X1351015Y-5044260D02*
X1331967Y-5053784D01*
X1331967Y-5053784D02*
X1284348Y-5053784D01*
X1284348Y-5053784D02*
X1265301Y-5044260D01*
X1265301Y-5044260D02*
X1255777Y-5025212D01*
X1255777Y-5025212D02*
X1255777Y-5006165D01*
X1255777Y-5006165D02*
X1265301Y-4987117D01*
X1265301Y-4987117D02*
X1284348Y-4977593D01*
X1284348Y-4977593D02*
X1331967Y-4977593D01*
X1331967Y-4977593D02*
X1351015Y-4968070D01*
X1446253Y-4920450D02*
X1446253Y-5120450D01*
X1446253Y-4929974D02*
X1465301Y-4920450D01*
X1465301Y-4920450D02*
X1503396Y-4920450D01*
X1503396Y-4920450D02*
X1522443Y-4929974D01*
X1522443Y-4929974D02*
X1531967Y-4939498D01*
X1531967Y-4939498D02*
X1541491Y-4958546D01*
X1541491Y-4958546D02*
X1541491Y-5015689D01*
X1541491Y-5015689D02*
X1531967Y-5034736D01*
X1531967Y-5034736D02*
X1522443Y-5044260D01*
X1522443Y-5044260D02*
X1503396Y-5053784D01*
X1503396Y-5053784D02*
X1465301Y-5053784D01*
X1465301Y-5053784D02*
X1446253Y-5044260D01*
X1627205Y-5034736D02*
X1636729Y-5044260D01*
X1636729Y-5044260D02*
X1627205Y-5053784D01*
X1627205Y-5053784D02*
X1617682Y-5044260D01*
X1617682Y-5044260D02*
X1627205Y-5034736D01*
X1627205Y-5034736D02*
X1627205Y-5053784D01*
X1627205Y-4929974D02*
X1636729Y-4939498D01*
X1636729Y-4939498D02*
X1627205Y-4949022D01*
X1627205Y-4949022D02*
X1617682Y-4939498D01*
X1617682Y-4939498D02*
X1627205Y-4929974D01*
X1627205Y-4929974D02*
X1627205Y-4949022D01*
M02*
