%TF.GenerationSoftware,KiCad,Pcbnew,10.0.5*%
%TF.CreationDate,2026-08-09T20:52:47+01:00*%
%TF.ProjectId,radar_5g8_transmit,72616461-725f-4356-9738-5f7472616e73,rev?*%
%TF.SameCoordinates,Original*%
%TF.FileFunction,Other,User*%
%FSLAX46Y46*%
G04 Gerber Fmt 4.6, Leading zero omitted, Abs format (unit mm)*
G04 Created by KiCad (PCBNEW 10.0.5) date 2026-08-09 20:52:47*
%MOMM*%
%LPD*%
G01*
G04 APERTURE LIST*
%ADD10C,0.050000*%
G04 APERTURE END LIST*
%TO.C,TX1*%
D10*
X1453336Y-43937000D02*
X11346664Y-43937000D01*
X11346664Y-47337000D01*
X1453336Y-47337000D01*
X1453336Y-43937000D01*
%TO.C,H1*%
X750000Y-987000D02*
X7250000Y-987000D01*
X7250000Y-7487000D01*
X750000Y-7487000D01*
X750000Y-987000D01*
%TO.C,R1*%
X14648231Y-39436985D02*
X16148231Y-39436985D01*
X16148231Y-43336983D01*
X14648231Y-43336983D01*
X14648231Y-39436985D01*
%TO.C,TX2*%
X51497242Y-43937000D02*
X61390570Y-43937000D01*
X61390570Y-47337000D01*
X51497242Y-47337000D01*
X51497242Y-43937000D01*
%TO.C,H3*%
X30750000Y-39987000D02*
X37250000Y-39987000D01*
X37250000Y-46487000D01*
X30750000Y-46487000D01*
X30750000Y-39987000D01*
%TO.C,R2*%
X64692137Y-39436985D02*
X66192137Y-39436985D01*
X66192137Y-43336983D01*
X64692137Y-43336983D01*
X64692137Y-39436985D01*
%TO.C,H4*%
X39750000Y-26987000D02*
X46250000Y-26987000D01*
X46250000Y-33487000D01*
X39750000Y-33487000D01*
X39750000Y-26987000D01*
%TO.C,H2*%
X63750000Y-3987000D02*
X70250000Y-3987000D01*
X70250000Y-10487000D01*
X63750000Y-10487000D01*
X63750000Y-3987000D01*
%TO.C,H5*%
X25750000Y-26987000D02*
X32250000Y-26987000D01*
X32250000Y-33487000D01*
X25750000Y-33487000D01*
X25750000Y-26987000D01*
%TD*%
M02*
