%TF.GenerationSoftware,KiCad,Pcbnew,10.0.5*%
%TF.CreationDate,2026-08-09T20:45:44+01:00*%
%TF.ProjectId,radar_5g8_transmit,72616461-725f-4356-9738-5f7472616e73,rev?*%
%TF.SameCoordinates,Original*%
%TF.FileFunction,Soldermask,Bot*%
%TF.FilePolarity,Negative*%
%FSLAX46Y46*%
G04 Gerber Fmt 4.6, Leading zero omitted, Abs format (unit mm)*
G04 Created by KiCad (PCBNEW 10.0.5) date 2026-08-09 20:45:44*
%MOMM*%
%LPD*%
G01*
G04 APERTURE LIST*
%ADD10C,0.000000*%
%ADD11C,6.100000*%
G04 APERTURE END LIST*
D10*
G36*
X1000000Y-46237000D02*
G01*
X1000000Y-46437000D01*
X998288Y-46410894D01*
X993185Y-46385236D01*
X984775Y-46360463D01*
X973205Y-46337000D01*
X958670Y-46315247D01*
X941421Y-46295578D01*
X921752Y-46278329D01*
X900000Y-46263794D01*
X876536Y-46252224D01*
X851763Y-46243814D01*
X826105Y-46238711D01*
X800000Y-46237000D01*
X1000000Y-46237000D01*
G37*
G36*
X70541980Y-46237000D02*
G01*
X70515874Y-46238711D01*
X70490216Y-46243814D01*
X70465443Y-46252224D01*
X70441980Y-46263794D01*
X70420227Y-46278329D01*
X70400558Y-46295578D01*
X70383309Y-46315247D01*
X70368774Y-46337000D01*
X70357204Y-46360463D01*
X70348794Y-46385236D01*
X70343691Y-46410894D01*
X70341980Y-46437000D01*
X70341980Y-46237000D01*
X70541980Y-46237000D01*
G37*
G36*
X70341980Y-1000000D02*
G01*
X70341980Y-46237000D01*
X1000000Y-46237000D01*
X1000000Y-1000000D01*
X70341980Y-1000000D01*
G37*
G36*
X70343691Y-826105D02*
G01*
X70348794Y-851763D01*
X70357204Y-876536D01*
X70368774Y-899999D01*
X70383309Y-921752D01*
X70400558Y-941421D01*
X70420227Y-958670D01*
X70441980Y-973205D01*
X70465443Y-984775D01*
X70490216Y-993185D01*
X70515874Y-998288D01*
X70541980Y-1000000D01*
X70341980Y-1000000D01*
X70341980Y-799999D01*
X70343691Y-826105D01*
G37*
G36*
X1000000Y-1000000D02*
G01*
X800000Y-1000000D01*
X826105Y-998288D01*
X851763Y-993185D01*
X876536Y-984775D01*
X900000Y-973205D01*
X921752Y-958670D01*
X941421Y-941421D01*
X958670Y-921752D01*
X973205Y-899999D01*
X984775Y-876536D01*
X993185Y-851763D01*
X998288Y-826105D01*
X1000000Y-799999D01*
X1000000Y-1000000D01*
G37*
D11*
%TO.C,H5*%
X29000000Y-30237000D03*
%TD*%
%TO.C,H3*%
X34000000Y-43237000D03*
%TD*%
%TO.C,H2*%
X67000000Y-7237000D03*
%TD*%
%TO.C,H4*%
X43000000Y-30237000D03*
%TD*%
%TO.C,H1*%
X4000000Y-4237000D03*
%TD*%
M02*
