%TF.GenerationSoftware,KiCad,Pcbnew,10.0.5*%
%TF.CreationDate,2026-08-09T16:14:00+01:00*%
%TF.ProjectId,radar_5g8_transmit,72616461-725f-4356-9738-5f7472616e73,rev?*%
%TF.SameCoordinates,Original*%
%TF.FileFunction,Soldermask,Top*%
%TF.FilePolarity,Negative*%
%FSLAX46Y46*%
G04 Gerber Fmt 4.6, Leading zero omitted, Abs format (unit mm)*
G04 Created by KiCad (PCBNEW 10.0.5) date 2026-08-09 16:14:00*
%MOMM*%
%LPD*%
G01*
G04 APERTURE LIST*
G04 Aperture macros list*
%AMRoundRect*
0 Rectangle with rounded corners*
0 $1 Rounding radius*
0 $2 $3 $4 $5 $6 $7 $8 $9 X,Y pos of 4 corners*
0 Add a 4 corners polygon primitive as box body*
4,1,4,$2,$3,$4,$5,$6,$7,$8,$9,$2,$3,0*
0 Add four circle primitives for the rounded corners*
1,1,$1+$1,$2,$3*
1,1,$1+$1,$4,$5*
1,1,$1+$1,$6,$7*
1,1,$1+$1,$8,$9*
0 Add four rect primitives between the rounded corners*
20,1,$1+$1,$2,$3,$4,$5,0*
20,1,$1+$1,$4,$5,$6,$7,0*
20,1,$1+$1,$6,$7,$8,$9,0*
20,1,$1+$1,$8,$9,$2,$3,0*%
G04 Aperture macros list end*
%ADD10C,0.000000*%
%ADD11RoundRect,0.050000X-0.926764X-1.150000X0.926764X-1.150000X0.926764X1.150000X-0.926764X1.150000X0*%
%ADD12RoundRect,0.050000X-1.300000X-1.450000X1.300000X-1.450000X1.300000X1.450000X-1.300000X1.450000X0*%
%ADD13C,6.100000*%
%ADD14RoundRect,0.050000X0.310000X-0.310000X0.310000X0.310000X-0.310000X0.310000X-0.310000X-0.310000X0*%
G04 APERTURE END LIST*
D10*
G36*
X4794306Y-47237000D02*
G01*
X-599999Y-47237000D01*
X-599999Y-40237000D01*
X4794306Y-40237000D01*
X4794306Y-47237000D01*
G37*
G36*
X7617734Y-47237000D02*
G01*
X5182266Y-47237000D01*
X5182266Y-40237000D01*
X7617734Y-40237000D01*
X7617734Y-47237000D01*
G37*
G36*
X13400000Y-47237000D02*
G01*
X8005694Y-47237000D01*
X8005694Y-40237000D01*
X13400000Y-40237000D01*
X13400000Y-47237000D01*
G37*
G36*
X54838212Y-47237000D02*
G01*
X49443906Y-47237000D01*
X49443906Y-40237000D01*
X54838212Y-40237000D01*
X54838212Y-47237000D01*
G37*
G36*
X57661640Y-47237000D02*
G01*
X55226172Y-47237000D01*
X55226172Y-40237000D01*
X57661640Y-40237000D01*
X57661640Y-47237000D01*
G37*
G36*
X63443906Y-47237000D02*
G01*
X58049600Y-47237000D01*
X58049600Y-40237000D01*
X63443906Y-40237000D01*
X63443906Y-47237000D01*
G37*
G36*
X48429809Y-40271074D02*
G01*
X48670990Y-40370974D01*
X48878096Y-40529893D01*
X49037015Y-40737000D01*
X49136915Y-40978180D01*
X49170990Y-41237000D01*
X49136915Y-41495819D01*
X49037015Y-41737000D01*
X49006863Y-41776294D01*
X48901185Y-41562000D01*
X48657733Y-41197649D01*
X48368807Y-40868192D01*
X48039350Y-40579266D01*
X47705948Y-40356493D01*
X47912170Y-40271074D01*
X48170990Y-40237000D01*
X48429809Y-40271074D01*
G37*
G36*
X63764148Y-5104043D02*
G01*
X63905003Y-5518989D01*
X64098814Y-5911999D01*
X64342266Y-6276350D01*
X64631192Y-6605807D01*
X64960649Y-6894733D01*
X65325000Y-7138185D01*
X65718010Y-7331996D01*
X66132956Y-7472851D01*
X66562737Y-7558340D01*
X67000000Y-7587000D01*
X67437262Y-7558340D01*
X67867043Y-7472851D01*
X68079000Y-7400901D01*
X68079000Y-38236984D01*
X40786000Y-38236984D01*
X40786000Y-4984999D01*
X63740469Y-4984999D01*
X63764148Y-5104043D01*
G37*
G36*
X31056000Y-38236984D02*
G01*
X27190713Y-38236984D01*
X27094996Y-37955010D01*
X26901185Y-37562000D01*
X26657733Y-37197649D01*
X26368807Y-36868192D01*
X26039350Y-36579266D01*
X25675000Y-36335814D01*
X25281989Y-36142003D01*
X24867043Y-36001148D01*
X24437262Y-35915659D01*
X24000000Y-35887000D01*
X23562737Y-35915659D01*
X23132956Y-36001148D01*
X22718010Y-36142003D01*
X22325000Y-36335814D01*
X21960649Y-36579266D01*
X21631192Y-36868192D01*
X21342266Y-37197649D01*
X21098814Y-37562000D01*
X20905003Y-37955010D01*
X20809286Y-38236984D01*
X3764000Y-38236984D01*
X3764000Y-7571531D01*
X3999999Y-7587000D01*
X4437262Y-7558340D01*
X4867043Y-7472851D01*
X5281989Y-7331996D01*
X5675000Y-7138185D01*
X6039350Y-6894733D01*
X6368807Y-6605807D01*
X6657733Y-6276350D01*
X6901185Y-5912000D01*
X7094996Y-5518989D01*
X7235851Y-5104043D01*
X7259530Y-4984999D01*
X31056000Y-4984999D01*
X31056000Y-38236984D01*
G37*
D11*
%TO.C,TX1*%
X6400000Y-45937000D03*
D12*
X3003336Y-45637000D03*
X9796664Y-45637000D03*
%TD*%
D13*
%TO.C,H4*%
X24000000Y-39237000D03*
%TD*%
D14*
%TO.C,R2*%
X65442137Y-39871984D03*
X65442137Y-41041984D03*
%TD*%
D13*
%TO.C,H5*%
X36000000Y-34237000D03*
%TD*%
%TO.C,H1*%
X46000000Y-43237000D03*
%TD*%
%TO.C,H3*%
X67000000Y-4237000D03*
%TD*%
%TO.C,H2*%
X4000000Y-4237000D03*
%TD*%
D11*
%TO.C,TX2*%
X56443906Y-45937000D03*
D12*
X53047242Y-45637000D03*
X59840570Y-45637000D03*
%TD*%
D14*
%TO.C,R1*%
X15398231Y-39871984D03*
X15398231Y-41041984D03*
%TD*%
M02*
