%TF.GenerationSoftware,KiCad,Pcbnew,10.0.5*%
%TF.CreationDate,2026-08-09T20:55:21+01:00*%
%TF.ProjectId,radar_5g8_transmit,72616461-725f-4356-9738-5f7472616e73,rev?*%
%TF.SameCoordinates,Original*%
%TF.FileFunction,Legend,Bot*%
%TF.FilePolarity,Positive*%
%FSLAX46Y46*%
G04 Gerber Fmt 4.6, Leading zero omitted, Abs format (unit mm)*
G04 Created by KiCad (PCBNEW 10.0.5) date 2026-08-09 20:55:21*
%MOMM*%
%LPD*%
G01*
G04 APERTURE LIST*
%ADD10C,0.180000*%
%ADD11C,0.240000*%
G04 APERTURE END LIST*
D10*
X18742230Y-42232766D02*
X19030230Y-41661338D01*
X19235944Y-42232766D02*
X19235944Y-41032766D01*
X19235944Y-41032766D02*
X18906801Y-41032766D01*
X18906801Y-41032766D02*
X18824516Y-41089909D01*
X18824516Y-41089909D02*
X18783373Y-41147052D01*
X18783373Y-41147052D02*
X18742230Y-41261338D01*
X18742230Y-41261338D02*
X18742230Y-41432766D01*
X18742230Y-41432766D02*
X18783373Y-41547052D01*
X18783373Y-41547052D02*
X18824516Y-41604195D01*
X18824516Y-41604195D02*
X18906801Y-41661338D01*
X18906801Y-41661338D02*
X19235944Y-41661338D01*
X17919373Y-42232766D02*
X18413087Y-42232766D01*
X18166230Y-42232766D02*
X18166230Y-41032766D01*
X18166230Y-41032766D02*
X18248516Y-41204195D01*
X18248516Y-41204195D02*
X18330801Y-41318481D01*
X18330801Y-41318481D02*
X18413087Y-41375624D01*
X46080133Y-11082782D02*
X46368133Y-10511354D01*
X46573847Y-11082782D02*
X46573847Y-9882782D01*
X46573847Y-9882782D02*
X46244704Y-9882782D01*
X46244704Y-9882782D02*
X46162419Y-9939925D01*
X46162419Y-9939925D02*
X46121276Y-9997068D01*
X46121276Y-9997068D02*
X46080133Y-10111354D01*
X46080133Y-10111354D02*
X46080133Y-10282782D01*
X46080133Y-10282782D02*
X46121276Y-10397068D01*
X46121276Y-10397068D02*
X46162419Y-10454211D01*
X46162419Y-10454211D02*
X46244704Y-10511354D01*
X46244704Y-10511354D02*
X46573847Y-10511354D01*
X45709847Y-11082782D02*
X45709847Y-9882782D01*
X45709847Y-10454211D02*
X45216133Y-10454211D01*
X45216133Y-11082782D02*
X45216133Y-9882782D01*
X44310990Y-10968497D02*
X44352133Y-11025640D01*
X44352133Y-11025640D02*
X44475561Y-11082782D01*
X44475561Y-11082782D02*
X44557847Y-11082782D01*
X44557847Y-11082782D02*
X44681276Y-11025640D01*
X44681276Y-11025640D02*
X44763561Y-10911354D01*
X44763561Y-10911354D02*
X44804704Y-10797068D01*
X44804704Y-10797068D02*
X44845847Y-10568497D01*
X44845847Y-10568497D02*
X44845847Y-10397068D01*
X44845847Y-10397068D02*
X44804704Y-10168497D01*
X44804704Y-10168497D02*
X44763561Y-10054211D01*
X44763561Y-10054211D02*
X44681276Y-9939925D01*
X44681276Y-9939925D02*
X44557847Y-9882782D01*
X44557847Y-9882782D02*
X44475561Y-9882782D01*
X44475561Y-9882782D02*
X44352133Y-9939925D01*
X44352133Y-9939925D02*
X44310990Y-9997068D01*
X43940704Y-11082782D02*
X43940704Y-9882782D01*
X43940704Y-9882782D02*
X43611561Y-9882782D01*
X43611561Y-9882782D02*
X43529276Y-9939925D01*
X43529276Y-9939925D02*
X43488133Y-9997068D01*
X43488133Y-9997068D02*
X43446990Y-10111354D01*
X43446990Y-10111354D02*
X43446990Y-10282782D01*
X43446990Y-10282782D02*
X43488133Y-10397068D01*
X43488133Y-10397068D02*
X43529276Y-10454211D01*
X43529276Y-10454211D02*
X43611561Y-10511354D01*
X43611561Y-10511354D02*
X43940704Y-10511354D01*
X41801275Y-10739925D02*
X41389847Y-10739925D01*
X41883561Y-11082782D02*
X41595561Y-9882782D01*
X41595561Y-9882782D02*
X41307561Y-11082782D01*
X41101847Y-9882782D02*
X40525847Y-9882782D01*
X40525847Y-9882782D02*
X41101847Y-11082782D01*
X41101847Y-11082782D02*
X40525847Y-11082782D01*
X40196704Y-11082782D02*
X40196704Y-9882782D01*
X39785275Y-11082782D02*
X39785275Y-9882782D01*
X39785275Y-9882782D02*
X39497275Y-10739925D01*
X39497275Y-10739925D02*
X39209275Y-9882782D01*
X39209275Y-9882782D02*
X39209275Y-11082782D01*
X38797846Y-9882782D02*
X38797846Y-10854211D01*
X38797846Y-10854211D02*
X38756703Y-10968497D01*
X38756703Y-10968497D02*
X38715561Y-11025640D01*
X38715561Y-11025640D02*
X38633275Y-11082782D01*
X38633275Y-11082782D02*
X38468703Y-11082782D01*
X38468703Y-11082782D02*
X38386418Y-11025640D01*
X38386418Y-11025640D02*
X38345275Y-10968497D01*
X38345275Y-10968497D02*
X38304132Y-10854211D01*
X38304132Y-10854211D02*
X38304132Y-9882782D01*
X38016132Y-9882782D02*
X37522418Y-9882782D01*
X37769275Y-11082782D02*
X37769275Y-9882782D01*
X37234417Y-11082782D02*
X37234417Y-9882782D01*
X37234417Y-10454211D02*
X36740703Y-10454211D01*
X36740703Y-11082782D02*
X36740703Y-9882782D01*
X34642417Y-11082782D02*
X34642417Y-9882782D01*
X34642417Y-11025640D02*
X34724702Y-11082782D01*
X34724702Y-11082782D02*
X34889274Y-11082782D01*
X34889274Y-11082782D02*
X34971559Y-11025640D01*
X34971559Y-11025640D02*
X35012702Y-10968497D01*
X35012702Y-10968497D02*
X35053845Y-10854211D01*
X35053845Y-10854211D02*
X35053845Y-10511354D01*
X35053845Y-10511354D02*
X35012702Y-10397068D01*
X35012702Y-10397068D02*
X34971559Y-10339925D01*
X34971559Y-10339925D02*
X34889274Y-10282782D01*
X34889274Y-10282782D02*
X34724702Y-10282782D01*
X34724702Y-10282782D02*
X34642417Y-10339925D01*
X33572702Y-10454211D02*
X32914417Y-10454211D01*
X32914417Y-10797068D02*
X33572702Y-10797068D01*
X31885845Y-9997068D02*
X31844702Y-9939925D01*
X31844702Y-9939925D02*
X31762417Y-9882782D01*
X31762417Y-9882782D02*
X31556702Y-9882782D01*
X31556702Y-9882782D02*
X31474417Y-9939925D01*
X31474417Y-9939925D02*
X31433274Y-9997068D01*
X31433274Y-9997068D02*
X31392131Y-10111354D01*
X31392131Y-10111354D02*
X31392131Y-10225640D01*
X31392131Y-10225640D02*
X31433274Y-10397068D01*
X31433274Y-10397068D02*
X31926988Y-11082782D01*
X31926988Y-11082782D02*
X31392131Y-11082782D01*
X30610417Y-9882782D02*
X31021845Y-9882782D01*
X31021845Y-9882782D02*
X31062988Y-10454211D01*
X31062988Y-10454211D02*
X31021845Y-10397068D01*
X31021845Y-10397068D02*
X30939560Y-10339925D01*
X30939560Y-10339925D02*
X30733845Y-10339925D01*
X30733845Y-10339925D02*
X30651560Y-10397068D01*
X30651560Y-10397068D02*
X30610417Y-10454211D01*
X30610417Y-10454211D02*
X30569274Y-10568497D01*
X30569274Y-10568497D02*
X30569274Y-10854211D01*
X30569274Y-10854211D02*
X30610417Y-10968497D01*
X30610417Y-10968497D02*
X30651560Y-11025640D01*
X30651560Y-11025640D02*
X30733845Y-11082782D01*
X30733845Y-11082782D02*
X30939560Y-11082782D01*
X30939560Y-11082782D02*
X31021845Y-11025640D01*
X31021845Y-11025640D02*
X31062988Y-10968497D01*
X30198988Y-10968497D02*
X30157845Y-11025640D01*
X30157845Y-11025640D02*
X30198988Y-11082782D01*
X30198988Y-11082782D02*
X30240131Y-11025640D01*
X30240131Y-11025640D02*
X30198988Y-10968497D01*
X30198988Y-10968497D02*
X30198988Y-11082782D01*
X29664131Y-10397068D02*
X29746416Y-10339925D01*
X29746416Y-10339925D02*
X29787559Y-10282782D01*
X29787559Y-10282782D02*
X29828702Y-10168497D01*
X29828702Y-10168497D02*
X29828702Y-10111354D01*
X29828702Y-10111354D02*
X29787559Y-9997068D01*
X29787559Y-9997068D02*
X29746416Y-9939925D01*
X29746416Y-9939925D02*
X29664131Y-9882782D01*
X29664131Y-9882782D02*
X29499559Y-9882782D01*
X29499559Y-9882782D02*
X29417274Y-9939925D01*
X29417274Y-9939925D02*
X29376131Y-9997068D01*
X29376131Y-9997068D02*
X29334988Y-10111354D01*
X29334988Y-10111354D02*
X29334988Y-10168497D01*
X29334988Y-10168497D02*
X29376131Y-10282782D01*
X29376131Y-10282782D02*
X29417274Y-10339925D01*
X29417274Y-10339925D02*
X29499559Y-10397068D01*
X29499559Y-10397068D02*
X29664131Y-10397068D01*
X29664131Y-10397068D02*
X29746416Y-10454211D01*
X29746416Y-10454211D02*
X29787559Y-10511354D01*
X29787559Y-10511354D02*
X29828702Y-10625640D01*
X29828702Y-10625640D02*
X29828702Y-10854211D01*
X29828702Y-10854211D02*
X29787559Y-10968497D01*
X29787559Y-10968497D02*
X29746416Y-11025640D01*
X29746416Y-11025640D02*
X29664131Y-11082782D01*
X29664131Y-11082782D02*
X29499559Y-11082782D01*
X29499559Y-11082782D02*
X29417274Y-11025640D01*
X29417274Y-11025640D02*
X29376131Y-10968497D01*
X29376131Y-10968497D02*
X29334988Y-10854211D01*
X29334988Y-10854211D02*
X29334988Y-10625640D01*
X29334988Y-10625640D02*
X29376131Y-10511354D01*
X29376131Y-10511354D02*
X29417274Y-10454211D01*
X29417274Y-10454211D02*
X29499559Y-10397068D01*
X28594417Y-10282782D02*
X28594417Y-11082782D01*
X28800131Y-9825640D02*
X29005845Y-10682782D01*
X29005845Y-10682782D02*
X28470988Y-10682782D01*
X27771560Y-10282782D02*
X27771560Y-11082782D01*
X27977274Y-9825640D02*
X28182988Y-10682782D01*
X28182988Y-10682782D02*
X27648131Y-10682782D01*
X26660702Y-11082782D02*
X26660702Y-10282782D01*
X26660702Y-10397068D02*
X26619559Y-10339925D01*
X26619559Y-10339925D02*
X26537274Y-10282782D01*
X26537274Y-10282782D02*
X26413845Y-10282782D01*
X26413845Y-10282782D02*
X26331559Y-10339925D01*
X26331559Y-10339925D02*
X26290417Y-10454211D01*
X26290417Y-10454211D02*
X26290417Y-11082782D01*
X26290417Y-10454211D02*
X26249274Y-10339925D01*
X26249274Y-10339925D02*
X26166988Y-10282782D01*
X26166988Y-10282782D02*
X26043559Y-10282782D01*
X26043559Y-10282782D02*
X25961274Y-10339925D01*
X25961274Y-10339925D02*
X25920131Y-10454211D01*
X25920131Y-10454211D02*
X25920131Y-11082782D01*
X25508702Y-11082782D02*
X25508702Y-10282782D01*
X25508702Y-10397068D02*
X25467559Y-10339925D01*
X25467559Y-10339925D02*
X25385274Y-10282782D01*
X25385274Y-10282782D02*
X25261845Y-10282782D01*
X25261845Y-10282782D02*
X25179559Y-10339925D01*
X25179559Y-10339925D02*
X25138417Y-10454211D01*
X25138417Y-10454211D02*
X25138417Y-11082782D01*
X25138417Y-10454211D02*
X25097274Y-10339925D01*
X25097274Y-10339925D02*
X25014988Y-10282782D01*
X25014988Y-10282782D02*
X24891559Y-10282782D01*
X24891559Y-10282782D02*
X24809274Y-10339925D01*
X24809274Y-10339925D02*
X24768131Y-10454211D01*
X24768131Y-10454211D02*
X24768131Y-11082782D01*
X46697275Y-12682782D02*
X46121275Y-12682782D01*
X46121275Y-12682782D02*
X46697275Y-13882782D01*
X46697275Y-13882782D02*
X46121275Y-13882782D01*
X45627561Y-13311354D02*
X45627561Y-13882782D01*
X45915561Y-12682782D02*
X45627561Y-13311354D01*
X45627561Y-13311354D02*
X45339561Y-12682782D01*
X44763561Y-13254211D02*
X45051561Y-13254211D01*
X45051561Y-13882782D02*
X45051561Y-12682782D01*
X45051561Y-12682782D02*
X44640133Y-12682782D01*
X44393276Y-12682782D02*
X43858419Y-12682782D01*
X43858419Y-12682782D02*
X44146419Y-13139925D01*
X44146419Y-13139925D02*
X44022990Y-13139925D01*
X44022990Y-13139925D02*
X43940705Y-13197068D01*
X43940705Y-13197068D02*
X43899562Y-13254211D01*
X43899562Y-13254211D02*
X43858419Y-13368497D01*
X43858419Y-13368497D02*
X43858419Y-13654211D01*
X43858419Y-13654211D02*
X43899562Y-13768497D01*
X43899562Y-13768497D02*
X43940705Y-13825640D01*
X43940705Y-13825640D02*
X44022990Y-13882782D01*
X44022990Y-13882782D02*
X44269847Y-13882782D01*
X44269847Y-13882782D02*
X44352133Y-13825640D01*
X44352133Y-13825640D02*
X44393276Y-13768497D01*
X43323562Y-12682782D02*
X43241276Y-12682782D01*
X43241276Y-12682782D02*
X43158990Y-12739925D01*
X43158990Y-12739925D02*
X43117848Y-12797068D01*
X43117848Y-12797068D02*
X43076705Y-12911354D01*
X43076705Y-12911354D02*
X43035562Y-13139925D01*
X43035562Y-13139925D02*
X43035562Y-13425640D01*
X43035562Y-13425640D02*
X43076705Y-13654211D01*
X43076705Y-13654211D02*
X43117848Y-13768497D01*
X43117848Y-13768497D02*
X43158990Y-13825640D01*
X43158990Y-13825640D02*
X43241276Y-13882782D01*
X43241276Y-13882782D02*
X43323562Y-13882782D01*
X43323562Y-13882782D02*
X43405848Y-13825640D01*
X43405848Y-13825640D02*
X43446990Y-13768497D01*
X43446990Y-13768497D02*
X43488133Y-13654211D01*
X43488133Y-13654211D02*
X43529276Y-13425640D01*
X43529276Y-13425640D02*
X43529276Y-13139925D01*
X43529276Y-13139925D02*
X43488133Y-12911354D01*
X43488133Y-12911354D02*
X43446990Y-12797068D01*
X43446990Y-12797068D02*
X43405848Y-12739925D01*
X43405848Y-12739925D02*
X43323562Y-12682782D01*
X42500705Y-12682782D02*
X42418419Y-12682782D01*
X42418419Y-12682782D02*
X42336133Y-12739925D01*
X42336133Y-12739925D02*
X42294991Y-12797068D01*
X42294991Y-12797068D02*
X42253848Y-12911354D01*
X42253848Y-12911354D02*
X42212705Y-13139925D01*
X42212705Y-13139925D02*
X42212705Y-13425640D01*
X42212705Y-13425640D02*
X42253848Y-13654211D01*
X42253848Y-13654211D02*
X42294991Y-13768497D01*
X42294991Y-13768497D02*
X42336133Y-13825640D01*
X42336133Y-13825640D02*
X42418419Y-13882782D01*
X42418419Y-13882782D02*
X42500705Y-13882782D01*
X42500705Y-13882782D02*
X42582991Y-13825640D01*
X42582991Y-13825640D02*
X42624133Y-13768497D01*
X42624133Y-13768497D02*
X42665276Y-13654211D01*
X42665276Y-13654211D02*
X42706419Y-13425640D01*
X42706419Y-13425640D02*
X42706419Y-13139925D01*
X42706419Y-13139925D02*
X42665276Y-12911354D01*
X42665276Y-12911354D02*
X42624133Y-12797068D01*
X42624133Y-12797068D02*
X42582991Y-12739925D01*
X42582991Y-12739925D02*
X42500705Y-12682782D01*
X41348705Y-13768497D02*
X41389848Y-13825640D01*
X41389848Y-13825640D02*
X41513276Y-13882782D01*
X41513276Y-13882782D02*
X41595562Y-13882782D01*
X41595562Y-13882782D02*
X41718991Y-13825640D01*
X41718991Y-13825640D02*
X41801276Y-13711354D01*
X41801276Y-13711354D02*
X41842419Y-13597068D01*
X41842419Y-13597068D02*
X41883562Y-13368497D01*
X41883562Y-13368497D02*
X41883562Y-13197068D01*
X41883562Y-13197068D02*
X41842419Y-12968497D01*
X41842419Y-12968497D02*
X41801276Y-12854211D01*
X41801276Y-12854211D02*
X41718991Y-12739925D01*
X41718991Y-12739925D02*
X41595562Y-12682782D01*
X41595562Y-12682782D02*
X41513276Y-12682782D01*
X41513276Y-12682782D02*
X41389848Y-12739925D01*
X41389848Y-12739925D02*
X41348705Y-12797068D01*
X41019562Y-13539925D02*
X40608134Y-13539925D01*
X41101848Y-13882782D02*
X40813848Y-12682782D01*
X40813848Y-12682782D02*
X40525848Y-13882782D01*
X40237848Y-13425640D02*
X39579563Y-13425640D01*
X39168134Y-13882782D02*
X39168134Y-12682782D01*
X39168134Y-12682782D02*
X38838991Y-12682782D01*
X38838991Y-12682782D02*
X38756706Y-12739925D01*
X38756706Y-12739925D02*
X38715563Y-12797068D01*
X38715563Y-12797068D02*
X38674420Y-12911354D01*
X38674420Y-12911354D02*
X38674420Y-13082782D01*
X38674420Y-13082782D02*
X38715563Y-13197068D01*
X38715563Y-13197068D02*
X38756706Y-13254211D01*
X38756706Y-13254211D02*
X38838991Y-13311354D01*
X38838991Y-13311354D02*
X39168134Y-13311354D01*
X37481277Y-12682782D02*
X37398991Y-12682782D01*
X37398991Y-12682782D02*
X37316705Y-12739925D01*
X37316705Y-12739925D02*
X37275563Y-12797068D01*
X37275563Y-12797068D02*
X37234420Y-12911354D01*
X37234420Y-12911354D02*
X37193277Y-13139925D01*
X37193277Y-13139925D02*
X37193277Y-13425640D01*
X37193277Y-13425640D02*
X37234420Y-13654211D01*
X37234420Y-13654211D02*
X37275563Y-13768497D01*
X37275563Y-13768497D02*
X37316705Y-13825640D01*
X37316705Y-13825640D02*
X37398991Y-13882782D01*
X37398991Y-13882782D02*
X37481277Y-13882782D01*
X37481277Y-13882782D02*
X37563563Y-13825640D01*
X37563563Y-13825640D02*
X37604705Y-13768497D01*
X37604705Y-13768497D02*
X37645848Y-13654211D01*
X37645848Y-13654211D02*
X37686991Y-13425640D01*
X37686991Y-13425640D02*
X37686991Y-13139925D01*
X37686991Y-13139925D02*
X37645848Y-12911354D01*
X37645848Y-12911354D02*
X37604705Y-12797068D01*
X37604705Y-12797068D02*
X37563563Y-12739925D01*
X37563563Y-12739925D02*
X37481277Y-12682782D01*
X36822991Y-13768497D02*
X36781848Y-13825640D01*
X36781848Y-13825640D02*
X36822991Y-13882782D01*
X36822991Y-13882782D02*
X36864134Y-13825640D01*
X36864134Y-13825640D02*
X36822991Y-13768497D01*
X36822991Y-13768497D02*
X36822991Y-13882782D01*
X36493848Y-12682782D02*
X35917848Y-12682782D01*
X35917848Y-12682782D02*
X36288134Y-13882782D01*
X35218420Y-12682782D02*
X35382991Y-12682782D01*
X35382991Y-12682782D02*
X35465277Y-12739925D01*
X35465277Y-12739925D02*
X35506420Y-12797068D01*
X35506420Y-12797068D02*
X35588705Y-12968497D01*
X35588705Y-12968497D02*
X35629848Y-13197068D01*
X35629848Y-13197068D02*
X35629848Y-13654211D01*
X35629848Y-13654211D02*
X35588705Y-13768497D01*
X35588705Y-13768497D02*
X35547562Y-13825640D01*
X35547562Y-13825640D02*
X35465277Y-13882782D01*
X35465277Y-13882782D02*
X35300705Y-13882782D01*
X35300705Y-13882782D02*
X35218420Y-13825640D01*
X35218420Y-13825640D02*
X35177277Y-13768497D01*
X35177277Y-13768497D02*
X35136134Y-13654211D01*
X35136134Y-13654211D02*
X35136134Y-13368497D01*
X35136134Y-13368497D02*
X35177277Y-13254211D01*
X35177277Y-13254211D02*
X35218420Y-13197068D01*
X35218420Y-13197068D02*
X35300705Y-13139925D01*
X35300705Y-13139925D02*
X35465277Y-13139925D01*
X35465277Y-13139925D02*
X35547562Y-13197068D01*
X35547562Y-13197068D02*
X35588705Y-13254211D01*
X35588705Y-13254211D02*
X35629848Y-13368497D01*
X34107562Y-13882782D02*
X34107562Y-13082782D01*
X34107562Y-13197068D02*
X34066419Y-13139925D01*
X34066419Y-13139925D02*
X33984134Y-13082782D01*
X33984134Y-13082782D02*
X33860705Y-13082782D01*
X33860705Y-13082782D02*
X33778419Y-13139925D01*
X33778419Y-13139925D02*
X33737277Y-13254211D01*
X33737277Y-13254211D02*
X33737277Y-13882782D01*
X33737277Y-13254211D02*
X33696134Y-13139925D01*
X33696134Y-13139925D02*
X33613848Y-13082782D01*
X33613848Y-13082782D02*
X33490419Y-13082782D01*
X33490419Y-13082782D02*
X33408134Y-13139925D01*
X33408134Y-13139925D02*
X33366991Y-13254211D01*
X33366991Y-13254211D02*
X33366991Y-13882782D01*
X32955562Y-13882782D02*
X32955562Y-13082782D01*
X32955562Y-13197068D02*
X32914419Y-13139925D01*
X32914419Y-13139925D02*
X32832134Y-13082782D01*
X32832134Y-13082782D02*
X32708705Y-13082782D01*
X32708705Y-13082782D02*
X32626419Y-13139925D01*
X32626419Y-13139925D02*
X32585277Y-13254211D01*
X32585277Y-13254211D02*
X32585277Y-13882782D01*
X32585277Y-13254211D02*
X32544134Y-13139925D01*
X32544134Y-13139925D02*
X32461848Y-13082782D01*
X32461848Y-13082782D02*
X32338419Y-13082782D01*
X32338419Y-13082782D02*
X32256134Y-13139925D01*
X32256134Y-13139925D02*
X32214991Y-13254211D01*
X32214991Y-13254211D02*
X32214991Y-13882782D01*
X30528133Y-12625640D02*
X31268705Y-14168497D01*
X29622990Y-12797068D02*
X29581847Y-12739925D01*
X29581847Y-12739925D02*
X29499562Y-12682782D01*
X29499562Y-12682782D02*
X29293847Y-12682782D01*
X29293847Y-12682782D02*
X29211562Y-12739925D01*
X29211562Y-12739925D02*
X29170419Y-12797068D01*
X29170419Y-12797068D02*
X29129276Y-12911354D01*
X29129276Y-12911354D02*
X29129276Y-13025640D01*
X29129276Y-13025640D02*
X29170419Y-13197068D01*
X29170419Y-13197068D02*
X29664133Y-13882782D01*
X29664133Y-13882782D02*
X29129276Y-13882782D01*
X28347562Y-13882782D02*
X28758990Y-13882782D01*
X28758990Y-13882782D02*
X28758990Y-12682782D01*
X26784132Y-12625640D02*
X27524704Y-14168497D01*
X25878989Y-13539925D02*
X25467561Y-13539925D01*
X25961275Y-13882782D02*
X25673275Y-12682782D01*
X25673275Y-12682782D02*
X25385275Y-13882782D01*
X24726990Y-13082782D02*
X24726990Y-14054211D01*
X24726990Y-14054211D02*
X24768132Y-14168497D01*
X24768132Y-14168497D02*
X24809275Y-14225640D01*
X24809275Y-14225640D02*
X24891561Y-14282782D01*
X24891561Y-14282782D02*
X25014990Y-14282782D01*
X25014990Y-14282782D02*
X25097275Y-14225640D01*
X24726990Y-13825640D02*
X24809275Y-13882782D01*
X24809275Y-13882782D02*
X24973847Y-13882782D01*
X24973847Y-13882782D02*
X25056132Y-13825640D01*
X25056132Y-13825640D02*
X25097275Y-13768497D01*
X25097275Y-13768497D02*
X25138418Y-13654211D01*
X25138418Y-13654211D02*
X25138418Y-13311354D01*
X25138418Y-13311354D02*
X25097275Y-13197068D01*
X25097275Y-13197068D02*
X25056132Y-13139925D01*
X25056132Y-13139925D02*
X24973847Y-13082782D01*
X24973847Y-13082782D02*
X24809275Y-13082782D01*
X24809275Y-13082782D02*
X24726990Y-13139925D01*
X43241276Y-16054211D02*
X43117848Y-16111354D01*
X43117848Y-16111354D02*
X43076705Y-16168497D01*
X43076705Y-16168497D02*
X43035562Y-16282782D01*
X43035562Y-16282782D02*
X43035562Y-16454211D01*
X43035562Y-16454211D02*
X43076705Y-16568497D01*
X43076705Y-16568497D02*
X43117848Y-16625640D01*
X43117848Y-16625640D02*
X43200133Y-16682782D01*
X43200133Y-16682782D02*
X43529276Y-16682782D01*
X43529276Y-16682782D02*
X43529276Y-15482782D01*
X43529276Y-15482782D02*
X43241276Y-15482782D01*
X43241276Y-15482782D02*
X43158991Y-15539925D01*
X43158991Y-15539925D02*
X43117848Y-15597068D01*
X43117848Y-15597068D02*
X43076705Y-15711354D01*
X43076705Y-15711354D02*
X43076705Y-15825640D01*
X43076705Y-15825640D02*
X43117848Y-15939925D01*
X43117848Y-15939925D02*
X43158991Y-15997068D01*
X43158991Y-15997068D02*
X43241276Y-16054211D01*
X43241276Y-16054211D02*
X43529276Y-16054211D01*
X42500705Y-15482782D02*
X42336133Y-15482782D01*
X42336133Y-15482782D02*
X42253848Y-15539925D01*
X42253848Y-15539925D02*
X42171562Y-15654211D01*
X42171562Y-15654211D02*
X42130419Y-15882782D01*
X42130419Y-15882782D02*
X42130419Y-16282782D01*
X42130419Y-16282782D02*
X42171562Y-16511354D01*
X42171562Y-16511354D02*
X42253848Y-16625640D01*
X42253848Y-16625640D02*
X42336133Y-16682782D01*
X42336133Y-16682782D02*
X42500705Y-16682782D01*
X42500705Y-16682782D02*
X42582991Y-16625640D01*
X42582991Y-16625640D02*
X42665276Y-16511354D01*
X42665276Y-16511354D02*
X42706419Y-16282782D01*
X42706419Y-16282782D02*
X42706419Y-15882782D01*
X42706419Y-15882782D02*
X42665276Y-15654211D01*
X42665276Y-15654211D02*
X42582991Y-15539925D01*
X42582991Y-15539925D02*
X42500705Y-15482782D01*
X41760133Y-16682782D02*
X41760133Y-15482782D01*
X41760133Y-15482782D02*
X41266419Y-16682782D01*
X41266419Y-16682782D02*
X41266419Y-15482782D01*
X40854990Y-16682782D02*
X40854990Y-15482782D01*
X40854990Y-15482782D02*
X40649276Y-15482782D01*
X40649276Y-15482782D02*
X40525847Y-15539925D01*
X40525847Y-15539925D02*
X40443562Y-15654211D01*
X40443562Y-15654211D02*
X40402419Y-15768497D01*
X40402419Y-15768497D02*
X40361276Y-15997068D01*
X40361276Y-15997068D02*
X40361276Y-16168497D01*
X40361276Y-16168497D02*
X40402419Y-16397068D01*
X40402419Y-16397068D02*
X40443562Y-16511354D01*
X40443562Y-16511354D02*
X40525847Y-16625640D01*
X40525847Y-16625640D02*
X40649276Y-16682782D01*
X40649276Y-16682782D02*
X40854990Y-16682782D01*
X39456133Y-15482782D02*
X38962419Y-15482782D01*
X39209276Y-16682782D02*
X39209276Y-15482782D01*
X38509847Y-15482782D02*
X38345275Y-15482782D01*
X38345275Y-15482782D02*
X38262990Y-15539925D01*
X38262990Y-15539925D02*
X38180704Y-15654211D01*
X38180704Y-15654211D02*
X38139561Y-15882782D01*
X38139561Y-15882782D02*
X38139561Y-16282782D01*
X38139561Y-16282782D02*
X38180704Y-16511354D01*
X38180704Y-16511354D02*
X38262990Y-16625640D01*
X38262990Y-16625640D02*
X38345275Y-16682782D01*
X38345275Y-16682782D02*
X38509847Y-16682782D01*
X38509847Y-16682782D02*
X38592133Y-16625640D01*
X38592133Y-16625640D02*
X38674418Y-16511354D01*
X38674418Y-16511354D02*
X38715561Y-16282782D01*
X38715561Y-16282782D02*
X38715561Y-15882782D01*
X38715561Y-15882782D02*
X38674418Y-15654211D01*
X38674418Y-15654211D02*
X38592133Y-15539925D01*
X38592133Y-15539925D02*
X38509847Y-15482782D01*
X36658418Y-15539925D02*
X36740704Y-15482782D01*
X36740704Y-15482782D02*
X36864132Y-15482782D01*
X36864132Y-15482782D02*
X36987561Y-15539925D01*
X36987561Y-15539925D02*
X37069846Y-15654211D01*
X37069846Y-15654211D02*
X37110989Y-15768497D01*
X37110989Y-15768497D02*
X37152132Y-15997068D01*
X37152132Y-15997068D02*
X37152132Y-16168497D01*
X37152132Y-16168497D02*
X37110989Y-16397068D01*
X37110989Y-16397068D02*
X37069846Y-16511354D01*
X37069846Y-16511354D02*
X36987561Y-16625640D01*
X36987561Y-16625640D02*
X36864132Y-16682782D01*
X36864132Y-16682782D02*
X36781846Y-16682782D01*
X36781846Y-16682782D02*
X36658418Y-16625640D01*
X36658418Y-16625640D02*
X36617275Y-16568497D01*
X36617275Y-16568497D02*
X36617275Y-16168497D01*
X36617275Y-16168497D02*
X36781846Y-16168497D01*
X35753275Y-16682782D02*
X36041275Y-16111354D01*
X36246989Y-16682782D02*
X36246989Y-15482782D01*
X36246989Y-15482782D02*
X35917846Y-15482782D01*
X35917846Y-15482782D02*
X35835561Y-15539925D01*
X35835561Y-15539925D02*
X35794418Y-15597068D01*
X35794418Y-15597068D02*
X35753275Y-15711354D01*
X35753275Y-15711354D02*
X35753275Y-15882782D01*
X35753275Y-15882782D02*
X35794418Y-15997068D01*
X35794418Y-15997068D02*
X35835561Y-16054211D01*
X35835561Y-16054211D02*
X35917846Y-16111354D01*
X35917846Y-16111354D02*
X36246989Y-16111354D01*
X35218418Y-15482782D02*
X35053846Y-15482782D01*
X35053846Y-15482782D02*
X34971561Y-15539925D01*
X34971561Y-15539925D02*
X34889275Y-15654211D01*
X34889275Y-15654211D02*
X34848132Y-15882782D01*
X34848132Y-15882782D02*
X34848132Y-16282782D01*
X34848132Y-16282782D02*
X34889275Y-16511354D01*
X34889275Y-16511354D02*
X34971561Y-16625640D01*
X34971561Y-16625640D02*
X35053846Y-16682782D01*
X35053846Y-16682782D02*
X35218418Y-16682782D01*
X35218418Y-16682782D02*
X35300704Y-16625640D01*
X35300704Y-16625640D02*
X35382989Y-16511354D01*
X35382989Y-16511354D02*
X35424132Y-16282782D01*
X35424132Y-16282782D02*
X35424132Y-15882782D01*
X35424132Y-15882782D02*
X35382989Y-15654211D01*
X35382989Y-15654211D02*
X35300704Y-15539925D01*
X35300704Y-15539925D02*
X35218418Y-15482782D01*
X34477846Y-15482782D02*
X34477846Y-16454211D01*
X34477846Y-16454211D02*
X34436703Y-16568497D01*
X34436703Y-16568497D02*
X34395561Y-16625640D01*
X34395561Y-16625640D02*
X34313275Y-16682782D01*
X34313275Y-16682782D02*
X34148703Y-16682782D01*
X34148703Y-16682782D02*
X34066418Y-16625640D01*
X34066418Y-16625640D02*
X34025275Y-16568497D01*
X34025275Y-16568497D02*
X33984132Y-16454211D01*
X33984132Y-16454211D02*
X33984132Y-15482782D01*
X33572703Y-16682782D02*
X33572703Y-15482782D01*
X33572703Y-15482782D02*
X33078989Y-16682782D01*
X33078989Y-16682782D02*
X33078989Y-15482782D01*
X32667560Y-16682782D02*
X32667560Y-15482782D01*
X32667560Y-15482782D02*
X32461846Y-15482782D01*
X32461846Y-15482782D02*
X32338417Y-15539925D01*
X32338417Y-15539925D02*
X32256132Y-15654211D01*
X32256132Y-15654211D02*
X32214989Y-15768497D01*
X32214989Y-15768497D02*
X32173846Y-15997068D01*
X32173846Y-15997068D02*
X32173846Y-16168497D01*
X32173846Y-16168497D02*
X32214989Y-16397068D01*
X32214989Y-16397068D02*
X32256132Y-16511354D01*
X32256132Y-16511354D02*
X32338417Y-16625640D01*
X32338417Y-16625640D02*
X32461846Y-16682782D01*
X32461846Y-16682782D02*
X32667560Y-16682782D01*
X31145274Y-16682782D02*
X31145274Y-15482782D01*
X31145274Y-15482782D02*
X30816131Y-15482782D01*
X30816131Y-15482782D02*
X30733846Y-15539925D01*
X30733846Y-15539925D02*
X30692703Y-15597068D01*
X30692703Y-15597068D02*
X30651560Y-15711354D01*
X30651560Y-15711354D02*
X30651560Y-15882782D01*
X30651560Y-15882782D02*
X30692703Y-15997068D01*
X30692703Y-15997068D02*
X30733846Y-16054211D01*
X30733846Y-16054211D02*
X30816131Y-16111354D01*
X30816131Y-16111354D02*
X31145274Y-16111354D01*
X29869846Y-16682782D02*
X30281274Y-16682782D01*
X30281274Y-16682782D02*
X30281274Y-15482782D01*
X29622988Y-16339925D02*
X29211560Y-16339925D01*
X29705274Y-16682782D02*
X29417274Y-15482782D01*
X29417274Y-15482782D02*
X29129274Y-16682782D01*
X28964703Y-15482782D02*
X28470989Y-15482782D01*
X28717846Y-16682782D02*
X28717846Y-15482782D01*
X28182988Y-16054211D02*
X27894988Y-16054211D01*
X27771560Y-16682782D02*
X28182988Y-16682782D01*
X28182988Y-16682782D02*
X28182988Y-15482782D01*
X28182988Y-15482782D02*
X27771560Y-15482782D01*
X44310989Y-18397068D02*
X44269846Y-18339925D01*
X44269846Y-18339925D02*
X44187561Y-18282782D01*
X44187561Y-18282782D02*
X43981846Y-18282782D01*
X43981846Y-18282782D02*
X43899561Y-18339925D01*
X43899561Y-18339925D02*
X43858418Y-18397068D01*
X43858418Y-18397068D02*
X43817275Y-18511354D01*
X43817275Y-18511354D02*
X43817275Y-18625640D01*
X43817275Y-18625640D02*
X43858418Y-18797068D01*
X43858418Y-18797068D02*
X44352132Y-19482782D01*
X44352132Y-19482782D02*
X43817275Y-19482782D01*
X43035561Y-18282782D02*
X43446989Y-18282782D01*
X43446989Y-18282782D02*
X43488132Y-18854211D01*
X43488132Y-18854211D02*
X43446989Y-18797068D01*
X43446989Y-18797068D02*
X43364704Y-18739925D01*
X43364704Y-18739925D02*
X43158989Y-18739925D01*
X43158989Y-18739925D02*
X43076704Y-18797068D01*
X43076704Y-18797068D02*
X43035561Y-18854211D01*
X43035561Y-18854211D02*
X42994418Y-18968497D01*
X42994418Y-18968497D02*
X42994418Y-19254211D01*
X42994418Y-19254211D02*
X43035561Y-19368497D01*
X43035561Y-19368497D02*
X43076704Y-19425640D01*
X43076704Y-19425640D02*
X43158989Y-19482782D01*
X43158989Y-19482782D02*
X43364704Y-19482782D01*
X43364704Y-19482782D02*
X43446989Y-19425640D01*
X43446989Y-19425640D02*
X43488132Y-19368497D01*
X41965846Y-19482782D02*
X41965846Y-18682782D01*
X41965846Y-18797068D02*
X41924703Y-18739925D01*
X41924703Y-18739925D02*
X41842418Y-18682782D01*
X41842418Y-18682782D02*
X41718989Y-18682782D01*
X41718989Y-18682782D02*
X41636703Y-18739925D01*
X41636703Y-18739925D02*
X41595561Y-18854211D01*
X41595561Y-18854211D02*
X41595561Y-19482782D01*
X41595561Y-18854211D02*
X41554418Y-18739925D01*
X41554418Y-18739925D02*
X41472132Y-18682782D01*
X41472132Y-18682782D02*
X41348703Y-18682782D01*
X41348703Y-18682782D02*
X41266418Y-18739925D01*
X41266418Y-18739925D02*
X41225275Y-18854211D01*
X41225275Y-18854211D02*
X41225275Y-19482782D01*
X40813846Y-19482782D02*
X40813846Y-18682782D01*
X40813846Y-18797068D02*
X40772703Y-18739925D01*
X40772703Y-18739925D02*
X40690418Y-18682782D01*
X40690418Y-18682782D02*
X40566989Y-18682782D01*
X40566989Y-18682782D02*
X40484703Y-18739925D01*
X40484703Y-18739925D02*
X40443561Y-18854211D01*
X40443561Y-18854211D02*
X40443561Y-19482782D01*
X40443561Y-18854211D02*
X40402418Y-18739925D01*
X40402418Y-18739925D02*
X40320132Y-18682782D01*
X40320132Y-18682782D02*
X40196703Y-18682782D01*
X40196703Y-18682782D02*
X40114418Y-18739925D01*
X40114418Y-18739925D02*
X40073275Y-18854211D01*
X40073275Y-18854211D02*
X40073275Y-19482782D01*
X39003560Y-19482782D02*
X39003560Y-18282782D01*
X39003560Y-18282782D02*
X38674417Y-18282782D01*
X38674417Y-18282782D02*
X38592132Y-18339925D01*
X38592132Y-18339925D02*
X38550989Y-18397068D01*
X38550989Y-18397068D02*
X38509846Y-18511354D01*
X38509846Y-18511354D02*
X38509846Y-18682782D01*
X38509846Y-18682782D02*
X38550989Y-18797068D01*
X38550989Y-18797068D02*
X38592132Y-18854211D01*
X38592132Y-18854211D02*
X38674417Y-18911354D01*
X38674417Y-18911354D02*
X39003560Y-18911354D01*
X38180703Y-19139925D02*
X37769275Y-19139925D01*
X38262989Y-19482782D02*
X37974989Y-18282782D01*
X37974989Y-18282782D02*
X37686989Y-19482782D01*
X37440132Y-19425640D02*
X37316704Y-19482782D01*
X37316704Y-19482782D02*
X37110989Y-19482782D01*
X37110989Y-19482782D02*
X37028704Y-19425640D01*
X37028704Y-19425640D02*
X36987561Y-19368497D01*
X36987561Y-19368497D02*
X36946418Y-19254211D01*
X36946418Y-19254211D02*
X36946418Y-19139925D01*
X36946418Y-19139925D02*
X36987561Y-19025640D01*
X36987561Y-19025640D02*
X37028704Y-18968497D01*
X37028704Y-18968497D02*
X37110989Y-18911354D01*
X37110989Y-18911354D02*
X37275561Y-18854211D01*
X37275561Y-18854211D02*
X37357846Y-18797068D01*
X37357846Y-18797068D02*
X37398989Y-18739925D01*
X37398989Y-18739925D02*
X37440132Y-18625640D01*
X37440132Y-18625640D02*
X37440132Y-18511354D01*
X37440132Y-18511354D02*
X37398989Y-18397068D01*
X37398989Y-18397068D02*
X37357846Y-18339925D01*
X37357846Y-18339925D02*
X37275561Y-18282782D01*
X37275561Y-18282782D02*
X37069846Y-18282782D01*
X37069846Y-18282782D02*
X36946418Y-18339925D01*
X36699561Y-18282782D02*
X36205847Y-18282782D01*
X36452704Y-19482782D02*
X36452704Y-18282782D01*
X35259560Y-18854211D02*
X34971560Y-18854211D01*
X34848132Y-19482782D02*
X35259560Y-19482782D01*
X35259560Y-19482782D02*
X35259560Y-18282782D01*
X35259560Y-18282782D02*
X34848132Y-18282782D01*
X34601275Y-18282782D02*
X34313275Y-19482782D01*
X34313275Y-19482782D02*
X34025275Y-18282782D01*
X33737275Y-18854211D02*
X33449275Y-18854211D01*
X33325847Y-19482782D02*
X33737275Y-19482782D01*
X33737275Y-19482782D02*
X33737275Y-18282782D01*
X33737275Y-18282782D02*
X33325847Y-18282782D01*
X32461847Y-19482782D02*
X32749847Y-18911354D01*
X32955561Y-19482782D02*
X32955561Y-18282782D01*
X32955561Y-18282782D02*
X32626418Y-18282782D01*
X32626418Y-18282782D02*
X32544133Y-18339925D01*
X32544133Y-18339925D02*
X32502990Y-18397068D01*
X32502990Y-18397068D02*
X32461847Y-18511354D01*
X32461847Y-18511354D02*
X32461847Y-18682782D01*
X32461847Y-18682782D02*
X32502990Y-18797068D01*
X32502990Y-18797068D02*
X32544133Y-18854211D01*
X32544133Y-18854211D02*
X32626418Y-18911354D01*
X32626418Y-18911354D02*
X32955561Y-18911354D01*
X31926990Y-18911354D02*
X31926990Y-19482782D01*
X32214990Y-18282782D02*
X31926990Y-18911354D01*
X31926990Y-18911354D02*
X31638990Y-18282782D01*
X30692704Y-19482782D02*
X30692704Y-18282782D01*
X30692704Y-18282782D02*
X30363561Y-18282782D01*
X30363561Y-18282782D02*
X30281276Y-18339925D01*
X30281276Y-18339925D02*
X30240133Y-18397068D01*
X30240133Y-18397068D02*
X30198990Y-18511354D01*
X30198990Y-18511354D02*
X30198990Y-18682782D01*
X30198990Y-18682782D02*
X30240133Y-18797068D01*
X30240133Y-18797068D02*
X30281276Y-18854211D01*
X30281276Y-18854211D02*
X30363561Y-18911354D01*
X30363561Y-18911354D02*
X30692704Y-18911354D01*
X29869847Y-19139925D02*
X29458419Y-19139925D01*
X29952133Y-19482782D02*
X29664133Y-18282782D01*
X29664133Y-18282782D02*
X29376133Y-19482782D01*
X29211562Y-18282782D02*
X28717848Y-18282782D01*
X28964705Y-19482782D02*
X28964705Y-18282782D01*
X27936133Y-19368497D02*
X27977276Y-19425640D01*
X27977276Y-19425640D02*
X28100704Y-19482782D01*
X28100704Y-19482782D02*
X28182990Y-19482782D01*
X28182990Y-19482782D02*
X28306419Y-19425640D01*
X28306419Y-19425640D02*
X28388704Y-19311354D01*
X28388704Y-19311354D02*
X28429847Y-19197068D01*
X28429847Y-19197068D02*
X28470990Y-18968497D01*
X28470990Y-18968497D02*
X28470990Y-18797068D01*
X28470990Y-18797068D02*
X28429847Y-18568497D01*
X28429847Y-18568497D02*
X28388704Y-18454211D01*
X28388704Y-18454211D02*
X28306419Y-18339925D01*
X28306419Y-18339925D02*
X28182990Y-18282782D01*
X28182990Y-18282782D02*
X28100704Y-18282782D01*
X28100704Y-18282782D02*
X27977276Y-18339925D01*
X27977276Y-18339925D02*
X27936133Y-18397068D01*
X27565847Y-19482782D02*
X27565847Y-18282782D01*
X27565847Y-18854211D02*
X27072133Y-18854211D01*
X27072133Y-19482782D02*
X27072133Y-18282782D01*
X44352132Y-22282782D02*
X44352132Y-21082782D01*
X44352132Y-21082782D02*
X44064132Y-21939925D01*
X44064132Y-21939925D02*
X43776132Y-21082782D01*
X43776132Y-21082782D02*
X43776132Y-22282782D01*
X43200132Y-21082782D02*
X43035560Y-21082782D01*
X43035560Y-21082782D02*
X42953275Y-21139925D01*
X42953275Y-21139925D02*
X42870989Y-21254211D01*
X42870989Y-21254211D02*
X42829846Y-21482782D01*
X42829846Y-21482782D02*
X42829846Y-21882782D01*
X42829846Y-21882782D02*
X42870989Y-22111354D01*
X42870989Y-22111354D02*
X42953275Y-22225640D01*
X42953275Y-22225640D02*
X43035560Y-22282782D01*
X43035560Y-22282782D02*
X43200132Y-22282782D01*
X43200132Y-22282782D02*
X43282418Y-22225640D01*
X43282418Y-22225640D02*
X43364703Y-22111354D01*
X43364703Y-22111354D02*
X43405846Y-21882782D01*
X43405846Y-21882782D02*
X43405846Y-21482782D01*
X43405846Y-21482782D02*
X43364703Y-21254211D01*
X43364703Y-21254211D02*
X43282418Y-21139925D01*
X43282418Y-21139925D02*
X43200132Y-21082782D01*
X42459560Y-21082782D02*
X42459560Y-22054211D01*
X42459560Y-22054211D02*
X42418417Y-22168497D01*
X42418417Y-22168497D02*
X42377275Y-22225640D01*
X42377275Y-22225640D02*
X42294989Y-22282782D01*
X42294989Y-22282782D02*
X42130417Y-22282782D01*
X42130417Y-22282782D02*
X42048132Y-22225640D01*
X42048132Y-22225640D02*
X42006989Y-22168497D01*
X42006989Y-22168497D02*
X41965846Y-22054211D01*
X41965846Y-22054211D02*
X41965846Y-21082782D01*
X41554417Y-22282782D02*
X41554417Y-21082782D01*
X41554417Y-21082782D02*
X41060703Y-22282782D01*
X41060703Y-22282782D02*
X41060703Y-21082782D01*
X40772703Y-21082782D02*
X40278989Y-21082782D01*
X40525846Y-22282782D02*
X40525846Y-21082782D01*
X39332702Y-21482782D02*
X38674417Y-21825640D01*
X38674417Y-21825640D02*
X39332702Y-22168497D01*
X38262988Y-21654211D02*
X37604703Y-21654211D01*
X37604703Y-21997068D02*
X38262988Y-21997068D01*
X36576131Y-21197068D02*
X36534988Y-21139925D01*
X36534988Y-21139925D02*
X36452703Y-21082782D01*
X36452703Y-21082782D02*
X36246988Y-21082782D01*
X36246988Y-21082782D02*
X36164703Y-21139925D01*
X36164703Y-21139925D02*
X36123560Y-21197068D01*
X36123560Y-21197068D02*
X36082417Y-21311354D01*
X36082417Y-21311354D02*
X36082417Y-21425640D01*
X36082417Y-21425640D02*
X36123560Y-21597068D01*
X36123560Y-21597068D02*
X36617274Y-22282782D01*
X36617274Y-22282782D02*
X36082417Y-22282782D01*
X35547560Y-21082782D02*
X35465274Y-21082782D01*
X35465274Y-21082782D02*
X35382988Y-21139925D01*
X35382988Y-21139925D02*
X35341846Y-21197068D01*
X35341846Y-21197068D02*
X35300703Y-21311354D01*
X35300703Y-21311354D02*
X35259560Y-21539925D01*
X35259560Y-21539925D02*
X35259560Y-21825640D01*
X35259560Y-21825640D02*
X35300703Y-22054211D01*
X35300703Y-22054211D02*
X35341846Y-22168497D01*
X35341846Y-22168497D02*
X35382988Y-22225640D01*
X35382988Y-22225640D02*
X35465274Y-22282782D01*
X35465274Y-22282782D02*
X35547560Y-22282782D01*
X35547560Y-22282782D02*
X35629846Y-22225640D01*
X35629846Y-22225640D02*
X35670988Y-22168497D01*
X35670988Y-22168497D02*
X35712131Y-22054211D01*
X35712131Y-22054211D02*
X35753274Y-21825640D01*
X35753274Y-21825640D02*
X35753274Y-21539925D01*
X35753274Y-21539925D02*
X35712131Y-21311354D01*
X35712131Y-21311354D02*
X35670988Y-21197068D01*
X35670988Y-21197068D02*
X35629846Y-21139925D01*
X35629846Y-21139925D02*
X35547560Y-21082782D01*
X34724703Y-21082782D02*
X34642417Y-21082782D01*
X34642417Y-21082782D02*
X34560131Y-21139925D01*
X34560131Y-21139925D02*
X34518989Y-21197068D01*
X34518989Y-21197068D02*
X34477846Y-21311354D01*
X34477846Y-21311354D02*
X34436703Y-21539925D01*
X34436703Y-21539925D02*
X34436703Y-21825640D01*
X34436703Y-21825640D02*
X34477846Y-22054211D01*
X34477846Y-22054211D02*
X34518989Y-22168497D01*
X34518989Y-22168497D02*
X34560131Y-22225640D01*
X34560131Y-22225640D02*
X34642417Y-22282782D01*
X34642417Y-22282782D02*
X34724703Y-22282782D01*
X34724703Y-22282782D02*
X34806989Y-22225640D01*
X34806989Y-22225640D02*
X34848131Y-22168497D01*
X34848131Y-22168497D02*
X34889274Y-22054211D01*
X34889274Y-22054211D02*
X34930417Y-21825640D01*
X34930417Y-21825640D02*
X34930417Y-21539925D01*
X34930417Y-21539925D02*
X34889274Y-21311354D01*
X34889274Y-21311354D02*
X34848131Y-21197068D01*
X34848131Y-21197068D02*
X34806989Y-21139925D01*
X34806989Y-21139925D02*
X34724703Y-21082782D01*
X33408131Y-22282782D02*
X33408131Y-21482782D01*
X33408131Y-21597068D02*
X33366988Y-21539925D01*
X33366988Y-21539925D02*
X33284703Y-21482782D01*
X33284703Y-21482782D02*
X33161274Y-21482782D01*
X33161274Y-21482782D02*
X33078988Y-21539925D01*
X33078988Y-21539925D02*
X33037846Y-21654211D01*
X33037846Y-21654211D02*
X33037846Y-22282782D01*
X33037846Y-21654211D02*
X32996703Y-21539925D01*
X32996703Y-21539925D02*
X32914417Y-21482782D01*
X32914417Y-21482782D02*
X32790988Y-21482782D01*
X32790988Y-21482782D02*
X32708703Y-21539925D01*
X32708703Y-21539925D02*
X32667560Y-21654211D01*
X32667560Y-21654211D02*
X32667560Y-22282782D01*
X32256131Y-22282782D02*
X32256131Y-21482782D01*
X32256131Y-21597068D02*
X32214988Y-21539925D01*
X32214988Y-21539925D02*
X32132703Y-21482782D01*
X32132703Y-21482782D02*
X32009274Y-21482782D01*
X32009274Y-21482782D02*
X31926988Y-21539925D01*
X31926988Y-21539925D02*
X31885846Y-21654211D01*
X31885846Y-21654211D02*
X31885846Y-22282782D01*
X31885846Y-21654211D02*
X31844703Y-21539925D01*
X31844703Y-21539925D02*
X31762417Y-21482782D01*
X31762417Y-21482782D02*
X31638988Y-21482782D01*
X31638988Y-21482782D02*
X31556703Y-21539925D01*
X31556703Y-21539925D02*
X31515560Y-21654211D01*
X31515560Y-21654211D02*
X31515560Y-22282782D01*
X30486988Y-21939925D02*
X30075560Y-21939925D01*
X30569274Y-22282782D02*
X30281274Y-21082782D01*
X30281274Y-21082782D02*
X29993274Y-22282782D01*
X29705274Y-22282782D02*
X29705274Y-21082782D01*
X29705274Y-21082782D02*
X29376131Y-21082782D01*
X29376131Y-21082782D02*
X29293846Y-21139925D01*
X29293846Y-21139925D02*
X29252703Y-21197068D01*
X29252703Y-21197068D02*
X29211560Y-21311354D01*
X29211560Y-21311354D02*
X29211560Y-21482782D01*
X29211560Y-21482782D02*
X29252703Y-21597068D01*
X29252703Y-21597068D02*
X29293846Y-21654211D01*
X29293846Y-21654211D02*
X29376131Y-21711354D01*
X29376131Y-21711354D02*
X29705274Y-21711354D01*
X28882417Y-21939925D02*
X28470989Y-21939925D01*
X28964703Y-22282782D02*
X28676703Y-21082782D01*
X28676703Y-21082782D02*
X28388703Y-22282782D01*
X27606989Y-22282782D02*
X27894989Y-21711354D01*
X28100703Y-22282782D02*
X28100703Y-21082782D01*
X28100703Y-21082782D02*
X27771560Y-21082782D01*
X27771560Y-21082782D02*
X27689275Y-21139925D01*
X27689275Y-21139925D02*
X27648132Y-21197068D01*
X27648132Y-21197068D02*
X27606989Y-21311354D01*
X27606989Y-21311354D02*
X27606989Y-21482782D01*
X27606989Y-21482782D02*
X27648132Y-21597068D01*
X27648132Y-21597068D02*
X27689275Y-21654211D01*
X27689275Y-21654211D02*
X27771560Y-21711354D01*
X27771560Y-21711354D02*
X28100703Y-21711354D01*
X27360132Y-21082782D02*
X26866418Y-21082782D01*
X27113275Y-22282782D02*
X27113275Y-21082782D01*
X46429846Y-24739925D02*
X46018418Y-24739925D01*
X46512132Y-25082782D02*
X46224132Y-23882782D01*
X46224132Y-23882782D02*
X45936132Y-25082782D01*
X45360132Y-24454211D02*
X45236704Y-24511354D01*
X45236704Y-24511354D02*
X45195561Y-24568497D01*
X45195561Y-24568497D02*
X45154418Y-24682782D01*
X45154418Y-24682782D02*
X45154418Y-24854211D01*
X45154418Y-24854211D02*
X45195561Y-24968497D01*
X45195561Y-24968497D02*
X45236704Y-25025640D01*
X45236704Y-25025640D02*
X45318989Y-25082782D01*
X45318989Y-25082782D02*
X45648132Y-25082782D01*
X45648132Y-25082782D02*
X45648132Y-23882782D01*
X45648132Y-23882782D02*
X45360132Y-23882782D01*
X45360132Y-23882782D02*
X45277847Y-23939925D01*
X45277847Y-23939925D02*
X45236704Y-23997068D01*
X45236704Y-23997068D02*
X45195561Y-24111354D01*
X45195561Y-24111354D02*
X45195561Y-24225640D01*
X45195561Y-24225640D02*
X45236704Y-24339925D01*
X45236704Y-24339925D02*
X45277847Y-24397068D01*
X45277847Y-24397068D02*
X45360132Y-24454211D01*
X45360132Y-24454211D02*
X45648132Y-24454211D01*
X44825275Y-25025640D02*
X44701847Y-25082782D01*
X44701847Y-25082782D02*
X44496132Y-25082782D01*
X44496132Y-25082782D02*
X44413847Y-25025640D01*
X44413847Y-25025640D02*
X44372704Y-24968497D01*
X44372704Y-24968497D02*
X44331561Y-24854211D01*
X44331561Y-24854211D02*
X44331561Y-24739925D01*
X44331561Y-24739925D02*
X44372704Y-24625640D01*
X44372704Y-24625640D02*
X44413847Y-24568497D01*
X44413847Y-24568497D02*
X44496132Y-24511354D01*
X44496132Y-24511354D02*
X44660704Y-24454211D01*
X44660704Y-24454211D02*
X44742989Y-24397068D01*
X44742989Y-24397068D02*
X44784132Y-24339925D01*
X44784132Y-24339925D02*
X44825275Y-24225640D01*
X44825275Y-24225640D02*
X44825275Y-24111354D01*
X44825275Y-24111354D02*
X44784132Y-23997068D01*
X44784132Y-23997068D02*
X44742989Y-23939925D01*
X44742989Y-23939925D02*
X44660704Y-23882782D01*
X44660704Y-23882782D02*
X44454989Y-23882782D01*
X44454989Y-23882782D02*
X44331561Y-23939925D01*
X43796704Y-23882782D02*
X43632132Y-23882782D01*
X43632132Y-23882782D02*
X43549847Y-23939925D01*
X43549847Y-23939925D02*
X43467561Y-24054211D01*
X43467561Y-24054211D02*
X43426418Y-24282782D01*
X43426418Y-24282782D02*
X43426418Y-24682782D01*
X43426418Y-24682782D02*
X43467561Y-24911354D01*
X43467561Y-24911354D02*
X43549847Y-25025640D01*
X43549847Y-25025640D02*
X43632132Y-25082782D01*
X43632132Y-25082782D02*
X43796704Y-25082782D01*
X43796704Y-25082782D02*
X43878990Y-25025640D01*
X43878990Y-25025640D02*
X43961275Y-24911354D01*
X43961275Y-24911354D02*
X44002418Y-24682782D01*
X44002418Y-24682782D02*
X44002418Y-24282782D01*
X44002418Y-24282782D02*
X43961275Y-24054211D01*
X43961275Y-24054211D02*
X43878990Y-23939925D01*
X43878990Y-23939925D02*
X43796704Y-23882782D01*
X42562418Y-25082782D02*
X42850418Y-24511354D01*
X43056132Y-25082782D02*
X43056132Y-23882782D01*
X43056132Y-23882782D02*
X42726989Y-23882782D01*
X42726989Y-23882782D02*
X42644704Y-23939925D01*
X42644704Y-23939925D02*
X42603561Y-23997068D01*
X42603561Y-23997068D02*
X42562418Y-24111354D01*
X42562418Y-24111354D02*
X42562418Y-24282782D01*
X42562418Y-24282782D02*
X42603561Y-24397068D01*
X42603561Y-24397068D02*
X42644704Y-24454211D01*
X42644704Y-24454211D02*
X42726989Y-24511354D01*
X42726989Y-24511354D02*
X43056132Y-24511354D01*
X41904132Y-24454211D02*
X41780704Y-24511354D01*
X41780704Y-24511354D02*
X41739561Y-24568497D01*
X41739561Y-24568497D02*
X41698418Y-24682782D01*
X41698418Y-24682782D02*
X41698418Y-24854211D01*
X41698418Y-24854211D02*
X41739561Y-24968497D01*
X41739561Y-24968497D02*
X41780704Y-25025640D01*
X41780704Y-25025640D02*
X41862989Y-25082782D01*
X41862989Y-25082782D02*
X42192132Y-25082782D01*
X42192132Y-25082782D02*
X42192132Y-23882782D01*
X42192132Y-23882782D02*
X41904132Y-23882782D01*
X41904132Y-23882782D02*
X41821847Y-23939925D01*
X41821847Y-23939925D02*
X41780704Y-23997068D01*
X41780704Y-23997068D02*
X41739561Y-24111354D01*
X41739561Y-24111354D02*
X41739561Y-24225640D01*
X41739561Y-24225640D02*
X41780704Y-24339925D01*
X41780704Y-24339925D02*
X41821847Y-24397068D01*
X41821847Y-24397068D02*
X41904132Y-24454211D01*
X41904132Y-24454211D02*
X42192132Y-24454211D01*
X41328132Y-24454211D02*
X41040132Y-24454211D01*
X40916704Y-25082782D02*
X41328132Y-25082782D01*
X41328132Y-25082782D02*
X41328132Y-23882782D01*
X41328132Y-23882782D02*
X40916704Y-23882782D01*
X40052704Y-25082782D02*
X40340704Y-24511354D01*
X40546418Y-25082782D02*
X40546418Y-23882782D01*
X40546418Y-23882782D02*
X40217275Y-23882782D01*
X40217275Y-23882782D02*
X40134990Y-23939925D01*
X40134990Y-23939925D02*
X40093847Y-23997068D01*
X40093847Y-23997068D02*
X40052704Y-24111354D01*
X40052704Y-24111354D02*
X40052704Y-24282782D01*
X40052704Y-24282782D02*
X40093847Y-24397068D01*
X40093847Y-24397068D02*
X40134990Y-24454211D01*
X40134990Y-24454211D02*
X40217275Y-24511354D01*
X40217275Y-24511354D02*
X40546418Y-24511354D01*
X38736132Y-24454211D02*
X38612704Y-24511354D01*
X38612704Y-24511354D02*
X38571561Y-24568497D01*
X38571561Y-24568497D02*
X38530418Y-24682782D01*
X38530418Y-24682782D02*
X38530418Y-24854211D01*
X38530418Y-24854211D02*
X38571561Y-24968497D01*
X38571561Y-24968497D02*
X38612704Y-25025640D01*
X38612704Y-25025640D02*
X38694989Y-25082782D01*
X38694989Y-25082782D02*
X39024132Y-25082782D01*
X39024132Y-25082782D02*
X39024132Y-23882782D01*
X39024132Y-23882782D02*
X38736132Y-23882782D01*
X38736132Y-23882782D02*
X38653847Y-23939925D01*
X38653847Y-23939925D02*
X38612704Y-23997068D01*
X38612704Y-23997068D02*
X38571561Y-24111354D01*
X38571561Y-24111354D02*
X38571561Y-24225640D01*
X38571561Y-24225640D02*
X38612704Y-24339925D01*
X38612704Y-24339925D02*
X38653847Y-24397068D01*
X38653847Y-24397068D02*
X38736132Y-24454211D01*
X38736132Y-24454211D02*
X39024132Y-24454211D01*
X38160132Y-24454211D02*
X37872132Y-24454211D01*
X37748704Y-25082782D02*
X38160132Y-25082782D01*
X38160132Y-25082782D02*
X38160132Y-23882782D01*
X38160132Y-23882782D02*
X37748704Y-23882782D01*
X37501847Y-23882782D02*
X37008133Y-23882782D01*
X37254990Y-25082782D02*
X37254990Y-23882782D01*
X36802418Y-23882782D02*
X36596704Y-25082782D01*
X36596704Y-25082782D02*
X36432132Y-24225640D01*
X36432132Y-24225640D02*
X36267561Y-25082782D01*
X36267561Y-25082782D02*
X36061847Y-23882782D01*
X35732703Y-24454211D02*
X35444703Y-24454211D01*
X35321275Y-25082782D02*
X35732703Y-25082782D01*
X35732703Y-25082782D02*
X35732703Y-23882782D01*
X35732703Y-23882782D02*
X35321275Y-23882782D01*
X34950989Y-24454211D02*
X34662989Y-24454211D01*
X34539561Y-25082782D02*
X34950989Y-25082782D01*
X34950989Y-25082782D02*
X34950989Y-23882782D01*
X34950989Y-23882782D02*
X34539561Y-23882782D01*
X34169275Y-25082782D02*
X34169275Y-23882782D01*
X34169275Y-23882782D02*
X33675561Y-25082782D01*
X33675561Y-25082782D02*
X33675561Y-23882782D01*
X32729275Y-23882782D02*
X32235561Y-23882782D01*
X32482418Y-25082782D02*
X32482418Y-23882782D01*
X31947560Y-25082782D02*
X31947560Y-23882782D01*
X31947560Y-24454211D02*
X31453846Y-24454211D01*
X31453846Y-25082782D02*
X31453846Y-23882782D01*
X31042417Y-24454211D02*
X30754417Y-24454211D01*
X30630989Y-25082782D02*
X31042417Y-25082782D01*
X31042417Y-25082782D02*
X31042417Y-23882782D01*
X31042417Y-23882782D02*
X30630989Y-23882782D01*
X29314417Y-24454211D02*
X29190989Y-24511354D01*
X29190989Y-24511354D02*
X29149846Y-24568497D01*
X29149846Y-24568497D02*
X29108703Y-24682782D01*
X29108703Y-24682782D02*
X29108703Y-24854211D01*
X29108703Y-24854211D02*
X29149846Y-24968497D01*
X29149846Y-24968497D02*
X29190989Y-25025640D01*
X29190989Y-25025640D02*
X29273274Y-25082782D01*
X29273274Y-25082782D02*
X29602417Y-25082782D01*
X29602417Y-25082782D02*
X29602417Y-23882782D01*
X29602417Y-23882782D02*
X29314417Y-23882782D01*
X29314417Y-23882782D02*
X29232132Y-23939925D01*
X29232132Y-23939925D02*
X29190989Y-23997068D01*
X29190989Y-23997068D02*
X29149846Y-24111354D01*
X29149846Y-24111354D02*
X29149846Y-24225640D01*
X29149846Y-24225640D02*
X29190989Y-24339925D01*
X29190989Y-24339925D02*
X29232132Y-24397068D01*
X29232132Y-24397068D02*
X29314417Y-24454211D01*
X29314417Y-24454211D02*
X29602417Y-24454211D01*
X28573846Y-23882782D02*
X28409274Y-23882782D01*
X28409274Y-23882782D02*
X28326989Y-23939925D01*
X28326989Y-23939925D02*
X28244703Y-24054211D01*
X28244703Y-24054211D02*
X28203560Y-24282782D01*
X28203560Y-24282782D02*
X28203560Y-24682782D01*
X28203560Y-24682782D02*
X28244703Y-24911354D01*
X28244703Y-24911354D02*
X28326989Y-25025640D01*
X28326989Y-25025640D02*
X28409274Y-25082782D01*
X28409274Y-25082782D02*
X28573846Y-25082782D01*
X28573846Y-25082782D02*
X28656132Y-25025640D01*
X28656132Y-25025640D02*
X28738417Y-24911354D01*
X28738417Y-24911354D02*
X28779560Y-24682782D01*
X28779560Y-24682782D02*
X28779560Y-24282782D01*
X28779560Y-24282782D02*
X28738417Y-24054211D01*
X28738417Y-24054211D02*
X28656132Y-23939925D01*
X28656132Y-23939925D02*
X28573846Y-23882782D01*
X27874417Y-24739925D02*
X27462989Y-24739925D01*
X27956703Y-25082782D02*
X27668703Y-23882782D01*
X27668703Y-23882782D02*
X27380703Y-25082782D01*
X26598989Y-25082782D02*
X26886989Y-24511354D01*
X27092703Y-25082782D02*
X27092703Y-23882782D01*
X27092703Y-23882782D02*
X26763560Y-23882782D01*
X26763560Y-23882782D02*
X26681275Y-23939925D01*
X26681275Y-23939925D02*
X26640132Y-23997068D01*
X26640132Y-23997068D02*
X26598989Y-24111354D01*
X26598989Y-24111354D02*
X26598989Y-24282782D01*
X26598989Y-24282782D02*
X26640132Y-24397068D01*
X26640132Y-24397068D02*
X26681275Y-24454211D01*
X26681275Y-24454211D02*
X26763560Y-24511354D01*
X26763560Y-24511354D02*
X27092703Y-24511354D01*
X26228703Y-25082782D02*
X26228703Y-23882782D01*
X26228703Y-23882782D02*
X26022989Y-23882782D01*
X26022989Y-23882782D02*
X25899560Y-23939925D01*
X25899560Y-23939925D02*
X25817275Y-24054211D01*
X25817275Y-24054211D02*
X25776132Y-24168497D01*
X25776132Y-24168497D02*
X25734989Y-24397068D01*
X25734989Y-24397068D02*
X25734989Y-24568497D01*
X25734989Y-24568497D02*
X25776132Y-24797068D01*
X25776132Y-24797068D02*
X25817275Y-24911354D01*
X25817275Y-24911354D02*
X25899560Y-25025640D01*
X25899560Y-25025640D02*
X26022989Y-25082782D01*
X26022989Y-25082782D02*
X26228703Y-25082782D01*
X25405846Y-25025640D02*
X25282418Y-25082782D01*
X25282418Y-25082782D02*
X25076703Y-25082782D01*
X25076703Y-25082782D02*
X24994418Y-25025640D01*
X24994418Y-25025640D02*
X24953275Y-24968497D01*
X24953275Y-24968497D02*
X24912132Y-24854211D01*
X24912132Y-24854211D02*
X24912132Y-24739925D01*
X24912132Y-24739925D02*
X24953275Y-24625640D01*
X24953275Y-24625640D02*
X24994418Y-24568497D01*
X24994418Y-24568497D02*
X25076703Y-24511354D01*
X25076703Y-24511354D02*
X25241275Y-24454211D01*
X25241275Y-24454211D02*
X25323560Y-24397068D01*
X25323560Y-24397068D02*
X25364703Y-24339925D01*
X25364703Y-24339925D02*
X25405846Y-24225640D01*
X25405846Y-24225640D02*
X25405846Y-24111354D01*
X25405846Y-24111354D02*
X25364703Y-23997068D01*
X25364703Y-23997068D02*
X25323560Y-23939925D01*
X25323560Y-23939925D02*
X25241275Y-23882782D01*
X25241275Y-23882782D02*
X25035560Y-23882782D01*
X25035560Y-23882782D02*
X24912132Y-23939925D01*
D11*
X47081274Y-6464710D02*
X47629846Y-6464710D01*
X47629846Y-6464710D02*
X47684703Y-7226615D01*
X47684703Y-7226615D02*
X47629846Y-7150424D01*
X47629846Y-7150424D02*
X47520132Y-7074234D01*
X47520132Y-7074234D02*
X47245846Y-7074234D01*
X47245846Y-7074234D02*
X47136132Y-7150424D01*
X47136132Y-7150424D02*
X47081274Y-7226615D01*
X47081274Y-7226615D02*
X47026417Y-7378996D01*
X47026417Y-7378996D02*
X47026417Y-7759948D01*
X47026417Y-7759948D02*
X47081274Y-7912329D01*
X47081274Y-7912329D02*
X47136132Y-7988520D01*
X47136132Y-7988520D02*
X47245846Y-8064710D01*
X47245846Y-8064710D02*
X47520132Y-8064710D01*
X47520132Y-8064710D02*
X47629846Y-7988520D01*
X47629846Y-7988520D02*
X47684703Y-7912329D01*
X46532703Y-7912329D02*
X46477846Y-7988520D01*
X46477846Y-7988520D02*
X46532703Y-8064710D01*
X46532703Y-8064710D02*
X46587560Y-7988520D01*
X46587560Y-7988520D02*
X46532703Y-7912329D01*
X46532703Y-7912329D02*
X46532703Y-8064710D01*
X45819560Y-7150424D02*
X45929275Y-7074234D01*
X45929275Y-7074234D02*
X45984132Y-6998043D01*
X45984132Y-6998043D02*
X46038989Y-6845662D01*
X46038989Y-6845662D02*
X46038989Y-6769472D01*
X46038989Y-6769472D02*
X45984132Y-6617091D01*
X45984132Y-6617091D02*
X45929275Y-6540900D01*
X45929275Y-6540900D02*
X45819560Y-6464710D01*
X45819560Y-6464710D02*
X45600132Y-6464710D01*
X45600132Y-6464710D02*
X45490418Y-6540900D01*
X45490418Y-6540900D02*
X45435560Y-6617091D01*
X45435560Y-6617091D02*
X45380703Y-6769472D01*
X45380703Y-6769472D02*
X45380703Y-6845662D01*
X45380703Y-6845662D02*
X45435560Y-6998043D01*
X45435560Y-6998043D02*
X45490418Y-7074234D01*
X45490418Y-7074234D02*
X45600132Y-7150424D01*
X45600132Y-7150424D02*
X45819560Y-7150424D01*
X45819560Y-7150424D02*
X45929275Y-7226615D01*
X45929275Y-7226615D02*
X45984132Y-7302805D01*
X45984132Y-7302805D02*
X46038989Y-7455186D01*
X46038989Y-7455186D02*
X46038989Y-7759948D01*
X46038989Y-7759948D02*
X45984132Y-7912329D01*
X45984132Y-7912329D02*
X45929275Y-7988520D01*
X45929275Y-7988520D02*
X45819560Y-8064710D01*
X45819560Y-8064710D02*
X45600132Y-8064710D01*
X45600132Y-8064710D02*
X45490418Y-7988520D01*
X45490418Y-7988520D02*
X45435560Y-7912329D01*
X45435560Y-7912329D02*
X45380703Y-7759948D01*
X45380703Y-7759948D02*
X45380703Y-7455186D01*
X45380703Y-7455186D02*
X45435560Y-7302805D01*
X45435560Y-7302805D02*
X45490418Y-7226615D01*
X45490418Y-7226615D02*
X45600132Y-7150424D01*
X43405846Y-6540900D02*
X43515561Y-6464710D01*
X43515561Y-6464710D02*
X43680132Y-6464710D01*
X43680132Y-6464710D02*
X43844703Y-6540900D01*
X43844703Y-6540900D02*
X43954418Y-6693281D01*
X43954418Y-6693281D02*
X44009275Y-6845662D01*
X44009275Y-6845662D02*
X44064132Y-7150424D01*
X44064132Y-7150424D02*
X44064132Y-7378996D01*
X44064132Y-7378996D02*
X44009275Y-7683758D01*
X44009275Y-7683758D02*
X43954418Y-7836139D01*
X43954418Y-7836139D02*
X43844703Y-7988520D01*
X43844703Y-7988520D02*
X43680132Y-8064710D01*
X43680132Y-8064710D02*
X43570418Y-8064710D01*
X43570418Y-8064710D02*
X43405846Y-7988520D01*
X43405846Y-7988520D02*
X43350989Y-7912329D01*
X43350989Y-7912329D02*
X43350989Y-7378996D01*
X43350989Y-7378996D02*
X43570418Y-7378996D01*
X42857275Y-8064710D02*
X42857275Y-6464710D01*
X42857275Y-7226615D02*
X42198989Y-7226615D01*
X42198989Y-8064710D02*
X42198989Y-6464710D01*
X41760132Y-6998043D02*
X41156704Y-6998043D01*
X41156704Y-6998043D02*
X41760132Y-8064710D01*
X41760132Y-8064710D02*
X41156704Y-8064710D01*
X39181847Y-8064710D02*
X39565847Y-7302805D01*
X39840133Y-8064710D02*
X39840133Y-6464710D01*
X39840133Y-6464710D02*
X39401276Y-6464710D01*
X39401276Y-6464710D02*
X39291561Y-6540900D01*
X39291561Y-6540900D02*
X39236704Y-6617091D01*
X39236704Y-6617091D02*
X39181847Y-6769472D01*
X39181847Y-6769472D02*
X39181847Y-6998043D01*
X39181847Y-6998043D02*
X39236704Y-7150424D01*
X39236704Y-7150424D02*
X39291561Y-7226615D01*
X39291561Y-7226615D02*
X39401276Y-7302805D01*
X39401276Y-7302805D02*
X39840133Y-7302805D01*
X38742990Y-7607567D02*
X38194419Y-7607567D01*
X38852704Y-8064710D02*
X38468704Y-6464710D01*
X38468704Y-6464710D02*
X38084704Y-8064710D01*
X37700704Y-8064710D02*
X37700704Y-6464710D01*
X37700704Y-6464710D02*
X37426418Y-6464710D01*
X37426418Y-6464710D02*
X37261847Y-6540900D01*
X37261847Y-6540900D02*
X37152132Y-6693281D01*
X37152132Y-6693281D02*
X37097275Y-6845662D01*
X37097275Y-6845662D02*
X37042418Y-7150424D01*
X37042418Y-7150424D02*
X37042418Y-7378996D01*
X37042418Y-7378996D02*
X37097275Y-7683758D01*
X37097275Y-7683758D02*
X37152132Y-7836139D01*
X37152132Y-7836139D02*
X37261847Y-7988520D01*
X37261847Y-7988520D02*
X37426418Y-8064710D01*
X37426418Y-8064710D02*
X37700704Y-8064710D01*
X36603561Y-7607567D02*
X36054990Y-7607567D01*
X36713275Y-8064710D02*
X36329275Y-6464710D01*
X36329275Y-6464710D02*
X35945275Y-8064710D01*
X34902989Y-8064710D02*
X35286989Y-7302805D01*
X35561275Y-8064710D02*
X35561275Y-6464710D01*
X35561275Y-6464710D02*
X35122418Y-6464710D01*
X35122418Y-6464710D02*
X35012703Y-6540900D01*
X35012703Y-6540900D02*
X34957846Y-6617091D01*
X34957846Y-6617091D02*
X34902989Y-6769472D01*
X34902989Y-6769472D02*
X34902989Y-6998043D01*
X34902989Y-6998043D02*
X34957846Y-7150424D01*
X34957846Y-7150424D02*
X35012703Y-7226615D01*
X35012703Y-7226615D02*
X35122418Y-7302805D01*
X35122418Y-7302805D02*
X35561275Y-7302805D01*
X33531561Y-7455186D02*
X32653847Y-7455186D01*
X31392132Y-6464710D02*
X30733847Y-6464710D01*
X31062989Y-8064710D02*
X31062989Y-6464710D01*
X29691561Y-8064710D02*
X30075561Y-7302805D01*
X30349847Y-8064710D02*
X30349847Y-6464710D01*
X30349847Y-6464710D02*
X29910990Y-6464710D01*
X29910990Y-6464710D02*
X29801275Y-6540900D01*
X29801275Y-6540900D02*
X29746418Y-6617091D01*
X29746418Y-6617091D02*
X29691561Y-6769472D01*
X29691561Y-6769472D02*
X29691561Y-6998043D01*
X29691561Y-6998043D02*
X29746418Y-7150424D01*
X29746418Y-7150424D02*
X29801275Y-7226615D01*
X29801275Y-7226615D02*
X29910990Y-7302805D01*
X29910990Y-7302805D02*
X30349847Y-7302805D01*
X29252704Y-7607567D02*
X28704133Y-7607567D01*
X29362418Y-8064710D02*
X28978418Y-6464710D01*
X28978418Y-6464710D02*
X28594418Y-8064710D01*
X28210418Y-8064710D02*
X28210418Y-6464710D01*
X28210418Y-6464710D02*
X27552132Y-8064710D01*
X27552132Y-8064710D02*
X27552132Y-6464710D01*
X27058418Y-7988520D02*
X26893847Y-8064710D01*
X26893847Y-8064710D02*
X26619561Y-8064710D01*
X26619561Y-8064710D02*
X26509847Y-7988520D01*
X26509847Y-7988520D02*
X26454989Y-7912329D01*
X26454989Y-7912329D02*
X26400132Y-7759948D01*
X26400132Y-7759948D02*
X26400132Y-7607567D01*
X26400132Y-7607567D02*
X26454989Y-7455186D01*
X26454989Y-7455186D02*
X26509847Y-7378996D01*
X26509847Y-7378996D02*
X26619561Y-7302805D01*
X26619561Y-7302805D02*
X26838989Y-7226615D01*
X26838989Y-7226615D02*
X26948704Y-7150424D01*
X26948704Y-7150424D02*
X27003561Y-7074234D01*
X27003561Y-7074234D02*
X27058418Y-6921853D01*
X27058418Y-6921853D02*
X27058418Y-6769472D01*
X27058418Y-6769472D02*
X27003561Y-6617091D01*
X27003561Y-6617091D02*
X26948704Y-6540900D01*
X26948704Y-6540900D02*
X26838989Y-6464710D01*
X26838989Y-6464710D02*
X26564704Y-6464710D01*
X26564704Y-6464710D02*
X26400132Y-6540900D01*
X25906418Y-8064710D02*
X25906418Y-6464710D01*
X25906418Y-6464710D02*
X25522418Y-7607567D01*
X25522418Y-7607567D02*
X25138418Y-6464710D01*
X25138418Y-6464710D02*
X25138418Y-8064710D01*
X24589847Y-8064710D02*
X24589847Y-6464710D01*
X24205847Y-6464710D02*
X23547562Y-6464710D01*
X23876704Y-8064710D02*
X23876704Y-6464710D01*
M02*
