%TF.GenerationSoftware,KiCad,Pcbnew,10.0.5*%
%TF.CreationDate,2026-08-09T20:19:21+01:00*%
%TF.ProjectId,radar_5g8_transmit,72616461-725f-4356-9738-5f7472616e73,rev?*%
%TF.SameCoordinates,Original*%
%TF.FileFunction,Copper,L2,Bot*%
%TF.FilePolarity,Positive*%
%FSLAX46Y46*%
G04 Gerber Fmt 4.6, Leading zero omitted, Abs format (unit mm)*
G04 Created by KiCad (PCBNEW 10.0.5) date 2026-08-09 20:19:21*
%MOMM*%
%LPD*%
G01*
G04 APERTURE LIST*
%TA.AperFunction,Conductor*%
%ADD10C,0.000000*%
%TD*%
%TA.AperFunction,ComponentPad*%
%ADD11C,6.000000*%
%TD*%
%TA.AperFunction,ViaPad*%
%ADD12C,0.750000*%
%TD*%
G04 APERTURE END LIST*
D10*
%TA.AperFunction,Conductor*%
%TO.N,GND*%
G36*
X70613769Y-254705D02*
G01*
X70684330Y-268740D01*
X70752455Y-291866D01*
X70816980Y-323686D01*
X70876798Y-363655D01*
X70930888Y-411091D01*
X70978324Y-465181D01*
X71018293Y-524999D01*
X71050113Y-589524D01*
X71073239Y-657649D01*
X71087274Y-728210D01*
X71091980Y-799999D01*
X71091980Y-46437000D01*
X71087274Y-46508789D01*
X71073239Y-46579350D01*
X71050113Y-46647475D01*
X71018293Y-46712000D01*
X70978324Y-46771818D01*
X70930888Y-46825908D01*
X70876798Y-46873344D01*
X70816980Y-46913313D01*
X70752455Y-46945133D01*
X70684330Y-46968259D01*
X70613769Y-46982294D01*
X70541980Y-46987000D01*
X799999Y-46987000D01*
X728210Y-46982294D01*
X657649Y-46968259D01*
X589524Y-46945133D01*
X524999Y-46913313D01*
X465181Y-46873344D01*
X411091Y-46825908D01*
X363655Y-46771818D01*
X323686Y-46712000D01*
X291866Y-46647475D01*
X268740Y-46579350D01*
X254705Y-46508789D01*
X250000Y-46437000D01*
X250000Y-799999D01*
X254705Y-728210D01*
X268740Y-657649D01*
X291866Y-589524D01*
X323686Y-524999D01*
X363655Y-465181D01*
X411091Y-411091D01*
X465181Y-363655D01*
X525000Y-323686D01*
X589524Y-291866D01*
X657649Y-268740D01*
X728210Y-254705D01*
X800000Y-250000D01*
X70541980Y-250000D01*
X70613769Y-254705D01*
G37*
%TD.AperFunction*%
%TD*%
D11*
%TO.P,H4,1*%
%TO.N,GND*%
X40000000Y-34237000D03*
%TD*%
%TO.P,H1,1*%
%TO.N,GND*%
X4000000Y-4237000D03*
%TD*%
%TO.P,H3,1*%
%TO.N,GND*%
X34000000Y-43237000D03*
%TD*%
%TO.P,H2,1*%
%TO.N,GND*%
X67000000Y-7237000D03*
%TD*%
D12*
%TO.N,GND*%
X53697242Y-44767000D03*
X16148231Y-43686984D03*
X59190570Y-44767000D03*
X59190570Y-46037000D03*
X9146664Y-46037000D03*
X23170990Y-44387000D03*
X14648231Y-43686984D03*
X53697242Y-46037000D03*
X9146664Y-44767000D03*
X3653336Y-44767000D03*
X64692137Y-43686984D03*
X3653336Y-46037000D03*
X48170990Y-44387000D03*
X66192137Y-43686984D03*
%TD*%
M02*
