%TF.GenerationSoftware,KiCad,Pcbnew,10.0.5*%
%TF.CreationDate,2026-08-09T20:45:44+01:00*%
%TF.ProjectId,radar_5g8_transmit,72616461-725f-4356-9738-5f7472616e73,rev?*%
%TF.SameCoordinates,Original*%
%TF.FileFunction,Legend,Bot*%
%TF.FilePolarity,Positive*%
%FSLAX46Y46*%
G04 Gerber Fmt 4.6, Leading zero omitted, Abs format (unit mm)*
G04 Created by KiCad (PCBNEW 10.0.5) date 2026-08-09 20:45:44*
%MOMM*%
%LPD*%
G01*
G04 APERTURE LIST*
%ADD10C,0.150000*%
%ADD11C,0.165000*%
%ADD12C,0.240000*%
G04 APERTURE END LIST*
D10*
X18718230Y-42141803D02*
X18958230Y-41665612D01*
X19129659Y-42141803D02*
X19129659Y-41141803D01*
X19129659Y-41141803D02*
X18855373Y-41141803D01*
X18855373Y-41141803D02*
X18786802Y-41189422D01*
X18786802Y-41189422D02*
X18752516Y-41237041D01*
X18752516Y-41237041D02*
X18718230Y-41332279D01*
X18718230Y-41332279D02*
X18718230Y-41475136D01*
X18718230Y-41475136D02*
X18752516Y-41570374D01*
X18752516Y-41570374D02*
X18786802Y-41617993D01*
X18786802Y-41617993D02*
X18855373Y-41665612D01*
X18855373Y-41665612D02*
X19129659Y-41665612D01*
X18032516Y-42141803D02*
X18443945Y-42141803D01*
X18238230Y-42141803D02*
X18238230Y-41141803D01*
X18238230Y-41141803D02*
X18306802Y-41284660D01*
X18306802Y-41284660D02*
X18375373Y-41379898D01*
X18375373Y-41379898D02*
X18443945Y-41427517D01*
D11*
X45212706Y-11637300D02*
X45476706Y-11113491D01*
X45665277Y-11637300D02*
X45665277Y-10537300D01*
X45665277Y-10537300D02*
X45363563Y-10537300D01*
X45363563Y-10537300D02*
X45288134Y-10589681D01*
X45288134Y-10589681D02*
X45250420Y-10642062D01*
X45250420Y-10642062D02*
X45212706Y-10746824D01*
X45212706Y-10746824D02*
X45212706Y-10903967D01*
X45212706Y-10903967D02*
X45250420Y-11008729D01*
X45250420Y-11008729D02*
X45288134Y-11061110D01*
X45288134Y-11061110D02*
X45363563Y-11113491D01*
X45363563Y-11113491D02*
X45665277Y-11113491D01*
X44873277Y-11637300D02*
X44873277Y-10537300D01*
X44873277Y-11061110D02*
X44420706Y-11061110D01*
X44420706Y-11637300D02*
X44420706Y-10537300D01*
X43590992Y-11532539D02*
X43628706Y-11584920D01*
X43628706Y-11584920D02*
X43741849Y-11637300D01*
X43741849Y-11637300D02*
X43817277Y-11637300D01*
X43817277Y-11637300D02*
X43930420Y-11584920D01*
X43930420Y-11584920D02*
X44005849Y-11480158D01*
X44005849Y-11480158D02*
X44043563Y-11375396D01*
X44043563Y-11375396D02*
X44081277Y-11165872D01*
X44081277Y-11165872D02*
X44081277Y-11008729D01*
X44081277Y-11008729D02*
X44043563Y-10799205D01*
X44043563Y-10799205D02*
X44005849Y-10694443D01*
X44005849Y-10694443D02*
X43930420Y-10589681D01*
X43930420Y-10589681D02*
X43817277Y-10537300D01*
X43817277Y-10537300D02*
X43741849Y-10537300D01*
X43741849Y-10537300D02*
X43628706Y-10589681D01*
X43628706Y-10589681D02*
X43590992Y-10642062D01*
X43251563Y-11637300D02*
X43251563Y-10537300D01*
X43251563Y-10537300D02*
X42949849Y-10537300D01*
X42949849Y-10537300D02*
X42874420Y-10589681D01*
X42874420Y-10589681D02*
X42836706Y-10642062D01*
X42836706Y-10642062D02*
X42798992Y-10746824D01*
X42798992Y-10746824D02*
X42798992Y-10903967D01*
X42798992Y-10903967D02*
X42836706Y-11008729D01*
X42836706Y-11008729D02*
X42874420Y-11061110D01*
X42874420Y-11061110D02*
X42949849Y-11113491D01*
X42949849Y-11113491D02*
X43251563Y-11113491D01*
X41290419Y-11323015D02*
X40913277Y-11323015D01*
X41365848Y-11637300D02*
X41101848Y-10537300D01*
X41101848Y-10537300D02*
X40837848Y-11637300D01*
X40649277Y-10537300D02*
X40121277Y-10537300D01*
X40121277Y-10537300D02*
X40649277Y-11637300D01*
X40649277Y-11637300D02*
X40121277Y-11637300D01*
X39819562Y-11637300D02*
X39819562Y-10537300D01*
X39442419Y-11637300D02*
X39442419Y-10537300D01*
X39442419Y-10537300D02*
X39178419Y-11323015D01*
X39178419Y-11323015D02*
X38914419Y-10537300D01*
X38914419Y-10537300D02*
X38914419Y-11637300D01*
X38537276Y-10537300D02*
X38537276Y-11427777D01*
X38537276Y-11427777D02*
X38499562Y-11532539D01*
X38499562Y-11532539D02*
X38461848Y-11584920D01*
X38461848Y-11584920D02*
X38386419Y-11637300D01*
X38386419Y-11637300D02*
X38235562Y-11637300D01*
X38235562Y-11637300D02*
X38160133Y-11584920D01*
X38160133Y-11584920D02*
X38122419Y-11532539D01*
X38122419Y-11532539D02*
X38084705Y-11427777D01*
X38084705Y-11427777D02*
X38084705Y-10537300D01*
X37820705Y-10537300D02*
X37368134Y-10537300D01*
X37594419Y-11637300D02*
X37594419Y-10537300D01*
X37104133Y-11637300D02*
X37104133Y-10537300D01*
X37104133Y-11061110D02*
X36651562Y-11061110D01*
X36651562Y-11637300D02*
X36651562Y-10537300D01*
X34728133Y-11637300D02*
X34728133Y-10537300D01*
X34728133Y-11584920D02*
X34803561Y-11637300D01*
X34803561Y-11637300D02*
X34954418Y-11637300D01*
X34954418Y-11637300D02*
X35029847Y-11584920D01*
X35029847Y-11584920D02*
X35067561Y-11532539D01*
X35067561Y-11532539D02*
X35105275Y-11427777D01*
X35105275Y-11427777D02*
X35105275Y-11113491D01*
X35105275Y-11113491D02*
X35067561Y-11008729D01*
X35067561Y-11008729D02*
X35029847Y-10956348D01*
X35029847Y-10956348D02*
X34954418Y-10903967D01*
X34954418Y-10903967D02*
X34803561Y-10903967D01*
X34803561Y-10903967D02*
X34728133Y-10956348D01*
X33747561Y-11061110D02*
X33144133Y-11061110D01*
X33144133Y-11375396D02*
X33747561Y-11375396D01*
X32201275Y-10642062D02*
X32163561Y-10589681D01*
X32163561Y-10589681D02*
X32088133Y-10537300D01*
X32088133Y-10537300D02*
X31899561Y-10537300D01*
X31899561Y-10537300D02*
X31824133Y-10589681D01*
X31824133Y-10589681D02*
X31786418Y-10642062D01*
X31786418Y-10642062D02*
X31748704Y-10746824D01*
X31748704Y-10746824D02*
X31748704Y-10851586D01*
X31748704Y-10851586D02*
X31786418Y-11008729D01*
X31786418Y-11008729D02*
X32238990Y-11637300D01*
X32238990Y-11637300D02*
X31748704Y-11637300D01*
X31032132Y-10537300D02*
X31409275Y-10537300D01*
X31409275Y-10537300D02*
X31446989Y-11061110D01*
X31446989Y-11061110D02*
X31409275Y-11008729D01*
X31409275Y-11008729D02*
X31333847Y-10956348D01*
X31333847Y-10956348D02*
X31145275Y-10956348D01*
X31145275Y-10956348D02*
X31069847Y-11008729D01*
X31069847Y-11008729D02*
X31032132Y-11061110D01*
X31032132Y-11061110D02*
X30994418Y-11165872D01*
X30994418Y-11165872D02*
X30994418Y-11427777D01*
X30994418Y-11427777D02*
X31032132Y-11532539D01*
X31032132Y-11532539D02*
X31069847Y-11584920D01*
X31069847Y-11584920D02*
X31145275Y-11637300D01*
X31145275Y-11637300D02*
X31333847Y-11637300D01*
X31333847Y-11637300D02*
X31409275Y-11584920D01*
X31409275Y-11584920D02*
X31446989Y-11532539D01*
X30654989Y-11532539D02*
X30617275Y-11584920D01*
X30617275Y-11584920D02*
X30654989Y-11637300D01*
X30654989Y-11637300D02*
X30692703Y-11584920D01*
X30692703Y-11584920D02*
X30654989Y-11532539D01*
X30654989Y-11532539D02*
X30654989Y-11637300D01*
X30164703Y-11008729D02*
X30240132Y-10956348D01*
X30240132Y-10956348D02*
X30277846Y-10903967D01*
X30277846Y-10903967D02*
X30315560Y-10799205D01*
X30315560Y-10799205D02*
X30315560Y-10746824D01*
X30315560Y-10746824D02*
X30277846Y-10642062D01*
X30277846Y-10642062D02*
X30240132Y-10589681D01*
X30240132Y-10589681D02*
X30164703Y-10537300D01*
X30164703Y-10537300D02*
X30013846Y-10537300D01*
X30013846Y-10537300D02*
X29938418Y-10589681D01*
X29938418Y-10589681D02*
X29900703Y-10642062D01*
X29900703Y-10642062D02*
X29862989Y-10746824D01*
X29862989Y-10746824D02*
X29862989Y-10799205D01*
X29862989Y-10799205D02*
X29900703Y-10903967D01*
X29900703Y-10903967D02*
X29938418Y-10956348D01*
X29938418Y-10956348D02*
X30013846Y-11008729D01*
X30013846Y-11008729D02*
X30164703Y-11008729D01*
X30164703Y-11008729D02*
X30240132Y-11061110D01*
X30240132Y-11061110D02*
X30277846Y-11113491D01*
X30277846Y-11113491D02*
X30315560Y-11218253D01*
X30315560Y-11218253D02*
X30315560Y-11427777D01*
X30315560Y-11427777D02*
X30277846Y-11532539D01*
X30277846Y-11532539D02*
X30240132Y-11584920D01*
X30240132Y-11584920D02*
X30164703Y-11637300D01*
X30164703Y-11637300D02*
X30013846Y-11637300D01*
X30013846Y-11637300D02*
X29938418Y-11584920D01*
X29938418Y-11584920D02*
X29900703Y-11532539D01*
X29900703Y-11532539D02*
X29862989Y-11427777D01*
X29862989Y-11427777D02*
X29862989Y-11218253D01*
X29862989Y-11218253D02*
X29900703Y-11113491D01*
X29900703Y-11113491D02*
X29938418Y-11061110D01*
X29938418Y-11061110D02*
X30013846Y-11008729D01*
X29184132Y-10903967D02*
X29184132Y-11637300D01*
X29372703Y-10484920D02*
X29561274Y-11270634D01*
X29561274Y-11270634D02*
X29070989Y-11270634D01*
X28429846Y-10903967D02*
X28429846Y-11637300D01*
X28618417Y-10484920D02*
X28806988Y-11270634D01*
X28806988Y-11270634D02*
X28316703Y-11270634D01*
X27411559Y-11637300D02*
X27411559Y-10903967D01*
X27411559Y-11008729D02*
X27373845Y-10956348D01*
X27373845Y-10956348D02*
X27298416Y-10903967D01*
X27298416Y-10903967D02*
X27185273Y-10903967D01*
X27185273Y-10903967D02*
X27109845Y-10956348D01*
X27109845Y-10956348D02*
X27072131Y-11061110D01*
X27072131Y-11061110D02*
X27072131Y-11637300D01*
X27072131Y-11061110D02*
X27034416Y-10956348D01*
X27034416Y-10956348D02*
X26958988Y-10903967D01*
X26958988Y-10903967D02*
X26845845Y-10903967D01*
X26845845Y-10903967D02*
X26770416Y-10956348D01*
X26770416Y-10956348D02*
X26732702Y-11061110D01*
X26732702Y-11061110D02*
X26732702Y-11637300D01*
X26355559Y-11637300D02*
X26355559Y-10903967D01*
X26355559Y-11008729D02*
X26317845Y-10956348D01*
X26317845Y-10956348D02*
X26242416Y-10903967D01*
X26242416Y-10903967D02*
X26129273Y-10903967D01*
X26129273Y-10903967D02*
X26053845Y-10956348D01*
X26053845Y-10956348D02*
X26016131Y-11061110D01*
X26016131Y-11061110D02*
X26016131Y-11637300D01*
X26016131Y-11061110D02*
X25978416Y-10956348D01*
X25978416Y-10956348D02*
X25902988Y-10903967D01*
X25902988Y-10903967D02*
X25789845Y-10903967D01*
X25789845Y-10903967D02*
X25714416Y-10956348D01*
X25714416Y-10956348D02*
X25676702Y-11061110D01*
X25676702Y-11061110D02*
X25676702Y-11637300D01*
X45778420Y-13237300D02*
X45250420Y-13237300D01*
X45250420Y-13237300D02*
X45778420Y-14337300D01*
X45778420Y-14337300D02*
X45250420Y-14337300D01*
X44797848Y-13813491D02*
X44797848Y-14337300D01*
X45061848Y-13237300D02*
X44797848Y-13813491D01*
X44797848Y-13813491D02*
X44533848Y-13237300D01*
X44005848Y-13761110D02*
X44269848Y-13761110D01*
X44269848Y-14337300D02*
X44269848Y-13237300D01*
X44269848Y-13237300D02*
X43892705Y-13237300D01*
X43666420Y-13237300D02*
X43176134Y-13237300D01*
X43176134Y-13237300D02*
X43440134Y-13656348D01*
X43440134Y-13656348D02*
X43326991Y-13656348D01*
X43326991Y-13656348D02*
X43251563Y-13708729D01*
X43251563Y-13708729D02*
X43213848Y-13761110D01*
X43213848Y-13761110D02*
X43176134Y-13865872D01*
X43176134Y-13865872D02*
X43176134Y-14127777D01*
X43176134Y-14127777D02*
X43213848Y-14232539D01*
X43213848Y-14232539D02*
X43251563Y-14284920D01*
X43251563Y-14284920D02*
X43326991Y-14337300D01*
X43326991Y-14337300D02*
X43553277Y-14337300D01*
X43553277Y-14337300D02*
X43628705Y-14284920D01*
X43628705Y-14284920D02*
X43666420Y-14232539D01*
X42685848Y-13237300D02*
X42610419Y-13237300D01*
X42610419Y-13237300D02*
X42534991Y-13289681D01*
X42534991Y-13289681D02*
X42497277Y-13342062D01*
X42497277Y-13342062D02*
X42459562Y-13446824D01*
X42459562Y-13446824D02*
X42421848Y-13656348D01*
X42421848Y-13656348D02*
X42421848Y-13918253D01*
X42421848Y-13918253D02*
X42459562Y-14127777D01*
X42459562Y-14127777D02*
X42497277Y-14232539D01*
X42497277Y-14232539D02*
X42534991Y-14284920D01*
X42534991Y-14284920D02*
X42610419Y-14337300D01*
X42610419Y-14337300D02*
X42685848Y-14337300D01*
X42685848Y-14337300D02*
X42761277Y-14284920D01*
X42761277Y-14284920D02*
X42798991Y-14232539D01*
X42798991Y-14232539D02*
X42836705Y-14127777D01*
X42836705Y-14127777D02*
X42874419Y-13918253D01*
X42874419Y-13918253D02*
X42874419Y-13656348D01*
X42874419Y-13656348D02*
X42836705Y-13446824D01*
X42836705Y-13446824D02*
X42798991Y-13342062D01*
X42798991Y-13342062D02*
X42761277Y-13289681D01*
X42761277Y-13289681D02*
X42685848Y-13237300D01*
X41931562Y-13237300D02*
X41856133Y-13237300D01*
X41856133Y-13237300D02*
X41780705Y-13289681D01*
X41780705Y-13289681D02*
X41742991Y-13342062D01*
X41742991Y-13342062D02*
X41705276Y-13446824D01*
X41705276Y-13446824D02*
X41667562Y-13656348D01*
X41667562Y-13656348D02*
X41667562Y-13918253D01*
X41667562Y-13918253D02*
X41705276Y-14127777D01*
X41705276Y-14127777D02*
X41742991Y-14232539D01*
X41742991Y-14232539D02*
X41780705Y-14284920D01*
X41780705Y-14284920D02*
X41856133Y-14337300D01*
X41856133Y-14337300D02*
X41931562Y-14337300D01*
X41931562Y-14337300D02*
X42006991Y-14284920D01*
X42006991Y-14284920D02*
X42044705Y-14232539D01*
X42044705Y-14232539D02*
X42082419Y-14127777D01*
X42082419Y-14127777D02*
X42120133Y-13918253D01*
X42120133Y-13918253D02*
X42120133Y-13656348D01*
X42120133Y-13656348D02*
X42082419Y-13446824D01*
X42082419Y-13446824D02*
X42044705Y-13342062D01*
X42044705Y-13342062D02*
X42006991Y-13289681D01*
X42006991Y-13289681D02*
X41931562Y-13237300D01*
X40875562Y-14232539D02*
X40913276Y-14284920D01*
X40913276Y-14284920D02*
X41026419Y-14337300D01*
X41026419Y-14337300D02*
X41101847Y-14337300D01*
X41101847Y-14337300D02*
X41214990Y-14284920D01*
X41214990Y-14284920D02*
X41290419Y-14180158D01*
X41290419Y-14180158D02*
X41328133Y-14075396D01*
X41328133Y-14075396D02*
X41365847Y-13865872D01*
X41365847Y-13865872D02*
X41365847Y-13708729D01*
X41365847Y-13708729D02*
X41328133Y-13499205D01*
X41328133Y-13499205D02*
X41290419Y-13394443D01*
X41290419Y-13394443D02*
X41214990Y-13289681D01*
X41214990Y-13289681D02*
X41101847Y-13237300D01*
X41101847Y-13237300D02*
X41026419Y-13237300D01*
X41026419Y-13237300D02*
X40913276Y-13289681D01*
X40913276Y-13289681D02*
X40875562Y-13342062D01*
X40573847Y-14023015D02*
X40196705Y-14023015D01*
X40649276Y-14337300D02*
X40385276Y-13237300D01*
X40385276Y-13237300D02*
X40121276Y-14337300D01*
X39857276Y-13918253D02*
X39253848Y-13918253D01*
X38876705Y-14337300D02*
X38876705Y-13237300D01*
X38876705Y-13237300D02*
X38574991Y-13237300D01*
X38574991Y-13237300D02*
X38499562Y-13289681D01*
X38499562Y-13289681D02*
X38461848Y-13342062D01*
X38461848Y-13342062D02*
X38424134Y-13446824D01*
X38424134Y-13446824D02*
X38424134Y-13603967D01*
X38424134Y-13603967D02*
X38461848Y-13708729D01*
X38461848Y-13708729D02*
X38499562Y-13761110D01*
X38499562Y-13761110D02*
X38574991Y-13813491D01*
X38574991Y-13813491D02*
X38876705Y-13813491D01*
X37330419Y-13237300D02*
X37254990Y-13237300D01*
X37254990Y-13237300D02*
X37179562Y-13289681D01*
X37179562Y-13289681D02*
X37141848Y-13342062D01*
X37141848Y-13342062D02*
X37104133Y-13446824D01*
X37104133Y-13446824D02*
X37066419Y-13656348D01*
X37066419Y-13656348D02*
X37066419Y-13918253D01*
X37066419Y-13918253D02*
X37104133Y-14127777D01*
X37104133Y-14127777D02*
X37141848Y-14232539D01*
X37141848Y-14232539D02*
X37179562Y-14284920D01*
X37179562Y-14284920D02*
X37254990Y-14337300D01*
X37254990Y-14337300D02*
X37330419Y-14337300D01*
X37330419Y-14337300D02*
X37405848Y-14284920D01*
X37405848Y-14284920D02*
X37443562Y-14232539D01*
X37443562Y-14232539D02*
X37481276Y-14127777D01*
X37481276Y-14127777D02*
X37518990Y-13918253D01*
X37518990Y-13918253D02*
X37518990Y-13656348D01*
X37518990Y-13656348D02*
X37481276Y-13446824D01*
X37481276Y-13446824D02*
X37443562Y-13342062D01*
X37443562Y-13342062D02*
X37405848Y-13289681D01*
X37405848Y-13289681D02*
X37330419Y-13237300D01*
X36726990Y-14232539D02*
X36689276Y-14284920D01*
X36689276Y-14284920D02*
X36726990Y-14337300D01*
X36726990Y-14337300D02*
X36764704Y-14284920D01*
X36764704Y-14284920D02*
X36726990Y-14232539D01*
X36726990Y-14232539D02*
X36726990Y-14337300D01*
X36425276Y-13237300D02*
X35897276Y-13237300D01*
X35897276Y-13237300D02*
X36236704Y-14337300D01*
X35256133Y-13237300D02*
X35406990Y-13237300D01*
X35406990Y-13237300D02*
X35482418Y-13289681D01*
X35482418Y-13289681D02*
X35520133Y-13342062D01*
X35520133Y-13342062D02*
X35595561Y-13499205D01*
X35595561Y-13499205D02*
X35633275Y-13708729D01*
X35633275Y-13708729D02*
X35633275Y-14127777D01*
X35633275Y-14127777D02*
X35595561Y-14232539D01*
X35595561Y-14232539D02*
X35557847Y-14284920D01*
X35557847Y-14284920D02*
X35482418Y-14337300D01*
X35482418Y-14337300D02*
X35331561Y-14337300D01*
X35331561Y-14337300D02*
X35256133Y-14284920D01*
X35256133Y-14284920D02*
X35218418Y-14232539D01*
X35218418Y-14232539D02*
X35180704Y-14127777D01*
X35180704Y-14127777D02*
X35180704Y-13865872D01*
X35180704Y-13865872D02*
X35218418Y-13761110D01*
X35218418Y-13761110D02*
X35256133Y-13708729D01*
X35256133Y-13708729D02*
X35331561Y-13656348D01*
X35331561Y-13656348D02*
X35482418Y-13656348D01*
X35482418Y-13656348D02*
X35557847Y-13708729D01*
X35557847Y-13708729D02*
X35595561Y-13761110D01*
X35595561Y-13761110D02*
X35633275Y-13865872D01*
X34237846Y-14337300D02*
X34237846Y-13603967D01*
X34237846Y-13708729D02*
X34200132Y-13656348D01*
X34200132Y-13656348D02*
X34124703Y-13603967D01*
X34124703Y-13603967D02*
X34011560Y-13603967D01*
X34011560Y-13603967D02*
X33936132Y-13656348D01*
X33936132Y-13656348D02*
X33898418Y-13761110D01*
X33898418Y-13761110D02*
X33898418Y-14337300D01*
X33898418Y-13761110D02*
X33860703Y-13656348D01*
X33860703Y-13656348D02*
X33785275Y-13603967D01*
X33785275Y-13603967D02*
X33672132Y-13603967D01*
X33672132Y-13603967D02*
X33596703Y-13656348D01*
X33596703Y-13656348D02*
X33558989Y-13761110D01*
X33558989Y-13761110D02*
X33558989Y-14337300D01*
X33181846Y-14337300D02*
X33181846Y-13603967D01*
X33181846Y-13708729D02*
X33144132Y-13656348D01*
X33144132Y-13656348D02*
X33068703Y-13603967D01*
X33068703Y-13603967D02*
X32955560Y-13603967D01*
X32955560Y-13603967D02*
X32880132Y-13656348D01*
X32880132Y-13656348D02*
X32842418Y-13761110D01*
X32842418Y-13761110D02*
X32842418Y-14337300D01*
X32842418Y-13761110D02*
X32804703Y-13656348D01*
X32804703Y-13656348D02*
X32729275Y-13603967D01*
X32729275Y-13603967D02*
X32616132Y-13603967D01*
X32616132Y-13603967D02*
X32540703Y-13656348D01*
X32540703Y-13656348D02*
X32502989Y-13761110D01*
X32502989Y-13761110D02*
X32502989Y-14337300D01*
X30956703Y-13184920D02*
X31635560Y-14599205D01*
X30126988Y-13342062D02*
X30089274Y-13289681D01*
X30089274Y-13289681D02*
X30013846Y-13237300D01*
X30013846Y-13237300D02*
X29825274Y-13237300D01*
X29825274Y-13237300D02*
X29749846Y-13289681D01*
X29749846Y-13289681D02*
X29712131Y-13342062D01*
X29712131Y-13342062D02*
X29674417Y-13446824D01*
X29674417Y-13446824D02*
X29674417Y-13551586D01*
X29674417Y-13551586D02*
X29712131Y-13708729D01*
X29712131Y-13708729D02*
X30164703Y-14337300D01*
X30164703Y-14337300D02*
X29674417Y-14337300D01*
X28957845Y-14337300D02*
X29334988Y-14337300D01*
X29334988Y-14337300D02*
X29334988Y-13237300D01*
X27524702Y-13184920D02*
X28203559Y-14599205D01*
X26694987Y-14023015D02*
X26317845Y-14023015D01*
X26770416Y-14337300D02*
X26506416Y-13237300D01*
X26506416Y-13237300D02*
X26242416Y-14337300D01*
X25638988Y-13603967D02*
X25638988Y-14494443D01*
X25638988Y-14494443D02*
X25676702Y-14599205D01*
X25676702Y-14599205D02*
X25714416Y-14651586D01*
X25714416Y-14651586D02*
X25789845Y-14703967D01*
X25789845Y-14703967D02*
X25902988Y-14703967D01*
X25902988Y-14703967D02*
X25978416Y-14651586D01*
X25638988Y-14284920D02*
X25714416Y-14337300D01*
X25714416Y-14337300D02*
X25865273Y-14337300D01*
X25865273Y-14337300D02*
X25940702Y-14284920D01*
X25940702Y-14284920D02*
X25978416Y-14232539D01*
X25978416Y-14232539D02*
X26016130Y-14127777D01*
X26016130Y-14127777D02*
X26016130Y-13813491D01*
X26016130Y-13813491D02*
X25978416Y-13708729D01*
X25978416Y-13708729D02*
X25940702Y-13656348D01*
X25940702Y-13656348D02*
X25865273Y-13603967D01*
X25865273Y-13603967D02*
X25714416Y-13603967D01*
X25714416Y-13603967D02*
X25638988Y-13656348D01*
X42610418Y-16461110D02*
X42497275Y-16513491D01*
X42497275Y-16513491D02*
X42459561Y-16565872D01*
X42459561Y-16565872D02*
X42421847Y-16670634D01*
X42421847Y-16670634D02*
X42421847Y-16827777D01*
X42421847Y-16827777D02*
X42459561Y-16932539D01*
X42459561Y-16932539D02*
X42497275Y-16984920D01*
X42497275Y-16984920D02*
X42572704Y-17037300D01*
X42572704Y-17037300D02*
X42874418Y-17037300D01*
X42874418Y-17037300D02*
X42874418Y-15937300D01*
X42874418Y-15937300D02*
X42610418Y-15937300D01*
X42610418Y-15937300D02*
X42534990Y-15989681D01*
X42534990Y-15989681D02*
X42497275Y-16042062D01*
X42497275Y-16042062D02*
X42459561Y-16146824D01*
X42459561Y-16146824D02*
X42459561Y-16251586D01*
X42459561Y-16251586D02*
X42497275Y-16356348D01*
X42497275Y-16356348D02*
X42534990Y-16408729D01*
X42534990Y-16408729D02*
X42610418Y-16461110D01*
X42610418Y-16461110D02*
X42874418Y-16461110D01*
X41931561Y-15937300D02*
X41780704Y-15937300D01*
X41780704Y-15937300D02*
X41705275Y-15989681D01*
X41705275Y-15989681D02*
X41629847Y-16094443D01*
X41629847Y-16094443D02*
X41592132Y-16303967D01*
X41592132Y-16303967D02*
X41592132Y-16670634D01*
X41592132Y-16670634D02*
X41629847Y-16880158D01*
X41629847Y-16880158D02*
X41705275Y-16984920D01*
X41705275Y-16984920D02*
X41780704Y-17037300D01*
X41780704Y-17037300D02*
X41931561Y-17037300D01*
X41931561Y-17037300D02*
X42006990Y-16984920D01*
X42006990Y-16984920D02*
X42082418Y-16880158D01*
X42082418Y-16880158D02*
X42120132Y-16670634D01*
X42120132Y-16670634D02*
X42120132Y-16303967D01*
X42120132Y-16303967D02*
X42082418Y-16094443D01*
X42082418Y-16094443D02*
X42006990Y-15989681D01*
X42006990Y-15989681D02*
X41931561Y-15937300D01*
X41252704Y-17037300D02*
X41252704Y-15937300D01*
X41252704Y-15937300D02*
X40800133Y-17037300D01*
X40800133Y-17037300D02*
X40800133Y-15937300D01*
X40422990Y-17037300D02*
X40422990Y-15937300D01*
X40422990Y-15937300D02*
X40234419Y-15937300D01*
X40234419Y-15937300D02*
X40121276Y-15989681D01*
X40121276Y-15989681D02*
X40045847Y-16094443D01*
X40045847Y-16094443D02*
X40008133Y-16199205D01*
X40008133Y-16199205D02*
X39970419Y-16408729D01*
X39970419Y-16408729D02*
X39970419Y-16565872D01*
X39970419Y-16565872D02*
X40008133Y-16775396D01*
X40008133Y-16775396D02*
X40045847Y-16880158D01*
X40045847Y-16880158D02*
X40121276Y-16984920D01*
X40121276Y-16984920D02*
X40234419Y-17037300D01*
X40234419Y-17037300D02*
X40422990Y-17037300D01*
X39140704Y-15937300D02*
X38688133Y-15937300D01*
X38914418Y-17037300D02*
X38914418Y-15937300D01*
X38273275Y-15937300D02*
X38122418Y-15937300D01*
X38122418Y-15937300D02*
X38046989Y-15989681D01*
X38046989Y-15989681D02*
X37971561Y-16094443D01*
X37971561Y-16094443D02*
X37933846Y-16303967D01*
X37933846Y-16303967D02*
X37933846Y-16670634D01*
X37933846Y-16670634D02*
X37971561Y-16880158D01*
X37971561Y-16880158D02*
X38046989Y-16984920D01*
X38046989Y-16984920D02*
X38122418Y-17037300D01*
X38122418Y-17037300D02*
X38273275Y-17037300D01*
X38273275Y-17037300D02*
X38348704Y-16984920D01*
X38348704Y-16984920D02*
X38424132Y-16880158D01*
X38424132Y-16880158D02*
X38461846Y-16670634D01*
X38461846Y-16670634D02*
X38461846Y-16303967D01*
X38461846Y-16303967D02*
X38424132Y-16094443D01*
X38424132Y-16094443D02*
X38348704Y-15989681D01*
X38348704Y-15989681D02*
X38273275Y-15937300D01*
X36576132Y-15989681D02*
X36651561Y-15937300D01*
X36651561Y-15937300D02*
X36764703Y-15937300D01*
X36764703Y-15937300D02*
X36877846Y-15989681D01*
X36877846Y-15989681D02*
X36953275Y-16094443D01*
X36953275Y-16094443D02*
X36990989Y-16199205D01*
X36990989Y-16199205D02*
X37028703Y-16408729D01*
X37028703Y-16408729D02*
X37028703Y-16565872D01*
X37028703Y-16565872D02*
X36990989Y-16775396D01*
X36990989Y-16775396D02*
X36953275Y-16880158D01*
X36953275Y-16880158D02*
X36877846Y-16984920D01*
X36877846Y-16984920D02*
X36764703Y-17037300D01*
X36764703Y-17037300D02*
X36689275Y-17037300D01*
X36689275Y-17037300D02*
X36576132Y-16984920D01*
X36576132Y-16984920D02*
X36538418Y-16932539D01*
X36538418Y-16932539D02*
X36538418Y-16565872D01*
X36538418Y-16565872D02*
X36689275Y-16565872D01*
X35746418Y-17037300D02*
X36010418Y-16513491D01*
X36198989Y-17037300D02*
X36198989Y-15937300D01*
X36198989Y-15937300D02*
X35897275Y-15937300D01*
X35897275Y-15937300D02*
X35821846Y-15989681D01*
X35821846Y-15989681D02*
X35784132Y-16042062D01*
X35784132Y-16042062D02*
X35746418Y-16146824D01*
X35746418Y-16146824D02*
X35746418Y-16303967D01*
X35746418Y-16303967D02*
X35784132Y-16408729D01*
X35784132Y-16408729D02*
X35821846Y-16461110D01*
X35821846Y-16461110D02*
X35897275Y-16513491D01*
X35897275Y-16513491D02*
X36198989Y-16513491D01*
X35256132Y-15937300D02*
X35105275Y-15937300D01*
X35105275Y-15937300D02*
X35029846Y-15989681D01*
X35029846Y-15989681D02*
X34954418Y-16094443D01*
X34954418Y-16094443D02*
X34916703Y-16303967D01*
X34916703Y-16303967D02*
X34916703Y-16670634D01*
X34916703Y-16670634D02*
X34954418Y-16880158D01*
X34954418Y-16880158D02*
X35029846Y-16984920D01*
X35029846Y-16984920D02*
X35105275Y-17037300D01*
X35105275Y-17037300D02*
X35256132Y-17037300D01*
X35256132Y-17037300D02*
X35331561Y-16984920D01*
X35331561Y-16984920D02*
X35406989Y-16880158D01*
X35406989Y-16880158D02*
X35444703Y-16670634D01*
X35444703Y-16670634D02*
X35444703Y-16303967D01*
X35444703Y-16303967D02*
X35406989Y-16094443D01*
X35406989Y-16094443D02*
X35331561Y-15989681D01*
X35331561Y-15989681D02*
X35256132Y-15937300D01*
X34577275Y-15937300D02*
X34577275Y-16827777D01*
X34577275Y-16827777D02*
X34539561Y-16932539D01*
X34539561Y-16932539D02*
X34501847Y-16984920D01*
X34501847Y-16984920D02*
X34426418Y-17037300D01*
X34426418Y-17037300D02*
X34275561Y-17037300D01*
X34275561Y-17037300D02*
X34200132Y-16984920D01*
X34200132Y-16984920D02*
X34162418Y-16932539D01*
X34162418Y-16932539D02*
X34124704Y-16827777D01*
X34124704Y-16827777D02*
X34124704Y-15937300D01*
X33747561Y-17037300D02*
X33747561Y-15937300D01*
X33747561Y-15937300D02*
X33294990Y-17037300D01*
X33294990Y-17037300D02*
X33294990Y-15937300D01*
X32917847Y-17037300D02*
X32917847Y-15937300D01*
X32917847Y-15937300D02*
X32729276Y-15937300D01*
X32729276Y-15937300D02*
X32616133Y-15989681D01*
X32616133Y-15989681D02*
X32540704Y-16094443D01*
X32540704Y-16094443D02*
X32502990Y-16199205D01*
X32502990Y-16199205D02*
X32465276Y-16408729D01*
X32465276Y-16408729D02*
X32465276Y-16565872D01*
X32465276Y-16565872D02*
X32502990Y-16775396D01*
X32502990Y-16775396D02*
X32540704Y-16880158D01*
X32540704Y-16880158D02*
X32616133Y-16984920D01*
X32616133Y-16984920D02*
X32729276Y-17037300D01*
X32729276Y-17037300D02*
X32917847Y-17037300D01*
X31522418Y-17037300D02*
X31522418Y-15937300D01*
X31522418Y-15937300D02*
X31220704Y-15937300D01*
X31220704Y-15937300D02*
X31145275Y-15989681D01*
X31145275Y-15989681D02*
X31107561Y-16042062D01*
X31107561Y-16042062D02*
X31069847Y-16146824D01*
X31069847Y-16146824D02*
X31069847Y-16303967D01*
X31069847Y-16303967D02*
X31107561Y-16408729D01*
X31107561Y-16408729D02*
X31145275Y-16461110D01*
X31145275Y-16461110D02*
X31220704Y-16513491D01*
X31220704Y-16513491D02*
X31522418Y-16513491D01*
X30353275Y-17037300D02*
X30730418Y-17037300D01*
X30730418Y-17037300D02*
X30730418Y-15937300D01*
X30126989Y-16723015D02*
X29749847Y-16723015D01*
X30202418Y-17037300D02*
X29938418Y-15937300D01*
X29938418Y-15937300D02*
X29674418Y-17037300D01*
X29523561Y-15937300D02*
X29070990Y-15937300D01*
X29297275Y-17037300D02*
X29297275Y-15937300D01*
X28806989Y-16461110D02*
X28542989Y-16461110D01*
X28429846Y-17037300D02*
X28806989Y-17037300D01*
X28806989Y-17037300D02*
X28806989Y-15937300D01*
X28806989Y-15937300D02*
X28429846Y-15937300D01*
X43590990Y-18742062D02*
X43553276Y-18689681D01*
X43553276Y-18689681D02*
X43477848Y-18637300D01*
X43477848Y-18637300D02*
X43289276Y-18637300D01*
X43289276Y-18637300D02*
X43213848Y-18689681D01*
X43213848Y-18689681D02*
X43176133Y-18742062D01*
X43176133Y-18742062D02*
X43138419Y-18846824D01*
X43138419Y-18846824D02*
X43138419Y-18951586D01*
X43138419Y-18951586D02*
X43176133Y-19108729D01*
X43176133Y-19108729D02*
X43628705Y-19737300D01*
X43628705Y-19737300D02*
X43138419Y-19737300D01*
X42421847Y-18637300D02*
X42798990Y-18637300D01*
X42798990Y-18637300D02*
X42836704Y-19161110D01*
X42836704Y-19161110D02*
X42798990Y-19108729D01*
X42798990Y-19108729D02*
X42723562Y-19056348D01*
X42723562Y-19056348D02*
X42534990Y-19056348D01*
X42534990Y-19056348D02*
X42459562Y-19108729D01*
X42459562Y-19108729D02*
X42421847Y-19161110D01*
X42421847Y-19161110D02*
X42384133Y-19265872D01*
X42384133Y-19265872D02*
X42384133Y-19527777D01*
X42384133Y-19527777D02*
X42421847Y-19632539D01*
X42421847Y-19632539D02*
X42459562Y-19684920D01*
X42459562Y-19684920D02*
X42534990Y-19737300D01*
X42534990Y-19737300D02*
X42723562Y-19737300D01*
X42723562Y-19737300D02*
X42798990Y-19684920D01*
X42798990Y-19684920D02*
X42836704Y-19632539D01*
X41441275Y-19737300D02*
X41441275Y-19003967D01*
X41441275Y-19108729D02*
X41403561Y-19056348D01*
X41403561Y-19056348D02*
X41328132Y-19003967D01*
X41328132Y-19003967D02*
X41214989Y-19003967D01*
X41214989Y-19003967D02*
X41139561Y-19056348D01*
X41139561Y-19056348D02*
X41101847Y-19161110D01*
X41101847Y-19161110D02*
X41101847Y-19737300D01*
X41101847Y-19161110D02*
X41064132Y-19056348D01*
X41064132Y-19056348D02*
X40988704Y-19003967D01*
X40988704Y-19003967D02*
X40875561Y-19003967D01*
X40875561Y-19003967D02*
X40800132Y-19056348D01*
X40800132Y-19056348D02*
X40762418Y-19161110D01*
X40762418Y-19161110D02*
X40762418Y-19737300D01*
X40385275Y-19737300D02*
X40385275Y-19003967D01*
X40385275Y-19108729D02*
X40347561Y-19056348D01*
X40347561Y-19056348D02*
X40272132Y-19003967D01*
X40272132Y-19003967D02*
X40158989Y-19003967D01*
X40158989Y-19003967D02*
X40083561Y-19056348D01*
X40083561Y-19056348D02*
X40045847Y-19161110D01*
X40045847Y-19161110D02*
X40045847Y-19737300D01*
X40045847Y-19161110D02*
X40008132Y-19056348D01*
X40008132Y-19056348D02*
X39932704Y-19003967D01*
X39932704Y-19003967D02*
X39819561Y-19003967D01*
X39819561Y-19003967D02*
X39744132Y-19056348D01*
X39744132Y-19056348D02*
X39706418Y-19161110D01*
X39706418Y-19161110D02*
X39706418Y-19737300D01*
X38725846Y-19737300D02*
X38725846Y-18637300D01*
X38725846Y-18637300D02*
X38424132Y-18637300D01*
X38424132Y-18637300D02*
X38348703Y-18689681D01*
X38348703Y-18689681D02*
X38310989Y-18742062D01*
X38310989Y-18742062D02*
X38273275Y-18846824D01*
X38273275Y-18846824D02*
X38273275Y-19003967D01*
X38273275Y-19003967D02*
X38310989Y-19108729D01*
X38310989Y-19108729D02*
X38348703Y-19161110D01*
X38348703Y-19161110D02*
X38424132Y-19213491D01*
X38424132Y-19213491D02*
X38725846Y-19213491D01*
X37971560Y-19423015D02*
X37594418Y-19423015D01*
X38046989Y-19737300D02*
X37782989Y-18637300D01*
X37782989Y-18637300D02*
X37518989Y-19737300D01*
X37292703Y-19684920D02*
X37179561Y-19737300D01*
X37179561Y-19737300D02*
X36990989Y-19737300D01*
X36990989Y-19737300D02*
X36915561Y-19684920D01*
X36915561Y-19684920D02*
X36877846Y-19632539D01*
X36877846Y-19632539D02*
X36840132Y-19527777D01*
X36840132Y-19527777D02*
X36840132Y-19423015D01*
X36840132Y-19423015D02*
X36877846Y-19318253D01*
X36877846Y-19318253D02*
X36915561Y-19265872D01*
X36915561Y-19265872D02*
X36990989Y-19213491D01*
X36990989Y-19213491D02*
X37141846Y-19161110D01*
X37141846Y-19161110D02*
X37217275Y-19108729D01*
X37217275Y-19108729D02*
X37254989Y-19056348D01*
X37254989Y-19056348D02*
X37292703Y-18951586D01*
X37292703Y-18951586D02*
X37292703Y-18846824D01*
X37292703Y-18846824D02*
X37254989Y-18742062D01*
X37254989Y-18742062D02*
X37217275Y-18689681D01*
X37217275Y-18689681D02*
X37141846Y-18637300D01*
X37141846Y-18637300D02*
X36953275Y-18637300D01*
X36953275Y-18637300D02*
X36840132Y-18689681D01*
X36613846Y-18637300D02*
X36161275Y-18637300D01*
X36387560Y-19737300D02*
X36387560Y-18637300D01*
X35293845Y-19161110D02*
X35029845Y-19161110D01*
X34916702Y-19737300D02*
X35293845Y-19737300D01*
X35293845Y-19737300D02*
X35293845Y-18637300D01*
X35293845Y-18637300D02*
X34916702Y-18637300D01*
X34690417Y-18637300D02*
X34426417Y-19737300D01*
X34426417Y-19737300D02*
X34162417Y-18637300D01*
X33898417Y-19161110D02*
X33634417Y-19161110D01*
X33521274Y-19737300D02*
X33898417Y-19737300D01*
X33898417Y-19737300D02*
X33898417Y-18637300D01*
X33898417Y-18637300D02*
X33521274Y-18637300D01*
X32729275Y-19737300D02*
X32993275Y-19213491D01*
X33181846Y-19737300D02*
X33181846Y-18637300D01*
X33181846Y-18637300D02*
X32880132Y-18637300D01*
X32880132Y-18637300D02*
X32804703Y-18689681D01*
X32804703Y-18689681D02*
X32766989Y-18742062D01*
X32766989Y-18742062D02*
X32729275Y-18846824D01*
X32729275Y-18846824D02*
X32729275Y-19003967D01*
X32729275Y-19003967D02*
X32766989Y-19108729D01*
X32766989Y-19108729D02*
X32804703Y-19161110D01*
X32804703Y-19161110D02*
X32880132Y-19213491D01*
X32880132Y-19213491D02*
X33181846Y-19213491D01*
X32238989Y-19213491D02*
X32238989Y-19737300D01*
X32502989Y-18637300D02*
X32238989Y-19213491D01*
X32238989Y-19213491D02*
X31974989Y-18637300D01*
X31107560Y-19737300D02*
X31107560Y-18637300D01*
X31107560Y-18637300D02*
X30805846Y-18637300D01*
X30805846Y-18637300D02*
X30730417Y-18689681D01*
X30730417Y-18689681D02*
X30692703Y-18742062D01*
X30692703Y-18742062D02*
X30654989Y-18846824D01*
X30654989Y-18846824D02*
X30654989Y-19003967D01*
X30654989Y-19003967D02*
X30692703Y-19108729D01*
X30692703Y-19108729D02*
X30730417Y-19161110D01*
X30730417Y-19161110D02*
X30805846Y-19213491D01*
X30805846Y-19213491D02*
X31107560Y-19213491D01*
X30353274Y-19423015D02*
X29976132Y-19423015D01*
X30428703Y-19737300D02*
X30164703Y-18637300D01*
X30164703Y-18637300D02*
X29900703Y-19737300D01*
X29749846Y-18637300D02*
X29297275Y-18637300D01*
X29523560Y-19737300D02*
X29523560Y-18637300D01*
X28580703Y-19632539D02*
X28618417Y-19684920D01*
X28618417Y-19684920D02*
X28731560Y-19737300D01*
X28731560Y-19737300D02*
X28806988Y-19737300D01*
X28806988Y-19737300D02*
X28920131Y-19684920D01*
X28920131Y-19684920D02*
X28995560Y-19580158D01*
X28995560Y-19580158D02*
X29033274Y-19475396D01*
X29033274Y-19475396D02*
X29070988Y-19265872D01*
X29070988Y-19265872D02*
X29070988Y-19108729D01*
X29070988Y-19108729D02*
X29033274Y-18899205D01*
X29033274Y-18899205D02*
X28995560Y-18794443D01*
X28995560Y-18794443D02*
X28920131Y-18689681D01*
X28920131Y-18689681D02*
X28806988Y-18637300D01*
X28806988Y-18637300D02*
X28731560Y-18637300D01*
X28731560Y-18637300D02*
X28618417Y-18689681D01*
X28618417Y-18689681D02*
X28580703Y-18742062D01*
X28241274Y-19737300D02*
X28241274Y-18637300D01*
X28241274Y-19161110D02*
X27788703Y-19161110D01*
X27788703Y-19737300D02*
X27788703Y-18637300D01*
X43628704Y-22437300D02*
X43628704Y-21337300D01*
X43628704Y-21337300D02*
X43364704Y-22123015D01*
X43364704Y-22123015D02*
X43100704Y-21337300D01*
X43100704Y-21337300D02*
X43100704Y-22437300D01*
X42572704Y-21337300D02*
X42421847Y-21337300D01*
X42421847Y-21337300D02*
X42346418Y-21389681D01*
X42346418Y-21389681D02*
X42270990Y-21494443D01*
X42270990Y-21494443D02*
X42233275Y-21703967D01*
X42233275Y-21703967D02*
X42233275Y-22070634D01*
X42233275Y-22070634D02*
X42270990Y-22280158D01*
X42270990Y-22280158D02*
X42346418Y-22384920D01*
X42346418Y-22384920D02*
X42421847Y-22437300D01*
X42421847Y-22437300D02*
X42572704Y-22437300D01*
X42572704Y-22437300D02*
X42648133Y-22384920D01*
X42648133Y-22384920D02*
X42723561Y-22280158D01*
X42723561Y-22280158D02*
X42761275Y-22070634D01*
X42761275Y-22070634D02*
X42761275Y-21703967D01*
X42761275Y-21703967D02*
X42723561Y-21494443D01*
X42723561Y-21494443D02*
X42648133Y-21389681D01*
X42648133Y-21389681D02*
X42572704Y-21337300D01*
X41893847Y-21337300D02*
X41893847Y-22227777D01*
X41893847Y-22227777D02*
X41856133Y-22332539D01*
X41856133Y-22332539D02*
X41818419Y-22384920D01*
X41818419Y-22384920D02*
X41742990Y-22437300D01*
X41742990Y-22437300D02*
X41592133Y-22437300D01*
X41592133Y-22437300D02*
X41516704Y-22384920D01*
X41516704Y-22384920D02*
X41478990Y-22332539D01*
X41478990Y-22332539D02*
X41441276Y-22227777D01*
X41441276Y-22227777D02*
X41441276Y-21337300D01*
X41064133Y-22437300D02*
X41064133Y-21337300D01*
X41064133Y-21337300D02*
X40611562Y-22437300D01*
X40611562Y-22437300D02*
X40611562Y-21337300D01*
X40347562Y-21337300D02*
X39894991Y-21337300D01*
X40121276Y-22437300D02*
X40121276Y-21337300D01*
X39027561Y-21703967D02*
X38424133Y-22018253D01*
X38424133Y-22018253D02*
X39027561Y-22332539D01*
X38046990Y-21861110D02*
X37443562Y-21861110D01*
X37443562Y-22175396D02*
X38046990Y-22175396D01*
X36500704Y-21442062D02*
X36462990Y-21389681D01*
X36462990Y-21389681D02*
X36387562Y-21337300D01*
X36387562Y-21337300D02*
X36198990Y-21337300D01*
X36198990Y-21337300D02*
X36123562Y-21389681D01*
X36123562Y-21389681D02*
X36085847Y-21442062D01*
X36085847Y-21442062D02*
X36048133Y-21546824D01*
X36048133Y-21546824D02*
X36048133Y-21651586D01*
X36048133Y-21651586D02*
X36085847Y-21808729D01*
X36085847Y-21808729D02*
X36538419Y-22437300D01*
X36538419Y-22437300D02*
X36048133Y-22437300D01*
X35557847Y-21337300D02*
X35482418Y-21337300D01*
X35482418Y-21337300D02*
X35406990Y-21389681D01*
X35406990Y-21389681D02*
X35369276Y-21442062D01*
X35369276Y-21442062D02*
X35331561Y-21546824D01*
X35331561Y-21546824D02*
X35293847Y-21756348D01*
X35293847Y-21756348D02*
X35293847Y-22018253D01*
X35293847Y-22018253D02*
X35331561Y-22227777D01*
X35331561Y-22227777D02*
X35369276Y-22332539D01*
X35369276Y-22332539D02*
X35406990Y-22384920D01*
X35406990Y-22384920D02*
X35482418Y-22437300D01*
X35482418Y-22437300D02*
X35557847Y-22437300D01*
X35557847Y-22437300D02*
X35633276Y-22384920D01*
X35633276Y-22384920D02*
X35670990Y-22332539D01*
X35670990Y-22332539D02*
X35708704Y-22227777D01*
X35708704Y-22227777D02*
X35746418Y-22018253D01*
X35746418Y-22018253D02*
X35746418Y-21756348D01*
X35746418Y-21756348D02*
X35708704Y-21546824D01*
X35708704Y-21546824D02*
X35670990Y-21442062D01*
X35670990Y-21442062D02*
X35633276Y-21389681D01*
X35633276Y-21389681D02*
X35557847Y-21337300D01*
X34803561Y-21337300D02*
X34728132Y-21337300D01*
X34728132Y-21337300D02*
X34652704Y-21389681D01*
X34652704Y-21389681D02*
X34614990Y-21442062D01*
X34614990Y-21442062D02*
X34577275Y-21546824D01*
X34577275Y-21546824D02*
X34539561Y-21756348D01*
X34539561Y-21756348D02*
X34539561Y-22018253D01*
X34539561Y-22018253D02*
X34577275Y-22227777D01*
X34577275Y-22227777D02*
X34614990Y-22332539D01*
X34614990Y-22332539D02*
X34652704Y-22384920D01*
X34652704Y-22384920D02*
X34728132Y-22437300D01*
X34728132Y-22437300D02*
X34803561Y-22437300D01*
X34803561Y-22437300D02*
X34878990Y-22384920D01*
X34878990Y-22384920D02*
X34916704Y-22332539D01*
X34916704Y-22332539D02*
X34954418Y-22227777D01*
X34954418Y-22227777D02*
X34992132Y-22018253D01*
X34992132Y-22018253D02*
X34992132Y-21756348D01*
X34992132Y-21756348D02*
X34954418Y-21546824D01*
X34954418Y-21546824D02*
X34916704Y-21442062D01*
X34916704Y-21442062D02*
X34878990Y-21389681D01*
X34878990Y-21389681D02*
X34803561Y-21337300D01*
X33596703Y-22437300D02*
X33596703Y-21703967D01*
X33596703Y-21808729D02*
X33558989Y-21756348D01*
X33558989Y-21756348D02*
X33483560Y-21703967D01*
X33483560Y-21703967D02*
X33370417Y-21703967D01*
X33370417Y-21703967D02*
X33294989Y-21756348D01*
X33294989Y-21756348D02*
X33257275Y-21861110D01*
X33257275Y-21861110D02*
X33257275Y-22437300D01*
X33257275Y-21861110D02*
X33219560Y-21756348D01*
X33219560Y-21756348D02*
X33144132Y-21703967D01*
X33144132Y-21703967D02*
X33030989Y-21703967D01*
X33030989Y-21703967D02*
X32955560Y-21756348D01*
X32955560Y-21756348D02*
X32917846Y-21861110D01*
X32917846Y-21861110D02*
X32917846Y-22437300D01*
X32540703Y-22437300D02*
X32540703Y-21703967D01*
X32540703Y-21808729D02*
X32502989Y-21756348D01*
X32502989Y-21756348D02*
X32427560Y-21703967D01*
X32427560Y-21703967D02*
X32314417Y-21703967D01*
X32314417Y-21703967D02*
X32238989Y-21756348D01*
X32238989Y-21756348D02*
X32201275Y-21861110D01*
X32201275Y-21861110D02*
X32201275Y-22437300D01*
X32201275Y-21861110D02*
X32163560Y-21756348D01*
X32163560Y-21756348D02*
X32088132Y-21703967D01*
X32088132Y-21703967D02*
X31974989Y-21703967D01*
X31974989Y-21703967D02*
X31899560Y-21756348D01*
X31899560Y-21756348D02*
X31861846Y-21861110D01*
X31861846Y-21861110D02*
X31861846Y-22437300D01*
X30918988Y-22123015D02*
X30541846Y-22123015D01*
X30994417Y-22437300D02*
X30730417Y-21337300D01*
X30730417Y-21337300D02*
X30466417Y-22437300D01*
X30202417Y-22437300D02*
X30202417Y-21337300D01*
X30202417Y-21337300D02*
X29900703Y-21337300D01*
X29900703Y-21337300D02*
X29825274Y-21389681D01*
X29825274Y-21389681D02*
X29787560Y-21442062D01*
X29787560Y-21442062D02*
X29749846Y-21546824D01*
X29749846Y-21546824D02*
X29749846Y-21703967D01*
X29749846Y-21703967D02*
X29787560Y-21808729D01*
X29787560Y-21808729D02*
X29825274Y-21861110D01*
X29825274Y-21861110D02*
X29900703Y-21913491D01*
X29900703Y-21913491D02*
X30202417Y-21913491D01*
X29448131Y-22123015D02*
X29070989Y-22123015D01*
X29523560Y-22437300D02*
X29259560Y-21337300D01*
X29259560Y-21337300D02*
X28995560Y-22437300D01*
X28278989Y-22437300D02*
X28542989Y-21913491D01*
X28731560Y-22437300D02*
X28731560Y-21337300D01*
X28731560Y-21337300D02*
X28429846Y-21337300D01*
X28429846Y-21337300D02*
X28354417Y-21389681D01*
X28354417Y-21389681D02*
X28316703Y-21442062D01*
X28316703Y-21442062D02*
X28278989Y-21546824D01*
X28278989Y-21546824D02*
X28278989Y-21703967D01*
X28278989Y-21703967D02*
X28316703Y-21808729D01*
X28316703Y-21808729D02*
X28354417Y-21861110D01*
X28354417Y-21861110D02*
X28429846Y-21913491D01*
X28429846Y-21913491D02*
X28731560Y-21913491D01*
X28052703Y-21337300D02*
X27600132Y-21337300D01*
X27826417Y-22437300D02*
X27826417Y-21337300D01*
X45533274Y-24823015D02*
X45156132Y-24823015D01*
X45608703Y-25137300D02*
X45344703Y-24037300D01*
X45344703Y-24037300D02*
X45080703Y-25137300D01*
X44552703Y-24561110D02*
X44439560Y-24613491D01*
X44439560Y-24613491D02*
X44401846Y-24665872D01*
X44401846Y-24665872D02*
X44364132Y-24770634D01*
X44364132Y-24770634D02*
X44364132Y-24927777D01*
X44364132Y-24927777D02*
X44401846Y-25032539D01*
X44401846Y-25032539D02*
X44439560Y-25084920D01*
X44439560Y-25084920D02*
X44514989Y-25137300D01*
X44514989Y-25137300D02*
X44816703Y-25137300D01*
X44816703Y-25137300D02*
X44816703Y-24037300D01*
X44816703Y-24037300D02*
X44552703Y-24037300D01*
X44552703Y-24037300D02*
X44477275Y-24089681D01*
X44477275Y-24089681D02*
X44439560Y-24142062D01*
X44439560Y-24142062D02*
X44401846Y-24246824D01*
X44401846Y-24246824D02*
X44401846Y-24351586D01*
X44401846Y-24351586D02*
X44439560Y-24456348D01*
X44439560Y-24456348D02*
X44477275Y-24508729D01*
X44477275Y-24508729D02*
X44552703Y-24561110D01*
X44552703Y-24561110D02*
X44816703Y-24561110D01*
X44062417Y-25084920D02*
X43949275Y-25137300D01*
X43949275Y-25137300D02*
X43760703Y-25137300D01*
X43760703Y-25137300D02*
X43685275Y-25084920D01*
X43685275Y-25084920D02*
X43647560Y-25032539D01*
X43647560Y-25032539D02*
X43609846Y-24927777D01*
X43609846Y-24927777D02*
X43609846Y-24823015D01*
X43609846Y-24823015D02*
X43647560Y-24718253D01*
X43647560Y-24718253D02*
X43685275Y-24665872D01*
X43685275Y-24665872D02*
X43760703Y-24613491D01*
X43760703Y-24613491D02*
X43911560Y-24561110D01*
X43911560Y-24561110D02*
X43986989Y-24508729D01*
X43986989Y-24508729D02*
X44024703Y-24456348D01*
X44024703Y-24456348D02*
X44062417Y-24351586D01*
X44062417Y-24351586D02*
X44062417Y-24246824D01*
X44062417Y-24246824D02*
X44024703Y-24142062D01*
X44024703Y-24142062D02*
X43986989Y-24089681D01*
X43986989Y-24089681D02*
X43911560Y-24037300D01*
X43911560Y-24037300D02*
X43722989Y-24037300D01*
X43722989Y-24037300D02*
X43609846Y-24089681D01*
X43119560Y-24037300D02*
X42968703Y-24037300D01*
X42968703Y-24037300D02*
X42893274Y-24089681D01*
X42893274Y-24089681D02*
X42817846Y-24194443D01*
X42817846Y-24194443D02*
X42780131Y-24403967D01*
X42780131Y-24403967D02*
X42780131Y-24770634D01*
X42780131Y-24770634D02*
X42817846Y-24980158D01*
X42817846Y-24980158D02*
X42893274Y-25084920D01*
X42893274Y-25084920D02*
X42968703Y-25137300D01*
X42968703Y-25137300D02*
X43119560Y-25137300D01*
X43119560Y-25137300D02*
X43194989Y-25084920D01*
X43194989Y-25084920D02*
X43270417Y-24980158D01*
X43270417Y-24980158D02*
X43308131Y-24770634D01*
X43308131Y-24770634D02*
X43308131Y-24403967D01*
X43308131Y-24403967D02*
X43270417Y-24194443D01*
X43270417Y-24194443D02*
X43194989Y-24089681D01*
X43194989Y-24089681D02*
X43119560Y-24037300D01*
X41988132Y-25137300D02*
X42252132Y-24613491D01*
X42440703Y-25137300D02*
X42440703Y-24037300D01*
X42440703Y-24037300D02*
X42138989Y-24037300D01*
X42138989Y-24037300D02*
X42063560Y-24089681D01*
X42063560Y-24089681D02*
X42025846Y-24142062D01*
X42025846Y-24142062D02*
X41988132Y-24246824D01*
X41988132Y-24246824D02*
X41988132Y-24403967D01*
X41988132Y-24403967D02*
X42025846Y-24508729D01*
X42025846Y-24508729D02*
X42063560Y-24561110D01*
X42063560Y-24561110D02*
X42138989Y-24613491D01*
X42138989Y-24613491D02*
X42440703Y-24613491D01*
X41384703Y-24561110D02*
X41271560Y-24613491D01*
X41271560Y-24613491D02*
X41233846Y-24665872D01*
X41233846Y-24665872D02*
X41196132Y-24770634D01*
X41196132Y-24770634D02*
X41196132Y-24927777D01*
X41196132Y-24927777D02*
X41233846Y-25032539D01*
X41233846Y-25032539D02*
X41271560Y-25084920D01*
X41271560Y-25084920D02*
X41346989Y-25137300D01*
X41346989Y-25137300D02*
X41648703Y-25137300D01*
X41648703Y-25137300D02*
X41648703Y-24037300D01*
X41648703Y-24037300D02*
X41384703Y-24037300D01*
X41384703Y-24037300D02*
X41309275Y-24089681D01*
X41309275Y-24089681D02*
X41271560Y-24142062D01*
X41271560Y-24142062D02*
X41233846Y-24246824D01*
X41233846Y-24246824D02*
X41233846Y-24351586D01*
X41233846Y-24351586D02*
X41271560Y-24456348D01*
X41271560Y-24456348D02*
X41309275Y-24508729D01*
X41309275Y-24508729D02*
X41384703Y-24561110D01*
X41384703Y-24561110D02*
X41648703Y-24561110D01*
X40856703Y-24561110D02*
X40592703Y-24561110D01*
X40479560Y-25137300D02*
X40856703Y-25137300D01*
X40856703Y-25137300D02*
X40856703Y-24037300D01*
X40856703Y-24037300D02*
X40479560Y-24037300D01*
X39687561Y-25137300D02*
X39951561Y-24613491D01*
X40140132Y-25137300D02*
X40140132Y-24037300D01*
X40140132Y-24037300D02*
X39838418Y-24037300D01*
X39838418Y-24037300D02*
X39762989Y-24089681D01*
X39762989Y-24089681D02*
X39725275Y-24142062D01*
X39725275Y-24142062D02*
X39687561Y-24246824D01*
X39687561Y-24246824D02*
X39687561Y-24403967D01*
X39687561Y-24403967D02*
X39725275Y-24508729D01*
X39725275Y-24508729D02*
X39762989Y-24561110D01*
X39762989Y-24561110D02*
X39838418Y-24613491D01*
X39838418Y-24613491D02*
X40140132Y-24613491D01*
X38480703Y-24561110D02*
X38367560Y-24613491D01*
X38367560Y-24613491D02*
X38329846Y-24665872D01*
X38329846Y-24665872D02*
X38292132Y-24770634D01*
X38292132Y-24770634D02*
X38292132Y-24927777D01*
X38292132Y-24927777D02*
X38329846Y-25032539D01*
X38329846Y-25032539D02*
X38367560Y-25084920D01*
X38367560Y-25084920D02*
X38442989Y-25137300D01*
X38442989Y-25137300D02*
X38744703Y-25137300D01*
X38744703Y-25137300D02*
X38744703Y-24037300D01*
X38744703Y-24037300D02*
X38480703Y-24037300D01*
X38480703Y-24037300D02*
X38405275Y-24089681D01*
X38405275Y-24089681D02*
X38367560Y-24142062D01*
X38367560Y-24142062D02*
X38329846Y-24246824D01*
X38329846Y-24246824D02*
X38329846Y-24351586D01*
X38329846Y-24351586D02*
X38367560Y-24456348D01*
X38367560Y-24456348D02*
X38405275Y-24508729D01*
X38405275Y-24508729D02*
X38480703Y-24561110D01*
X38480703Y-24561110D02*
X38744703Y-24561110D01*
X37952703Y-24561110D02*
X37688703Y-24561110D01*
X37575560Y-25137300D02*
X37952703Y-25137300D01*
X37952703Y-25137300D02*
X37952703Y-24037300D01*
X37952703Y-24037300D02*
X37575560Y-24037300D01*
X37349275Y-24037300D02*
X36896704Y-24037300D01*
X37122989Y-25137300D02*
X37122989Y-24037300D01*
X36708132Y-24037300D02*
X36519560Y-25137300D01*
X36519560Y-25137300D02*
X36368703Y-24351586D01*
X36368703Y-24351586D02*
X36217846Y-25137300D01*
X36217846Y-25137300D02*
X36029275Y-24037300D01*
X35727560Y-24561110D02*
X35463560Y-24561110D01*
X35350417Y-25137300D02*
X35727560Y-25137300D01*
X35727560Y-25137300D02*
X35727560Y-24037300D01*
X35727560Y-24037300D02*
X35350417Y-24037300D01*
X35010989Y-24561110D02*
X34746989Y-24561110D01*
X34633846Y-25137300D02*
X35010989Y-25137300D01*
X35010989Y-25137300D02*
X35010989Y-24037300D01*
X35010989Y-24037300D02*
X34633846Y-24037300D01*
X34294418Y-25137300D02*
X34294418Y-24037300D01*
X34294418Y-24037300D02*
X33841847Y-25137300D01*
X33841847Y-25137300D02*
X33841847Y-24037300D01*
X32974418Y-24037300D02*
X32521847Y-24037300D01*
X32748132Y-25137300D02*
X32748132Y-24037300D01*
X32257846Y-25137300D02*
X32257846Y-24037300D01*
X32257846Y-24561110D02*
X31805275Y-24561110D01*
X31805275Y-25137300D02*
X31805275Y-24037300D01*
X31428132Y-24561110D02*
X31164132Y-24561110D01*
X31050989Y-25137300D02*
X31428132Y-25137300D01*
X31428132Y-25137300D02*
X31428132Y-24037300D01*
X31428132Y-24037300D02*
X31050989Y-24037300D01*
X29844132Y-24561110D02*
X29730989Y-24613491D01*
X29730989Y-24613491D02*
X29693275Y-24665872D01*
X29693275Y-24665872D02*
X29655561Y-24770634D01*
X29655561Y-24770634D02*
X29655561Y-24927777D01*
X29655561Y-24927777D02*
X29693275Y-25032539D01*
X29693275Y-25032539D02*
X29730989Y-25084920D01*
X29730989Y-25084920D02*
X29806418Y-25137300D01*
X29806418Y-25137300D02*
X30108132Y-25137300D01*
X30108132Y-25137300D02*
X30108132Y-24037300D01*
X30108132Y-24037300D02*
X29844132Y-24037300D01*
X29844132Y-24037300D02*
X29768704Y-24089681D01*
X29768704Y-24089681D02*
X29730989Y-24142062D01*
X29730989Y-24142062D02*
X29693275Y-24246824D01*
X29693275Y-24246824D02*
X29693275Y-24351586D01*
X29693275Y-24351586D02*
X29730989Y-24456348D01*
X29730989Y-24456348D02*
X29768704Y-24508729D01*
X29768704Y-24508729D02*
X29844132Y-24561110D01*
X29844132Y-24561110D02*
X30108132Y-24561110D01*
X29165275Y-24037300D02*
X29014418Y-24037300D01*
X29014418Y-24037300D02*
X28938989Y-24089681D01*
X28938989Y-24089681D02*
X28863561Y-24194443D01*
X28863561Y-24194443D02*
X28825846Y-24403967D01*
X28825846Y-24403967D02*
X28825846Y-24770634D01*
X28825846Y-24770634D02*
X28863561Y-24980158D01*
X28863561Y-24980158D02*
X28938989Y-25084920D01*
X28938989Y-25084920D02*
X29014418Y-25137300D01*
X29014418Y-25137300D02*
X29165275Y-25137300D01*
X29165275Y-25137300D02*
X29240704Y-25084920D01*
X29240704Y-25084920D02*
X29316132Y-24980158D01*
X29316132Y-24980158D02*
X29353846Y-24770634D01*
X29353846Y-24770634D02*
X29353846Y-24403967D01*
X29353846Y-24403967D02*
X29316132Y-24194443D01*
X29316132Y-24194443D02*
X29240704Y-24089681D01*
X29240704Y-24089681D02*
X29165275Y-24037300D01*
X28524132Y-24823015D02*
X28146990Y-24823015D01*
X28599561Y-25137300D02*
X28335561Y-24037300D01*
X28335561Y-24037300D02*
X28071561Y-25137300D01*
X27354990Y-25137300D02*
X27618990Y-24613491D01*
X27807561Y-25137300D02*
X27807561Y-24037300D01*
X27807561Y-24037300D02*
X27505847Y-24037300D01*
X27505847Y-24037300D02*
X27430418Y-24089681D01*
X27430418Y-24089681D02*
X27392704Y-24142062D01*
X27392704Y-24142062D02*
X27354990Y-24246824D01*
X27354990Y-24246824D02*
X27354990Y-24403967D01*
X27354990Y-24403967D02*
X27392704Y-24508729D01*
X27392704Y-24508729D02*
X27430418Y-24561110D01*
X27430418Y-24561110D02*
X27505847Y-24613491D01*
X27505847Y-24613491D02*
X27807561Y-24613491D01*
X27015561Y-25137300D02*
X27015561Y-24037300D01*
X27015561Y-24037300D02*
X26826990Y-24037300D01*
X26826990Y-24037300D02*
X26713847Y-24089681D01*
X26713847Y-24089681D02*
X26638418Y-24194443D01*
X26638418Y-24194443D02*
X26600704Y-24299205D01*
X26600704Y-24299205D02*
X26562990Y-24508729D01*
X26562990Y-24508729D02*
X26562990Y-24665872D01*
X26562990Y-24665872D02*
X26600704Y-24875396D01*
X26600704Y-24875396D02*
X26638418Y-24980158D01*
X26638418Y-24980158D02*
X26713847Y-25084920D01*
X26713847Y-25084920D02*
X26826990Y-25137300D01*
X26826990Y-25137300D02*
X27015561Y-25137300D01*
X26261275Y-25084920D02*
X26148133Y-25137300D01*
X26148133Y-25137300D02*
X25959561Y-25137300D01*
X25959561Y-25137300D02*
X25884133Y-25084920D01*
X25884133Y-25084920D02*
X25846418Y-25032539D01*
X25846418Y-25032539D02*
X25808704Y-24927777D01*
X25808704Y-24927777D02*
X25808704Y-24823015D01*
X25808704Y-24823015D02*
X25846418Y-24718253D01*
X25846418Y-24718253D02*
X25884133Y-24665872D01*
X25884133Y-24665872D02*
X25959561Y-24613491D01*
X25959561Y-24613491D02*
X26110418Y-24561110D01*
X26110418Y-24561110D02*
X26185847Y-24508729D01*
X26185847Y-24508729D02*
X26223561Y-24456348D01*
X26223561Y-24456348D02*
X26261275Y-24351586D01*
X26261275Y-24351586D02*
X26261275Y-24246824D01*
X26261275Y-24246824D02*
X26223561Y-24142062D01*
X26223561Y-24142062D02*
X26185847Y-24089681D01*
X26185847Y-24089681D02*
X26110418Y-24037300D01*
X26110418Y-24037300D02*
X25921847Y-24037300D01*
X25921847Y-24037300D02*
X25808704Y-24089681D01*
D12*
X47081274Y-7064710D02*
X47629846Y-7064710D01*
X47629846Y-7064710D02*
X47684703Y-7826615D01*
X47684703Y-7826615D02*
X47629846Y-7750424D01*
X47629846Y-7750424D02*
X47520132Y-7674234D01*
X47520132Y-7674234D02*
X47245846Y-7674234D01*
X47245846Y-7674234D02*
X47136132Y-7750424D01*
X47136132Y-7750424D02*
X47081274Y-7826615D01*
X47081274Y-7826615D02*
X47026417Y-7978996D01*
X47026417Y-7978996D02*
X47026417Y-8359948D01*
X47026417Y-8359948D02*
X47081274Y-8512329D01*
X47081274Y-8512329D02*
X47136132Y-8588520D01*
X47136132Y-8588520D02*
X47245846Y-8664710D01*
X47245846Y-8664710D02*
X47520132Y-8664710D01*
X47520132Y-8664710D02*
X47629846Y-8588520D01*
X47629846Y-8588520D02*
X47684703Y-8512329D01*
X46532703Y-8512329D02*
X46477846Y-8588520D01*
X46477846Y-8588520D02*
X46532703Y-8664710D01*
X46532703Y-8664710D02*
X46587560Y-8588520D01*
X46587560Y-8588520D02*
X46532703Y-8512329D01*
X46532703Y-8512329D02*
X46532703Y-8664710D01*
X45819560Y-7750424D02*
X45929275Y-7674234D01*
X45929275Y-7674234D02*
X45984132Y-7598043D01*
X45984132Y-7598043D02*
X46038989Y-7445662D01*
X46038989Y-7445662D02*
X46038989Y-7369472D01*
X46038989Y-7369472D02*
X45984132Y-7217091D01*
X45984132Y-7217091D02*
X45929275Y-7140900D01*
X45929275Y-7140900D02*
X45819560Y-7064710D01*
X45819560Y-7064710D02*
X45600132Y-7064710D01*
X45600132Y-7064710D02*
X45490418Y-7140900D01*
X45490418Y-7140900D02*
X45435560Y-7217091D01*
X45435560Y-7217091D02*
X45380703Y-7369472D01*
X45380703Y-7369472D02*
X45380703Y-7445662D01*
X45380703Y-7445662D02*
X45435560Y-7598043D01*
X45435560Y-7598043D02*
X45490418Y-7674234D01*
X45490418Y-7674234D02*
X45600132Y-7750424D01*
X45600132Y-7750424D02*
X45819560Y-7750424D01*
X45819560Y-7750424D02*
X45929275Y-7826615D01*
X45929275Y-7826615D02*
X45984132Y-7902805D01*
X45984132Y-7902805D02*
X46038989Y-8055186D01*
X46038989Y-8055186D02*
X46038989Y-8359948D01*
X46038989Y-8359948D02*
X45984132Y-8512329D01*
X45984132Y-8512329D02*
X45929275Y-8588520D01*
X45929275Y-8588520D02*
X45819560Y-8664710D01*
X45819560Y-8664710D02*
X45600132Y-8664710D01*
X45600132Y-8664710D02*
X45490418Y-8588520D01*
X45490418Y-8588520D02*
X45435560Y-8512329D01*
X45435560Y-8512329D02*
X45380703Y-8359948D01*
X45380703Y-8359948D02*
X45380703Y-8055186D01*
X45380703Y-8055186D02*
X45435560Y-7902805D01*
X45435560Y-7902805D02*
X45490418Y-7826615D01*
X45490418Y-7826615D02*
X45600132Y-7750424D01*
X43405846Y-7140900D02*
X43515561Y-7064710D01*
X43515561Y-7064710D02*
X43680132Y-7064710D01*
X43680132Y-7064710D02*
X43844703Y-7140900D01*
X43844703Y-7140900D02*
X43954418Y-7293281D01*
X43954418Y-7293281D02*
X44009275Y-7445662D01*
X44009275Y-7445662D02*
X44064132Y-7750424D01*
X44064132Y-7750424D02*
X44064132Y-7978996D01*
X44064132Y-7978996D02*
X44009275Y-8283758D01*
X44009275Y-8283758D02*
X43954418Y-8436139D01*
X43954418Y-8436139D02*
X43844703Y-8588520D01*
X43844703Y-8588520D02*
X43680132Y-8664710D01*
X43680132Y-8664710D02*
X43570418Y-8664710D01*
X43570418Y-8664710D02*
X43405846Y-8588520D01*
X43405846Y-8588520D02*
X43350989Y-8512329D01*
X43350989Y-8512329D02*
X43350989Y-7978996D01*
X43350989Y-7978996D02*
X43570418Y-7978996D01*
X42857275Y-8664710D02*
X42857275Y-7064710D01*
X42857275Y-7826615D02*
X42198989Y-7826615D01*
X42198989Y-8664710D02*
X42198989Y-7064710D01*
X41760132Y-7598043D02*
X41156704Y-7598043D01*
X41156704Y-7598043D02*
X41760132Y-8664710D01*
X41760132Y-8664710D02*
X41156704Y-8664710D01*
X39181847Y-8664710D02*
X39565847Y-7902805D01*
X39840133Y-8664710D02*
X39840133Y-7064710D01*
X39840133Y-7064710D02*
X39401276Y-7064710D01*
X39401276Y-7064710D02*
X39291561Y-7140900D01*
X39291561Y-7140900D02*
X39236704Y-7217091D01*
X39236704Y-7217091D02*
X39181847Y-7369472D01*
X39181847Y-7369472D02*
X39181847Y-7598043D01*
X39181847Y-7598043D02*
X39236704Y-7750424D01*
X39236704Y-7750424D02*
X39291561Y-7826615D01*
X39291561Y-7826615D02*
X39401276Y-7902805D01*
X39401276Y-7902805D02*
X39840133Y-7902805D01*
X38742990Y-8207567D02*
X38194419Y-8207567D01*
X38852704Y-8664710D02*
X38468704Y-7064710D01*
X38468704Y-7064710D02*
X38084704Y-8664710D01*
X37700704Y-8664710D02*
X37700704Y-7064710D01*
X37700704Y-7064710D02*
X37426418Y-7064710D01*
X37426418Y-7064710D02*
X37261847Y-7140900D01*
X37261847Y-7140900D02*
X37152132Y-7293281D01*
X37152132Y-7293281D02*
X37097275Y-7445662D01*
X37097275Y-7445662D02*
X37042418Y-7750424D01*
X37042418Y-7750424D02*
X37042418Y-7978996D01*
X37042418Y-7978996D02*
X37097275Y-8283758D01*
X37097275Y-8283758D02*
X37152132Y-8436139D01*
X37152132Y-8436139D02*
X37261847Y-8588520D01*
X37261847Y-8588520D02*
X37426418Y-8664710D01*
X37426418Y-8664710D02*
X37700704Y-8664710D01*
X36603561Y-8207567D02*
X36054990Y-8207567D01*
X36713275Y-8664710D02*
X36329275Y-7064710D01*
X36329275Y-7064710D02*
X35945275Y-8664710D01*
X34902989Y-8664710D02*
X35286989Y-7902805D01*
X35561275Y-8664710D02*
X35561275Y-7064710D01*
X35561275Y-7064710D02*
X35122418Y-7064710D01*
X35122418Y-7064710D02*
X35012703Y-7140900D01*
X35012703Y-7140900D02*
X34957846Y-7217091D01*
X34957846Y-7217091D02*
X34902989Y-7369472D01*
X34902989Y-7369472D02*
X34902989Y-7598043D01*
X34902989Y-7598043D02*
X34957846Y-7750424D01*
X34957846Y-7750424D02*
X35012703Y-7826615D01*
X35012703Y-7826615D02*
X35122418Y-7902805D01*
X35122418Y-7902805D02*
X35561275Y-7902805D01*
X33531561Y-8055186D02*
X32653847Y-8055186D01*
X31392132Y-7064710D02*
X30733847Y-7064710D01*
X31062989Y-8664710D02*
X31062989Y-7064710D01*
X29691561Y-8664710D02*
X30075561Y-7902805D01*
X30349847Y-8664710D02*
X30349847Y-7064710D01*
X30349847Y-7064710D02*
X29910990Y-7064710D01*
X29910990Y-7064710D02*
X29801275Y-7140900D01*
X29801275Y-7140900D02*
X29746418Y-7217091D01*
X29746418Y-7217091D02*
X29691561Y-7369472D01*
X29691561Y-7369472D02*
X29691561Y-7598043D01*
X29691561Y-7598043D02*
X29746418Y-7750424D01*
X29746418Y-7750424D02*
X29801275Y-7826615D01*
X29801275Y-7826615D02*
X29910990Y-7902805D01*
X29910990Y-7902805D02*
X30349847Y-7902805D01*
X29252704Y-8207567D02*
X28704133Y-8207567D01*
X29362418Y-8664710D02*
X28978418Y-7064710D01*
X28978418Y-7064710D02*
X28594418Y-8664710D01*
X28210418Y-8664710D02*
X28210418Y-7064710D01*
X28210418Y-7064710D02*
X27552132Y-8664710D01*
X27552132Y-8664710D02*
X27552132Y-7064710D01*
X27058418Y-8588520D02*
X26893847Y-8664710D01*
X26893847Y-8664710D02*
X26619561Y-8664710D01*
X26619561Y-8664710D02*
X26509847Y-8588520D01*
X26509847Y-8588520D02*
X26454989Y-8512329D01*
X26454989Y-8512329D02*
X26400132Y-8359948D01*
X26400132Y-8359948D02*
X26400132Y-8207567D01*
X26400132Y-8207567D02*
X26454989Y-8055186D01*
X26454989Y-8055186D02*
X26509847Y-7978996D01*
X26509847Y-7978996D02*
X26619561Y-7902805D01*
X26619561Y-7902805D02*
X26838989Y-7826615D01*
X26838989Y-7826615D02*
X26948704Y-7750424D01*
X26948704Y-7750424D02*
X27003561Y-7674234D01*
X27003561Y-7674234D02*
X27058418Y-7521853D01*
X27058418Y-7521853D02*
X27058418Y-7369472D01*
X27058418Y-7369472D02*
X27003561Y-7217091D01*
X27003561Y-7217091D02*
X26948704Y-7140900D01*
X26948704Y-7140900D02*
X26838989Y-7064710D01*
X26838989Y-7064710D02*
X26564704Y-7064710D01*
X26564704Y-7064710D02*
X26400132Y-7140900D01*
X25906418Y-8664710D02*
X25906418Y-7064710D01*
X25906418Y-7064710D02*
X25522418Y-8207567D01*
X25522418Y-8207567D02*
X25138418Y-7064710D01*
X25138418Y-7064710D02*
X25138418Y-8664710D01*
X24589847Y-8664710D02*
X24589847Y-7064710D01*
X24205847Y-7064710D02*
X23547562Y-7064710D01*
X23876704Y-8664710D02*
X23876704Y-7064710D01*
M02*
