%TF.GenerationSoftware,KiCad,Pcbnew,10.0.5*%
%TF.CreationDate,2026-08-09T20:52:47+01:00*%
%TF.ProjectId,radar_5g8_transmit,72616461-725f-4356-9738-5f7472616e73,rev?*%
%TF.SameCoordinates,Original*%
%TF.FileFunction,Soldermask,Top*%
%TF.FilePolarity,Negative*%
%FSLAX46Y46*%
G04 Gerber Fmt 4.6, Leading zero omitted, Abs format (unit mm)*
G04 Created by KiCad (PCBNEW 10.0.5) date 2026-08-09 20:52:47*
%MOMM*%
%LPD*%
G01*
G04 APERTURE LIST*
G04 Aperture macros list*
%AMRoundRect*
0 Rectangle with rounded corners*
0 $1 Rounding radius*
0 $2 $3 $4 $5 $6 $7 $8 $9 X,Y pos of 4 corners*
0 Add a 4 corners polygon primitive as box body*
4,1,4,$2,$3,$4,$5,$6,$7,$8,$9,$2,$3,0*
0 Add four circle primitives for the rounded corners*
1,1,$1+$1,$2,$3*
1,1,$1+$1,$4,$5*
1,1,$1+$1,$6,$7*
1,1,$1+$1,$8,$9*
0 Add four rect primitives between the rounded corners*
20,1,$1+$1,$2,$3,$4,$5,0*
20,1,$1+$1,$4,$5,$6,$7,0*
20,1,$1+$1,$6,$7,$8,$9,0*
20,1,$1+$1,$8,$9,$2,$3,0*%
G04 Aperture macros list end*
%ADD10C,0.000000*%
%ADD11RoundRect,0.050000X-0.926764X-1.150000X0.926764X-1.150000X0.926764X1.150000X-0.926764X1.150000X0*%
%ADD12RoundRect,0.050000X-1.300000X-1.450000X1.300000X-1.450000X1.300000X1.450000X-1.300000X1.450000X0*%
%ADD13C,6.100000*%
%ADD14RoundRect,0.050000X0.650000X-0.500000X0.650000X0.500000X-0.650000X0.500000X-0.650000X-0.500000X0*%
G04 APERTURE END LIST*
D10*
G36*
X4794306Y-47237000D02*
G01*
X-599999Y-47237000D01*
X-599999Y-40237000D01*
X4794306Y-40237000D01*
X4794306Y-47237000D01*
G37*
G36*
X7617734Y-47237000D02*
G01*
X5182266Y-47237000D01*
X5182266Y-40237000D01*
X7617734Y-40237000D01*
X7617734Y-47237000D01*
G37*
G36*
X13400000Y-47237000D02*
G01*
X8005694Y-47237000D01*
X8005694Y-40237000D01*
X13400000Y-40237000D01*
X13400000Y-47237000D01*
G37*
G36*
X57661640Y-47237000D02*
G01*
X55226172Y-47237000D01*
X55226172Y-40237000D01*
X57661640Y-40237000D01*
X57661640Y-47237000D01*
G37*
G36*
X63443906Y-47237000D02*
G01*
X58049600Y-47237000D01*
X58049600Y-40237000D01*
X63443906Y-40237000D01*
X63443906Y-47237000D01*
G37*
G36*
X22929809Y-41271074D02*
G01*
X23170990Y-41370974D01*
X23378096Y-41529893D01*
X23537015Y-41737000D01*
X23636915Y-41978180D01*
X23670990Y-42237000D01*
X23636915Y-42495819D01*
X23537015Y-42737000D01*
X23378096Y-42944106D01*
X23170990Y-43103025D01*
X22929809Y-43202925D01*
X22670990Y-43237000D01*
X22412170Y-43202925D01*
X22170990Y-43103025D01*
X21963883Y-42944106D01*
X21804964Y-42737000D01*
X21705064Y-42495819D01*
X21670990Y-42237000D01*
X21705064Y-41978180D01*
X21804964Y-41737000D01*
X21963883Y-41529893D01*
X22170990Y-41370974D01*
X22412170Y-41271074D01*
X22670990Y-41237000D01*
X22929809Y-41271074D01*
G37*
G36*
X54838212Y-47237000D02*
G01*
X49443906Y-47237000D01*
X49443906Y-42858341D01*
X49378096Y-42944106D01*
X49170990Y-43103025D01*
X48929809Y-43202925D01*
X48670990Y-43237000D01*
X48412170Y-43202925D01*
X48170990Y-43103025D01*
X47963883Y-42944106D01*
X47804964Y-42737000D01*
X47705064Y-42495819D01*
X47670990Y-42237000D01*
X47705064Y-41978180D01*
X47804964Y-41737000D01*
X47963883Y-41529893D01*
X48170990Y-41370974D01*
X48412170Y-41271074D01*
X48670990Y-41237000D01*
X48929809Y-41271074D01*
X49170990Y-41370974D01*
X49378096Y-41529893D01*
X49443906Y-41615658D01*
X49443906Y-40237000D01*
X54838212Y-40237000D01*
X54838212Y-47237000D01*
G37*
G36*
X31056000Y-27593867D02*
G01*
X31039350Y-27579266D01*
X30675000Y-27335814D01*
X30281989Y-27142003D01*
X29867043Y-27001148D01*
X29437262Y-26915659D01*
X29000000Y-26887000D01*
X28562737Y-26915659D01*
X28132956Y-27001148D01*
X27718010Y-27142003D01*
X27325000Y-27335814D01*
X26960649Y-27579266D01*
X26631192Y-27868192D01*
X26342266Y-28197649D01*
X26098814Y-28562000D01*
X25905003Y-28955010D01*
X25764148Y-29369956D01*
X25678659Y-29799737D01*
X25650000Y-30237000D01*
X25678659Y-30674262D01*
X25764148Y-31104043D01*
X25905003Y-31518989D01*
X26098814Y-31912000D01*
X26342266Y-32276350D01*
X26631192Y-32605807D01*
X26960649Y-32894733D01*
X27325000Y-33138185D01*
X27718010Y-33331996D01*
X28132956Y-33472851D01*
X28562737Y-33558340D01*
X29000000Y-33587000D01*
X29437262Y-33558340D01*
X29867043Y-33472851D01*
X30281989Y-33331996D01*
X30675000Y-33138185D01*
X31039350Y-32894733D01*
X31056000Y-32880131D01*
X31056000Y-38236984D01*
X3764000Y-38236984D01*
X3764000Y-7571531D01*
X3999999Y-7587000D01*
X4437262Y-7558340D01*
X4867043Y-7472851D01*
X5281989Y-7331996D01*
X5675000Y-7138185D01*
X6039350Y-6894733D01*
X6368807Y-6605807D01*
X6657733Y-6276350D01*
X6901185Y-5912000D01*
X7094996Y-5518989D01*
X7235851Y-5104043D01*
X7259530Y-4984999D01*
X31056000Y-4984999D01*
X31056000Y-27593867D01*
G37*
G36*
X64342266Y-5197649D02*
G01*
X64098814Y-5562000D01*
X63905003Y-5955010D01*
X63764148Y-6369956D01*
X63678659Y-6799737D01*
X63650000Y-7237000D01*
X63678659Y-7674262D01*
X63764148Y-8104043D01*
X63905003Y-8518989D01*
X64098814Y-8911999D01*
X64342266Y-9276350D01*
X64631192Y-9605807D01*
X64960649Y-9894733D01*
X65325000Y-10138185D01*
X65718010Y-10331996D01*
X66132956Y-10472851D01*
X66562737Y-10558340D01*
X67000000Y-10587000D01*
X67437262Y-10558340D01*
X67867043Y-10472851D01*
X68079000Y-10400901D01*
X68079000Y-38236984D01*
X40786000Y-38236984D01*
X40786000Y-32741569D01*
X40960649Y-32894733D01*
X41324999Y-33138185D01*
X41718010Y-33331996D01*
X42132956Y-33472851D01*
X42562737Y-33558340D01*
X43000000Y-33587000D01*
X43437262Y-33558340D01*
X43867043Y-33472851D01*
X44281989Y-33331996D01*
X44675000Y-33138185D01*
X45039350Y-32894733D01*
X45368807Y-32605807D01*
X45657733Y-32276350D01*
X45901185Y-31912000D01*
X46094996Y-31518989D01*
X46235851Y-31104043D01*
X46321340Y-30674262D01*
X46350000Y-30237000D01*
X46321340Y-29799737D01*
X46235851Y-29369956D01*
X46094996Y-28955010D01*
X45901185Y-28562000D01*
X45657733Y-28197649D01*
X45368807Y-27868192D01*
X45039350Y-27579266D01*
X44675000Y-27335814D01*
X44281989Y-27142003D01*
X43867043Y-27001148D01*
X43437262Y-26915659D01*
X43000000Y-26887000D01*
X42562737Y-26915659D01*
X42132956Y-27001148D01*
X41718010Y-27142003D01*
X41325000Y-27335814D01*
X40960649Y-27579266D01*
X40786000Y-27732429D01*
X40786000Y-4984999D01*
X64528755Y-4984999D01*
X64342266Y-5197649D01*
G37*
D11*
%TO.C,TX1*%
X6400000Y-45937000D03*
D12*
X3003336Y-45637000D03*
X9796664Y-45637000D03*
%TD*%
D13*
%TO.C,H1*%
X4000000Y-4237000D03*
%TD*%
D14*
%TO.C,R1*%
X15398231Y-40336985D03*
X15398231Y-42436983D03*
%TD*%
D11*
%TO.C,TX2*%
X56443906Y-45937000D03*
D12*
X53047242Y-45637000D03*
X59840570Y-45637000D03*
%TD*%
D13*
%TO.C,H3*%
X34000000Y-43237000D03*
%TD*%
D14*
%TO.C,R2*%
X65442137Y-40336985D03*
X65442137Y-42436983D03*
%TD*%
D13*
%TO.C,H4*%
X43000000Y-30237000D03*
%TD*%
%TO.C,H2*%
X67000000Y-7237000D03*
%TD*%
%TO.C,H5*%
X29000000Y-30237000D03*
%TD*%
M02*
